<?xml version="1.0" encoding="utf-8"?>
<!-- Generator: Adobe Illustrator 19.0.0, SVG Export Plug-In . SVG Version: 6.00 Build 0)  -->
<svg version="1.1" id="Capa_1" xmlns="http://www.w3.org/2000/svg" xmlns:xlink="http://www.w3.org/1999/xlink" x="0px" y="0px"
	 viewBox="-58 194.9 479 453" style="enable-background:new -58 194.9 479 453;" xml:space="preserve">
<style type="text/css">
	.st0{fill:#F6F6F6;}
	.st1{fill:#F9EF6B;}
	.st2{fill:#F6CFA9;}
	.st3{fill:#95C13D;}
	.st4{fill:#1D1D1B;}
	.st5{fill:#FFFFFF;}
	.st6{fill:#CEEBEB;}
	.st7{opacity:0.89;}
	.st8{clip-path:url(#SVGID_2_);fill:#95C13D;}
	.st9{clip-path:url(#SVGID_4_);fill:#95C13D;}
	.st10{clip-path:url(#SVGID_6_);fill:#95C13D;}
	.st11{clip-path:url(#SVGID_8_);fill:#95C13D;}
	.st12{clip-path:url(#SVGID_10_);fill:#95C13D;}
	.st13{clip-path:url(#SVGID_12_);fill:#34AD61;}
	.st14{clip-path:url(#SVGID_14_);fill:#34AD61;}
	.st15{clip-path:url(#SVGID_16_);fill:#34AD61;}
	.st16{clip-path:url(#SVGID_18_);fill:#34AD61;}
	.st17{clip-path:url(#SVGID_20_);fill:#34AD61;}
	.st18{clip-path:url(#SVGID_22_);fill:#1D1D1B;}
	.st19{clip-path:url(#SVGID_24_);fill:#1D1D1B;}
	.st20{clip-path:url(#SVGID_26_);fill:#1D1D1B;}
	.st21{clip-path:url(#SVGID_28_);fill:#1D1D1B;}
	.st22{clip-path:url(#SVGID_30_);fill:#1D1D1B;}
	.st23{fill:#E93943;}
	.st24{fill:#403C3D;}
	.st25{fill:#FFDE00;}
</style>
<g>
	<path d="M413.6,438.7c1.2,41.2-0.8,86.5-24.4,125.1c-42.4,69.2-185.8,94.6-285.4,70.1c-56.5-13.9-87-46.4-110-82.1
		c-26.3-40.6-40.2-84.5-41-128.8c0-0.8,0.4-1.4,0.9-2c-9.2-48.2-6.9-99.2,28-142.9c31.7-39.5,87.5-64.7,152.7-72.6
		c54-6.5,120.5-4.7,167.6,16.2c42.6,18.9,67.3,50.7,82.4,82.5C404.8,347.1,412.4,393.8,413.6,438.7z M393,525.8
		c11.2-39.8,11-81.8,6.1-122.1c-4.5-37.3-13.1-75.9-33.4-111c-18.9-32.6-51.1-63.2-102.5-74.7c-51.3-11.5-112.8-10.1-163.5,1.9
		C-28.1,250.2-47.6,344.1-34.6,423.3c0.2,0.9-0.3,1.6-0.8,2.2c2.4,46.1,17.2,91.4,46.8,133.2c29.6,41.6,72.7,70,143.3,74.8
		c50.3,3.4,106.4-3.1,151.3-18.9C357.7,596.3,382.6,563,393,525.8z"/>
	<path d="M388.5,431.4c1,6.5-1.6,13.7-2.7,20.2c-0.4,2.1-5.3,2.2-5.1,0c0.9-6.6,0.5-14.2,3.6-20.6
		C385.1,429.4,388.3,429.9,388.5,431.4z"/>
	<path d="M388.3,475.2c1.1,5.9-1.7,12.6-2.8,18.5c-0.4,2.1-5.2,2.2-5,0c0.7-6.1,0.1-13.1,3.1-18.9C384.6,473,388,473.5,388.3,475.2z
		"/>
	<path d="M383.2,383.8c2.1,6.7,1.1,13.9,0.8,20.6c-0.2,2.6-5.8,2.5-5.9,0c-0.3-6.8-1.3-14,0.8-20.6
		C379.3,382.4,382.8,382.4,383.2,383.8z"/>
	<path d="M378.4,520.7c0.9,6.6-3.6,13.5-8.2,19.2c-1,1.3-4.4,0.4-3.6-1c3.7-6.1,4.7-12.4,7.3-18.6
		C374.7,518.6,378.2,519.1,378.4,520.7z"/>
	<path d="M374,358.9c0.2,1.9-4.6,2.3-4.9,0.4c-1.2-5.8-2.2-11.5-2.4-17.3c-0.1-1.8,4.3-2.3,4.8-0.4C373,347.3,373.6,353.1,374,358.9
		z"/>
	<path d="M362,560.2c2.1-1.1,5,0.2,3.7,1.9c-2.6,3.3-6.8,6.2-10.2,9.2c-3.5,3-6.7,6.2-9.9,9.3c-1.6,1.6-5.4,0.2-3.9-1.5
		c3.2-3.4,6.4-6.8,9.8-10.1C354.7,565.9,357.8,562.4,362,560.2z"/>
	<path d="M360.1,312.4c6.2,3.2,6.6,10.2,5.6,15c-0.4,1.7-4.3,1.2-4.4-0.4c-0.1-2.4-0.7-4.7-1.7-6.9c-0.9-2.1-2.8-4-3.5-6.1
		C355.7,312.3,358.3,311.4,360.1,312.4z"/>
	<path d="M352.8,294.1c1,1.3-1.5,2.8-3.2,1.7c-6.3-4.5-10.8-10.1-15.5-15.4c-1-1,1.4-2.3,2.6-1.3
		C342.5,283.8,348.8,288.7,352.8,294.1z"/>
	<path d="M322.8,595.1c2.8-0.6,3.9,2,1.9,2.9c-8.7,4.3-20.4,6.9-30.2,10c-2.5,0.8-4.7-1.6-2.2-2.5
		C302,602.1,312.3,597.4,322.8,595.1z"/>
	<path d="M317.6,258.3c1.8,1.5-0.9,3.2-3.1,2.1c-6.5-3.5-12-7.6-17.8-11.7c-2.2-1.6,1.2-3.8,3.5-2.3
		C306.2,250.2,312.4,253.9,317.6,258.3z"/>
	<path d="M261.2,234.5c2.5,0.6,1.5,2.9-1.1,2.7c-7.6-0.7-15-2.7-22.3-4.1c-2.1-0.4-1.3-2.5,0.9-2.2
		C246.2,231.9,254,232.7,261.2,234.5z"/>
	<path d="M257.7,615.8c2.2-0.2,4,1.8,1.7,2.6c-9.1,3.1-21.4,3.8-31.4,3.1c-2.7-0.2-2.7-2.7,0-2.8c5.3-0.3,10.5-0.4,15.8-1
		C248.4,617.2,253,616.3,257.7,615.8z"/>
	<path d="M190.4,622.2c1.9-0.1,2.6,1.8,1,2.4c-11,3.6-25.2,2.3-36.4-0.2c-2-0.4-1.2-2.5,0.9-2.1C168,624.4,178.1,623,190.4,622.2z"
		/>
	<path d="M182.9,224.4c2.6,0.1,3.2,2.6,0.6,3.1c-7.4,1.4-15.5,1.7-23.2,2c-2.9,0.1-3.6-3.1-0.7-3.4
		C167.2,225.2,175.1,224.2,182.9,224.4z"/>
	<path d="M122.6,617.4c1.8,0.1,2.6,2,0.5,2.3c-4.3,0.6-8.5,0.2-12.5-1c-3.1-0.9-8.5-3-7.4-5.7c0.3-0.6,1.1-1,2-1
		c3-0.2,5.1,2.1,7.4,3.1C115.6,616.3,119,617,122.6,617.4z"/>
	<path d="M119.4,229.3c2.5-0.5,3.5,1.7,1.6,2.6c-5.9,2.9-13.3,4.7-20,6.8c-2.4,0.7-4.5-1.6-2.1-2.4
		C105.5,233.9,112.2,230.9,119.4,229.3z"/>
	<path d="M81,601c1.7,1-0.5,2.7-2.4,2.1c-7.9-2.8-15.3-7.2-18.6-12.9c-1-1.7,2.8-3.1,4.5-1.8C69.9,592.8,74.6,597.3,81,601z"/>
	<path d="M64.2,243.5c2.5-0.8,5.4,1.3,3.1,2.7c-8,4.9-15.7,9.1-21.6,15.3c-1.4,1.5-4.5,0.2-3.4-1.3C47,253.7,54.4,246.9,64.2,243.5z
		"/>
	<path d="M45.3,569.2c2,0.8,0.6,3.1-1.6,2.5c-7-1.9-14.9-7.1-13.2-12.7c0.4-1.3,3.5-1.7,4.3-0.4c1.3,2,1.7,4,3.3,5.9
		C39.9,566.5,42.3,568.1,45.3,569.2z"/>
	<path d="M18.5,278.4c2.2-1.1,4.3,1.2,2.7,2.4c-7.6,6-13.7,11.9-16.5,19.7c-0.7,2-5,1.1-4.4-0.8C2.7,291.4,8.4,283.4,18.5,278.4z"/>
	<path d="M20.2,537.6c1.2,1-1.4,2.2-2.7,1.3c-7.7-5-14.6-12.9-13-20.4c0.4-1.6,3.9-1.3,4.5,0c1.4,3.2,1.8,6.5,3.5,9.6
		C14.4,531.6,17,534.7,20.2,537.6z"/>
	<path d="M-1.2,496.8c0.7,1.7-3,2.3-3.9,0.7c-3.5-5.8-8.1-12.4-9.6-18.6c-0.4-1.6,2.8-2.7,4.1-1.1C-6.2,483.4-3.8,490.6-1.2,496.8z"
		/>
	<path d="M-12.4,329c1.5-1.1,4.5,0.1,3.8,1.4c-4.2,8.1-8.3,14.5-7.1,23.4c0.2,1.5-3.4,1.8-3.8,0.4C-21.9,346-20.9,335.7-12.4,329z"
		/>
	<path d="M-16.5,434.1c4.1,6,3.4,13.3,1.7,19.7c-0.4,1.5-4.2,1.1-4-0.4c1-6.4-1.1-12.2-2.1-18.5C-21.2,433.4-17.5,432.7-16.5,434.1z
		"/>
	<path d="M-18.1,404.4c0.1,1.6-3.7,1.9-4,0.4c-1.5-7.7-4.5-16.2-3.6-23.9c0.2-1.8,4.1-2.3,4.9-0.4C-17.9,388-18.6,396.6-18.1,404.4z
		"/>
</g>
<g id="ninoleyendo">
	<path id="XMLID_63_" class="st0" d="M256.2,419.4c-0.7-0.9-1.4-1.2-2.5-1.2c-0.8,0-1.6,0-2.4-0.1c-1.6-0.2-2.7,0.9-2.6,2.2
		c-0.3,0.4-0.5,0.8-0.5,1.4c-1.4,0.3-1.9,2.1-0.8,3.2c0.6,0.6,1.3,0.8,2,0.8c1,0.3,2.1,0.6,3.1,1.1c0.9,0.4,1.9,0.3,2.6-0.5
		c0.6-0.6,0.8-1.8,0.3-2.7c-0.3-0.4-0.6-0.7-0.9-1.1v-0.1c0.7-0.1,1.3-0.5,1.8-1.3C256.6,420.9,256.6,420,256.2,419.4"/>
	<path id="XMLID_62_" class="st0" d="M157.7,550.9c-0.3-0.8-1.1-1-1.8-0.6c-0.9-0.4-1.8-0.6-2.7-1c-0.7-0.3-1.3,0-1.6,0.6
		c-0.4-0.1-0.6-0.2-1-0.2c-1.2-0.2-2.1,1.7-0.8,2.1c0.6,0.3,1.2,0.6,1.8,0.8c0.2,0.1,0.4,0.3,0.6,0.4c0.5,0.5,1,0.9,1.7,1.2
		c0.8,0.4,1.6,0.1,1.9-0.5h0.1c1,0.4,2-0.6,1.9-1.6C157.9,551.6,157.8,551.3,157.7,550.9"/>
	<path id="XMLID_61_" class="st0" d="M217.4,546.2c-1.2-0.6-2.6-0.5-3.9-0.6c-1.1,0-1.7,1-1.6,2l0,0c-0.8,0.1-1.5,0.8-1.5,1.6
		c-0.3,0-0.6,0-0.8,0c-0.7,0-1.2,1.1-0.6,1.6c1.3,0.9,2.9,1.3,4.4,1.5c1.1,0.1,1.8-0.7,1.8-1.7c0.7-0.2,1.1-0.8,1.1-1.5
		c0.3,0,0.6-0.1,0.8-0.2C218.4,548.6,218.6,546.9,217.4,546.2"/>
	<polygon id="XMLID_60_" class="st1" points="140.9,490.2 146.4,443.2 208.3,439.1 221.1,490.2 	"/>
	<path id="XMLID_59_" class="st2" d="M106.3,398.4c0,0-5.2-51,45.4-60.3c41.4-7.7,83.5,17.2,81.7,49.8s0.8,41.8-54.7,59.7
		c0,0-23.5,0.2-32.6-2.8C136.9,441.9,112.3,430.2,106.3,398.4"/>
	<polygon id="XMLID_58_" class="st3" points="191.2,513.1 189.5,490.2 218.6,490.3 215.6,514.7 	"/>
	<polygon id="XMLID_57_" class="st3" points="174.8,514.2 174.4,492.6 149.6,490.3 150.9,513.5 	"/>
	<path id="XMLID_119_" class="st4" d="M141.6,461.7c-1,9.5-1.8,19-2.6,28.5c-0.1,0.9,0.9,1.7,1.8,1.7c2.7,0,5.4,0,7.9-0.1
		c-0.7,7.4-0.6,15-0.6,22.3c0,0.9,0.8,1.7,1.8,1.6c3.6-0.2,7.2-0.5,10.8-0.6c-1.6,11.4-1.7,23.2-1.3,34.5c-1.6-1.5-3.2-3-5.4-3.2
		s-4.7,0.6-5.5,2.8s0.5,4.5,2.4,5.7c2.8,1.8,6.4,0.6,9.1-0.6c0.2-0.1,0.3-0.3,0.4-0.4c0.4,0,0.7-0.1,1-0.4c0.8-0.1,1.6-0.6,1.5-1.7
		c-0.5-12.3,0.9-24.7,0.2-36.8c0.2,0,0.5,0,0.6,0l7.3-0.5c1.3-0.1,3.6,0.2,4.7-0.6c2.1-1.6,1.3-5.4,1.4-7.7c0.1-5,0.3-10,0.4-15
		c3.2-0.1,6.6-0.2,9.8-0.3c-0.4,3.6,0.3,7.4,0.5,11c0.2,2.8-0.6,8.8,1.7,10.8c2.2,2,7.7,1,10.3,1.1c0.6,0,1.2,0,1.8,0
		c0.6,11.5,2.4,23.1,3.4,34.6c0.1,0.9,0.7,1.4,1.5,1.5c-0.1,0.4,0,0.7,0.4,0.9c2.8,1.3,5.7,2.6,8.8,1.7c2.4-0.6,4.4-2.7,4.3-5.3
		c-0.1-2.4-1.8-4.3-4.2-4.4c-3.5-0.1-5.1,3.1-7.6,4.8c-0.8-11.3-1.8-22.7-4.2-33.7c3.8,0.1,7.7,0.2,11.5,0.3c0.9,0,1.7-0.9,1.7-1.8
		c0.1-7.5,0.8-15.2,0.2-22.7c1.2-0.1,2.4-0.1,3.6-0.2c1.1-0.1,1.9-1.2,1.6-2.3c-3.3-10.9-6.6-21.7-9.9-32.6
		c7.9-0.3,17.1-4.5,23.1-8.9c6.3-4.5,11.5-11,13.5-18.7c2.2,0.6,4.7,0.3,6.5-1.2c2.3-2,2.7-5.6,1-8.2c-1.9-2.9-5.8-3-8.4-1
		c-2.9,2.2-3.1,5.9-1.9,9c0,0.1,0,0.1-0.1,0.1c-2.5,7.7-7.3,13.8-14,18.2c-3.8,2.5-7.9,4.2-12.2,5.6c-2.7,0.8-5.6,1.4-8.3,2.3
		c-1.2-4-2.4-7.9-3.7-11.9c-0.1-0.2-0.1-0.4-0.2-0.5c14.6-7.1,26-19.2,27.3-37.1c1-12.8-1.6-27.3-7.8-38.7
		c-5.9-10.9-16.2-18.5-27.7-22.5c-13.9-4.9-29.4-5-43.9-3.1c-12.2,1.6-23.8,5.6-32.9,14.1c-17.6,16.5-21.6,42.8-10.8,64.2
		c6.4,12.7,18,22.8,31.5,28.3c-0.7,4.9-1.3,9.9-1.8,14.8 M142.7,455.5c-6.7,14.1-19,21.7-34.6,21.1c-0.5-1.8-1.9-3.3-3.8-4
		c-2.9-0.9-5.7,0.7-6.6,3.6c-0.9,2.9,0.3,6.3,3.3,7.2s6.9-0.9,7.6-4.2l0,0c15.3,1.8,30.9-7.8,35.9-22.4 M106,477.2
		c-0.2,0.4-0.2,0.9,0,1.3c0,0,0,0.1-0.1,0.1c-0.6,1.8-2.6,2.9-4.4,2.3c-1.8-0.6-2.1-2.7-1.5-4.2C101.3,473.6,104.9,474.8,106,477.2
		 M153.2,553.3c-1.4-0.6-3.2-2.8-1.3-3.9c2.4-1.4,5,1.5,6.8,3.2C157,553.3,154.9,554.1,153.2,553.3 M211.9,548.1
		c1.2-1.2,4.5-4.2,5.3-1c0.6,2.2-1.8,3.5-3.8,3.7c-1.3,0.1-2.7-0.2-4-0.6C210.3,549.5,211.2,548.8,211.9,548.1 M120.1,423.4
		c-13.8-18.5-14.8-43.9-0.6-62.4c15.2-19.9,43.6-23.2,67-19.6c11.7,1.8,23.3,6.4,31.7,15c9,9,12.5,21.9,13.8,34.2
		c1.5,14.2-1.6,27.3-12.1,37.6c-10.3,10.1-24.7,14.4-38.7,15.8c-0.6,0.1-1,0.4-1.2,0.8c-10.5,1.4-20.9,1.7-31.2-1.5
		C137.3,439.8,127.2,432.9,120.1,423.4 M173.9,502.1c0,1.9,0.2,4.2-0.2,6c-0.5,2.3-0.2,2.5-2.8,3c-3.1,0.6-6.6,0.4-9.8,0.6l-9.6,0.6
		c0.1-6.8,0.3-13.8-0.3-20.6c7.7-0.1,15.2-0.2,22.9-0.5C174,495,173.9,498.6,173.9,502.1 M213.6,510.7c-3.3-0.1-6.6-0.1-9.9-0.2
		c-3.1-0.1-8.7,0.9-11-1.1s-1.7-7.8-1.8-10.9c-0.2-2.5-0.3-5.2-0.9-7.6c8-0.3,16-0.6,23.9-1C213.3,496.7,213.6,503.8,213.6,510.7
		 M218.5,486.2c-25.3,1.3-50.5,2.1-75.8,2.2c1.2-14.3,2.6-28.5,3-42.8c11.3,4.2,23.5,5,35,1.3c0.2,0.1,0.4,0.1,0.6,0.1
		c8-0.7,16.2-2.7,23.6-5.9v0.1C209.3,456.2,213.9,471.1,218.5,486.2 M253.5,424c-1.3,1-2.9,1.1-4.4,0.7c-0.8-1.9-0.7-4.5,1.1-5.8
		c1.5-1,3.5-0.8,4.2,0.9C255,421.3,254.8,423.1,253.5,424"/>
	<path id="XMLID_46_" class="st4" d="M215,411.2c-6.1,3.8-11.4,7.8-18.4,10.5c-7.1,2.8-15,4.6-22.9,5c-7.4,0.5-14.9-0.3-22-1.9
		c-6.9-1.7-12.7-4.5-18.8-7.3l-0.1-0.1c-0.7-0.4-1.6-0.7-2.4-1c-1.3-0.5-2.4,0.8-1.5,1.6c10.5,9.1,29.7,12.6,44.8,11.7
		c15.1-0.8,33.7-6.5,43.2-16.5C218.2,412.1,216.6,410.2,215,411.2"/>
	<path id="XMLID_45_" class="st4" d="M162.8,398.9c-1.4-2.5-5.5-2.9-6.9-0.1c-0.1,0.2-0.2,0.4-0.2,0.6c-0.3,0.4-0.6,0.8-0.6,1.3
		c-0.4,1.7,0.8,3.4,2.3,4.1C160.6,406.1,164.6,402.2,162.8,398.9"/>
	<path id="XMLID_44_" class="st4" d="M185.2,396.4c-1.1-2.6-4.7-3-6.5-0.8c-0.2,0.3-0.3,0.5-0.5,0.7c-0.8,1-1,2.3-0.6,3.4
		c0.6,1.5,2,1.9,3.5,1.9C184.1,401.9,186.3,399.2,185.2,396.4"/>
	<polygon id="XMLID_43_" class="st5" points="101.7,421.5 121.5,542.6 194.4,562.7 252,533 247.5,397.5 183.8,443.5 	"/>
	<polygon id="XMLID_42_" class="st6" points="95.3,431.1 117.6,571.1 203.5,586.7 256.6,562.1 255.6,405.7 183.8,443.5 	"/>
	<path id="XMLID_2_" d="M203.7,588.2l-0.5-0.1l-87-15.7L93.4,429.3l90.1,12.7l73.4-38.8l1.1,159.9L203.7,588.2z M118.9,569.9
		l84.4,15.2l51.8-23.9l-1.1-153l-69.9,36.9l-0.5-0.1l-86.5-12.1L118.9,569.9z"/>
	<path id="XMLID_41_" d="M175,448.2c0,0,0.1,0.6,0.2,1.5c0.1,0.9,0.3,2.4,0.5,4.2s0.5,4,0.7,6.5c0.3,2.5,0.6,5.3,0.9,8.3
		c0.2,1.6,0.3,3.1,0.5,4.8s0.4,3.3,0.6,5.1c0.4,3.5,0.7,7.2,1.1,11c0.2,1.9,0.4,3.9,0.6,5.8c0.2,1.9,0.4,4,0.6,6
		c0.4,4.1,0.7,8.1,1.1,12.2c0.4,4.1,0.7,8.2,1,12.2c0.1,1,0.2,2,0.3,3s0.2,2,0.3,3c0.2,1.9,0.3,3.9,0.5,5.8
		c0.3,3.8,0.6,7.6,0.8,11.1c0.1,1.8,0.3,3.5,0.4,5.1c0.1,1.7,0.3,3.2,0.4,4.8c0.2,3,0.4,5.9,0.6,8.4c0.2,2.5,0.3,4.7,0.5,6.5
		c0.1,1.8,0.2,3.2,0.3,4.2c0.1,0.9,0.1,1.5,0.1,1.5s-0.1-0.6-0.2-1.5s-0.3-2.4-0.5-4.2s-0.5-4-0.7-6.5c-0.3-2.5-0.6-5.3-0.9-8.3
		c-0.2-1.6-0.4-3.1-0.5-4.8c-0.2-1.7-0.4-3.3-0.6-5.1c-0.4-3.5-0.7-7.2-1.1-11c-0.2-1.9-0.4-3.9-0.6-5.8c-0.1-1-0.2-1.9-0.3-3
		c-0.1-1-0.2-2-0.3-3c-0.4-4.1-0.7-8.1-1.1-12.2c-0.4-4.1-0.7-8.2-1-12.2c-0.2-2-0.4-4-0.5-6c-0.2-1.9-0.3-3.9-0.5-5.8
		c-0.3-3.8-0.6-7.6-0.8-11.1c-0.1-1.8-0.3-3.5-0.4-5.1c-0.1-1.7-0.3-3.2-0.4-4.8c-0.2-3-0.4-5.9-0.6-8.4s-0.3-4.7-0.5-6.5
		c-0.1-1.8-0.2-3.2-0.3-4.2C175,448.8,175,448.2,175,448.2"/>
	<path id="XMLID_40_" d="M191.7,447.1c0,0,0.1,0.6,0.2,1.5c0.1,1,0.3,2.4,0.6,4.2c0.2,1.8,0.5,4.1,0.8,6.6s0.6,5.4,1,8.5
		c0.2,1.6,0.4,3.2,0.6,4.9c0.2,1.7,0.4,3.4,0.6,5.2c0.4,3.6,0.8,7.4,1.2,11.3c0.2,1.9,0.4,4,0.6,5.9c0.2,2,0.5,4.1,0.6,6.1
		c0.4,4.1,0.8,8.3,1.2,12.5c0.4,4.2,0.8,8.3,1.2,12.5c0.1,1,0.2,2,0.3,3s0.2,2,0.3,3c0.2,2,0.4,4,0.6,5.9c0.4,3.9,0.6,7.7,1,11.3
		c0.2,1.8,0.3,3.5,0.5,5.3c0.1,1.7,0.3,3.3,0.4,4.9c0.3,3.1,0.5,6,0.6,8.6s0.4,4.8,0.5,6.6s0.2,3.2,0.3,4.2s0.1,1.5,0.1,1.5
		s-0.1-0.6-0.2-1.5c-0.1-1-0.3-2.4-0.6-4.2c-0.2-1.8-0.5-4.1-0.8-6.6s-0.6-5.4-1-8.5c-0.2-1.6-0.4-3.2-0.6-4.9
		c-0.2-1.7-0.4-3.4-0.6-5.2c-0.4-3.6-0.8-7.4-1.2-11.3c-0.2-1.9-0.4-4-0.6-5.9c-0.1-1-0.2-2-0.3-3s-0.2-2-0.3-3
		c-0.4-4.1-0.8-8.3-1.2-12.5c-0.4-4.2-0.8-8.3-1.2-12.5c-0.2-2-0.4-4.1-0.6-6.1s-0.4-4-0.6-5.9c-0.4-3.9-0.6-7.7-1-11.3
		c-0.2-1.8-0.3-3.5-0.5-5.3c-0.1-1.7-0.3-3.3-0.4-4.9c-0.3-3.1-0.5-6-0.6-8.6c-0.2-2.6-0.4-4.8-0.5-6.6s-0.2-3.2-0.3-4.2
		C191.8,447.7,191.7,447.1,191.7,447.1"/>
	<g id="XMLID_74_" class="st7">
		<g id="XMLID_75_">
			<g>
				<g>
					<g>
						<defs>
							<rect id="SVGID_1_" x="195.7" y="450.4" width="55.7" height="36.2"/>
						</defs>
						<clipPath id="SVGID_2_">
							<use xlink:href="#SVGID_1_"  style="overflow:visible;"/>
						</clipPath>
						<path id="XMLID_39_" class="st8" d="M237.9,465c-0.3-0.2-0.6-0.4-0.9-0.6c0.3-0.6-0.1-1.4-0.8-1.2c-0.3,0.1-0.6,0.2-0.8,0.3
							c-0.6,0.2-0.8,0.9-0.4,1.3c0.2,0.2,0.4,0.3,0.6,0.5c-0.5,0.3-0.6,1-0.1,1.3c-0.4,0.2-0.5,0.7-0.3,1c0.1,0.1,0.2,0.2,0.2,0.3
							c-0.3,0-0.6,0.1-0.7,0.1c-0.3,0.1-0.5,0.3-0.6,0.5c-0.1-0.1-0.2-0.2-0.4-0.3c-0.1,0-0.1,0-0.2-0.1c0.5-0.1,0.8-0.6,0.6-1
							c0.7-0.1,0.9-1.3,0.1-1.5c-0.2,0-0.3-0.1-0.5-0.2c0.3-0.4,0.3-0.9-0.2-1.2c0,0,0,0-0.1,0c0.4-0.5,0-1.3-0.6-1.3
							c-0.5,0-0.8,0.1-1.3,0.3c-0.5,0.1-0.6,0.6-0.6,0.9c-0.1,0-0.3,0.1-0.4,0.1c-0.6,0.2-0.8,1-0.3,1.4c-0.2,0.4,0,0.8,0.5,1
							c-0.2,0-0.4,0.1-0.6,0.1c-0.6,0.1-0.7,1-0.2,1.3c0.1,0.1,0.3,0.2,0.4,0.2c-0.2,0-0.3,0-0.5,0.1c-0.3,0-0.6,0.5-0.5,0.7
							c0.3,0.8,1,1.3,1.8,1.1c0.4-0.1,0.5-0.5,0.4-0.7c0.6,0,1.2,0,1.8,0.1c0.4,0,0.6-0.2,0.6-0.4c0.1,0.1,0.1,0.2,0.2,0.2l0.1,0.1
							c-0.1,0-0.3,0-0.4,0.1c-0.5,0.1-0.6,0.6-0.5,1c0.1,0.1,0.1,0.2,0.2,0.3c-0.6,0-1.3,0-1.9-0.2c-0.7-0.2-1.2,0.8-0.6,1.3
							c0.1,0.1,0.3,0.2,0.4,0.3c-0.9,0-1.9-0.1-2.9-0.2c-0.6-0.1-0.9,0.7-0.6,1.1c-0.4,0-0.7-0.1-1.1-0.1c-0.5-0.1-0.8,0.5-0.7,0.9
							c-0.7-0.1-1.5-0.2-2.1-0.3s-0.9,0.6-0.7,1c-0.6-0.1-1.3-0.2-1.9-0.2c-0.5-0.1-0.7,0.4-0.6,0.8c-0.6,0-1.3,0-1.9,0
							c-0.5,0-0.7,0.4-0.6,0.7c-0.7-0.1-1.5-0.2-2.2-0.4c-0.6-0.1-1,0.5-0.8,0.9c-0.5,0-1-0.1-1.5-0.1c-0.4,0-0.6,0.2-0.6,0.5
							c-0.7-0.1-1.5-0.3-2.2-0.4c-0.1,0-0.2,0-0.3,0c-0.8-0.5-1.6-0.8-2.4-1.2c0.1-0.3,0-0.6-0.3-0.7c-0.4-0.2-0.7-0.4-1-0.6
							c-0.1,0-0.1-0.1-0.2-0.1c0.3-0.4,0.1-1-0.5-1c-0.6,0.1-1.3,0.3-1.3,1c0,0.1,0,0.2,0.1,0.3c-0.5,0.2-0.6,0.9-0.1,1.1l0,0
							c-0.6,0-0.7,0.7-0.3,1s0.6,0.5,1,0.6c0,0,0,0-0.1,0c-0.6-0.2-0.9,0.6-0.5,1c0.8,0.6,1.8,1,2.7,1.5c0.5,0.3,0.8-0.4,0.4-0.6
							c-0.1-0.1-0.2-0.1-0.3-0.2c0.6,0.2,1.4,0.3,2,0.5c0.5,0.1,0.8-0.6,0.4-0.7c-0.3-0.1-0.5-0.2-0.7-0.4c0.6,0.2,1.3,0.4,1.8,0.6
							c0.3,0.1,0.6,0,0.6-0.2c0.5,0.2,1,0.3,1.6,0.4c0.3,0,0.4-0.2,0.4-0.5c0.4,0.1,0.8,0.2,1.2,0.2c0.5,0.1,0.9-0.4,0.8-0.7
							c0.6,0,1.1,0.1,1.6,0.1c0.4,0,0.6-0.4,0.6-0.6c0.6,0.1,1.3,0.1,1.9,0.1c0.5,0,0.7-0.4,0.6-0.7c0.6,0,1.2,0.1,1.8,0.2
							c0.5,0.1,0.6-0.3,0.6-0.6c0.7,0.1,1.6,0.2,2.3,0.3c0.5,0.1,0.8-0.5,0.7-0.9c0.7,0.1,1.4,0.2,2.1,0.3c0.6,0.1,0.9-0.6,0.7-1
							c0.4,0,0.8,0.1,1.2,0.1c0.6,0.1,1-0.8,0.6-1.3c0.6,0,1.4,0,2,0c0.6,0,0.9-0.6,0.6-1.1c-0.1-0.1-0.2-0.3-0.2-0.4
							c0.5,0,0.9,0,1.4-0.1s0.8-0.6,0.6-1c-0.1-0.1-0.1-0.2-0.2-0.3c0.5-0.1,0.9-0.1,1.4-0.2c0.6-0.1,0.6-0.9,0.3-1.3
							c0.8,0,1-1,0.4-1.5c-0.1-0.1-0.2-0.1-0.3-0.2c0.1,0,0.3-0.1,0.4-0.1c0.6-0.1,0.7-1,0.3-1.4C238.3,466.1,238.5,465.4,237.9,465
							"/>
					</g>
				</g>
			</g>
			<g>
				<g>
					<g>
						<defs>
							<rect id="SVGID_3_" x="195.7" y="450.4" width="55.7" height="36.2"/>
						</defs>
						<clipPath id="SVGID_4_">
							<use xlink:href="#SVGID_3_"  style="overflow:visible;"/>
						</clipPath>
						<path id="XMLID_38_" class="st9" d="M214.7,468.7c-0.6-0.5-1.2-0.8-1.8-1.2c-0.5-0.2-1.1,0.2-1,0.6c-0.1,0-0.1,0-0.2,0
							c-0.6,0-0.8,0.7-0.4,1.1c-0.2-0.1-0.4-0.1-0.6-0.2c-0.6-0.2-0.8,0.6-0.4,0.9c0.3,0.2,0.5,0.4,0.7,0.6c-0.3,0-0.6,0-0.9,0
							c-0.5,0-0.7,0.7-0.3,0.9c0.9,0.5,1.8,0.8,2.7,1.1c0.4,0.1,0.6-0.5,0.3-0.6c-0.1,0-0.1-0.1-0.2-0.1c0.2,0.1,0.5,0.1,0.6,0.2
							c0.6,0.2,0.9-0.6,0.4-0.9l-0.1-0.1h0.1c0.6,0.2,1-0.6,0.6-1c-0.1-0.1-0.1-0.1-0.2-0.2c0,0,0,0,0.1,0
							C215,470.3,215.3,469.2,214.7,468.7"/>
					</g>
				</g>
			</g>
			<g>
				<g>
					<g>
						<defs>
							<rect id="SVGID_5_" x="195.7" y="450.4" width="55.7" height="36.2"/>
						</defs>
						<clipPath id="SVGID_6_">
							<use xlink:href="#SVGID_5_"  style="overflow:visible;"/>
						</clipPath>
						<path id="XMLID_37_" class="st10" d="M213.4,460.3c-0.3-0.3-0.6-0.6-0.8-0.7c0-0.1-0.1-0.3-0.3-0.4c-0.5-0.3-0.7-0.3-1.2-0.2
							c-0.6,0.1-0.7,0.8-0.4,1.2c-0.1,0-0.2,0-0.4,0.1c-0.4,0.1-0.6,0.5-0.6,0.8c-0.5,0.1-0.6,0.7-0.4,1.1c-0.3,0-0.6-0.1-0.8-0.1
							c-0.6-0.1-1,1-0.4,1.3c0.1,0.1,0.3,0.1,0.4,0.2c-0.4,0-0.5,0.5-0.2,0.7c0.1,0.1,0.3,0.2,0.4,0.3c0.2,0.1,0.4,0,0.5-0.1
							c0.7,0.2,1.6,0.3,2.3,0.4c0.6,0.1,1-0.6,0.6-1c0.1,0,0.2,0,0.4,0c0.6,0.1,0.9-0.8,0.5-1.2c0.5-0.1,0.7-0.8,0.4-1.2
							C213.6,461.3,213.7,460.7,213.4,460.3"/>
					</g>
				</g>
			</g>
			<g>
				<g>
					<g>
						<defs>
							<rect id="SVGID_7_" x="195.7" y="450.4" width="55.7" height="36.2"/>
						</defs>
						<clipPath id="SVGID_8_">
							<use xlink:href="#SVGID_7_"  style="overflow:visible;"/>
						</clipPath>
						<path id="XMLID_36_" class="st11" d="M223.1,472.3c0.4-0.2,0.5-0.8,0-1c-0.9-0.5-2-0.4-3-0.5c-0.5,0-0.7,0.4-0.7,0.8
							c-0.2,0-0.4-0.1-0.6-0.1c-0.7-0.1-0.8,0.9-0.4,1.2c0.2,0.1,0.3,0.2,0.5,0.3c-0.2,0-0.4,0-0.5,0.1c-0.5,0.1-0.6,0.7-0.3,1
							c0.6,0.6,1.4,1,2.3,1.1c0.6,0,0.6-0.7,0.2-0.9c-0.1,0-0.2-0.1-0.2-0.1c0.4,0,0.7,0,1.1,0.1c0.5,0.1,0.6-0.4,0.6-0.7
							c0.2,0.1,0.5,0.1,0.6,0.2c0.7,0.2,1.3-0.8,0.6-1.3C223.1,472.4,223.1,472.4,223.1,472.3"/>
					</g>
				</g>
			</g>
			<g>
				<g>
					<g>
						<defs>
							<rect id="SVGID_9_" x="195.7" y="450.4" width="55.7" height="36.2"/>
						</defs>
						<clipPath id="SVGID_10_">
							<use xlink:href="#SVGID_9_"  style="overflow:visible;"/>
						</clipPath>
						<path id="XMLID_35_" class="st12" d="M227,460.5c-0.9-0.6-1.8-1.2-3-1.4c-0.5-0.1-0.9,0.3-0.9,0.6c-0.2,0-0.4-0.1-0.6-0.1
							c-0.6-0.1-1,0.4-1,0.7c-0.2,0-0.5-0.1-0.6-0.1c-0.6-0.1-1.2,0.8-0.6,1.2c-0.6,0.1-1,0.8-0.4,1.2c0.6,0.3,1,0.6,1.6,0.8
							c-0.1,0-0.2,0-0.3,0c-0.6,0-0.8,0.8-0.3,1.1c0.9,0.5,1.8,0.8,3,0.9c0.3,0,0.4-0.2,0.4-0.5c0.3,0.1,0.5,0.1,0.7,0.2
							c0.6,0.2,1.1-0.8,0.5-1.1c-0.3-0.2-0.6-0.3-0.8-0.5c0.2,0,0.3,0.1,0.5,0.1c0.5,0.1,0.8-0.3,0.8-0.6c0.6,0,1-0.6,0.8-1
							C227.4,461.8,227.7,461,227,460.5"/>
					</g>
				</g>
			</g>
			<g>
				<g>
					<g>
						<defs>
							<rect id="SVGID_11_" x="195.7" y="450.4" width="55.7" height="36.2"/>
						</defs>
						<clipPath id="SVGID_12_">
							<use xlink:href="#SVGID_11_"  style="overflow:visible;"/>
						</clipPath>
						<path id="XMLID_100_" class="st13" d="M232.8,460.4c-3-2.4-6.5-4.2-10.3-5.4c-0.8-0.3-1.3,0.4-1.3,1.1c-0.1,0-0.2-0.1-0.2-0.1
							c-0.6-0.2-1,0.1-1.2,0.6c-0.5-0.1-0.9-0.2-1.4-0.3c-0.6-0.1-1.2,0.4-1.3,0.9c-0.6-0.1-1.3-0.2-1.9-0.2c-0.5,0-0.8,0.3-0.9,0.6
							c-0.8,0.1-1.2,1.5-0.4,1.8c0.1,0.1,0.3,0.1,0.4,0.2c-0.5,0.4-0.6,1.1-0.1,1.5c0.1,0.1,0.3,0.2,0.4,0.3c-0.6,0.4-0.6,1.3,0,1.7
							l0,0c-0.1,0-0.1,0-0.2,0c-0.7,0-1,0.6-0.9,1l0,0c-0.6-0.3-1.1,0.8-0.5,1.1c0,0,0,0,0.1,0c-0.6-0.2-1.3-0.5-2-0.6
							c-0.6-0.2-0.9,0.2-1,0.6c-0.5-0.1-1-0.2-1.5-0.3c-0.8-0.1-1,0.8-0.6,1.4c-0.4,0.2-0.6,0.6-0.5,1c-0.8,0.1-1.1,1.2-0.6,1.8
							c0.1,0.1,0.2,0.2,0.3,0.3c-0.7,0.1-0.9,1.2-0.5,1.8c0,0.1,0.1,0.1,0.1,0.2c-0.1,0.2-0.1,0.3-0.1,0.5c-0.6,0.2-1,1-0.3,1.6
							c0.1,0.1,0.2,0.1,0.3,0.2c-0.1,0.4,0,0.7,0.3,1l0,0c1.3,0.7,2.6,1.3,4,1.9c0.9,0.5,1.7-0.6,1.3-1.3c0.6,0.3,1,0.6,1.6,0.7
							c0.7,0.4,1.4-0.4,1.2-1c0.6,0.3,1,0.5,1.1,0.5c0.7,0.3,1.5-0.6,1-1.3c0-0.1-0.1-0.1-0.1-0.2c0.1,0,0.2,0,0.3,0
							c0.6,0,1-0.6,0.8-1.2c0.1,0,0.2,0.1,0.4,0.2c0.9,0.4,2-0.6,1.1-1.5c-0.3-0.3-0.6-0.6-0.9-0.8c0.7,0,1.4,0,2.1,0
							c0.4,0,0.6-0.2,0.7-0.5h0.1c0.9,0.3,1.8,0.5,2.8,0.6c0,0.1,0.1,0.2,0.1,0.3v0.1c0,0,0,0-0.1,0c-1.1,0-1.2,1.5-0.3,1.8
							c0.6,0.3,1.3,0.5,1.9,0.7c0.7,0.3,1.3-0.5,1.2-1.1l0,0c0.2-0.4,0.1-0.7-0.2-1c0.5,0.1,0.8,0.2,1.3,0.3c0.6,0.2,1-0.2,1.1-0.6
							c0.9-0.1,0.9-1.5,0.1-1.8c-0.2-0.1-0.4-0.2-0.5-0.2c0.6-0.3,0.8-1,0.6-1.6c0.3-0.3,0.3-0.7,0.1-1.1c0.8-0.1,1.3-1.2,0.6-1.8
							l0,0c0.3-0.3,0.4-0.6,0.2-1.1c0.2,0,0.4,0,0.6,0c0.7,0,1.1-0.6,1-1.2l0,0C232.8,462.2,233.5,461.1,232.8,460.4 M228.1,459.8
							c-0.6,0.3-0.9,1.4-0.2,1.8c-0.2,0.2-0.2,0.6-0.1,0.8c0,0.1,0,0.2,0.1,0.2c-0.8-0.1-1.6,0.8-1.1,1.6c-0.6,0.1-0.9,0.6-0.8,1.3
							c-0.3,0-0.6,0-0.7,0.2c-0.1,0-0.1,0-0.2-0.1c-0.8-0.4-1.5,0.6-1.4,1.3c-1.1-0.5-2.3-0.9-3.4-1.5c0.2-0.4,0.1-0.9-0.4-1.2
							c-0.2-0.2-0.5-0.3-0.6-0.5c0.6-0.3,0.8-1.2,0.3-1.6c0.6,0,1-0.6,0.9-1.2c0.3-0.3,0.4-0.6,0.3-1c0.4-0.2,0.6-0.6,0.7-0.9
							c0.1,0,0.2,0,0.3,0.1c0.5,0.1,0.8-0.1,1-0.4c0.3,0.1,0.6,0.2,0.8,0.3c0.7,0.3,1.2-0.3,1.3-0.9
							C225.9,458.6,227,459.1,228.1,459.8 M215.6,469c-0.6,0.3-0.6,1.1-0.2,1.5c0.1,0,0.1,0.1,0.2,0.1c-0.7,0.1-1.1,0.9-0.6,1.5
							c-0.5,0-0.8,0.5-0.8,0.8c-0.5-0.2-0.9-0.3-1.3-0.5c-0.7-0.3-1.3-0.5-2,0c-0.1,0.1-0.2,0.2-0.3,0.3c-0.4-0.2-0.7-0.3-1.2-0.4
							c0.1-0.2,0.1-0.5,0.1-0.7c0.9,0.1,1.3-1,0.8-1.7c0.9,0.3,1.6-0.9,1-1.7c0.4-0.3,0.6-0.7,0.5-1.1c0.1-0.1,0.3-0.2,0.4-0.4
							c0.9,0.3,1.8,0.6,2.8,0.9c0.2,0.5,0.6,0.8,0.9,1.1C215.7,468.9,215.6,469,215.6,469"/>
					</g>
				</g>
			</g>
			<g>
				<g>
					<g>
						<defs>
							<rect id="SVGID_13_" x="195.7" y="450.4" width="55.7" height="36.2"/>
						</defs>
						<clipPath id="SVGID_14_">
							<use xlink:href="#SVGID_13_"  style="overflow:visible;"/>
						</clipPath>
						<path id="XMLID_31_" class="st14" d="M205.3,476.4c-0.6-0.7-1.3-1.5-2.3-1.2c-0.2,0-0.3,0.1-0.4,0.2c-0.2,0-0.4-0.1-0.6-0.1
							c-0.4,0-0.7,0.2-0.9,0.5c-0.6-0.3-1.3-0.5-2-0.5c-0.4,0-0.6,0.2-0.8,0.4c-0.6-0.3-1.1-0.5-1.6-0.4c-0.6,0.1-0.6,0.9,0,1.1l0,0
							c0.8,0.3,1.6,0.9,2.4,1.2c1,0.4,2,0.6,3,1.2c0.4,0.2,0.7,0.2,0.9,0c0,0,0,0,0.1,0c0.8,0.4,1.7-0.3,1.6-1
							C205.3,477.6,205.7,477,205.3,476.4"/>
					</g>
				</g>
			</g>
			<g>
				<g>
					<g>
						<defs>
							<rect id="SVGID_15_" x="195.7" y="450.4" width="55.7" height="36.2"/>
						</defs>
						<clipPath id="SVGID_16_">
							<use xlink:href="#SVGID_15_"  style="overflow:visible;"/>
						</clipPath>
						<path id="XMLID_30_" class="st15" d="M214,480c-0.6-0.6-1.3-0.7-2.1-0.9c-0.6-0.1-1.1,0.2-1.3,0.6c-0.2,0-0.4,0-0.6,0
							c-0.7,0-1.1,0.6-1,1.2h-0.1c-0.7-0.1-1.2,0.8-0.9,1.5c-0.3,0.3-0.4,0.8,0,1.3c0.6,0.7,1.7,1.8,2.6,1.9c0.5,0.1,1-0.1,1.2-0.6
							c0.2,0.1,0.4,0.1,0.6,0.2c0.8,0.3,1.7-1,0.9-1.6c-0.1-0.1-0.3-0.2-0.4-0.3c0.4-0.3,0.6-0.7,0.4-1.1c0.4-0.2,0.6-0.6,0.6-0.9
							C214.3,481,214.4,480.4,214,480"/>
					</g>
				</g>
			</g>
			<g>
				<g>
					<g>
						<defs>
							<rect id="SVGID_17_" x="195.7" y="450.4" width="55.7" height="36.2"/>
						</defs>
						<clipPath id="SVGID_18_">
							<use xlink:href="#SVGID_17_"  style="overflow:visible;"/>
						</clipPath>
						<path id="XMLID_29_" class="st16" d="M238.6,473.2c-0.3-0.2-0.6-0.4-0.8-0.6c-0.4-0.3-0.8-0.1-1.1,0.2c-0.4,0-0.8,0-1.2,0
							c-0.6,0.1-1,0.5-1,1c-0.2,0-0.4-0.1-0.5-0.1c-0.7-0.1-1.3,0.5-1.2,1.1c-0.6,0.2-0.9,1-0.4,1.5c1.2,1,2.9,1.8,4.5,1.7
							c0.3,0.1,0.6,0,0.7-0.1h0.1c0.4-0.1,0.5-0.6,0.3-0.7c0-0.2-0.1-0.4-0.2-0.6c0.9,0.1,1.3-0.9,0.8-1.6
							C239.2,474.5,239.3,473.5,238.6,473.2"/>
					</g>
				</g>
			</g>
			<g>
				<g>
					<g>
						<defs>
							<rect id="SVGID_19_" x="195.7" y="450.4" width="55.7" height="36.2"/>
						</defs>
						<clipPath id="SVGID_20_">
							<use xlink:href="#SVGID_19_"  style="overflow:visible;"/>
						</clipPath>
						<path id="XMLID_28_" class="st17" d="M250,455.8c0.2-0.6,0.1-1.2-0.5-1.6c-0.2-0.1-0.5-0.3-0.6-0.4c0.1-0.5-0.1-1-0.6-1.4
							c-0.7-0.6-1.5-0.8-2.4-1c-0.4-0.1-0.7,0-1,0.2c-0.1,0-0.2,0-0.2-0.1c-0.6-0.1-1.1,0.1-1.4,0.6c-0.4-0.1-0.6-0.3-1-0.4
							c-1.1-0.5-1.9,1-1.4,1.8c-0.1,0.2-0.1,0.3-0.2,0.5c0,0,0,0-0.1,0c-1.1-0.5-2,1.2-1.2,2c0.1,0.1,0.2,0.2,0.4,0.3
							c-0.1,0-0.2,0-0.3-0.1c-1.2-0.3-2,1.3-0.9,2c-0.4,0.5-0.5,1.2,0.1,1.6c-0.6,0.3-0.6,1.2-0.2,1.7c-1,0-1.2,1.4-0.5,1.8
							c0,0,0,0,0.1,0c-0.9,0-1.3,1.2-0.5,1.8c0.3,0.2,0.6,0.4,0.8,0.6c-0.5,0.3-0.7,1-0.2,1.4c0.1,0.1,0.1,0.1,0.2,0.2
							c-0.6,0.1-1,1.1-0.5,1.6l0.1,0.1c-0.3,0.3-0.3,0.9,0.3,1.1c0.6,0.2,1.1,0.5,1.8,0.6c0.7,0.2,1.2-0.6,0.9-1.1
							c0.2,0,0.3,0.1,0.5,0.1c0.6,0.2,1.4-0.6,1.2-1.2c0,0,0,0,0.1,0c0.8,0.3,1.3-0.6,1.1-1.2c0.1,0.1,0.3,0.1,0.4,0.2
							c1.1,0.5,1.7-1.2,0.7-1.8c-0.6-0.4-1.1-0.7-1.7-1.2c0.4,0.1,0.7,0.3,1,0.4c0.6,0.2,1-0.1,1.2-0.6c0.5,0.2,0.8,0.4,1.3,0.6
							c1.2,0.6,2-0.8,1.2-1.7c0.6-0.2,0.8-0.8,0.6-1.4c0.1,0.1,0.3,0.1,0.4,0.2c1.3,0.6,2.5-1.3,1.2-1.9c-0.2-0.1-0.4-0.2-0.6-0.3
							c0.5-0.4,0.6-1.3,0.1-1.8C250.6,457.6,250.9,456.3,250,455.8"/>
					</g>
				</g>
			</g>
			<g>
				<g>
					<g>
						<defs>
							<rect id="SVGID_21_" x="195.7" y="450.4" width="55.7" height="36.2"/>
						</defs>
						<clipPath id="SVGID_22_">
							<use xlink:href="#SVGID_21_"  style="overflow:visible;"/>
						</clipPath>
						<path id="XMLID_85_" class="st18" d="M250,453.1c-2.5-3.3-6.6-3.6-9.8-1c-3.3,2.8-3.7,7.5-2.6,11.5c-0.6-0.6-1.5-1.1-2.6-1.2
							c-0.2,0-0.4,0.1-0.5,0.2c-1.3-2.8-3.3-5.1-6.3-6.5c-3.9-1.8-8.4-1.8-12.4-0.5c-6.8,2.4-11.6,9.8-10.1,16.8
							c-0.8,0.3-1.5,0.9-1.8,1.8c-0.1-0.2-0.3-0.2-0.6-0.2c-2.4,0.9-4.7,0.7-7-0.4c-0.3-0.2-0.7,0-0.7,0.5c0.3,3.4,6.6,7.5,9.3,4.4
							c0.6,0.6,1.4,1,2.1,1.3c0.1,0.1,0.3,0.1,0.4,0.1c-0.3,2.8,0.4,6.9,4,6.6c3.4-0.3,3.6-4.4,2.8-6.9c0.2,0,0.4-0.1,0.6-0.1
							c3.1-0.6,6.3-1.3,9.4-2c2.4-0.6,5.4-1.2,7.9-2.4c0,2.8,4,5,6.4,3.3c2.7-1.8,1.1-5.6-1.4-6.8c0.1-0.1,0.1-0.1,0.2-0.2
							c4.5-0.1,8.8-2.8,11.5-6.4C251.3,461.7,252.6,456.7,250,453.1 M200.7,478.1c-1.4-0.6-3.1-1.7-3.8-3c2.1,0.9,4.5,0.9,6.7,0.1
							c0,0.3,0,0.5,0,0.7c0.1,0.8,0.4,1.6,0.8,2.2C203.3,478.3,202.1,478.6,200.7,478.1 M234.5,466.1c-0.1,0.1-0.2,0.2-0.2,0.3
							c-0.4,1.8-2,3-3.7,3.9c-0.8-1.1-0.6-3-0.3-4.2c0.3-0.7,0.6-1.4,1.2-1.9c0.5-0.5,1.1-0.7,1.6-1.2
							C233.6,463.9,234.1,465,234.5,466.1 M211.9,459.2c0.5,0.6,0.9,1,1.1,1.8s0.1,1.8-0.4,2.5c-1,1.6-3.2,1.7-4.6,0.6
							C208.9,462.4,210.2,460.6,211.9,459.2 M207.7,464.9c1.7,1.4,4.3,1.3,5.7-0.6c1.1-1.5,1.1-4.9-0.8-5.7c1.1-0.7,2.4-1.4,3.8-1.9
							c3.5-1.2,7.6-1.1,11,0.4c2.7,1.2,4.2,3,5.4,5.1c-1.8,0.2-3.3,2.6-3.7,4.2c-0.3,1.3-0.3,3.3,0.7,4.3c-0.2,0.1-0.5,0.2-0.6,0.4
							c-1.5,0.7-3,1.4-4.6,1.9c-0.6-1.9-2.8-3.2-4.7-2.6c-1.8,0.6-2.8,2.6-2.3,4.4c-1,0.2-2.1,0.3-3.1,0.4c-2.1,0.2-5.1,0.6-6.9-0.6
							h-0.1C206.5,471.3,206.6,467.9,207.7,464.9 M223.5,473.4c-0.5,0.2-1,0.4-1.6,0.5c-1.3,0.4-2.5,0.6-3.8,0.9
							c-0.2-1.4,0.6-3,2.1-3.4C221.8,471,223.1,472.1,223.5,473.4 M211.4,485.4c-2.7,0.1-3-3.2-3-5.4c1.6,0.3,3.2,0,4.9-0.3
							C213.6,481.8,214.2,485.3,211.4,485.4 M238.4,474.3c0.5,0.9,0.6,2.3-0.3,3c-1.7,1.5-4.9-0.4-5-2.3c0-0.1-0.1-0.2-0.1-0.3
							c1.3-0.6,2.5-1.4,3.5-2.3C237.2,473,237.9,473.4,238.4,474.3 M235.5,471.8c-3,2.6-7.3,3.6-11.1,4.5c-3.8,0.9-7.6,1.8-11.5,2.4
							c-2,0.4-4.4,0.7-6.4-0.4c-2-1.1-2.7-4.1-0.6-5.4c0.2,0.7,0.5,1.4,0.7,2c0.1,0.2,0.4,0.2,0.6,0.1c1.6,1.7,4.3,1.4,6.5,1.3
							c3.1-0.2,6.2-0.7,9.2-1.7c3-0.9,5.9-2.1,8.6-3.7c1.7-0.9,3.4-2.1,3.7-4.1c0.4,0,0.6-0.3,0.6-0.7c-0.2-1-0.6-2-0.9-3l0,0
							c1.8,0.3,3,2.1,3,4C237.9,469.1,236.8,470.7,235.5,471.8 M246.8,465.8c-2.4,2.6-5.4,4-8.8,4.9v-0.1c1.1-1.8,1.2-4.2,0.3-5.9
							c0.2,0,0.5-0.2,0.4-0.5c-0.3-3.5-1.5-7.1,1-10.2c2.9-3.5,7.9-3.3,9.9,1C251.2,458.7,249.3,463,246.8,465.8"/>
					</g>
				</g>
			</g>
			<g>
				<g>
					<g>
						<defs>
							<rect id="SVGID_23_" x="195.7" y="450.4" width="55.7" height="36.2"/>
						</defs>
						<clipPath id="SVGID_24_">
							<use xlink:href="#SVGID_23_"  style="overflow:visible;"/>
						</clipPath>
						<path id="XMLID_82_" class="st19" d="M227,459.4c-1.5-1.8-4.3-1.3-6.1-0.2c-0.2,0.1-0.3,0.4-0.2,0.6c-1.4,1.2-1.7,3.4-0.6,4.9
							c1.3,1.8,4,2.1,5.7,0.9C227.8,464.2,228.4,461.3,227,459.4 M225.4,464.5c-1.2,1-3.3,0.9-4.3-0.5c-1-1.3-0.6-3,0.6-4.2
							c1.1-0.4,2.3-0.9,3.4-0.6C227.3,460.1,226.9,463.3,225.4,464.5"/>
					</g>
				</g>
			</g>
			<g>
				<g>
					<g>
						<defs>
							<rect id="SVGID_25_" x="195.7" y="450.4" width="55.7" height="36.2"/>
						</defs>
						<clipPath id="SVGID_26_">
							<use xlink:href="#SVGID_25_"  style="overflow:visible;"/>
						</clipPath>
						<path id="XMLID_79_" class="st20" d="M215.3,468.5c-0.8-1.5-2.9-2-4.2-1.1c-0.2,0.1-0.3,0.4-0.2,0.6c-1.3,0.8-2,2.2-1.4,3.8
							c0.7,1.8,3,2.1,4.5,1.1C215.4,472,216.2,470,215.3,468.5 M213.6,471.9c-1.1,0.7-2.8,0.6-3.1-0.8c-0.3-1,0.3-2,1-2.7
							c0.1,0,0.2,0,0.2-0.1c0.9-0.6,2.2-0.3,2.8,0.6C215,469.9,214.4,471.2,213.6,471.9"/>
					</g>
				</g>
			</g>
			<g>
				<g>
					<g>
						<defs>
							<rect id="SVGID_27_" x="195.7" y="450.4" width="55.7" height="36.2"/>
						</defs>
						<clipPath id="SVGID_28_">
							<use xlink:href="#SVGID_27_"  style="overflow:visible;"/>
						</clipPath>
						<path id="XMLID_13_" class="st21" d="M243.7,455.5c-0.4-0.6-0.9-0.9-1.6-0.8c-1.4,0.1-2,1.8-1.2,2.9c0.3,0.3,0.8-0.1,0.6-0.5
							c-0.4-0.6-0.1-1.6,0.7-1.5c0.3,0,0.6,0.3,0.6,0.6c0.2,0.4,0,0.6,0.1,0.9c0.1,0.2,0.4,0.3,0.6,0.2
							C244.2,457,243.9,456,243.7,455.5"/>
					</g>
				</g>
			</g>
			<g>
				<g>
					<g>
						<defs>
							<rect id="SVGID_29_" x="195.7" y="450.4" width="55.7" height="36.2"/>
						</defs>
						<clipPath id="SVGID_30_">
							<use xlink:href="#SVGID_29_"  style="overflow:visible;"/>
						</clipPath>
						<path id="XMLID_12_" class="st22" d="M247.8,454.6c-0.3-0.6-0.9-1-1.6-1.1c-1.3,0-2.2,2-0.9,2.8c0.4,0.2,0.6-0.3,0.5-0.6
							c-0.4-0.4,0-1.4,0.6-1.2c0.3,0.1,0.5,0.4,0.6,0.6c0.1,0.4-0.1,0.6,0.1,1c0.1,0.2,0.4,0.3,0.5,0.2
							C248.3,456.1,248.1,455.2,247.8,454.6"/>
					</g>
				</g>
			</g>
		</g>
	</g>
	<path id="XMLID_10_" class="st23" d="M207,349.7c0,0,8.2-12.5,9.5-15.2c1.3-2.9,3.7-8.9,3.7-8.9l-16.3-3.6l-5.9-15.8
		c0,0-10.4-26.7-13.8-30.8c-3.4-4.1-8.3-4.3-11.2-0.2c-2.9,4.2-23.4,42.4-23.4,42.4l-22.5,2.1l14.4,29.3c0,0,8-2.9,25.2-3
		c17.2-0.2,33.3,2.8,33.3,2.8L207,349.7z"/>
	<path id="XMLID_69_" class="st24" d="M220.6,325c-0.1-0.1-0.2-0.2-0.3-0.2c-5.2-1.5-10.4-2.6-15.7-3.5v-0.1
		c-4.2-10.2-7.8-20.6-12.1-30.7c-2.9-6.6-6.2-16.7-12.3-19.2c-2.3-0.9-4.3-0.4-6,1.8c-3.1,4.2-5.5,9.6-8.2,14.2
		c-5.4,9.6-10.9,19.2-16.3,28.8c-0.1,0.2-0.1,0.4-0.1,0.6c-7.7-0.1-15.3,0.2-23,1.7c-0.6,0.1-0.7,1.3-0.3,1.7c0,0.1,0.1,0.1,0.1,0.2
		c4.8,9.3,8.6,19.9,14.4,28.4c0.1,0.1,0.3,0.2,0.4,0.3c0.1,0,0.2,0,0.3,0c0.2,0,0.5,0,0.6,0c0.4-0.1,0.8-0.1,1.2-0.2
		c0.5-0.2,0.9-0.3,1.5-0.3c0.3,0,0.6,0,0.8,0c11.6-1.4,23.5-1.8,35.4-1.1c0.4,0,0.7,0,1.1,0c0.1,0,0.2,0.1,0.3,0.1l0,0
		c0.4,0,0.7,0,1.1,0c0.1,0,0.2,0,0.3,0.1c3.6,0.3,7.1,0.6,10.6,1.1c1.3,0.1,2.6,0.3,3.9,0.4c0.8,0.1,1.7,0.3,2.5,0.6
		c0.6,0.1,1.3,0.2,1.8,0.3h0.1c0.3,0,0.5,0,0.7,0c0.4,0.1,0.7,0.2,1,0.3c0.5,0.1,0.9,0.2,1.4,0.3c0.3,0,0.6,0,0.8,0
		c0.3-0.2,0.6-0.3,0.8-0.3c5.5-7.1,9.7-15.1,13.2-24.2C221,325.7,220.9,325.3,220.6,325 M164.3,293.6c2.2-4,4.5-7.9,6.7-11.9
		c2.4-4.2,4.9-11,9.6-8.2c3,1.8,5,5.6,6.7,9.2c2,4.2,4,8.7,5.7,13.2c3.4,8.3,6.5,16.9,9.9,25.2c-10-1.5-19.9-2.2-29.9-3
		c-7.3-0.6-14.7-1.2-22-1.4C155.5,309.2,159.9,301.4,164.3,293.6 M206.7,349c-21.4-4.3-43.7-4.6-65.2-1.8
		c-5.4-8.1-9.1-18.2-13.8-27.2c15.3-2.6,30.8-1.1,46.2,0c15.1,1.2,30.3,2.1,45.2,6.3C215.8,334.9,211.9,342.3,206.7,349"/>
	<path id="XMLID_6_" class="st25" d="M194.9,260.2c-0.6,0-0.9,0-1.5-0.3c-0.7-0.5-2-0.3-2.6,0.5c-0.1-0.1-0.2-0.1-0.3-0.1
		c-0.7-0.4-1.6,0-1.9,0.6c-0.4-0.2-0.8-0.4-1.2-0.6c-0.1,0-0.2-0.1-0.3-0.1c-1.6-1.2-3-2.5-4.3-3.9c0.4-0.3,0.6-0.8,0.5-1.4
		c-0.4-1-0.7-2-1.2-3c0.6-0.5,0.7-1.3,0.6-2c-0.4-1.1-0.9-1.8-1.8-2.5c-1.1-0.9-2.6,0.4-2.4,1.5c-0.6,0.3-0.8,0.8-0.8,1.4
		c0,0,0,0-0.1,0c-1.5-0.6-2.5,1.2-1.7,2.4c0.5,0.6,0.9,1.3,1.5,1.9c-0.7,0.5-1,1.4-0.4,2.1l0,0c-1.3-0.6-3,1.2-1.8,2.4
		c0.4,0.4,0.6,0.7,1,1.1c-1-0.6-1.9-1.3-3-1.9c-1-0.7-2.3,0.3-2.2,1.3c-0.6-0.1-1.2-0.1-1.8,0c-0.2,0.1-0.4,0.2-0.6,0.3
		c-0.8-0.6-1.8-1.1-2.7-1.6c-1.7-0.9-3.3,1.3-1.8,2.4c2.1,1.6,4.2,3,6.4,4.6c-0.5,0.5-0.7,1.3-0.2,1.9c0.2,0.3,0.4,0.5,0.6,0.7
		c-1.1-0.2-2.2,1.1-1.3,2.2c0.2,0.3,0.4,0.5,0.6,0.7c-1,0.1-1.8,1.4-0.9,2.3c0.3,0.4,0.5,0.6,0.7,1c-0.6-0.1-1.2-0.2-1.8-0.3
		c-0.8-0.1-1.5,0.8-1.1,1.6c0.5,0.9,0.9,1.5,1.8,2.1c0.6,0.5,1.4-0.2,1.2-0.8c0.6,0.2,1.3,0.4,1.9,0.6c0.8,0.2,2.1-0.4,1.8-1.5
		c-0.1-0.4-0.3-0.7-0.4-1.1c0.6,0,1.2-0.6,1.4-1.1c0.3,0.2,0.6,0.4,0.8,0.6c1.3,0.9,2.8-0.7,1.8-2l0,0c0.5,0.3,0.9,0.6,1.4,0.9
		s1,0.3,1.4,0.1c2.6,2.3,5.2,4.5,7.9,6.5c1.6,1,3-1.2,1.7-2.3c-1.9-1.6-4-3.2-5.8-4.9c1.1,0.9,2.2,1.8,3.3,2.8
		c1.4,1.1,3-1.1,1.7-2.2c-1.6-1.4-3.2-2.8-4.9-4.1c-0.1-0.1-0.2-0.2-0.4-0.3c0.4,0.3,0.7,0.5,1.1,0.7c1.4,0.8,3.1-0.8,1.9-2.1
		c-0.1-0.2-0.3-0.3-0.4-0.4c0.3,0.1,0.5,0.3,0.7,0.4c1.4,0.7,3.3-0.8,2-2.2c-0.1-0.1-0.2-0.2-0.3-0.4c0.3,0,0.6-0.2,0.7-0.4
		c0.6,0.4,1.3,0.7,1.8,1.2c1.2,0.9,2.8-0.4,2.4-1.7c0.1-0.1,0.1-0.2,0.2-0.3c0.4,0,0.6,0,1,0C197,263.4,196.9,260.2,194.9,260.2"/>
	<path id="XMLID_65_" class="st4" d="M191.6,280.1c-0.9-3.2-1.8-6.5-2.7-9.7l0,0c-0.1-0.2-0.2-0.4-0.3-0.6c-0.2-0.3-0.2-0.6,0-0.9
		c0,0,0,0-0.1,0c0-0.1-0.1-0.2-0.1-0.4c0.1,0,0.2-0.1,0.3-0.1c4-2.1,7.8-4.5,11.6-7c0.1,0,0.1,0,0.1,0c0-0.1,0.1-0.2,0.1,0
		c0-0.3,0-0.5,0.1-0.7c-0.6-0.5-1.1-0.8-1.7-1.2c-2.4-0.3-4.8-0.6-7.2-0.8c-0.5-0.1-0.8-0.1-1.3-0.2c0,0,0,0-0.1,0
		c-0.5,0-0.9-0.2-1.5-0.2c-0.3,0-0.5,0-0.7,0c-0.6,0-1.4,0.1-1.8-0.4c0,0,0-0.1-0.1-0.1h-0.1c-1.1-4.5-2.7-8.8-4.9-12.9
		c-0.6-0.6-1.2-1.4-2.1-1.6c-0.5,0.2-0.5,0.7-0.2,1.1c-1.8,4.2-3.5,8.4-4.7,12.8c-4.3-0.5-9,0.2-13.4,0.4c-0.6,0-1,0.9-0.7,1.5
		c1,1.9,2.7,3,4.3,4.1c2,1.4,4,2.8,6.1,4c-2.4,4-4.2,8.4-6,12.7c-0.4,0.9,0.6,1.8,1.5,1.4c2.4-1.1,4.8-2.2,7.1-3.4
		c1.9-1,4.2-1.9,5.7-3.4l0,0c3.5,3,7.4,5.7,11.3,8.5c0.6,0.4,1.5,0.1,1.7-0.5c-0.2-0.6-0.2-1.4-0.5-2
		C191.6,280.3,191.6,280.2,191.6,280.1 M180,273.2c-0.1-0.1-0.2-0.1-0.3-0.1c-0.1-0.5-0.5-0.7-0.9-0.6c-2.2,0.7-4.2,2.1-6.4,3.2
		c-1.5,0.7-3,1.5-4.4,2.2c1.6-3.4,3.1-6.8,4.2-10.4c0.5-0.3,0.6-1.1,0.1-1.6c-1.6-1.4-3.4-2.4-5.1-3.6c-1.2-0.8-2.8-1.6-3.9-2.7
		c3.8-0.1,7.7-0.1,11.3-0.9c0.4,0.2,0.8,0.2,1.1-0.4c1.5-3.7,2.9-7.5,4.5-11.1c1.8,3.6,3,7.3,4,11.3c0.2,0.6,0.7,0.9,1.3,0.8
		c1.7,1.4,4.1,1.1,6.1,1.4c1.8,0.2,3.4,0.4,5.2,0.6c-2.9,1.8-5.8,3.5-8.9,5.2c-0.4,0.2-0.6,0.5-0.6,0.8c-0.6,0-1.2,0.5-1,1.2
		c0.8,3.6,1.8,7.2,2.8,10.7C186.1,277.1,183.1,275,180,273.2"/>
</g>
</svg>
