<?xml version="1.0" encoding="utf-8"?>
<!-- Generator: Adobe Illustrator 19.0.0, SVG Export Plug-In . SVG Version: 6.00 Build 0)  -->
<svg version="1.1" id="Capa_1" xmlns="http://www.w3.org/2000/svg" xmlns:xlink="http://www.w3.org/1999/xlink" x="0px" y="0px"
	 viewBox="-58 194.9 479 453" style="enable-background:new -58 194.9 479 453;" xml:space="preserve">
<style type="text/css">
	.st0{fill:#F79340;}
	.st1{fill:#211F1F;}
	.st2{fill:#F0E042;}
	.st3{fill:#5D5E5F;}
	.st4{fill:#3A271F;}
	.st5{fill:#F05453;}
	.st6{fill:#FFFFFF;}
	.st7{fill:#BFE6F3;}
	.st8{fill:#A57BB6;}
	.st9{fill:#221F1F;}
	.st10{fill:#FAD704;}
</style>
<g>
	<path d="M414.6,440.6c1.2,41.2-0.8,86.5-24.4,125.1c-42.4,69.2-185.8,94.6-285.4,70.1c-56.5-13.9-87-46.4-110-82.1
		c-26.3-40.6-40.2-84.5-41-128.8c0-0.8,0.4-1.4,0.9-2c-9.2-48.2-6.9-99.2,28-142.9c31.7-39.5,87.5-64.7,152.7-72.6
		c54-6.5,120.5-4.7,167.6,16.2c42.6,18.9,67.3,50.7,82.4,82.5C405.8,349,413.4,395.7,414.6,440.6z M394,527.7
		c11.2-39.8,11-81.8,6.1-122.1c-4.5-37.3-13.1-75.9-33.4-111c-18.9-32.6-51.1-63.2-102.5-74.7c-51.3-11.5-112.8-10.1-163.5,1.9
		C-27.1,252.1-46.6,346-33.6,425.2c0.2,0.9-0.3,1.6-0.8,2.2c2.4,46.1,17.2,91.4,46.8,133.2c29.6,41.6,72.7,70,143.3,74.8
		c50.3,3.4,106.4-3.1,151.3-18.9C358.7,598.2,383.6,564.9,394,527.7z"/>
	<path d="M389.5,433.3c1,6.5-1.6,13.7-2.7,20.2c-0.4,2.1-5.3,2.2-5.1,0c0.9-6.6,0.5-14.2,3.6-20.6
		C386.1,431.3,389.3,431.8,389.5,433.3z"/>
	<path d="M389.3,477.1c1.1,5.9-1.7,12.6-2.8,18.5c-0.4,2.1-5.2,2.2-5,0c0.7-6.1,0.1-13.1,3.1-18.9
		C385.6,474.9,389,475.4,389.3,477.1z"/>
	<path d="M384.2,385.7c2.1,6.7,1.1,13.9,0.8,20.6c-0.2,2.6-5.8,2.5-5.9,0c-0.3-6.8-1.3-14,0.8-20.6
		C380.3,384.3,383.8,384.3,384.2,385.7z"/>
	<path d="M379.4,522.6c0.9,6.6-3.6,13.5-8.2,19.2c-1,1.3-4.4,0.4-3.6-1c3.7-6.1,4.7-12.4,7.3-18.6
		C375.7,520.5,379.2,521,379.4,522.6z"/>
	<path d="M375,360.8c0.2,1.9-4.6,2.3-4.9,0.4c-1.2-5.8-2.2-11.5-2.4-17.3c-0.1-1.8,4.3-2.3,4.8-0.4C374,349.2,374.6,355,375,360.8z"
		/>
	<path d="M363,562.1c2.1-1.1,5,0.2,3.7,1.9c-2.6,3.3-6.8,6.2-10.2,9.2c-3.5,3-6.7,6.2-9.9,9.3c-1.6,1.6-5.4,0.2-3.9-1.5
		c3.2-3.4,6.4-6.8,9.8-10.1C355.7,567.8,358.8,564.3,363,562.1z"/>
	<path d="M361.1,314.3c6.2,3.2,6.6,10.2,5.6,15c-0.4,1.7-4.3,1.2-4.4-0.4c-0.1-2.4-0.7-4.7-1.7-6.9c-0.9-2.1-2.8-4-3.5-6.1
		C356.7,314.2,359.3,313.3,361.1,314.3z"/>
	<path d="M353.8,296c1,1.3-1.5,2.8-3.2,1.7c-6.3-4.5-10.8-10.1-15.5-15.4c-1-1,1.4-2.3,2.6-1.3C343.5,285.7,349.8,290.6,353.8,296z"
		/>
	<path d="M323.8,597c2.8-0.6,3.9,2,1.9,2.9c-8.7,4.3-20.4,6.9-30.2,10c-2.5,0.8-4.7-1.6-2.2-2.5C303,604,313.3,599.3,323.8,597z"/>
	<path d="M318.6,260.2c1.8,1.5-0.9,3.2-3.1,2.1c-6.5-3.5-12-7.6-17.8-11.7c-2.2-1.6,1.2-3.8,3.5-2.3
		C307.2,252.1,313.4,255.8,318.6,260.2z"/>
	<path d="M262.2,236.4c2.5,0.6,1.5,2.9-1.1,2.7c-7.6-0.7-15-2.7-22.3-4.1c-2.1-0.4-1.3-2.5,0.9-2.2
		C247.2,233.8,255,234.6,262.2,236.4z"/>
	<path d="M258.7,617.7c2.2-0.2,4,1.8,1.7,2.6c-9.1,3.1-21.4,3.8-31.4,3.1c-2.7-0.2-2.7-2.7,0-2.8c5.3-0.3,10.5-0.4,15.8-1
		C249.4,619.1,254,618.2,258.7,617.7z"/>
	<path d="M191.4,624.1c1.9-0.1,2.6,1.8,1,2.4c-11,3.6-25.2,2.3-36.4-0.2c-2-0.4-1.2-2.5,0.9-2.1C169,626.3,179.1,624.9,191.4,624.1z
		"/>
	<path d="M183.9,226.3c2.6,0.1,3.2,2.6,0.6,3.1c-7.4,1.4-15.5,1.7-23.2,2c-2.9,0.1-3.6-3.1-0.7-3.4
		C168.2,227.1,176.1,226.1,183.9,226.3z"/>
	<path d="M123.6,619.3c1.8,0.1,2.6,2,0.5,2.3c-4.3,0.6-8.5,0.2-12.5-1c-3.1-0.9-8.5-3-7.4-5.7c0.3-0.6,1.1-1,2-1
		c3-0.2,5.1,2.1,7.4,3.1C116.6,618.2,120,618.9,123.6,619.3z"/>
	<path d="M120.4,231.2c2.5-0.5,3.5,1.7,1.6,2.6c-5.9,2.9-13.3,4.7-20,6.8c-2.4,0.7-4.5-1.6-2.1-2.4
		C106.5,235.8,113.2,232.8,120.4,231.2z"/>
	<path d="M82,602.9c1.7,1-0.5,2.7-2.4,2.1c-7.9-2.8-15.3-7.2-18.6-12.9c-1-1.7,2.8-3.1,4.5-1.8C70.9,594.7,75.6,599.2,82,602.9z"/>
	<path d="M65.2,245.4c2.5-0.8,5.4,1.3,3.1,2.7c-8,4.9-15.7,9.1-21.6,15.3c-1.4,1.5-4.5,0.2-3.4-1.3C48,255.6,55.4,248.8,65.2,245.4z
		"/>
	<path d="M46.3,571.1c2,0.8,0.6,3.1-1.6,2.5c-7-1.9-14.9-7.1-13.2-12.7c0.4-1.3,3.5-1.7,4.3-0.4c1.3,2,1.7,4,3.3,5.9
		C40.9,568.4,43.3,570,46.3,571.1z"/>
	<path d="M19.5,280.3c2.2-1.1,4.3,1.2,2.7,2.4c-7.6,6-13.7,11.9-16.5,19.7c-0.7,2-5,1.1-4.4-0.8C3.7,293.3,9.4,285.3,19.5,280.3z"/>
	<path d="M21.2,539.5c1.2,1-1.4,2.2-2.7,1.3c-7.7-5-14.6-12.9-13-20.4c0.4-1.6,3.9-1.3,4.5,0c1.4,3.2,1.8,6.5,3.5,9.6
		C15.4,533.5,18,536.6,21.2,539.5z"/>
	<path d="M-0.2,498.7c0.7,1.7-3,2.3-3.9,0.7c-3.5-5.8-8.1-12.4-9.6-18.6c-0.4-1.6,2.8-2.7,4.1-1.1C-5.2,485.3-2.8,492.5-0.2,498.7z"
		/>
	<path d="M-11.4,330.9c1.5-1.1,4.5,0.1,3.8,1.4c-4.2,8.1-8.3,14.5-7.1,23.4c0.2,1.5-3.4,1.8-3.8,0.4
		C-20.9,347.9-19.9,337.6-11.4,330.9z"/>
	<path d="M-15.5,436c4.1,6,3.4,13.3,1.7,19.7c-0.4,1.5-4.2,1.1-4-0.4c1-6.4-1.1-12.2-2.1-18.5C-20.2,435.3-16.5,434.6-15.5,436z"/>
	<path d="M-17.1,406.3c0.1,1.6-3.7,1.9-4,0.4c-1.5-7.7-4.5-16.2-3.6-23.9c0.2-1.8,4.1-2.3,4.9-0.4
		C-16.9,389.9-17.6,398.5-17.1,406.3z"/>
</g>
<g id="XMLID_10_">
	<g id="XMLID_47_">
		<g id="XMLID_51_">
			<path id="XMLID_53_" class="st0" d="M305.4,567.3c0.1,5.1,3.2,9.7,7.2,12.9c3.9,3.2,8.8,4.9,13.8,6.4c-0.9-1.5-1.6-3.2-2.5-4.7
				c13.5,1.6,26.9,4.3,40,8.1c-5.1-10.6-10.6-21.1-16.7-31.3c1.8,0.3,3.5,0.5,5.4,0.8c1.4-4.2-1.4-8.5-4.3-12
				c-2.9-3.7-6.4-7.5-11.1-7.8c-5.8-0.4-10.9,4.9-16.5,4.5"/>
			<path id="XMLID_52_" class="st1" d="M304.5,567.4c0.4,11.5,11.9,17,21.5,20.1c0.6,0.1,1.5-0.4,1.1-1.1c-0.9-1.5-1.6-3.2-2.5-4.7
				c-0.4,0.4-0.6,0.8-1,1.3c13.4,1.8,26.6,4.4,39.8,8.1c0.6,0.1,1.5-0.4,1.1-1.1c-5.1-10.7-10.6-21.2-16.7-31.4
				c-0.3,0.5-0.5,0.9-0.8,1.4c1.8,0.3,3.5,0.5,5.4,0.8c0.4,0,0.8-0.1,1-0.5c1.1-3.5-0.1-6.8-2.1-9.7c-2-3.3-4.9-6.4-8-9
				c-3.2-2.3-6.6-2.9-10.4-1.8c-4.2,1.1-7.8,4.2-12.2,4.2c-1.1,0-1.4,1.8-0.3,1.6c6.9,0.1,12.9-6.8,19.8-3.8
				c3.5,1.5,5.9,4.9,8.2,7.8c2.1,2.8,4.4,6.4,3.3,10c0.4-0.1,0.6-0.4,1-0.5c-1.8-0.3-3.5-0.5-5.4-0.8c-0.8-0.1-1.3,0.8-0.8,1.4
				c5.9,10.1,11.4,20.5,16.5,30.9c0.4-0.4,0.8-0.8,1.1-1.1c-13.1-3.7-26.5-6.4-40.3-8.1c-0.6-0.1-1.3,0.5-1,1.3
				c0.9,1.5,1.6,3.2,2.5,4.7c0.4-0.4,0.8-0.8,1.1-1.1c-9-2.9-20.1-7.8-20.6-18.7C306.2,566,304.5,566.3,304.5,567.4L304.5,567.4z"/>
		</g>
		<g id="XMLID_48_">
			<path id="XMLID_50_" class="st2" d="M325.1,549.5c2.1-1,4.8,0.6,5.9,2.7c1.1,2,1.3,4.7,2,6.9c1.1,3.5,3.3,6.6,5.7,9.5
				c-2.8-0.9-5.9,0-8.8,0.6c-2.4,0.4-4.7,0.5-7.1,0.3c-2.5-0.3-5.3-1.1-6.4-3.4c-0.5-1-0.5-2.3-0.4-3.5c0.1-2.3,0.1-4.8,1.5-6.8"/>
			<path id="XMLID_49_" class="st1" d="M325.3,550.4c4.7-2,5.9,5.4,6.6,8.2c1,4,3.5,7.3,5.9,10.5c0.4-0.4,0.8-0.9,1-1.3
				c-4.7-1.4-9.5,1-14.4,0.9c-2.9-0.1-7.1-0.5-7.8-3.9c-0.5-2.5-0.1-6.3,1.3-8.6c0.6-1-0.9-2-1.4-1.1c-1.5,2.4-1.8,5.2-1.6,8
				c0,3,1.1,5.2,4,6.4c2.8,1.1,6.2,1.1,9.1,0.8c3.3-0.3,6.7-1.9,10.1-0.8c0.8,0.3,1.6-0.6,1-1.3c-1.8-2.3-3.5-4.4-4.7-6.9
				c-1.1-2.4-1.4-5.1-2.1-7.6c-1-3.3-4.3-6.3-7.8-4.8C323.7,549.2,324.3,550.9,325.3,550.4L325.3,550.4z"/>
		</g>
	</g>
	<g id="XMLID_44_">
		<path id="XMLID_46_" class="st3" d="M217.4,476.7c-4.3-3.2-8.3-6.6-12-10.4c-0.9-0.9-1.6-1.9-1.8-3c-0.1-1.1,0.9-2.5,2-2.3
			c0.4,0,0.6,0.3,0.9,0.4c2.3,1.6,4.5,3.2,6.8,4.8c2.7,1.8,5.3,3.8,7.3,6.3"/>
		<path id="XMLID_45_" class="st4" d="M218,476.1c-2.5-1.9-4.9-3.8-7.3-5.8c-1.3-1-2.3-2-3.4-3.2c-0.9-1-2.8-2.4-2.9-4
			c0-2.4,3.7,0.8,4.4,1.3c1.4,0.9,2.7,1.8,4,2.8c2.7,1.8,5.1,3.7,7.2,6.1c0.8,0.9,2.1-0.1,1.4-1c-2.8-3.3-6.3-5.7-9.8-8.1
			c-1.5-1.1-3.4-2.9-5.2-3.5c-1.3-0.6-2.3-0.3-3.2,0.8c-2.1,2.5,1.3,5.7,2.8,7.2c3.3,3.4,6.9,6.2,10.7,9
			C217.9,478.1,218.9,476.7,218,476.1L218,476.1z"/>
	</g>
	<g id="XMLID_41_">
		<path id="XMLID_43_" class="st5" d="M286.3,579.5c3.4-0.1,6.8-0.1,10.1-0.3c1.5,0,3.2,0,4.7-0.9c1-0.6,1.8-1.5,2.4-2.5
			c11.6-14.8,22.9-29.8,33.8-45.1c-1.5-4-3.3-8-5.4-11.7"/>
		<path id="XMLID_42_" class="st4" d="M286.4,580.4c3.8,0,7.6,0,11.4-0.3c3.5-0.1,5.2-2.1,7.2-4.7c4.9-6.3,9.7-12.8,14.6-19.1
			c4.7-6.2,9.3-12.5,13.9-18.7c1.1-1.4,2.1-3,3.3-4.4c0.4-0.6,1-1.3,1.3-1.9c0.3-0.6-0.3-1.4-0.5-1.9c-1.5-3.7-3.2-7.2-5.1-10.6
			c-0.5-1-2.3-0.4-1.6,0.6c2.1,3.8,3.9,7.7,5.4,11.7c0-0.3,0.1-0.5,0.1-0.9c-7.2,10-14.5,20-22.1,29.8c-3.8,4.9-7.6,9.8-11.2,14.6
			c-0.9,1.1-1.6,2.3-3,2.9c-1.3,0.6-3,0.5-4.4,0.5c-3.2,0.1-6.3,0.1-9.5,0.1C285,578.7,285.4,580.4,286.4,580.4L286.4,580.4z"/>
	</g>
	<g id="XMLID_38_">
		<path id="XMLID_40_" class="st5" d="M302.7,487.6c4.7-0.9,9.5-1.8,14.3-2.7c1.5-0.3,3-0.5,4.5-0.3c1.3,0.3,2.4,1.1,3.5,1.9
			c13,9.2,25.3,19.3,36.9,30.2c-9.8,1-19.6,1.9-29.4,3"/>
		<path id="XMLID_39_" class="st4" d="M302.8,488.5c2.9-0.6,5.8-1.1,8.8-1.5c2.8-0.5,5.8-1.4,8.6-1.4c2.8,0,5.4,2.7,7.5,4.3
			c2.4,1.6,4.7,3.4,7.1,5.3c9.2,7.1,18.2,14.5,26.6,22.6c0.1-0.5,0.4-1,0.5-1.6c-9.8,1-19.6,1.9-29.4,3c-1.1,0.1-0.9,1.8,0.1,1.8
			c9.8-1,19.7-2,29.4-3c0.9,0,0.9-1.1,0.5-1.6c-9-8.5-18.4-16.4-28.2-23.7c-2.4-1.8-4.7-3.4-7.1-5.2c-2-1.5-4-3.2-6.7-3.4
			c-2.7-0.3-5.8,0.8-8.3,1.3c-3.2,0.6-6.3,1.3-9.5,1.8C301.5,487,301.7,488.7,302.8,488.5L302.8,488.5z"/>
	</g>
	<g id="XMLID_35_">
		<path id="XMLID_37_" class="st5" d="M250.8,553.6c2.5,8,4.9,15.9,7.5,23.7c0.5,1.4,0.9,2.8,1.9,3.9c0.6,0.8,1.5,1.3,2.4,1.8
			c9.7,6.1,19.3,12.2,29.2,18.4c-2.5-7.3-5.2-14.8-7.7-22.1c-0.1-0.5-0.3-1-0.1-1.3c0.4-0.4,1-0.3,0.9,0.3"/>
		<path id="XMLID_36_" class="st4" d="M250.1,554c1.8,5.6,3.4,11,5.2,16.5c0.9,2.7,1.6,5.2,2.4,7.8c0.8,2.5,2.1,4,4.4,5.6
			c9.7,6.1,19.3,12.2,29.2,18.4c0.8,0.5,1.6-0.3,1.4-1c-1.3-3.7-2.5-7.3-3.9-11c-0.8-2-1.4-3.9-2.1-5.9c-0.3-0.9-0.6-1.6-0.9-2.7
			c-0.1-0.5-0.3-0.9-0.5-1.4c0-0.1-0.1-0.5-0.3-0.6c-0.1-0.6-0.5-1-1-1.4c0.3,1,1.9,0.9,1.8-0.1c-0.1-1.1-1.6-1.8-2.4-0.8
			c-0.4,0.6-0.3,1.4-0.1,2.1c0.4,1.5,1.1,3,1.6,4.5c2.1,5.9,4.2,11.7,6.2,17.6c0.5-0.4,0.9-0.8,1.4-1c-9.3-5.8-18.6-11.7-28-17.6
			c-1.3-0.8-2.4-1.4-3.3-2.4c-0.9-1-1.4-2.4-1.8-3.8c-0.9-2.7-1.6-5.3-2.5-8c-1.6-5.3-3.3-10.6-4.9-15.9
			C251.3,552.3,249.7,552.9,250.1,554L250.1,554z"/>
	</g>
	<g id="XMLID_32_">
		<path id="XMLID_34_" class="st6" d="M252.8,489.5c-8.5,12-18.2,22.6-27.7,33.6c15.5,23.5,38,42.3,61.6,57.8l46.6-60.2
			c-9.5-9.7-18.9-19.6-28.4-29.3c-4.7-4.9-9.3-9.7-14.8-13.5c-6.4-4.7-14-8-21.5-10.9c-3.3,4.7-6.7,9.1-10.4,13.9
			C256.4,483.4,254.7,486.6,252.8,489.5z"/>
		<path id="XMLID_33_" class="st4" d="M252.2,488.9c-8.3,11.9-18.2,22.6-27.7,33.6c-0.3,0.3-0.3,0.8,0,1.1
			c15.8,23.9,38,42.4,61.7,58.1c0.4,0.4,0.9,0.3,1.1-0.1c10.4-13.4,20.6-26.8,30.9-40.2c5.2-6.8,10.5-13.5,15.5-20.3
			c0.3-0.3,0.3-0.9,0-1.1c-10.4-10.6-20.6-21.3-30.9-31.9c-4.8-4.9-9.8-9.7-15.8-13.4c-5.8-3.7-12.1-6.4-18.4-8.8
			c-0.4-0.1-0.8-0.1-1,0.3c-2.8,3.8-5.3,7.6-8.2,11.2c-1.4,1.8-2.8,3.4-3.9,5.3C254.6,484.8,253.5,487,252.2,488.9
			c-0.6,1,0.8,2,1.4,1.1c1.3-1.8,2.3-3.7,3.4-5.6c1.3-2,2.9-3.9,4.3-5.8c2.9-3.7,5.6-7.5,8.2-11.2c-0.4,0.1-0.6,0.3-1,0.3
			c6.3,2.4,12.4,5.1,18.1,8.7c6.1,3.7,11.1,8.7,16,13.8c10.2,10.4,20.2,20.8,30.3,31.2c0-0.4,0-0.6,0-1.1
			c-10.4,13.4-20.6,26.8-30.9,40.2c-5.2,6.8-10.5,13.5-15.5,20.3c0.5-0.1,0.9-0.1,1.1-0.1c-23.6-15.4-45.8-34-61.5-57.7
			c0,0.4,0,0.6,0,1.1c9.3-11.1,19.1-21.8,27.7-33.6C254.2,489.1,252.8,488,252.2,488.9z"/>
	</g>
	<g id="XMLID_29_">
		<path id="XMLID_31_" class="st5" d="M241.7,460.5c-9.2,0-18.8,3.4-24.5,10.6c-4.7,6.2-6.1,14.3-5.1,22c1,7.6,4.2,14.8,8,21.5
			c1.6,2.9,3.3,5.7,5.2,8.5c9.2-11,18.9-21.6,27.7-33.6c1.9-2.9,3.5-6.1,5.7-8.7c3.7-4.7,7.1-9.2,10.4-13.9c-0.1,0-0.4-0.1-0.5-0.3
			C259.8,463.4,250.8,460.5,241.7,460.5z"/>
		<path id="XMLID_30_" class="st4" d="M241.6,459.6c-6.9,0.1-13.8,1.9-19.4,5.8c-5.6,3.8-9.1,9.7-10.5,16.3c-3.2,15,5.1,29.9,13,42
			c0.4,0.5,1,0.5,1.4,0c7.7-9.2,15.8-18.1,23.1-27.5c1.8-2.4,3.7-4.7,5.2-7.2c1.5-2.4,2.8-4.8,4.4-7.1c3.5-4.8,7.2-9.6,10.7-14.4
			c0.4-0.4,0.3-1.1-0.4-1.3C260.3,462.6,251.2,459.7,241.6,459.6c-1.1,0-1,1.8,0.1,1.8c9.3,0.1,18.2,3,26.8,6.3
			c-0.1-0.5-0.3-1-0.4-1.3c-3.3,4.7-6.8,9.3-10.4,13.9c-1.8,2.3-3,4.7-4.5,7.1c-1.6,2.7-3.7,5.3-5.6,7.7
			c-7.3,9.6-15.4,18.4-23.1,27.5c0.5-0.1,1,0,1.4,0c-7.5-11.5-14.9-24.9-13-39c1-6.6,4.2-12.4,9.6-16.4c5.4-4,12.5-5.7,19.1-5.8
			C242.9,461.3,242.6,459.7,241.6,459.6z"/>
	</g>
	<g id="XMLID_26_">
		<path id="XMLID_28_" class="st3" d="M276.8,540.5c-5.3,1.5-11.7,1-16.5-2.3c-2.9-2-5.4-4.9-7.1-8.2c-3.2-6.7-2.8-14.8-0.1-21.7
			c2-5.2,5.4-10.1,10.2-13c4.8-3,10.9-4,16.2-2c4.9,1.9,8.5,6.2,11,11c2.4,4.2,3.9,8.8,4,13.6c0.3,7.2-2.5,14.5-8.5,18.6
			C283.4,538.4,280,539.6,276.8,540.5z"/>
		<path id="XMLID_27_" class="st4" d="M276.4,539.8c-4.5,1.3-9.5,1-13.6-1c-4.8-2.1-8.3-6.9-9.8-11.9c-2.9-9.2,0.3-20,6.6-27
			c3.3-3.8,7.8-6.1,12.9-6.4c5.3-0.5,10,1.9,13.5,5.8c6.7,7.3,9.8,18.4,6.4,28c-1.1,2.9-3,5.7-5.3,7.8
			C284,537.4,280.2,538.7,276.4,539.8c-1.1,0.3-0.5,1.9,0.6,1.6c4.7-1.3,9.2-3.2,12.5-6.8c3-3,4.7-7.2,5.4-11.2
			c1.8-9.2-2-19.1-8.2-25.8c-5.9-6.6-15.4-7.8-23.1-3.4c-8.1,4.7-12.6,13.9-13.5,23c-0.6,7.3,1.5,14.6,6.9,20
			c5.3,5.2,13,6.3,19.8,4.3C278.2,541,277.6,539.4,276.4,539.8z"/>
	</g>
	<g id="XMLID_23_">
		<path id="XMLID_25_" class="st7" d="M275.7,536.3c-4.3,1.1-9.5,0.9-13.3-1.8c-2.4-1.6-4.3-3.9-5.6-6.6c-2.5-5.3-2.3-11.9-0.1-17.2
			c1.6-4.2,4.3-8,8.1-10.4c3.8-2.4,8.6-3.2,12.9-1.6c3.9,1.5,6.8,5.1,8.8,8.7c1.8,3.4,3.2,7.1,3.3,10.9c0.1,5.8-2,11.6-6.7,14.9
			C281,534.6,278.3,535.6,275.7,536.3z"/>
		<path id="XMLID_24_" class="st4" d="M275.3,535.5c-4.2,1.1-8.7,0.8-12.4-1.6c-4.2-2.8-6.3-7.3-6.8-12.1c-1-9,4.2-19.4,12.9-22.4
			c10.1-3.3,17.6,6.6,19.6,15.4c1,4.4,0.4,9-1.8,12.9C284.5,532.1,280,534.1,275.3,535.5c-1.1,0.3-0.5,1.9,0.6,1.6
			c4.5-1.4,8.8-3.3,11.5-7.3c2.4-3.3,3.3-7.7,3.3-11.7c0-4.8-2-9.3-4.5-13.4c-2.4-3.7-5.8-6.7-10.2-7.6c-9.3-2.1-17.2,5.6-20.1,13.6
			c-3.2,8.5-1.6,18.3,5.6,24c4,3.2,9.7,3.7,14.5,2.3C277.1,536.7,276.3,535.2,275.3,535.5z"/>
	</g>
	<path id="XMLID_22_" class="st4" d="M295.6,571.3c2,0.8,4,1.4,6.3,1.9c1.1,0.3,1.4-1.5,0.3-1.6c-2-0.4-3.9-0.9-5.8-1.8
		C295.3,569.4,294.5,571.1,295.6,571.3L295.6,571.3z"/>
	<path id="XMLID_21_" class="st4" d="M302.2,562.1c1.5,0.8,3,1.5,4.5,2.3c1,0.5,1.6-1.1,0.6-1.6c-1.5-0.8-3-1.5-4.5-2.3
		C301.8,560,301.2,561.6,302.2,562.1L302.2,562.1z"/>
	<path id="XMLID_20_" class="st4" d="M309.9,551.1c1.3,1.3,2.7,2.5,4,3.4c1,0.6,2-0.8,1.1-1.4c-1.4-0.9-2.5-1.9-3.7-3.2
		C310.5,549.2,309.2,550.2,309.9,551.1L309.9,551.1z"/>
	<path id="XMLID_19_" class="st4" d="M316.7,542.8c1.5,0.9,2.9,1.9,4,3.2c0.8,0.8,1.9-0.6,1.1-1.4c-1.3-1.1-2.7-2.1-4-3.2
		C316.9,540.9,315.8,542.3,316.7,542.8L316.7,542.8z"/>
	<path id="XMLID_18_" class="st4" d="M324.8,533.3c1,1.4,2,2.7,3,3.9c0.8,0.9,2-0.1,1.4-1c-1-1.4-2-2.7-3-3.9
		C325.4,531.4,324.1,532.4,324.8,533.3L324.8,533.3z"/>
	<path id="XMLID_17_" class="st4" d="M327.8,515.3c5.4-1.8,11-3,16.7-3.9c1-0.3,0.9-1.9-0.1-1.8c-5.8,0.8-11.5,2.1-17,3.9
		C326.1,513.9,326.7,515.5,327.8,515.3L327.8,515.3z"/>
	<path id="XMLID_16_" class="st4" d="M322.4,509.6c4-1,8-2.1,11.9-3.3c1.1-0.3,0.5-1.9-0.6-1.6c-3.8,1.1-7.6,2.3-11.5,3
		C321.1,508.2,321.3,510,322.4,509.6L322.4,509.6z"/>
	<path id="XMLID_15_" class="st4" d="M316.2,503c4.5-1.4,9.2-2.7,13.9-3.8c1.1-0.3,0.5-1.9-0.6-1.6c-4.5,1.1-9.2,2.5-13.9,3.8
		C314.3,501.8,315.1,503.4,316.2,503L316.2,503z"/>
	<path id="XMLID_14_" class="st4" d="M310.4,497.1c4.2-1.4,8.2-2.7,12.5-3.8c1.1-0.3,0.9-1.9-0.1-1.8c-4.4,1-8.7,2.3-13,3.8
		C308.8,495.8,309.4,497.5,310.4,497.1L310.4,497.1z"/>
	<path id="XMLID_13_" class="st4" d="M259.9,562.5c2,4.7,3.5,9.6,4.8,14.5c0.3,1.1,1.9,0.5,1.6-0.6c-1.3-4.9-2.9-9.8-4.8-14.5
		C261,560.8,259.4,561.4,259.9,562.5L259.9,562.5z"/>
	<path id="XMLID_12_" class="st4" d="M269.3,569.9c1.9,4,3.3,8.5,4.4,12.9c0.3,1.1,1.9,0.9,1.8-0.1c-1-4.5-2.5-9.1-4.4-13.3
		C270.4,568.3,268.7,568.9,269.3,569.9L269.3,569.9z"/>
	<path id="XMLID_11_" class="st4" d="M275.7,573.6c2.4,4.9,4.3,10.1,5.7,15.4c0.3,1.1,1.9,0.5,1.6-0.6c-1.4-5.3-3.3-10.5-5.7-15.4
		C276.8,572.1,275.2,572.6,275.7,573.6L275.7,573.6z"/>
</g>
<g id="XMLID_2_">
	<g id="XMLID_7_">
		<path id="XMLID_9_" class="st8" d="M217.3,337c-0.2-0.7-0.4-1.4-0.7-2.1c-1.6-4.7-3.6-9.4-5.9-14c-6.6-13.1-15.9-25.1-27.1-34.5
			c-7.3-6.1-15.3-10.7-23.6-14.1c-4.1-1.6-8.4-3-12.7-4c-34.3-8.2-72.8,3.4-98.4,28.9c-9.2,9.1-15.5,20.2-19.3,32.2
			c-2.9,9.4-4.3,19.3-4.1,29.2c0.3,13.1,3.2,26.3,8.6,38.3c15.1,33.3,48.5,50.8,82.9,51.6c11.6,0.3,23.4-1.4,34.6-5
			c21.5-6.9,41.6-22.4,54.4-41.9C218.6,382.5,224.2,359.5,217.3,337z"/>
		<path id="XMLID_8_" class="st9" d="M218.6,336.6c-8.9-28.8-30.2-54.3-58.3-65.7c-25.9-10.5-55.7-7.9-80.8,3.5
			c-12.5,5.6-24,13.8-33.4,23.8c-10.1,10.6-16.6,24.2-19.8,38.4c-6.5,29,1.5,61.3,21.5,83.4c16.9,18.5,41.5,28.4,66.2,29.7
			c30,1.6,58.9-10,80-31.2S227.4,366.3,218.6,336.6c-0.5-1.6-3.1-0.9-2.6,0.7c9.1,30.7-5.1,62-27.7,82.9
			c-22.5,20.9-53.5,30.3-83.9,25.9c-25.6-3.7-49.4-17.4-63.5-39.4c-17.3-26.9-19.1-63.9-3.7-92c13.7-25,41.7-41,69-46.1
			c13.7-2.6,28-2.2,41.6,1.1c16.1,3.9,30.4,12.5,42,24.2c11.9,12,21.1,27.3,26.1,43.4C216.5,339,219.1,338.3,218.6,336.6z"/>
	</g>
	<g id="XMLID_3_">
		<g id="XMLID_4_">
			<path id="XMLID_6_" class="st10" d="M255,310.5c-0.9-2.4-2.2-4.6-3.8-6.5c-7.1-8.9-20.6-13.4-40.3-13.4c-6.6,0-13.8,0.5-21.5,1.5
				c7.7,7.2,14.2,15.6,19.2,25c0.8,0,1.5,0,2.3,0c6.9,0,11.5,0.7,14.6,1.5c2.8,0.7,4.2,1.5,4.8,1.9c-0.4,2.4-4,9.3-16.3,19.7
				c-1.1,1-2.3,1.9-3.6,3c-0.2,0.1-0.3,0.3-0.5,0.4c-0.5,0.4-1,0.8-1.5,1.2c-0.2,0.1-0.4,0.3-0.6,0.4c-0.7,0.5-1.4,1-2.1,1.6
				c-18.8,14-45,27.9-73.8,39.3c-2,0.8-3.9,1.5-5.9,2.3c-0.2,0.1-0.4,0.1-0.5,0.2c-1.9,0.7-3.8,1.4-5.6,2.1
				c-0.3,0.1-0.5,0.2-0.8,0.3c-1.8,0.7-3.7,1.3-5.5,1.9c-0.3,0.1-0.6,0.2-0.8,0.3c-1.8,0.6-3.7,1.2-5.5,1.8
				c-0.3,0.1-0.5,0.2-0.8,0.2c-1.9,0.6-3.7,1.2-5.5,1.8c-0.2,0.1-0.3,0.1-0.5,0.2c-1.9,0.6-3.9,1.2-5.8,1.7l0,0
				c-4,1.1-7.9,2.2-11.8,3.2c-0.1,0-0.1,0-0.2,0c-1.9,0.5-3.7,0.9-5.6,1.3c-0.1,0-0.2,0-0.3,0.1c-1.8,0.4-3.6,0.8-5.4,1.2
				c-0.1,0-0.2,0-0.3,0.1c-1.8,0.4-3.6,0.7-5.4,1.1c0,0,0,0-0.1,0c-9.1,1.7-17.6,2.8-25.1,3.1c-2,0.1-3.9,0.2-5.8,0.2l0,0
				c-13.3,0-18.1-2.5-19.4-3.4c0-0.2,0.1-0.5,0.2-0.9c0.9-2.7,4.3-8.3,13.2-16.4c-2.2-8.1-3.4-16.6-3.4-25.4c0-2,0.1-4,0.2-6
				c-1.9,1.4-3.9,2.8-5.7,4.3c-25.2,19.7-35.1,37.5-29.7,53.1c0.1,0.4,0.2,0.7,0.4,1.1c5.3,13.3,20.1,20,44.1,20l0,0
				c9,0,19.1-0.9,30-2.7c0.1,0,0.2,0,0.4-0.1c1.4-0.2,2.8-0.5,4.2-0.7c0.1,0,0.2,0,0.3-0.1c1.5-0.3,3-0.6,4.6-0.9c0.1,0,0.1,0,0.2,0
				c1.4-0.3,2.9-0.6,4.4-0.9c0.2,0,0.4-0.1,0.6-0.1c3-0.7,6.1-1.4,9.3-2.2c0.3-0.1,0.5-0.1,0.8-0.2c3.1-0.8,6.2-1.6,9.4-2.5
				c0.3-0.1,0.6-0.2,0.9-0.3c1.5-0.4,2.9-0.8,4.4-1.3c0.1,0,0.3-0.1,0.4-0.1c1.6-0.5,3.2-1,4.8-1.4c0.3-0.1,0.6-0.2,1-0.3
				c1.3-0.4,2.7-0.9,4.1-1.3c0.3-0.1,0.6-0.2,0.9-0.3c1.6-0.5,3.2-1,4.8-1.6c0.3-0.1,0.6-0.2,0.9-0.3c1.3-0.5,2.7-0.9,4-1.4
				c0.4-0.1,0.8-0.3,1.1-0.4c1.6-0.6,3.2-1.1,4.8-1.7c0.2-0.1,0.4-0.2,0.7-0.2c1.4-0.5,2.8-1,4.2-1.6c0.4-0.2,0.8-0.3,1.3-0.5
				c1.6-0.6,3.2-1.2,4.8-1.9c1.9-0.8,3.9-1.6,5.8-2.3c0.6-0.3,1.3-0.5,1.9-0.8c1.3-0.5,2.5-1.1,3.8-1.6c0.8-0.3,1.5-0.7,2.3-1
				c1.1-0.5,2.2-1,3.3-1.5c0.8-0.4,1.6-0.7,2.4-1.1c1-0.5,2.1-0.9,3.1-1.4c0.8-0.4,1.7-0.8,2.5-1.2c1-0.5,2-0.9,3-1.4
				c0.8-0.4,1.7-0.8,2.5-1.2c1-0.5,1.9-0.9,2.8-1.4c1.8-0.9,3.5-1.8,5.2-2.6c0.7-0.4,1.4-0.7,2-1.1c1-0.5,2-1.1,3-1.6
				c0.6-0.3,1.3-0.7,1.9-1c1-0.6,2-1.1,3-1.7c0.6-0.3,1.2-0.7,1.8-1c1-0.6,2-1.2,3-1.7c0.5-0.3,1.1-0.6,1.6-0.9
				c1-0.6,2.1-1.2,3.1-1.8c0.5-0.3,0.9-0.6,1.4-0.8c1.1-0.7,2.1-1.3,3.2-2c0.3-0.2,0.5-0.3,0.8-0.5c3.9-2.5,7.7-4.9,11.3-7.4l0,0
				l0,0c3.2-2.2,6.2-4.4,9-6.7C251.4,344.5,261.3,326.3,255,310.5z"/>
			<path id="XMLID_5_" class="st9" d="M256.3,310.1c-4.2-10.1-13.1-15.7-23.3-18.5c-14-3.8-29.4-2.8-43.6-1
				c-1.1,0.1-1.9,1.4-0.9,2.3c7.6,7.2,14,15.5,19,24.7c0.2,0.4,0.7,0.7,1.2,0.7c6.4-0.1,15.3-0.5,21,3.2c-0.2-0.5-0.4-1-0.6-1.5
				c-0.6,3.1-3.1,6-5,8.4c-4.6,5.5-10.1,10.2-15.7,14.6c-11.5,9-24.2,16.6-37.1,23.5c-28.5,15.2-59.2,26.9-90.5,34.6
				c-13.1,3.2-26.4,5.7-39.9,6.4c-6,0.3-12,0.3-17.9-0.8c-2.2-0.4-4.7-1-6.6-2.3c0.2,0.5,0.4,1,0.6,1.5c1.8-6.6,8.3-12.2,13.1-16.7
				c0.4-0.3,0.5-0.9,0.3-1.3c-2.7-10.1-3.7-20.5-3.1-31c0.1-1-1.2-1.7-2-1.2c-11.7,8.5-23.2,18.2-31.1,30.5
				c-5.2,8.1-8,17.9-5.3,27.4c6.9,23.6,38.3,24.1,58,22.6c30.3-2.3,60.2-11.1,88.4-21.8c28.4-10.7,56.3-24.1,81.3-41.4
				c0.6-0.4,1.4-0.8,1.4-1.7c-0.2,0.4-0.4,0.8-0.7,1.2c12.9-9.1,25.9-19.4,34.4-32.9C257.3,330.8,260.1,320.2,256.3,310.1
				c-0.6-1.6-3.2-0.9-2.6,0.7c3.9,10.2,0.4,20.5-5.5,29.2c-4.2,6.2-9.5,11.6-15,16.5c-3.4,3.1-7,6-10.6,8.8c-1.6,1.2-3.3,2.4-5,3.6
				c-0.8,0.6-2.4,1.2-2.4,2.4c0.2-0.4,0.4-0.8,0.7-1.2c-25.2,17.3-52.9,30.8-81.5,41.7s-58.9,19.7-89.6,21.8
				c-18.5,1.3-47.3,0.6-53.7-21.3c-2.6-8.9,0.8-17.9,5.5-25.4C4,375.3,15.3,366.1,26.3,358c-0.7-0.4-1.3-0.8-2-1.2
				c-0.6,10.7,0.5,21.3,3.2,31.7c0.1-0.4,0.2-0.9,0.3-1.3c-5.2,4.7-11.9,10.7-13.8,17.8c-0.2,0.6,0.1,1.2,0.6,1.5
				c2.3,1.5,5.2,2.2,7.8,2.6c6.5,1.2,13.2,1.1,19.8,0.7c14.8-0.9,29.5-3.9,43.8-7.6c31-8,61.3-20.1,89.5-35.4
				c12.7-6.9,25-14.6,36.3-23.7c5.4-4.3,10.6-9.1,14.9-14.5c1.8-2.3,4-5.1,4.6-8.1c0.1-0.6-0.1-1.2-0.6-1.5
				c-6.1-4-15.5-3.7-22.3-3.5c0.4,0.2,0.8,0.4,1.2,0.7c-5.1-9.4-11.7-17.9-19.4-25.2c-0.3,0.8-0.6,1.5-0.9,2.3
				c13.2-1.6,26.9-2.5,40,0.2c10.2,2.1,20.1,7.2,24.3,17.3C254.3,312.4,256.9,311.7,256.3,310.1z"/>
		</g>
	</g>
</g>
</svg>
