<?xml version="1.0" encoding="utf-8"?>
<!-- Generator: Adobe Illustrator 19.0.0, SVG Export Plug-In . SVG Version: 6.00 Build 0)  -->
<svg version="1.1" id="Capa_1" xmlns="http://www.w3.org/2000/svg" xmlns:xlink="http://www.w3.org/1999/xlink" x="0px" y="0px"
	 viewBox="-44 -92.7 479 453" style="enable-background:new -44 -92.7 479 453;" xml:space="preserve">
<style type="text/css">
	.st0{fill:#BB986C;}
	.st1{fill:#8C7051;}
	.st2{opacity:0.35;}
	.st3{clip-path:url(#SVGID_2_);fill:#BA6E6E;}
	.st4{fill:#383838;}
	.st5{fill:#79C143;}
	.st6{fill:#D14398;}
	.st7{fill:#F06422;}
	.st8{fill:#4694D0;}
	.st9{fill:#E26079;}
	.st10{fill:#C32766;}
	.st11{fill:#FDE9D1;}
	.st12{fill:#B7452C;}
	.st13{fill:#F7C5AD;}
	.st14{fill:#F1E58B;}
	.st15{fill:#12100B;}
	.st16{fill:#13120D;}
	.st17{fill:#F9F9FA;}
	.st18{fill:#D6B8D9;}
	.st19{fill:#6D3811;}
	.st20{fill:#EC6D5D;}
	.st21{fill:#26231E;}
</style>
<g id="escenario">
	<polygon id="XMLID_49_" class="st0" points="113.7,176.4 8.9,198.3 219,233.4 354.6,180.8 	"/>
	<polygon id="XMLID_48_" class="st1" points="352.7,221.1 354.6,180.8 219,233.4 8.9,198.3 13.2,231.9 220.4,276.6 	"/>
	<g id="XMLID_64_" class="st2">
		<g id="XMLID_65_">
			<g>
				<g>
					<g>
						<g>
							<defs>
								<rect id="SVGID_1_" x="97.6" y="-6" width="262.4" height="186.8"/>
							</defs>
							<clipPath id="SVGID_2_">
								<use xlink:href="#SVGID_1_"  style="overflow:visible;"/>
							</clipPath>
							<polygon id="XMLID_47_" class="st3" points="97.6,44.8 113.7,176.4 354.6,180.8 359.9,-6 							"/>
						</g>
					</g>
				</g>
			</g>
		</g>
	</g>
	<path id="XMLID_2_" class="st4" d="M147.9,53.2c-15.2,0-26.7-1.3-34.3-2.5c-11-1.7-16.5-3.8-16.7-3.9l1.5-4l-0.7,2l0.7-2
		c0.1,0,5.5,2,16.2,3.7c9.8,1.6,26.4,3.2,48.8,1.9C203,46.2,269.1,34.8,359.2-8l1.9,3.9C320.7,15,281.9,29.5,245.5,39.2
		c-29.2,7.7-56.9,12.3-82.4,13.6C157.7,53.1,152.6,53.2,147.9,53.2z"/>
	<polygon id="XMLID_45_" class="st5" points="102.9,79.7 96.2,47.5 120.3,51.7 	"/>
	<polygon id="XMLID_44_" class="st6" points="129.2,82.7 117.7,51.9 142.2,52.5 	"/>
	<polygon id="XMLID_43_" class="st7" points="154.2,83.2 141.5,52.9 165.9,52.5 	"/>
	<polygon id="XMLID_42_" class="st8" points="181.6,82.3 166.7,53 191,50.7 	"/>
	<polygon id="XMLID_41_" class="st5" points="206.6,79.1 190.3,50.6 214.5,47.2 	"/>
	<polygon id="XMLID_40_" class="st6" points="231.6,74.1 213.3,46.8 237.2,41.8 	"/>
	<polygon id="XMLID_39_" class="st7" points="256.7,67.6 236.1,41.9 259.6,34.9 	"/>
	<polygon id="XMLID_38_" class="st8" points="281.7,60.4 260.5,35.3 283.6,27.6 	"/>
	<polygon id="XMLID_37_" class="st5" points="303.8,52.8 283,27.4 306.3,20.1 	"/>
	<polygon id="XMLID_36_" class="st6" points="327.6,43.9 305.1,19.9 327.8,11 	"/>
	<polygon id="XMLID_35_" class="st7" points="351.3,33.4 326.9,11.4 348.8,0.6 	"/>
</g>
<g>
	<path d="M427.6,150.1c1.2,41.2-0.8,86.5-24.4,125.1c-42.4,69.2-185.8,94.6-285.4,70.1c-56.5-13.9-87-46.4-110-82.1
		c-26.3-40.6-40.2-84.5-41-128.8c0-0.8,0.4-1.4,0.9-2c-9.2-48.2-6.9-99.2,28-142.9C27.4-50,83.2-75.2,148.4-83.1
		c54-6.5,120.5-4.7,167.6,16.2c42.6,18.9,67.3,50.7,82.4,82.5C418.8,58.5,426.4,105.2,427.6,150.1z M407,237.2
		c11.2-39.8,11-81.8,6.1-122.1c-4.5-37.3-13.1-75.9-33.4-111c-18.9-32.6-51.1-63.2-102.5-74.7c-51.3-11.5-112.8-10.1-163.5,1.9
		C-14.1-38.4-33.6,55.5-20.6,134.7c0.2,0.9-0.3,1.6-0.8,2.2C-19,183-4.2,228.3,25.4,270.1c29.6,41.6,72.7,70,143.3,74.8
		c50.3,3.4,106.4-3.1,151.3-18.9C371.7,307.7,396.6,274.4,407,237.2z"/>
	<path d="M402.5,142.8c1,6.5-1.6,13.7-2.7,20.2c-0.4,2.1-5.3,2.2-5.1,0c0.9-6.6,0.5-14.2,3.6-20.6
		C399.1,140.8,402.3,141.3,402.5,142.8z"/>
	<path d="M402.3,186.6c1.1,5.9-1.7,12.6-2.8,18.5c-0.4,2.1-5.2,2.2-5,0c0.7-6.1,0.1-13.1,3.1-18.9
		C398.6,184.4,402,184.9,402.3,186.6z"/>
	<path d="M397.2,95.2c2.1,6.7,1.1,13.9,0.8,20.6c-0.2,2.6-5.8,2.5-5.9,0c-0.3-6.8-1.3-14,0.8-20.6C393.3,93.8,396.8,93.8,397.2,95.2
		z"/>
	<path d="M392.4,232.1c0.9,6.6-3.6,13.5-8.2,19.2c-1,1.3-4.4,0.4-3.6-1c3.7-6.1,4.7-12.4,7.3-18.6
		C388.7,230,392.2,230.5,392.4,232.1z"/>
	<path d="M388,70.3c0.2,1.9-4.6,2.3-4.9,0.4c-1.2-5.8-2.2-11.5-2.4-17.3c-0.1-1.8,4.3-2.3,4.8-0.4C387,58.7,387.6,64.5,388,70.3z"/>
	<path d="M376,271.6c2.1-1.1,5,0.2,3.7,1.9c-2.6,3.3-6.8,6.2-10.2,9.2c-3.5,3-6.7,6.2-9.9,9.3c-1.6,1.6-5.4,0.2-3.9-1.5
		c3.2-3.4,6.4-6.8,9.8-10.1C368.7,277.3,371.8,273.8,376,271.6z"/>
	<path d="M374.1,23.8c6.2,3.2,6.6,10.2,5.6,15c-0.4,1.7-4.3,1.2-4.4-0.4c-0.1-2.4-0.7-4.7-1.7-6.9c-0.9-2.1-2.8-4-3.5-6.1
		C369.7,23.7,372.3,22.8,374.1,23.8z"/>
	<path d="M366.8,5.5c1,1.3-1.5,2.8-3.2,1.7c-6.3-4.5-10.8-10.1-15.5-15.4c-1-1,1.4-2.3,2.6-1.3C356.5-4.8,362.8,0.1,366.8,5.5z"/>
	<path d="M336.8,306.5c2.8-0.6,3.9,2,1.9,2.9c-8.7,4.3-20.4,6.9-30.2,10c-2.5,0.8-4.7-1.6-2.2-2.5
		C316,313.5,326.3,308.8,336.8,306.5z"/>
	<path d="M331.6-30.3c1.8,1.5-0.9,3.2-3.1,2.1c-6.5-3.5-12-7.6-17.8-11.7c-2.2-1.6,1.2-3.8,3.5-2.3
		C320.2-38.4,326.4-34.7,331.6-30.3z"/>
	<path d="M275.2-54.1c2.5,0.6,1.5,2.9-1.1,2.7c-7.6-0.7-15-2.7-22.3-4.1c-2.1-0.4-1.3-2.5,0.9-2.2C260.2-56.7,268-55.9,275.2-54.1z"
		/>
	<path d="M271.7,327.2c2.2-0.2,4,1.8,1.7,2.6c-9.1,3.1-21.4,3.8-31.4,3.1c-2.7-0.2-2.7-2.7,0-2.8c5.3-0.3,10.5-0.4,15.8-1
		C262.4,328.6,267,327.7,271.7,327.2z"/>
	<path d="M204.4,333.6c1.9-0.1,2.6,1.8,1,2.4c-11,3.6-25.2,2.3-36.4-0.2c-2-0.4-1.2-2.5,0.9-2.1C182,335.8,192.1,334.4,204.4,333.6z
		"/>
	<path d="M196.9-64.2c2.6,0.1,3.2,2.6,0.6,3.1c-7.4,1.4-15.5,1.7-23.2,2c-2.9,0.1-3.6-3.1-0.7-3.4C181.2-63.4,189.1-64.4,196.9-64.2
		z"/>
	<path d="M136.6,328.8c1.8,0.1,2.6,2,0.5,2.3c-4.3,0.6-8.5,0.2-12.5-1c-3.1-0.9-8.5-3-7.4-5.7c0.3-0.6,1.1-1,2-1
		c3-0.2,5.1,2.1,7.4,3.1C129.6,327.7,133,328.4,136.6,328.8z"/>
	<path d="M133.4-59.3c2.5-0.5,3.5,1.7,1.6,2.6c-5.9,2.9-13.3,4.7-20,6.8c-2.4,0.7-4.5-1.6-2.1-2.4C119.5-54.7,126.2-57.7,133.4-59.3
		z"/>
	<path d="M95,312.4c1.7,1-0.5,2.7-2.4,2.1c-7.9-2.8-15.3-7.2-18.6-12.9c-1-1.7,2.8-3.1,4.5-1.8C83.9,304.2,88.6,308.7,95,312.4z"/>
	<path d="M78.2-45.1c2.5-0.8,5.4,1.3,3.1,2.7c-8,4.9-15.7,9.1-21.6,15.3c-1.4,1.5-4.5,0.2-3.4-1.3C61-34.9,68.4-41.7,78.2-45.1z"/>
	<path d="M59.3,280.6c2,0.8,0.6,3.1-1.6,2.5c-7-1.9-14.9-7.1-13.2-12.7c0.4-1.3,3.5-1.7,4.3-0.4c1.3,2,1.7,4,3.3,5.9
		C53.9,277.9,56.3,279.5,59.3,280.6z"/>
	<path d="M32.5-10.2c2.2-1.1,4.3,1.2,2.7,2.4c-7.6,6-13.7,11.9-16.5,19.7c-0.7,2-5,1.1-4.4-0.8C16.7,2.8,22.4-5.2,32.5-10.2z"/>
	<path d="M34.2,249c1.2,1-1.4,2.2-2.7,1.3c-7.7-5-14.6-12.9-13-20.4c0.4-1.6,3.9-1.3,4.5,0c1.4,3.2,1.8,6.5,3.5,9.6
		C28.4,243,31,246.1,34.2,249z"/>
	<path d="M12.8,208.2c0.7,1.7-3,2.3-3.9,0.7c-3.5-5.8-8.1-12.4-9.6-18.6c-0.4-1.6,2.8-2.7,4.1-1.1C7.8,194.8,10.2,202,12.8,208.2z"
		/>
	<path d="M1.6,40.4c1.5-1.1,4.5,0.1,3.8,1.4c-4.2,8.1-8.3,14.5-7.1,23.4c0.2,1.5-3.4,1.8-3.8,0.4C-7.9,57.4-6.9,47.1,1.6,40.4z"/>
	<path d="M-2.5,145.5c4.1,6,3.4,13.3,1.7,19.7c-0.4,1.5-4.2,1.1-4-0.4c1-6.4-1.1-12.2-2.1-18.5C-7.2,144.8-3.5,144.1-2.5,145.5z"/>
	<path d="M-4.1,115.8c0.1,1.6-3.7,1.9-4,0.4c-1.5-7.7-4.5-16.2-3.6-23.9c0.2-1.8,4.1-2.3,4.9-0.4C-3.9,99.4-4.6,108-4.1,115.8z"/>
</g>
<g id="XMLID_1817_">
	<g id="XMLID_1819_">
		<g id="XMLID_4606_">
			<path id="XMLID_4610_" class="st9" d="M203.1,193.2c0.4-1.8,2.4-2.1,3.9-1.7c0.9,0.2,1.6,0.4,2.6,0.4c1.2,0,2.3,0,3.5,0
				c2.2,0,4.4,0.4,6.7,0.5c4.7,0.1,9.5,0.8,14.2,0.3c1.7-0.2,3.5-0.3,5.2-0.4c1.5-0.1,3.3-0.2,4.6,0.5c0.1,0.1,0.3,0.2,0.4,0.3
				c0.6-0.4,1.6-0.3,1.7,0.6c0.3,1.9,1,4.5,0.4,6.3c-0.2,0.7-0.8,1.1-1.5,1.2c-2.3,0-4.6,0-7,0c-2.5,0-4.9,0.4-7.4,0
				c-2-0.3-4-1.3-6.1-1.3c-2.5-0.1-4.9-0.3-7.3-0.8c-2-0.4-4.1-0.9-6-1.8c-1.7-0.7-3.6-1-5.4-1.4
				C204.2,195.7,202.8,194.7,203.1,193.2z"/>
			<g id="XMLID_4607_">
				<path id="XMLID_4609_" class="st10" d="M239.5,209.2c4.3-1.1,9.1-1.4,13.4-0.4c0.6,0.1,1.2,0.9,1.2,1.5
					c-0.2,1.5-0.9,2.7-2.1,3.7c-1.5,1.2-3.1,1.5-5,1.6c-3.6,0.3-7.6,0.2-10.6-2c-0.3-0.2-0.5-0.6-0.6-0.9c-0.3,0.1-0.5,0.2-0.6,0.4
					c-0.6,0.7-1.9,0.1-1.8-0.7C233.7,209.5,237.5,209.7,239.5,209.2z"/>
				<path id="XMLID_4608_" class="st10" d="M197,213.1c0.9-1,2.6-1.2,3.9-1.3c3.2-0.3,6.3,0.4,9.4,0.8c0.8,0.1,1.2,0.7,1.3,1.3
					c0.1,0.1,0.2,0.3,0.2,0.5c0.8,3.4-3.7,3-5.7,2.9c-2.9-0.1-6.2,1-8.8-0.8C196,215.7,195.9,214.3,197,213.1z"/>
			</g>
		</g>
		<g id="XMLID_4597_">
			<path id="XMLID_4605_" class="st11" d="M181.6,109.3c1.6-2.9,5.2-3.6,8.2-3.7c1.2,0,2.9,0.1,4.1,0.8c0.3-0.3,0.6-0.7,0.9-1
				c0.3-1.3,0.9-2.7,2.1-3.2c1.8-0.7,3.6,0,5.4,0.4c1.7,0.4,4.1-1.4,5.5-2.2c1-0.5,2.1-0.6,3.1-1.1c0.9-0.4,1.3-1.1,2-1.8
				c0.9-1,2.5-0.4,2.8,0.7c0.2,0.6,0.5,3.6,1.2,3.7c0.6,0,1.4-0.6,1.8-1c0.8-0.6,1.4-1.2,2.3-1.7c1.3-0.8,3.6-1.6,4.5-2.9
				c0.8-1.2,1.3-2.9,2.6-3.6c2.9-1.5,4.5,2.9,5,4.9c0.4,1.3,2.2,1.8,3.2,2.3c1.7,0.8,3.7,1.3,4.9-0.5c0.4-0.6,0.8-1.4,1.1-2.1
				c0.3-0.8,0.2-1,0.4-2c0.2-1.4,0.9-3.7,2.6-3.9c4.1-0.6,3.9,4.9,7.3,6c3.8,1.2,6.5,3.6,9,6.7c1.7,2.1,3.2,4.5,3.9,7.2
				c0.1-0.9,0.4-1.8,0.7-2.4c0.7-1.3,2-1.9,3.4-1.5c1.9,0.4,2.8,2.6,3.4,4.2c0.5,1.7,0.6,3.5,0.4,5.3c-0.2,1.8-1.3,3-2.8,4.1
				c-0.6,0.4-1.3,0.7-1.9,1.2c-0.5,0.4-1,0.5-1.5,0.5c0,0.1,0,0.3,0,0.4c0,0.7,0,1.4-0.3,2c0,0.1,0,0.1-0.1,0.2c0,0.1,0,0.2,0,0.5
				c-0.1,0.4-0.1,0.8-0.3,1.3c-0.2,0.8-0.7,1.5-0.9,2.3c-0.6,1.7-1.4,3.4-2.5,4.9c-2.5,3.4-6.1,4.3-9.7,6.2c-4,2.2-8.3,3.8-12.9,4.4
				c-1.5,0.2-3,0.3-4.6,0.4c0,0.6,0.1,1.1,0.1,1.7c0.4,0.8,0.5,1.6,0.5,2.6c-0.1,1.4-0.9,2.5-1.5,3.6c-1.3,2.4-4.9,3.2-7.4,2.5
				c-2.4-0.7-3.4-3.5-4.2-5.6c-0.4-1.2-1-2.3-1.5-3.4c-0.2-0.5-0.4-1-0.5-1.6c-4-0.5-7.8-1.6-11.7-2.9c-1.3-0.5-2.8-0.9-3.9-1.6
				c-1.1-0.7-2.2-1.7-3.2-2.5c-1-0.9-2-1.9-3.3-2.4c-1.1-0.4-2.2-1-3.2-1.7c-4.3-3.2-6-8.8-6.1-14c0,0,0,0,0-0.1
				c-0.8-0.1-1.7-0.2-2.5-0.4c-1.6-0.3-3.2-1.2-4.3-2.3C181.3,115.1,180.3,111.7,181.6,109.3z"/>
			<g id="XMLID_4601_">
				<path id="XMLID_4604_" class="st12" d="M263.9,136c0.6-1,1-2.1,1.4-3.2c1-2.4,2.3-4.3,2.4-7.1c0-0.8,0.5-1.3,1.2-1.5
					c-0.2-0.6,0.2-1.4,0.9-1.3c1.4,0.1,1.6,1.5,2.1,2.6c0.9,1.8,2.9,3,4.7,3.8c4,2,8.8,1.9,13.2,2.3c1.4,0.1,2.4,2.2,0.8,3
					c-2.4,1.1-5.2,1.9-7.8,2.1c-0.5,0-1,0.3-1.5,0.4c-0.7,0.2-1.5,0.1-2.3,0.1c-1.3-0.1-2.5-0.5-3.7-1c-0.1,0-0.2-0.1-0.3-0.1
					c1.6,1.4,3.3,2.6,4.1,4.7c0.3,0.6-0.2,1.5-0.7,1.8c-2,1.1-4.2,0.7-6.4,0.7c-0.4,0-0.9,0.1-1.4-0.1c-0.2,0-0.3-0.1-0.4-0.2
					c0.1,0.2,0.2,0.3,0.3,0.5c0.7,1.3,1.1,2.7,0.5,4.1c-0.8,1.6-2.8,0.9-3.9,0.3c-2.9-1.6-6.6-5.2-5-8.8
					C262.6,137.8,263.3,136.9,263.9,136z"/>
				<path id="XMLID_4603_" class="st12" d="M163.4,127.1c1.2-0.9,3.3-1,4.7-1.2c2.1-0.3,4.2-0.6,6.2-1.2c0.6-1,1.6-1.1,2.5-1.6
					c1.2-0.6,2.3-1.4,3.4-2.3c1.4-1,3.3-1.5,4.2-3.1c0,0,0-0.1,0.1-0.1c0.1-0.8,1-1.3,1.7-1.1c1-0.8,2.9,0.1,2.7,1.8
					c-0.1,0.7-0.3,1.4-0.7,2c0.1,0.5,0.1,1,0.2,1.5c0.3,2,1.1,3.9,2,5.7c0.9,1.7,2.2,3.3,3.7,4.6c1.2,1.1,2.7,2.6,2.3,4.5
					c-0.3,1.5-2,2.5-3.1,3.4c-0.6,0.4-1.2,0.8-1.8,1.2c-0.8,0.6-1.7,1-2.6,1.5c-1.6,1-3.3,1.3-5.1,1.5c-1.7,0.1-3.5,0.3-5.3,0.2
					c-1.6,0-3.1-1-3.6-2.6c-0.2-0.4-0.3-0.9-0.3-1.3c-2.1,0.1-5.7-0.1-5.1-3c0.3-1.2,1.6-1.8,2.6-2.1c0.8-0.3,1.7-0.5,2.6-0.7
					c-1.5-0.5-3.2-0.6-4.7-1.3c-1.3-0.6-2.5-1-3.8-1.5c-1.4-0.5-2.6-1.2-3.5-2.4C162.3,128.6,162.8,127.5,163.4,127.1z"/>
				<path id="XMLID_4602_" class="st12" d="M190.3,103.4c-1.9,0.1-3.3-1.2-4.2-2.7c-0.8-1.4-1.4-3.2-1.3-4.9c0.2-1.7,1-3.5,1.8-5
					c0.3-0.7,0.7-1.4,1-2.1c0.4-1.2,1-2.3,1.5-3.3c0.4-0.8,0.9-1.6,1.4-2.3c0.5-0.9,1.1-1.9,1.6-2.8c0.9-1.4,2-2.8,3.3-3.7
					c1.8-1.3,4-1.6,6-2.4c4.3-1.5,8.6-3.1,13-4c0.9-0.2,1.9-0.2,2.9-0.2c1.3-0.2,2.6-0.3,3.8-0.4c3.3-0.4,6.7-0.4,10-0.5
					c2.7-0.1,8.4,0.8,10.1,3.8c0.1,0,0.1,0,0.2,0c1.8-0.1,2.9,1.2,4.1,2.3c1.5,1.5,3.3,2.8,4.7,4.5c1.4,1.7,2.9,3.2,4.3,4.8
					c1.4,1.6,2.5,3.4,3.7,5.2c1.5,2.2,3.7,4.6,4,7.3c0.4,3-3.7,2.5-5.1,0.7c-5.3-3.5-10.6-7-15.4-11.1c-0.8-0.7-1.8-1.6-2.7-2.2
					c0.1,0.4,0.2,0.8,0.3,1.1c0.9,2.9,2.6,5.5,3.4,8.5c0.6,2.1,0.9,5.2-0.8,6.9c-1.9,1.9-4.7,1-6.2-0.7c-0.8-0.9-1.4-1.9-1.9-3
					c-0.7-1.3-1.6-2.5-2.3-3.8c-0.7-1.2-1.5-2.3-2.2-3.5c-0.2-0.3-0.6-1.2-1.1-1.9c-0.2,0.6-0.3,1.2-0.3,1.7
					c-0.2,1.5-0.4,2.9-0.9,4.2c-0.9,2.4-2,4.7-4.2,6.1c-1,0.6-2.3,0.9-3.5,0.6c-1.4-0.3-2-1-2.6-2.3c-0.5-1.2-1.1-2.4-1.6-3.6
					c-0.3-0.8-0.7-1.9-1.2-2.7c-0.2,0.2-0.5,0.4-0.7,0.6c-0.7,0.6-1.2,1.3-1.8,1.9c-0.8,0.9-1.9,1.4-2.9,2c-1.2,0.8-2.1,2.1-3.3,2.9
					c-2.2,1.5-5,1.1-6.5-1.2c-0.3-0.5-0.6-1.1-0.8-1.6c-0.2,0.5-0.5,1-0.8,1.5c-0.6,0.9-1.4,1.8-2.2,2.6
					C193.6,102,192.1,103.3,190.3,103.4z"/>
			</g>
			<g id="XMLID_4598_">
				<path id="XMLID_4600_" class="st13" d="M193.8,120.7c0-0.5,0-1,0.1-1.4c0.9-3.3,3-6,6.7-5.1c2.4,0.6,4.3,2.7,4.8,5
					c0.8,1.1,1.1,2.5,1,4c-0.2,3.7-3.3,5.6-6.8,4.7c-0.7-0.2-1.4-0.5-2.1-0.9c-1.1-0.4-2-1-2.8-1.8
					C193.5,123.7,193.3,122.1,193.8,120.7z"/>
				<path id="XMLID_4599_" class="st13" d="M263.4,119.5c3.9,5.4-4.8,12.6-9.7,8.5v0c-2.8-0.8-4-4-3.6-6.6
					C251,114.9,260,115,263.4,119.5z"/>
			</g>
		</g>
		<path id="XMLID_4596_" class="st14" d="M204,185.9c1.1-1.6,1.7-3.9,2.3-5.8c0.9-2.8,1.3-5.7,2-8.5c0.8-3,1.2-5.8,1.3-8.9
			c0.2-5.4,2.4-9.9,4.6-14.6c0.8-1.8,3.3-2.1,4.8-1c1.8,1.3,2.2,3.7,3.8,5.3c1.1,1.1,2.3,1.1,3.7,1.1c1.3,0,2.5,0.3,3.8,0.4
			c1.1,0.1,2.5,0.2,3.6,0c1.1-0.2,2-1.4,2.7-2.3c0.2-1.2,0.6-2.3,1.3-3.3c0.8-1,2.4-0.3,2.7,0.8c0.1,0.1,0.2,0.2,0.3,0.3
			c0.8,1.8,0.8,4.1,1.1,6c0.3,2.3,0.8,4.6,1,6.9c0.1,1.1,0,2.5,0.4,3.5c0.3,0.7,0.5,1.5,0.5,2.3c0.1,2,0.4,4,0.6,6
			c0.4,4.2,0.8,8.6,0.8,12.8c0,1.4,0.4,3.2-0.3,4.4c-0.9,1.8-4.3,1-5.9,0.9c-2.2-0.2-4.4-0.3-6.7-0.3c-2.1,0-4.2,0.5-6.3,0.5
			c-1.1,0-2.2,0-3.3,0c-0.8,0-1.6-0.3-2.4-0.4c-2.4-0.3-4.6-0.3-7-0.9c-2.2-0.5-4.4-0.1-6.5-0.1c-1.2,0-2.9,0.1-3.5-1.2
			C202.8,188.3,203.1,187.2,204,185.9z"/>
		<g id="XMLID_1822_">
			<path id="XMLID_4594_" class="st15" d="M246.8,114.6c0-0.1,0.1-0.2,0.1-0.2c-0.1-0.4,0-0.9,0.4-1.2c0,0,0,0,0,0
				c0,0,0.1-0.1,0.1-0.1c0.3-0.6,0.9-1,1.6-1c1,0,1.8,0.8,1.8,1.8c0,0.4,0,0.9-0.1,1.3c-0.1,0.5-0.5,1.1-0.8,1.5
				c-0.3,0.4-1.2,0.7-1.7,0.4c-0.5-0.2-0.9-0.4-1.2-0.9C246.7,115.7,246.7,115.1,246.8,114.6z"/>
			<path id="XMLID_4593_" class="st15" d="M211.7,113.7c0-0.2,0.1-0.3,0.2-0.5c0.1-0.1,0.1-0.2,0.2-0.3c0.1-0.1,0.1-0.2,0.2-0.3
				c0.2-0.1,0.3-0.2,0.4-0.3c0.3-0.5,1-0.8,1.6-0.8c0.8,0,1.7,0.6,1.9,1.4c0.1,0.6,0.1,1.2-0.2,1.8c-0.2,0.5-0.3,0.6-0.6,1.1
				c-0.3,0.3-0.6,0.5-1,0.6c-0.9,0.3-1.9-0.1-2.4-1c-0.2-0.4-0.3-0.7-0.3-1.2C211.6,114.1,211.7,113.9,211.7,113.7z"/>
			<path id="XMLID_4592_" class="st15" d="M208.5,132.6c0.6,0.4,0.9,0.7,1.2,1.3c0.3,0.6,0.8,1,1.1,1.6c0.8,1.4,2.2,2.2,3.7,3.2
				c2.8,1.8,6.6,2.5,10.1,3c3.8,0.5,7.2,0.6,10.9-0.4c3.4-1,5.8-3.3,7.1-5.8c0.5-0.9,2.5-0.5,2,0.4c-1.4,2.7-3.6,5.1-6.7,6.6
				c-3.7,1.8-8.3,2.1-12.6,1.7c-7.5-0.8-18.3-3.8-18.3-10.9C206.8,132.4,207.9,132.1,208.5,132.6z"/>
			<path id="XMLID_4655_" class="st15" d="M270.3,121.8c-0.1-0.3-0.5-0.1-0.4,0.2c0.6,4.6,4.7,7.6,8.8,9.1c2.7,1,5.8,1.2,8.6,1.3
				c1.5,0,3,0,4.5,0c-0.3,0.1-0.5,0.3-0.8,0.4c-1.8,0.8-3.5,1.9-5.3,2.6c-3.4,1.2-8.1,1.7-11.2-0.8c-1.5-1.2-3.6,0.8-2.2,2.2
				c1.3,1.2,2.7,2.2,4,3.4c0.4,0.4,1.2,1.1,1.7,1.8c-1-0.1-2.1-0.5-2.9-0.4c-1.3,0.1-2.5,0.8-3.2,1.9c-0.6,1-0.9,2.2-1.2,3.3
				c-0.1,0.4-0.2,1.1-0.4,1.4c0,0,0,0,0,0c-1.4-0.1-3.1-1.9-4.1-2.8c-1.2-1.2-2.5-2.6-4-3.4c-1.1-0.6-2.4,0.6-1.7,1.7
				c1,1.8,2.5,3.3,4,4.6c1.5,1.3,3.6,3.2,5.8,3.1c2.8-0.1,3.2-2.6,3.8-4.8c0.3-1.3,0.6-2.2,2.1-1.9c1.6,0.3,3.3,0.6,4.8-0.3
				c0.4-0.3,0.8-0.8,0.8-1.4c-0.2-1.4-0.9-2.6-1.8-3.7c2,0.1,4.1-0.2,6-0.9c2.4-0.9,4.6-2.1,6.9-3.2c0.5-0.2,1-0.5,1.4-0.8
				c0.2-0.3,0.4-0.6,0.5-0.9c0.4-0.7,0.9-1.4,1.3-2.2c0.1-0.1,0.1-0.2,0.2-0.3c0-0.1,0.1-0.2,0.1-0.3c0-0.2,0-0.3,0-0.5
				c0,0,0-0.1,0-0.1c0,0,0,0,0,0c0-0.1-0.1-0.1-0.1-0.2c-0.1-0.2-0.3-0.4-0.4-0.6c-0.5-0.2-1.2-0.2-1.7-0.1
				c-0.4,0.1-0.8,0.2-1.1,0.4c0,0-1.5-0.1-1.8-0.1c-3.1,0-6.3,0.2-9.4-0.4C277.4,128.2,272.3,126.1,270.3,121.8z"/>
			<path id="XMLID_4579_" class="st15" d="M275.5,111.5c-0.6-2.5-1.9-4.7-4.8-4.7c-1.6,0-3.2,1.3-4,2.7c-1-2.2-2.2-4.2-3.7-6.1
				c0.8-0.2,1.5-0.7,2.1-1.5c1-1.5,0.3-3.9-0.3-5.4c-0.8-2.4-2.1-4.4-3.6-6.4c-1.6-2.1-3.1-4.1-4.9-6c-1.9-2-4-3.8-6-5.6
				c-0.4-0.3-0.9,0.2-0.6,0.6c3.2,3.6,6.5,7.2,9,11.3c1.2,1.9,2.6,3.7,3.3,5.9c0.1,0.3,1.2,4.1,0.6,4.2c-2.1,0.4-4.6-1.6-6.1-2.7
				c-1.9-1.4-3.7-3-5.5-4.5c-1.7-1.5-3.6-2.9-5.3-4.5c-1.1-1.1-1.8-2.6-3.3-3c-1-0.2-2.3,0.7-1.9,1.9c1.1,2.8,2.4,5.4,2.4,8.5
				c0,2.2-0.5,6-3.6,4c-2.6-1.7-4.2-4.6-5.9-7.2c-0.7-1.1-1.5-2.1-2.3-3.2c-0.6-0.8-1.3-1.7-2.4-1.3c-1.8,0.6-2.2,2.6-2.3,4.3
				c0,0.5-0.7,1.5-0.9,2c-0.3,0.6-0.6,1.1-0.9,1.7c-0.6,1.1-1.4,2.1-2.3,3c-0.8,0.7-1.7,1.4-2.8,1.3c-1-0.1-1.4-1.3-1.6-2.1
				c-0.4-1.2-0.4-2-0.5-3.2c0-0.9-0.2-1.8-0.9-2.4c-0.6-0.5-1.3-0.6-2-0.3c-1.1,0.6-1.6,1.6-2.3,2.5c-0.8,1-2,2-2.9,2.8
				c-1.1,1-2.3,1.8-3.6,2.4c-1,0.4-2.6,1-3.7,0.6c-1.5-0.5-1.6-2.7-1.5-4c0.1-1.8,0.3-3.4,0-5.1c-0.1-1.1-1.6-1-2.1-0.3
				c-0.7,1.1-1.2,2.5-1.4,4.1c-0.1,0.1-0.2,0.2-0.3,0.3c-1.6,2.5-3,5.2-4.2,8c-0.5-0.4-1-0.7-1.6-1c-0.9-0.3-1.8-0.5-2.7-0.6
				c0.2-0.2,0.4-0.6,0.3-1c-0.3-2-1-3.9-1.4-5.9c-0.4-2-0.4-4.2-0.1-6.2c0.6-3.5,2-6.8,4.4-9.5c4.3-4.8,10.2-7.5,16.4-8.9
				c7.7-1.7,15.9-2.2,23.7-1c3,0.5,6.1,1.2,8.8,2.6c0.6,0.3,4.8,2.6,4.1,3.3c-0.5,0.4,0.2,1.3,0.7,0.9c0.1-0.1,0.3-0.2,0.4-0.3
				c1.3-1.4-1.5-3.5-2.4-4.1c-2.3-1.7-4.9-2.9-7.7-3.7c-8.7-2.5-18.6-2.2-27.4-0.4c-7.1,1.5-14.5,4.5-19.2,10.4
				c-5.1,6.5-7.1,16.4-2.2,23.6c0.1,0.1,0.1,0.2,0.2,0.2c-1.7,0.2-3.4,0.8-4.8,1.9c-2.4,1.9-4.5,5.4-2.9,8.4c0.8,1.5,2.6,3.2,4.5,4
				c-2.8,2.9-6.6,4.8-10.4,6.2c-4.4,1.6-9.1,1.6-13.6,2.6c-1.7,0.4-1.8,2.2-1.1,3.4c0.9,1.5,3,2.4,4.5,3.1c2,0.9,4.2,1.6,6.4,2.3
				c0.2,0.1,0.3,0.1,0.5,0.1c-1.3,0.6-2.8,1.2-3.4,2.7c-0.6,1.8,0.9,3.2,2.5,3.7c0.9,0.3,1.9,0.4,2.9,0.4c0.4,0,0.8,0,1.2,0
				c0.1,0,0.1,0,0.2,0c-0.2,0.4-0.3,0.8-0.3,1.3c0.1,1.1,0.5,1.9,1.4,2.6c2.1,1.5,5,1.9,7.5,1.8c2.5-0.1,5.1-0.7,7.2-2
				c1.1-0.7,2.3-1.5,3.1-2.5c0.8-0.9,1-1.7,1.4-2.8c0.4-0.9-0.7-1.9-1.4-1.1c-0.6,0.7-1.4,1.2-2.1,1.8c-0.8,0.7-1.6,1.4-2.6,1.9
				c-1.7,1-3.7,1.5-5.7,1.6c-1.1,0-2.3,0-3.4-0.2c-0.4-0.1-2.7-0.5-2.6-1.1c0.1-1.2,2.2-2.7,0.3-3.8c-1.4-0.8-3.1-0.4-4.7-0.5
				c-0.4,0-1.2-0.1-1.7-0.3c1.8-1.1,4.3-1.3,5.9-2.7c0.7-0.7,0.5-1.9-0.3-2.4c-1.2-0.7-2.8-1-4.1-1.1c-1.1-0.1-2.3-0.6-3.3-1
				c-0.8-0.3-1.7-0.5-2.6-0.8c-0.9-0.4-1.9-0.8-2.8-1.3c-0.4-0.2-0.7-0.4-1.1-0.6c1.6-0.2,3.1-0.5,4.6-0.8c7-1.3,14.2-4,19-9.4
				c0.2-0.2,0.3-0.5,0.3-0.7c0.5,0,1-0.1,1.5-0.2c0.7-0.3,1.1-1.1,0.5-1.7c-1.3-1.3-3.4-1.6-4.7-3c-1.5-1.7-0.8-3.7,0.8-5.1
				c1.4-1.3,3.2-1.9,5.1-1.7c0.8,0.1,1.9,0.5,2.6,1.1c-1.1,3.1-1.9,6.2-2.3,9.4c-0.8,5.9-0.9,12.8,2.7,17.9c3.2,4.5,8,7.3,13,9.4
				c2.2,1,4.3,1.8,6.6,2.6c-0.4,0.4-0.9,0.7-1.3,1.1c-0.7,0.7-1.5,1.4-2.2,2.1c-1.3,1.3-2.5,2.5-3.9,3.7c-2.4,2-5.8,4.1-7.2,7
				c-1.4,2.8-1.7,6.1,0.5,8.6c1.1,1.3,2.5,2.4,3.9,3.5c1,0.7,2,1.6,3.1,2.2c0,0,0,0,0,0.1c0.3,0.8-0.3,1.7-0.1,2.6
				c0.1,0.5,0.1,1.1,0.2,1.7c0.1,0.3,0.2,0.6,0.3,0.9c-0.9,3.1-1.7,6.1-2.3,9.3c-0.6,0.1-1.2,0.6-1.2,1.3c0.1,1.2,0.9,1.8,1.9,2.1
				c-0.4,0.9-0.9,1.9-1.2,2.8c-0.2,0.5-0.5,0.7-0.3,1.3c0.1,0.4,0.2,0.8,0.5,1c1.4,1.4,3.4,1.4,5.3,1.6c1,0.7,2.3,1,3.5,1.3
				c1.2,0.3,2.5,0.5,3.7,0.8c-0.3,1.4-0.4,2.8-0.8,4.2c-0.4,1.5-0.8,3.1-1.1,4.7c-0.1,0.5-0.1,1-0.2,1.5c-0.1,0-0.1,0-0.2-0.1
				c-1-0.2-2-0.7-3-0.8c-2.7-0.4-5.4-0.5-8.2-0.6c-2.1-0.1-4.5-0.2-5.8,1.6c-3.7,5,4.4,7.4,7.9,7.8c2.8,0.4,5.2,0.4,7.7-0.8
				c1.9-0.9,4.3-1.9,4.8-4.1c0.2-0.7-0.3-1.2-0.9-1.2c0.3-0.7,0.5-1.4,0.4-2.2c0-1.1,0.2-2.2,0.3-3.3c0.2-1.4,0.7-2.8,0.5-4.1
				c-0.1-0.8-0.2-1.7-0.3-2.5c0.1,0,0.2,0,0.3,0.1c3.4,0.7,6.9,0.9,10.3,1.3c2.6,0.3,5.3,0.4,8,0.3c-0.4,2.7-0.8,5.4-1.3,8.1
				c-0.3,1.5,1.6,2.4,2.5,1c0.4-0.7,1.5-0.6,2.2-0.6c0.8,0,1.5-0.2,2.3-0.3c2.1-0.3,4.2-0.3,6.3-0.3c0.5,0,8.7-0.4,8.2,1.2
				c-0.4,1.4-2.2,2.2-3.4,2.6c-1.8,0.7-3.7,1.5-5.6,1.6c-1.9,0.1-4.3,0.2-6.1-0.6c-1.3-0.6-2.3-1.5-3.6-2c-1-0.4-1.9,0.4-1.4,1.4
				c2,4.2,9.2,4.5,13.1,3.6c2.4-0.5,5.2-1.3,7.1-2.8c1.3-1,2.9-2.6,2.5-4.5c-1-4.2-7.7-3.2-10.8-3.2c-2.7,0-5.4,0.1-8.1,0.6
				c-0.8,0.1-1.5,0.2-2.2,0.3c0.2-2.1,0.3-4.1,0.1-6.2c0.4,0,0.9,0,1.3,0c3.5-0.1,6.6-0.6,9.8-1.8c0.3,0.2,0.8,0.2,1-0.1
				c0.8-1.5-0.2-3.8-0.4-5.4c-0.1-0.7-0.2-1.5-0.5-2.2c0-0.1,0.1-0.1,0.1-0.2c0.2,0,0.3,0,0.5-0.1c0.1,0,0.2,0.1,0.4,0.1
				c1.4,0,1.6-1.9,0.5-2.3c0.5-3.7,0.3-7.3,0.1-11c-0.3-3.9-0.6-7.8-1.3-11.7c-0.7-3.9-1.6-7.9-2.9-11.7c-0.4-1.1-0.7-2.2-1.1-3.3
				c0.1,0.1,0.1,0.1,0.2,0.2c-0.4-0.8-0.7-1.7-0.7-2.6c0-0.8,0.1-1.6,0.5-2.3c0.7-2.2,3-3.8,5.3-3.8c1.6,0,3,0.7,3.9,1.7
				c3.2-1.4,6.1-3.2,8.7-5.5c4.8-4.3,7.6-10.2,7.9-16.6c0-1,0-1.9,0-2.9c1.8,0,3.5-0.5,4.8-1.8C276,117.1,276.1,114.2,275.5,111.5z
				 M211.1,214.8c-0.9,0.5-2.1,1.2-3.1,1.4c-2.3,0.5-4.7,0.1-6.9-0.5c-1.1-0.3-2.3-0.5-3.2-1.2c-0.5-0.4-1.4-1.6-0.2-1.8
				c1.9-0.5,4-0.2,5.9-0.1c2.3,0.1,4.9,0.1,7,1c0.5,0.2,1.2,0.5,1.8,0.5C212,214.3,211.6,214.5,211.1,214.8z M202.6,169.8
				c-1.3-1-2.8-2-3.8-3.3c-2.3-3,0.2-6.5,2.5-8.6c2.3-2.2,4.8-4.1,7-6.4c1.2-1.2,2.3-2.5,3.5-3.7c0.3-0.3,0.6-0.6,0.8-0.9
				c-0.3,1.3-0.9,2.6-1.4,3.8c-0.7,1.9-1.2,3.8-1.7,5.7c-1,3.7-1.9,7.5-2.8,11.2c-0.2,1-0.4,2-0.6,3c-0.5,0-1,0.3-1.1,0.8
				C204.1,170.8,203.3,170.3,202.6,169.8z M242.7,200c-1.8,0.3-3.7,0.2-5.5,0.2c-3.4,0-7,0.1-10.4-0.4c-3.6-0.5-7.2-0.8-10.7-1.5
				c-1.6-0.3-3.2-0.6-4.8-1c-0.9-0.2-1.8-0.6-2.7-0.8c-0.8-0.4-1.6-0.6-2.6-0.7c-0.4-0.1-1.4,0-1.9-0.3c0.2-0.6,0.3-1.3,0.4-1.9
				c0.1-0.5,0.1-0.9,0.1-1.4c0.4,0.2,0.8,0.4,1.2,0.6c1,0.3,1.9,0.5,2.9,0.6c4.5,0.5,9,0.8,13.5,0.9c4.9,0.2,9.7,0,14.6-0.1
				c2.2,0,4.3-0.3,6.5-0.8c0.7-0.1,1.5-0.3,2.2-0.4c0.1,0.2,0.3,0.3,0.6,0.3c0,0.3-0.1,0.6-0.1,0.9c0.1,0.8,0.1,1.6,0.2,2.3
				c0.1,0.9,0.1,2.1,0.4,3.1C245.2,199.5,243.9,199.8,242.7,200z M243.1,159.4c0.7,3.4,1.4,6.8,1.9,10.3c1,7,1.4,14.3,0.9,21.3
				c-0.3,0.1-0.5,0.2-0.6,0.4c-0.4,0-0.8,0.1-1.3,0.1c-2.1,0.3-4.1,0.5-6.1,0.5c-4.3-0.1-8.6,0-12.9-0.1c-2.1-0.1-4.3-0.1-6.4-0.4
				c-2.1-0.2-4.3,0-6.4-0.4c-1.9-0.4-3.9-0.4-5.8-1.1c-0.8-0.3-1.4-0.8-2.3-0.9c0,0,0,0,0,0c0.7-1.1,0.9-2.1,1.3-3.5l1.2-4.3
				c1.2,0.1,1.9-1.8,0.7-2.6c0.1-0.3,0.2-0.7,0.2-1c0.5,0.3,1,0.5,1.6,0.2c0.2-0.1,0.3-0.5,0.1-0.7c-0.4-0.3-0.8-0.7-1-1.2
				c-0.1-0.2-0.2-0.3-0.3-0.5c0-0.1,0-0.3,0.1-0.4c0.1,0.1,0.2,0.2,0.3,0.3c1,1.5,3.4,0.1,2.4-1.4c-0.4-0.5-0.8-1-1.3-1.4
				c-0.3-0.2-0.6-0.4-0.9-0.6c0.2-1.5,0.4-3,0.8-4.5c0.9-4,1.7-8,2.6-11.9c0.4-1.9,0.9-3.9,1.3-5.8c0.2-1,0.5-2.1,0.6-3.1
				c1.8,0.5,3.6,1,5.5,1.4c0.3,1.8,2.1,3.4,3.3,4.7c1.7,1.8,4.4,4.2,7.1,4.1c2.5-0.1,5.6-1,6.8-3.4c0.5-1,1-2.7,0.7-4
				c1.1-0.1,2.3-0.2,3.4-0.3c0.1,0.2,0.2,0.3,0.3,0.5c0,0.1,0,0.2,0.1,0.2c0,0,0,0.1,0,0.1c0.1,0.5,0.2,1,0.3,1.4
				c0.2,1,0.4,1.9,0.6,2.9C242.3,156,242.8,157.7,243.1,159.4z M223.1,148.9c0.3,0,0.6,0.1,1,0.1c3.6,0.5,7.4,0.7,11.1,0.6
				c0,0,0.1,0.1,0.1,0.1c0.4,0.4-0.2,1.7-0.4,2c-0.4,0.8-0.8,1.3-1.6,1.7c-1.7,0.8-3.7,1-5.4-0.1c-1.4-0.9-2.6-2-3.7-3.3
				C223.9,149.8,223.5,149.4,223.1,148.9z M265,129.5c-2.5,6.7-8.4,11.3-14.9,13.7c-14.4,5.4-30.7,3.2-44.4-3.1
				c-3.3-1.5-6.7-3.2-9.3-5.7c-2.9-2.9-4.4-6.5-4.6-10.5c-0.3-4.5,0.2-9.1,1.5-13.4c1-3.5,2.4-6.8,3.6-10.2c0.5,1.7,1.5,3.1,3.1,3.8
				c3,1.3,6.6-0.2,9.2-1.9c1.5-1,2.9-2.4,4.2-3.7c0.2-0.2,0.4-0.4,0.6-0.6c0,0.1,0,0.2,0.1,0.3c0.3,1.4,0.8,2.7,1.5,4
				c1.4,2.3,4.5,2.4,6.7,1.3c2.6-1.3,4.6-4.1,5.8-6.7c0.5-1.1,1.2-2.3,1.4-3.5c0.4,0.6,0.8,1.2,1.2,1.8c1,1.6,2,3.1,3.1,4.6
				c2.1,2.6,5.3,5.4,8.9,4.1c2.8-1,3.4-4.6,3.3-7.2c0-1.4-0.2-2.7-0.5-4c0.3,0.2,0.5,0.4,0.8,0.7c2.1,1.9,4.3,3.7,6.6,5.6
				c1.6,1.3,4.8,3.9,7.7,4.7c1.2,1.4,2.3,2.8,3,4.5c1.1,2.4,1.9,4.9,2.4,7.5C266.7,120,266.6,125.1,265,129.5z M273.6,113.8
				c0,1.9-0.4,3.6-2.3,4.4c-0.7,0.3-1.5,0.5-2.3,0.7c-0.3-2.5-0.8-5-1.6-7.4c0.2-0.5,0.1-1-0.2-1.4c1-1.3,3.1-2.2,4.6-1.4
				C273.4,109.8,273.7,112.1,273.6,113.8z"/>
		</g>
	</g>
	<path id="XMLID_415_" class="st16" d="M240.8,154.5c9.5,7.7,21.4,12.2,33.6,12.6c3.5,0.1,7-0.1,10.4-0.6c0.7-0.1,1.2-1.1,1-1.7
		c-0.2-0.8-1-1.1-1.7-1c-11.3,1.7-23.2-0.4-33.2-5.9c-2.8-1.5-5.6-3.3-8.1-5.4c-0.6-0.5-1.4-0.6-2,0
		C240.3,153,240.3,154,240.8,154.5L240.8,154.5z"/>
	<path id="XMLID_414_" class="st16" d="M284.5,165.5c1.9,2.6,4.8,4.1,8,4.1c1.8,0,1.8-2.8,0-2.8c-2.1,0-4.3-0.9-5.5-2.7
		c-0.4-0.6-1.2-0.9-1.9-0.5C284.4,163.9,284.1,164.9,284.5,165.5L284.5,165.5z"/>
	<path id="XMLID_413_" class="st16" d="M288,167.3c1.5,0,3,0,4.5,0c1.8,0,1.8-2.8,0-2.8c-1.5,0-3,0-4.5,0
		C286.2,164.5,286.2,167.3,288,167.3L288,167.3z"/>
	<path id="XMLID_412_" class="st16" d="M287.5,162.6c1.4-0.9,3-1.2,4.6-0.9c1.8,0.4,2.5-2.4,0.7-2.7c-2.3-0.5-4.7-0.1-6.7,1.2
		C284.6,161.1,286,163.6,287.5,162.6L287.5,162.6z"/>
</g>
<g id="XMLID_7280_">
	<path id="XMLID_7282_" class="st17" d="M48.6,156.3c0-0.1-0.1-0.1-0.1-0.2c0,0,0-0.1,0-0.1c0-1.4-1.3-2.1-2.5-2.5
		c-0.4-0.1-0.7-0.1-1,0.1c-0.2-0.2-0.4-0.3-0.6-0.5c-0.7-0.5-1.5,0-1.8,0.7c-0.7,0-1.3,0.8-1,1.6c-0.7,0-1.4,0.7-0.9,1.4
		c0.2,0.3,0.4,0.6,0.6,1c0,0.1,0.2,0.6,0.3,0.6c0,0.1,0.1,0.2,0.2,0.3c0,0,0,0,0.1,0.1c0.3,0.2,0.7,0.3,0.9,0
		c0.1-0.1,0.2-0.2,0.2-0.3c0.3,0.2,0.7,0.4,1,0.6c0.7,0.5,1.6-0.2,1.6-0.9c0.3,0,0.5-0.1,0.8-0.3c0.1,0.1,0.2,0.2,0.3,0.3
		C48.1,159.2,49.7,157.7,48.6,156.3z"/>
	<path id="XMLID_7279_" class="st18" d="M101.5,133c0,0-11.1,7.3-33.6-0.4l-7.7,44.3c0,0,10,6.4,28.2,6.2
		c18.2-0.2,25.1-8.2,25.1-8.2L101.5,133z"/>
	<path id="XMLID_7278_" class="st19" d="M119.4,100l-1.9-4.7c0,0,7.6-11.8,15.5-7.9c0,0,13.4,1,11.2,15.1c-1.1,7.3-6.7,5.4-7.7,6
		c-0.9,0.6-4.3-1-4.3-1l-1.6-2.6l-1-2.5l-0.6-2l-1.1,0.5L119.4,100z"/>
	<path id="XMLID_7277_" class="st11" d="M117.6,96.8c0,0-31.3,16.3-69.3,7.5c-0.2,0.4-0.2,32.8,38.7,33.1
		C126,137.7,119.6,97.6,117.6,96.8z"/>
	<path id="XMLID_7276_" class="st20" d="M119.8,103.9L114,90.9c0,0,3.9-6.1,5.8-2.5c1.9,3.6-1.9,5.4-1.9,5.4s6.5-0.5,3.5,3.3
		c-0.6,0.8,5.7-1.5,6,0.6c0.3,2.1,1.2,4.3-1.7,4.6C122.9,102.7,119.8,103.9,119.8,103.9z"/>
	<path id="XMLID_7275_" class="st19" d="M118.5,98.2c0,0-12.2-24.6-38.9-19.1c-24.8,5.2-25.7,12.4-27.7,16.7c-2,4.2-2.2,9.6-2.2,9.6
		S76.3,113.4,118.5,98.2z"/>
	<path id="XMLID_7274_" class="st19" d="M47.8,100.7l-3.3,9.6c0,0,1.8,10.6,1.8,13.3c0,2.7-7.5,8.5-11.4,3.8
		c-3.9-4.7-9.7-11.8-7.4-23.2C29.8,92.7,42.8,93.5,47.8,100.7z"/>
	<polygon id="XMLID_7273_" class="st20" points="51,95.6 44.9,95 44.1,97.4 45.9,99.8 46,100.4 45.1,102.3 45.9,103.9 44.4,105 
		43.3,106.8 43.1,108.9 45.2,109.5 47.6,109.8 49.3,109.7 49.5,101.5 	"/>
	<g id="XMLID_1307_">
		<path id="XMLID_7272_" class="st17" d="M78.3,194.8c-0.2-1.4-1.9-1.7-3-1.4c-0.3,0.1-0.5,0.2-0.7,0.4c-0.5-0.1-1.1-0.2-1.6-0.3
			c-0.8-0.1-1.2,0.7-0.8,1.2c-0.2,0.1-0.3,0.2-0.4,0.5c-0.1,0.3,0,0.6,0.3,0.8c0,0.4,0.3,0.7,0.6,0.9c1,0.6,2.9,0.6,3.2-0.9
			c0.2,0.1,0.4,0.2,0.6,0.2c0,0,0,0,0,0c0.4,0.1,0.7,0,1-0.2C78.1,196,78.4,195.3,78.3,194.8z"/>
		<path id="XMLID_7271_" class="st17" d="M105.5,193.7c-0.1,0.1-0.2,0.2-0.3,0.4c0,0,0,0,0,0c-0.5,0-0.9,0.4-1.1,0.8
			c-0.5,0-1,0.1-1.4,0.5c-0.3,0.3-0.2,0.8,0.1,1c0.6,0.4,1.4,0.4,2,0.7c0.6,0.4,1.4-0.1,1.6-0.7c0.1,0,0.3,0,0.4,0
			c0.5,0,0.9-0.3,1.1-0.8c0,0,0,0,0,0c0.6,0.2,1.5-0.3,1.4-1.1C109.1,192.7,106.7,192.5,105.5,193.7z"/>
		<path id="XMLID_7270_" class="st17" d="M133.2,135.1c0-0.1-0.1-0.1-0.1-0.2c0,0,0-0.1,0-0.1c0-1.4-1.3-2.1-2.5-2.5
			c-0.4-0.1-0.7-0.1-1,0.1c-0.2-0.2-0.4-0.3-0.6-0.5c-0.7-0.5-1.5,0-1.8,0.7c-0.7,0-1.3,0.8-1,1.6c-0.7,0-1.4,0.7-0.9,1.4
			c0.2,0.3,0.4,0.6,0.6,1c0,0.1,0.2,0.6,0.3,0.6c0,0.1,0.1,0.2,0.2,0.3c0,0,0,0,0.1,0.1c0.3,0.2,0.7,0.3,0.9,0
			c0.1-0.1,0.2-0.2,0.2-0.3c0.3,0.2,0.7,0.4,1,0.6c0.7,0.5,1.6-0.2,1.6-0.9c0.3,0,0.5-0.1,0.8-0.3c0.1,0.1,0.2,0.2,0.3,0.3
			C132.7,138,134.3,136.4,133.2,135.1z"/>
		<g id="XMLID_1308_">
			<path id="XMLID_1310_" class="st21" d="M64.8,146.8C64.8,146.8,64.8,146.8,64.8,146.8c-1.2,6.1-2.1,12.4-3.1,18.5
				c-0.4,2.5-0.7,5-1.1,7.5c-0.2,1.6-1,4-0.1,5.6c0.8,1.4,2.6,1.8,4,2.3c2.2,0.8,4.4,1.5,6.6,2.1c2.4,0.6,4.9,1.1,7.4,1.4
				c-0.4,3.4-0.9,6.9-1.2,10.4c-2.1-1.1-5.7-1.7-6.4,0.6c-1.1,3.5,5.7,2.4,7.2,1.9c0.3-0.1,0.5-0.5,0.4-0.8c0.3-0.1,0.6-0.4,0.6-0.8
				c0.4-3.7,0.6-7.4,0.8-11c6.3,0.6,12.6,0.3,18.8-0.9c0.7,4.1,1.5,8.2,2.2,12.4c0.1,0.6,0.6,0.7,1,0.6c1.4,1.2,3.1,1.7,5,1.5
				c1.5-0.2,3.4-0.8,3.6-2.5c0.2-1.6-1.2-3-2.7-3.1c-1.8-0.1-3.8,1-5.2,2.1c-0.6-3.8-1.4-7.6-2.5-11.2c3.8-0.8,7.8-2,11-4.3
				c1.1-0.7,2.4-1.6,2.8-2.9c0.5-1.8-0.6-4-1-5.7c-2.5-9.3-5.1-18.6-7.7-28c1,0.6,2.3,1,3.2,1.3c2.5,0.8,5.3,1.2,8,0.8
				c3.6-0.5,9.3-2.6,10.3-6.7c1.4,1.2,3.3,1.9,5.1,1.1c2.1-0.9,3.2-3.4,2-5.5c-1.2-2-3.9-2.9-6.1-2.2c-2.3,0.7-3.5,3.2-2.4,5.4
				c0,0.1,0.1,0.1,0.1,0.2c-1.2,1.2-1.9,2.6-3.3,3.6c-1.5,1.1-3.3,1.7-5.1,2.1c-2,0.4-4.1,0.3-6.1,0c-0.9-0.2-6.1-1.1-6.1-2.2
				c0-0.2-0.1-0.3-0.3-0.3c-0.4-1.5-0.8-3-1.2-4.5c0,0,0,0,0-0.1c7.4-3.4,13.6-9.7,16.2-17.6c1.5-4.4,1.7-9.2,1-13.7
				c2,0.3,5.3-0.7,7.1-2.3c0.5,1.1,0.5,2.6,1,3.7c0.5,1.1,1.3,2,2.3,2.8c1.9,1.5,4.5,2.1,6.9,1.6c5.7-1.2,8.6-7.1,7.5-12.6
				c-2-10.2-16.6-15.3-23.9-8.3c-0.1-0.6-0.4-1.2-0.9-1.7c-2-2.4-5.2-0.2-6.6,2.1c-2.1-2.5-4.5-4.8-7.3-6.5C94,75,75.8,76,63,82.5
				c-5.8,3-9.8,7.7-12,13.1c-0.6-0.2-1.2-0.3-1.8-0.4c-0.9-0.2-2-0.6-3-0.5c-1.3,0.1-2.1,1-2.4,2.3c0,0.1,0,0.1,0,0.2
				c-0.4-0.3-0.7-0.6-0.8-0.6c-1.4-0.8-2.9-1.4-4.5-1.5c-3.1-0.3-6.4,0.8-8.6,3c-5.4,5.1-4.7,14.8-2.1,21.1c2.4,5.6,8,12.2,14.8,9.8
				c8.2-2.8,3.7-12.7,1.7-18.4c0.4,0.3,0.9,0.5,1.5,0.6c1,0.2,2.5,0.2,3.6-0.2c0.3,1.9,0.8,3.9,1.6,5.8c3.1,8.1,9.5,14.1,17.1,17.7
				c-0.1,0.1-0.1,0.1-0.2,0.2c-1.1,3.5-2,7.1-2.8,10.7c-0.1,0-0.2,0.1-0.3,0.1 M42.8,108.3c0.1,0.4,0.2,0.7,0.4,1
				c-0.5,0-1.1,0.5-0.8,1.1c1.6,4.8,7.1,16.4-1.9,17.1c-6.3,0.5-10.5-6.8-11.9-12c-1.6-5.7-1.4-13.9,4.2-17.5c2.7-1.7,6-1.8,8.9-0.5
				c1.3,0.6,2.2,1.5,3.2,2.4c0.1,0.1,0.2,0.2,0.4,0.3c0.3,0.3,0.6,0.5,0.9,0.6c-0.7,0.5-1.2,1.3-1.2,2.2c0,0.3,0.1,0.6,0.3,0.9
				C43.5,104.7,42.4,106.2,42.8,108.3z M47,109.7c-1,0-2.2-0.3-2.5-1.5c-0.3-1.1,0.4-2.4,1.4-3c0.1-0.1,0.3-0.2,0.4-0.2
				c0.1,0.1,0.2,0.1,0.4,0.1c0.8,0.2,1.6,0.1,2.3-0.3c-0.1,1.4,0,2.9,0.1,4.4C48.4,109.4,47.7,109.6,47,109.7z M49.1,103.6
				c-0.8-0.2-1.7-0.2-2.5,0c-0.2-0.2-0.2-0.4-0.2-0.7c0.2-1.4,1.9-1,3-1.2C49.2,102.3,49.1,103,49.1,103.6z M49.5,100.5
				c-0.4-0.2-1-0.2-1.5-0.2c-0.6-0.2-1.2-0.4-1.7-0.8c-0.2-0.3-0.5-0.6-0.9-0.9c-0.2-0.4-0.2-0.8-0.2-1.3c0.3-1.9,3.2-0.8,5.2-0.3
				C50.1,98.1,49.8,99.3,49.5,100.5z M72.6,195.4c0-0.4,1.5-0.3,1.7-0.2c0.4,0.1,0.8,0.2,1.2,0.3c0.3,0.1,0.6,0.2,1,0.4
				C74.8,196,72.6,196,72.6,195.4z M108.8,194.8c0.1,0.7-1.2,1.2-1.7,1.4c-0.6,0.1-1.1,0.2-1.7,0.2c-0.8,0-1.8-0.2-2.6-0.5
				C104.3,195.4,108.5,192.5,108.8,194.8z M132.2,134.5c0.6,1.3-0.5,2.6-1.8,2.9c-1.3,0.3-2.5-0.5-3.5-1.3c0-0.2,0-0.3-0.1-0.5
				C125.3,132.5,131,131.9,132.2,134.5z M119.6,88.5c1.1,2.2-1.3,3.9-2.7,5.2c-0.6-1.1-1.3-2.2-2.1-3.3
				C116.1,88.8,118.4,85.9,119.6,88.5z M59.7,87.2c5.5-4.4,12.8-6.3,19.7-7.2c6.8-0.9,14-0.6,20.5,1.8c7.7,2.8,13.6,8.7,16.6,15.9
				c-10.5,3.7-20.9,6.8-32,8.1c-5.3,0.6-10.7,0.8-16.1,0.7c-5.1-0.1-10.2-1.1-15.2-1.2c-0.3-0.1-0.6-0.3-0.9-0.4
				c-0.4-0.2-0.8-0.3-1.2-0.3C51.4,97.9,54.2,91.5,59.7,87.2z M108.3,162c0.6,2.2,1.2,4.3,1.8,6.5c0.5,1.8,2.3,5.5,1.3,7.3
				c-0.8,1.4-4.1,2.8-5.5,3.3c-1.8,0.7-3.6,1.2-5.5,1.7c-8.3,2-17,2.2-25.3,0.6c-2-0.4-4-0.9-5.9-1.4c-1.7-0.5-4.8-1-6.1-2.2
				c-1.4-1.3-0.1-5.5,0.1-7.2c0.3-2.2,0.6-4.4,1-6.5c1.5-9.7,3.8-19.3,4.9-29c6.3,2.7,13.3,3.8,20,3c4.2,0.2,8.3-0.5,12.2-2
				C103.6,144.7,105.9,153.3,108.3,162z M118.4,111.9c-1.7,14.6-16,25.1-30.4,24c-0.6,0-0.9,0.3-1,0.8c-12.3-0.6-25.1-5-31.9-15.8
				c-2.7-4.4-4.2-9.6-4.2-14.8c0.1,0,0.2,0.1,0.3,0.1c0.1,0.2,0.2,0.3,0.4,0.4c5,1.7,11,1.7,16.2,1.8c5.8,0.2,11.6-0.1,17.4-0.8
				c10.8-1.3,21.8-3.7,31.8-8.2C118.4,103.3,118.9,107.6,118.4,111.9z M118.9,97.7C118.9,97.7,118.9,97.7,118.9,97.7
				c-0.1,0-0.1,0-0.2,0c-0.4-1-0.8-2-1.3-2.9c0,0,0,0,0.1,0c0.2-0.1,0.3-0.2,0.5-0.3c1.2-0.4,2.8-0.7,3,0.8c0.1,0.7-0.5,1.3-1,1.8
				c-0.2,0.2-0.5,0.5-0.8,0.6C119.1,97.7,119,97.7,118.9,97.7z M126,100.3c-0.9,0.7-2.1,1.2-3.2,1.5c-0.9,0.2-1.9,0.2-2.8,0.4
				c-0.2-1-0.5-1.9-0.8-2.9c0.4-0.1,0.7-0.2,1-0.4c0.1-0.1,0.2-0.1,0.3-0.2c0.9-0.4,1.8-0.8,2.7-1c0.7-0.1,1.6-0.2,2.3,0
				c0.7,0.1,1,0.5,0.9,1.2C126.9,99.6,126.7,100.1,126,100.3z M136,107.8c-2.4,0-4.7-1.4-5.8-3.6c-0.7-1.5-0.4-3-1.5-4.3l0,0
				c0.1-0.4,0.2-0.8,0.1-1.3c-0.2-1.7-2-2.4-3.5-2.5c-1-0.1-2,0.1-2.9,0.4c0.1-0.3,0.2-0.6,0.2-0.9c0.1-1.3-0.8-2.4-2-2.7
				c-0.2-0.1-0.5-0.1-0.7-0.1c0.4-0.4,0.7-0.9,0.9-1.3c6.2-7.4,19.5-4.5,22.3,4.9C144.6,101.4,141.8,107.8,136,107.8z M64.8,145.4
				c-2.1,3.3-4.2,6.8-7.6,8.9c-3,1.9-5.8,1.9-9,1.4c0.6-1.7-0.6-3.6-2.3-4c-2.2-0.6-4.5,0.8-5.2,3c-0.7,2.2,0.7,4.6,2.9,5.1
				c1.8,0.4,3.6-0.8,4.2-2.5c3,1.6,7.2,0.6,9.9-1c3.7-2.2,6.3-5.9,7.9-9.8 M47.1,155.4c-0.4,0-0.8,0.2-0.8,0.7
				c-0.1,1.2-1.2,2.3-2.5,1.9c-1.3-0.4-2-1.9-1.6-3.1C43.1,152.3,47.6,152.6,47.1,155.4z"/>
			<path id="XMLID_1311_" class="st21" d="M102.7,121c-4.6,4.4-9.9,7.4-16.4,7.6c-6.7,0.2-12.6-2.6-17.6-6.9
				c-0.8-0.7-1.8,0.3-1.1,1.1c9,10.8,27.7,10.4,36.6-0.4C105.1,121.4,103.7,120,102.7,121z"/>
			<path id="XMLID_1312_" class="st21" d="M79.4,113.3c-0.2-0.1-0.4-0.2-0.7,0c-1.2,0.6-1.7,2.3-0.7,3.3c1,1,3,0.8,3.4-0.7
				C81.8,114.6,80.7,113.1,79.4,113.3z"/>
			<path id="XMLID_1313_" class="st21" d="M92.9,115c-0.5-1-2-1.5-2.8-0.6c-0.8,0.3-1.1,1.3-1,2.1c0.2,1.1,1.4,1.7,2.5,1.3
				C92.8,117.4,93.4,116.1,92.9,115z"/>
		</g>
	</g>
	<path id="XMLID_7281_" class="st13" d="M105.1,114.5c0.6-1.7,1.9-2.7,3.4-3.7c0.8-0.5,1.7-1,2.6-1.1c1.5-0.6,3.5,0.6,4.5,1.8
		c0.7,0.9,0.8,1.9,0.6,2.8c1.1,3.5-3.9,7.5-7.5,6.7c-1.6-0.4-2.8-1.7-3.4-3.2c0,0,0,0,0,0c0-0.1-0.1-0.2-0.1-0.3
		c0-0.1-0.1-0.3-0.1-0.4c0,0,0-0.1,0-0.1c0-0.1,0-0.1,0-0.2C104.9,116,104.9,115.2,105.1,114.5z"/>
	<path id="XMLID_7283_" class="st13" d="M66.7,116c-0.9-1.6-2.4-2.3-4-2.9c-0.9-0.3-1.8-0.7-2.8-0.6c-1.6-0.3-3.3,1.2-4,2.7
		c-0.5,1-0.4,2,0,2.9c-0.4,3.6,5.3,6.6,8.6,5.1c1.5-0.7,2.4-2.2,2.7-3.8c0,0,0,0,0,0c0-0.1,0-0.2,0.1-0.4c0-0.1,0-0.3,0-0.4
		c0,0,0-0.1,0-0.1c0-0.1,0-0.1,0-0.2C67.3,117.5,67.1,116.7,66.7,116z"/>
</g>
</svg>
