<?xml version="1.0" encoding="utf-8"?>
<!-- Generator: Adobe Illustrator 19.0.0, SVG Export Plug-In . SVG Version: 6.00 Build 0)  -->
<svg version="1.1" id="Capa_1" xmlns="http://www.w3.org/2000/svg" xmlns:xlink="http://www.w3.org/1999/xlink" x="0px" y="0px"
	 viewBox="-44 -92.7 479 453" style="enable-background:new -44 -92.7 479 453;" xml:space="preserve">
<style type="text/css">
	.st0{fill:#F6F6F6;}
	.st1{fill:#F9EF6B;}
	.st2{fill:#FFE5C9;}
	.st3{fill:#95C13D;}
	.st4{fill:#1D1D1B;}
	.st5{fill:#A4D8ED;}
	.st6{fill:#432328;}
	.st7{fill:#2E191C;}
	.st8{fill:#CF5E29;}
	.st9{fill:#F1912F;}
	.st10{fill:#FFFFFF;}
</style>
<g id="nino3">
	<path id="XMLID_56_" class="st0" d="M294.5,157c-0.7-0.9-1.5-1.3-2.8-1.5c-0.9,0-1.9,0-2.6-0.2c-1.7-0.4-3,0.9-3,2.4
		c-0.4,0.4-0.6,0.9-0.6,1.5c-1.5,0.2-2.2,2.2-1.1,3.5c0.6,0.7,1.5,1.1,2.2,0.9c1.1,0.4,2.2,0.7,3.3,1.3c0.9,0.4,2,0.4,3-0.4
		c0.7-0.7,0.9-2,0.4-3c-0.4-0.4-0.6-0.9-0.9-1.3l0,0c0.7-0.2,1.5-0.6,2-1.3C295,158.6,295,157.5,294.5,157"/>
	<path id="XMLID_55_" class="st0" d="M180.1,298.1c-0.2-0.9-1.1-1.1-2-0.7c-0.9-0.4-2-0.7-3-1.3c-0.7-0.4-1.5,0-1.9,0.6
		c-0.4-0.2-0.7-0.2-1.1-0.4c-1.3-0.4-2.4,1.7-0.9,2.4c0.7,0.4,1.3,0.6,1.9,0.9c0.2,0.2,0.4,0.4,0.7,0.4c0.6,0.6,1.1,1.1,1.9,1.3
		c0.9,0.4,1.7,0.2,2.2-0.4c0,0,0,0,0.2,0c1.1,0.4,2.2-0.6,2.2-1.7C180.1,298.8,180.1,298.6,180.1,298.1"/>
	<path id="XMLID_54_" class="st0" d="M246.2,295.5c-1.3-0.7-2.8-0.6-4.3-0.7c-1.3,0-1.9,1.1-1.9,2.2l0,0c-0.9,0-1.7,0.9-1.7,1.7
		c-0.4,0-0.6,0-0.9,0c-0.7,0-1.5,1.1-0.7,1.7c1.5,1.1,3,1.7,4.8,1.9c1.1,0.2,2-0.7,2-1.7c0.7-0.2,1.3-0.9,1.3-1.7
		c0.4,0,0.6,0,0.9-0.2C247.1,298.3,247.7,296.2,246.2,295.5"/>
	<polygon id="XMLID_53_" class="st1" points="164.1,230.5 172.3,178.7 240.8,176.6 252.7,233.8 	"/>
	<path id="XMLID_52_" class="st2" d="M129.6,127.3c0,0-3.5-56.5,52.7-64.8c46.1-6.7,91.5,22.5,88.2,58.5s-0.9,46.2-62.9,63.7
		c0,0-26-0.9-36-4.5C161.7,176.6,134.9,162.7,129.6,127.3"/>
	<polygon id="XMLID_51_" class="st3" points="218.7,257.8 217.8,232.4 249.9,233.8 245.6,260.6 	"/>
	<polygon id="XMLID_50_" class="st3" points="200.5,258.2 201.1,234.6 173.6,230.9 174.1,256.5 	"/>
	<path id="XMLID_99_" class="st4" d="M166,198.7c-1.5,10.4-2.8,21-4.1,31.4c-0.2,1.1,0.9,1.9,1.9,1.9c3,0.2,5.9,0.2,8.9,0.2
		c-1.1,8.2-1.1,16.5-1.7,24.7c0,0.9,0.9,1.9,1.9,1.9c4.1,0,8-0.2,12.1-0.2c-2.2,12.4-2.8,25.4-3,38.3c-1.7-1.7-3.5-3.3-5.9-3.9
		c-2.4-0.4-5.2,0.4-6.3,2.8c-0.9,2.4,0.4,5,2.4,6.5c3,2,7.1,0.9,10-0.4c0.2-0.2,0.4-0.2,0.4-0.4c0.4,0,0.7-0.2,1.1-0.4
		c0.9,0,1.7-0.6,1.7-1.9c0-13.6,2-27.1,1.9-40.7c0.2,0,0.6,0,0.7,0l8.2-0.2c1.5,0,3.9,0.4,5.2-0.6c2.4-1.7,1.7-5.9,1.9-8.4
		c0.4-5.6,0.7-11,1.1-16.5c3.5,0,7.2,0,10.8,0c-0.6,3.9,0,8.2,0,12.1c0.2,3.2-0.9,9.7,1.3,12.1c2.2,2.4,8.4,1.5,11.3,1.7
		c0.7,0,1.3,0,2,0.2c0.2,12.8,1.7,25.6,2.2,38.4c0,0.9,0.7,1.7,1.5,1.7c0,0.4,0,0.7,0.4,0.9c3,1.5,6.3,3.2,9.7,2.2
		c2.8-0.7,5-2.8,5-5.8c0-2.6-1.7-4.8-4.5-5c-3.9-0.2-5.8,3.2-8.5,5c-0.6-12.4-0.9-25.3-3.2-37.5c4.3,0.2,8.4,0.6,12.6,0.7
		c1.1,0,1.9-0.9,1.9-1.9c0.4-8.2,1.5-16.9,1.1-25.1c1.3,0,2.6,0,4.1,0c1.3,0,2.2-1.3,1.9-2.4c-3.2-12.1-6.3-24.3-9.5-36.4
		c8.7,0,19.1-4.3,25.8-8.9c7.2-4.8,13.2-11.7,15.8-20.1c2.4,0.7,5.2,0.6,7.2-1.1c2.6-2,3.2-6.1,1.5-9.1c-2-3.2-6.3-3.5-9.3-1.5
		c-3.3,2.2-3.7,6.5-2.4,10c0,0,0,0,0,0.2c-3.2,8.4-8.5,14.9-16.3,19.5c-4.3,2.6-8.9,4.3-13.7,5.8c-3,0.9-6.3,1.3-9.3,2.2
		c-1.1-4.5-2.4-8.9-3.5-13.4c0-0.2-0.2-0.4-0.2-0.6c16.5-7.2,29.5-20.2,31.8-39.9c1.7-14.1-0.6-30.3-6.9-43.1
		c-6.1-12.3-17.1-21.2-29.7-26.2c-15-5.9-32.3-6.9-48.3-5.4c-13.2,1.7-26.2,5.8-36.6,14.7c-20.2,17.5-25.6,46.4-14.7,70.6
		c6.5,14.3,18.9,26,33.6,32.5c-0.9,5.4-1.9,10.8-2.6,16.3 M167.4,192.1c-8,15.4-22.1,23.2-39.2,21.9c-0.6-2-2-3.7-4.1-4.5
		c-3.2-1.1-6.3,0.6-7.6,3.7c-1.1,3.2,0,7.1,3.3,8.2s7.6-0.7,8.5-4.3l0,0c16.9,2.6,34.5-7.4,40.7-23.2 M126,214.5
		c-0.2,0.4-0.2,1.1,0,1.5c0,0,0,0,0,0.2c-0.7,1.9-3,3.2-5,2.4c-1.9-0.7-2.2-3.2-1.5-4.8C121,210.3,124.9,211.7,126,214.5
		 M174.9,300.7c-1.5-0.6-3.3-3.2-1.3-4.3c2.8-1.3,5.4,1.9,7.4,3.9C179.1,300.7,176.9,301.4,174.9,300.7 M240,297.3
		c1.3-1.3,5.2-4.5,5.9-0.9c0.6,2.6-2.2,3.9-4.3,3.9c-1.5,0-3-0.4-4.3-0.9C238.4,298.8,239.1,298.1,240,297.3 M143.9,155.7
		c-14.3-21-14.5-49.2,2-69.1c17.6-21.4,49.2-23.8,74.8-18.8c12.8,2.4,25.4,8,34.4,17.8c9.5,10.4,12.8,24.7,13.7,38.4
		c0.9,15.8-3,30.1-14.9,41c-11.9,10.8-27.9,14.9-43.5,15.8c-0.7,0-1.1,0.4-1.3,0.7c-11.7,1.1-23.2,0.9-34.5-3
		C162.2,174.4,151.3,166.4,143.9,155.7 M199.9,244.8c-0.2,2,0,4.6-0.4,6.7c-0.6,2.4-0.4,2.8-3.2,3.3c-3.5,0.6-7.2,0.2-10.8,0.2
		l-10.6,0.2c0.4-7.6,0.9-15.2,0.6-22.8c8.4,0.2,16.9,0.4,25.4,0.6C200.5,237,200.3,240.9,199.9,244.8 M243.6,256.1
		c-3.7-0.2-7.2-0.4-11-0.6c-3.5-0.2-9.7,0.7-12.1-1.7c-2.4-2.4-1.5-8.7-1.7-12.1c-0.2-2.8-0.2-5.8-0.6-8.4c8.9,0,17.6,0,26.6-0.2
		C243.8,240.7,243.8,248.5,243.6,256.1 M249.9,229.2c-28,0.4-55.9,0.2-83.9-0.7c2-15.8,4.1-31.4,5.2-47.4c12.3,5,25.8,6.5,38.6,3
		c0.2,0,0.4,0.2,0.7,0.2c8.9-0.6,18-2.2,26.4-5.6c0,0,0,0,0,0.2C241.2,195.6,245.6,212.3,249.9,229.2 M291.3,162
		c-1.5,1.1-3.3,1.1-4.8,0.6c-0.7-2.2-0.6-5,1.5-6.5c1.7-1.1,3.9-0.7,4.6,1.1C293.2,159,292.8,160.9,291.3,162"/>
	<path id="XMLID_39_" class="st4" d="M249.7,152.9c-5.9,3.3-11.1,6.7-17.8,8.9c-6.9,2.2-14.5,3.7-21.9,3.7
		c-7.1,0.2-14.1-0.7-20.8-2.6c-6.5-1.7-11.9-4.6-17.6-7.2c0,0,0,0-0.2-0.2c-0.7-0.4-1.5-0.7-2.2-0.9c-1.3-0.6-2.2,0.6-1.5,1.5
		c9.7,8.7,27.9,12.6,42.3,12.3c14.5-0.2,32.3-4.6,41.8-13.6C252.7,153.8,251.2,152,249.7,152.9"/>
	<path id="XMLID_38_" class="st4" d="M188.8,130.2c-1.5-2.8-6.1-3.5-7.6-0.4c-0.2,0.2-0.2,0.4-0.2,0.6c-0.4,0.4-0.6,0.9-0.7,1.5
		c-0.6,1.9,0.7,3.7,2.4,4.6C186,138.2,190.7,134.1,188.8,130.2"/>
	<path id="XMLID_37_" class="st4" d="M217,128.6c-1.1-3-5-3.5-7.1-1.1c-0.2,0.2-0.4,0.6-0.6,0.7c-0.9,1.1-1.3,2.4-0.7,3.7
		c0.6,1.7,2.2,2.2,3.9,2.4C215.7,134.5,218.1,131.5,217,128.6"/>
	<path id="XMLID_36_" d="M127,210.4c0.6-5.6,0.4-14.5-6.1-16.7c-3.5-1.1-7.1,0.7-9.1,3.5c-2.2,3-3.3,6.9-3.9,10.6
		c-0.6,4.1-0.6,8.2-0.6,12.4c0,3.9,0,8,1.3,11.5c2,5.8,8.4,10.4,14.5,7.6c6.7-3,8.5-12.3,6.7-18.8c-0.9-3.2-5.8-1.9-4.8,1.3
		c1.1,3.9,0.6,9.5-2.8,12.1c-3.2,2.6-7.1-0.4-8.4-3.5c-1.1-2.6-1.1-5.6-1.1-8.4c0-3.2-0.2-6.3,0-9.5c0.2-3,0.6-6.1,1.5-8.9
		c0.7-2,1.9-5,4.3-5.6c2.2-0.6,3.2,2.2,3.5,3.9c0.6,2.6,0.6,5.4,0.2,8c-0.2,1.3,1.3,2.6,2.6,2.6C125.8,213,126.8,211.9,127,210.4"/>
	<path id="XMLID_35_" class="st5" d="M108.2,112c-4.8-21.4-7.2-43.3-7.4-65.2c0-10.2-0.7-20.2-2-30.3c-0.7-5-1.5-10-2.6-15
		c-1.1-4.8-2.2-9.7-3.9-14.3c-0.4-1.1-0.7-2.2-1.1-3.3c-0.2-0.6-0.4-1.1-0.6-1.7c0,0,0-0.2-0.2-0.4c-0.2-0.4-0.2-0.6-0.4-0.7
		c-0.2-0.6-0.4-0.9-0.7-1.5c-0.4-0.9-0.9-1.7-1.3-2.6c-0.7-1.5-1.7-3-2.6-4.3c-3.3,10-6.7,20.1-8.4,30.5c-0.7,6.1-0.7,12.4-0.9,18.8
		c-0.4,12.8-1.9,25.4-2,38.3c-0.2,11.7,0.9,23,2.6,34.5c1.1,7.6,2.2,15,3.5,22.7c4.1,24.5,9.3,49,14.3,73.3c4.1-0.9,8-2.6,11.1-5.4
		l5-5.4c2.8-4.1,4.5-8.5,4.8-13.4c-0.2-10.4-0.4-20.8-0.4-31.4C112.3,127.6,110.1,119.8,108.2,112"/>
	<path id="XMLID_34_" d="M117.9,187.6c-4.8-27.9-7.1-56.1-9.5-84.3c-2.2-28-4.6-56.3-9.5-84.1c-2.8-15.6-6.3-31-11.3-46.1
		c-0.7-2.2-4.3-2.6-4.8,0C75,3.7,72,35.7,74.1,67.2c1.1,16.3,3.5,32.3,6.3,48.5c1.5,7.8,2.8,15.6,4.5,23.4c1.5,7.4,3,14.9,5.6,22.1
		c5,14.7,13.9,27.9,26.6,37.1c1.9,1.3,4.3-0.9,3.7-2.8c-0.9-4.1-3-7.6-5.6-10.8c-2-2.4-5.8,1.1-3.5,3.5c2,2.4,3.5,5.4,4.3,8.5
		c1.3-0.9,2.4-1.9,3.7-2.8c-10.6-7.8-18.4-18.9-23-31.2c-5.4-13.9-7.4-29.2-10.2-43.8c-2.8-15.6-5.4-31.4-6.7-47.2
		c-1.3-15.4-1.3-30.8-0.2-46.1C80.9,8.3,83.7-8.8,88-25.7h-4.8c8.4,26.7,13,54.6,16.2,82.4c3.2,28.2,4.8,56.5,7.6,84.5
		c1.5,15.8,3.5,31.8,6.3,47.4C113.4,192.2,118.4,190.8,117.9,187.6"/>
	<path id="XMLID_33_" class="st6" d="M235.8,79.5c-8.9,11-43.3,51.3-89.9,79.5c-0.6-0.9-1.1-1.7-1.5-2.6
		c46.1-27.9,80.2-67.8,88.9-78.5C234.3,78.4,235,79,235.8,79.5"/>
	<path id="XMLID_32_" class="st7" d="M186.9,141c-2.6,1.5-5.4,2.2-8.2,2c-4.1-0.2-8-2-10-5.8c-3.5-5.9-0.9-13.7,5.8-17.6
		c2.2-1.3,4.6-2,7.1-2c4.6-0.2,8.9,1.9,11.1,5.8C196.2,129.1,193.6,137.1,186.9,141"/>
	<path id="XMLID_31_" class="st6" d="M185.8,141c-2.2,1.3-4.6,2-7.1,2c-4.1-0.2-8-2-10-5.8c-3.5-5.9-0.9-13.7,5.8-17.6
		c2.2-1.3,4.6-2,7.1-2c4.1,0.2,8,2,10,5.8C195.1,129.1,192.5,137.1,185.8,141"/>
	<path id="XMLID_30_" class="st8" d="M281.6,90.1l-3.3,1.7c-4.6,2.2-10,0.4-12.3-4.1l-1.6-3.3l0.2-0.2l3.2-1.5
		c4.6-2.2,10-0.4,12.3,4.1l0.4,0.7L281.6,90.1z"/>
	<path id="XMLID_29_" class="st9" d="M280.3,87.7l-3.2,1.5c-4.6,2.2-10,0.4-12.3-4.1l-0.4-0.7l3.2-1.5c4.6-2.2,10-0.4,12.3,4.1
		L280.3,87.7z"/>
	<path id="XMLID_28_" class="st9" d="M287,59.3l-0.7,7.4c-1.1,10-10,17.5-20.2,16.5l-7.4-0.7v-0.6l0.7-6.9
		c1.1-10.2,10-17.5,20.2-16.5l1.9,0.2L287,59.3z"/>
	<path id="XMLID_27_" class="st9" d="M281.5,58.7l-0.7,6.9c-0.9,10.2-10,17.5-20.2,16.5l-1.9-0.2l0.7-6.9
		c0.9-10.2,10-17.5,20.2-16.5L281.5,58.7z"/>
	<path id="XMLID_26_" class="st8" d="M258.6,82.5c0,0,0.4-0.9,0.9-2.2c0.4-0.7,0.7-1.5,1.1-2.2s0.9-1.7,1.5-2.4
		c0.6-0.7,1.1-1.5,1.7-2.2c0.6-0.7,1.1-1.3,1.5-1.9c0.9-1.1,1.7-1.7,1.7-1.7s-0.4,0.9-0.9,2.2c-0.4,0.7-0.7,1.5-1.1,2.2
		c-0.4,0.7-0.9,1.7-1.5,2.4c-0.6,0.7-1.1,1.5-1.7,2.2c-0.6,0.7-1.1,1.3-1.5,1.9C259.4,81.8,258.6,82.5,258.6,82.5"/>
	<path id="XMLID_25_" class="st8" d="M262,80.5c0,0,0.2-0.6,0.6-1.1c0.4-0.6,0.9-1.3,1.7-1.9c0.7-0.6,1.5-0.9,2-1.3
		c0.6-0.2,1.1-0.4,1.1-0.4s-0.2,0.6-0.6,1.1c-0.4,0.6-0.9,1.3-1.7,1.9c-0.7,0.6-1.5,0.9-2,1.3C262.5,80.5,262,80.5,262,80.5"/>
	<path id="XMLID_24_" class="st9" d="M266.8,93.1H132.7c0-33.1,24.1-60.5,55.9-65.7c3.7-0.6,7.4-0.9,11.1-0.9
		c14.5,0,27.9,4.6,38.8,12.3c0.9,0.6,1.7,1.3,2.6,1.9C256.8,52.8,266.8,71.7,266.8,93.1"/>
	<path id="XMLID_23_" class="st9" d="M244.5,93.1H132.7c0-33.1,24.1-60.5,55.9-65.7c10.2,1.7,19.5,5.8,27.7,11.3
		c0.9,0.6,1.7,1.3,2.6,1.9C234.5,52.8,244.5,71.7,244.5,93.1"/>
	<rect id="XMLID_22_" x="134.8" y="87" class="st8" width="2.6" height="1.5"/>
	<path id="XMLID_69_" class="st8" d="M255.5,88.4h-5.4v-1.5h5.4V88.4z M244.7,88.4h-5.4v-1.5h5.4V88.4z M233.9,88.4h-5.4v-1.5h5.4
		V88.4z M223.3,88.4h-5.4v-1.5h5.4V88.4z M212.6,88.4h-5.4v-1.5h5.4V88.4z M201.8,88.4h-5.4v-1.5h5.4V88.4z M191,88.4h-5.4v-1.5h5.4
		V88.4z M180.4,88.4H175v-1.5h5.4V88.4z M169.7,88.4h-5.4v-1.5h5.4V88.4z M158.9,88.4h-5.4v-1.5h5.4V88.4z M148.1,88.4h-5.4v-1.5
		h5.4V88.4z"/>
	<rect id="XMLID_10_" x="260.8" y="87" class="st8" width="2.6" height="1.5"/>
	<path id="XMLID_62_" class="st10" d="M208.1,68.8c0.7-0.9,1.1-2.2,1.1-3.7c0-5.2-4.1-7.6-9.3-7.6s-9.3,2.4-9.3,7.6
		c0,1.5,0.4,2.8,1.1,3.7c-0.6,0.4-1.1,1.1-1.1,1.9c0,1.3,1.1,2.4,2.4,2.4h0.7V74c0,0.7,0.6,1.5,1.5,1.5s1.5-0.6,1.5-1.5v-0.9h2V74
		c0,0.7,0.6,1.5,1.5,1.5s1.5-0.6,1.5-1.5v-0.9h2V74c0,0.7,0.6,1.5,1.5,1.5s1.5-0.6,1.5-1.5v-0.9h0.7c1.3,0,2.4-1.1,2.4-2.4
		C209,69.9,208.7,69.1,208.1,68.8 M198.1,68.4c-0.9,0.7-2.4,0.2-3.3-1.1c-0.9-1.3-1.1-2.8-0.2-3.5s2.4-0.2,3.3,1.1
		C198.8,66.2,199,67.6,198.1,68.4 M199.6,70.6c0,0.2-0.2,0.4-0.4,0.4s-0.4-0.2-0.4-0.4v-0.9c0-0.2,0.2-0.4,0.4-0.4s0.4,0.2,0.4,0.4
		V70.6z M200.7,70.6c0,0.2-0.2,0.4-0.4,0.4s-0.4-0.2-0.4-0.4v-0.9c0-0.2,0.2-0.4,0.4-0.4s0.4,0.2,0.4,0.4V70.6z M204.8,67.5
		c-0.9,1.3-2.4,1.7-3.3,1.1c-0.9-0.7-0.7-2.2,0.2-3.5s2.4-1.7,3.3-1.1C205.9,64.5,205.7,66.2,204.8,67.5"/>
	<path id="XMLID_4_" class="st10" d="M189.9,51.9c-0.9-0.9-2.6-0.9-3.5,0c-0.4,0.4-0.7,1.1-0.7,1.7c-0.6,0-1.1,0.2-1.7,0.7
		c-0.9,0.9-0.9,2.6,0,3.5s2.4,0.9,3.5,0.2l2.2,2.2l2.6-2.6l-2.2-2.2C190.8,54.3,190.8,52.8,189.9,51.9"/>
	<path id="XMLID_3_" class="st10" d="M209.6,51.9c0.9-0.9,2.6-0.9,3.5,0c0.4,0.4,0.7,1.1,0.7,1.7c0.6,0,1.1,0.2,1.7,0.7
		c0.9,0.9,0.9,2.6,0,3.5s-2.4,0.9-3.5,0.2l-2.2,2.2l-2.6-2.6l2.2-2.2C208.7,54.3,208.7,52.8,209.6,51.9"/>
	<path id="XMLID_2_" class="st10" d="M209.6,81.8c0.9,0.9,2.6,0.9,3.5,0c0.4-0.4,0.7-1.1,0.7-1.7c0.6,0,1.1-0.2,1.7-0.7
		c0.9-0.9,0.9-2.6,0-3.5s-2.4-0.9-3.5-0.2l-2.2-2.2l-2.6,2.6l2.2,2.2C208.7,79.3,208.7,80.8,209.6,81.8"/>
	<path id="XMLID_1_" class="st10" d="M189.9,81.8c-0.9,0.9-2.6,0.9-3.5,0c-0.4-0.4-0.7-1.1-0.7-1.7c-0.6,0-1.1-0.2-1.7-0.7
		c-0.9-0.9-0.9-2.6,0-3.5s2.4-0.9,3.5-0.2l2.2-2.2l2.6,2.6l-2.2,2.2C190.8,79.3,190.8,80.8,189.9,81.8"/>
</g>
<g>
	<path d="M431.5,154.1c1.2,41.2-0.8,86.5-24.4,125.1c-42.4,69.2-185.8,94.6-285.4,70.1c-56.5-13.9-87-46.4-110-82.1
		c-26.3-40.6-40.2-84.5-41-128.8c0-0.8,0.4-1.4,0.9-2c-9.2-48.2-6.9-99.2,28-142.9C31.3-46,87.1-71.2,152.3-79.1
		c54-6.5,120.5-4.7,167.6,16.2c42.6,18.9,67.3,50.7,82.4,82.5C422.7,62.5,430.3,109.2,431.5,154.1z M410.9,241.2
		c11.2-39.8,11-81.8,6.1-122.1c-4.5-37.3-13.1-75.9-33.4-111c-18.9-32.6-51.1-63.2-102.5-74.7c-51.3-11.5-112.8-10.1-163.5,1.9
		C-10.2-34.4-29.7,59.5-16.7,138.7c0.2,0.9-0.3,1.6-0.8,2.2c2.4,46.1,17.2,91.4,46.8,133.2c29.6,41.6,72.7,70,143.3,74.8
		c50.3,3.4,106.4-3.1,151.3-18.9C375.6,311.7,400.5,278.4,410.9,241.2z"/>
	<path d="M406.4,146.8c1,6.5-1.6,13.7-2.7,20.2c-0.4,2.1-5.3,2.2-5.1,0c0.9-6.6,0.5-14.2,3.6-20.6
		C403,144.8,406.2,145.3,406.4,146.8z"/>
	<path d="M406.2,190.6c1.1,5.9-1.7,12.6-2.8,18.5c-0.4,2.1-5.2,2.2-5,0c0.7-6.1,0.1-13.1,3.1-18.9
		C402.5,188.4,405.9,188.9,406.2,190.6z"/>
	<path d="M401.1,99.2c2.1,6.7,1.1,13.9,0.8,20.6c-0.2,2.6-5.8,2.5-5.9,0c-0.3-6.8-1.3-14,0.8-20.6C397.2,97.8,400.7,97.8,401.1,99.2
		z"/>
	<path d="M396.3,236.1c0.9,6.6-3.6,13.5-8.2,19.2c-1,1.3-4.4,0.4-3.6-1c3.7-6.1,4.7-12.4,7.3-18.6
		C392.6,234,396.1,234.5,396.3,236.1z"/>
	<path d="M391.9,74.3c0.2,1.9-4.6,2.3-4.9,0.4c-1.2-5.8-2.2-11.5-2.4-17.3c-0.1-1.8,4.3-2.3,4.8-0.4
		C390.9,62.7,391.5,68.5,391.9,74.3z"/>
	<path d="M379.9,275.6c2.1-1.1,5,0.2,3.7,1.9c-2.6,3.3-6.8,6.2-10.2,9.2c-3.5,3-6.7,6.2-9.9,9.3c-1.6,1.6-5.4,0.2-3.9-1.5
		c3.2-3.4,6.4-6.8,9.8-10.1C372.6,281.3,375.7,277.8,379.9,275.6z"/>
	<path d="M378,27.8c6.2,3.2,6.6,10.2,5.6,15c-0.4,1.7-4.3,1.2-4.4-0.4c-0.1-2.4-0.7-4.7-1.7-6.9c-0.9-2.1-2.8-4-3.5-6.1
		C373.6,27.7,376.2,26.8,378,27.8z"/>
	<path d="M370.7,9.5c1,1.3-1.5,2.8-3.2,1.7C361.2,6.7,356.7,1.1,352-4.2c-1-1,1.4-2.3,2.6-1.3C360.4-0.8,366.7,4.1,370.7,9.5z"/>
	<path d="M340.7,310.5c2.8-0.6,3.9,2,1.9,2.9c-8.7,4.3-20.4,6.9-30.2,10c-2.5,0.8-4.7-1.6-2.2-2.5
		C319.9,317.5,330.2,312.8,340.7,310.5z"/>
	<path d="M335.5-26.3c1.8,1.5-0.9,3.2-3.1,2.1c-6.5-3.5-12-7.6-17.8-11.7c-2.2-1.6,1.2-3.8,3.5-2.3
		C324.1-34.4,330.3-30.7,335.5-26.3z"/>
	<path d="M279.1-50.1c2.5,0.6,1.5,2.9-1.1,2.7c-7.6-0.7-15-2.7-22.3-4.1c-2.1-0.4-1.3-2.5,0.9-2.2C264.1-52.7,271.9-51.9,279.1-50.1
		z"/>
	<path d="M275.6,331.2c2.2-0.2,4,1.8,1.7,2.6c-9.1,3.1-21.4,3.8-31.4,3.1c-2.7-0.2-2.7-2.7,0-2.8c5.3-0.3,10.5-0.4,15.8-1
		C266.3,332.6,270.9,331.7,275.6,331.2z"/>
	<path d="M208.3,337.6c1.9-0.1,2.6,1.8,1,2.4c-11,3.6-25.2,2.3-36.4-0.2c-2-0.4-1.2-2.5,0.9-2.1C185.9,339.8,196,338.4,208.3,337.6z
		"/>
	<path d="M200.8-60.2c2.6,0.1,3.2,2.6,0.6,3.1c-7.4,1.4-15.5,1.7-23.2,2c-2.9,0.1-3.6-3.1-0.7-3.4C185.1-59.4,193-60.4,200.8-60.2z"
		/>
	<path d="M140.5,332.8c1.8,0.1,2.6,2,0.5,2.3c-4.3,0.6-8.5,0.2-12.5-1c-3.1-0.9-8.5-3-7.4-5.7c0.3-0.6,1.1-1,2-1
		c3-0.2,5.1,2.1,7.4,3.1C133.5,331.7,136.9,332.4,140.5,332.8z"/>
	<path d="M137.3-55.3c2.5-0.5,3.5,1.7,1.6,2.6c-5.9,2.9-13.3,4.7-20,6.8c-2.4,0.7-4.5-1.6-2.1-2.4C123.4-50.7,130.1-53.7,137.3-55.3
		z"/>
	<path d="M98.9,316.4c1.7,1-0.5,2.7-2.4,2.1c-7.9-2.8-15.3-7.2-18.6-12.9c-1-1.7,2.8-3.1,4.5-1.8C87.8,308.2,92.5,312.7,98.9,316.4z
		"/>
	<path d="M82.1-41.1c2.5-0.8,5.4,1.3,3.1,2.7c-8,4.9-15.7,9.1-21.6,15.3c-1.4,1.5-4.5,0.2-3.4-1.3C64.9-30.9,72.3-37.7,82.1-41.1z"
		/>
	<path d="M63.2,284.6c2,0.8,0.6,3.1-1.6,2.5c-7-1.9-14.9-7.1-13.2-12.7c0.4-1.3,3.5-1.7,4.3-0.4c1.3,2,1.7,4,3.3,5.9
		C57.8,281.9,60.2,283.5,63.2,284.6z"/>
	<path d="M36.4-6.2c2.2-1.1,4.3,1.2,2.7,2.4c-7.6,6-13.7,11.9-16.5,19.7c-0.7,2-5,1.1-4.4-0.8C20.6,6.8,26.3-1.2,36.4-6.2z"/>
	<path d="M38.1,253c1.2,1-1.4,2.2-2.7,1.3c-7.7-5-14.6-12.9-13-20.4c0.4-1.6,3.9-1.3,4.5,0c1.4,3.2,1.8,6.5,3.5,9.6
		C32.3,247,34.9,250.1,38.1,253z"/>
	<path d="M16.7,212.2c0.7,1.7-3,2.3-3.9,0.7c-3.5-5.8-8.1-12.4-9.6-18.6c-0.4-1.6,2.8-2.7,4.1-1.1C11.7,198.8,14.1,206,16.7,212.2z"
		/>
	<path d="M5.5,44.4c1.5-1.1,4.5,0.1,3.8,1.4C5.1,53.9,1,60.3,2.2,69.2c0.2,1.5-3.4,1.8-3.8,0.4C-4,61.4-3,51.1,5.5,44.4z"/>
	<path d="M1.4,149.5c4.1,6,3.4,13.3,1.7,19.7c-0.4,1.5-4.2,1.1-4-0.4c1-6.4-1.1-12.2-2.1-18.5C-3.3,148.8,0.4,148.1,1.4,149.5z"/>
	<path d="M-0.2,119.8c0.1,1.6-3.7,1.9-4,0.4c-1.5-7.7-4.5-16.2-3.6-23.9c0.2-1.8,4.1-2.3,4.9-0.4C0,103.4-0.7,112-0.2,119.8z"/>
</g>
</svg>
