<?xml version="1.0" encoding="utf-8"?>
<!-- Generator: Adobe Illustrator 19.0.0, SVG Export Plug-In . SVG Version: 6.00 Build 0)  -->
<svg version="1.1" id="Capa_1" xmlns="http://www.w3.org/2000/svg" xmlns:xlink="http://www.w3.org/1999/xlink" x="0px" y="0px"
	 viewBox="0 0 435 525.2" style="enable-background:new 0 0 435 525.2;" xml:space="preserve">
<style type="text/css">
	.st0{clip-path:url(#XMLID_71_);fill:#68634E;}
	.st1{clip-path:url(#XMLID_71_);fill:#F37362;}
	.st2{clip-path:url(#XMLID_71_);fill:#9CD8D6;}
</style>
<g id="globo_1_">
	<defs>
		<rect id="XMLID_1_" x="22.1" y="24.1" width="386.3" height="486.8"/>
	</defs>
	<clipPath id="XMLID_71_">
		<use xlink:href="#XMLID_1_"  style="overflow:visible;"/>
	</clipPath>
	
		<rect id="XMLID_43_" x="164.1" y="414.5" transform="matrix(-1 -4.131902e-003 4.131902e-003 -1 329.388 862.4894)" class="st0" width="2.9" height="32.8"/>
	
		<rect id="XMLID_42_" x="179.8" y="433.6" transform="matrix(-0.2623 0.965 -0.965 -0.2623 667.4967 359.8241)" class="st0" width="32.8" height="2.9"/>
	
		<rect id="XMLID_41_" x="179" y="414.5" transform="matrix(-0.991 -0.134 0.134 -0.991 301.4972 883.9044)" class="st0" width="2.9" height="34.7"/>
	<polygon id="XMLID_40_" class="st0" points="205.2,453 217,421 214.2,420 202.5,452 	"/>
	<polygon id="XMLID_39_" class="st0" points="150.9,445.6 153.8,445.4 151,411.5 148.1,411.7 	"/>
	<path id="XMLID_38_" class="st0" d="M134.3,501.1l72.4,9.8c0.8,0.1,1.5-0.5,1.6-1.2l7.3-54.3c0.1-0.8-0.5-1.5-1.2-1.6l-72.4-9.8
		c-0.8-0.1-1.5,0.5-1.6,1.2l-7.3,54.3C133,500.2,133.5,501,134.3,501.1"/>
	<path id="XMLID_37_" class="st1" d="M325.1,180.9c21.2-89.7-18.6-128.3-36.7-140.8c11.7,4.4,24.5,10,37.4,17.2
		c17,14.1,50.8,52.1,36.9,123c-18.2,93.3-86.2,168-86.2,168s-48.7,51.4-65.7,73.9l-1.1-1.4l-4,2.4l-3.1-3c3.9-9.5,20-29.3,20-29.3
		C233.7,374.2,298.1,295,325.1,180.9"/>
	<path id="XMLID_36_" class="st1" d="M241.2,26.4c0,0,7.8,1.4,20,4.8c12.4,9.3,38.5,40.5,21.3,133.9
		c-20.5,111.4-80.2,236.6-88.7,254.1l-0.9-0.7l-5.2,2.3l-5.3-3.7l53-391.5C237.4,25.8,239.5,26.1,241.2,26.4"/>
	<path id="XMLID_35_" class="st1" d="M385.7,195.1c11.7-57.8-9.5-95.2-18.9-108.4C394.5,113.1,414,150,407.1,201
		c0,0-4.4,72.6-104.1,151.8c0,0-74.4,54.5-85,70.5l-1.5-1.1c7.6-11.9,55.3-51.7,55.3-51.7C327.2,318.5,370.9,268.2,385.7,195.1"/>
	<path id="XMLID_34_" class="st1" d="M46.6,149.2c4.4-63.1,39.1-93.6,49.5-101.4c15.1-7.6,31.2-12.9,46.7-16.4
		C123.5,39.6,78.2,66.6,72.6,141C65.4,235.8,111,325.9,111,325.9s33.4,62.6,43.7,88.6l-2.1,1.5l-2.3-3.3l-1,0.3
		c-4.2-13.5-39.4-64.5-39.4-64.5C70.1,283.7,41.4,223.6,46.6,149.2"/>
	<path id="XMLID_7_" class="st1" d="M108.7,151.6c3.4-93.5,53.5-119.5,73.6-126.3c10.8-0.9,20.3-1.2,28-1.2
		c-14.2,5.4-48.2,28.2-56.5,123.6C144,261.5,168.7,399,172,416.3l-3.5,1.8l-4.7-3.6l-0.5,0.3c-1-9.9-11.5-33.6-11.5-33.6
		C145.5,362.2,104.4,268.8,108.7,151.6"/>
	<path id="XMLID_6_" class="st2" d="M362.8,180.3c13.9-71-19.9-108.9-36.9-123c14.2,7.9,28.4,17.6,40.9,29.5
		c9.4,13.2,30.6,50.6,18.9,108.4c-14.8,73.1-58.5,123.4-113.9,175.3c0,0-47.7,39.9-55.3,51.7l-0.8-0.6l-3.3,2.5l-1.5-1.9
		c17-22.5,65.7-73.9,65.7-73.9S344.6,273.5,362.8,180.3"/>
	<path id="XMLID_5_" class="st2" d="M261.3,31.2c7.6,2.1,17,5,27.2,8.9c18,12.4,57.9,51.1,36.7,140.8
		c-27,114.1-91.4,193.3-102.5,210c0,0-16.1,19.8-20,29.3l-0.4-0.4l-5.1,2.3l-3.4-2.8c8.5-17.5,68.2-142.6,88.7-254.1
		C299.8,71.7,273.7,40.5,261.3,31.2"/>
	<path id="XMLID_4_" class="st2" d="M23.4,149.1c7.1-52.8,37.4-83.5,72.7-101.3c-10.4,7.8-45.1,38.3-49.5,101.4
		c-5.1,74.4,23.6,134.5,63.3,199.3c0,0,35.2,51,39.4,64.5l-2.1,0.7c-6-18.2-63.7-90.6-63.7-90.6C8.3,220.3,23.4,149.1,23.4,149.1"/>
	<path id="XMLID_3_" class="st2" d="M210.4,24.1c11.9,0,19.2,0.7,19.2,0.7s2.7,0.2,5.8,0.7l-53,391.5l-5.4,2.2l-4-3.5l-1.1,0.6
		c-3.2-17.4-27.9-154.8-18-268.6C162.2,52.3,196.2,29.5,210.4,24.1"/>
	<path id="XMLID_2_" class="st2" d="M72.6,141c5.7-74.4,51-101.4,70.1-109.6c14-3.2,27.5-5.1,39.6-6.1
		c-20.2,6.7-70.2,32.8-73.6,126.3c-4.3,117.2,36.8,210.6,43,229.6c0,0,10.5,23.7,11.5,33.6l-3.4,2.1l-3.7-3.5l-1.4,1
		c-10.3-26-43.7-88.6-43.7-88.6S65.4,235.8,72.6,141"/>
</g>
</svg>
