<?xml version="1.0" encoding="utf-8"?>
<!-- Generator: Adobe Illustrator 19.0.0, SVG Export Plug-In . SVG Version: 6.00 Build 0)  -->
<svg version="1.1" id="Capa_1" xmlns="http://www.w3.org/2000/svg" xmlns:xlink="http://www.w3.org/1999/xlink" x="0px" y="0px"
	 viewBox="-205.3 384.6 192 89.8" style="enable-background:new -205.3 384.6 192 89.8;" xml:space="preserve">
<style type="text/css">
	.st0{fill:#FFFFFF;stroke:#FFFFFF;stroke-miterlimit:10;}
	.st1{fill:#4DA146;stroke:#4DA146;stroke-miterlimit:10;}
	.st2{fill:#4B89C8;stroke:#4B89C8;stroke-miterlimit:10;}
	.st3{fill:#E83944;}
	.st4{fill:#403C3D;}
	.st5{fill:#FEDC00;}
	.st6{fill:#1D1E1B;}
</style>
<g>
	<g>
		<g>
			<path class="st0" d="M-181.6,434.6c0.5,0.1,0.8,0.5,0.8,1.1c0,0.3-0.2,0.4-0.4,0.6c-0.2,0.1-0.5,0.2-0.8,0.2c0,0-0.6-0.1-1.6-0.2
				c-1-0.1-2.5-0.2-4.3-0.2c-0.9,0-1.8,0-2.8,0.1c-0.9,0.1-1.8,0.1-2.6,0.2c-0.8,0.1-1.4,0.1-2,0.2c-0.5,0.1-0.8,0.1-0.8,0.1h-0.7
				c-0.3,0-0.5-0.1-0.7-0.2c-0.2-0.2-0.3-0.4-0.3-0.6c0-0.1-0.1-0.4-0.1-0.9c-0.1-0.6-0.1-1.2-0.2-2.1c-0.1-0.8-0.2-1.7-0.3-2.7
				c-0.1-1-0.2-2-0.3-2.9s-0.1-1.8-0.2-2.6c-0.1-0.8-0.1-1.4-0.1-1.9c0-0.7,0-1.6-0.1-2.7c-0.1-1.1-0.1-2.2-0.2-3.3
				c-0.1-1.1-0.2-2.2-0.3-3.3c-0.1-1-0.2-1.9-0.3-2.5c0-0.2,0.1-0.4,0.2-0.6s0.4-0.3,0.7-0.3c0.5,0,0.8,0.2,0.9,0.7
				c0.2-0.2,0.4-0.4,0.7-0.4c0,0,0.3,0,0.8-0.1c0.5-0.1,1.2-0.1,2-0.2c0.8-0.1,1.7-0.2,2.6-0.2c1-0.1,1.9-0.1,2.9-0.1
				c1.9,0,3.4,0.1,4.5,0.2c1.1,0.2,1.7,0.3,1.7,0.3c0.5,0.1,0.8,0.5,0.8,1.1c-0.1,0.5-0.5,0.8-1.2,0.8c-0.5-0.1-1-0.1-1.6-0.2
				c-0.5,0-1.1-0.1-1.8-0.2c-0.7-0.1-1.5-0.1-2.4-0.1c-0.9,0-1.8,0-2.8,0.1c-0.9,0.1-1.8,0.1-2.6,0.2c-0.8,0.1-1.4,0.2-2,0.2
				c-0.5,0.1-0.8,0.1-0.8,0.1c-0.2,0-0.4-0.1-0.6-0.2c0.1,0.8,0.2,1.6,0.3,2.6c0.1,1,0.2,2,0.2,3c0.1,1,0.1,1.9,0.2,2.8
				c0,0.9,0.1,1.6,0.1,2.2c0.2,0,0.5-0.1,1-0.1c0.5-0.1,1-0.1,1.6-0.2c0.6-0.1,1.3-0.1,2.1-0.2c0.8,0,1.5-0.1,2.3-0.1
				c0.3,0,0.5,0.1,0.7,0.3c0.2,0.2,0.3,0.4,0.3,0.7c0,0.3-0.1,0.5-0.3,0.7c-0.2,0.2-0.4,0.3-0.7,0.3c-0.8,0-1.7,0.1-2.5,0.2
				c-0.8,0.1-1.5,0.1-2.2,0.2c-0.6,0.1-1.2,0.1-1.6,0.2c-0.4,0.1-0.7,0.1-0.8,0.1c0,0.8,0.1,1.7,0.2,2.6c0.1,1,0.2,1.9,0.3,2.9
				c0.1,1,0.2,1.8,0.3,2.7c0.1,0.8,0.2,1.5,0.2,2c0.3,0,0.7-0.1,1.3-0.1c0.6-0.1,1.2-0.1,1.9-0.2c0.7-0.1,1.5-0.1,2.3-0.2
				c0.8,0,1.6-0.1,2.4-0.1c1.9,0,3.4,0.1,4.5,0.2C-182.2,434.5-181.7,434.6-181.6,434.6z"/>
			<path class="st0" d="M-167.5,419.2c1.1,0.3,2.1,0.8,3,1.5c0.9,0.7,1.6,1.4,2.2,2.3c0.6,0.9,1.1,1.8,1.4,2.7
				c0.3,0.9,0.5,1.8,0.5,2.6l0,0.5c0,0.6-0.1,1.3-0.1,2c-0.1,0.7-0.3,1.4-0.6,2.1c-0.3,0.7-0.9,1.3-1.6,1.9
				c-0.7,0.6-1.8,1.1-3.1,1.4c-0.7,0.2-1.3,0.4-1.8,0.4c-0.5,0.1-1.1,0.1-1.6,0.1c-0.7,0-1.5-0.1-2.2-0.2c-0.7-0.2-1.6-0.4-2.6-0.7
				c-0.9-0.2-1.7-0.6-2.4-1.1c-0.7-0.5-1.2-1-1.7-1.6c-0.4-0.5-0.8-1-1-1.4c-0.2-0.4-0.3-0.6-0.3-0.7c-0.1-0.1-0.1-0.2-0.1-0.4
				c0-0.4,0.2-0.7,0.6-0.9c0.2,0,0.3-0.1,0.4-0.1c0.2,0,0.4,0.1,0.5,0.2c0.2,0.1,0.3,0.2,0.4,0.4l0.2,0.4c0.2,0.3,0.4,0.7,0.8,1.1
				c0.3,0.4,0.8,0.8,1.3,1.2c0.5,0.4,1.2,0.7,1.9,0.9c1,0.3,1.8,0.4,2.4,0.6c0.6,0.1,1.2,0.2,1.8,0.2c0.8,0,1.7-0.1,2.9-0.4
				c1-0.3,1.8-0.6,2.3-1c0.6-0.4,1-0.8,1.2-1.3c0.3-0.5,0.4-1,0.5-1.6c0.1-0.6,0.1-1.1,0.1-1.7l0-0.6c0-0.5-0.1-1.1-0.4-1.8
				c-0.2-0.7-0.6-1.4-1.1-2.1c-0.5-0.7-1-1.3-1.7-1.9c-0.7-0.6-1.5-1-2.4-1.2c-0.6-0.2-1.3-0.3-2-0.4c-0.7-0.1-1.4-0.1-2.1-0.2
				c-0.8-0.1-1.6-0.1-2.4-0.2c-0.8-0.1-1.5-0.3-2.1-0.5c-0.6-0.2-1.1-0.6-1.5-1c-0.4-0.4-0.6-1-0.7-1.7c0-0.1,0-0.2,0-0.2
				s0-0.1,0-0.2c0-0.9,0.2-1.7,0.5-2.3c0.4-0.6,0.8-1.2,1.3-1.6c0.5-0.4,1.1-0.8,1.6-1.1c0.6-0.3,1.1-0.5,1.5-0.7
				c0.5-0.3,1.2-0.4,1.9-0.5c0.7-0.1,1.6-0.2,2.4-0.2c0.8,0,1.6,0,2.4,0.1c0.8,0.1,1.6,0.2,2.3,0.4c0.5,0.1,0.7,0.5,0.7,1.1
				c0,0.2-0.2,0.4-0.4,0.6c-0.2,0.1-0.5,0.2-0.8,0.2c-0.7-0.2-1.4-0.3-2.1-0.4c-0.7-0.1-1.5-0.1-2.2-0.1c-0.7,0-1.4,0-2,0.1
				c-0.6,0.1-1.1,0.2-1.5,0.4c-0.5,0.2-1,0.4-1.4,0.7c-0.5,0.2-0.9,0.5-1.2,0.8c-0.3,0.3-0.6,0.7-0.8,1.1c-0.2,0.4-0.3,1-0.3,1.6
				c0,0.6,0.5,1,1.4,1.2c0.9,0.2,2,0.4,3.5,0.5c0.7,0.1,1.5,0.1,2.2,0.2C-168.9,418.9-168.2,419-167.5,419.2z"/>
			<path class="st0" d="M-144.4,411.2c0.9,0.2,1.6,0.6,2.3,1.1c0.7,0.5,1.2,1.1,1.7,1.8c0.4,0.7,0.8,1.4,1,2.1
				c0.2,0.7,0.3,1.4,0.3,2c0,0.1,0,0.2,0,0.2c0,0.1,0,0.1,0,0.2l0,0.4c0,0.5-0.1,1-0.2,1.6c-0.1,0.6-0.3,1.1-0.7,1.7
				c-0.3,0.6-0.8,1.1-1.4,1.6s-1.5,0.9-2.6,1.2c-0.7,0.2-1.5,0.3-2.4,0.4c-0.9,0.1-1.8,0.1-2.8,0.1c-0.5,0-1,0-1.5,0
				c-0.5,0-1,0-1.6,0c-0.3,0-0.6,0-0.9,0c-0.3,0-0.6,0-0.9,0c0.1,1,0.2,2.1,0.3,3.3c0.1,1.2,0.2,2.2,0.3,3.3c0.1,1,0.2,1.9,0.3,2.6
				c0.1,0.7,0.1,1.1,0.1,1.1c0,0.3-0.1,0.5-0.3,0.7c-0.2,0.2-0.4,0.3-0.7,0.3c-0.3,0-0.5-0.1-0.7-0.2c-0.2-0.2-0.3-0.4-0.3-0.6
				c0-0.1-0.1-0.4-0.1-0.9c-0.1-0.6-0.1-1.2-0.2-2.1c-0.1-0.8-0.2-1.7-0.3-2.7c-0.1-1-0.2-2-0.3-2.9s-0.1-1.8-0.2-2.6
				c-0.1-0.8-0.1-1.4-0.1-1.9c0-0.6,0-1.3-0.1-2.1c0-0.8-0.1-1.7-0.2-2.6c-0.1-0.9-0.1-1.8-0.2-2.7c-0.1-0.9-0.2-1.7-0.3-2.5
				c0,0-0.1-0.1-0.1-0.2c0-0.1-0.1-0.2-0.1-0.4c0-0.1,0-0.2,0.1-0.3c0-0.1,0-0.2-0.1-0.4c0-0.1,0-0.3-0.1-0.5c0-0.2,0.1-0.4,0.2-0.6
				s0.4-0.3,0.7-0.3c0.2,0,0.4,0.1,0.6,0.2c0.2,0.2,0.3,0.4,0.3,0.7c0.8-0.2,1.6-0.4,2.3-0.5c0.7-0.1,1.5-0.2,2.4-0.2
				c0.8,0,1.7,0.1,2.7,0.2C-147,410.6-145.8,410.8-144.4,411.2z M-141.1,418.2c0-0.4-0.1-0.8-0.2-1.4c-0.1-0.5-0.4-1-0.7-1.5
				c-0.3-0.5-0.7-1-1.2-1.4c-0.5-0.4-1-0.7-1.7-0.9c-1.2-0.3-2.3-0.6-3.2-0.7c-0.9-0.1-1.7-0.2-2.4-0.2c-0.8,0-1.5,0.1-2.2,0.2
				c-0.7,0.1-1.4,0.3-2.2,0.5c0.1,0.8,0.2,1.6,0.3,2.6c0.1,0.9,0.1,1.8,0.2,2.7c0.1,0.9,0.1,1.7,0.1,2.6c0,0.8,0.1,1.5,0.1,2
				c0,0.1,0,0.3,0,0.4c0,0.2,0,0.3,0,0.5c0.3,0,0.6,0,0.9,0c0.3,0,0.6,0,0.9,0c0.5,0,1,0,1.5,0c0.5,0,1,0,1.5,0c0.9,0,1.8,0,2.6-0.1
				c0.8,0,1.5-0.1,2.1-0.3c0.8-0.2,1.4-0.5,1.9-0.8c0.5-0.3,0.8-0.6,1-1c0.2-0.4,0.4-0.8,0.5-1.2c0.1-0.4,0.1-0.9,0.2-1.3l0-0.4
				L-141.1,418.2z"/>
			<path class="st0" d="M-122.6,422.9c0.1,0.4,0.3,1.1,0.6,1.9c0.3,0.8,0.6,1.7,0.9,2.6s0.7,1.9,1.1,2.9c0.4,1,0.7,1.9,1,2.7
				c0.3,0.8,0.6,1.5,0.8,2c0.2,0.5,0.3,0.8,0.3,0.8c0,0.1,0.1,0.2,0.1,0.3c0,0.4-0.2,0.7-0.6,0.9c-0.1,0-0.2,0.1-0.3,0.1
				c-0.2,0-0.4-0.1-0.5-0.2s-0.3-0.3-0.4-0.5c0-0.1-0.2-0.4-0.4-1.1c-0.3-0.6-0.6-1.4-0.9-2.3c-0.4-0.9-0.8-1.9-1.2-3
				c-0.4-1.1-0.9-2.1-1.3-3.1c-0.5-0.1-1-0.1-1.6-0.2c-0.5,0-1.1-0.1-1.8-0.2c-0.7-0.1-1.5-0.1-2.4-0.1c-0.6,0-1.2,0-1.8,0.1
				c-0.6,0-1.2,0.1-1.8,0.1c-0.4,1-0.9,2-1.3,3.2c-0.5,1.1-0.9,2.2-1.4,3.1c-0.4,1-0.8,1.8-1.1,2.5c-0.3,0.7-0.5,1.1-0.5,1.1
				c-0.2,0.4-0.5,0.6-0.9,0.6c-0.2,0-0.3,0-0.4-0.1c-0.4-0.2-0.6-0.5-0.6-0.9c0-0.1,0-0.2,0.1-0.4c0,0,0.1-0.3,0.4-0.9
				c0.3-0.6,0.6-1.3,0.9-2.1c0.4-0.9,0.8-1.8,1.3-2.9c0.5-1,0.9-2.1,1.3-3c-0.6,0.1-1.2,0.1-1.6,0.2c-0.4,0.1-0.7,0.1-0.7,0.1
				c-0.3,0-0.5-0.1-0.6-0.2c-0.2-0.2-0.3-0.4-0.3-0.7c0-0.3,0.1-0.5,0.2-0.6c0.1-0.2,0.4-0.3,0.6-0.3c0,0,0.4,0,1-0.1
				c0.6-0.1,1.4-0.2,2.3-0.3c0.2-0.4,0.3-0.8,0.5-1.1c0.1-0.3,0.2-0.6,0.3-0.9c0.2-0.6,0.5-1.4,0.9-2.5s0.8-2.1,1.3-3.2
				c0.5-1.1,0.9-2.2,1.4-3.2c0.5-1,0.9-1.9,1.2-2.6c0-0.4,0.2-0.6,0.6-0.8c0.1,0,0.2-0.1,0.4-0.1c0.2,0,0.3,0,0.5,0.1
				c0.3,0.2,0.5,0.4,0.5,0.8c0.3,0.7,0.6,1.6,1.1,2.6c0.4,1.1,0.8,2.1,1.2,3.3c0.4,1.1,0.8,2.2,1.1,3.2S-122.8,422.3-122.6,422.9z
				 M-129.3,424.6c1.2,0,2.3,0,3.2,0.1c0.9,0.1,1.6,0.2,2.1,0.2c-0.1-0.3-0.2-0.6-0.3-0.9c-0.1-0.3-0.2-0.5-0.2-0.7
				c-0.1-0.6-0.3-1.2-0.6-2c-0.3-0.8-0.5-1.6-0.8-2.5c-0.3-0.9-0.6-1.8-0.9-2.7c-0.3-0.9-0.6-1.7-0.9-2.4c-0.3,0.7-0.7,1.5-1.1,2.4
				c-0.4,0.9-0.7,1.8-1.1,2.7c-0.4,0.9-0.7,1.7-1,2.5c-0.3,0.8-0.6,1.5-0.7,2c0,0.2-0.1,0.4-0.2,0.6c-0.1,0.2-0.2,0.4-0.3,0.7
				C-131.3,424.6-130.3,424.6-129.3,424.6z"/>
			<path class="st0" d="M-99.3,432.3c0.2-0.2,0.4-0.3,0.7-0.3c0.3,0,0.5,0.1,0.7,0.2c0.2,0.2,0.3,0.4,0.3,0.7c0,0.3-0.1,0.5-0.3,0.7
				c0,0-0.2,0.2-0.5,0.5c-0.3,0.3-0.8,0.6-1.4,1c-0.6,0.3-1.3,0.7-2.1,0.9c-0.8,0.3-1.8,0.4-2.8,0.4c-1.2,0-2.5-0.2-3.9-0.7
				c-1.4-0.5-2.7-1.2-3.9-2.3c-1.2-1.1-2.2-2.4-3-4.1c-0.8-1.7-1.2-3.8-1.2-6.2c0-0.8,0-1.4,0.1-2c0-0.6,0.1-1.1,0.2-1.5
				c0.1-0.4,0.2-0.9,0.4-1.2c0.1-0.4,0.3-0.7,0.5-1.1c0,0,0.2-0.3,0.5-0.8s0.7-1.1,1.2-1.8c0.5-0.7,1-1.3,1.6-1.9
				c0.6-0.6,1.2-1.1,1.7-1.4c0.7-0.3,1.3-0.5,2-0.7c0.7-0.1,1.3-0.2,1.9-0.2c0.6,0,1.2,0.1,1.7,0.2c0.2,0,0.5,0.1,0.9,0.3
				c0.4,0.1,0.7,0.3,1.1,0.4c0.4,0.2,0.7,0.3,1.1,0.5c0.3,0.2,0.6,0.4,0.7,0.5c0.2,0.3,0.3,0.6,0.4,0.9c0.1,0.4,0.1,0.7,0.1,1
				c0,0.3-0.1,0.5-0.3,0.7c-0.2,0.2-0.4,0.3-0.7,0.3c-0.3,0-0.5-0.1-0.7-0.3c-0.2-0.2-0.3-0.4-0.3-0.7c0-0.1,0-0.2,0-0.4
				c0-0.1,0-0.3,0-0.3c-0.2-0.1-0.6-0.3-1.2-0.5c-0.5-0.2-1.1-0.4-1.5-0.5c-0.2,0-0.4-0.1-0.6-0.1c-0.2,0-0.4,0-0.6,0
				c-0.5,0-1,0.1-1.5,0.2c-0.5,0.1-1.1,0.3-1.5,0.5c-0.3,0.1-0.7,0.4-1.1,0.8c-0.4,0.4-0.8,0.8-1.1,1.3c-0.4,0.5-0.7,1-1.1,1.5
				c-0.3,0.5-0.6,1-0.9,1.4c-0.2,0.3-0.3,0.6-0.4,0.9c-0.1,0.3-0.2,0.6-0.3,1c-0.1,0.4-0.1,0.8-0.2,1.3c0,0.5-0.1,1-0.1,1.7
				c0,1.6,0.2,2.9,0.6,4.1c0.4,1.2,0.8,2.2,1.4,3s1.3,1.6,2,2.1c0.7,0.6,1.5,1,2.2,1.3c0.7,0.3,1.5,0.6,2.1,0.7
				c0.7,0.1,1.2,0.2,1.7,0.2c0.8,0,1.6-0.1,2.2-0.3c0.7-0.2,1.2-0.5,1.7-0.8c0.5-0.3,0.8-0.5,1.1-0.8L-99.3,432.3z"/>
			<path class="st0" d="M-92.8,422.7c0,0.4,0,1.1,0.1,1.9c0.1,0.8,0.1,1.7,0.2,2.6c0.1,1,0.2,1.9,0.3,2.9c0.1,1,0.2,1.9,0.3,2.7
				c0.1,0.8,0.2,1.5,0.2,2c0.1,0.5,0.1,0.8,0.1,0.8c0,0.3-0.1,0.5-0.3,0.7c-0.2,0.2-0.4,0.3-0.7,0.3c-0.3,0-0.5-0.1-0.6-0.2
				c-0.2-0.2-0.3-0.4-0.3-0.6c0-0.1,0-0.4-0.1-0.9c-0.1-0.6-0.1-1.2-0.2-2.1c-0.1-0.8-0.2-1.7-0.3-2.7c-0.1-1-0.2-2-0.3-2.9
				c-0.1-1-0.1-1.8-0.2-2.6c-0.1-0.8-0.1-1.4-0.1-1.9c0-0.7,0-1.6-0.1-2.7c-0.1-1.1-0.1-2.2-0.2-3.3c-0.1-1.1-0.2-2.2-0.3-3.3
				c-0.1-1-0.2-1.9-0.3-2.5c0-0.2,0.1-0.4,0.2-0.6c0.2-0.2,0.4-0.3,0.7-0.3c0.2,0,0.4,0.1,0.6,0.2c0.2,0.1,0.3,0.3,0.3,0.6
				c0.1,0.6,0.2,1.5,0.3,2.6c0.1,1.1,0.2,2.2,0.3,3.4c0.1,1.2,0.2,2.3,0.2,3.4C-92.8,421.1-92.8,422-92.8,422.7z"/>
			<path class="st0" d="M-71.8,411.2c0.5,0.3,0.9,0.7,1.5,1.2c0.5,0.5,1,1,1.5,1.7c0.5,0.6,1,1.4,1.4,2.2c0.4,0.8,0.8,1.7,1.1,2.8
				c0.3,1.2,0.5,2.4,0.5,3.6c0,1.2-0.2,2.3-0.5,3.5c-0.3,1.2-0.8,2.3-1.4,3.4c-0.8,1.5-1.8,2.7-2.9,3.8c-1.1,1.1-2.2,1.8-3.3,2.1
				c-1.1,0.3-2.3,0.5-3.5,0.5c-1.4,0-2.7-0.2-4-0.7c-0.5-0.2-1-0.4-1.6-0.7c-0.6-0.3-1.1-0.7-1.6-1.2c-0.5-0.5-1-1.1-1.5-1.7
				s-0.8-1.5-1.1-2.4c-0.4-1.2-0.6-2.7-0.6-4.4c0-1.1,0.1-2.2,0.3-3.4c0.2-1.2,0.4-2.4,0.8-3.5c0.6-2.2,1.5-4,2.5-5.4
				c1-1.4,2.2-2.3,3.4-2.7c0.3-0.1,0.7-0.1,1.1-0.1c0.1,0,0.2,0,0.3,0s0.2,0,0.3,0.1c0.3-0.1,0.7-0.3,1.2-0.4
				c0.2-0.1,0.5-0.1,0.8-0.1c0.7,0,1.5,0.2,2.4,0.5C-73.5,410.1-72.7,410.6-71.8,411.2z M-69.2,428.8c0.3-0.6,0.7-1.5,1-2.5
				c0.4-1,0.6-2.2,0.6-3.5c0-1-0.1-2-0.4-3.1c-0.3-0.9-0.6-1.7-1-2.4s-0.8-1.4-1.2-1.9c-0.4-0.6-0.9-1.1-1.3-1.5
				c-0.4-0.4-0.9-0.8-1.3-1c-0.9-0.6-1.6-1-2.4-1.2c-0.7-0.2-1.3-0.3-1.8-0.3c-0.7,0.2-1.2,0.4-1.7,0.6c-0.4,0.2-0.7,0.3-0.7,0.3
				c-0.1,0.1-0.3,0.1-0.4,0.1c-0.3,0-0.5-0.1-0.7-0.3c-0.8,0.4-1.6,1.2-2.3,2.4c-0.7,1.1-1.3,2.6-1.8,4.2c-0.3,1.1-0.6,2.2-0.7,3.2
				c-0.2,1.1-0.2,2.1-0.2,3.2c0,1.4,0.2,2.7,0.5,3.8c0.2,0.7,0.5,1.4,0.9,1.9c0.3,0.6,0.7,1,1.1,1.4c0.4,0.4,0.8,0.7,1.3,0.9
				c0.4,0.2,0.9,0.4,1.3,0.6c1.1,0.4,2.2,0.6,3.4,0.6c1,0,2-0.1,3-0.4c0.7-0.2,1.5-0.7,2.5-1.6C-70.9,431.4-70,430.2-69.2,428.8z"/>
		</g>
		<g>
			<path class="st0" d="M-188.9,442.2c0.9,0.3,1.9,0.7,2.9,1.3c1,0.6,2,1.4,2.9,2.4c0.9,1,1.6,2.2,2.2,3.6c0.6,1.4,0.9,3,0.9,4.8
				c0,2.4-0.2,4.4-0.7,6c-0.5,1.6-1.1,3-1.8,4c-0.7,1-1.6,1.9-2.4,2.4c-0.9,0.6-1.8,1-2.7,1.2c-0.4,0.1-1,0.2-1.9,0.2
				c-0.8,0-1.7,0.1-2.7,0.1c-0.6,0-1.2,0-1.8,0c-0.6,0-1.1,0-1.6,0c-0.5,0-0.9,0-1.2-0.1c-0.3,0-0.6,0-0.7,0c-0.3,0-0.5-0.1-0.6-0.3
				c-0.2-0.2-0.3-0.5-0.3-0.8c0-0.1-0.1-0.4-0.1-0.9c-0.1-0.6-0.1-1.2-0.2-2.1c-0.1-0.8-0.2-1.7-0.3-2.7c-0.1-1-0.2-2-0.3-2.9
				c-0.1-1-0.1-1.8-0.2-2.6c-0.1-0.8-0.1-1.4-0.1-1.9c0-0.6,0-1.3-0.1-2.1c0-0.9-0.1-1.7-0.2-2.7c-0.1-0.9-0.1-1.9-0.2-2.8
				c-0.1-0.9-0.2-1.7-0.3-2.5c0,0-0.1-0.1-0.1-0.2c0-0.1-0.1-0.3-0.1-0.5c0-0.2,0-0.3,0.1-0.5c0,0,0-0.1,0-0.2c0-0.1,0-0.2-0.1-0.3
				c0-0.2,0.1-0.4,0.2-0.6c0.2-0.2,0.4-0.3,0.7-0.3c0.5,0,0.8,0.2,0.9,0.7c0.7-0.2,1.4-0.3,2-0.4c0.6-0.1,1.3-0.2,2.1-0.2
				c0.7,0,1.5,0.1,2.4,0.2C-191.1,441.7-190.1,441.9-188.9,442.2z M-188,466.2c1.3-0.4,2.3-1,3.1-1.8c0.8-0.8,1.4-1.8,1.9-2.9
				c0.5-1.1,0.8-2.3,0.9-3.5c0.2-1.2,0.2-2.4,0.2-3.6c0-1.5-0.3-2.9-0.8-4.1c-0.5-1.2-1.2-2.2-1.9-3.1c-0.8-0.9-1.6-1.6-2.4-2.1
				c-0.9-0.5-1.7-0.9-2.4-1.1c-1.1-0.3-2.1-0.5-2.8-0.6c-0.8-0.1-1.5-0.2-2.2-0.2c-0.7,0-1.3,0.1-1.9,0.2c-0.6,0.1-1.2,0.2-1.9,0.4
				c0.1,0.8,0.2,1.7,0.3,2.6c0.1,1,0.2,1.9,0.2,2.8c0.1,0.9,0.1,1.8,0.2,2.6c0,0.8,0.1,1.5,0.1,2c0,0.4,0,0.9,0.1,1.6
				c0,0.7,0.1,1.4,0.2,2.2c0.1,0.8,0.1,1.6,0.2,2.5c0.1,0.9,0.2,1.7,0.2,2.5c0.1,0.8,0.2,1.5,0.2,2.2c0.1,0.6,0.1,1.1,0.2,1.5
				c0.7,0,1.4,0.1,2.1,0.1c0.7,0,1.5,0,2.2,0c0.9,0,1.7,0,2.4-0.1C-188.9,466.3-188.4,466.3-188,466.2z"/>
			<path class="st0" d="M-160.8,442.5c0.5,0.3,0.9,0.7,1.5,1.2c0.5,0.5,1,1,1.5,1.7c0.5,0.6,1,1.4,1.4,2.2c0.4,0.8,0.8,1.7,1.1,2.8
				c0.3,1.2,0.5,2.4,0.5,3.6c0,1.2-0.2,2.3-0.5,3.5c-0.3,1.2-0.8,2.3-1.4,3.4c-0.8,1.5-1.8,2.7-2.9,3.8c-1.1,1.1-2.2,1.8-3.3,2.1
				c-1.2,0.3-2.3,0.5-3.5,0.5c-1.4,0-2.7-0.2-4-0.7c-0.5-0.2-1-0.4-1.6-0.7c-0.6-0.3-1.1-0.7-1.6-1.2c-0.5-0.5-1-1.1-1.5-1.7
				c-0.4-0.7-0.8-1.5-1.1-2.4c-0.4-1.2-0.6-2.7-0.6-4.4c0-1.1,0.1-2.2,0.3-3.4c0.2-1.2,0.4-2.4,0.8-3.5c0.6-2.2,1.5-4,2.5-5.4
				c1-1.4,2.2-2.3,3.4-2.7c0.3-0.1,0.7-0.1,1.1-0.1c0.1,0,0.2,0,0.3,0c0.1,0,0.2,0,0.3,0.1c0.3-0.1,0.7-0.3,1.2-0.4
				c0.2-0.1,0.5-0.1,0.8-0.1c0.7,0,1.5,0.2,2.4,0.5C-162.5,441.4-161.6,441.9-160.8,442.5z M-158.2,460.1c0.3-0.6,0.7-1.5,1-2.5
				c0.4-1,0.6-2.2,0.6-3.5c0-1-0.1-2-0.4-3.1c-0.3-0.9-0.6-1.7-1-2.4c-0.4-0.7-0.8-1.4-1.2-1.9c-0.4-0.6-0.9-1.1-1.3-1.5
				c-0.4-0.4-0.9-0.8-1.3-1c-0.9-0.6-1.6-1-2.4-1.2c-0.7-0.2-1.3-0.3-1.8-0.3c-0.7,0.2-1.2,0.4-1.7,0.6c-0.4,0.2-0.7,0.3-0.7,0.3
				c-0.1,0.1-0.3,0.1-0.4,0.1c-0.3,0-0.5-0.1-0.7-0.3c-0.8,0.4-1.6,1.2-2.3,2.4c-0.7,1.1-1.3,2.6-1.8,4.2c-0.3,1.1-0.6,2.2-0.7,3.2
				c-0.2,1.1-0.2,2.1-0.2,3.2c0,1.4,0.2,2.7,0.5,3.8c0.2,0.7,0.5,1.4,0.9,1.9c0.3,0.6,0.7,1,1.1,1.4c0.4,0.4,0.8,0.7,1.3,0.9
				c0.4,0.2,0.9,0.4,1.3,0.6c1.1,0.4,2.2,0.6,3.4,0.6c1,0,2-0.1,3-0.4c0.7-0.2,1.5-0.7,2.5-1.6C-159.8,462.7-159,461.5-158.2,460.1z
				"/>
			<path class="st0" d="M-138.9,442.4c0.9,0.2,1.6,0.6,2.3,1.1c0.7,0.5,1.2,1.1,1.7,1.8c0.4,0.7,0.8,1.4,1,2.1
				c0.2,0.7,0.3,1.4,0.3,2c0,0.1,0,0.2,0,0.2s0,0.1,0,0.2l0,0.4c0,0.5-0.1,1-0.2,1.6c-0.1,0.6-0.3,1.1-0.7,1.7
				c-0.3,0.6-0.8,1.1-1.4,1.6c-0.6,0.5-1.5,0.9-2.6,1.2c-0.7,0.2-1.5,0.3-2.4,0.4c-0.9,0.1-1.8,0.1-2.8,0.1c-0.5,0-1,0-1.5,0
				c-0.5,0-1,0-1.6,0c-0.3,0-0.6,0-0.9,0c-0.3,0-0.6,0-0.9,0c0.1,1,0.2,2.1,0.3,3.3c0.1,1.2,0.2,2.2,0.3,3.3c0.1,1,0.2,1.9,0.3,2.6
				c0.1,0.7,0.1,1.1,0.1,1.1c0,0.3-0.1,0.5-0.3,0.7c-0.2,0.2-0.4,0.3-0.7,0.3c-0.3,0-0.5-0.1-0.7-0.2c-0.2-0.2-0.3-0.4-0.3-0.6
				c0-0.1-0.1-0.4-0.1-0.9c-0.1-0.6-0.1-1.2-0.2-2.1c-0.1-0.8-0.2-1.7-0.3-2.7c-0.1-1-0.2-2-0.3-2.9c-0.1-1-0.1-1.8-0.2-2.6
				c-0.1-0.8-0.1-1.4-0.1-1.9c0-0.6,0-1.3-0.1-2.1s-0.1-1.7-0.2-2.6c-0.1-0.9-0.1-1.8-0.2-2.7c-0.1-0.9-0.2-1.7-0.3-2.5
				c0,0-0.1-0.1-0.1-0.2c0-0.1-0.1-0.2-0.1-0.4c0-0.1,0-0.2,0.1-0.3c0-0.1,0-0.2-0.1-0.4c0-0.1,0-0.3-0.1-0.5c0-0.2,0.1-0.4,0.2-0.6
				c0.2-0.2,0.4-0.3,0.7-0.3c0.2,0,0.4,0.1,0.6,0.2c0.2,0.2,0.3,0.4,0.3,0.7c0.8-0.2,1.6-0.4,2.3-0.5c0.7-0.1,1.5-0.2,2.4-0.2
				c0.8,0,1.7,0.1,2.7,0.2C-141.4,441.8-140.2,442.1-138.9,442.4z M-135.5,449.5c0-0.4-0.1-0.8-0.2-1.4c-0.1-0.5-0.4-1-0.7-1.5
				c-0.3-0.5-0.7-1-1.2-1.4c-0.5-0.4-1-0.7-1.7-0.9c-1.2-0.3-2.3-0.6-3.2-0.7c-0.9-0.1-1.7-0.2-2.4-0.2c-0.8,0-1.5,0.1-2.2,0.2
				c-0.7,0.1-1.4,0.3-2.2,0.5c0.1,0.8,0.2,1.6,0.3,2.6c0.1,0.9,0.1,1.8,0.2,2.7c0.1,0.9,0.1,1.7,0.1,2.6c0,0.8,0.1,1.5,0.1,2
				c0,0.1,0,0.3,0,0.4c0,0.2,0,0.3,0,0.5c0.3,0,0.6,0,0.9,0c0.3,0,0.6,0,0.9,0c0.5,0,1,0,1.5,0c0.5,0,1,0,1.5,0c0.9,0,1.8,0,2.6-0.1
				c0.8,0,1.5-0.1,2.1-0.3c0.8-0.2,1.4-0.5,1.9-0.8c0.5-0.3,0.8-0.6,1-1c0.2-0.4,0.4-0.8,0.5-1.2c0.1-0.4,0.1-0.9,0.2-1.3l0-0.4
				L-135.5,449.5z"/>
			<path class="st0" d="M-117,454.2c0.1,0.4,0.3,1.1,0.6,1.9c0.3,0.8,0.6,1.7,0.9,2.6c0.3,1,0.7,1.9,1.1,2.9c0.4,1,0.7,1.9,1,2.7
				c0.3,0.8,0.6,1.5,0.8,2c0.2,0.5,0.3,0.8,0.3,0.8c0,0.1,0.1,0.2,0.1,0.3c0,0.4-0.2,0.7-0.6,0.9c-0.1,0-0.2,0.1-0.3,0.1
				c-0.2,0-0.4-0.1-0.5-0.2c-0.2-0.1-0.3-0.3-0.4-0.5c0-0.1-0.2-0.4-0.4-1.1c-0.3-0.6-0.6-1.4-0.9-2.3c-0.4-0.9-0.8-1.9-1.2-3
				c-0.4-1.1-0.9-2.1-1.3-3.1c-0.5-0.1-1-0.1-1.6-0.2c-0.5,0-1.1-0.1-1.8-0.2c-0.7-0.1-1.5-0.1-2.4-0.1c-0.6,0-1.2,0-1.8,0.1
				c-0.6,0-1.2,0.1-1.8,0.1c-0.4,1-0.9,2-1.3,3.2c-0.5,1.1-0.9,2.2-1.4,3.1c-0.4,1-0.8,1.8-1.1,2.5c-0.3,0.7-0.5,1.1-0.5,1.1
				c-0.2,0.4-0.5,0.6-0.9,0.6c-0.2,0-0.3,0-0.4-0.1c-0.4-0.2-0.6-0.5-0.6-0.9c0-0.1,0-0.2,0.1-0.4c0,0,0.1-0.3,0.4-0.9
				c0.3-0.6,0.6-1.3,0.9-2.1c0.4-0.9,0.8-1.8,1.3-2.9c0.5-1,0.9-2.1,1.3-3c-0.6,0.1-1.2,0.1-1.6,0.2c-0.4,0.1-0.7,0.1-0.7,0.1
				c-0.3,0-0.5-0.1-0.6-0.2c-0.2-0.2-0.3-0.4-0.3-0.7c0-0.3,0.1-0.5,0.2-0.6s0.4-0.3,0.6-0.3c0,0,0.4,0,1-0.1
				c0.6-0.1,1.4-0.2,2.3-0.3c0.2-0.4,0.3-0.8,0.5-1.1c0.1-0.3,0.2-0.6,0.3-0.9c0.2-0.6,0.5-1.4,0.9-2.5c0.4-1,0.8-2.1,1.3-3.2
				c0.5-1.1,0.9-2.2,1.4-3.2c0.5-1,0.9-1.9,1.2-2.6c0-0.4,0.2-0.6,0.6-0.8c0.1,0,0.2-0.1,0.4-0.1c0.2,0,0.3,0,0.5,0.1
				c0.3,0.2,0.5,0.4,0.5,0.8c0.3,0.7,0.6,1.6,1.1,2.6c0.4,1.1,0.8,2.1,1.2,3.3c0.4,1.1,0.8,2.2,1.1,3.2
				C-117.5,452.7-117.2,453.5-117,454.2z M-123.7,455.9c1.2,0,2.3,0,3.2,0.1c0.9,0.1,1.6,0.2,2.1,0.2c-0.1-0.3-0.2-0.6-0.3-0.9
				c-0.1-0.3-0.2-0.5-0.2-0.7c-0.1-0.6-0.3-1.2-0.6-2c-0.3-0.8-0.5-1.6-0.8-2.5c-0.3-0.9-0.6-1.8-0.9-2.7c-0.3-0.9-0.6-1.7-0.9-2.4
				c-0.3,0.7-0.7,1.5-1.1,2.4c-0.4,0.9-0.7,1.8-1.1,2.7c-0.4,0.9-0.7,1.7-1,2.5c-0.3,0.8-0.6,1.5-0.7,2c0,0.2-0.1,0.4-0.2,0.6
				c-0.1,0.2-0.2,0.4-0.3,0.7C-125.7,455.9-124.7,455.9-123.7,455.9z"/>
			<path class="st0" d="M-83.7,453.9c0,0.4,0,1.1,0.1,1.9c0.1,0.8,0.1,1.7,0.2,2.6c0.1,1,0.2,1.9,0.3,2.9c0.1,1,0.2,1.9,0.3,2.7
				c0.1,0.8,0.1,1.5,0.2,2c0.1,0.5,0.1,0.8,0.1,0.8c0,0.3-0.1,0.5-0.2,0.7c-0.2,0.2-0.4,0.3-0.7,0.3c-0.3,0-0.5-0.1-0.6-0.2
				c-0.2-0.2-0.3-0.4-0.3-0.6c0-0.1,0-0.4-0.1-0.9c-0.1-0.6-0.1-1.2-0.2-2.1c-0.1-0.8-0.2-1.7-0.3-2.7c-0.1-1-0.2-2-0.3-2.9
				c-0.1-1-0.1-1.8-0.2-2.6c-0.1-0.8-0.1-1.4-0.1-1.9c0-0.5,0-1.1,0-1.8c0-0.7-0.1-1.4-0.1-2.2c-0.1-0.8-0.1-1.6-0.2-2.4
				c-0.1-0.8-0.1-1.6-0.2-2.3c-0.6,0.9-1.2,1.9-1.8,2.8c-0.7,1-1.3,1.8-1.8,2.6c-0.2,0.3-0.5,0.8-0.9,1.4c-0.4,0.6-0.8,1.4-1.3,2.1
				c-0.4,0.8-0.9,1.6-1.3,2.4c-0.4,0.8-0.9,1.6-1.2,2.2c-0.4,0.7-0.7,1.2-0.9,1.7c-0.2,0.4-0.4,0.7-0.4,0.7
				c-0.2,0.3-0.5,0.5-0.8,0.5c-0.2,0-0.3,0-0.5-0.1c-0.3-0.2-0.5-0.5-0.5-0.9c0-0.2,0-0.3,0.1-0.4l0.5-1.2c0,0-0.2-0.3-0.6-0.7
				c-0.3-0.4-0.7-0.9-1.2-1.5c-0.5-0.6-1-1.3-1.6-2c-0.6-0.7-1.1-1.5-1.7-2.2c-0.5-0.7-1-1.4-1.5-2c-0.4-0.6-0.8-1.1-1-1.5
				c-0.4-0.6-0.8-1.4-1.3-2.1c-0.5-0.8-1-1.5-1.5-2.3c0.1,0.8,0.2,1.6,0.2,2.4c0.1,0.9,0.1,1.7,0.2,2.5c0,0.8,0.1,1.6,0.1,2.3
				c0,0.7,0.1,1.3,0.1,1.8c0,0.4,0,1.1,0.1,1.9c0.1,0.8,0.1,1.7,0.2,2.6c0.1,1,0.2,1.9,0.3,2.9c0.1,1,0.2,1.9,0.3,2.7
				c0.1,0.8,0.2,1.5,0.2,2c0.1,0.5,0.1,0.8,0.1,0.8c0,0.3-0.1,0.5-0.3,0.7c-0.2,0.2-0.4,0.3-0.7,0.3c-0.3,0-0.5-0.1-0.6-0.2
				c-0.2-0.2-0.3-0.4-0.3-0.6c0-0.1,0-0.4-0.1-0.9c-0.1-0.6-0.1-1.2-0.2-2.1c-0.1-0.8-0.2-1.7-0.3-2.7c-0.1-1-0.2-2-0.3-2.9
				c-0.1-1-0.1-1.8-0.2-2.6c-0.1-0.8-0.1-1.4-0.1-1.9c0-0.7,0-1.6-0.1-2.7c-0.1-1.1-0.1-2.2-0.2-3.3c-0.1-1.1-0.2-2.2-0.3-3.3
				c-0.1-1-0.2-1.9-0.3-2.5c0,0,0-0.1,0-0.2c0-0.1,0-0.2,0-0.3c0-0.3,0.1-0.5,0.3-0.7c0.2-0.2,0.5-0.3,0.7-0.3
				c0.3,0,0.5,0.1,0.7,0.3c0.4,0.4,0.9,1,1.3,1.6c0.5,0.6,0.9,1.2,1.4,1.9c0.4,0.7,0.9,1.3,1.3,2c0.4,0.7,0.8,1.3,1.2,1.8
				c0.3,0.4,0.7,1.1,1.3,1.9c0.6,0.8,1.3,1.7,2,2.6c0.7,0.9,1.4,1.8,2.1,2.6c0.7,0.8,1.2,1.5,1.5,1.9c0.4-0.7,0.8-1.4,1.2-2.2
				c0.4-0.8,0.9-1.5,1.3-2.2c0.4-0.7,0.8-1.4,1.2-2c0.4-0.6,0.7-1.1,0.9-1.4c0.4-0.5,0.8-1.1,1.2-1.7c0.4-0.6,0.9-1.2,1.3-1.9
				c0.4-0.6,0.8-1.3,1.2-1.9c0.4-0.6,0.7-1.2,0.9-1.7c0-0.1,0.1-0.2,0.3-0.4c0.1-0.4,0.4-0.7,1-0.8c0.5,0,0.8,0.3,0.9,0.8
				c0.1,0.6,0.3,1.5,0.4,2.6c0.1,1.1,0.2,2.2,0.3,3.4c0.1,1.2,0.2,2.3,0.2,3.4C-83.7,452.4-83.7,453.3-83.7,453.9z"/>
			<path class="st0" d="M-75.4,453.9c0,0.4,0,1.1,0.1,1.9c0.1,0.8,0.1,1.7,0.2,2.6c0.1,1,0.2,1.9,0.3,2.9c0.1,1,0.2,1.9,0.3,2.7
				c0.1,0.8,0.2,1.5,0.2,2c0.1,0.5,0.1,0.8,0.1,0.8c0,0.3-0.1,0.5-0.3,0.7c-0.2,0.2-0.4,0.3-0.7,0.3c-0.3,0-0.5-0.1-0.6-0.2
				c-0.2-0.2-0.3-0.4-0.3-0.6c0-0.1,0-0.4-0.1-0.9c-0.1-0.6-0.1-1.2-0.2-2.1c-0.1-0.8-0.2-1.7-0.3-2.7c-0.1-1-0.2-2-0.3-2.9
				c-0.1-1-0.1-1.8-0.2-2.6c-0.1-0.8-0.1-1.4-0.1-1.9c0-0.7,0-1.6-0.1-2.7c-0.1-1.1-0.1-2.2-0.2-3.3c-0.1-1.1-0.2-2.2-0.3-3.3
				c-0.1-1-0.2-1.9-0.3-2.5c0-0.2,0.1-0.4,0.2-0.6c0.2-0.2,0.4-0.3,0.7-0.3c0.2,0,0.4,0.1,0.6,0.2c0.2,0.1,0.3,0.3,0.3,0.6
				c0.1,0.6,0.2,1.5,0.3,2.6c0.1,1.1,0.2,2.2,0.3,3.4c0.1,1.2,0.2,2.3,0.2,3.4C-75.5,452.4-75.4,453.3-75.4,453.9z"/>
			<path class="st0" d="M-51.8,453.9c0,0.4,0,1.1,0.1,1.9c0.1,0.8,0.1,1.7,0.2,2.6c0.1,1,0.2,1.9,0.3,2.9c0.1,1,0.2,1.9,0.3,2.7
				c0.1,0.8,0.2,1.5,0.2,2c0.1,0.5,0.1,0.8,0.1,0.8c0,0.4-0.2,0.8-0.7,1c-0.2,0.1-0.3,0.1-0.5,0.1c-0.3,0-0.6-0.1-0.8-0.4
				c0-0.1-0.3-0.4-0.6-0.9c-0.4-0.6-0.8-1.2-1.3-2.1c-0.5-0.8-1.1-1.7-1.8-2.7c-0.7-1-1.3-2-1.9-2.9c-0.6-0.9-1.1-1.8-1.7-2.6
				c-0.5-0.8-0.9-1.4-1.1-1.9c-0.4-0.6-0.8-1.5-1.4-2.4c-0.6-1-1.2-2-1.9-3c-0.7-1-1.3-2-1.9-3c-0.6-1-1.2-1.8-1.7-2.5
				c0.1,0.8,0.2,1.6,0.3,2.6c0.1,1,0.2,1.9,0.2,2.9c0.1,1,0.1,1.9,0.2,2.7c0,0.9,0.1,1.6,0.1,2.1c0,0.4,0,1.1,0.1,1.9
				c0.1,0.8,0.1,1.7,0.2,2.6c0.1,1,0.2,1.9,0.3,2.9c0.1,1,0.2,1.9,0.3,2.7c0.1,0.8,0.2,1.5,0.2,2c0.1,0.5,0.1,0.8,0.1,0.8
				c0,0.3-0.1,0.5-0.3,0.7c-0.2,0.2-0.4,0.3-0.7,0.3c-0.3,0-0.5-0.1-0.7-0.2c-0.2-0.2-0.3-0.4-0.3-0.6c0-0.1,0-0.4-0.1-0.9
				c-0.1-0.6-0.1-1.2-0.2-2.1c-0.1-0.8-0.2-1.7-0.3-2.7c-0.1-1-0.2-2-0.3-2.9c-0.1-1-0.1-1.8-0.2-2.6c-0.1-0.8-0.1-1.4-0.1-1.9
				c0-0.7,0-1.6-0.1-2.7c-0.1-1.1-0.1-2.2-0.2-3.3c-0.1-1.1-0.2-2.2-0.3-3.3c-0.1-1-0.2-1.9-0.3-2.5c0-0.2,0.1-0.4,0.2-0.6
				c0.2-0.2,0.4-0.3,0.7-0.3c0.2,0,0.4,0,0.5,0.1s0.3,0.1,0.4,0.2c0.2-0.1,0.4-0.2,0.6-0.2c0.3,0,0.6,0.1,0.8,0.4
				c0.3,0.4,0.7,0.9,1.1,1.6c0.4,0.6,0.9,1.3,1.4,2.1c0.5,0.7,1,1.5,1.5,2.3c0.5,0.8,1,1.5,1.4,2.3c0.5,0.7,0.9,1.4,1.2,2.1
				c0.4,0.6,0.7,1.2,0.9,1.6c0.3,0.5,0.6,1.1,1.1,1.9c0.5,0.8,1.1,1.7,1.7,2.7c0.6,1,1.3,1.9,1.9,2.9c0.7,1,1.2,1.9,1.8,2.7
				c-0.1-0.8-0.2-1.7-0.3-2.7c-0.1-1-0.2-1.9-0.3-2.8c-0.1-0.9-0.1-1.8-0.2-2.6c0-0.8-0.1-1.4-0.1-1.9c0-0.7,0-1.6-0.1-2.7
				c-0.1-1.1-0.1-2.2-0.2-3.3c-0.1-1.1-0.2-2.2-0.3-3.3c-0.1-1-0.2-1.9-0.3-2.5c0-0.2,0.1-0.4,0.2-0.6c0.2-0.2,0.4-0.3,0.7-0.3
				c0.2,0,0.4,0.1,0.6,0.2c0.2,0.1,0.3,0.3,0.3,0.6c0.1,0.6,0.2,1.5,0.3,2.6c0.1,1.1,0.2,2.2,0.3,3.4c0.1,1.2,0.2,2.3,0.2,3.4
				C-51.8,452.4-51.8,453.3-51.8,453.9z"/>
			<path class="st0" d="M-30.6,454.2c0.1,0.4,0.3,1.1,0.6,1.9c0.3,0.8,0.6,1.7,0.9,2.6c0.3,1,0.7,1.9,1.1,2.9c0.4,1,0.7,1.9,1,2.7
				c0.3,0.8,0.6,1.5,0.8,2c0.2,0.5,0.3,0.8,0.3,0.8c0,0.1,0.1,0.2,0.1,0.3c0,0.4-0.2,0.7-0.6,0.9c-0.1,0-0.2,0.1-0.3,0.1
				c-0.2,0-0.4-0.1-0.5-0.2c-0.2-0.1-0.3-0.3-0.4-0.5c0-0.1-0.2-0.4-0.4-1.1s-0.6-1.4-0.9-2.3c-0.4-0.9-0.8-1.9-1.2-3
				c-0.4-1.1-0.9-2.1-1.3-3.1c-0.5-0.1-1-0.1-1.6-0.2c-0.5,0-1.1-0.1-1.8-0.2c-0.7-0.1-1.5-0.1-2.4-0.1c-0.6,0-1.2,0-1.8,0.1
				c-0.6,0-1.2,0.1-1.8,0.1c-0.4,1-0.9,2-1.3,3.2c-0.5,1.1-0.9,2.2-1.4,3.1c-0.4,1-0.8,1.8-1.1,2.5c-0.3,0.7-0.5,1.1-0.5,1.1
				c-0.2,0.4-0.5,0.6-0.9,0.6c-0.2,0-0.3,0-0.4-0.1c-0.4-0.2-0.6-0.5-0.6-0.9c0-0.1,0-0.2,0.1-0.4c0,0,0.1-0.3,0.4-0.9
				c0.3-0.6,0.6-1.3,0.9-2.1c0.4-0.9,0.8-1.8,1.3-2.9c0.5-1,0.9-2.1,1.3-3c-0.6,0.1-1.2,0.1-1.6,0.2c-0.4,0.1-0.7,0.1-0.7,0.1
				c-0.3,0-0.5-0.1-0.6-0.2c-0.2-0.2-0.3-0.4-0.3-0.7c0-0.3,0.1-0.5,0.2-0.6c0.1-0.2,0.4-0.3,0.6-0.3c0,0,0.4,0,1-0.1
				c0.6-0.1,1.4-0.2,2.3-0.3c0.2-0.4,0.3-0.8,0.5-1.1c0.1-0.3,0.2-0.6,0.3-0.9c0.2-0.6,0.5-1.4,0.9-2.5c0.4-1,0.8-2.1,1.3-3.2
				c0.5-1.1,0.9-2.2,1.4-3.2c0.5-1,0.9-1.9,1.2-2.6c0-0.4,0.2-0.6,0.6-0.8c0.1,0,0.2-0.1,0.4-0.1c0.2,0,0.3,0,0.5,0.1
				c0.3,0.2,0.5,0.4,0.5,0.8c0.3,0.7,0.6,1.6,1.1,2.6c0.4,1.1,0.8,2.1,1.2,3.3c0.4,1.1,0.8,2.2,1.1,3.2
				C-31,452.7-30.7,453.5-30.6,454.2z M-37.3,455.9c1.2,0,2.3,0,3.2,0.1c0.9,0.1,1.6,0.2,2.1,0.2c-0.1-0.3-0.2-0.6-0.3-0.9
				c-0.1-0.3-0.2-0.5-0.2-0.7c-0.1-0.6-0.3-1.2-0.6-2c-0.3-0.8-0.5-1.6-0.8-2.5c-0.3-0.9-0.6-1.8-0.9-2.7c-0.3-0.9-0.6-1.7-0.9-2.4
				c-0.3,0.7-0.7,1.5-1.1,2.4c-0.4,0.9-0.7,1.8-1.1,2.7c-0.4,0.9-0.7,1.7-1,2.5c-0.3,0.8-0.6,1.5-0.7,2c0,0.2-0.1,0.4-0.2,0.6
				c-0.1,0.2-0.2,0.4-0.3,0.7C-39.2,455.9-38.2,455.9-37.3,455.9z"/>
		</g>
	</g>
</g>
<g>
	<g>
		<g>
			<path class="st1" d="M-179.6,433.6c0.5,0.1,0.8,0.5,0.8,1.1c0,0.3-0.2,0.4-0.4,0.6c-0.2,0.1-0.5,0.2-0.8,0.2c0,0-0.6-0.1-1.6-0.2
				c-1-0.1-2.5-0.2-4.3-0.2c-0.9,0-1.8,0-2.8,0.1c-0.9,0.1-1.8,0.1-2.6,0.2s-1.4,0.1-2,0.2c-0.5,0.1-0.8,0.1-0.8,0.1h-0.7
				c-0.3,0-0.5-0.1-0.7-0.2c-0.2-0.2-0.3-0.4-0.3-0.6c0-0.1-0.1-0.4-0.1-0.9c-0.1-0.6-0.1-1.2-0.2-2.1c-0.1-0.8-0.2-1.7-0.3-2.7
				c-0.1-1-0.2-2-0.3-2.9s-0.1-1.8-0.2-2.6c-0.1-0.8-0.1-1.4-0.1-1.9c0-0.7,0-1.6-0.1-2.7c-0.1-1.1-0.1-2.2-0.2-3.3
				c-0.1-1.1-0.2-2.2-0.3-3.3c-0.1-1-0.2-1.9-0.3-2.5c0-0.2,0.1-0.4,0.2-0.6c0.2-0.2,0.4-0.3,0.7-0.3c0.5,0,0.8,0.2,0.9,0.7
				c0.2-0.2,0.4-0.4,0.7-0.4c0,0,0.3,0,0.8-0.1c0.5-0.1,1.2-0.1,2-0.2c0.8-0.1,1.7-0.2,2.6-0.2c1-0.1,1.9-0.1,2.9-0.1
				c1.9,0,3.4,0.1,4.5,0.2c1.1,0.2,1.7,0.3,1.7,0.3c0.5,0.1,0.8,0.5,0.8,1.1c-0.1,0.5-0.5,0.8-1.2,0.8c-0.5-0.1-1-0.1-1.6-0.2
				c-0.5,0-1.1-0.1-1.8-0.2c-0.7-0.1-1.5-0.1-2.4-0.1c-0.9,0-1.8,0-2.8,0.1c-0.9,0.1-1.8,0.1-2.6,0.2c-0.8,0.1-1.4,0.2-2,0.2
				c-0.5,0.1-0.8,0.1-0.8,0.1c-0.2,0-0.4-0.1-0.6-0.2c0.1,0.8,0.2,1.6,0.3,2.6c0.1,1,0.2,2,0.2,3c0.1,1,0.1,1.9,0.2,2.8
				c0,0.9,0.1,1.6,0.1,2.2c0.2,0,0.5-0.1,1-0.1c0.5-0.1,1-0.1,1.6-0.2c0.6-0.1,1.3-0.1,2.1-0.2c0.8,0,1.5-0.1,2.3-0.1
				c0.3,0,0.5,0.1,0.7,0.3c0.2,0.2,0.3,0.4,0.3,0.7c0,0.3-0.1,0.5-0.3,0.7c-0.2,0.2-0.4,0.3-0.7,0.3c-0.8,0-1.7,0.1-2.5,0.2
				s-1.5,0.1-2.2,0.2c-0.6,0.1-1.2,0.1-1.6,0.2c-0.4,0.1-0.7,0.1-0.8,0.1c0,0.8,0.1,1.7,0.2,2.6c0.1,1,0.2,1.9,0.3,2.9
				c0.1,1,0.2,1.8,0.3,2.7s0.2,1.5,0.2,2c0.3,0,0.7-0.1,1.3-0.1c0.6-0.1,1.2-0.1,1.9-0.2c0.7-0.1,1.5-0.1,2.3-0.2
				c0.8,0,1.6-0.1,2.4-0.1c1.9,0,3.4,0.1,4.5,0.2C-180.2,433.5-179.7,433.6-179.6,433.6z"/>
			<path class="st1" d="M-165.5,418.2c1.1,0.3,2.1,0.8,3,1.5c0.9,0.7,1.6,1.4,2.2,2.3c0.6,0.9,1.1,1.8,1.4,2.7
				c0.3,0.9,0.5,1.8,0.5,2.6l0,0.5c0,0.6-0.1,1.3-0.1,2c-0.1,0.7-0.3,1.4-0.6,2.1c-0.3,0.7-0.9,1.3-1.6,1.9
				c-0.7,0.6-1.8,1.1-3.1,1.4c-0.7,0.2-1.3,0.4-1.8,0.4c-0.5,0.1-1.1,0.1-1.6,0.1c-0.7,0-1.5-0.1-2.2-0.2c-0.7-0.2-1.6-0.4-2.6-0.7
				c-0.9-0.2-1.7-0.6-2.4-1.1c-0.7-0.5-1.2-1-1.7-1.6c-0.4-0.5-0.8-1-1-1.4c-0.2-0.4-0.3-0.6-0.3-0.7c-0.1-0.1-0.1-0.2-0.1-0.4
				c0-0.4,0.2-0.7,0.6-0.9c0.2,0,0.3-0.1,0.4-0.1c0.2,0,0.4,0.1,0.5,0.2c0.2,0.1,0.3,0.2,0.4,0.4l0.2,0.4c0.2,0.3,0.4,0.7,0.8,1.1
				c0.3,0.4,0.8,0.8,1.3,1.2c0.5,0.4,1.2,0.7,1.9,0.9c1,0.3,1.8,0.4,2.4,0.6c0.6,0.1,1.2,0.2,1.8,0.2c0.8,0,1.7-0.1,2.9-0.4
				c1-0.3,1.8-0.6,2.3-1c0.6-0.4,1-0.8,1.2-1.3c0.3-0.5,0.4-1,0.5-1.6c0.1-0.6,0.1-1.1,0.1-1.7l0-0.6c0-0.5-0.1-1.1-0.4-1.8
				c-0.2-0.7-0.6-1.4-1.1-2.1s-1-1.3-1.7-1.9c-0.7-0.6-1.5-1-2.4-1.2c-0.6-0.2-1.3-0.3-2-0.4c-0.7-0.1-1.4-0.1-2.1-0.2
				c-0.8-0.1-1.6-0.1-2.4-0.2c-0.8-0.1-1.5-0.3-2.1-0.5c-0.6-0.2-1.1-0.6-1.5-1c-0.4-0.4-0.6-1-0.7-1.7c0-0.1,0-0.2,0-0.2
				c0-0.1,0-0.1,0-0.2c0-0.9,0.2-1.7,0.5-2.3c0.4-0.6,0.8-1.2,1.3-1.6c0.5-0.4,1.1-0.8,1.6-1.1c0.6-0.3,1.1-0.5,1.5-0.7
				c0.5-0.3,1.2-0.4,1.9-0.5c0.7-0.1,1.6-0.2,2.4-0.2c0.8,0,1.6,0,2.4,0.1c0.8,0.1,1.6,0.2,2.3,0.4c0.5,0.1,0.7,0.5,0.7,1.1
				c0,0.2-0.2,0.4-0.4,0.6c-0.2,0.1-0.5,0.2-0.8,0.2c-0.7-0.2-1.4-0.3-2.1-0.4c-0.7-0.1-1.5-0.1-2.2-0.1c-0.7,0-1.4,0-2,0.1
				c-0.6,0.1-1.1,0.2-1.5,0.4c-0.5,0.2-1,0.4-1.4,0.7c-0.5,0.2-0.9,0.5-1.2,0.8c-0.3,0.3-0.6,0.7-0.8,1.1c-0.2,0.4-0.3,1-0.3,1.6
				c0,0.6,0.5,1,1.4,1.2c0.9,0.2,2,0.4,3.5,0.5c0.7,0.1,1.5,0.1,2.2,0.2C-166.9,417.9-166.2,418-165.5,418.2z"/>
			<path class="st1" d="M-142.4,410.1c0.9,0.2,1.6,0.6,2.3,1.1c0.7,0.5,1.2,1.1,1.7,1.8c0.4,0.7,0.8,1.4,1,2.1
				c0.2,0.7,0.3,1.4,0.3,2c0,0.1,0,0.2,0,0.2c0,0.1,0,0.1,0,0.2l0,0.4c0,0.5-0.1,1-0.2,1.6c-0.1,0.6-0.3,1.1-0.7,1.7
				c-0.3,0.6-0.8,1.1-1.4,1.6c-0.6,0.5-1.5,0.9-2.6,1.2c-0.7,0.2-1.5,0.3-2.4,0.4c-0.9,0.1-1.8,0.1-2.8,0.1c-0.5,0-1,0-1.5,0
				c-0.5,0-1,0-1.6,0c-0.3,0-0.6,0-0.9,0c-0.3,0-0.6,0-0.9,0c0.1,1,0.2,2.1,0.3,3.3c0.1,1.2,0.2,2.2,0.3,3.3c0.1,1,0.2,1.9,0.3,2.6
				c0.1,0.7,0.1,1.1,0.1,1.1c0,0.3-0.1,0.5-0.3,0.7c-0.2,0.2-0.4,0.3-0.7,0.3c-0.3,0-0.5-0.1-0.7-0.2c-0.2-0.2-0.3-0.4-0.3-0.6
				c0-0.1-0.1-0.4-0.1-0.9c-0.1-0.6-0.1-1.2-0.2-2.1c-0.1-0.8-0.2-1.7-0.3-2.7c-0.1-1-0.2-2-0.3-2.9s-0.1-1.8-0.2-2.6
				c-0.1-0.8-0.1-1.4-0.1-1.9c0-0.6,0-1.3-0.1-2.1c0-0.8-0.1-1.7-0.2-2.6c-0.1-0.9-0.1-1.8-0.2-2.7c-0.1-0.9-0.2-1.7-0.3-2.5
				c0,0-0.1-0.1-0.1-0.2c0-0.1-0.1-0.2-0.1-0.4c0-0.1,0-0.2,0.1-0.3c0-0.1,0-0.2-0.1-0.4c0-0.1,0-0.3-0.1-0.5c0-0.2,0.1-0.4,0.2-0.6
				c0.2-0.2,0.4-0.3,0.7-0.3c0.2,0,0.4,0.1,0.6,0.2c0.2,0.2,0.3,0.4,0.3,0.7c0.8-0.2,1.6-0.4,2.3-0.5c0.7-0.1,1.5-0.2,2.4-0.2
				c0.8,0,1.7,0.1,2.7,0.2C-145,409.6-143.8,409.8-142.4,410.1z M-139.1,417.2c0-0.4-0.1-0.8-0.2-1.4s-0.4-1-0.7-1.5
				c-0.3-0.5-0.7-1-1.2-1.4c-0.5-0.4-1-0.7-1.7-0.9c-1.2-0.3-2.3-0.6-3.2-0.7c-0.9-0.1-1.7-0.2-2.4-0.2c-0.8,0-1.5,0.1-2.2,0.2
				c-0.7,0.1-1.4,0.3-2.2,0.5c0.1,0.8,0.2,1.6,0.3,2.6c0.1,0.9,0.1,1.8,0.2,2.7c0.1,0.9,0.1,1.7,0.1,2.6c0,0.8,0.1,1.5,0.1,2
				c0,0.1,0,0.3,0,0.4c0,0.2,0,0.3,0,0.5c0.3,0,0.6,0,0.9,0c0.3,0,0.6,0,0.9,0c0.5,0,1,0,1.5,0c0.5,0,1,0,1.5,0c0.9,0,1.8,0,2.6-0.1
				c0.8,0,1.5-0.1,2.1-0.3c0.8-0.2,1.4-0.5,1.9-0.8c0.5-0.3,0.8-0.6,1-1c0.2-0.4,0.4-0.8,0.5-1.2c0.1-0.4,0.1-0.9,0.2-1.3l0-0.4
				L-139.1,417.2z"/>
			<path class="st1" d="M-120.6,421.9c0.1,0.4,0.3,1.1,0.6,1.9c0.3,0.8,0.6,1.7,0.9,2.6s0.7,1.9,1.1,2.9c0.4,1,0.7,1.9,1,2.7
				s0.6,1.5,0.8,2c0.2,0.5,0.3,0.8,0.3,0.8c0,0.1,0.1,0.2,0.1,0.3c0,0.4-0.2,0.7-0.6,0.9c-0.1,0-0.2,0.1-0.3,0.1
				c-0.2,0-0.4-0.1-0.5-0.2s-0.3-0.3-0.4-0.5c0-0.1-0.2-0.4-0.4-1.1c-0.3-0.6-0.6-1.4-0.9-2.3c-0.4-0.9-0.8-1.9-1.2-3
				c-0.4-1.1-0.9-2.1-1.3-3.1c-0.5-0.1-1-0.1-1.6-0.2c-0.5,0-1.1-0.1-1.8-0.2c-0.7-0.1-1.5-0.1-2.4-0.1c-0.6,0-1.2,0-1.8,0.1
				c-0.6,0-1.2,0.1-1.8,0.1c-0.4,1-0.9,2-1.3,3.2c-0.5,1.1-0.9,2.2-1.4,3.1c-0.4,1-0.8,1.8-1.1,2.5c-0.3,0.7-0.5,1.1-0.5,1.1
				c-0.2,0.4-0.5,0.6-0.9,0.6c-0.2,0-0.3,0-0.4-0.1c-0.4-0.2-0.6-0.5-0.6-0.9c0-0.1,0-0.2,0.1-0.4c0,0,0.1-0.3,0.4-0.9
				c0.3-0.6,0.6-1.3,0.9-2.1c0.4-0.9,0.8-1.8,1.3-2.9c0.5-1,0.9-2.1,1.3-3c-0.6,0.1-1.2,0.1-1.6,0.2c-0.4,0.1-0.7,0.1-0.7,0.1
				c-0.3,0-0.5-0.1-0.6-0.2c-0.2-0.2-0.3-0.4-0.3-0.7c0-0.3,0.1-0.5,0.2-0.6c0.1-0.2,0.4-0.3,0.6-0.3c0,0,0.4,0,1-0.1
				c0.6-0.1,1.4-0.2,2.3-0.3c0.2-0.4,0.3-0.8,0.5-1.1c0.1-0.3,0.2-0.6,0.3-0.9c0.2-0.6,0.5-1.4,0.9-2.5s0.8-2.1,1.3-3.2
				c0.5-1.1,0.9-2.2,1.4-3.2c0.5-1,0.9-1.9,1.2-2.6c0-0.4,0.2-0.6,0.6-0.8c0.1,0,0.2-0.1,0.4-0.1c0.2,0,0.3,0,0.5,0.1
				c0.3,0.2,0.5,0.4,0.5,0.8c0.3,0.7,0.6,1.6,1.1,2.6c0.4,1.1,0.8,2.1,1.2,3.3c0.4,1.1,0.8,2.2,1.1,3.2S-120.8,421.3-120.6,421.9z
				 M-127.3,423.6c1.2,0,2.3,0,3.2,0.1c0.9,0.1,1.6,0.2,2.1,0.2c-0.1-0.3-0.2-0.6-0.3-0.9c-0.1-0.3-0.2-0.5-0.2-0.7
				c-0.1-0.6-0.3-1.2-0.6-2c-0.3-0.8-0.5-1.6-0.8-2.5c-0.3-0.9-0.6-1.8-0.9-2.7c-0.3-0.9-0.6-1.7-0.9-2.4c-0.3,0.7-0.7,1.5-1.1,2.4
				c-0.4,0.9-0.7,1.8-1.1,2.7c-0.4,0.9-0.7,1.7-1,2.5c-0.3,0.8-0.6,1.5-0.7,2c0,0.2-0.1,0.4-0.2,0.6c-0.1,0.2-0.2,0.4-0.3,0.7
				C-129.3,423.6-128.3,423.6-127.3,423.6z"/>
			<path class="st1" d="M-97.3,431.3c0.2-0.2,0.4-0.3,0.7-0.3c0.3,0,0.5,0.1,0.7,0.2c0.2,0.2,0.3,0.4,0.3,0.7c0,0.3-0.1,0.5-0.3,0.7
				c0,0-0.2,0.2-0.5,0.5c-0.3,0.3-0.8,0.6-1.4,1c-0.6,0.3-1.3,0.7-2.1,0.9c-0.8,0.3-1.8,0.4-2.8,0.4c-1.2,0-2.5-0.2-3.9-0.7
				c-1.4-0.5-2.7-1.2-3.9-2.3c-1.2-1.1-2.2-2.4-3-4.1c-0.8-1.7-1.2-3.8-1.2-6.2c0-0.8,0-1.4,0.1-2c0-0.6,0.1-1.1,0.2-1.5
				c0.1-0.4,0.2-0.9,0.4-1.2c0.1-0.4,0.3-0.7,0.5-1.1c0,0,0.2-0.3,0.5-0.8c0.3-0.5,0.7-1.1,1.2-1.8c0.5-0.7,1-1.3,1.6-1.9
				c0.6-0.6,1.2-1.1,1.7-1.4c0.7-0.3,1.3-0.5,2-0.7c0.7-0.1,1.3-0.2,1.9-0.2c0.6,0,1.2,0.1,1.7,0.2c0.2,0,0.5,0.1,0.9,0.3
				c0.4,0.1,0.7,0.3,1.1,0.4c0.4,0.2,0.7,0.3,1.1,0.5c0.3,0.2,0.6,0.4,0.7,0.5c0.2,0.3,0.3,0.6,0.4,0.9c0.1,0.4,0.1,0.7,0.1,1
				c0,0.3-0.1,0.5-0.3,0.7c-0.2,0.2-0.4,0.3-0.7,0.3c-0.3,0-0.5-0.1-0.7-0.3c-0.2-0.2-0.3-0.4-0.3-0.7c0-0.1,0-0.2,0-0.4
				c0-0.1,0-0.3,0-0.3c-0.2-0.1-0.6-0.3-1.2-0.5c-0.5-0.2-1.1-0.4-1.5-0.5c-0.2,0-0.4-0.1-0.6-0.1c-0.2,0-0.4,0-0.6,0
				c-0.5,0-1,0.1-1.5,0.2c-0.5,0.1-1.1,0.3-1.5,0.5c-0.3,0.1-0.7,0.4-1.1,0.8c-0.4,0.4-0.8,0.8-1.1,1.3s-0.7,1-1.1,1.5
				c-0.3,0.5-0.6,1-0.9,1.4c-0.2,0.3-0.3,0.6-0.4,0.9c-0.1,0.3-0.2,0.6-0.3,1c-0.1,0.4-0.1,0.8-0.2,1.3c0,0.5-0.1,1-0.1,1.7
				c0,1.6,0.2,2.9,0.6,4.1c0.4,1.2,0.8,2.2,1.4,3s1.3,1.6,2,2.1c0.7,0.6,1.5,1,2.2,1.3c0.7,0.3,1.5,0.6,2.1,0.7
				c0.7,0.1,1.2,0.2,1.7,0.2c0.8,0,1.6-0.1,2.2-0.3c0.7-0.2,1.2-0.5,1.7-0.8c0.5-0.3,0.8-0.5,1.1-0.8L-97.3,431.3z"/>
			<path class="st1" d="M-90.8,421.6c0,0.4,0,1.1,0.1,1.9c0.1,0.8,0.1,1.7,0.2,2.6c0.1,1,0.2,1.9,0.3,2.9c0.1,1,0.2,1.9,0.3,2.7
				c0.1,0.8,0.2,1.5,0.2,2c0.1,0.5,0.1,0.8,0.1,0.8c0,0.3-0.1,0.5-0.3,0.7c-0.2,0.2-0.4,0.3-0.7,0.3c-0.3,0-0.5-0.1-0.6-0.2
				c-0.2-0.2-0.3-0.4-0.3-0.6c0-0.1,0-0.4-0.1-0.9c-0.1-0.6-0.1-1.2-0.2-2.1c-0.1-0.8-0.2-1.7-0.3-2.7c-0.1-1-0.2-2-0.3-2.9
				c-0.1-1-0.1-1.8-0.2-2.6c-0.1-0.8-0.1-1.4-0.1-1.9c0-0.7,0-1.6-0.1-2.7c-0.1-1.1-0.1-2.2-0.2-3.3c-0.1-1.1-0.2-2.2-0.3-3.3
				c-0.1-1-0.2-1.9-0.3-2.5c0-0.2,0.1-0.4,0.2-0.6c0.2-0.2,0.4-0.3,0.7-0.3c0.2,0,0.4,0.1,0.6,0.2c0.2,0.1,0.3,0.3,0.3,0.6
				c0.1,0.6,0.2,1.5,0.3,2.6c0.1,1.1,0.2,2.2,0.3,3.4s0.2,2.3,0.2,3.4C-90.8,420.1-90.8,421-90.8,421.6z"/>
			<path class="st1" d="M-69.8,410.2c0.5,0.3,0.9,0.7,1.5,1.2c0.5,0.5,1,1,1.5,1.7c0.5,0.6,1,1.4,1.4,2.2c0.4,0.8,0.8,1.7,1.1,2.8
				c0.3,1.2,0.5,2.4,0.5,3.6c0,1.2-0.2,2.3-0.5,3.5c-0.3,1.2-0.8,2.3-1.4,3.4c-0.8,1.5-1.8,2.7-2.9,3.8c-1.1,1.1-2.2,1.8-3.3,2.1
				c-1.1,0.3-2.3,0.5-3.5,0.5c-1.4,0-2.7-0.2-4-0.7c-0.5-0.2-1-0.4-1.6-0.7c-0.6-0.3-1.1-0.7-1.6-1.2c-0.5-0.5-1-1.1-1.5-1.7
				c-0.4-0.7-0.8-1.5-1.1-2.4c-0.4-1.2-0.6-2.7-0.6-4.4c0-1.1,0.1-2.2,0.3-3.4c0.2-1.2,0.4-2.4,0.8-3.5c0.6-2.2,1.5-4,2.5-5.4
				c1-1.4,2.2-2.3,3.4-2.7c0.3-0.1,0.7-0.1,1.1-0.1c0.1,0,0.2,0,0.3,0s0.2,0,0.3,0.1c0.3-0.1,0.7-0.3,1.2-0.4
				c0.2-0.1,0.5-0.1,0.8-0.1c0.7,0,1.5,0.2,2.4,0.5C-71.5,409.1-70.7,409.6-69.8,410.2z M-67.2,427.8c0.3-0.6,0.7-1.5,1-2.5
				c0.4-1,0.6-2.2,0.6-3.5c0-1-0.1-2-0.4-3.1c-0.3-0.9-0.6-1.7-1-2.4s-0.8-1.4-1.2-1.9c-0.4-0.6-0.9-1.1-1.3-1.5
				c-0.4-0.4-0.9-0.8-1.3-1c-0.9-0.6-1.6-1-2.4-1.2c-0.7-0.2-1.3-0.3-1.8-0.3c-0.7,0.2-1.2,0.4-1.7,0.6c-0.4,0.2-0.7,0.3-0.7,0.3
				c-0.1,0.1-0.3,0.1-0.4,0.1c-0.3,0-0.5-0.1-0.7-0.3c-0.8,0.4-1.6,1.2-2.3,2.4c-0.7,1.1-1.3,2.6-1.8,4.2c-0.3,1.1-0.6,2.2-0.7,3.2
				c-0.2,1.1-0.2,2.1-0.2,3.2c0,1.4,0.2,2.7,0.5,3.8c0.2,0.7,0.5,1.4,0.9,1.9c0.3,0.6,0.7,1,1.1,1.4c0.4,0.4,0.8,0.7,1.3,0.9
				c0.4,0.2,0.9,0.4,1.3,0.6c1.1,0.4,2.2,0.6,3.4,0.6c1,0,2-0.1,3-0.4c0.7-0.2,1.5-0.7,2.5-1.6C-68.9,430.4-68,429.2-67.2,427.8z"/>
		</g>
		<g>
			<path class="st2" d="M-186.9,441.2c0.9,0.3,1.9,0.7,2.9,1.3c1,0.6,2,1.4,2.9,2.4c0.9,1,1.6,2.2,2.2,3.6c0.6,1.4,0.9,3,0.9,4.8
				c0,2.4-0.2,4.4-0.7,6c-0.5,1.6-1.1,3-1.8,4c-0.7,1-1.6,1.9-2.4,2.4c-0.9,0.6-1.8,1-2.7,1.2c-0.4,0.1-1,0.2-1.9,0.2
				c-0.8,0-1.7,0.1-2.7,0.1c-0.6,0-1.2,0-1.8,0c-0.6,0-1.1,0-1.6,0c-0.5,0-0.9,0-1.2-0.1c-0.3,0-0.6,0-0.7,0c-0.3,0-0.5-0.1-0.6-0.3
				c-0.2-0.2-0.3-0.5-0.3-0.8c0-0.1-0.1-0.4-0.1-0.9c-0.1-0.6-0.1-1.2-0.2-2.1c-0.1-0.8-0.2-1.7-0.3-2.7c-0.1-1-0.2-2-0.3-2.9
				c-0.1-1-0.1-1.8-0.2-2.6c-0.1-0.8-0.1-1.4-0.1-1.9c0-0.6,0-1.3-0.1-2.1c0-0.9-0.1-1.7-0.2-2.7c-0.1-0.9-0.1-1.9-0.2-2.8
				c-0.1-0.9-0.2-1.7-0.3-2.5c0,0-0.1-0.1-0.1-0.2c0-0.1-0.1-0.3-0.1-0.5c0-0.2,0-0.3,0.1-0.5c0,0,0-0.1,0-0.2c0-0.1,0-0.2-0.1-0.3
				c0-0.2,0.1-0.4,0.2-0.6c0.2-0.2,0.4-0.3,0.7-0.3c0.5,0,0.8,0.2,0.9,0.7c0.7-0.2,1.4-0.3,2-0.4c0.6-0.1,1.3-0.2,2.1-0.2
				c0.7,0,1.5,0.1,2.4,0.2C-189.1,440.7-188.1,440.9-186.9,441.2z M-186,465.2c1.3-0.4,2.3-1,3.1-1.8s1.4-1.8,1.9-2.9
				c0.5-1.1,0.8-2.3,0.9-3.5c0.2-1.2,0.2-2.4,0.2-3.6c0-1.5-0.3-2.9-0.8-4.1c-0.5-1.2-1.2-2.2-1.9-3.1c-0.8-0.9-1.6-1.6-2.4-2.1
				c-0.9-0.5-1.7-0.9-2.4-1.1c-1.1-0.3-2.1-0.5-2.8-0.6c-0.8-0.1-1.5-0.2-2.2-0.2c-0.7,0-1.3,0.1-1.9,0.2c-0.6,0.1-1.2,0.2-1.9,0.4
				c0.1,0.8,0.2,1.7,0.3,2.6c0.1,1,0.2,1.9,0.2,2.8c0.1,0.9,0.1,1.8,0.2,2.6c0,0.8,0.1,1.5,0.1,2c0,0.4,0,0.9,0.1,1.6
				c0,0.7,0.1,1.4,0.2,2.2c0.1,0.8,0.1,1.6,0.2,2.5c0.1,0.9,0.2,1.7,0.2,2.5c0.1,0.8,0.2,1.5,0.2,2.2c0.1,0.6,0.1,1.1,0.2,1.5
				c0.7,0,1.4,0.1,2.1,0.1c0.7,0,1.5,0,2.2,0c0.9,0,1.7,0,2.4-0.1C-186.9,465.3-186.4,465.2-186,465.2z"/>
			<path class="st2" d="M-158.8,441.5c0.5,0.3,0.9,0.7,1.5,1.2c0.5,0.5,1,1,1.5,1.7c0.5,0.6,1,1.4,1.4,2.2c0.4,0.8,0.8,1.7,1.1,2.8
				c0.3,1.2,0.5,2.4,0.5,3.6c0,1.2-0.2,2.3-0.5,3.5c-0.3,1.2-0.8,2.3-1.4,3.4c-0.8,1.5-1.8,2.7-2.9,3.8c-1.1,1.1-2.2,1.8-3.3,2.1
				c-1.2,0.3-2.3,0.5-3.5,0.5c-1.4,0-2.7-0.2-4-0.7c-0.5-0.2-1-0.4-1.6-0.7c-0.6-0.3-1.1-0.7-1.6-1.2c-0.5-0.5-1-1.1-1.5-1.7
				c-0.4-0.7-0.8-1.5-1.1-2.4c-0.4-1.2-0.6-2.7-0.6-4.4c0-1.1,0.1-2.2,0.3-3.4c0.2-1.2,0.4-2.4,0.8-3.5c0.6-2.2,1.5-4,2.5-5.4
				c1-1.4,2.2-2.3,3.4-2.7c0.3-0.1,0.7-0.1,1.1-0.1c0.1,0,0.2,0,0.3,0c0.1,0,0.2,0,0.3,0.1c0.3-0.1,0.7-0.3,1.2-0.4
				c0.2-0.1,0.5-0.1,0.8-0.1c0.7,0,1.5,0.2,2.4,0.5C-160.5,440.4-159.6,440.9-158.8,441.5z M-156.2,459.1c0.3-0.6,0.7-1.5,1-2.5
				c0.4-1,0.6-2.2,0.6-3.5c0-1-0.1-2-0.4-3.1c-0.3-0.9-0.6-1.7-1-2.4c-0.4-0.7-0.8-1.4-1.2-1.9c-0.4-0.6-0.9-1.1-1.3-1.5
				c-0.4-0.4-0.9-0.8-1.3-1c-0.9-0.6-1.6-1-2.4-1.2c-0.7-0.2-1.3-0.3-1.8-0.3c-0.7,0.2-1.2,0.4-1.7,0.6c-0.4,0.2-0.7,0.3-0.7,0.3
				c-0.1,0.1-0.3,0.1-0.4,0.1c-0.3,0-0.5-0.1-0.7-0.3c-0.8,0.4-1.6,1.2-2.3,2.4c-0.7,1.1-1.3,2.6-1.8,4.2c-0.3,1.1-0.6,2.2-0.7,3.2
				c-0.2,1.1-0.2,2.1-0.2,3.2c0,1.4,0.2,2.7,0.5,3.8c0.2,0.7,0.5,1.4,0.9,1.9c0.3,0.6,0.7,1,1.1,1.4c0.4,0.4,0.8,0.7,1.3,0.9
				c0.4,0.2,0.9,0.4,1.3,0.6c1.1,0.4,2.2,0.6,3.4,0.6c1,0,2-0.1,3-0.4c0.7-0.2,1.5-0.7,2.5-1.6C-157.8,461.6-157,460.5-156.2,459.1z
				"/>
			<path class="st2" d="M-136.9,441.4c0.9,0.2,1.6,0.6,2.3,1.1c0.7,0.5,1.2,1.1,1.7,1.8c0.4,0.7,0.8,1.4,1,2.1
				c0.2,0.7,0.3,1.4,0.3,2c0,0.1,0,0.2,0,0.2s0,0.1,0,0.2l0,0.4c0,0.5-0.1,1-0.2,1.6c-0.1,0.6-0.3,1.1-0.7,1.7
				c-0.3,0.6-0.8,1.1-1.4,1.6c-0.6,0.5-1.5,0.9-2.6,1.2c-0.7,0.2-1.5,0.3-2.4,0.4c-0.9,0.1-1.8,0.1-2.8,0.1c-0.5,0-1,0-1.5,0
				c-0.5,0-1,0-1.6,0c-0.3,0-0.6,0-0.9,0c-0.3,0-0.6,0-0.9,0c0.1,1,0.2,2.1,0.3,3.3c0.1,1.2,0.2,2.2,0.3,3.3c0.1,1,0.2,1.9,0.3,2.6
				c0.1,0.7,0.1,1.1,0.1,1.1c0,0.3-0.1,0.5-0.3,0.7c-0.2,0.2-0.4,0.3-0.7,0.3c-0.3,0-0.5-0.1-0.7-0.2c-0.2-0.2-0.3-0.4-0.3-0.6
				c0-0.1-0.1-0.4-0.1-0.9c-0.1-0.6-0.1-1.2-0.2-2.1c-0.1-0.8-0.2-1.7-0.3-2.7c-0.1-1-0.2-2-0.3-2.9c-0.1-1-0.1-1.8-0.2-2.6
				c-0.1-0.8-0.1-1.4-0.1-1.9c0-0.6,0-1.3-0.1-2.1s-0.1-1.7-0.2-2.6c-0.1-0.9-0.1-1.8-0.2-2.7c-0.1-0.9-0.2-1.7-0.3-2.5
				c0,0-0.1-0.1-0.1-0.2c0-0.1-0.1-0.2-0.1-0.4c0-0.1,0-0.2,0.1-0.3c0-0.1,0-0.2-0.1-0.4s0-0.3-0.1-0.5c0-0.2,0.1-0.4,0.2-0.6
				c0.2-0.2,0.4-0.3,0.7-0.3c0.2,0,0.4,0.1,0.6,0.2c0.2,0.2,0.3,0.4,0.3,0.7c0.8-0.2,1.6-0.4,2.3-0.5c0.7-0.1,1.5-0.2,2.4-0.2
				c0.8,0,1.7,0.1,2.7,0.2C-139.4,440.8-138.2,441.1-136.9,441.4z M-133.5,448.5c0-0.4-0.1-0.8-0.2-1.4c-0.1-0.5-0.4-1-0.7-1.5
				s-0.7-1-1.2-1.4c-0.5-0.4-1-0.7-1.7-0.9c-1.2-0.3-2.3-0.6-3.2-0.7c-0.9-0.1-1.7-0.2-2.4-0.2c-0.8,0-1.5,0.1-2.2,0.2
				c-0.7,0.1-1.4,0.3-2.2,0.5c0.1,0.8,0.2,1.6,0.3,2.6c0.1,0.9,0.1,1.8,0.2,2.7c0.1,0.9,0.1,1.7,0.1,2.6c0,0.8,0.1,1.5,0.1,2
				c0,0.1,0,0.3,0,0.4c0,0.2,0,0.3,0,0.5c0.3,0,0.6,0,0.9,0c0.3,0,0.6,0,0.9,0c0.5,0,1,0,1.5,0c0.5,0,1,0,1.5,0c0.9,0,1.8,0,2.6-0.1
				c0.8,0,1.5-0.1,2.1-0.3c0.8-0.2,1.4-0.5,1.9-0.8c0.5-0.3,0.8-0.6,1-1c0.2-0.4,0.4-0.8,0.5-1.2c0.1-0.4,0.1-0.9,0.2-1.3l0-0.4
				L-133.5,448.5z"/>
			<path class="st2" d="M-115,453.2c0.1,0.4,0.3,1.1,0.6,1.9c0.3,0.8,0.6,1.7,0.9,2.6c0.3,1,0.7,1.9,1.1,2.9c0.4,1,0.7,1.9,1,2.7
				c0.3,0.8,0.6,1.5,0.8,2c0.2,0.5,0.3,0.8,0.3,0.8c0,0.1,0.1,0.2,0.1,0.3c0,0.4-0.2,0.7-0.6,0.9c-0.1,0-0.2,0.1-0.3,0.1
				c-0.2,0-0.4-0.1-0.5-0.2c-0.2-0.1-0.3-0.3-0.4-0.5c0-0.1-0.2-0.4-0.4-1.1c-0.3-0.6-0.6-1.4-0.9-2.3c-0.4-0.9-0.8-1.9-1.2-3
				c-0.4-1.1-0.9-2.1-1.3-3.1c-0.5-0.1-1-0.1-1.6-0.2c-0.5,0-1.1-0.1-1.8-0.2s-1.5-0.1-2.4-0.1c-0.6,0-1.2,0-1.8,0.1
				c-0.6,0-1.2,0.1-1.8,0.1c-0.4,1-0.9,2-1.3,3.2c-0.5,1.1-0.9,2.2-1.4,3.1c-0.4,1-0.8,1.8-1.1,2.5c-0.3,0.7-0.5,1.1-0.5,1.1
				c-0.2,0.4-0.5,0.6-0.9,0.6c-0.2,0-0.3,0-0.4-0.1c-0.4-0.2-0.6-0.5-0.6-0.9c0-0.1,0-0.2,0.1-0.4c0,0,0.1-0.3,0.4-0.9
				c0.3-0.6,0.6-1.3,0.9-2.1c0.4-0.9,0.8-1.8,1.3-2.9c0.5-1,0.9-2.1,1.3-3c-0.6,0.1-1.2,0.1-1.6,0.2c-0.4,0.1-0.7,0.1-0.7,0.1
				c-0.3,0-0.5-0.1-0.6-0.2c-0.2-0.2-0.3-0.4-0.3-0.7c0-0.3,0.1-0.5,0.2-0.6c0.1-0.2,0.4-0.3,0.6-0.3c0,0,0.4,0,1-0.1
				c0.6-0.1,1.4-0.2,2.3-0.3c0.2-0.4,0.3-0.8,0.5-1.1c0.1-0.3,0.2-0.6,0.3-0.9c0.2-0.6,0.5-1.4,0.9-2.5c0.4-1,0.8-2.1,1.3-3.2
				c0.5-1.1,0.9-2.2,1.4-3.2c0.5-1,0.9-1.9,1.2-2.6c0-0.4,0.2-0.6,0.6-0.8c0.1,0,0.2-0.1,0.4-0.1c0.2,0,0.3,0,0.5,0.1
				c0.3,0.2,0.5,0.4,0.5,0.8c0.3,0.7,0.6,1.6,1.1,2.6c0.4,1.1,0.8,2.1,1.2,3.3c0.4,1.1,0.8,2.2,1.1,3.2
				C-115.5,451.7-115.2,452.5-115,453.2z M-121.7,454.8c1.2,0,2.3,0,3.2,0.1c0.9,0.1,1.6,0.2,2.1,0.2c-0.1-0.3-0.2-0.6-0.3-0.9
				c-0.1-0.3-0.2-0.5-0.2-0.7c-0.1-0.6-0.3-1.2-0.6-2c-0.3-0.8-0.5-1.6-0.8-2.5c-0.3-0.9-0.6-1.8-0.9-2.7c-0.3-0.9-0.6-1.7-0.9-2.4
				c-0.3,0.7-0.7,1.5-1.1,2.4s-0.7,1.8-1.1,2.7c-0.4,0.9-0.7,1.7-1,2.5c-0.3,0.8-0.6,1.5-0.7,2c0,0.2-0.1,0.4-0.2,0.6
				c-0.1,0.2-0.2,0.4-0.3,0.7C-123.7,454.9-122.7,454.8-121.7,454.8z"/>
			<path class="st2" d="M-81.7,452.9c0,0.4,0,1.1,0.1,1.9c0.1,0.8,0.1,1.7,0.2,2.6c0.1,1,0.2,1.9,0.3,2.9c0.1,1,0.2,1.9,0.3,2.7
				c0.1,0.8,0.1,1.5,0.2,2c0.1,0.5,0.1,0.8,0.1,0.8c0,0.3-0.1,0.5-0.2,0.7c-0.2,0.2-0.4,0.3-0.7,0.3c-0.3,0-0.5-0.1-0.6-0.2
				c-0.2-0.2-0.3-0.4-0.3-0.6c0-0.1,0-0.4-0.1-0.9c-0.1-0.6-0.1-1.2-0.2-2.1c-0.1-0.8-0.2-1.7-0.3-2.7c-0.1-1-0.2-2-0.3-2.9
				c-0.1-1-0.1-1.8-0.2-2.6c-0.1-0.8-0.1-1.4-0.1-1.9c0-0.5,0-1.1,0-1.8s-0.1-1.4-0.1-2.2c-0.1-0.8-0.1-1.6-0.2-2.4
				c-0.1-0.8-0.1-1.6-0.2-2.3c-0.6,0.9-1.2,1.9-1.8,2.8c-0.7,1-1.3,1.8-1.8,2.6c-0.2,0.3-0.5,0.8-0.9,1.4c-0.4,0.6-0.8,1.4-1.3,2.1
				c-0.4,0.8-0.9,1.6-1.3,2.4c-0.4,0.8-0.9,1.6-1.2,2.2c-0.4,0.7-0.7,1.2-0.9,1.7c-0.2,0.4-0.4,0.7-0.4,0.7
				c-0.2,0.3-0.5,0.5-0.8,0.5c-0.2,0-0.3,0-0.5-0.1c-0.3-0.2-0.5-0.5-0.5-0.9c0-0.2,0-0.3,0.1-0.4l0.5-1.2c0,0-0.2-0.3-0.6-0.7
				c-0.3-0.4-0.7-0.9-1.2-1.5c-0.5-0.6-1-1.3-1.6-2c-0.6-0.7-1.1-1.5-1.7-2.2c-0.5-0.7-1-1.4-1.5-2c-0.4-0.6-0.8-1.1-1-1.5
				c-0.4-0.6-0.8-1.4-1.3-2.1c-0.5-0.8-1-1.5-1.5-2.3c0.1,0.8,0.2,1.6,0.2,2.4c0.1,0.9,0.1,1.7,0.2,2.5c0,0.8,0.1,1.6,0.1,2.3
				c0,0.7,0.1,1.3,0.1,1.8c0,0.4,0,1.1,0.1,1.9c0.1,0.8,0.1,1.7,0.2,2.6c0.1,1,0.2,1.9,0.3,2.9c0.1,1,0.2,1.9,0.3,2.7
				c0.1,0.8,0.2,1.5,0.2,2c0.1,0.5,0.1,0.8,0.1,0.8c0,0.3-0.1,0.5-0.3,0.7c-0.2,0.2-0.4,0.3-0.7,0.3c-0.3,0-0.5-0.1-0.6-0.2
				c-0.2-0.2-0.3-0.4-0.3-0.6c0-0.1,0-0.4-0.1-0.9c-0.1-0.6-0.1-1.2-0.2-2.1c-0.1-0.8-0.2-1.7-0.3-2.7c-0.1-1-0.2-2-0.3-2.9
				c-0.1-1-0.1-1.8-0.2-2.6c-0.1-0.8-0.1-1.4-0.1-1.9c0-0.7,0-1.6-0.1-2.7c-0.1-1.1-0.1-2.2-0.2-3.3c-0.1-1.1-0.2-2.2-0.3-3.3
				c-0.1-1-0.2-1.9-0.3-2.5c0,0,0-0.1,0-0.2c0-0.1,0-0.2,0-0.3c0-0.3,0.1-0.5,0.3-0.7c0.2-0.2,0.5-0.3,0.7-0.3
				c0.3,0,0.5,0.1,0.7,0.3c0.4,0.4,0.9,1,1.3,1.6c0.5,0.6,0.9,1.2,1.4,1.9c0.4,0.7,0.9,1.3,1.3,2c0.4,0.7,0.8,1.3,1.2,1.8
				c0.3,0.4,0.7,1.1,1.3,1.9c0.6,0.8,1.3,1.7,2,2.6c0.7,0.9,1.4,1.8,2.1,2.6c0.7,0.8,1.2,1.5,1.5,1.9c0.4-0.7,0.8-1.4,1.2-2.2
				c0.4-0.8,0.9-1.5,1.3-2.2s0.8-1.4,1.2-2c0.4-0.6,0.7-1.1,0.9-1.4c0.4-0.5,0.8-1.1,1.2-1.7c0.4-0.6,0.9-1.2,1.3-1.9
				c0.4-0.6,0.8-1.3,1.2-1.9c0.4-0.6,0.7-1.2,0.9-1.7c0-0.1,0.1-0.2,0.3-0.4c0.1-0.4,0.4-0.7,1-0.8c0.5,0,0.8,0.3,0.9,0.8
				c0.1,0.6,0.3,1.5,0.4,2.6c0.1,1.1,0.2,2.2,0.3,3.4c0.1,1.2,0.2,2.3,0.2,3.4C-81.7,451.4-81.7,452.3-81.7,452.9z"/>
			<path class="st2" d="M-73.4,452.9c0,0.4,0,1.1,0.1,1.9c0.1,0.8,0.1,1.7,0.2,2.6c0.1,1,0.2,1.9,0.3,2.9c0.1,1,0.2,1.9,0.3,2.7
				c0.1,0.8,0.2,1.5,0.2,2c0.1,0.5,0.1,0.8,0.1,0.8c0,0.3-0.1,0.5-0.3,0.7c-0.2,0.2-0.4,0.3-0.7,0.3c-0.3,0-0.5-0.1-0.6-0.2
				c-0.2-0.2-0.3-0.4-0.3-0.6c0-0.1,0-0.4-0.1-0.9c-0.1-0.6-0.1-1.2-0.2-2.1c-0.1-0.8-0.2-1.7-0.3-2.7c-0.1-1-0.2-2-0.3-2.9
				c-0.1-1-0.1-1.8-0.2-2.6c-0.1-0.8-0.1-1.4-0.1-1.9c0-0.7,0-1.6-0.1-2.7c-0.1-1.1-0.1-2.2-0.2-3.3c-0.1-1.1-0.2-2.2-0.3-3.3
				c-0.1-1-0.2-1.9-0.3-2.5c0-0.2,0.1-0.4,0.2-0.6c0.2-0.2,0.4-0.3,0.7-0.3c0.2,0,0.4,0.1,0.6,0.2c0.2,0.1,0.3,0.3,0.3,0.6
				c0.1,0.6,0.2,1.5,0.3,2.6c0.1,1.1,0.2,2.2,0.3,3.4s0.2,2.3,0.2,3.4C-73.5,451.4-73.4,452.3-73.4,452.9z"/>
			<path class="st2" d="M-49.8,452.9c0,0.4,0,1.1,0.1,1.9c0.1,0.8,0.1,1.7,0.2,2.6c0.1,1,0.2,1.9,0.3,2.9c0.1,1,0.2,1.9,0.3,2.7
				c0.1,0.8,0.2,1.5,0.2,2c0.1,0.5,0.1,0.8,0.1,0.8c0,0.4-0.2,0.8-0.7,1c-0.2,0.1-0.3,0.1-0.5,0.1c-0.3,0-0.6-0.1-0.8-0.4
				c0-0.1-0.3-0.4-0.6-0.9c-0.4-0.6-0.8-1.2-1.3-2.1c-0.5-0.8-1.1-1.7-1.8-2.7c-0.7-1-1.3-2-1.9-2.9c-0.6-0.9-1.1-1.8-1.7-2.6
				c-0.5-0.8-0.9-1.4-1.1-1.9c-0.4-0.6-0.8-1.5-1.4-2.4c-0.6-1-1.2-2-1.9-3c-0.7-1-1.3-2-1.9-3c-0.6-1-1.2-1.8-1.7-2.5
				c0.1,0.8,0.2,1.6,0.3,2.6c0.1,1,0.2,1.9,0.2,2.9c0.1,1,0.1,1.9,0.2,2.7c0,0.9,0.1,1.6,0.1,2.1c0,0.4,0,1.1,0.1,1.9
				c0.1,0.8,0.1,1.7,0.2,2.6c0.1,1,0.2,1.9,0.3,2.9c0.1,1,0.2,1.9,0.3,2.7c0.1,0.8,0.2,1.5,0.2,2c0.1,0.5,0.1,0.8,0.1,0.8
				c0,0.3-0.1,0.5-0.3,0.7c-0.2,0.2-0.4,0.3-0.7,0.3c-0.3,0-0.5-0.1-0.7-0.2c-0.2-0.2-0.3-0.4-0.3-0.6c0-0.1,0-0.4-0.1-0.9
				c-0.1-0.6-0.1-1.2-0.2-2.1c-0.1-0.8-0.2-1.7-0.3-2.7c-0.1-1-0.2-2-0.3-2.9c-0.1-1-0.1-1.8-0.2-2.6c-0.1-0.8-0.1-1.4-0.1-1.9
				c0-0.7,0-1.6-0.1-2.7c-0.1-1.1-0.1-2.2-0.2-3.3c-0.1-1.1-0.2-2.2-0.3-3.3c-0.1-1-0.2-1.9-0.3-2.5c0-0.2,0.1-0.4,0.2-0.6
				c0.2-0.2,0.4-0.3,0.7-0.3c0.2,0,0.4,0,0.5,0.1s0.3,0.1,0.4,0.2c0.2-0.1,0.4-0.2,0.6-0.2c0.3,0,0.6,0.1,0.8,0.4
				c0.3,0.4,0.7,0.9,1.1,1.6c0.4,0.6,0.9,1.3,1.4,2.1c0.5,0.7,1,1.5,1.5,2.3c0.5,0.8,1,1.5,1.4,2.3c0.5,0.7,0.9,1.4,1.2,2.1
				c0.4,0.6,0.7,1.2,0.9,1.6c0.3,0.5,0.6,1.1,1.1,1.9c0.5,0.8,1.1,1.7,1.7,2.7c0.6,1,1.3,1.9,1.9,2.9c0.7,1,1.2,1.9,1.8,2.7
				c-0.1-0.8-0.2-1.7-0.3-2.7c-0.1-1-0.2-1.9-0.3-2.8c-0.1-0.9-0.1-1.8-0.2-2.6c0-0.8-0.1-1.4-0.1-1.9c0-0.7,0-1.6-0.1-2.7
				c-0.1-1.1-0.1-2.2-0.2-3.3c-0.1-1.1-0.2-2.2-0.3-3.3c-0.1-1-0.2-1.9-0.3-2.5c0-0.2,0.1-0.4,0.2-0.6c0.2-0.2,0.4-0.3,0.7-0.3
				c0.2,0,0.4,0.1,0.6,0.2s0.3,0.3,0.3,0.6c0.1,0.6,0.2,1.5,0.3,2.6c0.1,1.1,0.2,2.2,0.3,3.4s0.2,2.3,0.2,3.4
				C-49.8,451.4-49.8,452.3-49.8,452.9z"/>
			<path class="st2" d="M-28.6,453.2c0.1,0.4,0.3,1.1,0.6,1.9c0.3,0.8,0.6,1.7,0.9,2.6c0.3,1,0.7,1.9,1.1,2.9c0.4,1,0.7,1.9,1,2.7
				c0.3,0.8,0.6,1.5,0.8,2c0.2,0.5,0.3,0.8,0.3,0.8c0,0.1,0.1,0.2,0.1,0.3c0,0.4-0.2,0.7-0.6,0.9c-0.1,0-0.2,0.1-0.3,0.1
				c-0.2,0-0.4-0.1-0.5-0.2c-0.2-0.1-0.3-0.3-0.4-0.5c0-0.1-0.2-0.4-0.4-1.1s-0.6-1.4-0.9-2.3c-0.4-0.9-0.8-1.9-1.2-3
				c-0.4-1.1-0.9-2.1-1.3-3.1c-0.5-0.1-1-0.1-1.6-0.2c-0.5,0-1.1-0.1-1.8-0.2s-1.5-0.1-2.4-0.1c-0.6,0-1.2,0-1.8,0.1
				c-0.6,0-1.2,0.1-1.8,0.1c-0.4,1-0.9,2-1.3,3.2c-0.5,1.1-0.9,2.2-1.4,3.1c-0.4,1-0.8,1.8-1.1,2.5c-0.3,0.7-0.5,1.1-0.5,1.1
				c-0.2,0.4-0.5,0.6-0.9,0.6c-0.2,0-0.3,0-0.4-0.1c-0.4-0.2-0.6-0.5-0.6-0.9c0-0.1,0-0.2,0.1-0.4c0,0,0.1-0.3,0.4-0.9
				c0.3-0.6,0.6-1.3,0.9-2.1c0.4-0.9,0.8-1.8,1.3-2.9c0.5-1,0.9-2.1,1.3-3c-0.6,0.1-1.2,0.1-1.6,0.2c-0.4,0.1-0.7,0.1-0.7,0.1
				c-0.3,0-0.5-0.1-0.6-0.2c-0.2-0.2-0.3-0.4-0.3-0.7c0-0.3,0.1-0.5,0.2-0.6c0.1-0.2,0.4-0.3,0.6-0.3c0,0,0.4,0,1-0.1
				c0.6-0.1,1.4-0.2,2.3-0.3c0.2-0.4,0.3-0.8,0.5-1.1c0.1-0.3,0.2-0.6,0.3-0.9c0.2-0.6,0.5-1.4,0.9-2.5c0.4-1,0.8-2.1,1.3-3.2
				c0.5-1.1,0.9-2.2,1.4-3.2c0.5-1,0.9-1.9,1.2-2.6c0-0.4,0.2-0.6,0.6-0.8c0.1,0,0.2-0.1,0.4-0.1c0.2,0,0.3,0,0.5,0.1
				c0.3,0.2,0.5,0.4,0.5,0.8c0.3,0.7,0.6,1.6,1.1,2.6c0.4,1.1,0.8,2.1,1.2,3.3c0.4,1.1,0.8,2.2,1.1,3.2
				C-29,451.7-28.7,452.5-28.6,453.2z M-35.3,454.8c1.2,0,2.3,0,3.2,0.1c0.9,0.1,1.6,0.2,2.1,0.2c-0.1-0.3-0.2-0.6-0.3-0.9
				c-0.1-0.3-0.2-0.5-0.2-0.7c-0.1-0.6-0.3-1.2-0.6-2c-0.3-0.8-0.5-1.6-0.8-2.5c-0.3-0.9-0.6-1.8-0.9-2.7c-0.3-0.9-0.6-1.7-0.9-2.4
				c-0.3,0.7-0.7,1.5-1.1,2.4c-0.4,0.9-0.7,1.8-1.1,2.7c-0.4,0.9-0.7,1.7-1,2.5c-0.3,0.8-0.6,1.5-0.7,2c0,0.2-0.1,0.4-0.2,0.6
				c-0.1,0.2-0.2,0.4-0.3,0.7C-37.2,454.9-36.2,454.8-35.3,454.8z"/>
		</g>
		<g>
			<path id="XMLID_241_" class="st3" d="M-23.2,435.2c0,0,3.9-5.6,4.5-6.9s1.8-4,1.8-4l-7.4-1.8l-2.5-7.3c0,0-4.5-12.3-5.9-14.2
				c-1.5-1.9-3.7-2.1-5.1-0.2c-1.3,1.9-11.1,19.1-11.1,19.1l-10.3,0.7l6.2,13.5c0,0,3.7-1.2,11.5-1.1s15.1,1.6,15.1,1.6L-23.2,435.2
				z"/>
			<path id="XMLID_237_" class="st4" d="M-16.8,424.1l-0.1-0.1c-2.3-0.7-4.7-1.3-7.1-1.7l0,0c-1.8-4.7-3.3-9.5-5.2-14.1
				c-1.2-3.1-2.7-7.7-5.4-8.9c-1-0.5-2-0.2-2.7,0.8c-1.5,1.9-2.6,4.3-3.9,6.4c-2.6,4.3-5.2,8.6-7.8,13c0,0.1-0.1,0.2-0.1,0.2
				c-3.5-0.1-7-0.1-10.5,0.5c-0.3,0-0.3,0.6-0.1,0.8v0.1c2.1,4.3,3.7,9.2,6.3,13.1c0.1,0,0.1,0.1,0.2,0.1h0.1c0.1,0,0.2,0,0.3,0
				c0.2,0,0.4,0,0.6-0.1s0.4-0.1,0.7-0.1c0.1,0,0.2,0,0.4,0c5.3-0.5,10.7-0.5,16.1-0.1c0.2,0,0.3,0,0.5,0c0.1,0,0.1,0,0.1,0l0,0
				c0.2,0,0.3,0,0.5,0h0.1c1.6,0.2,3.2,0.4,4.8,0.6c0.6,0.1,1.2,0.1,1.8,0.2c0.4,0.1,0.8,0.2,1.1,0.3c0.3,0.1,0.6,0.1,0.9,0.2
				c0,0,0,0,0.1,0s0.2,0,0.4,0c0.2,0,0.3,0.1,0.5,0.2c0.2,0,0.4,0.1,0.6,0.1c0.1,0,0.2,0,0.4,0c0.1-0.1,0.2-0.1,0.4-0.1
				c2.6-3.2,4.6-6.8,6.3-10.9C-16.6,424.4-16.7,424.2-16.8,424.1 M-42.1,409.2c1.1-1.8,2.1-3.6,3.2-5.4c1.1-1.9,2.4-5,4.5-3.6
				c1.3,0.8,2.2,2.6,3,4.3c0.9,2,1.7,4,2.5,6.1c1.4,3.8,2.8,7.8,4.2,11.6c-4.5-0.8-9.1-1.2-13.6-1.7c-3.3-0.3-6.7-0.7-10-0.9
				C-46.3,416.2-44.2,412.7-42.1,409.2 M-23.3,434.9c-9.7-2.2-19.9-2.6-29.7-1.5c-2.4-3.8-4-8.4-6-12.6c7-1,14-0.2,21.1,0.5
				c6.9,0.7,13.8,1.3,20.5,3.4C-19,428.6-20.9,431.9-23.3,434.9"/>
			<path id="XMLID_236_" class="st5" d="M-27.8,394.3c-0.2,0-0.4,0-0.7-0.1c-0.4-0.2-0.9-0.2-1.2,0.2c0,0-0.1,0-0.1-0.1
				c-0.3-0.2-0.7,0-0.9,0.3c-0.2-0.1-0.4-0.2-0.5-0.3h-0.1c-0.7-0.6-1.3-1.2-2-1.8c0.2-0.1,0.3-0.4,0.2-0.6
				c-0.1-0.5-0.3-0.9-0.5-1.3c0.2-0.2,0.4-0.6,0.3-0.9c-0.2-0.5-0.4-0.8-0.8-1.2c-0.5-0.4-1.2,0.1-1.1,0.7c-0.2,0.1-0.4,0.4-0.4,0.6
				l0,0c-0.7-0.3-1.2,0.5-0.8,1.1c0.2,0.3,0.4,0.6,0.7,0.9c-0.3,0.2-0.5,0.6-0.2,1l0,0c-0.6-0.3-1.4,0.5-0.9,1.1
				c0.2,0.2,0.3,0.3,0.5,0.5c-0.4-0.3-0.9-0.6-1.3-0.9c-0.5-0.3-1.1,0.1-1,0.6c-0.3-0.1-0.6-0.1-0.8,0c-0.1,0-0.2,0.1-0.3,0.1
				c-0.4-0.3-0.8-0.5-1.2-0.7c-0.7-0.4-1.5,0.5-0.8,1.1c1,0.7,1.9,1.4,2.8,2.2c-0.2,0.2-0.3,0.6-0.1,0.9c0.1,0.1,0.2,0.2,0.2,0.3
				c-0.5-0.1-1,0.5-0.6,1c0.1,0.1,0.2,0.2,0.3,0.3c-0.5,0-0.8,0.6-0.5,1c0.1,0.2,0.2,0.3,0.3,0.5c-0.3-0.1-0.6-0.1-0.8-0.1
				c-0.4-0.1-0.7,0.4-0.5,0.7c0.2,0.4,0.4,0.7,0.8,1c0.3,0.2,0.6-0.1,0.5-0.4c0.3,0.1,0.6,0.2,0.9,0.3c0.4,0.1,1-0.2,0.8-0.7
				c0-0.2-0.1-0.3-0.2-0.5c0.3,0,0.6-0.2,0.6-0.5c0.1,0.1,0.2,0.2,0.4,0.3c0.6,0.4,1.3-0.3,0.9-0.9l0,0c0.2,0.1,0.4,0.3,0.6,0.4
				s0.4,0.2,0.6,0.1c1.1,1.1,2.3,2.1,3.6,3c0.7,0.5,1.4-0.5,0.8-1c-0.9-0.8-1.8-1.5-2.6-2.3c0.5,0.4,1,0.9,1.5,1.3
				c0.6,0.5,1.4-0.5,0.8-1c-0.7-0.6-1.4-1.3-2.2-1.9c-0.1,0-0.1-0.1-0.2-0.1c0.2,0.1,0.3,0.2,0.5,0.3c0.6,0.4,1.5-0.4,0.9-1
				c-0.1-0.1-0.1-0.1-0.2-0.2c0.1,0.1,0.2,0.1,0.3,0.2c0.6,0.4,1.5-0.4,1-1c-0.1-0.1-0.1-0.1-0.1-0.2c0.1,0,0.2-0.1,0.3-0.1
				c0.3,0.2,0.6,0.4,0.8,0.6c0.5,0.4,1.2-0.2,1.1-0.7l0.1-0.1c0.2,0,0.3,0,0.5,0C-26.8,395.8-26.8,394.3-27.8,394.3"/>
			<path id="XMLID_233_" class="st6" d="M-29.5,403.3c-0.4-1.5-0.8-3-1.1-4.4l0,0c0-0.1-0.1-0.2-0.1-0.3c-0.1-0.1-0.1-0.3,0-0.4l0,0
				c0-0.1,0-0.1,0-0.2h0.1c1.8-0.9,3.6-2,5.4-3.1c0,0,0,0,0.1,0c0,0,0-0.1,0,0c0-0.1,0-0.2,0-0.3c-0.3-0.2-0.5-0.4-0.8-0.6
				c-1.1-0.2-2.2-0.3-3.3-0.4c-0.2,0-0.4-0.1-0.6-0.1l0,0c-0.2,0-0.4-0.1-0.7-0.1c-0.1,0-0.2,0-0.3,0c-0.3,0-0.6,0-0.8-0.2l0,0l0,0
				c-0.4-2.1-1.1-4-2.1-5.9c-0.3-0.3-0.5-0.6-0.9-0.7c-0.2,0.1-0.2,0.3-0.1,0.5c-0.9,1.9-1.7,3.8-2.3,5.8c-2-0.3-4.1,0-6.1,0
				c-0.3,0-0.5,0.4-0.4,0.7c0.4,0.9,1.2,1.4,2,1.9c0.9,0.6,1.8,1.3,2.7,1.9c-1.2,1.8-2,3.8-2.9,5.7c-0.2,0.4,0.3,0.8,0.7,0.7
				c1.1-0.5,2.2-1,3.3-1.5c0.9-0.4,1.9-0.8,2.7-1.5l0,0c1.6,1.4,3.3,2.7,5,4c0.2,0.2,0.7,0.1,0.8-0.2c-0.1-0.3-0.1-0.6-0.2-0.9
				C-29.5,403.4-29.5,403.4-29.5,403.3 M-34.7,400.1h-0.1c0-0.2-0.2-0.4-0.4-0.3c-1,0.3-2,0.9-2.9,1.4c-0.7,0.3-1.4,0.6-2,1
				c0.8-1.5,1.5-3.1,2-4.7c0.2-0.1,0.3-0.5,0.1-0.7c-0.7-0.6-1.5-1.1-2.3-1.7c-0.5-0.4-1.2-0.8-1.7-1.3c1.7,0,3.5,0,5.2-0.3
				c0.2,0.1,0.4,0.1,0.5-0.2c0.7-1.7,1.4-3.4,2.2-5c0.7,1.7,1.3,3.4,1.7,5.2c0.1,0.3,0.3,0.4,0.6,0.4c0.7,0.6,1.8,0.6,2.8,0.7
				c0.8,0.1,1.6,0.2,2.4,0.3c-1.3,0.8-2.7,1.5-4.1,2.2c-0.2,0.1-0.2,0.2-0.3,0.4c-0.3,0-0.6,0.2-0.5,0.6c0.3,1.7,0.7,3.3,1.2,4.9
				C-32,401.9-33.3,400.9-34.7,400.1"/>
		</g>
	</g>
</g>
</svg>
