<?xml version="1.0" encoding="utf-8"?>
<!-- Generator: Adobe Illustrator 19.0.0, SVG Export Plug-In . SVG Version: 6.00 Build 0)  -->
<svg version="1.1" id="Capa_1" xmlns="http://www.w3.org/2000/svg" xmlns:xlink="http://www.w3.org/1999/xlink" x="0px" y="0px"
	 viewBox="-58 194.9 479 453" style="enable-background:new -58 194.9 479 453;" xml:space="preserve">
<style type="text/css">
	.st0{fill:#F077AA;}
	.st1{fill:#ED7C3C;}
	.st2{fill:#AA6D43;}
	.st3{fill:#1D1D1B;}
	.st4{fill:none;}
	.st5{fill:#FFDE00;}
	.st6{fill:#E93943;}
	.st7{fill:#60BAE8;}
	.st8{fill:#34AD61;}
</style>
<g id="XMLID_2_">
	<path id="XMLID_33_" class="st0" d="M41.6,327.2c0.7,0.2,1.4,0.3,2.1,0.4c2.3,0.6,3.6-2.4,1.6-3.7c-4.4-3-11.1-3.5-16.2-3.4
		c-2.1,0.1-3.3,3.1-1.4,4.2c0.2,0.1,0.2,0.1,0.5,0.3c-1.2-0.3-2.5-0.5-3.7-0.7c-2.4-0.3-3.8,2.5-1.7,3.9c1.3,0.8,2.6,1.7,3.9,2.6
		c-1.5-0.5-2.7,1.8-1.5,2.7c4.1,3.2,8.5,5.3,13.5,6c1.2,0.1,1.7-1.2,1.1-2c0.9,0.2,1.6,0.4,2.5,0.5c1.8,0.4,3.6-2.4,1.6-3.3
		c-2.4-1-4.5-2.2-6.7-3.2c2.5,0.5,4.7,1.3,7.1,2c2.3,0.6,3.6-2.4,1.6-3.7C44.7,328.8,43.2,328,41.6,327.2z"/>
	<path id="XMLID_32_" class="st0" d="M149.4,293.7c-1.1-1.1-2.1-2.2-3.2-3.2c1-0.6,1.2-2.2,0.4-3.2c-2.7-3.3-7.3-4.6-11.1-5.3
		c-2.8-0.5-4.8,2.9-2.2,4.7l0,0c-0.7-0.4-1.5-0.6-2.2-1c-2.2-1-4.1,2.3-2.4,3.9c0.8,0.6,1.5,1.4,2.2,1.9c-1.3-0.6-2.4-1.2-3.7-1.8
		c-2.8-1.3-5.1,2.3-2.5,4.1l0.2,0.1c-0.7,0.4-1.2,1.2-1.3,2c-1.5,0.3-2.3,2.5-0.7,3.5c1.1,0.6,1.8,1.1,2.2,1.9
		c-2.4,0.2-3.3,3.9-0.7,4.6c1.9,0.7,3.8,1.3,5.7,1.9c1.7,0.7,2.9,2,4.9,2.1c0.4,0.1,0.8,0,1.1-0.3c0.7,0.2,1,0.4,1.7,0.5
		c1.2,0.3,2.1-0.9,1.7-1.9c1.4,0.3,2.5-1.4,2.4-2.7l0.5,0.3c1.7,0.7,3.1-0.9,2.9-2.4c2.2,0.3,4.5-2.2,2.3-4.1
		c-1.2-1.1-2.7-2.2-3.9-3.3c0.7,0.4,1.5,0.6,2.2,1C148.8,298.7,151.4,295.9,149.4,293.7z"/>
	<path id="XMLID_29_" class="st1" d="M150.3,387c-1-0.7-2.1-1.5-3.2-2.1c2.4-1.2,3.5-4.7,1.4-7.1c-0.3-0.3-0.8-0.6-1.1-1.1
		c1.1-2,0.7-4.4-1.8-5.7c-2.8-1.5-5.4-2.2-8.4-2.8c-0.2,0-0.2,0-0.4-0.1c-3.1-1-6.2-2-9.3-3.2c-2.7-1.1-4.9,0.6-5.3,2.8
		c-0.7-0.2-1.1-0.6-1.7-0.7c-3.3-1.6-6.2,0.9-6.3,3.7c-0.2-0.1-0.2-0.1-0.5-0.3c-4.2-1.9-7.7,3.4-3.8,6.1c1.6,1.2,3,2.2,4.7,3.3
		c-6.4-2.7-13.1-5.4-19.5-8.1c-3.9-1.5-6.4,4.4-3,6.7c1,0.6,1.8,1.1,2.8,1.7c-3.2-1.2-6.2-2.4-9.4-3.5c-3.4-1.3-6.4,3.5-4,6
		c-1.3,0.9-2,2.6-1.5,4.3c-2.6,0.2-4.1,4.1-1.4,6.3c1.7,1.4,3.3,2.7,5,4.1c-2.2-1-4.4-2-6.4-2.9c-3-1.4-5.6,2.5-2.8,4.6
		c3.5,2.7,7,5.3,10.7,7.9c-1.9-0.7-3.8-1.4-5.8-2.1c-2.6-0.9-5.1,3-2.9,4.7c5.2,4.2,10.7,8.2,16.4,11.5c2.9,1.7,5.5,2.7,8.2,0.2
		c0.7-0.8,0.8-1.5,0.6-2.3c1.7,0.5,3.4,1.3,5.3,1.8c2.7,1.1,4.9-3.5,2.1-4.9c-0.7-0.2-1.1-0.7-1.8-0.9c2.8,1.3,5.5,2.6,8.3,4
		c3.1,1.6,6-2.3,4.2-4.5c2.4,1,4.7,2,7.3,2.9c3.8,1.4,6.2-4.4,2.9-6.4c-0.2-0.1-0.5-0.3-0.7-0.4c0.7,0.2,1.3,0.6,2,0.9
		c3.7,1.6,7.1-2.5,5.3-5.2c0.7,0.4,1.5,0.6,2.2,1c3.9,1.7,6.4-4.6,3-6.7c-2.3-1.4-4.6-2.8-6.7-4.1c2,0.9,4.1,1.7,6,2.5
		c3.9,1.5,5.7-3.5,3.6-6.1c0.7,0.4,1.3,0.6,2.2,1C150.7,395.8,154.4,390,150.3,387z M97.8,418.1c-0.5,0.3-2.1-0.4-4.2-1.9
		c1.5,0.6,2.9,1,4.4,1.6C98.2,418,98,418.1,97.8,418.1z"/>
	<path id="XMLID_21_" class="st2" d="M203.8,338.5c-3.6-2-7.2-3.5-11.4-4.5c-3.5-0.7-6.1,1.1-6.9,3.6c-0.7-0.2-1.1-0.6-1.7-0.5
		c-3-1.2-5.4,0.4-6.6,2.7c-2.4,0.4-4.4,2.6-4.8,4.9l-0.2-0.1c-4.1-1.5-7.1,2.6-6.4,6.2c-0.4,0.1-0.8,0.2-1.1,0.3
		c-2.5-1.4-4.7-2.8-7.2-4.2c3.7-0.9,5.8-5.8,1.7-8.5c-3.1-1.9-6.4-3.9-9.5-5.8c3.4-1.4,4.9-6.8,0.9-9c-1.3-0.6-2.7-1.3-4-2.1
		c1.3-0.3,2.3-1.4,2.8-2.8c0.4-0.1,0.8-0.2,0.9-0.2c1.4-0.5,2.6-1,3.7-2.2c0.7-1,1.5-2.1,1.6-3.3c0.1-0.4,0.2-1,0.1-1.4
		c2.5-0.6,5.1-3,4-6c-0.4-0.8-0.6-1.6-0.9-2.2c1.6-1.3,2-3.8,1.1-5.7c3.8-0.5,6.8-5.5,3.3-8.3c-0.8-0.6-1.5-1.4-2.4-1.9
		c0.6-1.3,1-2.9,0.9-4.4c-1-9-14.2-14.2-21.3-16.6c-1.7-0.5-3.1-0.2-4.2,0.8c-0.9-0.2-1.5-0.5-2.3-0.6c-3-0.6-5.4,1.1-6.2,3.4
		c-2.1-0.6-4.1-1.5-6.2-2.2c-4.4-1.6-7.3,3.5-5.5,7.1c-0.4,0.1-0.8,0-0.9,0c-3.3,0-5.7,3.5-4.8,6.4c-0.2,0-0.4,0.1-0.6,0.1
		c-3.4,0.4-4.8,5.6-2.3,7.9c0.5,0.3,1.1,0.9,1.9,1.5c-0.4-0.1-0.9-0.2-0.9-0.2c-5-0.6-5.6,5.8-2.4,8.3c0.5,0.3,1,0.7,1.4,1
		c-1.9,1.1-2.9,3.6-1.1,5.5c1.5,1.4,3.1,3.2,4.8,4.5c-2.6,0.2-4.5,3.2-4.1,5.8c-3.5-1.6-7.1-3.1-10.6-4.8c-4.3-1.8-7.3,4.1-4.9,7.1
		c-2.1-0.6-4.3-1.5-6.3-2.2c-4.8-1.5-7.4,4.8-3.8,7.7c-4.2-1.9-8.3-4-12.3-6.1c-3.1-1.6-5.7,2.7-2.8,4.6c3.6,2,7.2,4.2,10.8,6.3
		c-4-1.4-8.1-2.5-12.4-3.4c-1.8-0.4-3.3,0-4.3,0.6c-0.6-0.7-1.3-1.4-2.6-1.7c-0.3-1.1-0.9-2.1-2.2-2.8c0.3-1.4,0-2.7-1.3-3.7
		c-5.6-4.8-11.7-8.4-18.6-10.9c-1.5-0.5-2.9-0.1-4,0.8c-2.4-0.2-4.9-0.2-7.6,0.3c-2.1,0.3-3.1,1.9-3.2,3.4c-1.2-0.1-2.4,0-3.3-0.1
		c-3.1-0.1-5,2.9-4.3,5.7c-0.8,0.2-1.5,0.2-2.3,0.3c-3.2,0.5-4.1,4.9-2.1,6.9c0.6,0.7,1.2,1.2,1.8,1.9c-0.2,0-0.4,0.1-0.4,0.1
		c-3.7,1.1-3.8,6.1-0.3,7.6c0.7,0.2,1.1,0.6,1.7,0.7c-0.4,0.1-0.8,0-1.1,0.1C6,334,4.7,339.2,8,341.6c8,5.8,16.8,9.7,26.3,11.7
		c1.4,0.3,2.7,0,3.5-0.6l0,0.2c-1.3,2-1.2,4.9,1.5,6.4l1.6,1c-4.2-1.2-6.5,3.1-5.3,6.3c-1.6,2.1-2,5.5,0.9,7.1
		c1.8,0.9,3.5,1.8,5.3,2.7l0,0c-4.7-1-8.5,5.5-3.7,8.2c3.8,2.2,7.6,4.3,11.4,6.5c-2.5-0.5-4.7-1.3-7.1-2.2c-4.3-1.5-6.6,2.7-5.4,5.9
		c-2.7,1.8-3,6.9,1.1,8.6c0.2,0,0.2,0.1,0.4,0.1c-1-0.4-1.8-0.4-2.7,0c-2.2-1-4.6-1.6-7.1-2.2c-3.3-0.8-6.6,1.8-7.2,4.6
		c-0.2,0-0.2-0.1-0.4-0.1c-4.2-0.9-7,2.3-6.6,5.6c-2.1,0.3-3.4,2-3.7,3.8c-4-0.6-6.3,5.2-2.6,7.6c3.9,2.6,9.7,8.5,14.5,7.5
		c0.6-0.1,1.2-0.5,1.5-1.2c1.7,0.5,3.2,1.2,4.9,1.9c2.4,1,4.4-0.2,5.1-2.2c1,0.6,2,1.1,2.9,1.7c0.7,0.4,1.3,0.6,2.1,0.6
		c1.5,2.3,3.7,4.2,6,5.9c-3.7-0.9-5.2,4.7-1.6,6.1c6.5,2.3,13.1,4.4,19.6,6.7c1.6,1,3.2,2.1,4.7,3.1c-6-2.3-11.7-4.5-17.7-6.8
		c-4.1-1.5-8.2,3.7-6,7.2c1.3,2.1,3.1,3.9,5.2,5.3c-1.5,2.1-1.2,5.3,1.4,6.7c1.3,0.6,2.5,1.4,3.7,1.8c-0.1,1.4,0.5,3,2.1,3.9
		c4.2,2.9,8.5,5.5,12.7,8.2c-3.4-1.3-6.6-2.8-10-4.2c-4.9-1.9-7.6,5.3-3.7,8.1c3.2,2.1,6.7,4.2,9.9,6.4c-2.3,1.7-3,5.1,0.2,7.2
		c6.3,3.7,12.4,7.6,18.8,11.3c-2.7-1.1-5.8-2.1-8.5-3.2c-4.6-1.8-7.8,5.4-3.5,8c2.5,1.6,4.9,2.8,7.6,4.3c-0.9,2-0.7,4.2,1.5,5.4
		c0.7,0.4,1.5,0.8,2.2,1.2c-4-1.2-6.9,4.9-3,6.9c4.5,2.2,9,4.4,13.6,6.4c-2.8,0.5-4.4,5.1-1.3,6.7c6.2,3.1,12.4,6.7,18.7,9.4
		c0.7,0.4,1.5,0.6,2.4,1c1.2,0.3,2.2-0.5,2.5-1.5c1.3,0.5,2.7,0.9,4.1,1.5c2.6,0.9,4.5-1.3,4.6-3.6c0.8-0.6,1.4-1.5,0.9-2.6
		c2.9-0.1,4.4-4.3,2.6-6.8c3.4-0.6,5.1-6.3,1.4-7.8c-0.7-0.4-1.3-0.6-2.2-1c2.7-1.5,3.8-6,0.5-7.8c-2.5-1.6-4.9-3-7.4-4.4
		c4.4,1.6,9.1,3.3,13.7,4.7c4.2,1.4,6.5-2.9,5.3-6.1c1.3,0.5,2.4,1,3.7,1.6c3.5,1.5,6.4-2.4,5.9-5.4c1.3,0.5,2.6,1.1,3.9,1.5
		c4.4,1.8,8.1-4.8,5.1-7.8c4.1,1.5,7.9,3.1,11.9,4.7c6,2.5,8.7-5.8,4.5-9.4c1.5,0.6,3.2,1.2,4.6,1.8c-1.8,2.2-1.6,6,1.9,7.2
		c0.9,0.4,1.9,0.5,2.7,0.9c-0.4,0.9-0.4,1.8-0.3,2.5c-2.2,2.1-2.7,6.4,0.5,8.4c0.2,0.1,0.2,0.1,0.5,0.3c-1.5,1.7-1.8,4.3,0.1,6.1
		c-1.8,2.6-1.4,6.9,2.6,8.1c0.9,0.2,1.5,0.5,2.1,0.6c4.2,1.2,8.1,1.6,12.3,1.3c2.9-0.1,4.6-1.9,5.1-3.7c4.3,0.5,7.5-4.5,5.3-7.9
		c0.6-0.8,1-1.4,1.4-2.3c0.6,0.1,1.2,0.1,1.8,0.2c5.2,0.5,6-6.3,2.5-8.7c-1.4-1-2.9-2-4.4-3c2.4-1.9,2.5-6.3-1-7.9
		c1.4,0.1,2.7,0,4,0c4.6-0.2,7.4-5.7,4.5-8.8c2-2,2.4-5.6-0.8-7.3c-2.2-1.2-4.2-2.3-6.5-3.5c0.8-0.2,1.6-0.6,2.2-0.9
		c4.2-1.8,2.9-8-1.1-9.2c-0.9-0.2-1.7-0.5-2.5-0.7c1.1-0.3,2-0.5,3.1-0.9c4.4-2,2.9-8.2-1-9.6c-0.5-0.3-1-0.4-1.5-0.6
		c2.3-2.3,2.3-7.3-1.7-8.8c-1.7-0.5-3.2-1.2-4.8-1.7c1.5-1,2.5-2.5,2.5-4.3c4.2-0.8,5.4-7.9,0.2-10.1l-2.2-0.8
		c3.4-1.2,5.7-5.4,2.2-8.2c-1.4-1.2-2.9-2.2-4.2-3c2.5-2.4,2.6-6.8-1.7-8.1c-1.6-0.4-3.1-1-4.6-1.6c1,0.2,2.2,0.3,3.2,0.6
		c5.9,1,6.5-7.7,1.6-9.6c-3.6-1.5-7.5-2.8-11.1-4.3c1.2-2.4,0.6-5.8-2.8-7c-2.6-0.9-4.9-2.1-7.3-3.1c4.2-0.8,7.1-6.9,2.2-9.3
		c-0.2,0-0.2-0.1-0.4-0.1c2.8-2.2,2.8-7.5-1.4-9.1c-3-1.2-6-2.5-9-3.6c3.3-2.3,3.8-7.9-1.2-9c-0.2-0.1-0.4-0.1-0.7-0.2
		c-0.5-0.3-0.8-0.7-1.2-1.1c0.2,0,0.4-0.1,0.5-0.3c2.2,1,4.4,2,6.6,2.8c0.4,0.1,0.9,0.2,1.2,0.1c2.7,0.9,5.5,1.8,8.3,2.4
		c2.8,0.7,5.4-1.1,6.2-3.4c3.5,0,6.4-3.3,5.6-6.6c3.2-1.2,5-5.6,2.7-8.8c0.1-0.4,0.4-1,0.4-1.6C206.7,346.9,208.1,340.9,203.8,338.5
		z M43.3,420.8c-0.9-0.4-1.6-0.4-2.4-0.2c0.9-1.1,1.3-2.7,1.2-4c9.5,5,19.1,10.1,28.7,14.9C61.9,427.9,52.5,424.3,43.3,420.8z
		 M45.6,335.6c-0.5,1.3-0.2,2.5,0.5,3.8c-2.2,1.1-3.6,3.5-3,5.8c-1-0.4-1.8-0.2-2.7,0c-1.6,0-2.9-0.2-4.5-0.5
		c-4.1-1.5-8-3.1-12.2-4.8c-0.5-0.3-1-0.2-1.4-0.3c2-1.4,2.4-3.9,0.7-5.9c-0.6-0.7-1.1-1.1-1.4-1.8c1.9-1.3,2.3-4.2,0.7-6.1
		c-0.6-0.7-1.3-1.4-1.8-2c1.7-0.4,3-2.2,3-4c1.4,0.3,2.7,0.3,4,0.6c3,0.6,5.4-1.5,5.6-4c0.9,0.2,1.9,0.5,2.7,0.9c1,0.4,2,0.3,2.7,0
		c0,0,0.2,0,0.2,0.1c-1.2,2.2-0.6,5.6,2.4,6.7c1.1,0.6,2.4,1,3.4,1.3c0.3,0.5,0.6,0.8,0.9,1.3c1.3,1.4,2.7,2.4,4.3,3.4
		C48,331.1,46.5,332.8,45.6,335.6z M117.3,307.5c-0.7,0.4-0.9,1-0.4,1.6l0,0c-0.5-0.5-1.1-1.3-1.7-2.3
		C116.1,307.1,116.7,307.3,117.3,307.5z M126.4,445.7c6.5,2.4,13.3,4.9,19.9,7.3c4.7,2.2,9.6,4.3,14.4,6.2c1.3,0.6,2.7,1.1,4.1,1.7
		C152,456.3,139.1,451.2,126.4,445.7z M152.2,403c-5.2-0.7-6,5.4-3.2,8.5l-0.2,0c-2.4-0.3-4.3,0.6-5.4,2.2c-2.9-1-6.1-1.8-9-2.9
		c-6.5-2.2-9,7.4-3.1,10c0.5,0.3,1.1,0.6,1.5,0.6c-0.7,0.6-1.2,1.4-1.6,2.3c-0.9-0.4-1.9-0.5-2.7-0.9c-3.3-1-6,1.6-6.4,4.4
		c-6.1-1.8-12-3.5-18.2-5.1c-2.6-0.7-5.1,0.8-6.1,3c-6.5-2.3-12.9-4.6-19.5-7.2c2.9-1.8,2.8-6.6-1.2-8.5c-0.4-0.1-0.9-0.4-1.3-0.5
		c0-1.6-0.5-3-2.1-4.1c-1.1-0.7-2.2-1.2-3.3-1.9c0.6,0.1,1.2,0.1,1.7,0c4.4,0.1,6.7-6,2.6-8.5c-2.3-1.4-4.7-2.8-6.9-4
		c2.3,0.4,4.4,0.9,6.7,1.3c5.5,1.1,7.6-6,2.4-8.3c-3.3-1.6-6.5-3.1-9.8-4.6c2.9,0.9,6,1.4,9.1,2.3c2.3,0.4,4.1-0.6,5.3-2.1
		c0.7-0.4,1.5-1,2.1-1.6c1.2-1.6,2.6-3.1,3.7-4.8c1.1-1.2,0.9-2.7,0.4-4c5.8,0.8,11.5,1.3,17.3,1.6c3.3,0.1,5.1-2.8,5-5.6
		c3.3,1,6.6,1.7,9.9,2.7c5.1,1.2,7.6-4,5.4-7.5c5.8,2.5,11.6,4.7,17.4,6.6c-0.6,2.3,0.4,5.1,3.5,6.4c0.7,0.2,1.5,0.6,2.2,0.8
		c-1,2.4-0.7,5.4,1.8,6.6l0,0c-2.4,1.9-3,6,0.4,8.2c1.1,0.9,2.3,1.6,3.5,2.5c-5,0.3-6.7,7.6-1.2,9.5c2.6,1.1,5.3,2,7.9,3.1
		C157.7,403.8,155,403.5,152.2,403z M140.7,312.6c0-0.2-0.2-0.1-0.3-0.3c-6.4-4.1-13.4-5.3-20.9-3.9c0-0.2-0.1-0.4-0.3-0.5
		c3.3-0.2,5.5-4.4,2.7-7c-0.5-0.5-1.1-1.1-1.7-1.5c1.4-0.5,2.5-1.5,3.3-3.1c0.7-1.9,0.5-3.6-0.5-5.3c2.6-1,4.2-4.3,2.5-7
		c2.1-0.1,3.6-1.3,4.3-3c3.4,1.3,7,2.5,10.4,3.9c2.9,1,5.2-0.8,6-3.2c0.7,0.4,1.3,0.6,2,1.1c-1.7,1.8-2.4,4.5-0.8,6.4
		c-1,1.6-1.3,3.8-0.5,5.4c0.5,1,1.1,2.1,1.5,2.9c-2,1.6-2.5,4.3-0.9,6.6c-2.1,1.3-3.3,3.1-2.8,5.1c-0.2,0-0.2,0-0.4,0.1
		c-1.3,0.3-2.2,1.1-3.2,1.9C141.2,311.9,141,312.1,140.7,312.6z"/>
	<g id="XMLID_3_">
		<path id="XMLID_16_" class="st3" d="M203.2,339.9c-10.8-15-32.2-9.5-36.5,5.6c-6-8.8-12.1-17.6-18.4-26.3
			c4.5,0.3,8.9-3.1,11.6-6.5c4.1-5,5.3-11.8,5.1-18.1c-0.4-12.7-5.5-25.7-18.1-30.4c-27.4-10.3-46.6,19.1-39.7,43.5
			c-8.8-0.1-17.9,2.3-25.8,5.2c-5.3,2.1-14.8,5.3-19.5,10.3l0,0c-7.4-21.3-36.2-27.6-49.5-8.3c-6,8.7-6.6,20.1-0.4,28.7
			c5,7.1,14.6,12.5,23.4,10.5c-3.1,16.4-2.5,33.5-0.8,49.9c-10.9-6.2-26.6-0.2-28.2,13.7c-2.2,17.5,20.7,24.2,32.7,14.8
			c3.1,14.7,7.3,29,12.7,43.1c7.7,20,17.9,39,30.2,56.5c8.7,12.2,20.3,28.1,37.5,25.6c7.5-1,14.1-5.7,15.9-13.5
			c1.7-7.4-1.3-14.4-5-20.8c17.3,2,34.3-1.8,49.2-11.1c-0.1,14.1,3.5,33.2,21.1,32.5c17.2-0.6,22.5-23.2,23.3-36.7
			c2.9-43.8-13.4-87.5-34-125.2c-2.5-4.7-5-9.1-7.6-13.5c0.2,0.1,0.2,0.1,0.5,0.3c2.9,6.5,15.1-0.1,18.3-3.5
			C207.6,359.3,209,348.2,203.2,339.9z M35.6,413.3c0.6,5.1,1.5,9.9,2.4,14.8c-4.8,2-9.2,4.4-14.5,3.7c-6.8-0.7-12.6-5.8-12.1-12.9
			c1.1-12.8,14-14.1,23.8-10.5C35,410.2,35.2,411.9,35.6,413.3z M209.9,444.7c5.9,21,9.9,44,7.6,65.8c-1,9.7-4.3,26.1-16,28.6
			c-6.5,1.3-12.1-3.7-14.7-9c-3.4-6.9-2.7-15.2-2.1-22.5c0.2-2.7-2.9-3.3-4.7-2.2c-15.7,11.7-35.7,16.1-55,12.3
			c-2.1-0.4-4.8,1.8-3.2,4.1c6.1,9,14.8,26.1-1.2,30.6c-10.9,3.2-20-4.5-26.5-12.2c-13.8-16.6-24.8-36.6-33.2-56.4
			C52,463.5,45.7,442,42.2,420c-3.6-22.2-2.8-44-3.1-66.3c0-0.8-0.5-1.4-1-1.7c-0.3-0.3-0.6-0.7-1.1-0.7
			c-8.4-1.1-15.6-2.9-20.7-10.4c-5.3-7.6-3.8-17.5,2.1-24.3c12.1-13.9,32.1-6.5,38.2,9.1c0.5,1.2,1.8,1.7,3,1.2
			c-0.1,0.4-0.4,0.9-0.5,1.3c-0.1,0.4,0.2,0.8,0.6,0.8c4,0.2,6.4-2.4,9.8-4.3c4.6-2.6,9.4-4.9,14.6-6.8c9.7-3.4,19.1-3.6,29-4.8
			c3-0.3,1.8-4.3-0.5-4.7l0,0c0-0.2,0-0.2-0.1-0.4c-5.9-19.2,5.8-44.7,29-39.4c10.7,2.5,15.7,11.4,17.2,21.6
			c0.8,5.1,0.7,10.4-1,15.1c-2.6,6.8-8.2,7.7-12.7,12.1c-0.5,0.5-0.2,1,0.3,1.3c-1.2,0.7-2,2.6-1,4.1c7.4,10,14.7,20.2,21.7,30.8
			c0,0.2,0.1,0.4-0.1,0.6c0.2,0.8,0.7,1.2,1.2,1.2C185.3,383.3,200.7,412.8,209.9,444.7z M200.6,355.7c-1.4,4.4-9.6,14.8-14.9,10.2
			c-1.2-1.1-2.6-0.7-3.4,0.4c-0.2-0.1-0.4-0.1-0.7-0.2c-0.7-0.2-1.5-0.6-2.3-0.8c-2.9-5-6-9.8-9.3-14.6
			c2.2-11.7,15.8-19.6,26.1-10.3C200.3,344.1,202.3,350,200.6,355.7z"/>
		<path id="XMLID_13_" class="st3" d="M143.9,280.9c-6.1-3.6-13.4-2.8-18.4,2.2c-6.1,6.1-5.9,15-4.6,22.9c0,0.2,0.1,0.6,0.4,0.7
			c-0.1,0.6,0.3,1.3,1,1.5c2.7,1.1,5.8,2.1,8.3,3.5c2.2,1.2,4.5,3.2,7,2.7c0.2,0,0.2,0,0.4-0.1c0,1.7,2,3.4,3.6,2.2
			C153.5,308.3,158,289.2,143.9,280.9z M139.3,312c-1.1-2.8-4.4-3.6-7.1-4.7c-2.7-1.1-6.1-1.8-9-2.1c0.2-5.5,0.6-11.2,3.7-16
			c4-6.2,11.4-7.4,16.7-2C151.7,295.1,145.6,305.4,139.3,312z"/>
		<path id="XMLID_10_" class="st3" d="M51.2,327.7c0-0.2-0.1-0.6-0.4-0.7c-4.9-4.1-7.3-9.5-14-10.7c-4.9-1-10.4,0.9-13.3,5.1
			c-7.7,11.7,6.2,21.3,15.8,24.8c0.4,0.1,0.7,0.2,1,0.2c0.6,0.8,2,0.9,2.4-0.4c1.2-3.4,2.4-6.7,4.6-9.8c1.6-2.3,5.3-4.4,5-7.4
			C52.1,328.2,51.6,327.7,51.2,327.7z M43.3,334.2c-1.4,2.3-2.4,4.6-2.9,7.1c-3.9-1.5-8.1-3.3-11-6.4c-3.2-3.6-4.4-9.5,0-12.8
			c7.6-5.3,12.7,2.9,18.6,6.1C46.1,329.4,44.3,332.6,43.3,334.2z"/>
		<path id="XMLID_9_" class="st4" d="M107.7,367.3L107.7,367.3"/>
		<path id="XMLID_6_" class="st3" d="M103,366.3c-0.2,0-0.4-0.1-0.6-0.1C83,368.5,64,382.9,70.5,404.4c6.7,21.4,32.2,26.3,50.9,19.7
			c18-6.5,38.1-23.4,32.8-44.8C148.3,355.2,120.4,359.8,103,366.3z M121.1,418c-15.4,6.1-37.1,3.8-44.3-13.4
			c-3.3-8.1-2-17.5,4.6-23.7c3.6-3.3,8.2-5.4,12.8-7c0,0.2,0,0.2,0.1,0.4c-2.3,5.8,5.3,9.9,10.7,9.8c0.5,2.2,0.9,4.6-0.2,6.4
			c-1.4,2.3-3.5,2.2-6,1.6c-1.5-0.5-2.9,0.9-2.5,2.4c1.5,5.6,9,3.6,11.9,0.2c1.4-1.5,1.9-3.1,2.1-4.9c1,0.7,1.9,1.5,3.1,1.7
			c4.2,1.4,11.9-1.7,11.5-7c-0.1-1.9-2.2-3-3.7-1.6c-2,1.8-3.2,4.5-6.4,3.9c-2.4-0.3-4.1-2.5-4.4-4.7c4.5-3.2,7.8-9.6,2.3-13.1
			c13.8-3.7,31.1-5.7,35.9,10.5C154,397.6,136,412.3,121.1,418z"/>
		<path id="XMLID_5_" class="st3" d="M83,357c-0.7-0.4-1.5-0.6-2.3-0.4c-0.8,0.2-1.4,0.7-1.8,1.4c-0.6,1-0.4,2.1-0.1,3.1l0,0.2
			c0.5,1.2,2.2,1.8,3.3,1.6c1.3-0.3,2.3-1.5,2.2-2.9l0-0.2C84.3,358.5,84,357.5,83,357z"/>
		<path id="XMLID_4_" class="st3" d="M113.1,347.8c0-0.2-0.1-0.6-0.4-0.7c-0.1-0.4-0.1-0.4,0,0c-0.3-1.3-1.9-2.4-3.1-1.9
			c-1.5,0.3-2.3,1.7-1.9,3.1c0-0.2,0-0.2,0,0c0.1,0.4-0.1,0.6,0,0.9c0,0.2,0.1,0.6,0.2,0.9c0.1,0.6,0.3,1.1,0.4,1.7
			c0.5,1.4,1.7,2.5,3.4,2.1c1.7-0.4,2.2-1.9,2.1-3.4c-0.1-0.6-0.3-1.1-0.4-1.7C113.2,348.3,113.2,348.2,113.1,347.8z"/>
	</g>
</g>
<g id="XMLID_34_">
	<path id="XMLID_48_" class="st5" d="M271,444.2c3.5-0.7,6.4-2.9,6.1-7.8c-0.7-6.2-8.5-6.1-9.8-1.2c-4-0.4-5.2,4.2-4,6.9
		c-1-2.5-4.3,3.5-4.5,4.8c0,0.2,0,0.2,0,0.4c-0.4-0.2-0.9-0.4-1.2-0.7c-4.8-2.1-8.3,4.3-6.2,8.1l2.3,4.2c-3.5,0.7-5.7,4.5-4.2,7.9
		c-0.9-0.2-1.7-0.7-2.5-0.9c-4.8-1.4-9.2,4.3-6.4,8.3c1.9,2.7,3.3,5.7,5,8.3c-1.7-1.4-3.3-2.9-5-4.3c-4.3-3.5-11.3,0.9-8.1,6.2
		c1.4,2.5,2.9,5,4.3,7.5c-4.2-1.9-9,2.5-6.4,7.1c1.4,2.9,3.1,5.7,4.8,8.3c-0.9-1-1.4-1.9-2.3-2.9c-3.5-4.3-11.1,1.4-7.8,6.1
		c1.2,1.9,2.5,3.8,3.8,5.7c-2.7,0.7-5,3.8-3.1,6.4c2.3,3.5,4.5,7.1,6.6,10.6c-1.4-1.9-2.9-3.5-4.3-5.4c-1.9-2.5-7.1-1.2-5.7,2.3
		c0,0.2,0.2,0.4,0.4,0.9l0,0l0,0c2.1,5,4.5,9.2,8.1,13.1c0.9,0.9,1.9,0.9,2.7,0.2c3.5,3.5,7.3,7.1,11.3,10.2
		c2.3,1.9,6.6,0.4,5.9-2.9c3.8,4.2,7.3,8.5,11.1,12.7c3.5,4,10.4-1.2,7.5-5.7c-0.2-0.2-0.4-0.7-0.7-0.9c4.2,1.4,9.4-3.1,6.2-7.3
		c-5.4-7.5-10.4-15.2-15.4-23.2c3.8,1.2,8.3-3.3,5.9-7.3c-2.7-4.8-5.7-9.5-8.3-14.4c0.2,0,0.2,0.2,0.4,0.2c3.8,3.5,10.6,0.2,9-5.2
		c-1.7-5.7-4-11.1-6.4-16.5l0,0c5,3.3,10.2-3.1,7.8-7.8c-0.9-1.4-1.7-2.9-2.3-4.5c3.8-0.4,6.1-4.8,4.2-8.3l-1.2-2.3
		c2.5-0.4,4.8-2.9,4.5-5.4c-0.2-3.8-2.7-6.6-2.3-9.4C270.2,446,270.6,444.9,271,444.2z"/>
	<path id="XMLID_47_" class="st1" d="M336.6,540c-5-2.5-9.8-5.2-14.7-7.9c2.1-2.3,2.3-5.9-1.2-7.9c-10.6-6.2-21.3-13-31.7-19.8
		c4.5,0.2,8.3-5.4,4.2-9.2c-3.5-3.3-7.3-6.6-11.1-10c4.8-0.2,7.8-5.7,4-9.8c-0.9-1-1.9-2.1-2.7-3.1c2.9-1.4,4.3-5.4,2.5-8.3
		c-1.2-2.1-2.7-4.2-4-6.2c2.3-3.1,3.5-6.6,4.8-11.1c2.1-7.8-10-10.9-11.9-3.3c-0.4,3.5-2.1,6.6-4.8,9.4c-1.9,1.7-2.3,5.2-1,7.3
		c0.2,0.4,0.4,0.7,0.7,1c-4.5,0.9-6.2,6.4-3.1,10c0.9,1,1.9,1.9,2.7,2.9c-0.9,0.2-1.9,0.4-2.9,0.7c-4,1.2-5.9,6.6-2.5,9.5
		c1.2,1.2,2.7,2.3,4,3.5c-1.7,0-3.3-0.2-5.2,0c-5.4,0.2-6.9,6.9-2.7,9.8c0.7,0.4,1.2,0.9,1.7,1.2c-3.8,1.4-5.2,6.6-1,9.5
		c1.4,1,3.1,2.1,4.5,3.1c-4.2,0.7-5.9,7.3-1.7,10c1.2,0.7,2.3,1.4,3.5,2.1c-3.3,1-4.8,5.7-1,8.1c5.4,3.8,10.6,7.5,15.8,11.4
		c-3.3-1.2-6.6-2.3-10-3.3c-3.8-1-7.3,4.2-4,6.9c3.5,2.7,7.1,5.7,10.6,8.3c-4.3-1-6.2,5.4-2.7,7.9c4.2,3.1,7.8,4.5,12.7,5.7
		c1.2,0.2,2.5-0.4,2.9-1.4c1.4,0.2,3.1,0.4,4.5,0.7c4.8,0.4,5-5.7,2.1-7.9c-1.2-1-2.7-2.1-4-3.1c5,2.3,10,4.5,14.7,7.1
		c4.2,2.1,9-3.3,5.2-6.6c-3.5-2.9-7.1-5.9-10.6-8.8l18,7.9c5.7,2.5,10.4-5.2,5-8.5c-0.9-0.7-1.9-1.2-2.7-1.7l8.5,3.5
		C338,552.3,342,542.8,336.6,540z"/>
	<path id="XMLID_46_" class="st6" d="M267.9,422.8c-4.8-2.9-8.5-1.4-11.1,2.1c-3.1,0.7-5.2,2.7-6.2,5.7c-0.7-0.2-1-0.4-1.7-0.9
		c-4.8-2.3-9.4,1.4-8.5,6.4c0.2,1,0.4,1.9,0.7,2.7c-1.9,0.2-3.5,1.4-4.3,3.1c-1-0.7-2.1-1.4-3.3-2.1c-4.2-2.5-9.5,1.7-8.1,6.2
		c0.2,1,0.7,2.1,1,3.1c0,0,0,0-0.2,0c-4-2.7-8.8,1.9-7.8,6.1c0.7,2.5,1.4,4.8,2.1,7.1c-1-0.2-2.1-0.4-3.3-0.7
		c-2.9-0.2-5.7,3.3-4.5,6.1c1,2.5,1.9,5,2.9,7.5c-1-0.7-1.9-1.2-2.9-1.9c-3.5-2.3-7.8,1.4-6.6,5.2c1,4.2,2.3,7.9,3.8,11.9
		c-2.1,1-3.3,3.5-1.7,6.2c4.2,7.1,7.1,14.4,7.8,22.7c0.2,2.7,3.8,2.7,4.2,0c0.2-2.7,0.4-5.4,0.4-8.1c3.8,1.7,8.3-2.7,6.1-6.9
		c-2.5-4.5-4.8-9.4-6.6-14.2c1.2,1.2,2.5,2.7,3.8,4.2c2.9,3.3,9-0.2,7.5-4.3c-1.7-4.8-3.3-9.4-5-14.2c0.4,0.4,1,1,1.4,1.7
		c4.2,4.3,10.2-1.2,7.9-6.1c-0.7-1.2-1.2-2.5-1.7-3.8l1.7,1.2c4.8,3.5,9.5-3.1,7.5-7.5c-0.4-1-1-2.1-1.4-3.1c4,1.4,9.5-0.9,8.3-5.7
		c4.3,0.9,7.3-3.8,6.1-7.8c3.8,0.2,7.3-2.9,6.2-7.3c-1-0.2-1.9-0.7-2.9-0.9c2.5,0.9,4.8-0.2,6.2-2.1
		C270.2,434.4,273.9,426.8,267.9,422.8z"/>
	<path id="XMLID_45_" class="st7" d="M364.7,480.1c1.9-3.5,1-8.5-4-9.8c-10.9-2.9-21.5-6.1-32.7-7.5c-3.1-0.4-6.6-0.7-10.2-0.9
		c0.4-2.3-0.4-4.5-3.3-6.2c-1.2-0.7-2.5-1.4-3.8-2.1c0.9-2.9,0-6.4-2.7-8.1c-2.7-1.7-5.4-3.3-8.1-5.2c0-0.2,0-0.2,0.2-0.4
		c2.5-8.3-10.4-11.9-13.1-3.5H287c-4,2.5-4.3,7.8-1.2,10.6c-1.7,3.1-1.2,7.3,2.3,9.2c0.2,0.2,0.7,0.2,0.9,0.4c-1,1.4-1.4,3.5-1,5.4
		c-3.8,2.1-4.3,7.5-1,10.6c-2.1,2.9-2.5,7.1,1.9,9c1.7,0.9,3.5,1.7,5.2,2.5c-3.5,2.5-5,7.8,0.2,10.2c1.2,0.7,2.3,1,3.5,1.7
		c-1,2.5-0.4,5.7,2.5,7.1c6.4,3.3,13,6.4,19.4,9.8c-1.4,2.3-1,5.7,1.9,7.8c2.5,1.9,5,3.8,7.8,5.2c-1.4,2.1-0.9,5.7,1.9,6.2
		c6.1,1.2,11.9,2.5,18,3.8c5,1,8.8-6.2,3.8-8.8c-1.7-0.9-3.3-1.9-5-2.7c2.5-1.2,4.2-4,3.5-6.4c1.7-1.2,2.7-3.5,2.7-5.7
		c0.2,0,0.2,0.2,0.4,0.2c6.2,2.5,10.9-7.3,5.9-11.1c4.3-1.2,5.7-8.3,1.4-11.6C364.7,487.7,366.9,483.2,364.7,480.1z"/>
	<path id="XMLID_44_" class="st8" d="M360,464.7c-1.2-2.7-2.3-5.7-3.5-8.3c-0.4-1.2-1-2.7-1.9-4.2c-1.9-3.8-5-4.5-7.8-3.5
		c-3.1-3.5-6.2-7.1-9.4-10.6c-2.5-2.7-5.7-2.9-7.9-1.4c-1.7-1.9-3.3-4-5-5.9c-3.1-3.5-7.1-2.7-9.5,0.2c-0.4-0.4-0.7-0.9-1-1.2
		c-4-4.5-10.2-1.2-11.3,3.8c-6.6-6.1-14-10.6-24.6-10.9c-3.5,0-6.4,3.3-6.1,6.6c-1.2,0.2-2.5,0.9-3.8,1.4c-1.2,0.7-1.2,2.5,0,3.3
		c3.1,1.9,7.1,3.5,9.4,6.1c3.3,3.3,8.3,0.9,9-3.1c9.5,4.3,15.8,15.2,24.2,22c2.9,2.5,7.5,2.7,9.8-0.4c0.2,0.2,0.4,0.7,0.7,0.9
		c2.7,3.5,7.9,3.8,10.6,1.4c1.2,1.4,2.3,2.7,3.5,4.2c2.3,2.7,5.2,2.9,7.5,1.7c1.7,1.9,3.1,3.8,4.8,5.7
		C352,477.3,362.9,471.6,360,464.7z"/>
	<g id="XMLID_35_">
		<path id="XMLID_36_" class="st3" d="M363.8,466.6c-5.9-17.5-17.7-32.7-34.8-40c-15-6.4-37.5-11.3-54.4-6.9l0,0
			c-36.5-3.3-64.4,32.5-69.8,65.2c-6.2,36.5,8.1,71.2,43.1,85.8c30.2,12.5,67.3,7.8,91.9-14.4C363.9,534.4,374.2,497.6,363.8,466.6z
			 M332.5,437.8c10,6.2,17.3,16.3,21.7,27.3c-25.8,4.3-49.8-9.2-62.7-31.2c1.2-2.5,1.7-5.2,1.2-7.8
			C307,426.9,322.9,431.8,332.5,437.8z M287.1,425.9c0.9,4.2-2.1,9.5-6.4,10c-0.2,0-0.4,0-0.7,0c-0.7,0-1.2,0-1.9-0.2
			c-2.7-0.9-5.2-4-5.9-7.3C276.7,426.8,281.6,426.1,287.1,425.9z M212.7,513.2c-2.7-21.1,1.4-43.3,14.4-60.4
			c10.6-14.2,24.6-21.5,40.7-26c0.2,0.4,0.4,0.9,0.9,1c-0.4,1.7-0.2,3.3,0.4,5.4c-29.1,19.9-50.2,58.7-52.3,95.2
			C214.7,523.6,213.5,518.4,212.7,513.2z M222.3,539c1.4-19.6,4.2-37.7,13.1-55.8c8.8-18,21.5-32.7,35.5-46.4
			c1.2,1.7,2.7,2.9,4.5,3.8c-12.7,15.8-12.7,42.1-14,61.1c-1.4,21.5-1,48.1,11.6,66.8C252.5,565.8,233.6,555.7,222.3,539z
			 M300.8,566.7c-7.3,1.7-14.6,2.3-21.8,2.1l0,0c-4.3-10.4-9-19.9-11.1-31.2c-1.9-11.3-1.9-22.7-1.2-33.9c1-19.4,1.2-45.2,12.7-61.8
			c1.4,0,2.7-0.2,4-0.7c-10.2,41,14.6,90.6,58,100.2C331.4,553.5,317.4,563,300.8,566.7z M344.9,536.7c-0.2-0.2-0.2-0.2-0.4-0.2
			c-19.3-8.1-35.8-17.5-46.8-36c-11.3-18.5-14-40.2-10.4-61.3c0.7-0.4,1-0.9,1.7-1.4c11.6,25,40.4,37.9,67.3,33.6
			c1.7,5.4,2.5,10.9,2.9,16.3C360.2,505.2,354.8,522.5,344.9,536.7z"/>
	</g>
</g>
<g>
	<path d="M414.5,442.6c1.2,41.2-0.8,86.5-24.4,125.1c-42.4,69.2-185.8,94.6-285.4,70.1c-56.5-13.9-87-46.4-110-82.1
		c-26.3-40.6-40.2-84.5-41-128.8c0-0.8,0.4-1.4,0.9-2c-9.2-48.2-6.9-99.2,28-142.9c31.7-39.5,87.5-64.7,152.7-72.6
		c54-6.5,120.5-4.7,167.6,16.2c42.6,18.9,67.3,50.7,82.4,82.5C405.7,351,413.3,397.7,414.5,442.6z M393.9,529.7
		c11.2-39.8,11-81.8,6.1-122.1c-4.5-37.3-13.1-75.9-33.4-111c-18.9-32.6-51.1-63.2-102.5-74.7c-51.3-11.5-112.8-10.1-163.5,1.9
		C-27.2,254.1-46.7,348-33.7,427.2c0.2,0.9-0.3,1.6-0.8,2.2c2.4,46.1,17.2,91.4,46.8,133.2c29.6,41.6,72.7,70,143.3,74.8
		c50.3,3.4,106.4-3.1,151.3-18.9C358.6,600.2,383.5,566.9,393.9,529.7z"/>
	<path d="M389.4,435.3c1,6.5-1.6,13.7-2.7,20.2c-0.4,2.1-5.3,2.2-5.1,0c0.9-6.6,0.5-14.2,3.6-20.6
		C386,433.3,389.2,433.8,389.4,435.3z"/>
	<path d="M389.2,479.1c1.1,5.9-1.7,12.6-2.8,18.5c-0.4,2.1-5.2,2.2-5,0c0.7-6.1,0.1-13.1,3.1-18.9
		C385.5,476.9,388.9,477.4,389.2,479.1z"/>
	<path d="M384.1,387.7c2.1,6.7,1.1,13.9,0.8,20.6c-0.2,2.6-5.8,2.5-5.9,0c-0.3-6.8-1.3-14,0.8-20.6
		C380.2,386.3,383.7,386.3,384.1,387.7z"/>
	<path d="M379.3,524.6c0.9,6.6-3.6,13.5-8.2,19.2c-1,1.3-4.4,0.4-3.6-1c3.7-6.1,4.7-12.4,7.3-18.6
		C375.6,522.5,379.1,523,379.3,524.6z"/>
	<path d="M374.9,362.8c0.2,1.9-4.6,2.3-4.9,0.4c-1.2-5.8-2.2-11.5-2.4-17.3c-0.1-1.8,4.3-2.3,4.8-0.4
		C373.9,351.2,374.5,357,374.9,362.8z"/>
	<path d="M362.9,564.1c2.1-1.1,5,0.2,3.7,1.9c-2.6,3.3-6.8,6.2-10.2,9.2c-3.5,3-6.7,6.2-9.9,9.3c-1.6,1.6-5.4,0.2-3.9-1.5
		c3.2-3.4,6.4-6.8,9.8-10.1C355.6,569.8,358.7,566.3,362.9,564.1z"/>
	<path d="M361,316.3c6.2,3.2,6.6,10.2,5.6,15c-0.4,1.7-4.3,1.2-4.4-0.4c-0.1-2.4-0.7-4.7-1.7-6.9c-0.9-2.1-2.8-4-3.5-6.1
		C356.6,316.2,359.2,315.3,361,316.3z"/>
	<path d="M353.7,298c1,1.3-1.5,2.8-3.2,1.7c-6.3-4.5-10.8-10.1-15.5-15.4c-1-1,1.4-2.3,2.6-1.3C343.4,287.7,349.7,292.6,353.7,298z"
		/>
	<path d="M323.7,599c2.8-0.6,3.9,2,1.9,2.9c-8.7,4.3-20.4,6.9-30.2,10c-2.5,0.8-4.7-1.6-2.2-2.5C302.9,606,313.2,601.3,323.7,599z"
		/>
	<path d="M318.5,262.2c1.8,1.5-0.9,3.2-3.1,2.1c-6.5-3.5-12-7.6-17.8-11.7c-2.2-1.6,1.2-3.8,3.5-2.3
		C307.1,254.1,313.3,257.8,318.5,262.2z"/>
	<path d="M262.1,238.4c2.5,0.6,1.5,2.9-1.1,2.7c-7.6-0.7-15-2.7-22.3-4.1c-2.1-0.4-1.3-2.5,0.9-2.2
		C247.1,235.8,254.9,236.6,262.1,238.4z"/>
	<path d="M258.6,619.7c2.2-0.2,4,1.8,1.7,2.6c-9.1,3.1-21.4,3.8-31.4,3.1c-2.7-0.2-2.7-2.7,0-2.8c5.3-0.3,10.5-0.4,15.8-1
		C249.3,621.1,253.9,620.2,258.6,619.7z"/>
	<path d="M191.3,626.1c1.9-0.1,2.6,1.8,1,2.4c-11,3.6-25.2,2.3-36.4-0.2c-2-0.4-1.2-2.5,0.9-2.1C168.9,628.3,179,626.9,191.3,626.1z
		"/>
	<path d="M183.8,228.3c2.6,0.1,3.2,2.6,0.6,3.1c-7.4,1.4-15.5,1.7-23.2,2c-2.9,0.1-3.6-3.1-0.7-3.4
		C168.1,229.1,176,228.1,183.8,228.3z"/>
	<path d="M123.5,621.3c1.8,0.1,2.6,2,0.5,2.3c-4.3,0.6-8.5,0.2-12.5-1c-3.1-0.9-8.5-3-7.4-5.7c0.3-0.6,1.1-1,2-1
		c3-0.2,5.1,2.1,7.4,3.1C116.5,620.2,119.9,620.9,123.5,621.3z"/>
	<path d="M120.3,233.2c2.5-0.5,3.5,1.7,1.6,2.6c-5.9,2.9-13.3,4.7-20,6.8c-2.4,0.7-4.5-1.6-2.1-2.4
		C106.4,237.8,113.1,234.8,120.3,233.2z"/>
	<path d="M81.9,604.9c1.7,1-0.5,2.7-2.4,2.1c-7.9-2.8-15.3-7.2-18.6-12.9c-1-1.7,2.8-3.1,4.5-1.8C70.8,596.7,75.5,601.2,81.9,604.9z
		"/>
	<path d="M65.1,247.4c2.5-0.8,5.4,1.3,3.1,2.7c-8,4.9-15.7,9.1-21.6,15.3c-1.4,1.5-4.5,0.2-3.4-1.3
		C47.9,257.6,55.3,250.8,65.1,247.4z"/>
	<path d="M46.2,573.1c2,0.8,0.6,3.1-1.6,2.5c-7-1.9-14.9-7.1-13.2-12.7c0.4-1.3,3.5-1.7,4.3-0.4c1.3,2,1.7,4,3.3,5.9
		C40.8,570.4,43.2,572,46.2,573.1z"/>
	<path d="M19.4,282.3c2.2-1.1,4.3,1.2,2.7,2.4c-7.6,6-13.7,11.9-16.5,19.7c-0.7,2-5,1.1-4.4-0.8C3.6,295.3,9.3,287.3,19.4,282.3z"/>
	<path d="M21.1,541.5c1.2,1-1.4,2.2-2.7,1.3c-7.7-5-14.6-12.9-13-20.4c0.4-1.6,3.9-1.3,4.5,0c1.4,3.2,1.8,6.5,3.5,9.6
		C15.3,535.5,17.9,538.6,21.1,541.5z"/>
	<path d="M-0.3,500.7c0.7,1.7-3,2.3-3.9,0.7c-3.5-5.8-8.1-12.4-9.6-18.6c-0.4-1.6,2.8-2.7,4.1-1.1C-5.3,487.3-2.9,494.5-0.3,500.7z"
		/>
	<path d="M-11.5,332.9c1.5-1.1,4.5,0.1,3.8,1.4c-4.2,8.1-8.3,14.5-7.1,23.4c0.2,1.5-3.4,1.8-3.8,0.4C-21,349.9-20,339.6-11.5,332.9z
		"/>
	<path d="M-15.6,438c4.1,6,3.4,13.3,1.7,19.7c-0.4,1.5-4.2,1.1-4-0.4c1-6.4-1.1-12.2-2.1-18.5C-20.3,437.3-16.6,436.6-15.6,438z"/>
	<path d="M-17.2,408.3c0.1,1.6-3.7,1.9-4,0.4c-1.5-7.7-4.5-16.2-3.6-23.9c0.2-1.8,4.1-2.3,4.9-0.4C-17,391.9-17.7,400.5-17.2,408.3z
		"/>
</g>
</svg>
