<?xml version="1.0" encoding="utf-8"?>
<!-- Generator: Adobe Illustrator 19.0.0, SVG Export Plug-In . SVG Version: 6.00 Build 0)  -->
<svg version="1.1" id="Capa_1" xmlns="http://www.w3.org/2000/svg" xmlns:xlink="http://www.w3.org/1999/xlink" x="0px" y="0px"
	 viewBox="-58 194.9 479 453" style="enable-background:new -58 194.9 479 453;" xml:space="preserve">
<style type="text/css">
	.st0{fill:#EEDA8E;}
	.st1{fill:#D7C36F;}
	.st2{fill:#735C2F;}
	.st3{fill:#826A35;}
	.st4{fill:#5D4A28;}
	.st5{fill:#957A39;}
	.st6{fill:#B6A550;}
	.st7{fill:#745B2F;}
	.st8{fill:#FFFFFF;}
	.st9{fill:#534225;}
	.st10{fill:none;stroke:#000000;stroke-width:4;stroke-miterlimit:10;}
	.st11{fill:#38C6F4;}
	.st12{fill:#D67540;}
	.st13{fill:#B8A764;}
	.st14{fill:#EDC93F;}
	.st15{fill:#EDBB7A;}
	.st16{fill:#EF3E57;}
	.st17{fill:#5DB753;}
	.st18{fill:#FFD255;}
	.st19{fill:#3966B1;}
	.st20{fill:#80C0D8;}
	.st21{fill:#BFDC8E;}
	.st22{fill:#FFE5C9;}
	.st23{fill:#F7BFA7;}
	.st24{fill:#C16F29;}
	.st25{fill:#C23127;}
	.st26{fill:#010101;}
	.st27{opacity:0.71;}
	.st28{fill:#E93943;}
	.st29{fill:#1D1D1B;}
</style>
<g id="XMLID_20_">
	<polygon id="XMLID_18_" class="st0" points="102,275.9 115,275.1 124.3,429 113.1,429.9 	"/>
	<path id="XMLID_17_" class="st1" d="M115.5,282.2c-10.2,8.7-6.2,36.9-6.2,48.4c-0.1,9.9,8.9,84,11.6,87.8c0.4,0.6,1.7,1.7,3,2.8
		l0.4,8l-11.2,0.9L102,276l13.1-0.8L115.5,282.2z"/>
	<polygon id="XMLID_16_" class="st2" points="151.6,459.9 149.3,450.9 119.9,446.4 120.9,455.8 	"/>
	<polygon id="XMLID_15_" class="st2" points="92.7,468.6 92.4,459.3 119.1,446.5 120.9,455.8 	"/>
	<polygon id="XMLID_14_" class="st3" points="127.4,428.9 131.2,429.4 185.7,561.6 180.2,557.5 	"/>
	<polygon id="XMLID_13_" class="st4" points="111.1,431.4 122.5,430.7 134,529.5 121.6,531.3 	"/>
	<polygon id="XMLID_12_" class="st3" points="105.4,430.4 101.8,431.9 88,574.1 92,568.7 	"/>
	<polygon id="XMLID_11_" class="st5" points="113.3,430 102,276.1 98.5,279.9 108.4,430.3 	"/>
	<polygon id="XMLID_10_" class="st6" points="102.7,431.6 91.6,434.3 75.7,576.6 88,574.8 97.7,480.2 148.8,474.2 185.3,561.4 
		197.5,559.6 141.1,428 129.7,428.7 144,462.7 99.1,467.4 	"/>
	<polygon id="XMLID_9_" class="st7" points="49.6,422.7 150.6,414.3 166.5,423.4 62.5,432 	"/>
	<path id="XMLID_27_" class="st7" d="M147.6,443.1l-6.5-15.1l-11.4,0.6l6.5,15.6C140.1,443.8,143.8,443.4,147.6,443.1 M102.7,431.6
		l-11.1,2.6l-1.8,16.3c1.8-0.3,3.6-0.6,5.4-0.8c2-0.3,3.9-0.6,5.8-0.8L102.7,431.6z"/>
	<polygon id="XMLID_6_" class="st1" points="50.5,428.7 49.3,423 62.3,432 166.9,423.4 167.4,429.4 63.3,438 	"/>
	<polygon id="XMLID_5_" class="st5" points="52.6,311.6 155.8,306.9 139.9,299.5 44,303.1 60,424.5 65.3,429.2 	"/>
	<polygon id="XMLID_4_" class="st2" points="164.9,298.2 30.4,300.7 32.2,309.8 166.7,304 	"/>
	<polygon id="XMLID_3_" class="st5" points="145.1,463 140.8,461.7 101.8,465.4 98.6,467.9 	"/>
	<polygon id="XMLID_2_" class="st8" points="166.9,423.4 65.4,431.9 51.2,311.8 155.8,306.9 	"/>
	<polygon id="XMLID_1_" class="st9" points="164.6,295.7 30,298.2 31.9,307.3 166.4,301.5 	"/>
</g>
<g id="ninopintor">
	<path id="XMLID_19_" class="st10" d="M233.4,541.7c0.5-5.5,3.7-10.3,6.1-15.3c4.4-9.4,6.2-19.8,7.6-30"/>
	<path id="XMLID_21_" class="st10" d="M268.1,496c1,3.7,2.9,7,4.3,10.5c5.5,13.5,4.9,28.6,4.2,43.1"/>
	<polygon id="XMLID_67_" class="st11" points="234.7,543.2 241.8,547.2 242.1,550.3 237.7,552.7 230.2,551.2 228.9,547.5 230,545.2 
			"/>
	<polygon id="XMLID_66_" class="st11" points="277.2,545.5 285,547.7 286.1,550.7 282.4,554.1 274.8,554.5 272.6,551.2 273.1,548.6 
			"/>
	<path id="XMLID_78_" d="M236.6,542.5c-1.5-0.1-3-0.4-4.4-0.9c0,0,0,0-0.1,0c-2.2,1.7-5,3.8-4.5,6.8c0.6,3.1,4.1,4.4,6.8,4.7
		c1.6,0.2,3.3,0.2,4.9,0.1c1.7-0.1,3-0.7,3.8-2.2C245.5,546.8,240.7,544.1,236.6,542.5z M241.1,549.2c0,0.1-0.1,0.2-0.1,0.2
		c0,0.1,0,0.1-0.1,0.1c0,0,0,0.1-0.1,0.1c-0.2,0.4-0.4,0.8-0.9,1c-0.6,0.3-1.5,0.1-2.2,0.1c-1.5,0-3,0-4.4-0.3
		c-1.1-0.3-2.4-0.8-3.1-1.7c-0.6-0.8-0.3-1.6,0.3-2.4c0.7-0.8,1.6-1.5,2.4-2.2c2,0.6,4,1.4,5.8,2.5c0.4,0.3,0.7,0.4,1,0.7
		c0.2,0.1,0.4,0.3,0.5,0.5c0.2,0.2,0.1,0.1,0.3,0.4c0.1,0.1,0.2,0.4,0.2,0.4c0.1,0.1,0.1,0.4,0.1,0.4c0,0.1,0,0.1,0,0.2
		C241.2,549,241.2,549.1,241.1,549.2z"/>
	<path id="XMLID_64_" class="st12" d="M194.2,416.2c-1.3-1.9-0.5-2.2-2-4c-2.1-2.6-6.5-6.2-10.3-5.2c-1,0.3-1.6,0.6-2.1,1.2
		c-0.8,0.1-1.5,0.6-1.9,1.4c-1.7,4.1-0.8,9,0.2,13.1c0.6,2.7,2.8,9.2,6,10.1c1.9,0.5,3.7-0.1,4.9-1.7c1.2-1.7,4.2-2.2,6.1-2.7
		c-0.4,0.1,1.5,0.1,1.9,0C197.9,428.1,195.3,417.7,194.2,416.2"/>
	<path id="XMLID_63_" class="st13" d="M210.1,467.7c-0.3-0.5-0.6-1-1-1.5c-0.5-1.3-0.6-3.4-1-4.5c-1-2.6-1.6-5.4-2.4-8.1
		c-1.5-5.4-2.6-10.8-5-15.9c-0.6-1.3-1.2-2.6-1.7-3.9c-0.3-0.8-0.1-1.7-0.3-2.5c-0.6-1.5-1.7-3-3.5-3c-4.2,0.1-8.7,1-11.4,4.4
		c-0.4,0.6-0.4,1.7-0.1,2.3l0.2,0.3c0.2,0.3,0.5,0.6,0.8,0.7c-0.2,0.4-0.3,0.9-0.4,1.4c-0.1,3,2.5,5.9,4.2,8c2.2,2.8,3.7,6,5.9,8.8
		c2,2.6,3.7,5.3,5.4,8.1c0.8,1.5,1.9,2.9,3,4.2c0.4,0.4,1.1,1.1,1.6,1.7c0.3,1.1,0.8,2.1,2.1,3C208.6,472.9,211.1,469.7,210.1,467.7
		"/>
	<path id="XMLID_62_" class="st14" d="M184.9,403.5c-2.1-0.1-4.1,0.1-6.2,0.5c-0.8,0.1-1.3,1-1.3,1.7c-0.1,1,0.8,1.7,1.7,1.7
		c0.9,0.1,4.7-1.7,5.7-1.8C187.3,405.7,187.4,403.5,184.9,403.5"/>
	<path id="XMLID_61_" class="st15" d="M189.4,397.7c0-0.1,0-0.1,0-0.2c0-1.2-0.6-2.3-1-3.3c-0.4-1.3-1-3.1-2.3-3.8
		c-0.8-0.4-1.8-0.3-2.5,0.2c-0.3-0.1-0.6-0.1-0.8-0.1c-0.3,0-0.6,0.1-0.9,0.1c-0.6-1.2-2.4-1.3-3.5-0.4c-0.5,0.4-0.8,1.1-1,1.8
		c-0.1,0.1-0.3,0.3-0.6,0.5c-0.4,0.3-0.3-0.4-0.4-0.8c-0.3-1-0.8-1.5-1.8-1.9c-1.2-0.4-2.7,0.7-2.6,1.9c0.1,1.7-1.2,1.7-1.5,1
		c-0.1-0.1-0.1-0.2-0.2-0.3c-0.6-1.2-2-1.1-3-0.4c-1.9,1.4-2.2,5.5-1.9,7.5c0.4,3.1,2.6,5.4,5.9,5.7c3.3,0.3,6.9,0.4,10.1-0.9
		c1.3-0.5,2.6-0.4,3.9-1.1c0.4-0.2,0.7-0.5,1-0.8c1.5,0.6,3.7-0.2,3.7-2.2C189.8,399.5,189.7,398.5,189.4,397.7"/>
	<path id="XMLID_60_" class="st16" d="M184.2,387.2c-0.2-1.9-2.3-4.4-4.4-4.6c-0.1-0.1-0.1-0.1-0.2-0.2c-0.1-0.1-0.2-0.3-0.3-0.4
		c-0.4-0.8-1.1-1.5-1.8-2.2c-0.1-0.1-0.2-0.3-0.3-0.4c-0.6-1-1.3-1.9-2-2.9c-0.3-0.4-0.8-0.6-1.3-0.3c-1.4,1-0.6,2.6,0.1,3.7
		c0.4,0.5,0.7,1,1,1.5v0.1v0.1c-0.4-0.1-0.8,0-1.1,0.1c-0.3-1.1-0.8-2.1-1.6-2.9c-1.8-1.7-4.5-2.2-7-1.7c-1.5,0.4-1.6,2.6-0.1,3
		c1.6,0.4,3.1,0,4.5,1.1c0.8,0.7,0.8,1.8,0.7,2.9c-0.3,0.7-0.3,1.3-0.1,2.2c0,0.1,0.1,0.1,0.1,0.1c-0.3,1.5-0.6,3-1.1,4.5
		c-0.2,0.8,0.2,1.5,1,1.7c2.3,0.6,3.1-1.9,3-3.7c0-0.6,0.3-1.2,0.5-1.7c0.1,0.5,0.3,1.1,0.5,1.5c0.3,0.6,0.9,0.8,1.5,0.8
		c0.1,0.1,0.3,0.3,0.4,0.4c0.8,0.8,2.5,0.3,2.4-1c0-0.5-0.1-1.1-0.3-1.6c1.2,0.2,2.4,0.9,3.6,1.2C183,388.9,184.3,388.3,184.2,387.2
		"/>
	<path id="XMLID_57_" class="st8" d="M337.8,485.3c-0.5-3.8-1.4-7.1-3.5-10.2c-1.5-2.3-3.6-4.6-6.2-5.6c-1.3-0.5-2.6-0.8-3.8-1.1
		c-0.2-0.3-0.6-0.5-1.1-0.3c-0.1,0-0.1,0.1-0.2,0.1c-1.5-0.2-3.1-0.3-4.7-0.4c-1.5-0.1-4-0.1-4.9,1.5c-1.5-4.3-6.7-6.8-10.6-3.7
		c-1.4,1.2-3.4,3.3-3.7,5.2c-0.1,0.4,0,0.7,0.2,1c-0.3,1-0.4,2.1-0.5,2.9c-0.6,3.8-0.7,8.1-0.3,12c0.4,3.7,1.3,7.2,2.7,10.6
		c1.3,3.5,4,6.3,6.4,9.2c1.4,1.7,5.1,2.7,7.1,3c3.8,0.6,7.5-0.8,11.1-2c2.8-0.9,5.3-1.5,7.4-3.7c2.2-2.1,4.2-5.1,4.6-8.1
		C338.5,492.5,338.4,488.6,337.8,485.3 M311.3,477.4c-0.4,0.3-0.9,0.6-1.4,0.8c-0.8,0.6-1.9,0.8-2.8,0.4c-0.6,0.1-1.2,0.1-1.7,0
		c-1.2-0.3-1.9-1-2.9-1.9c-1.5-1.5-0.6-4,1.1-4.9c0.7-0.3,1.3-0.6,2-0.8c0.1-0.1,0.3-0.3,0.4-0.3c2.3-1.9,4.8,0.2,6.1,2.1
		C313,474.2,312.8,476.4,311.3,477.4"/>
	<path id="XMLID_56_" class="st16" d="M314.8,499.4c-0.1-0.4-0.4-1-0.7-1.5c-3-5.6-10.3-2.1-6.7,2.5c0.1,0.4,0.1,0.8,0.3,1.2
		c0.4,1,1.8,2.2,2.9,2.2c0.4,0,0.9-0.1,1.2-0.3C314,502.2,315.6,501.8,314.8,499.4"/>
	<path id="XMLID_55_" class="st17" d="M329.7,497.4c-0.1-0.8-0.3-1.6-0.8-2.2c-1.2-1.7-3.5-1.4-4.6,0.1c-0.1,0-0.1,0.1-0.2,0.1
		c-0.1,0.1-0.2,0.1-0.3,0.1c-0.3-0.2-0.7-0.3-1.2-0.3c-1.4-0.1-2.8,1.2-2.8,2.6c0,1.8,0.6,3.7,2.2,4.5c1.7,0.9,3.5,0.8,5.3-0.1
		C329.2,501.3,330.3,499.2,329.7,497.4"/>
	<path id="XMLID_54_" class="st18" d="M335.2,484.5c-0.1-0.1-0.1-0.2-0.2-0.3c-0.4-1.5-2.1-2.6-3.3-3.1c-1.9-0.9-4.2,0.1-5,2.1
		c-0.7,1.8,0.1,3.5,1.4,4.7c0.1,0.1,0.1,0.2,0.3,0.3c-0.3,0.6-0.2,1.2,0.3,1.8c0.8,1,2.2,1.2,3.3,1.3c0.8,0.1,1.7-0.4,2.1-1.2
		c0.2-0.4,0.4-0.8,0.4-1.3C335.7,487.8,335.9,486,335.2,484.5"/>
	<path id="XMLID_53_" class="st19" d="M324.8,472c-0.8-0.3-1.7-0.3-2.4-0.1c-0.6,0-1.2,0.1-1.8,0.4c-1.3,0.6-1.6,2-1.5,3.3
		c0.1,0.7,0.6,1.3,1.1,1.7c0.1,0.1,0.3,0.3,0.4,0.4s0.3,0.2,0.5,0.3c0.4,0.6,1.1,1,1.8,1c1.1,0.1,2-0.3,2.8-1
		c0.3-0.2,0.4-0.4,0.6-0.8c0.3-0.3,0.6-0.8,0.7-1.2C327.6,474.2,326.3,472.6,324.8,472"/>
	<path id="XMLID_52_" class="st20" d="M266.3,454.5c-1.5-3.2-0.7-8-4.6-9.4c-1-0.4-2.1,0-2.6,0.9c-1.3,2.3-3.6,2.6-6.2,2.6
		c-3.3,0-2.2-3.3-3.9-4.7c-1.3-1.2-2.6-1.8-4.2-2.1c0-0.4-0.3-0.8-0.8-0.8c-2.3,0-1.9,3.7-1.8,5.2c0,1.9-0.1,3.8-0.2,5.8
		c-0.1,2.2-0.6,4.2,0.4,6.3c1.8,3.8,5.2,3,8.9,3.1c2,0.1,3.9,0.4,5.9,0.1c2.5-0.4,4.9-0.5,7.4-0.4
		C267.8,460.9,267.1,456.4,266.3,454.5"/>
	<path id="XMLID_51_" class="st21" d="M281.3,484.1c-1.1-3.1-1.6-6.7-2.2-9.9c-0.8-3.8-1.5-7.6-2.6-11.5c-1.2-4.3-2.5-8.8-3.1-13.2
		c-0.2-1.5-0.2-4.2-2.1-4.6c-1.5-0.3-4.6,1.1-5.8,2.1c-1.8,1.6-0.6,3.6,0.3,5.3c0.8,1.4,2.6,3.2,2.2,5c-0.2,0.8-5.1,0.7-5.8,0.8
		c-3.3,0.2-6.7,0.8-10.1,1c-1.8,0.1-3.7-0.1-5.5-0.1c-1.1,0-3,0.3-4.2,0.1l0.3-8.8c0.1-1.5,0.1-3,0.3-4.6c0-0.3,0.2-3.8,0.8-4.1
		c1-0.4,0.2-1.9-0.8-1.5c-0.3-0.2-0.8-0.1-1.1,0.3c-0.9,1.2-1.3,3-1.6,4.6c-0.8,1.9-1.2,4-1.9,6c-0.8,2.3-1.3,4.5-1.6,6.7
		c-0.2,0.6-0.3,1.1-0.4,1.7c-0.8,3.6-1,7.4-1.7,11c-0.8,4.1-0.6,8.4-0.8,12.6c-0.1,3-0.8,6.7,0.1,9.6c0.2,0.6,0.6,1.4,1.3,1.6
		c1.3,0.3,3.7,0.7,4.9,0.3c3.3-1,7.2-1,10.6-1.3c3.7-0.3,7.3-0.1,11,0c3.5,0.1,7.1,0.4,10.6-0.1c2.8-0.3,6.5-0.2,8.7-2.4
		C282.5,489.4,281.9,485.8,281.3,484.1"/>
	<path id="XMLID_50_" class="st22" d="M296.1,421.2c-0.1-1.1-0.8-2.1-1.6-2.8c-1.5-1.2-3.3-1.5-5.1-1.1c-0.1,0-0.1-0.1-0.3-0.1
		c1.1-3.3,2-6.7,2.5-10.1c0.3-1.7-1.3-3.1-2.9-3.1c-4.3,0-7.9-0.5-12-1.9c-3.7-1.2-7.3-2.2-10.8-3.9c-3.6-1.7-6.9-3.8-10.6-5.3
		c-4.7-1.9-14.6-5.8-20.4-3.4c-0.1-0.1-0.3-0.1-0.4-0.1h-0.4c-0.2-0.5-0.8-0.8-1.3-0.3c-0.8,0.8-1.5,1.7-2.2,2.6
		c-0.6,0.8-1.3,1.7-1.9,2.6c-0.1-0.8-0.3-1.6-0.8-2.3c-0.1-1-0.4-1.9-0.8-2.5c-0.7-1.2-2.2-1.5-3.4-0.7c-0.6,0.3-1,0.8-1.3,1.3
		c-3.6,1.3-3.8,8.7-2.6,11.4c0.8,1.8,3,2.3,4.7,1.7c-0.4,1.5-0.8,3-1.1,4.5c-0.6,3.3-0.8,7.1-0.6,10.4c0.2,3.1,2.4,6.6,4.2,9
		c2.2,2.9,5.1,5.4,8.3,7.5c1.5,1.9,4.4,3.2,6.1,4.1c2.7,1.5,5.6,2.9,8.7,3.8c0.1,0.4,0.2,1,0.3,1.5c0.3,1,0.4,2.1,0.6,3
		c0.4,2,1.3,4,3.4,3.3c0.6-0.3,1.2-0.8,1.5-1.3c0.6-0.3,1.2-0.6,1.7-1c0.8-0.8,1.9-2.4,1.4-3.7c0-0.1-0.1-0.1-0.1-0.1
		c0.1-0.2,0.1-0.4,0.1-0.6c1.2-0.1,2.2-0.1,3.3-0.3c3.8,0.3,7.8-0.2,9.9-3.1c0.1-0.1,0.1-0.2,0.2-0.3c0.1-0.1,0.1-0.1,0.2-0.1
		c1.7-0.6,3.2-1.3,4.8-2.5c1.4-1.1,2.8-2.3,4.2-3.5c1.5-1.2,2.1-3.5,2.9-5.2c0.2-0.4,0.3-0.7,0.5-1.1c2.1,1.7,6.6-0.1,8.3-1.6
		c0.1-0.1,0.3-0.2,0.3-0.3c1.3-0.6,2.6-1.5,2.7-3.1C296.5,421.9,296.3,421.6,296.1,421.2"/>
	<path id="XMLID_49_" class="st23" d="M284.5,422.8c-1.7-3.4-5.9-5-9.2-2.6c-0.2,0.1-0.4,0.3-0.6,0.6c-2.2,1.5-3.4,4.4-2.8,7.1
		C273.5,435.4,288.2,430.1,284.5,422.8"/>
	<path id="XMLID_48_" class="st23" d="M240.2,413.9c-0.9-2.3-2.8-3.5-4.9-4.7c-1.1-0.6-2.4-1.2-3.6-1.3c-2.1-0.7-4.7,1.1-5.9,2.9
		c-0.9,1.3-1,2.6-0.6,3.9c-1.2,4.9,5.9,9.9,10.7,8.5c2.1-0.6,3.7-2.6,4.4-4.7l0,0c0.1-0.1,0.1-0.3,0.1-0.4c0.1-0.2,0.1-0.4,0.1-0.6
		c0-0.1,0-0.1,0-0.1c0-0.1,0-0.1,0-0.2C240.7,415.9,240.6,414.9,240.2,413.9"/>
	<path id="XMLID_47_" class="st24" d="M306.9,387.1c-1.5-1.5-3.9-1.9-6-2c-3-0.1-6-0.8-9-0.7c-3.1,0.1-6.2,1.2-9.4,1.2
		c-3.8,0-6.5-1.5-9.6-3.5c-6.2-3.8-9.9-10.9-9.8-18.3c0-1.1-1.7-1.1-1.7,0c0,0.3,0,0.6,0,0.8c-0.8-0.9-2.6-1.1-3.7-1.4
		c-3-0.7-6.3-0.8-9.4-0.3c-3.4,0.6-6.7,2.3-10,3.1c-3.4,0.9-5.9,2.9-8.3,5.5c-2.1,2.3-3.4,4.8-4.6,7.7c-1.2,3-0.4,4.8,1.7,6.9
		c1.5,1.5,3.7,1.9,5.8,1.2c1.5-0.4,2.9-1.2,4.3-1.9c0.2-0.1,0.4-0.3,0.6-0.4c-0.8,0.9-1.5,1.7-2.1,2.4c-1.1,1.3-2.1,2.8-2.6,4.5
		c-0.8,2.6,0.5,5.5,2.6,6.7c2.8,1.7,6.9-0.7,9.1-2.4c1.8-1.4,3.6-2.9,5.3-4.4c1.2-1,2.6-2.5,4.1-3.3c-0.6,2.3-2.8,4.7-3.5,7
		c-0.5,2-0.6,3.9,0.6,5.5c3.5,4.4,9.5,0.3,12.2-2.8c0.7-0.8,1.3-1.6,1.8-2.6c0.3-0.6,1-1.5,1.4-2.1c1-1,0.5,0,0.6,0.9
		c0.2,2.3-0.1,5.9,0.9,8c0.7,1.5,2.1,2.8,3.8,2.2c2.1-0.6,2.6-2.9,3.6-4.5c1.2-1.8,1.7,2.1,2,2.6c0.9,1.6,1.4,3.4,2.1,5.1
		c1.1,2.5,2,4.2,4.6,5.3c4.6,2.1,8.1-1.4,7.9-6.1c0-0.2,2.1,1.3,2.2,1.4c1,0.6,2.7,0.4,3.7,0.5c2.6,0.1,4.9-0.7,6.7-2.7
		c3.5-3.8,2.2-8.5,0.3-12.5c1.3-0.8,2.7-0.1,3.3-2.2C309.2,389.8,308.2,388.3,306.9,387.1"/>
	<path id="XMLID_46_" class="st25" d="M299.9,381c-1.2-2.1-3.4-3.5-5.1-5.1c-1.9-1.9-3.8-3.8-5.7-5.7c-1.3-1.3-3-2.8-4.9-3.8
		c0-0.1,0-0.1,0-0.1v-0.4c0-0.9-1-1-1.5-0.5c-3.1-0.4-6-2.2-8.8-3.5c-2.1-1-4.5-1.5-6.7-2.4c-3.3-1.3-4.4,2.4-4.7,5.1
		c-0.7,5,1.9,9.5,5.6,13.1c0.5,1.3,1.5,2.2,2.3,3.6c1,1.8,2.9,3,4.7,3.8c2.3,1,5.1,1.3,7.6,1.6c1.2,0.1,2.2,0.3,3.4,0.5
		c3.3,0.8,6.6,1.1,10.3,0.8C300.4,387.6,301.7,384.2,299.9,381"/>
	<path id="XMLID_45_" class="st26" d="M267,413.2c0.1-0.3,0.3-0.4,0.4-0.6c0.3-0.4,0.8-0.6,1.2-0.6c1.3-0.1,1.9,1.6,1.8,2.6
		c-0.1,0.4-0.3,0.8-0.6,1c-0.4,0.3-1.1,0.2-1.5-0.2l0,0c-0.5-0.1-1-0.4-1.2-0.9c-0.1-0.2-0.1-0.4-0.2-0.6
		C267,413.6,267,413.4,267,413.2"/>
	<path id="XMLID_44_" class="st26" d="M240.4,405.8C240.4,405.8,240.4,405.7,240.4,405.8L240.4,405.8c0.1-0.2,0.1-0.3,0.3-0.4
		c0.2-0.3,0.5-0.6,0.9-0.5c0.1,0,0.2,0,0.3,0c0.4,0,0.8,0.2,1.1,0.4c0.4,0.4,0.5,1.1,0.3,1.7c-0.1,0.4-0.4,0.8-0.8,1.2
		c-0.3,0.2-0.5,0.3-0.8,0.3c-0.8,0.2-1.7-0.3-1.7-1.2C240.1,406.6,240.2,406.2,240.4,405.8"/>
	<path id="XMLID_43_" class="st26" d="M244.8,423c1.5,1.3,2.4,3.1,3.8,4.4c1.5,1.4,3.5,2.3,5.6,2.8c3.9,1,8.7-0.7,10.3-4.7
		c0.4-0.9,1.7-0.8,1.7,0.3c0,4.9-6.7,7.3-10.6,7.1c-4.7-0.2-12-4-12-9.4C243.5,422.8,244.4,422.7,244.8,423"/>
	<path id="XMLID_25_" class="st26" d="M340,479.4c-1.3-4.7-4.9-9.2-9-11.6c-4.6-2.7-10.8-2-15.8-0.8c-0.6,0.1-1.3,0.3-2,0.5
		c-1.1-1.6-2.6-3-4.3-3.7c-1.9-0.8-4.9,0.4-6.5,1.3c-0.3,0.1-0.6,0.4-0.8,0.6c-0.1,0.1-0.3,0.1-0.4,0.3c-2-0.3-3.9-0.7-5.8-1.5
		c-3-1.2-5.7-3.3-8.2-5.3c-2.6-2.1-4.9-4.3-7.2-6.6c-2.2-2.2-4.1-4.8-6.3-7.1c0-0.2-0.1-0.3-0.3-0.4c-0.1-0.1-0.2-0.1-0.3-0.1H273
		c0,0,0,0,0-0.1c3.1-1.2,6.1-2.9,8.6-5.2c3.1-3,5.8-6.5,7.7-10.3c1.5,0.4,3.3,0.3,4.8-0.2c3-0.8,5.8-3.3,6.2-6.5
		c0.4-3.1-1.6-5.6-4.7-5.5c-0.8,0-1.7,0.2-2.5,0.5c0.4-2.1,0.5-4.3,0.5-6.5c2.8,1.3,6.7,0.7,9.6-0.8c5.5-2.8,6.7-10.3,4.2-15.5
		c1.2-0.1,2.3-0.4,3.3-1.2c1.5-1.3,1.9-3,1-4.7c-0.8-1.6-3-2.8-4.5-3.4c-1.7-0.7-3.6-1.1-5.5-1.2c0.2-0.8,0.2-1.6,0-2.5
		c-0.4-2.1-2.2-3.9-3.5-5.4c-1.8-2.1-3.8-4-6-5.7c-2.1-1.6-4.1-3.1-6.3-4.6c0.3-0.2,0.5-0.4,0.8-0.5c1.6-1.1,3.6-1.5,5.1-2.7
		c0.5-0.4,0.5-1.3-0.3-1.5c-2.2-0.3-4.7,1-6.5,2.3c-0.4,0.3-0.8,0.6-1.2,0.9c-1.7-1-3.4-2.1-5.1-3c-3.7-2.1-9.1-4.7-13.6-4
		c-0.4,0.1-0.6,0.4-0.7,0.7c-0.2,0.1-0.4,0.1-0.6,0.3c-0.4,0.3-1,0.6-1.3,1.2c-1.5,0.6-2.1,1.9-2.3,3.5c-1-0.3-1.9-0.6-2.9-1
		c-0.6-0.2-1.3-0.3-2.1-0.3c-0.1-0.1-0.1-0.1-0.2-0.1c-2.7-0.4-5.5-0.1-8.1,0.2c-2.4,0.3-4.7,0.6-6.9,1.5c-1.6,0.4-3.1,0.9-4.7,1.6
		c-2.5,1.1-4.6,2.8-6.7,4.5c-3.7,3-6.2,8.5-6.2,13.1c0,1,0.2,1.9,0.5,2.8c-1.9,0.2-3.5,2.1-4.3,3.9c-1.1,2.6-1.8,6.3-0.6,8.9
		c0.7,1.7,2.4,2.9,4.2,3.1c-1.3,3-2.2,6.1-2.4,9.3c-0.8,10.9,6.9,21,15.3,27.3c1.2,0.8,2.4,1.7,3.6,2.4c-0.5,0.2-1,0.5-1.5,0.6
		c-1.7,0.5-3.4,0.8-5.2,0.8c-3.4,0.2-6.8-0.1-10.1-0.6c-3.5-0.6-6.9-1.6-10.1-3c-1.4-0.6-4.9-1.9-6.3-3.5c-0.1-0.2-0.2-0.4-0.4-0.6
		l0,0c-0.1-0.2-0.1-0.4-0.2-0.5c-0.1-0.4-0.4-0.6-0.8-0.6c0.3-0.2,0.4-0.6,0.2-0.8c-0.6-1-1.7-1.2-2.8-1.3c-0.2,0-0.4,0-0.6-0.1
		c-0.4-1.4-0.8-2.8-1.3-4.1c-2.1-6.3-4.6-12.6-8.2-18.2c-0.8-1.3-2-2.5-3.3-3.5c0.5-0.4,0.7-1,0.4-1.6c0,0,0,0,0.1-0.1
		c0.1,0.1,0.2,0.1,0.3,0.1c3.5-0.4,3.3-4,3.3-6.6c0-1.5-0.9-3.1-1.5-4.4c-0.8-1.7-1.9-3.2-3-4.8c-2.1-3-4.6-5.5-7.2-8
		c-1.3-1.2-2.7-2.3-4-3.5c-0.8-0.6-1.4-1.2-2.5-1.3c-0.4,0-0.4,0.5-0.1,0.6c0.1,0,0.1,0.1,0.2,0.1c-0.1,1.1-0.1,2.3,0.2,3.4
		c-1.3-1-2.9-1.6-4.6-2c-2.3-0.5-5.5-0.6-7.9,0.1c-0.3,0.1-0.6,0.4-0.5,0.8c0.1,0.1,0.1,0.2,0.1,0.3s0.1,0.3,0.3,0.3
		c-0.2,0.2-0.1,0.6,0.2,0.6c2.5,0.2,5.3,0.2,6.7,2.5c1,1.6,0.3,4-0.2,5.8c-1,4-3,7.6-3.3,11.7c-0.3,3.3,1,6.5,4.2,7.8
		c2.2,0.9,4.5,1,6.8,0.6c0.1,0.4,0.4,0.6,0.7,0.8c-1.1,3.1-0.9,6.9-0.7,9.9c0.4,4.4,2.9,8.8,4.7,12.7c2.1,4.5,4.5,8.8,6.8,13.1
		c2.2,4.2,4.3,8.1,7,12c2.7,3.8,4.9,7.8,7.4,11.6c1.6,2.5,4,5.9,7.6,5.4c1.1-0.2,1.9-0.9,2.1-2.1c0.1-0.4,0.1-0.8,0.1-1.2
		c-0.2-1.1-0.4-2.2-0.5-3.3c-0.3-1.5-0.8-3.3-0.8-5.1c-0.3-0.9-0.6-1.7-0.8-2.6c-1.1-3.5-2.1-6.9-3.2-10.3
		c-1.2-3.7-2.3-7.3-3.4-10.9l0,0c0.4-0.2,1.1-0.6,1.6-1c1.3,1.2,3.2,2,4.4,2.6c3.7,1.9,7.2,3.4,11.4,4.3c3.8,0.8,7.6,1.1,11.5,1
		c1.7-0.1,3.5-0.3,5.2-0.8c0.7-0.2,1.2-0.5,1.8-0.8c-0.8,1.5-1.5,3.1-2.1,4.7c-1.2,3.5-3.4,19.5-3.7,22.8c-0.4,4.8-1,9.6-1.3,14.4
		c-0.1,1.9-0.8,4.5-0.2,6.3c0.4,1.3-0.2,3,1.2,4s3.5,1.2,5.1,1.5c1.5,0.3,6.9,0.8,6.8,0.4c0.3,0,0.7,0,1,0c4.9,0.1,9.9,0.2,14.9-0.3
		c1.3-0.1,2.5-0.3,3.8-0.4c1-0.3,2-0.4,3-0.4c2.6-0.4,5.1-0.4,7.6-0.7c3.2-0.3,7.8-2.8,8.6-6.2c0.4-1.6-0.1-3.6-0.4-5.2
		c-0.6-2.4-1.9-7.8-2.2-7.8c-0.3-1.8-0.8-3.6-1.2-5.4c-0.6-3.2-1.3-6.4-1.9-9.6c-0.5-3-1.1-5.8-2.1-8.7c-0.3-0.8-0.5-1.5-0.8-2.3
		c1.2,1.5,2.6,2.8,3.8,4.1c2.4,2.6,4.9,4.9,7.6,7.1c3.4,2.8,8,5.9,12.6,6.5c-0.5,0.7-0.9,1.4-1,2.2c-0.8,1.6-1.3,3.3-1.7,5.1
		c-0.6,2.6-0.8,5.4-0.8,8.1c0,0.3,0,0.4,0,0.7c0,0.1-0.1,0.3-0.1,0.4c-0.4,1.5-0.4,3-0.4,4.5c-0.2,5.5,0.2,10.8,4.1,15
		c1.9,1.9,4.2,3.5,6.4,5c2.5,1.7,5.2,2.7,8.1,3.1c6.2,0.8,11.7-0.8,16.9-4c4.6-2.8,8.6-6.9,10.3-12.1
		C342.2,491.2,341.4,484.5,340,479.4 M164.2,378.8c1.6,0,3.2,0.1,4.7,0.4c2.3,0.4,4.4,1.8,6.5,2.8c0.5,0.2,1-0.4,0.6-0.8l0,0
		c0-0.1,0-0.1-0.1-0.1c-0.4-0.7-0.8-1.3-1.1-2.1s-0.4-1.6-0.4-2.4c0.7,0.5,1.3,1.4,1.9,1.9c1,1,2,1.8,2.9,2.8c2,2.1,4.2,4.2,5.9,6.5
		c-0.7,0.3-1.3,0.5-2.2,0.4c-1.2-0.3-2.4-0.2-3.5,0.2c-0.8,0.3-2.2,3.3-3.3,2.5c-0.8-0.6-1.2-1.6-1.9-2.2c-0.3-0.3-0.6-0.3-1-0.1
		c-1.1,0.6-1.5,2.3-2,3.3c-0.5,1.2-0.8,2.1-1.5,0.2c-0.2-0.5-0.3-1.1-0.4-1.7c0.8-2.4,1.5-5.6,0.6-8
		C168.9,379.8,166.6,378.9,164.2,378.8 M177.2,405.8c-3,0.3-6.5,0.5-8.7-1.4c-3.1-2.6-1.3-8.1,0.1-11.9c0.2,1.2,0.8,2.1,2,2.1
		c2.1,0.1,2.1-3.1,3-4.4c1.2,1.3,3,3.8,4.8,1.9c0.4-0.5,0.8-1,1.2-1.6c0.9-1.4,2.6-0.8,3.9-0.6c1.2,0.1,1.8-0.3,2.5-0.8
		c1.3,2.1,2.6,4.2,3.5,6.5c0.4,1.2,1,3.7,0.2,4.8c-0.3,0.5-0.3,1-0.8,1.4c-0.2,0.2-0.4,0.3-0.5,0.4c-0.3-0.1-0.6,0.1-1,0.3
		c-0.2,0.1-0.4,0.3-0.6,0.5c-1.5-0.3-4.3,0.4-5.2,0.6C180.3,403.8,178.1,404.5,177.2,405.8 M186.1,404.4c-0.8,0.5-2.2,0.6-3.1,0.8
		c-1.4,0.3-2.9,0.6-4.3,0.8l0,0c1-0.6,2.4-1,3.3-1.2C183,404.7,185.5,404.8,186.1,404.4 M179.2,421.9c-1.2-3.4-1.2-6.9-0.9-10.5
		c0.1-1.2,0.4-2.2,0.9-3.2c2.1-0.4,5.1-1,7.1-1.9c1.5,1.2,2.8,2.5,3.1,2.8c1.7,2.2,2.8,5,3.9,7.5c1.5,3.4,2.8,6.9,3.8,10.5
		c-1.8-0.3-4,0.6-5.6,1.1c-2.6,0.7-5.7,1.9-7.8,3.8C182,428.9,180.5,425.5,179.2,421.9 M205.4,454.8c1,3,1.7,6.2,2.8,9.2
		c0.1,0.8,0.3,1.5,0.3,2.3c0.1,0.8,0.1,1.7,0.4,2.4c0,0.3,0,0.5-0.1,0.8c0,0.3,0.2,1.4-0.3,1.3c-0.8-0.1-1.5-0.6-2.2-1
		c-1.4-1-2.2-2.9-3.1-4.3c-1.1-1.7-2.1-3.3-3.1-5c-1.7-2.9-3.7-5.5-5.6-8.3c-2.1-3.1-3.6-6.5-5.3-9.7c-1.6-3-3.3-6-4.8-9
		c1.7-1.2,3.7-1.9,5.6-2.7c1.3-0.6,2.7-0.9,4-1.2c1.2-0.3,2.4-0.7,3.5-0.8c0.2,0.6,0.4,1.2,0.6,1.9c0.2,0.3,0.3,0.6,0.3,1.2l0,0
		l0.1,0.1c0,0.9,0.4,1.7,0.8,2.6l0,0c0.3,0.6,0.4,1.3,0.6,2.1v0.1h-0.1c-1.2,0.1-1.2,1.6-0.1,1.8c0.1,0,0.3,0.1,0.4,0.1
		c0,0.1,0.1,0.3,0.1,0.4s0,0.1,0,0.1c0.1,0,0.3-0.1,0.3-0.1C202.1,444.2,203.7,449.5,205.4,454.8 M202.6,436.1
		c-0.1,0-0.1,0.1-0.1,0.1c-0.1-0.1-0.3-0.1-0.4-0.1c-0.1-0.3-0.1-0.4-0.2-0.7c0.1,0,0.3,0,0.4,0c0.3,0.1,0.5,0.2,0.8,0.3
		C202.9,435.9,202.8,436,202.6,436.1 M295.4,419.3c3-0.2,2.7,3.2,1.5,5c-1.3,1.9-4.2,3.1-6.6,2.6c0.1-0.1,0.1-0.3,0.2-0.4
		c0.8-2.1,1.5-4.3,2.1-6.5C293.5,419.5,294.6,419.3,295.4,419.3 M262.8,364c0-1.3,0.5-1.7,1.5-2.6c0.4-0.3,0.4-0.8,0.3-1.2
		c0.4-0.3,0.9-0.6,1.3-0.6c0.1,0,0.3-0.1,0.3-0.2c3.5,0.1,7.2,2.1,10.1,3.6c1.9,1,3.8,2.2,5.7,3.4c-0.7,0.7-1.2,1.5-1.4,2.3
		c-0.3,1.2,1.2,1.7,1.9,0.8c0.6-0.1,0.8-0.6,0.8-1c0.2-0.3,0.4-0.5,0.8-0.7c1.1,0.8,2.2,1.5,3.3,2.4c3.3,2.4,6.5,4.9,9.1,8
		c1.3,1.5,3.3,3.7,3,5.9c0,0.2-0.1,0.4-0.1,0.5c-0.6,0.1-0.8,0.6-0.8,1.1c-1.2,1.2-3.5,1.7-4.7,1.9c-3.5,0.6-7.5-0.2-11-0.8
		c-4.2-0.6-7.9-2.6-11-5.3c-3-2.6-5.6-5.6-7.3-9.3c-0.8-1.9-1.4-3.8-1.7-5.9C262.7,365.6,262.7,364.8,262.8,364 M225.4,379.6
		c1-4,3-6.8,6.1-9.6c1.6-1.4,3.1-2.6,5.1-3.5c1.3-0.7,2.7-1.2,4.1-1.5c2.1-0.3,4.1-0.8,6.2-1s4.2-0.3,6.3-0.5c1.6,0.4,3.2,0.3,4.7,1
		c0.7,0.3,1.5,0.6,2.2,0.8c0.1,1.2,0.3,2.4,0.4,3.5c0.9,4.8,3.6,9.2,7,12.5c3.6,3.6,7.7,6.4,12.7,7.7c2.5,0.6,5.1,0.8,7.6,1.1
		c2.2,0.3,4.6,0.3,6.9-0.1c2.4-0.4,5-1.7,6.3-3.7c2.3,0.3,4.5,0.8,6.5,2c1.2,0.7,3.5,2.4,1.4,3.8c-0.8,0.6-2,0.9-2.9,1.2
		c-0.3,0.1-0.6,0.4-0.6,0.8c-0.1,0.2-0.1,0.4-0.1,0.6c1.5,4.4,1.6,10.3-3,13.1c-2.4,1.4-5.5,1.8-7.8,0.6c0.1-0.1,0.1-0.2,0.1-0.3
		V408c-1.3-0.4-2.5-1.1-3.4-2.1c-0.6,0.1-1,0.4-0.8,1.2c0.2,0.7,0.4,1.3,0.8,1.8c-1,1.7-2.2,3.1-3.8,3.6c-3.7,1-5.6-3.2-6.7-5.8
		c-0.5-1.3-1.1-2.4-1.3-3.8c-0.2-1-0.6-2-1.5-2.5c-0.4-0.3-1-0.3-1.4,0c-1.9,1.2-5.3,6-7.4,2.8c-0.8-1.2-0.4-2.8-0.4-4.2
		c0.1-1.8,0.4-3.5,0.8-5.2c0.3-1.4-1.7-2.5-2.4-1c-2.2,4.4-6.2,7.9-11,9c-3,0.7-5.1-1.9-5.1-4.6c-0.1-1.2,0.2-2.8,0.8-4.2
		c0.9-0.8,1.8-1.7,2.6-2.6c0.3-0.1,0.4-0.3,0.4-0.5c0.3-0.8-0.5-1.8-1.3-1.2c-2.7,1.9-5.3,4-8.1,5.8c-2.4,1.6-5,3.2-8,3.1
		c-1.4,0-2.7-0.7-3.5-1.9c-0.8-1.2-0.1-3,0.3-4.2c0.4-1,0.9-1.9,1.5-2.8c0.1-0.1,0.3-0.1,0.4-0.2c2-1,3.9-2.1,5.1-4
		c0.4-0.6,0.2-1.5-0.4-1.8c-2.6-1.6-5.3,1.7-7.1,4.1c-0.6,0.3-1.1,0.5-1.7,0.6c0-0.1,0-0.1,0-0.2c-0.1,0.1-0.1,0.2-0.3,0.3
		c-1,0.3-1.9,0.4-2.9,0.2C224.6,387.4,224.5,383,225.4,379.6 M220.3,398.5c-1.1-1.5-0.6-4-0.3-5.7c0.4-2.1,1.7-5.5,4.4-4.1
		c0.1,0.1,0.1,0.1,0.3,0.1c0.2,0.2,0.4,0.4,0.7,0.6c0.4,0.4,0.8,1,1.2,1.5s1,1,1.4,1.5c-1.9,2.4-3.6,4.9-4.9,7.6
		C222,399.6,220.9,399.4,220.3,398.5 M230.7,430.8c-3.8-4.2-7.6-9.5-8.3-15.3c-0.9-7.6,2.5-14.7,7.1-21c0.3-0.1,0.6-0.4,0.6-0.8
		c0.3-0.4,0.6-0.8,0.9-1.2c-0.1,0.4-0.2,0.9-0.3,1.3c-0.2,1.9,0.2,3.3,1.3,4.8c2.1,2.6,6.7,2.6,9.6,1.3c2.6-1.1,4.9-2.6,7.2-4.3
		c-0.1,0.2-0.1,0.3-0.1,0.5c-0.8,3.1,0.5,6.1,3.1,7.9c2.6,1.9,6.5,0.3,9.1-1.1c1.8-1,3.4-2.2,4.8-3.6c-0.2,2.6,0.1,5.1,1.9,6.7
		c1.3,1.2,3.1,1.3,4.8,0.9c1.9-0.5,3-1.9,4.2-3.1c0.1,0.3,0.1,0.7,0.1,0.9c0.1,0.8,0.6,1.5,0.8,2.2c0.7,1.7,1.3,3.7,2.4,5.1
		c1.9,2.7,5.1,4.2,8.4,3.2c1.1-0.3,2-1,2.8-1.8c-0.2,2.2-0.5,4.4-1.1,6.5c-0.3,0.5-0.4,1-0.5,1.7v0.1c-0.4,1.3-0.9,2.7-1.5,4
		c-0.8-0.5-1.8,0.4-1.4,1.3c0.1,0.3,0.3,0.6,0.4,0.8c-2,4-4.7,7.6-8.1,10.3c-9.8,8-24,7.5-34.7,2.6
		C239.2,438.4,234.6,435.2,230.7,430.8 M253.6,453.3c2.1,0.3,4-0.8,5.5-2.2c0.9-1,1.9-2.4,2-3.8c1.6-0.1,3.2-0.2,4.8-0.4
		c0,2,0.5,3.9,0.6,5.9c0.1,1.5,0.3,3.1,0.3,4.7c-0.4,0.6-1.3,0.6-2,0.8c-0.6,0.1-1.2,0.3-1.7,0.6c-3.3-0.1-6.6,0.3-10,0.4
		c-2.2,0.1-4.4,0.1-6.5-0.1c-1.5-0.1-2.8-0.6-4.2-1.2c0.1-3,0.4-11.5,1-14.5c1.6,0.7,3.3,1.3,5,1.9
		C247.3,448.8,250.4,452.8,253.6,453.3 M250.2,445.9c2.7,0.7,5.5,1.2,8.3,1.3c-0.2,0.5-0.4,1-0.6,1.5c-0.8,1.4-2.3,2.4-3.9,2.4
		C251.2,451.1,250.5,448.2,250.2,445.9 M275.1,461.5c0.6,3.2,1.1,6.4,1.8,9.6c0.6,3,3.7,14.9,3.8,16.9c0.2,2.2-2.2,3.5-3.9,4.4
		c-1.7,1-3.7,0.5-5.6,0.8c-4.4,0.5-8.9,1.3-13.3,1.7c-4.4,0.3-8.9,0.2-13.3,0.1c-0.2,0-1.8-0.2-2.3-0.3c-0.1,0.1-8-0.1-8-1.5
		c0-0.9-0.3-1.6-0.4-2.5c-0.1-1,0-2,0.1-3c0.1-2.1,0.4-4,0.6-6.1c0.4-4,0.5-8.1,0.8-12.1c0.3-3.7,1.2-7.4,0.8-11
		c0.4-3.3,1-6.5,1.9-9.7c0.6-2.2,1.6-4.4,2.4-6.5c0.4,0.2,0.8,0.4,1.2,0.6c-0.2,0.6-0.3,1.3-0.3,1.9c-0.7,4.2-1.1,8.3-1.3,12.6
		c0,0.1,0,0.1,0,0.1c-0.5,0.3-0.7,1.1-0.3,1.5c2.6,3.1,7.9,2.9,11.6,2.9c4.7,0,9.5-0.6,14.2-1.3c0.2,0,0.3-0.1,0.4-0.3
		c0.1,0,0.2-0.1,0.3-0.1c1-0.2,1.9-0.7,2.4-1.5h0.1v-0.1c0.1-0.3,0.2-0.5,0.3-0.8c0.1-0.4,0.1-0.8-0.3-1c-0.1-0.1-0.1-0.1-0.1-0.1
		c-0.1-0.7-0.1-1.5-0.2-2.2c-0.3-2.5-1-5.1-1-7.6c0-0.1,0-0.1,0-0.1c1.1-0.2,2.2-0.5,3.3-0.8c0,0.8,0.3,1.5,0.8,2.2
		c0.4,0.4,0.5,1.6,0.6,2.2c0.2,0.7,0.4,1.4,0.7,2.2C273.8,455.3,274.5,458.3,275.1,461.5 M338.4,494.2c-1,5.3-5.1,9.2-9.4,11.9
		c-2.2,1.3-4.5,2.4-6.9,3.2c-2.6,0.8-5.3,0.6-7.9,0.5c-5.1-0.3-10.4-4.1-13.9-7.8c-2.9-3.1-3.1-7.6-3-11.7c0.3-1.3,0.2-2.7,0.3-4
		c0-2.3,0.1-4.7,0.4-7c0.3-2.2,0.7-4.4,1.4-6.5c0.2-0.7,0.5-1.6,0.9-2.6c0.3-0.3,0.7-0.6,1.2-0.8c0-0.3,0.1-0.6,0.1-1
		c0.3-0.3,0.6-0.4,1.1-0.7c0.8-0.4,1.6-0.8,2.4-1.1c1.3-0.2,2.7-0.1,3.8,0c1.1,0.6,2.1,2.1,2.7,3.1c0.3,0.5,0.9,0.8,1.4,0.6
		c4.7-1.4,10.1-2.4,14.8-1.1c4.4,1.3,8,5.9,9.6,10.1C338.8,483.8,339.3,489.5,338.4,494.2"/>
	<path id="XMLID_22_" class="st26" d="M312.8,473.8c-0.2-0.5-0.6-1.1-1-1.5c-0.3-0.6-0.7-1.1-1.2-1.5c0.1-0.9,0-1.8-0.3-2.4
		c-0.2-0.4-0.8-0.4-1,0c-0.3,0.5-0.4,1-0.5,1.6c-0.3-0.1-0.6-0.1-0.8-0.2c-0.5-1-1.3-1.8-2.6-1.6c-0.8,0.1-0.7,1.5,0.1,1.5
		c0.1,0,0.2,0,0.3,0.1c-0.1,0-0.3,0.1-0.4,0.1c-0.5,0.1-1,0.2-1.5,0.4c-0.1-0.4-0.3-0.8-0.6-1.2c-0.5-0.6-1.5,0.1-1.1,0.8
		c0.2,0.3,0.3,0.7,0.4,1.1c-0.3,0.3-0.6,0.6-0.8,0.9c-0.7,1.2-0.4,3-0.1,4.2v0.1c0.2,0.4,0.4,0.7,0.7,1c0,0,0,0,0.1,0.1
		s0.1,0.1,0.1,0.1c0.1,0.1,0.1,0.2,0.3,0.3c0.8,0.8,2.4,2.1,3.8,2c0.6,0.1,1.1,0.2,1.7,0.1C311.4,479.7,313.9,477,312.8,473.8
		 M310.6,476.5c-0.6,0.8-1.8,1-2.7,1c-1,0-1.9-0.4-2.7-1c-0.1,0-0.3,0-0.4,0c-0.8-0.6-1.3-1.3-1.3-2.3c0.1-0.2,0.1-0.4-0.1-0.6l0,0
		c0,0,0.1,0,0.1,0.1c0.1,0.3,0.2,0.6,0.6,0.8c0.2,0.1,0.5,0.1,0.7-0.1c0.1-0.1,0.3-0.3,0.3-0.4c0.4,0.1,0.7,0.1,1.1,0.1
		c0.1,0,0.3,0,0.4-0.1c0.1,0.3,0.3,0.6,0.6,0.6c0.3,0.1,0.6,0,0.8-0.2c0.1-0.2,0.3-0.4,0.4-0.6c0.6,0.1,1-0.1,1.3-0.6l0.1,0.1
		C310.5,474.2,311.6,475.2,310.6,476.5"/>
	<path id="XMLID_73_" d="M283.3,545.5c-0.8-0.3-1.5-0.5-2.3-0.7c-2.4,0.3-4.9,0.3-7.4,0.3c-1.6,2.1-3.6,4.7-2.2,7.3
		c1.4,2.8,5.2,3.1,7.9,2.8c1.5-0.2,3.1-0.6,4.6-1.1s2.7-1.4,3.1-3.1c0.3-1.2,0.1-2.4-0.6-3.5C285.6,546.6,284.5,545.9,283.3,545.5z
		 M284.5,550L284.5,550c-0.1,0.6-0.3,1-0.7,1.2c-0.6,0.3-1.3,0.4-2,0.6c-1.5,0.4-3,0.8-4.5,0.8c-1.1,0-2.4-0.2-3.3-1
		c-0.8-0.6-0.7-1.5-0.3-2.4c0.4-1,1.2-1.9,1.8-2.8c2.1,0.1,4.2,0.4,6.2,1c0.8,0.3,1.7,0.6,2.2,1.2c0.1,0.1,0.3,0.3,0.3,0.3
		c0.1,0.1,0.2,0.3,0.2,0.3c0,0.1,0.1,0.4,0.1,0.3c0,0.1,0,0.1,0,0.2C284.5,550,284.5,550,284.5,550z"/>
</g>
<g id="chinita" class="st27">
	<path id="XMLID_81_" class="st28" d="M150.3,356.3c-6.5,0.2-13,0.4-19.5,0.6c4.4-0.4,8.7-0.9,13.1-1.4c3.9-0.4,3.2-6.3-0.7-6
		c-4.8,0.3-9.6,0.5-14.4,0.6c2.1-0.3,4.2-0.5,6.3-0.8c3.4-0.4,3.7-6.2,0.1-6.2c-2.6-0.1-5.3-0.1-7.9-0.1c2.6-1.5,1.5-6.1-2-6
		c-5.5,0.1-10.8,0.3-16.3,0.5c0.5-2.1-1.5-4.9-4.3-4c-1.2,0.4-2.4,0.8-3.5,1.2c-0.1-1.2-0.9-2.5-2.2-3.1c0.1-1.5-0.8-3-2.9-3.1
		c-0.1,0-0.1,0-0.2,0c-0.3-1.2-1.3-2.3-2.9-2.7c-0.1-1.1-0.8-2.1-2.2-2.5c-2.8-1-5.5-0.8-7.8,1.3c-1.1,1.1-1.5,2.4-1.3,3.6
		c-2.1,1.2-2.8,4.2-1.4,5.8c-0.4,0.1-0.9,0.2-1.3,0.3c-1.7,0.4-2.3,1.7-2.1,3c-0.2,0.1-0.4,0.1-0.6,0.2c-2.6,0.8-2.6,4.7-0.3,5.8
		c-1.3,1.8,0.1,4.7,2.5,5.1c-1.9,1.4-1.5,5.3,1.4,5.6c3.8,0.4,7.6,0.8,11.5,1.1c-5.8,0.6-11.7,1.3-17.6,1.9
		c-3.1,0.3-3.4,5.6-0.1,5.7c5.5,0.1,10.8,0.2,16.3,0.3c-4.3,0.5-8.6,1-12.9,1.5c-3.7,0.4-2.9,5.6,0.6,5.6c4.4,0,8.7,0,13.1,0
		c-5.8,0.7-11.7,1.4-17.6,2.1c-3.7,0.4-2.9,5.6,0.6,5.6c4-0.1,7.9-0.2,11.9-0.3c-3.3,0.5-6.6,1.3-9.7,2.5c-3,1.2-1.9,5.1,0.9,5.5
		c-0.5,1.4,0.1,3.2,2.1,3.5c0.3,0.1,0.6,0.1,0.9,0.1c-1.9,0.7-2.2,4,0,4.7c0.8,0.3,1.7,0.6,2.6,0.8c0.2,0.9,0.8,1.7,2,1.7
		c0.3,0,0.6,0,1,0.1c-1,1.2-0.4,3.5,1.4,3.8c2.4,0.4,4.9,0.7,7.4,1c-2.4,0.2-4.7,0.4-7.1,0.5c-2.3,0.2-2.4,4-0.1,4.1
		c1.9,0.1,3.9,0.3,5.8,0.4c-1.1,1-0.8,3.3,1,3.5c0.9,0.1,1.9,0.2,2.8,0.3c0.1,0.3,0.2,0.4,0.4,0.6c-0.3,0.1-0.7,0.1-1,0.1
		c-2.4,0.4-1.9,3.7,0.4,3.6c7.9-0.1,15.7-0.1,23.6-0.4c1.9-0.1,2.2-2.6,1-3.6c2.6-0.4,5.3-0.8,7.8-1.2c2.3-0.4,1.9-3.8-0.3-3.7
		c0.1-1.2-0.8-2.4-2.2-2.4c-0.2,0-0.4,0-0.6,0c1.7-0.9,1.5-4-0.7-4.1c-0.8,0-1.7-0.1-2.6-0.1c2.6-0.2,5.2-0.4,7.8-0.8
		c2.2-0.3,2.6-3.3,1.2-4.4c0.1,0,0.2,0,0.3,0c2.6-0.2,2.8-3.3,1.2-4.5c3.8-0.7,7.6-1.4,11.5-2.2c1.4-0.3,2.1-1.3,2.2-2.4
		c1.1-0.3,2.2-0.6,3.3-0.9c1.9-0.5,2.1-2.6,1.3-4c0.3-0.1,0.6-0.1,1-0.1c2.2-0.3,1.9-3.7-0.4-3.5c-1.2,0.1-2.4,0.1-3.5,0.3
		c0.7-0.1,1.5-0.3,2.2-0.4c3.5-0.8,3-5.6-0.6-5.5c-5.9,0.1-11.8,0.3-17.7,0.4c5.9-0.7,11.9-1.4,17.8-2.1c3.7-0.4,3-5.8-0.6-5.6
		c-3.8,0.2-7.6,0.4-11.4,0.5c4.4-0.5,8.7-1,13.1-1.5C154.7,361.6,153.9,356.2,150.3,356.3"/>
	<path id="XMLID_82_" class="st29" d="M155.7,346.1c-0.6,2.2-0.4,4-2.1,6c-1.5,1.7-3.5,2.6-5.8,2.8c-2.6-3.7-5.6-7.1-9.2-9.8
		c-0.8-0.6-1.5-1.2-2.4-1.8c1.3-1.1,2.4-2.5,3-4.2c0.7-2.1,1.3-5.7-0.8-7.2c-0.7-0.5-1.7-0.1-1.8,0.7c-0.3,1.8,0.6,3.5,0.1,5.3
		c-0.4,1.5-1.3,3-2.6,3.9c-4.6-3-9.7-5.6-14.9-7.2c1.3-1.2,2.2-2.8,2.6-4.7c0.6-2.4,0.3-6.2-2.2-7.4c-0.8-0.4-1.7,0.4-1.6,1.2
		c0.4,1.9,1.5,3.3,1.2,5.3c-0.3,1.9-1.3,3.7-3,4.7c-1.6-0.4-3.3-0.6-4.9-0.8c-2.7-0.3-5.3-0.1-7.8,0.3c-2.2-9.2-15-12.2-22.4-7.7
		c-8.9,5.5-10.6,17.3-4.7,25.4c-2.1,3.1-3.5,6.8-4.2,9.8c-0.5,2-0.8,4-1,6.1c-3.5,1-7.4-0.8-8.7-4.3c-0.7-2.1-3.9-0.8-3.1,1.2
		c1.7,4.5,7.1,7.3,11.7,5.8c-0.1,5.9,1,11.9,2.8,17.4c-0.9,0.5-1.9,0.9-3,1c-1.5,0.1-2.7-0.4-4.2-0.6c-0.9-0.1-1.8,1-1.1,1.9
		c2.2,2.5,6.3,1.8,9,0.1c2.4,6.1,5.9,12,10.5,16.7c-0.8,2.8-3,4.6-5.9,5.5c-1.4,0.4-0.7,2.4,0.6,2.4c3.5-0.1,6.2-2.9,7.1-6.1
		c5.5,4.9,12.2,8.1,20,8.3c16.6,0.5,35.4-12.2,43.5-26.3c6.2-10.8,4.5-23-1.5-33c2.4-0.1,4.7-1.3,6.4-3.1c1.9-1.9,3.8-5.5,2.6-8.2
		C157.7,344.5,156,344.9,155.7,346.1 M126.4,407.6c-4.2,2.2-8.5,3.7-12.5,4.5c-6,1.2-11.5,0.3-16.4-2c4-3.1,3.1-10.3-1.4-12.6
		c-3.7-1.9-8.3,0-10.3,3.5c-2.1-2.5-4-5.3-5.5-8.4c-1.2-2.4-2.2-5.1-3.1-7.7c3.3-0.1,6.2-2.8,6.4-6.2c0.3-4.4-4.1-8-8.3-7.2
		c-0.1,0-0.2,0.1-0.3,0.1c0-1,0-2.1,0.1-3.1c0.2-4.4,1.3-8.9,3.3-12.8c1.7-3.4,4.5-5.8,6.9-8.6c0.2-0.1,0.4-0.1,0.6-0.3
		c0.9-0.6,1.8-1.3,2.7-2C104,363.8,119.4,383.6,126.4,407.6 M83.7,344.2c-0.2,0.2-0.3,0.3-0.4,0.6c-1.9,0.8-3.5,2.2-4.9,4
		c-2.4-6.7-2.4-14.4,3.8-19.1c3.2-2.4,7.3-3,11-1.6c3.4,1.3,5,3.6,7,6.3C94.1,336.1,88.8,339.9,83.7,344.2 M149.3,384.4
		c-0.1,0.3-0.3,0.6-0.4,1c-0.6-1.3-1.9-2.3-3.2-2.8c-2.3-0.8-4.8-0.2-6.8,1.1c-1.9,1.3-4.2,3.5-4.7,5.9c-0.2,0.8-0.1,1.5,0.1,2.2
		c-3.1-1.5-6.1-3.6-8.8-6c-2.1-1.9-4.2-5.3-6.8-7.8c-1.8-2.2-3.7-4.4-5.6-6.6c1.4-0.3,3-2.4,3.6-3.4c1.5-2.8,1.7-6.2,0.2-9
		c-2.9-5.3-10.8-5.7-13.3-0.3c-2.4-3.1-4.8-6.2-7.3-9.3c2.2-0.6,3.8-2.5,4.2-4.7c0.3-2.2-0.8-4.3-2.5-5.6c3.2-1.5,6.7-2.4,10.5-2.4
		c0.5,0,1.1,0.1,1.6,0.1c-1.5,3.7,0.8,8.6,4.8,9.8c4,1.2,8.7-1.7,9.9-5.7c1.5,0.7,3.1,1.5,4.6,2.4
		C143.3,351.1,155.6,367.4,149.3,384.4"/>
	<path id="XMLID_70_" class="st29" d="M133.3,358.8c-2.8,0.1-6.1,2.7-6.6,5.6c-1.9,4.6,0.4,10.3,5.3,11.7c5.1,1.4,10.1-2,10.1-7.3
		C142.1,364,138.4,358.7,133.3,358.8"/>
	<path id="XMLID_69_" class="st29" d="M88,354.9c-2.8-0.1-5.6,1.4-6.5,4.1c-0.1,0.4-0.2,0.8-0.3,1.2c-0.4,1.6-0.2,3.4,0.6,4.8
		c1.6,2.7,4.9,3.6,7.8,2.6C96.1,365.4,94.9,355.3,88,354.9"/>
	<path id="XMLID_68_" class="st29" d="M102.5,375.5c-2.8-0.6-7.3,1.5-7.6,4.6c-1.3,3-0.5,6.8,1.8,8.9c3.7,3.3,9.2,2.2,11.1-2.4
		C109.5,382.4,107.3,376.5,102.5,375.5"/>
	<path id="XMLID_65_" class="st29" d="M111.4,394.6c-3.1,0.6-5.8,3.4-5.8,6.7c0,1.7,0.8,3.4,2,4.6c1.8,2.2,5.3,2.7,7.9,1.5
		C122.5,404.4,118.9,393.2,111.4,394.6"/>
</g>
<g>
	<path d="M413.6,440.3c1.2,41.2-0.8,86.5-24.4,125.1c-42.4,69.2-185.8,94.6-285.4,70.1c-56.5-13.9-87-46.4-110-82.1
		c-26.3-40.6-40.2-84.5-41-128.8c0-0.8,0.4-1.4,0.9-2c-9.2-48.2-6.9-99.2,28-142.9c31.7-39.5,87.5-64.7,152.7-72.6
		c54-6.5,120.5-4.7,167.6,16.2c42.6,18.9,67.3,50.7,82.4,82.5C404.8,348.7,412.4,395.4,413.6,440.3z M393,527.4
		c11.2-39.8,11-81.8,6.1-122.1c-4.5-37.3-13.1-75.9-33.4-111c-18.9-32.6-51.1-63.2-102.5-74.7c-51.3-11.5-112.8-10.1-163.5,1.9
		C-28.1,251.8-47.6,345.7-34.6,424.9c0.2,0.9-0.3,1.6-0.8,2.2c2.4,46.1,17.2,91.4,46.8,133.2c29.6,41.6,72.7,70,143.3,74.8
		c50.3,3.4,106.4-3.1,151.3-18.9C357.7,597.9,382.6,564.6,393,527.4z"/>
	<path d="M388.5,433c1,6.5-1.6,13.7-2.7,20.2c-0.4,2.1-5.3,2.2-5.1,0c0.9-6.6,0.5-14.2,3.6-20.6C385.1,431,388.3,431.5,388.5,433z"
		/>
	<path d="M388.3,476.8c1.1,5.9-1.7,12.6-2.8,18.5c-0.4,2.1-5.2,2.2-5,0c0.7-6.1,0.1-13.1,3.1-18.9
		C384.6,474.6,388,475.1,388.3,476.8z"/>
	<path d="M383.2,385.4c2.1,6.7,1.1,13.9,0.8,20.6c-0.2,2.6-5.8,2.5-5.9,0c-0.3-6.8-1.3-14,0.8-20.6C379.3,384,382.8,384,383.2,385.4
		z"/>
	<path d="M378.4,522.3c0.9,6.6-3.6,13.5-8.2,19.2c-1,1.3-4.4,0.4-3.6-1c3.7-6.1,4.7-12.4,7.3-18.6
		C374.7,520.2,378.2,520.7,378.4,522.3z"/>
	<path d="M374,360.5c0.2,1.9-4.6,2.3-4.9,0.4c-1.2-5.8-2.2-11.5-2.4-17.3c-0.1-1.8,4.3-2.3,4.8-0.4C373,348.9,373.6,354.7,374,360.5
		z"/>
	<path d="M362,561.8c2.1-1.1,5,0.2,3.7,1.9c-2.6,3.3-6.8,6.2-10.2,9.2c-3.5,3-6.7,6.2-9.9,9.3c-1.6,1.6-5.4,0.2-3.9-1.5
		c3.2-3.4,6.4-6.8,9.8-10.1C354.7,567.5,357.8,564,362,561.8z"/>
	<path d="M360.1,314c6.2,3.2,6.6,10.2,5.6,15c-0.4,1.7-4.3,1.2-4.4-0.4c-0.1-2.4-0.7-4.7-1.7-6.9c-0.9-2.1-2.8-4-3.5-6.1
		C355.7,313.9,358.3,313,360.1,314z"/>
	<path d="M352.8,295.7c1,1.3-1.5,2.8-3.2,1.7c-6.3-4.5-10.8-10.1-15.5-15.4c-1-1,1.4-2.3,2.6-1.3
		C342.5,285.4,348.8,290.3,352.8,295.7z"/>
	<path d="M322.8,596.7c2.8-0.6,3.9,2,1.9,2.9c-8.7,4.3-20.4,6.9-30.2,10c-2.5,0.8-4.7-1.6-2.2-2.5C302,603.7,312.3,599,322.8,596.7z
		"/>
	<path d="M317.6,259.9c1.8,1.5-0.9,3.2-3.1,2.1c-6.5-3.5-12-7.6-17.8-11.7c-2.2-1.6,1.2-3.8,3.5-2.3
		C306.2,251.8,312.4,255.5,317.6,259.9z"/>
	<path d="M261.2,236.1c2.5,0.6,1.5,2.9-1.1,2.7c-7.6-0.7-15-2.7-22.3-4.1c-2.1-0.4-1.3-2.5,0.9-2.2
		C246.2,233.5,254,234.3,261.2,236.1z"/>
	<path d="M257.7,617.4c2.2-0.2,4,1.8,1.7,2.6c-9.1,3.1-21.4,3.8-31.4,3.1c-2.7-0.2-2.7-2.7,0-2.8c5.3-0.3,10.5-0.4,15.8-1
		C248.4,618.8,253,617.9,257.7,617.4z"/>
	<path d="M190.4,623.8c1.9-0.1,2.6,1.8,1,2.4c-11,3.6-25.2,2.3-36.4-0.2c-2-0.4-1.2-2.5,0.9-2.1C168,626,178.1,624.6,190.4,623.8z"
		/>
	<path d="M182.9,226c2.6,0.1,3.2,2.6,0.6,3.1c-7.4,1.4-15.5,1.7-23.2,2c-2.9,0.1-3.6-3.1-0.7-3.4C167.2,226.8,175.1,225.8,182.9,226
		z"/>
	<path d="M122.6,619c1.8,0.1,2.6,2,0.5,2.3c-4.3,0.6-8.5,0.2-12.5-1c-3.1-0.9-8.5-3-7.4-5.7c0.3-0.6,1.1-1,2-1
		c3-0.2,5.1,2.1,7.4,3.1C115.6,617.9,119,618.6,122.6,619z"/>
	<path d="M119.4,230.9c2.5-0.5,3.5,1.7,1.6,2.6c-5.9,2.9-13.3,4.7-20,6.8c-2.4,0.7-4.5-1.6-2.1-2.4
		C105.5,235.5,112.2,232.5,119.4,230.9z"/>
	<path d="M81,602.6c1.7,1-0.5,2.7-2.4,2.1c-7.9-2.8-15.3-7.2-18.6-12.9c-1-1.7,2.8-3.1,4.5-1.8C69.9,594.4,74.6,598.9,81,602.6z"/>
	<path d="M64.2,245.1c2.5-0.8,5.4,1.3,3.1,2.7c-8,4.9-15.7,9.1-21.6,15.3c-1.4,1.5-4.5,0.2-3.4-1.3C47,255.3,54.4,248.5,64.2,245.1z
		"/>
	<path d="M45.3,570.8c2,0.8,0.6,3.1-1.6,2.5c-7-1.9-14.9-7.1-13.2-12.7c0.4-1.3,3.5-1.7,4.3-0.4c1.3,2,1.7,4,3.3,5.9
		C39.9,568.1,42.3,569.7,45.3,570.8z"/>
	<path d="M18.5,280c2.2-1.1,4.3,1.2,2.7,2.4c-7.6,6-13.7,11.9-16.5,19.7c-0.7,2-5,1.1-4.4-0.8C2.7,293,8.4,285,18.5,280z"/>
	<path d="M20.2,539.2c1.2,1-1.4,2.2-2.7,1.3c-7.7-5-14.6-12.9-13-20.4c0.4-1.6,3.9-1.3,4.5,0c1.4,3.2,1.8,6.5,3.5,9.6
		C14.4,533.2,17,536.3,20.2,539.2z"/>
	<path d="M-1.2,498.4c0.7,1.7-3,2.3-3.9,0.7c-3.5-5.8-8.1-12.4-9.6-18.6c-0.4-1.6,2.8-2.7,4.1-1.1C-6.2,485-3.8,492.2-1.2,498.4z"/>
	<path d="M-12.4,330.6c1.5-1.1,4.5,0.1,3.8,1.4c-4.2,8.1-8.3,14.5-7.1,23.4c0.2,1.5-3.4,1.8-3.8,0.4
		C-21.9,347.6-20.9,337.3-12.4,330.6z"/>
	<path d="M-16.5,435.7c4.1,6,3.4,13.3,1.7,19.7c-0.4,1.5-4.2,1.1-4-0.4c1-6.4-1.1-12.2-2.1-18.5C-21.2,435-17.5,434.3-16.5,435.7z"
		/>
	<path d="M-18.1,406c0.1,1.6-3.7,1.9-4,0.4c-1.5-7.7-4.5-16.2-3.6-23.9c0.2-1.8,4.1-2.3,4.9-0.4C-17.9,389.6-18.6,398.2-18.1,406z"
		/>
</g>
</svg>
