<?xml version="1.0" encoding="utf-8"?>
<!-- Generator: Adobe Illustrator 19.0.0, SVG Export Plug-In . SVG Version: 6.00 Build 0)  -->
<svg version="1.1" id="Capa_1" xmlns="http://www.w3.org/2000/svg" xmlns:xlink="http://www.w3.org/1999/xlink" x="0px" y="0px"
	 viewBox="-58 194.9 479 453" style="enable-background:new -58 194.9 479 453;" xml:space="preserve">
<style type="text/css">
	.st0{fill:#F6F6F6;}
	.st1{fill:#6CCBD8;}
	.st2{fill:#FDE5C9;}
	.st3{fill:#C08B79;}
	.st4{fill:#1D1D1B;}
	.st5{fill:#F8C188;}
	.st6{fill:#9ED8D8;}
	.st7{fill:#ED4972;}
	.st8{fill:#2B2824;}
	.st9{fill:#FFFFFF;}
</style>
<g id="ninomusica">
	<path id="XMLID_38_" class="st0" d="M213.6,596c0.3-1.4,1.7-1.9,2.8-1.4c1.5-0.7,2.8-1.3,4.3-2c1.1-0.5,2.1-0.1,2.6,0.6
		c0.5-0.2,1.1-0.3,1.6-0.5c2-0.5,3.6,2.4,1.6,3.4c-1,0.5-2,1-2.8,1.6c-0.4,0.2-0.7,0.4-1,0.7c-0.7,0.9-1.6,1.6-2.5,2.2
		c-1.3,0.6-2.4,0.3-3.2-0.5c-0.1,0-0.1,0-0.2,0.1c-1.6,0.7-3.4-0.9-3.3-2.3C213.4,597.1,213.4,596.6,213.6,596"/>
	<path id="XMLID_37_" class="st0" d="M115.9,596c1.9-1.1,4.1-1.1,6.3-1.4c1.9-0.2,2.8,1.6,2.7,3h0.1c1.4,0,2.4,1.2,2.6,2.4
		c0.5-0.1,0.9-0.1,1.4-0.2c1.3-0.1,2.2,1.7,1.2,2.4c-2.1,1.8-4.4,2.4-7,2.9c-1.8,0.3-3.1-1-3-2.4c-1.3-0.2-2-1.3-2.1-2.3
		c-0.5,0-1-0.1-1.4-0.2C114.6,599.8,114,596.9,115.9,596"/>
	<polygon id="XMLID_36_" class="st1" points="233.4,495.3 218.4,419.4 117.3,420.4 102.8,505.2 	"/>
	<path id="XMLID_35_" class="st2" d="M278.4,341.4c0,0,2.1-83.5-81.4-92.4c-68.2-7.3-133.7,38.3-126.8,91.2s3.8,68.2,96.5,90.3
		c0,0,38.3-2.6,52.7-8.5C233.7,416,272.5,394,278.4,341.4"/>
	<polygon id="XMLID_34_" class="st3" points="154.4,538.6 154.4,501.2 107.1,505.1 114.9,544.4 	"/>
	<polygon id="XMLID_33_" class="st3" points="181.3,538.3 179.2,503.4 219.3,496.6 220.1,534.3 	"/>
	<path id="XMLID_67_" class="st4" d="M228.6,451.5c-0.9-1.6-0.2-3.6,1.2-4.9c-0.2-0.1-0.4-0.2-0.5-0.3c-2.2-1.2-3.2-3.5-2.3-5.9
		v-0.1c-1.2-6.3-2.4-12.4-3.9-18.7c21.2-10.6,38.9-28.5,47.7-49.9c14.9-36.1,5.2-78.5-25.6-103.1c-15.9-12.7-35.2-17.9-55.3-19
		c-23.8-1.3-49,1-70.9,10.7c-18.3,8.1-34,21.6-42.3,40.1c-8.6,19.2-11,43.1-7.7,63.9c4.4,28.9,24.5,47.3,49.1,56.9
		c-0.1,0.2-0.3,0.5-0.3,0.8c-1.5,6.7-2.9,13.2-4.4,19.9c-0.4-0.1-0.8-0.2-1.2-0.3c0.6,1.7,0.2,3.7-1.2,4.8c0.5,0,0.9,0,1.4-0.1
		c-4.1,18.1-8,36.1-12,54.3c-0.4,1.9,1.1,3.5,2.8,3.5c2,0,3.9-0.1,5.9-0.2c-0.1,12.2,2.1,24.8,3.1,37c0.1,1.5,1.4,2.9,2.9,2.7
		c6.2-0.6,12.4-1.2,18.6-1.9c-2.6,18.2-2.6,37.1-2.6,55.4c-4.4-2.4-7.2-7.4-12.9-6.8c-4,0.4-6.5,3.9-6.3,7.7
		c0.2,4.3,3.6,7.2,7.7,8.1c5.1,1,9.8-1.4,14.1-3.9c0.6-0.3,0.7-0.9,0.5-1.5c1.2-0.2,2.2-1.1,2.2-2.6c0.1-18.9,1.6-37.9,1.2-56.7
		c1-0.1,2-0.2,2.9-0.3c4.3-0.5,13.3,0.5,16.6-3c3.3-3.7,1.4-13.2,1.4-17.8c0-5.9,0.4-12-0.6-17.9c5.3-0.2,10.7-0.5,15.9-0.7
		c0.8,8.1,1.7,16.2,2.4,24.4c0.4,3.6-0.5,10.1,3.2,12.3c2,1.2,5.7,0.5,7.8,0.4l11.9-0.2c0.4,0,0.7,0,1.1,0c0.3,20.1,4.1,39.9,4.9,60
		c0,1.7,1.4,2.5,2.6,2.5c0.5,0.4,1.1,0.5,1.7,0.5c0.2,0.3,0.4,0.5,0.7,0.6c4.6,1.8,10.6,3.1,15,0c2.9-2.3,4.8-6.2,3.2-9.7
		c-1.7-3.5-5.8-4.6-9.4-3.8c-3.6,0.8-6.1,3.3-8.5,6c-0.8-18.6-2.4-37.9-6.4-56.1c6-0.1,11.8-0.2,17.7-0.3c1.4-0.1,2.7-1.4,2.6-2.8
		c-1-12-1.7-24.4-3.7-36.3c4.3-0.3,8.7-0.6,13-0.9c1.4-0.1,3-1.4,2.7-2.9l-7.2-42.4C229.1,452.1,228.9,451.9,228.6,451.5 M123,602.7
		c-3,0-7.2-1.8-6.6-5.5c0.8-5.2,6.7-0.8,8.6,1c1.4,1.2,2.7,2.3,4.2,3C127.3,602,125.1,602.7,123,602.7 M222.8,593
		c3.3,1.5,0.6,5.4-1.7,6.5c-2.8,1.3-6.1,0.3-9.1-0.2C214.9,596.1,218.7,591.2,222.8,593 M97.2,403.9c-18.3-15.4-24.9-36.3-24.4-59.6
		c0.5-20.3,4.6-41.5,18-57.3c12.7-15,30.9-23.9,49.8-28.3c37.6-8.7,83.9-7.1,111.3,23.5c25.3,28.5,26.8,69.9,6.8,101.6
		c-10.3,16.4-25.9,28.9-43.9,35.9c-16.5,6.5-33.4,7.1-50.7,6.3c-0.4-0.7-1.1-1.2-2.1-1.2C139.1,424.4,115.3,419.1,97.2,403.9
		 M153.1,515c0,5.1,1.8,14.4-1.8,18c-3.5,3.7-12.5,2.7-17.7,3.2c-5.3,0.5-10.7,1-16,1.5c-0.9-11.3-1.3-22.8-3.2-33.9
		c13-0.3,26-0.8,39.1-1.3C153,506.5,153.2,510.8,153.1,515 M218.8,532.6l-15.8,0.2c-5.2,0.1-10.9,0.9-15.9,0.2c-4.3-0.5-3.9-1-5-4.6
		c-0.9-2.9-0.7-6.8-1-9.8c-0.6-5.8-1.2-11.6-1.8-17.4c12.4-0.6,24.9-1.4,37.4-2.2C216.7,510.3,217.9,521.5,218.8,532.6 M106.7,498.2
		c5.5-25,11.1-50,16.4-74.9c0-0.1,0-0.1,0-0.2c12.6,4.3,26.1,6.5,39.3,6.7c0.4,0,0.7-0.1,1-0.2c19.1,4.6,38.9,1.7,56.7-6.4
		c2.5,23.3,6.5,46.3,10.3,69.4C189.2,495.3,147.9,497.3,106.7,498.2"/>
	<path id="XMLID_25_" class="st4" d="M186.4,349.3c2-4.3,8.7-5.4,11.3-1.1c0.2,0.3,0.3,0.6,0.4,0.9c0.5,0.5,1,1.2,1.2,2.1
		c0.9,2.6-1,5.6-3.2,6.8C190.8,360.8,183.8,354.9,186.4,349.3"/>
	<path id="XMLID_24_" class="st4" d="M149.6,348.2c1.5-4.3,7.3-5.6,10.4-2.2c0.3,0.4,0.6,0.8,0.8,1.2c1.5,1.6,2,3.5,1.3,5.5
		c-0.8,2.4-3.1,3.4-5.5,3.6C151.9,356.8,148.1,352.8,149.6,348.2"/>
	<path id="XMLID_23_" class="st4" d="M191.2,405.8c4.4-0.5,8.8-1,13.2-1.5c0.9-0.1,0.7-1.4-0.2-1.3c-4.4,0.5-8.8,1-13.2,1.5
		C190.3,404.6,190.5,405.9,191.2,405.8"/>
	<path id="XMLID_22_" class="st5" d="M114.8,390.8c0,0-7.6-4.9-16.5,1.9c0,0,5.1,66.5,7.6,68.4c2.5,2,18.1,2.6,17.4-2
		c0,0,8.1,7.5,15.8,1.6c0,0,0.1,8.2,5.7,7.9s11.7-2.5,11.7-2.5s0.1,13.8,5.1,14.4c5,0.6,12.9-2.9,12.9-2.9s-0.2,10.6,5.4,10.5
		c5.5,0,14.9-3.5,14.9-3.5s-0.9,6.8,5,6.8c5.8-0.1,10.7-1.2,10.7-1.2s1.8,10.9,6.4,10.4c4.6-0.5,11.2-1.3,11.2-1.3
		s2.3,17.7,9.1,16.4c6.8-1.3,8.6-7.1,8.6-14.4c-0.1-7.2-10.1-113.7-11.2-118.2c-1-4.5-12.1-7.8-14.9,0.2c0,0-10.5-9.4-16.9,1.3
		c0,0-1.4-5-7.9-3.9c-6.7,1.1-10.2,5.7-10.2,5.7s-3.4-3.8-9.7-2.8c-6.2,1-7.3,4.4-7.3,4.4s1-3.6-9.6-2.5c-10.6,1.1-6.8,3.8-6.8,3.8
		s-3.9-2.9-10.2-2.1c-6.2,0.9-6.5,4-6.5,4s-1.2-3.9-10.5-2.2L114.8,390.8z"/>
	<path id="XMLID_21_" class="st6" d="M102.6,427.1c0,0,136.7,46.3,142.4,52.1c5.8,6,7,15.1,2.3,14.5c-4.7-0.6-147.8-54.2-148.8-58.5
		C97.7,430.9,98.5,426.9,102.6,427.1"/>
	<path id="XMLID_1_" class="st7" d="M97.8,409.8c0,0,112.1-13.3,129.9-12c17.8,1.3,20.2,11.9,8.5,14.2
		c-11.6,2.3-134.3,12.2-137.3,8.5C96.2,416.7,90.8,411.1,97.8,409.8"/>
	<path id="XMLID_20_" class="st8" d="M239.4,515.2c11.7,1.5,7.9-14.6,7.2-21.3c-1.8-17.6-3.7-35.3-5.5-52.9
		c-1.8-17.3-3.6-34.6-5.8-51.8c-0.4-3.3-0.5-7.1-1.6-10.4c-1.1-3.3-11.9-1.2-13.9,0.6c-2.5,2.2-1.7,5.2-1.5,8.2
		c0.4,5.3,1,10.6,1.6,15.8c1.7,16.2,3.4,32.5,5.3,48.7c1.8,15.3,3.4,30.6,5.3,45.9c0.5,4.1,1,8.1,1.7,12.1c0.8,4.8,2.9,6.3,7.6,5.2
		c0.8-0.2,1.3-1.2,0.1-0.9c-6.6,1.5-6.4-5.9-6.9-10.3c-0.9-6.8-1.7-13.5-2.4-20.2c-2.3-19.1-4.3-38.2-6.5-57.2
		c-1.5-13.9-3.1-27.9-4.2-41.9c-0.3-3.9,1.3-6.2,6.2-6.5c2.2-0.1,5.9-0.4,6.4,2.2c0.9,4.6,1.3,9.3,1.9,14
		c2.8,23.3,5.2,46.6,7.5,69.9c1.1,10.1,2.1,20.3,3.1,30.3c0.5,5.2,4.2,20.8-4.7,19.8C239.8,514.3,238.4,515.2,239.4,515.2"/>
	<path id="XMLID_19_" class="st8" d="M220.1,497c11.6,1.2,8.1-12.6,7.5-18.4c-1.6-15.1-3.1-30.1-4.7-45.2c-1.6-14.8-3-29.5-4.9-44.2
		c-0.3-2.9-0.4-6.1-1.4-8.9c-1.1-2.8-11.8-0.9-13.9,0.7c-2.4,2-1.8,4.5-1.6,7c0.4,4.5,0.9,9,1.3,13.5c1.4,13.9,2.9,27.7,4.5,41.6
		c1.5,13.1,2.9,26.1,4.5,39.1c0.4,3.5,0.9,6.9,1.4,10.4c0.6,4.1,2.8,5.4,7.5,4.3c0.8-0.2,1.4-1,0.2-0.7c-6.6,1.4-6.3-4.9-6.8-8.7
		c-0.8-5.7-1.5-11.4-2.2-17.2c-2-16.2-3.7-32.6-5.5-48.8c-1.3-11.9-2.7-23.9-3.6-35.7c-0.3-3.3,1.4-5.3,6.3-5.6
		c2.2-0.1,5.9-0.4,6.3,1.8c0.8,3.9,1.1,7.9,1.7,11.8c2.3,19.9,4.4,39.7,6.5,59.7c0.9,8.6,1.8,17.3,2.6,25.8c0.5,4.4,3.8,17.8-5,16.9
		C220.6,496.1,219.2,496.9,220.1,497"/>
	<path id="XMLID_18_" class="st8" d="M202,488.4c11.6,0.9,8.2-11.5,7.7-16.8c-1.5-13.7-2.7-27.5-4.2-41.2
		c-1.5-13.5-2.8-26.9-4.5-40.3c-0.4-2.6-0.3-5.6-1.3-8.1c-1-2.5-11.8-0.6-13.8,0.8c-2.5,1.8-1.8,4.1-1.7,6.5
		c0.3,4.1,0.7,8.2,1.2,12.2c1.3,12.7,2.6,25.2,4.1,37.9c1.4,11.9,2.7,23.8,4.2,35.6c0.4,3.1,0.8,6.4,1.3,9.5
		c0.6,3.7,2.7,4.8,7.4,3.8c0.8-0.2,1.4-0.9,0.2-0.7c-6.7,1.4-6.2-4.4-6.7-7.9c-0.7-5.2-1.4-10.5-2-15.8c-1.8-14.9-3.4-29.6-5-44.5
		c-1.2-10.9-2.4-21.7-3.2-32.6c-0.2-3,1.5-4.9,6.4-5.2c2.1-0.2,5.9-0.4,6.3,1.6c0.8,3.5,1.1,7.2,1.5,10.9c2.3,18.1,4,36.2,5.9,54.4
		c0.8,7.9,1.7,15.8,2.4,23.6c0.4,4,3.6,16.1-5.1,15.6C202.6,487.7,201.1,488.3,202,488.4"/>
	<path id="XMLID_17_" class="st8" d="M184.5,485.3c11.6,0.8,8.3-11.1,7.8-16c-1.4-13.1-2.6-26.2-4-39.2c-1.4-12.8-2.6-25.6-4.3-38.4
		c-0.3-2.5-0.3-5.3-1.3-7.7c-1-2.4-11.8-0.6-13.8,0.8c-2.5,1.7-1.9,3.9-1.7,6.2c0.3,3.9,0.7,7.8,1.1,11.7c1.2,12,2.4,24.1,3.8,36.1
		c1.3,11.3,2.5,22.7,3.9,34c0.4,3,0.8,6.1,1.3,9c0.6,3.5,2.7,4.6,7.4,3.6c0.8-0.2,1.4-0.9,0.2-0.6c-6.7,1.4-6.2-4.2-6.7-7.4
		c-0.7-5-1.3-10-1.9-15c-1.7-14.1-3.2-28.4-4.8-42.5c-1.1-10.4-2.3-20.6-3-31.1c-0.2-2.8,1.5-4.6,6.4-5c2.1-0.2,5.9-0.4,6.3,1.5
		c0.8,3.3,1,6.8,1.5,10.3c2.1,17.3,3.8,34.5,5.6,51.8c0.8,7.5,1.5,15,2.3,22.5c0.4,3.8,3.5,15.5-5.2,14.8
		C185,484.6,183.6,485.2,184.5,485.3"/>
	<path id="XMLID_16_" class="st8" d="M166.5,478.3c11.6,0.6,8.4-10.2,7.9-14.8c-1.2-11.9-2.3-23.9-3.6-35.8
		c-1.2-11.7-2.3-23.4-3.9-35.1c-0.3-2.3-0.2-4.9-1.2-7c-1-2.3-11.8-0.4-13.8,0.9c-2.5,1.6-1.9,3.6-1.8,5.6c0.3,3.5,0.6,7.1,1,10.7
		c1.1,11.1,2.3,22,3.5,33c1.2,10.4,2.3,20.6,3.6,31c0.4,2.7,0.7,5.5,1.2,8.2c0.6,3.2,2.7,4.2,7.4,3.2c0.8-0.2,1.4-0.8,0.2-0.6
		c-6.7,1.3-6.1-3.7-6.5-6.8c-0.7-4.5-1.2-9.1-1.8-13.6c-1.6-12.9-2.9-25.8-4.4-38.7c-1-9.4-2.2-18.9-2.7-28.4
		c-0.2-2.6,1.6-4.3,6.5-4.6c2.1-0.2,5.9-0.4,6.2,1.3c0.7,3.1,1,6.3,1.4,9.4c2,15.8,3.4,31.5,5.1,47.3c0.7,6.8,1.4,13.7,2.1,20.5
		c0.4,3.5,3.4,14.1-5.4,13.6C167.1,477.6,165.6,478.2,166.5,478.3"/>
	<path id="XMLID_15_" class="st8" d="M148.1,466.8c11.6,0.3,8.5-8.9,8.1-12.8c-1-10.3-2.1-20.4-3-30.7c-1-10.1-2.1-20.1-3.3-30.1
		c-0.2-2-0.2-4.2-1.1-6c-1-2-11.8-0.1-13.8,1c-2.5,1.4-2,3.1-1.8,4.9c0.2,3,0.5,6.1,0.8,9.1c0.9,9.5,2,18.9,2.9,28.3
		c1,8.9,2,17.7,3.1,26.6c0.3,2.3,0.6,4.7,1.1,7c0.5,2.7,2.6,3.5,7.3,2.6c0.8-0.1,1.4-0.7,0.2-0.5c-6.7,1.2-6.1-3.1-6.4-5.7
		c-0.6-3.9-1.1-7.8-1.5-11.7c-1.4-11.1-2.5-22.2-3.7-33.3c-0.9-8.1-1.9-16.1-2.3-24.4c-0.1-2.3,1.6-3.7,6.5-4c2.1-0.2,5.8-0.5,6.2,1
		c0.6,2.6,0.9,5.4,1.2,8c1.7,13.5,3,27,4.3,40.6c0.6,5.9,1.2,11.7,1.8,17.6c0.3,2.9,3.1,12-5.6,11.7
		C148.6,466.2,147.1,466.8,148.1,466.8"/>
	<path id="XMLID_14_" class="st8" d="M130.3,461.5c11.5,0.2,8.6-8.1,8.3-11.7c-0.9-9.4-1.8-18.6-2.7-28c-0.9-9.1-1.8-18.3-3-27.4
		c-0.2-1.8-0.1-3.8-1-5.5s-11.7,0-13.8,1c-2.5,1.3-2,2.8-1.9,4.4c0.2,2.8,0.4,5.6,0.7,8.3c0.8,8.6,1.8,17.2,2.6,25.7
		c0.9,8.1,1.9,16.1,2.8,24.2c0.3,2.2,0.6,4.3,1,6.4c0.5,2.4,2.5,3.2,7.2,2.3c0.8-0.1,1.4-0.7,0.2-0.5c-6.7,1.2-6-2.7-6.4-5.2
		c-0.5-3.5-1-7.1-1.4-10.7c-1.3-10.1-2.3-20.2-3.4-30.2c-0.8-7.3-1.7-14.8-2.1-22.1c-0.1-2.1,1.6-3.3,6.6-3.7
		c2.1-0.2,5.8-0.5,6.2,0.9c0.7,2.4,0.8,4.9,1.2,7.3c1.6,12.3,2.7,24.6,3.9,36.9c0.5,5.3,1.1,10.7,1.6,16c0.3,2.6,3,11-5.7,10.8
		C130.9,461,129.4,461.5,130.3,461.5"/>
	<path id="XMLID_13_" class="st8" d="M113,460.2c11.5,0.1,8.6-7.9,8.3-11.3c-0.9-8.9-1.8-17.8-2.6-26.7c-0.9-8.7-1.8-17.4-2.9-26.1
		c-0.2-1.7-0.1-3.6-1-5.3c-0.9-1.7-11.7,0-13.8,1.1c-2.5,1.3-2,2.7-1.9,4.3c0.1,2.6,0.5,5.3,0.7,7.9c0.8,8.2,1.7,16.3,2.5,24.6
		c0.9,7.7,1.8,15.5,2.7,23.1c0.3,2.1,0.5,4.1,1,6.2c0.5,2.3,2.6,3,7.3,2.3c0.8-0.1,1.4-0.7,0.2-0.4c-6.7,1.2-6-2.6-6.4-4.9
		c-0.5-3.3-1-6.8-1.4-10.2c-1.2-9.6-2.3-19.2-3.2-28.9c-0.8-7-1.7-14.1-2-21.1c-0.1-2,1.7-3.2,6.6-3.6c2.1-0.2,5.8-0.5,6.2,0.8
		c0.6,2.3,0.8,4.7,1.1,7c1.5,11.7,2.6,23.5,3.7,35.2c0.5,5.1,1,10.2,1.5,15.3c0.2,2.5,2.9,10.5-5.7,10.3
		C113.6,459.6,112.1,460.2,113,460.2"/>
	<path id="XMLID_12_" class="st8" d="M247.3,493.5c-24.3-9.3-48.5-18.6-72.8-28c-16.7-6.5-33.5-13-50.1-19.6
		c-5.6-2.2-11.1-4.4-16.6-6.7c-3.2-1.3-6.7-2.1-8-5.5c-1-2.3-0.7-7.9,2.7-6.7c1.6,0.5,3,1.1,4.6,1.7c5.5,2,11.1,3.9,16.5,6
		c16.8,6.1,33.7,12.2,50.5,18.5c16.6,6.2,33.4,12.4,49.9,18.8c5.3,2.1,10.6,4.1,15.8,6.4c4.4,1.9,4.6,1.7,5.5,6.5
		c0.5,2.9,1.6,6.5,0.5,9.4c-0.1,0.4,1.5,0,1.7-0.5c1.4-3.9-0.6-8.8-1-12.8c-0.1-1.1-0.4-1.1-1.4-1.7c-3.7-1.9-7.6-3.3-11.4-4.8
		c-15.3-6.1-30.5-11.7-46-17.5c-27.9-10.4-55.8-20.8-83.8-30.6c-3.4-1.2-6.2,0.9-6.2,4.7c0.1,5.3,2.3,6.5,6.4,8.1
		c12.2,5.3,24.8,10,37.2,14.9c31.9,12.4,63.8,24.8,95.8,37c2.9,1.1,5.9,2.3,8.8,3.4C246.3,494.5,247.6,493.6,247.3,493.5"/>
	<path id="XMLID_11_" class="st8" d="M238.7,411.2c2.2-4.1,5.5-13.2-2-13.6c-3.7-0.3-7.5,0.2-11.2,0.4c-17,1-34,2.3-51,3.5
		c-18.6,1.4-37.2,2.9-55.7,4.7c-5.7,0.6-11.3,1.1-17,1.9c-2.3,0.3-6.1,0.4-6.4,3.5c-1.4,11.8,11.7,8.1,18.8,7.6
		c15.6-1.1,31.2-2,46.8-2.9c25.5-1.5,51.1-3,76.7-4.5c0.7,0,1.7-1.2,0.6-1.1c-27.5,1.6-55,3.1-82.5,4.8c-15.5,0.9-30.8,1.9-46.3,2.9
		c-2.9,0.2-8,1.7-10.4-0.6c-2-1.9-3.7-7.8-0.1-8.5c2-0.4,3.9-0.6,5.9-0.8c26.9-3.1,54-5,81-6.9c12.8-1,25.6-1.9,38.4-2.5
		c3.4-0.2,6.8-0.4,10.2-0.4c7.7-0.1,5.1,8.3,2.6,12.8C236.7,411.9,238.4,411.6,238.7,411.2"/>
	<path id="XMLID_10_" class="st9" d="M117.8,409.3l-8.2,0.9c-4,0.5-7.7,3.8-7.3,8.2c0.4,4,3.8,7.8,8.2,7.3l8.2-0.9
		c4-0.5,7.7-3.8,7.3-8.2C125.6,412.6,122.1,408.8,117.8,409.3"/>
	<path id="XMLID_9_" class="st9" d="M236.9,397.4c-1.5-1.2-3.6-2.3-5.6-2c-2.3,0.4-4.6,1-6.6,2.4c-1.5,1.2-2.9,2.4-4.1,3.9
		c-1.8,2.2-2.9,4.5-2.7,7.3c0.2,3.8,3.3,7.6,7.1,8.1c2.1,0.3,4,0.1,5.9-1.1c1.6-1.1,3-2.9,3.3-4.9c0.1-0.3,0.1-0.6,0.1-0.8
		c1.3-0.4,2.3-1,3.3-2.2c1.3-1.4,2.2-3.6,2-5.6C239.4,400.8,238.6,398.7,236.9,397.4"/>
	<path id="XMLID_46_" d="M127.1,409.6c-2.3-2.4-6.5-1.4-9.4-1.2c-3.3,0.2-6.8,0.3-10,0.9c-3.1,0.6-6.1,2.1-7.6,5
		c-0.9,1.8-1.2,4-0.4,6c-0.2,0.2-0.5,0.5-0.8,0.7c-1.7,2-0.6,4.5-1.3,6.8c-0.7,2.4-2.3,4.6-3.6,6.7c-3.1,5.1-6.2,10.2-9.1,15.5
		c-2.8,5.1-5.7,10.4-8.2,15.7c-1.3,2.4-2.7,5.1-2.5,7.9c0.2,2.7,2,4.9,4.5,6c5.4,2.3,11.4-0.9,15.5-4.5c4.7-4.3,8.5-9.5,12.5-14.3
		c-1.3-0.7-2.3-2-2.5-3.5c-0.1-0.5,0-0.9,0-1.3c-0.7,0.1-1.3,0.4-1.8,1.1c-3.7,4.4-7.1,9.2-11.3,13.2c-1.7,1.7-3.6,3.1-5.9,3.9
		c-1.3,0.5-3.8,1.1-4.9-0.2c-1.2-1.3,1.2-4.7,1.8-5.9c1.4-2.7,2.8-5.5,4.2-8.2c2.7-5.3,5.8-10.6,8.7-15.7c1.6-2.5,3.1-5.2,4.7-7.7
		c1.5-2.4,2.9-4.8,3.7-7.5c0.2-0.7,0.3-1.5,0.4-2.3c2.1,1.5,4.4,2.4,6.9,2.8c5.3,0.8,10.5-1.2,14-5.2c1.7-1.9,2.7-4.2,3.4-6.7
		C128.7,414.8,128.9,411.6,127.1,409.6 M122.8,413.3L122.8,413.3C122.7,413.3,122.7,413.3,122.8,413.3 M122.2,417
		c-1.5,3.9-5.2,6.7-9.5,6.5c-2.2-0.1-4.1-0.9-5.9-2.1c-0.3-0.2-0.6-0.4-0.8-0.6c0.2-0.8,0-1.7-0.5-2.3c-0.5-0.5-0.6-0.6-0.4-1.4
		c0.2-0.6,0.7-1.2,1.3-1.5c2.3-1.3,5.1-1.1,7.5-1.3c1.4-0.1,2.7-0.2,4.1-0.3c1.5-0.1,3.2-0.1,4.7-0.4c0,0.1,0,0.3,0,0.3
		C122.8,415.1,122.5,416.1,122.2,417"/>
	<path id="XMLID_41_" d="M264.5,458c-0.9-7.2-2.8-14.2-7-20.3c-2.2-3.1-4.6-6-6.8-8.9c-2.2-2.9-4.4-6-6.5-9
		c-1.9-2.8-4.2-5.8-5.4-8.9c-0.1-0.4-0.2-0.7-0.3-1c0.2-0.6,0.4-1.3,0.6-1.9c0-0.1,0-0.1,0.1-0.2c1.2-1.2,2.5-2.2,3.3-3.8
		c0.8-1.6,0.9-3.3,0.2-4.9c-0.8-1.9-2.6-2.5-4.5-3c-3.3-0.9-6.9-1-10.4-0.5c-3.6,0.5-7.1,1.7-10.2,3.6c-3.4,2.1-4,5.5-3.9,9.2
		c0,3.7,1.3,7.6,3.8,10.4c2.4,2.6,6.1,4.2,9.8,3.6c3.5-0.6,6.2-2.8,8.1-5.8c1.3,2.2,2.6,4.3,4,6.4c3.5,5.4,7.3,10.4,11.3,15.5
		c1.9,2.3,3.6,4.8,4.8,7.6c1.3,2.7,2.1,5.6,2.5,8.6c0.6,2.9,0.9,6.1,1.1,9c0.1,0.3,0,2.8,0.2,3.6c-0.2,0-0.4,0-0.5-0.1
		c-2.2-0.7-4-2.7-5.9-4c-0.9-0.7-1.9-1.4-2.9-1.9c-0.2-0.2-0.5-0.5-0.8-0.7c-1.6-1.5-2.9-3-4.5-4.6c-1.1-1.1-3-0.7-3.9,0.3
		c0.4,0.6,0.6,1.2,0.7,1.8c0.1,0.8,0,1.6-0.4,2.3c0,0,0,0,0,0.1c2.1,2.1,3.9,4.6,6.5,6c0.1,0.1,0.2,0.1,0.4,0.2l0,0
		c0.7,0.5,1.4,0.9,2,1.4c2.4,1.8,4.6,3.9,7.6,4.7c3.2,0.9,6.8-0.4,7.4-3.9c0.4-1.7,0-3.4-0.1-5.1C264.9,461.8,264.7,459.9,264.5,458
		 M237.6,401.8C237.6,401.8,237.7,401.8,237.6,401.8L237.6,401.8 M237.4,401.2L237.4,401.2L237.4,401.2 M227.5,416.2
		c-1.8,0.8-3.6,0.3-5.2-1c-2-1.7-2.6-4.2-2.8-6.7c-0.1-1.1-0.2-2.4,0.2-3.6c0.3-1,1.5-1.5,2.4-1.9c2.4-1.2,5.1-1.9,7.8-2.2
		c1.4-0.1,2.7-0.1,4.1,0.1c0.3,0,2.2,0.5,3,0.7c-0.3,0.3-0.5,0.6-0.9,0.9c-1.2,1.1-2.3,2.2-3,3.7c-0.4,1-0.5,1.9-0.6,2.8
		C231.7,412.1,230.1,415.2,227.5,416.2"/>
</g>
<g>
	<path d="M408.5,438.3c1.2,41.2-0.8,86.5-24.4,125.1c-42.4,69.2-185.8,94.6-285.4,70.1c-56.5-13.9-87-46.4-110-82.1
		c-26.3-40.6-40.2-84.5-41-128.8c0-0.8,0.4-1.4,0.9-2c-9.2-48.2-6.9-99.2,28-142.9c31.7-39.5,87.5-64.7,152.7-72.6
		c54-6.5,120.5-4.7,167.6,16.2c42.6,18.9,67.3,50.7,82.4,82.5C399.7,346.7,407.3,393.4,408.5,438.3z M387.9,525.4
		c11.2-39.8,11-81.8,6.1-122.1c-4.5-37.3-13.1-75.9-33.4-111c-18.9-32.6-51.1-63.2-102.5-74.7c-51.3-11.5-112.8-10.1-163.5,1.9
		C-33.2,249.8-52.7,343.7-39.7,422.9c0.2,0.9-0.3,1.6-0.8,2.2c2.4,46.1,17.2,91.4,46.8,133.2c29.6,41.6,72.7,70,143.3,74.8
		c50.3,3.4,106.4-3.1,151.3-18.9C352.6,595.9,377.5,562.6,387.9,525.4z"/>
	<path d="M383.4,431c1,6.5-1.6,13.7-2.7,20.2c-0.4,2.1-5.3,2.2-5.1,0c0.9-6.6,0.5-14.2,3.6-20.6C380,429,383.2,429.5,383.4,431z"/>
	<path d="M383.2,474.8c1.1,5.9-1.7,12.6-2.8,18.5c-0.4,2.1-5.2,2.2-5,0c0.7-6.1,0.1-13.1,3.1-18.9
		C379.5,472.6,382.9,473.1,383.2,474.8z"/>
	<path d="M378.1,383.4c2.1,6.7,1.1,13.9,0.8,20.6c-0.2,2.6-5.8,2.5-5.9,0c-0.3-6.8-1.3-14,0.8-20.6C374.2,382,377.7,382,378.1,383.4
		z"/>
	<path d="M373.3,520.3c0.9,6.6-3.6,13.5-8.2,19.2c-1,1.3-4.4,0.4-3.6-1c3.7-6.1,4.7-12.4,7.3-18.6
		C369.6,518.2,373.1,518.7,373.3,520.3z"/>
	<path d="M368.9,358.5c0.2,1.9-4.6,2.3-4.9,0.4c-1.2-5.8-2.2-11.5-2.4-17.3c-0.1-1.8,4.3-2.3,4.8-0.4
		C367.9,346.9,368.5,352.7,368.9,358.5z"/>
	<path d="M356.9,559.8c2.1-1.1,5,0.2,3.7,1.9c-2.6,3.3-6.8,6.2-10.2,9.2c-3.5,3-6.7,6.2-9.9,9.3c-1.6,1.6-5.4,0.2-3.9-1.5
		c3.2-3.4,6.4-6.8,9.8-10.1C349.6,565.5,352.7,562,356.9,559.8z"/>
	<path d="M355,312c6.2,3.2,6.6,10.2,5.6,15c-0.4,1.7-4.3,1.2-4.4-0.4c-0.1-2.4-0.7-4.7-1.7-6.9c-0.9-2.1-2.8-4-3.5-6.1
		C350.6,311.9,353.2,311,355,312z"/>
	<path d="M347.7,293.7c1,1.3-1.5,2.8-3.2,1.7c-6.3-4.5-10.8-10.1-15.5-15.4c-1-1,1.4-2.3,2.6-1.3
		C337.4,283.4,343.7,288.3,347.7,293.7z"/>
	<path d="M317.7,594.7c2.8-0.6,3.9,2,1.9,2.9c-8.7,4.3-20.4,6.9-30.2,10c-2.5,0.8-4.7-1.6-2.2-2.5
		C296.9,601.7,307.2,597,317.7,594.7z"/>
	<path d="M312.5,257.9c1.8,1.5-0.9,3.2-3.1,2.1c-6.5-3.5-12-7.6-17.8-11.7c-2.2-1.6,1.2-3.8,3.5-2.3
		C301.1,249.8,307.3,253.5,312.5,257.9z"/>
	<path d="M256.1,234.1c2.5,0.6,1.5,2.9-1.1,2.7c-7.6-0.7-15-2.7-22.3-4.1c-2.1-0.4-1.3-2.5,0.9-2.2
		C241.1,231.5,248.9,232.3,256.1,234.1z"/>
	<path d="M252.6,615.4c2.2-0.2,4,1.8,1.7,2.6c-9.1,3.1-21.4,3.8-31.4,3.1c-2.7-0.2-2.7-2.7,0-2.8c5.3-0.3,10.5-0.4,15.8-1
		C243.3,616.8,247.9,615.9,252.6,615.4z"/>
	<path d="M185.3,621.8c1.9-0.1,2.6,1.8,1,2.4c-11,3.6-25.2,2.3-36.4-0.2c-2-0.4-1.2-2.5,0.9-2.1C162.9,624,173,622.6,185.3,621.8z"
		/>
	<path d="M177.8,224c2.6,0.1,3.2,2.6,0.6,3.1c-7.4,1.4-15.5,1.7-23.2,2c-2.9,0.1-3.6-3.1-0.7-3.4C162.1,224.8,170,223.8,177.8,224z"
		/>
	<path d="M117.5,617c1.8,0.1,2.6,2,0.5,2.3c-4.3,0.6-8.5,0.2-12.5-1c-3.1-0.9-8.5-3-7.4-5.7c0.3-0.6,1.1-1,2-1
		c3-0.2,5.1,2.1,7.4,3.1C110.5,615.9,113.9,616.6,117.5,617z"/>
	<path d="M114.3,228.9c2.5-0.5,3.5,1.7,1.6,2.6c-5.9,2.9-13.3,4.7-20,6.8c-2.4,0.7-4.5-1.6-2.1-2.4
		C100.4,233.5,107.1,230.5,114.3,228.9z"/>
	<path d="M75.9,600.6c1.7,1-0.5,2.7-2.4,2.1c-7.9-2.8-15.3-7.2-18.6-12.9c-1-1.7,2.8-3.1,4.5-1.8C64.8,592.4,69.5,596.9,75.9,600.6z
		"/>
	<path d="M59.1,243.1c2.5-0.8,5.4,1.3,3.1,2.7c-8,4.9-15.7,9.1-21.6,15.3c-1.4,1.5-4.5,0.2-3.4-1.3
		C41.9,253.3,49.3,246.5,59.1,243.1z"/>
	<path d="M40.2,568.8c2,0.8,0.6,3.1-1.6,2.5c-7-1.9-14.9-7.1-13.2-12.7c0.4-1.3,3.5-1.7,4.3-0.4c1.3,2,1.7,4,3.3,5.9
		C34.8,566.1,37.2,567.7,40.2,568.8z"/>
	<path d="M13.4,278c2.2-1.1,4.3,1.2,2.7,2.4c-7.6,6-13.7,11.9-16.5,19.7c-0.7,2-5,1.1-4.4-0.8C-2.4,291,3.3,283,13.4,278z"/>
	<path d="M15.1,537.2c1.2,1-1.4,2.2-2.7,1.3c-7.7-5-14.6-12.9-13-20.4c0.4-1.6,3.9-1.3,4.5,0c1.4,3.2,1.8,6.5,3.5,9.6
		C9.3,531.2,11.9,534.3,15.1,537.2z"/>
	<path d="M-6.3,496.4c0.7,1.7-3,2.3-3.9,0.7c-3.5-5.8-8.1-12.4-9.6-18.6c-0.4-1.6,2.8-2.7,4.1-1.1C-11.3,483-8.9,490.2-6.3,496.4z"
		/>
	<path d="M-17.5,328.6c1.5-1.1,4.5,0.1,3.8,1.4c-4.2,8.1-8.3,14.5-7.1,23.4c0.2,1.5-3.4,1.8-3.8,0.4C-27,345.6-26,335.3-17.5,328.6z
		"/>
	<path d="M-21.6,433.7c4.1,6,3.4,13.3,1.7,19.7c-0.4,1.5-4.2,1.1-4-0.4c1-6.4-1.1-12.2-2.1-18.5C-26.3,433-22.6,432.3-21.6,433.7z"
		/>
	<path d="M-23.2,404c0.1,1.6-3.7,1.9-4,0.4c-1.5-7.7-4.5-16.2-3.6-23.9c0.2-1.8,4.1-2.3,4.9-0.4C-23,387.6-23.7,396.2-23.2,404z"/>
</g>
</svg>
