<?xml version="1.0" encoding="utf-8"?>
<!-- Generator: Adobe Illustrator 19.0.0, SVG Export Plug-In . SVG Version: 6.00 Build 0)  -->
<svg version="1.1" id="Capa_1" xmlns="http://www.w3.org/2000/svg" xmlns:xlink="http://www.w3.org/1999/xlink" x="0px" y="0px"
	 viewBox="0 0 303.4 375.9" style="enable-background:new 0 0 303.4 375.9;" xml:space="preserve">
<style type="text/css">
	.st0{fill:#FDD125;}
	.st1{fill:#F6F6F5;}
	.st2{fill:#F6EC6D;}
	.st3{fill:#FFEBD5;}
	.st4{fill:#95C13D;}
	.st5{fill:#1E1E1B;}
	.st6{fill:#E83A45;}
	.st7{fill:#413D3E;}
	.st8{fill:#FDDB00;}
</style>
<g id="XMLID_1_">
	<path id="XMLID_598_" class="st0" d="M240.7,353c-0.6,0-1.2-0.1-1.9-0.4c-1.2,0.5-2.7,0.3-3.8-0.5c-0.9,0-2-0.4-2.8-1.2
		c-0.2-0.2-0.4-0.5-0.5-0.7c-0.6-0.2-1.1-0.6-1.5-1.1c-0.8-1-1.1-2.3-0.8-3.4l0,0c-0.5-1.1-0.5-2.3,0-3.4c-0.4-1-0.4-2.1,0-3.1
		c-0.2-0.7-0.1-1.5,0.2-2.2c0.5-1.3,1.1-2.2,2.5-3c0.9-0.5,2-0.7,3-0.4c0.1,0,0.1,0,0.1,0c0.9-0.2,1.9,0,2.7,0.4
		c0.8-0.1,1.5,0.1,2.2,0.4c0.6-0.3,1.1-0.5,1.7-0.8c1.8-0.8,3.9-0.2,5,1.4c0.2,0.3,0.4,0.6,0.5,0.9c0.8,0.3,1.5,0.8,2,1.5
		c0.9,1.4,0.9,3.1-0.1,4.4L249,342c0.3,0.7,0.3,1.5,0.1,2.2c0.7,1.1,0.7,2.5,0.1,3.6c-1,1.8-2.4,3.1-4.4,3.8
		c-0.4,0.1-0.7,0.2-1.1,0.2l-1.1,0.7C242,352.8,241.4,353,240.7,353 M237.9,344.6c0.6,0,1.2,0.2,1.8,0.7c0-0.1,0.1-0.1,0.1-0.1
		c0.7-0.5,1.7-0.7,2.5-0.4c0-0.1,0.1-0.2,0.2-0.3c0.2-0.2,0.3-0.3,0.4-0.5c-0.6-1-0.5-2.3,0.2-3.2c-0.1-0.1-0.2-0.3-0.3-0.4
		c-0.2-0.1-0.4-0.4-0.6-0.6c-0.3,0.2-0.6,0.4-1,0.6c-0.9,0.5-1.9,0.5-2.7,0.1c-0.2-0.2-0.4-0.3-0.6-0.5c-0.5,0.1-1,0.1-1.5-0.1
		c-0.3-0.1-0.6-0.3-0.8-0.5h-0.1c0,0.2-0.1,0.5-0.1,0.7c0.2,0.2,0.4,0.4,0.5,0.6c0.5,1,0.4,2.1-0.2,3c0.1,0.1,0.1,0.3,0.2,0.4
		c0.1,0.4,0.2,0.8,0.2,1.2l0,0l0,0C236.6,344.8,237.3,344.6,237.9,344.6"/>
	<path id="XMLID_594_" class="st0" d="M218.9,351.8c-0.8,0-1.5-0.2-2.2-0.7c-0.5,0-1.1-0.1-1.6-0.3c-0.6,0.2-1.3,0.4-2,0.3
		c-0.5,0-1-0.2-1.5-0.4c-1.1-0.1-2.1-0.6-2.8-1.6c-1.1-1.5-1-3.6,0.2-5l0.3-0.3c-0.1-0.1-0.1-0.3-0.1-0.4c-0.2-0.2-0.5-0.5-0.7-0.8
		c-0.3-0.4-0.6-0.9-0.7-1.4c-0.6-0.5-1.1-1.1-1.4-1.8c-0.9-2-0.1-4.2,1.9-5.2c0.8-0.4,1.5-0.8,2.3-1.1c1.1-0.5,2.3-0.5,3.3-0.1
		c0.8-0.2,1.6-0.1,2.3,0.1c1.6-0.6,3.3-0.3,4.5,1c1.2-0.5,2.7-0.2,3.9,0.7c1,0,1.9,0.4,2.6,1.2c0.7,0.7,1,1.5,1.1,2.4
		c1.2,1.5,1.2,3.6,0,5.1l0,0c0.3,0.8,0.2,1.7-0.2,2.5c-1,2.3-2.6,3.9-4.7,5c-0.8,0.4-1.7,0.4-2.5,0.2
		C220.3,351.6,219.6,351.8,218.9,351.8 M221.3,345c0.3,0,0.6,0.1,1,0.3c0.1-0.1,0.2-0.3,0.3-0.4c-0.1-0.1-0.2-0.2-0.2-0.3
		c-0.5-1-0.3-2.1,0.4-2.9l0,0c-0.2-0.2-0.3-0.4-0.4-0.7c-0.3-0.1-0.6-0.3-0.9-0.5c-0.6,0.4-1.3,0.6-2,0.5c-0.5-0.1-1-0.3-1.4-0.6
		c-0.7-0.2-1.3-0.6-1.7-1.3c-0.3,0-0.7,0-1.1-0.1c-0.2,0-0.5-0.2-0.7-0.3h-0.1c-0.2,0-0.4,0.1-0.6,0.1c0.3,0.1,0.6,0.3,0.8,0.6
		c0.8,0.9,1,2.1,0.5,3.1c0.2,0.3,0.3,0.6,0.4,0.9c0.1,0.2,0.1,0.5,0.1,0.8c0.5,0,0.9,0.1,1.3,0.3c0.2,0.1,0.3,0.2,0.5,0.3
		c0.8-0.2,1.7,0,2.4,0.6l0,0C220.3,345.1,220.8,345,221.3,345 M210,336.3c-0.1,0-0.1,0-0.2,0.1l0.8,1.9l0.1,0.1L210,336.3"/>
	<path id="XMLID_591_" class="st0" d="M234.8,339.8c-0.7,0-1.3-0.1-2.4-0.6c-1.5,0.6-3.1,0.2-4.3-1c-0.6,0-1.2-0.2-1.7-0.5l0,0
		c-1.2,0.4-2.5,0.2-3.5-0.6l0,0c-1.4,1.3-3.4,1.5-5,0.5c-1.3,0.7-2.8,0.6-4.1-0.1c-1.3,0.9-2.8,1-4.2,0.4c-0.2-0.1-0.4-0.2-0.6-0.3
		c-1.2,0.2-2.5-0.2-3.5-1.2c-1.6-1.6-1.7-4.2-0.2-5.9l3.9-4.5c-1.3-1.7-1.1-3.9,0.3-5.5c0.4-0.4,0.8-0.9,1.2-1.3
		c0,0-0.1-0.1-0.1-0.2c-0.6-1.4-0.4-3,0.5-4.2l0.5-0.6c-0.2-0.5-0.3-1.1-0.2-1.6l0.2-2.2c0.3-2.4,2.2-4.1,4.6-4.1
		c1,0,1.9,0.3,2.6,0.8c0.8-0.2,1.6,0,2.4,0.4c0.3,0.2,0.6,0.4,0.9,0.6c1,0,1.9,0.4,2.7,1.1c1.5-0.4,3.1-0.1,4.3,1.1
		c1.3-0.6,2.7-0.5,3.9,0.2c1.3-0.7,2.9-0.7,4.2,0c1.1-0.6,2.3-0.8,3.5-0.4c0.2,0.1,0.4,0.1,0.5,0.2c0.8-0.3,1.6-0.3,2.4-0.1l0,0
		l1.1-1c1.6-1.6,4.1-1.6,5.7-0.1c1.3,1.3,1.7,3.2,1,4.8c0.8,1.4,0.8,3.1-0.1,4.4c-0.2,0.3-0.5,0.7-0.7,1c1.1,1.1,1.4,2.6,1,4
		c0,0.1,0.1,0.2,0.1,0.3c0.3,0.8,0.4,1.6,0.2,2.3l0,0c0.5,0.7,0.6,1.6,0.5,2.5c0.5,0.2,0.9,0.4,1.3,0.8c0.9,0.9,1.3,2.1,1.1,3.3
		c0.4,0.9,0.5,1.9,0.1,2.8c-0.4,1.1-1.1,2.4-2.9,3.2c-0.5,0.3-1,0.4-1.5,0.4c-1,0.4-2.1,0.3-3.1-0.2c-0.9,0.3-1.9,0.2-2.8-0.2
		c-1.2,0.8-2.7,0.9-3.9,0.2c-0.2-0.1-0.4-0.2-0.6-0.4c-0.5-0.1-1-0.1-1.4-0.3c-0.6,0.4-1.1,0.7-1.6,1.1
		C236.4,339.6,235.6,339.8,234.8,339.8 M238.7,331.8c0.4,0,0.7,0,1,0.1c0.3,0.1,0.5,0.2,0.7,0.4c0.7-0.3,1.4-0.2,2.1,0.1
		c0.1,0.1,0.3,0.2,0.4,0.3l0.4-0.3c1-0.7,2.3-0.7,3.3,0l0.1,0.1c0-0.1,0.1-0.1,0.1-0.1c-0.1-0.4-0.2-0.9-0.1-1.3
		c-0.2-0.1-0.3-0.3-0.4-0.5c-0.4-0.7-0.5-1.6-0.2-2.3c-0.2-0.1-0.3-0.3-0.4-0.5c-0.3-0.6-0.4-1.3-0.3-1.9c-1.1,0.9-2.7,0.9-3.7-0.1
		c-1.1-1-1.2-2.6-0.3-3.7c1.4-1.7,2.7-3.5,3.9-5.2c-0.2-0.1-0.3-0.3-0.4-0.4c0-0.1-0.1-0.1-0.1-0.2c-0.6,0.2-1.2,0.2-1.8,0.1
		c-0.3-0.1-0.6-0.2-0.8-0.4c-0.7,0.4-1.5,0.6-2.3,0.3c-0.3-0.1-0.6-0.2-0.8-0.4l-1,0.8c-1,0.9-2.5,0.9-3.5,0.1
		c-0.1-0.1-0.2-0.2-0.3-0.3l-0.4,0.3c-1,0.9-2.6,0.9-3.6,0c-0.1-0.1-0.2-0.2-0.3-0.3l-4.8,4.1c-1.1,1-2.8,0.9-3.8-0.1
		c-1-1.1-1.1-2.7-0.1-3.8l0.4-0.4c-0.3-0.1-0.6-0.3-0.8-0.5c-0.6-0.5-0.8-1.3-0.8-2.1c-0.4-0.2-0.8-0.5-1.1-0.9l0,0
		c-0.4,0.2-0.8,0.2-1.2,0.2c0.1,0.2,0.2,0.5,0.2,0.7c0.2,0.8,0,1.6-0.5,2.2l-0.7,0.9c0.3,0.3,0.5,0.6,0.7,1c0.4,1,0.2,2.1-0.5,2.9
		c-0.2,0.1-0.3,0.3-0.4,0.4c0.3,0.1,0.5,0.3,0.7,0.5c1,1,1,2.6,0.1,3.7l-5.5,6.4c0,0.1,0.1,0.1,0.2,0.2l1-0.9c1.1-0.9,2.6-0.9,3.6,0
		c0.2,0.1,0.3,0.3,0.4,0.4l0.2-0.1c1-0.9,2.5-0.9,3.5-0.1c0.1,0.1,0.3,0.3,0.4,0.4l3.3-3c1.1-1,2.8-0.9,3.8,0.1
		c0.8,0.8,1.1,1.9,0.7,2.9c0.1,0.1,0.2,0.2,0.3,0.3c0.1-0.1,0.3-0.2,0.4-0.3c1.1-1,2.8-0.9,3.8,0.2c0.3,0.3,0.5,0.6,0.6,1
		c0.4,0.1,0.7,0.2,1,0.4c0.1,0.1,0.3,0.2,0.4,0.3c0.5-0.4,1-0.7,1.5-1.1S238.1,331.8,238.7,331.8"/>
	<path id="XMLID_590_" class="st0" d="M188.7,305.5c-1,0-2-0.4-2.7-1c-0.9-0.9-1.2-2.1-1.1-3.3c-0.8-1.3-0.7-3,0.2-4.2l0,0
		c0.9-1.2,2-1.8,3.5-1.8c0.3,0,0.6-0.1,0.9-0.1c1.2-0.2,2.4,0.1,3.3,0.9c0.6,0.5,1,1.2,1.2,2c0.5,0.4,0.8,0.9,1,1.5
		c0.4,1.3,0.1,2.8-0.8,3.8c-0.7,0.8-1.6,1.3-2.6,1.4c-0.4,0.1-0.8,0.2-1.1,0.4C189.9,305.4,189.3,305.5,188.7,305.5"/>
	<path id="XMLID_586_" class="st0" d="M212.2,373.7c-0.9,0-1.8-0.4-2.6-1.1c-0.2-0.2-0.4-0.5-0.6-0.8c-0.1-0.1-0.2-0.2-0.3-0.3
		c-1-0.6-1.7-1.7-1.8-2.9c-0.1-1.4,0.6-2.7,1.9-3.4c1.1-0.5,2.1-0.6,2.9-0.6h0.4c1,0,2,0.4,2.7,1.1c0.3,0.2,0.5,0.6,0.7,0.9
		c0.1,0.1,0.1,0.1,0.2,0.2c0.8,0.3,1.5,1,1.8,1.9c0.5,1.3,0.1,2.7-1,3.6c-1.4,1-2.8,1.3-3.8,1.4
		C212.6,373.7,212.4,373.7,212.2,373.7"/>
	<path id="XMLID_580_" class="st0" d="M244.8,374.9c-1.2,0-2.5-0.3-4.4-0.4c-0.1,0-0.2,0-0.3-0.1c-0.1,0-0.2-0.1-0.3-0.1
		c-1.5-0.5-2.6-1.9-2.6-3.6c0-3-0.1-6.2-0.3-9.2c-0.1-2.7-0.3-5.5-0.3-8.3l-1.7-0.1c-0.1,0-0.2,0-0.4,0c-1,0-2.5,0-3.7-0.8
		c-2.2-1.5-2.1-4.1-2.1-5.6c0-0.2,0-0.5,0-0.7l-0.1-2.3c0-0.7-0.1-1.4-0.1-2.1c0,0.2,0,0.5,0,0.7c0,0.5-0.1,0.9-0.1,1.4
		c0,0.4,0,0.8,0,1.2c0.1,2,0.2,4.9-1.6,6.6c-1.6,1.6-4,1.7-5.9,1.6c-0.1,2.8-0.4,5.6-0.6,8.3c-0.2,2.8-0.4,5.5-0.6,8.2
		c-0.1,1-0.5,2-1.3,2.6c-0.3,0.4-0.7,0.7-1.2,1c-1.3,0.7-3.9,2-6.7,1.3c-2.7-0.7-4.5-3-4.5-5.6c0-2.8,2.1-5.1,4.9-5.2
		c0.7,0,1.3,0,1.9,0.2c0.2-3.5,0.5-7.1,1-10.6l-2.8,0.1c-1,0-1.9-0.3-2.6-1s-1.2-1.7-1.2-2.7c0-1.3-0.1-2.5-0.2-3.8
		c-0.2-2-0.3-4.1-0.3-6.2c-0.8-0.2-1.6-0.7-2.1-1.4c-0.7-0.9-0.9-2.1-0.6-3.2c1.3-5,2.7-9.9,4.1-14.9c-4.1-0.8-8.1-2.8-10.8-4.7
		c-3.7-2.5-6.5-5.8-8-9.4c-1.2-0.1-2.4-0.6-3.4-1.4c-2.4-1.9-3-5.5-1.3-8.1c0.8-1.3,2.1-2.2,3.7-2.5c1.6-0.3,3.4,0.1,4.8,1.1
		c2.1,1.5,3,4.2,2.4,7c1.3,3.3,3.5,5.8,6.5,7.7c1.7,1,3.7,1.9,6.1,2.6c0.7,0.2,1.3,0.4,1.9,0.5l0.6-2.1c-8.7-4.7-14-12.2-14.9-21.2
		c-0.8-7.9,0.7-16.4,4-22.9c3.2-6.3,9-11.3,16.4-14.1c7-2.7,15.5-3.5,25.3-2.5c8.1,0.8,14.8,3.5,19.8,8c10.6,9.5,13.6,25.3,7.4,38.4
		c-3.3,6.8-9.2,12.7-16.4,16.3c0.2,1.2,0.4,2.5,0.6,3.9c3.2,5.6,8.2,8.6,14.6,8.7h0.1c0.7-0.9,1.7-1.7,2.8-2.1
		c1.4-0.5,2.9-0.4,4.2,0.2c1.4,0.6,2.5,1.8,3,3.3c0.6,1.5,0.5,3.2-0.2,4.7c-0.6,1.3-1.8,2.3-3.2,2.8c-1.6,0.5-3.4,0.4-4.9-0.5
		c-0.7-0.4-1.2-0.8-1.7-1.4c-4.7,0.2-9.3-1.2-13.1-3.8c0.1,1.1,0.3,2.3,0.4,3.5l0.4,3.4c0.1,1-0.2,1.9-0.9,2.7s-1.7,1.3-2.8,1.3
		h-1.4c0.2,2.3,0.2,4.6,0.3,6.8l0.1,2.7c0,1-0.4,2-1.1,2.7s-1.7,1.1-2.7,1.1l-2.7-0.1c0.5,4,0.6,8,0.7,11.4c2.6-0.3,5,1,5.9,3.2
		c0.9,2.3,0,5-2.3,6.5C247.5,374.5,246.4,374.9,244.8,374.9 M218,345.1c0.2,0,0.5,0,0.9,0c0.8,0,2,0.1,2.5,0
		c0.1-0.6,0.1-1.9,0.1-2.6c0-0.6,0-1.1,0-1.6v-0.8c0-0.2,0-0.3,0-0.5c-2.4,0-4.7,0-7.1-0.1c0.1,1.9,0.2,3.8,0.2,5.7l2.6-0.1
		C217.4,345.1,217.7,345.1,218,345.1 M242.9,339.7c-2.2,0-4.5,0.1-6.8,0.1c0,0.6,0.1,1.1,0.1,1.7l0.1,1.2c0,0.4,0,0.8,0,1.2
		c0,0.4,0,0.8,0,1.2c0.7,0.1,1.6,0.1,2.5,0.1c0.7,0,1.3,0,1.9,0l2.3,0.1C242.9,343.5,242.9,341.6,242.9,339.7 M247.4,332.2
		c-0.6-5.5-1.2-11.3-1.7-17c-5.8,1.6-11.5,1.7-16.9,0.2c-0.1,0-0.2,0-0.3,0c-3.8-0.3-7.5-1-11-2.1c-1.6,6.1-3.3,12.1-5,18.2
		l-0.1,0.5C224.1,332.3,235.8,332.4,247.4,332.2 M235.5,256.7c-4.5-0.1-8.4,0.5-10.5,0.9c-4.6,0.8-11,2.8-15.7,7.8
		c-3.6,3.9-5.7,9.6-6.3,17.3c-0.6,7.8,1.4,13.7,6.2,18.2c4.7,4.3,11.3,6.8,19.8,7.4c0.6,0,1.1,0.2,1.6,0.5
		c6.2,0.6,10.8,0.2,15.1-1.2c5.7-1.8,10.7-5.5,14-10.2l0,0c6.8-9.7,6.7-22.2-0.4-31C253.2,258.7,243.3,256.8,235.5,256.7"/>
	<path id="XMLID_579_" class="st0" d="M235,307.8c-0.2,0-0.4,0-0.9-0.1c-6.5-0.3-16-2.9-21.2-9.5c-1.1-1.4-1-3.5,0.3-4.8
		c1.2-1.2,3.1-1.3,4.5-0.3l0,0c0.6,0.4,1.1,0.9,1.7,1.3c1.9,1.5,3.8,2.9,5.9,3.9c2.9,1.3,6.1,2.1,9.1,2.2c3,0.1,5.9-0.3,8.7-1.2
		c2.4-0.7,4.5-2,6.7-3.4l0.7-0.4c0.1,0,0.1-0.1,0.2-0.1c0.5-0.3,1-0.6,1.4-0.8c1.4-0.8,3.1-0.4,4.1,0.9c1,1.2,0.9,3-0.1,4.2
		C250.8,305.9,241.6,307.9,235,307.8"/>
	<path id="XMLID_575_" class="st0" d="M240.4,292.1c-1.3,0-2.7-0.6-3.7-1.8c-1.5-1.6-1.9-3.8-0.9-5.7l0,0c0.9-1.6,2.6-2.6,4.5-2.6
		c1.8,0.1,3.4,1,4.2,2.5c0,0,0.1,0.1,0.1,0.2c0.3,0.4,0.5,0.9,0.6,1.4c0.6,2.2-0.6,4.5-2.7,5.5C241.9,292,241.1,292.1,240.4,292.1
		 M240,286.9c-0.1,0.2-0.1,0.4,0,0.5c0.1,0.1,0.2,0.2,0.4,0.2c0.2,0,0.4-0.2,0.4-0.3L240,286.9 M240.5,286.6c-0.1,0-0.2,0-0.3,0.1
		c-0.2,0.1-0.3,0.2-0.3,0.3l0.8,0.4c0.2-0.3,0.1-0.6,0-0.7C240.7,286.6,240.6,286.6,240.5,286.6"/>
	<path id="XMLID_571_" class="st0" d="M227.9,290.7c-1.6,0-3.1-0.8-4-2.1c-0.9-1.4-1.1-3.1-0.5-4.6l0,0c0.7-1.6,2.1-2.7,3.8-3
		c1.7-0.2,3.4,0.4,4.5,1.8c0.1,0.2,0.3,0.4,0.4,0.6c0.9,1.3,1.1,2.9,0.5,4.4c-0.7,1.7-2.4,2.8-4.4,2.9
		C228.1,290.7,228,290.7,227.9,290.7 M227.5,285.6C227.5,285.7,227.5,285.7,227.5,285.6c-0.1,0.3-0.1,0.6,0,0.7
		c0.1,0.2,0.3,0.2,0.5,0.2c0.2-0.1,0.4-0.3,0.5-0.5L227.5,285.6 M228.1,285.1c-0.1,0.1-0.4,0.2-0.6,0.5l1,0.4
		c0.1-0.2,0.1-0.5-0.1-0.7C228.3,285.1,228.1,285.1,228.1,285.1"/>
	<path id="XMLID_531_" class="st0" d="M189.7,299.9L189.7,299.9h-2.4c-0.7,0-1.4-0.4-1.9-0.9c-0.5-0.6-0.7-1.3-0.7-2
		c1.8-54.2-12.8-83.3-60.1-119.9c-14.4-10.9-26.9-18-37.9-24.2c-13.8-7.8-24.7-13.9-32.3-24c-8.1-10.7-11.8-25-11.9-46.3
		c0-0.8,0.3-1.5,0.8-2c0.6-0.5,1.3-0.8,2-0.8h2.2c1.5,0,2.8,1.2,2.8,2.7c0.3,41,13.6,48.5,40.3,63.6c11.2,6.4,23.9,13.5,38.8,24.8
		c25.1,19.4,39.9,35.5,49.5,53.9c10.4,19.8,14.6,42.1,13.6,72.4C192.5,298.7,191.2,299.9,189.7,299.9"/>
	<path id="XMLID_335_" class="st0" d="M215.7,260.8c-0.9,0-1.7-0.4-2.4-1.2c-0.9-1.4-4-5.9-4.7-7.3c-0.6-1.3-1.8-4.1-1.8-4.1
		c-0.3-0.7-0.3-1.6,0.1-2.3c0.3-0.8,1-1.3,1.8-1.5l6-1.4l2.1-5.9c1.4-3.8,4.8-12.9,6.4-14.9c1.3-1.7,3.1-2.6,5-2.6l0,0
		c1.8,0.1,3.4,1,4.5,2.5c1.2,1.7,8.1,13.8,10.5,18l8.8,0.6c0.9,0.1,1.7,0.6,2.2,1.4c0.4,0.8,0.5,1.8,0.1,2.6l-6.2,13.5
		c-0.6,1.3-2.1,1.9-3.4,1.5c0,0-3.5-1.1-10.6-1c-7.4,0.2-14.5,1.6-14.7,1.6l-3.2,0.5C216,260.8,215.9,260.8,215.7,260.8
		 M236.2,253.1c3.5,0.1,6.1,0.4,7.7,0.7l3.6-7.8l-6.3-0.4c-0.9-0.1-1.7-0.6-2.2-1.4c-3.7-6.6-10-17.5-10.9-18.8
		c-0.1-0.1-0.1-0.2-0.1-0.2s-0.3,0.1-0.5,0.4c-0.8,1.1-3.5,7.8-5.5,13.4l-2.5,7.3c-0.4,0.9-1.1,1.6-2,1.8l-4.2,1
		c0.1,0.3,0.3,0.6,0.4,0.9c0.3,0.5,1.8,2.8,3.3,5l1.3-0.2c0.4-0.1,7.7-1.6,15.7-1.7C234.8,253.1,235.5,253.1,236.2,253.1"/>
	<path id="XMLID_331_" class="st0" d="M215.8,261.2c-0.4,0-0.7-0.1-1.1-0.2c-0.5-0.1-1-0.4-1.4-0.9c-2.7-3.3-4.8-7.1-6.7-11.6
		c-0.6-1.3-0.2-2.8,0.8-3.7l0,0c0.3-0.2,0.7-0.5,1.1-0.6c1.8-0.6,3.8-1.1,5.9-1.5c0.5-1.5,1.1-3.1,1.6-4.6c0.9-2.7,1.9-5.5,3-8.2
		l0.5-1.2c1.3-3.4,3-7.7,6.4-9.2c2.1-1,4.5-0.4,6,1.6c1.1,1.5,2,3.1,2.9,4.7c0.3,0.7,0.7,1.4,1.1,2l7.1,11.8
		c3.4-0.1,6.4,0.1,9.3,0.6c1.2,0.2,2.1,1.1,2.5,2.2c0.3,0.9,0.2,1.9-0.3,2.7c-0.7,1.5-1.3,3.1-2,4.6c-1.2,3-2.5,6.1-4.3,8.8
		c-0.2,0.3-0.4,0.5-0.7,0.7c-0.5,0.4-1,0.6-1.6,0.7c-0.1,0-0.3,0-0.4,0c-0.2,0-0.4,0-0.6,0l-0.5-0.1c-0.2,0-0.3-0.1-0.5-0.1l0,0
		c-0.2,0-0.3,0-0.5,0c-5.2-0.5-10.4-0.5-15.6-0.1c-0.1,0-0.2,0-0.3,0c-0.1,0-0.2,0-0.3,0c-0.2,0-0.3,0-0.4,0c-0.1,0-0.2,0-0.3,0
		c-1.6,0.1-3.1,0.3-4.8,0.6c-0.5,0.1-1.1,0.1-1.6,0.2c-0.2,0.1-0.5,0.1-0.7,0.2c-0.1,0.1-0.2,0.1-0.3,0.1l-0.8,0.2
		c-0.2,0-0.2,0-0.4,0s-0.3,0.1-0.5,0.1l-0.6,0.1c-0.2,0.1-0.5,0.1-0.7,0.1C216,261.2,215.9,261.2,215.8,261.2 M236.4,252.9
		c2.6,0,5.1,0.1,7.6,0.3c1-1.9,1.9-4.1,2.9-6.3c0.1-0.3,0.3-0.6,0.4-0.9c-5-0.2-10,0.3-15.2,0.8l-2.5,0.3c-5.3,0.5-10.7,1-15.9,2.3
		c1,2,2,3.7,3.2,5.3C223.1,253.4,229.7,252.8,236.4,252.9 M229,228.1c-0.1-0.3-0.3-0.7-0.5-1c-0.2-0.4-0.5-0.8-0.7-1.2
		c-0.5,0.8-1,1.9-1.3,2.5c-0.8,1.7-1.5,3.6-2.4,5.9c-0.8,2-1.5,4-2.2,6c-0.1,0.4-0.3,0.8-0.4,1.2c2.5-0.3,5.1-0.6,7.6-0.8l2.2-0.2
		c1.6-0.2,3.3-0.4,4.9-0.5L229,228.1z"/>
	<path id="XMLID_328_" class="st0" d="M223.1,228.9c-1,0-2-0.5-2.6-1.3c-0.8-1.1-0.9-2.5-0.3-3.7c0-0.5,0-1.1,0.2-1.6
		c-0.3-0.1-0.5-0.2-0.7-0.3c-0.4-0.2-0.7-0.5-0.9-0.8c-1.3-0.6-2.1-1.9-2-3.4c0-1.8,1.4-3.2,3.1-3.4c0.7-0.3,1.5-0.4,2.3-0.2
		c0.1,0,0.3,0.1,0.4,0.1h0.1c0-0.1,0.1-0.3,0.1-0.4c0.1-0.2,0.1-0.3,0.2-0.5c-0.1-0.6-0.1-1.2,0.1-1.8c0.3-1,0.8-1.7,1.6-2.4
		c1.1-1,2.6-1.1,3.9-0.4c0.6,0.4,1.1,0.8,1.4,1.4c0.4,0.2,0.7,0.5,1,0.9c0.6,0.7,0.9,1.6,0.8,2.5c0.2,0.1,0.3,0.1,0.4,0.2
		c1.6-0.9,3.6-0.4,4.6,1.1s0.6,3.5-1,4.7c-0.4,0.3-0.7,0.5-1.1,0.8c0.1,0.3,0.1,0.7,0.1,1c0.2,0.1,0.4,0.3,0.5,0.5
		c0.7,1,0.8,2.3,0.3,3.4c-0.4,0.8-0.8,1.4-1.5,1.9c-0.8,0.7-2,0.9-3,0.5c-1,0.1-2.1-0.3-2.8-1c-0.2-0.2-0.3-0.3-0.4-0.5h-0.1
		c-0.8,0.7-1.7,1.4-2.6,2.1C224.5,228.7,223.8,228.9,223.1,228.9 M220.3,214.3c-0.1,0-0.1,0-0.1,0l0.1,2.8V214.3"/>
	<path id="XMLID_325_" class="st0" d="M222.2,230.2c-0.2,0-0.5,0-0.9-0.3c-1-0.2-1.8-0.9-2.2-1.8c-0.2-0.5-0.2-1.3-0.1-1.9
		c0-0.2,0.1-0.4,0.1-0.6c0-0.1,0.1-0.3,0.1-0.4c0.3-1,0.6-2.1,0.8-3.1c-1.1-0.6-2.3-1.2-3.5-2c-0.3-0.1-0.6-0.3-0.8-0.5
		c-0.5-0.4-0.8-1-0.9-1.7c0-0.1,0-0.1,0-0.2v-0.2c-0.1-1,0.2-1.9,1-2.5c0.2-0.2,0.5-0.4,0.8-0.6c0.4-0.3,0.8-0.4,1.3-0.5
		c1.1-0.2,2.2-0.4,3.3-0.5l0.5-0.1c0.1,0,0.1,0,0.2,0c0.4-1.6,1-3.2,1.8-4.7c0.1-0.2,0.3-0.5,0.5-0.7c0.3-0.4,1.1-1.2,2.3-1.5
		c0.6-0.1,1.2-0.1,1.8,0.2c0.9,0.4,1.5,1.2,1.7,2.1c0.1,0.1,0.1,0.3,0.1,0.4c0.6,1.2,1,2.3,1.4,3.4c0.9,0,1.8,0.1,2.7,0.1
		c0.5,0.1,1,0.1,1.5,0.1c1.1,0,2,0.6,2.6,1.5s0.7,2.1,0.2,3.1c-0.7,1.5-1.9,2.3-2.9,3l-0.7,0.5c0.4,0.8,0.8,1.5,1.1,2.3
		c0.2,0.4,0.4,0.9,0.6,1.3c0.6,1.2,0.3,2.6-0.6,3.6s-2.4,1.3-3.6,0.8c-1.1-0.5-2.3-1-3.4-1.6l-0.5-0.2c-0.2-0.1-0.5-0.2-0.7-0.3
		c-1,0.8-2.1,1.6-3.1,2.4l-0.5,0.4C223.6,230,222.9,230.2,222.2,230.2 M227.7,219.7L227.7,219.7c0-0.3,0.1-0.7,0.2-1
		c-0.2-0.1-0.5-0.3-0.7-0.5c-0.2,0.2-0.4,0.4-0.7,0.6c0.2,0.3,0.4,0.6,0.5,1C227.2,219.7,227.5,219.7,227.7,219.7"/>
	<path id="XMLID_266_" class="st1" d="M187.3,298.6c-0.2,0.2-0.2,0.7,0,1.1c0.3,0.4,0.6,0.6,1,0.7l0,0c-0.2,0.2-0.3,0.4-0.5,0.6
		c-0.3,0.4-0.1,1,0.2,1.4c0.4,0.4,0.9,0.4,1.4,0.2c0.6-0.2,1.1-0.4,1.7-0.6c0.4,0,0.8-0.2,1.1-0.5c0.6-0.7,0.3-1.7-0.5-1.8
		c0-0.2-0.1-0.5-0.3-0.7c0.1-0.7-0.5-1.3-1.4-1.2c-0.4,0.1-0.9,0.1-1.3,0.1C188.1,297.9,187.7,298.1,187.3,298.6"/>
	<polygon id="XMLID_263_" class="st2" points="207.4,337 213.8,308.7 247.8,310.2 251.5,336 	"/>
	<path id="XMLID_262_" class="st3" d="M269.3,285c-2.9,17.6-16.3,24.3-21.2,26.1c-5,1.7-17.9,1.9-17.9,1.9
		c-30.7-9.1-29.4-14.2-30.8-32.1s21.4-32.1,44.2-28.4C271.5,257,269.3,285,269.3,285"/>
	<polygon id="XMLID_261_" class="st4" points="210.8,350.3 208.9,337 224.8,336.5 224.1,349.1 	"/>
	<polygon id="XMLID_260_" class="st4" points="246.3,348.8 246.7,336.1 233.1,337.7 233.2,349.5 	"/>
	<path id="XMLID_166_" class="st5" d="M187.6,297c1.8-55.3-13.1-85-61.2-122.2c-14.5-11-27.1-18.1-38.2-24.4
		c-27.4-15.5-42.5-24.1-42.8-67.9h2.2c0.3,42.6,15,50.9,41.7,66c11.2,6.3,23.8,13.5,38.5,24.6c41.8,32.4,64.1,61.7,62,124L187.6,297
		z"/>
	<path id="XMLID_36_" class="st5" d="M250.4,318.9c-0.3-2.7-0.7-5.4-1.2-8.1c7.3-3.1,13.6-8.9,16.9-15.9c5.6-11.9,3.1-26.3-6.8-35.1
		c-5.2-4.6-11.6-6.7-18.3-7.4c-7.9-0.8-16.5-0.6-24,2.3c-6.3,2.4-11.8,6.6-14.9,12.7c-3.2,6.3-4.4,14.3-3.7,21.3
		c1,9.8,7.4,16.3,15.5,20c0,0.1-0.1,0.2-0.1,0.3c-0.6,2.2-1.2,4.4-1.8,6.6c-1.5-0.4-3.1-0.7-4.6-1.1c-2.4-0.7-4.7-1.6-6.8-2.9
		c-3.7-2.3-6.4-5.6-7.9-9.8c0-0.1,0-0.1,0-0.1c0.6-1.8,0.4-3.8-1.2-5c-1.5-1-3.6-0.9-4.6,0.7c-0.9,1.4-0.6,3.4,0.7,4.5
		c1,0.8,2.4,1,3.6,0.6c1.2,4.1,4.2,7.6,7.7,10c3.4,2.3,8.4,4.6,12.8,4.6c-1.7,6-3.3,12-5,18c-0.2,0.6,0.3,1.2,0.9,1.2
		c0.7,0.1,1.3,0.1,2,0.1c-0.2,4.1,0.2,8.4,0.4,12.5c0,0.5,0.4,1,0.9,1c2.1-0.1,4.2-0.2,6.3-0.3c-1.2,6.1-1.6,12.4-1.9,18.6
		c-1.4-0.8-2.3-2.6-4.2-2.5c-1.3,0.1-2.2,1.2-2.2,2.5c-0.1,1.5,1.1,2.6,2.4,2.9c1.7,0.5,3.3-0.3,4.8-1c0.2-0.1,0.2-0.3,0.2-0.5
		c0.4,0,0.8-0.3,0.8-0.8c0.4-6.3,1.2-12.6,1.4-19c0.3,0,0.7,0,1,0c1.4,0,4.4,0.4,5.6-0.7c1.2-1.2,0.7-4.5,0.8-6c0.1-1.9,0.3-4,0.1-6
		c1.8,0,3.6,0,5.4,0c0.1,2.7,0.3,5.5,0.4,8.2c0.1,1.2-0.3,3.4,0.9,4.2c0.6,0.5,1.9,0.3,2.6,0.3l4,0.1c0.2,0,0.3,0,0.4,0
		c-0.2,6.7,0.7,13.5,0.6,20.2c-0.1,0.6,0.4,0.9,0.8,0.9c0.2,0.1,0.4,0.2,0.6,0.2c0,0.1,0.1,0.1,0.2,0.2c1.5,0.7,3.5,1.3,5,0.3
		c1-0.7,1.7-2,1.2-3.2c-0.5-1.3-1.9-1.7-3.1-1.5c-1.3,0.2-2.1,1.1-3,1.9c0-6.3-0.2-12.8-1.2-19c2,0.1,4,0.1,6,0.2
		c0.4,0,0.9-0.4,0.9-0.9c-0.1-4.1-0.1-8.2-0.6-12.3c1.5-0.1,2.9-0.1,4.4-0.1c0.5,0,1.1-0.4,1-0.9c-0.6-5.2-1.1-10.4-1.8-15.6
		 M249.1,317.6c2.9,8,11.6,13.1,20,11.9l0,0c0.4,1.8,2.5,2.8,4.2,2.2c1.6-0.5,2.3-2.4,1.7-4c-0.5-1.6-2.1-2.5-3.7-1.9
		c-1,0.3-1.8,1.2-2,2.2c-8.6,0.5-15.4-3.4-19.3-11.1 M270.5,328.3c0.6-1.3,2.5-2,3.3-0.3c0.3,0.8,0.2,2-0.8,2.3s-2.2-0.2-2.5-1.2
		c0-0.1,0-0.1,0-0.1C270.6,328.8,270.6,328.5,270.5,328.3 M245.5,370.7c-0.9,0.4-2,0-3-0.2c1-1,2.3-2.6,3.7-1.9
		C247.2,369.1,246.3,370.4,245.5,370.7 M213.2,368.6c0.5,0.4,0.9,0.8,1.4,1.1c-0.7,0.2-1.5,0.4-2.2,0.4c-1-0.1-2.4-0.8-2.1-2
		C210.7,366.4,212.6,368,213.2,368.6 M262,299c-3.8,5.3-9.2,9.2-15.4,11.2c-5.6,1.9-11.3,1.8-17.1,1.2c-0.2-0.2-0.4-0.4-0.7-0.4
		c-7.8-0.6-15.7-2.8-21.5-8.2c-5.9-5.5-7.7-12.7-7.1-20.5c0.5-6.7,2.3-13.8,7.1-18.9c4.5-4.8,10.8-7.5,17.2-8.6
		c12.8-2.2,28.4-0.9,37,9.9C269.5,274.7,269.3,288.7,262,299 M233.5,342.9c-0.1-2-0.2-4-0.2-5.9c4.2,0,8.4,0,12.6-0.1
		c-0.2,3.8,0,7.5,0.1,11.3l-5.3-0.2c-1.8-0.1-3.7,0.1-5.4-0.2c-1.5-0.2-1.3-0.4-1.6-1.6C233.4,345.2,233.5,343.9,233.5,342.9
		 M211.8,348.1c0-3.8,0-7.7-0.5-11.4c4.4,0.1,8.8,0.1,13.2,0.2c-0.3,1.4-0.3,2.8-0.4,4.2c-0.1,1.7,0.3,4.9-0.9,6
		c-1.2,1.2-4.3,0.7-6,0.8C215.4,348,213.6,348,211.8,348.1 M208.8,334.7c2.3-8.3,4.7-16.6,6.9-24.9c0-0.1,0-0.1,0-0.1
		c4.2,1.6,8.7,2.6,13.1,2.9c0.1,0.1,0.2,0,0.3,0c6.3,1.9,13.1,1.3,19.2-1.1c0.4,7.9,1.3,15.7,2.2,23.5
		C236.6,335.2,222.7,335.1,208.8,334.7 M188.8,301c-0.7-0.5-0.9-1.5-0.6-2.3c0.4-1,1.5-1.1,2.3-0.6c1.1,0.7,1.1,2.1,0.7,3.2
		C190.4,301.6,189.5,301.5,188.8,301"/>
	<path id="XMLID_35_" class="st5" d="M216.3,295.5c-0.8-0.6-1.4,0.5-1,1.1c4.2,5.3,12.5,8.1,19.1,8.4c6.7,0.2,15.1-1.9,19.6-7.1
		c0.5-0.5,0-1.2-0.6-0.9c-0.3,0.2-0.7,0.4-1,0.6c0,0.1,0,0.1,0,0.1c-2.7,1.6-5.2,3.3-8.2,4.3c-3.1,1.1-6.3,1.5-9.6,1.4
		c-3.5-0.1-6.9-1-10.1-2.4C221.4,299.6,219,297.5,216.3,295.5"/>
	<path id="XMLID_34_" class="st5" d="M238.3,286.1c-1,1.8,1.3,3.9,3.1,3c0.8-0.3,1.4-1.3,1.2-2.2c-0.1-0.3-0.2-0.5-0.4-0.7
		c0-0.1,0-0.2-0.1-0.3C241.3,284.4,239,284.7,238.3,286.1"/>
	<path id="XMLID_33_" class="st5" d="M225.9,285c-0.6,1.5,0.7,3,2.1,2.9c0.8,0,1.6-0.3,1.9-1.1c0.3-0.7,0.2-1.4-0.3-1.9
		c0-0.1-0.1-0.3-0.2-0.4C228.4,283.3,226.5,283.6,225.9,285"/>
	<path id="XMLID_241_" class="st6" d="M218.9,257.4c0,0,7.3-1.5,15.1-1.6s11.5,1.1,11.5,1.1l6.2-13.5l-10.3-0.7
		c0,0-9.8-17.2-11.1-19.1c-1.4-1.9-3.6-1.7-5.1,0.2c-1.4,1.9-5.9,14.2-5.9,14.2l-2.5,7.3l-7.4,1.8c0,0,1.2,2.7,1.8,4
		s4.5,6.9,4.5,6.9L218.9,257.4z"/>
	<path id="XMLID_237_" class="st7" d="M209.3,246.9c-0.1,0.1-0.2,0.3-0.3,0.5c1.7,4.1,3.7,7.7,6.3,10.9c0.2,0,0.3,0,0.4,0.1
		c0.2,0,0.3,0,0.4,0c0.2,0,0.4-0.1,0.6-0.1c0.2-0.1,0.3-0.2,0.5-0.2c0.2,0,0.3,0,0.4,0s0.1,0,0.1,0c0.3-0.1,0.6-0.1,0.9-0.2
		c0.3-0.1,0.7-0.2,1.1-0.3c0.6-0.1,1.2-0.1,1.8-0.2c1.6-0.2,3.2-0.4,4.8-0.6h0.1c0.2,0,0.3,0,0.5,0l0,0c0,0,0,0,0.1,0
		c0.2,0,0.3,0,0.5,0c5.4-0.4,10.8-0.4,16.1,0.1c0.2,0,0.3,0,0.4,0c0.3,0,0.5,0,0.7,0.1s0.4,0.1,0.6,0.1c0.1,0,0.2,0,0.3,0h0.1
		c0.1,0,0.1-0.1,0.2-0.1c2.6-3.9,4.2-8.8,6.3-13.1v-0.1c0.2-0.2,0.2-0.8-0.1-0.8c-3.5-0.6-7-0.6-10.5-0.5c0,0-0.1-0.1-0.1-0.2
		c-2.6-4.4-5.2-8.7-7.8-13c-1.3-2.1-2.4-4.5-3.9-6.4c-0.7-1-1.7-1.3-2.7-0.8c-2.7,1.2-4.2,5.8-5.4,8.9c-1.9,4.6-3.4,9.4-5.2,14.1
		l0,0c-2.4,0.4-4.8,1-7.1,1.7L209.3,246.9 M234.6,232c2.1,3.5,4.2,7,6.2,10.4c-3.3,0.2-6.7,0.6-10,0.9c-4.5,0.5-9.1,0.9-13.6,1.7
		c1.4-3.8,2.8-7.8,4.2-11.6c0.8-2.1,1.6-4.1,2.5-6.1c0.8-1.7,1.7-3.5,3-4.3c2.1-1.4,3.4,1.7,4.5,3.6
		C232.5,228.4,233.5,230.2,234.6,232 M215.8,257.7c-2.4-3-4.3-6.3-5.9-10.2c6.7-2.1,13.6-2.7,20.5-3.4c7.1-0.7,14.1-1.5,21.1-0.5
		c-2,4.2-3.6,8.8-6,12.6C235.7,255.1,225.5,255.5,215.8,257.7"/>
	<path id="XMLID_236_" class="st8" d="M220.3,217.1c-1,0-1,1.5,0,2c0.2,0,0.3,0,0.5,0l0.1,0.1c-0.1,0.5,0.6,1.1,1.1,0.7
		c0.2-0.2,0.5-0.4,0.8-0.6c0.1,0,0.2,0.1,0.3,0.1c0,0.1,0,0.1-0.1,0.2c-0.5,0.6,0.4,1.4,1,1c0.1-0.1,0.2-0.1,0.3-0.2
		c-0.1,0.1-0.1,0.1-0.2,0.2c-0.6,0.6,0.3,1.4,0.9,1c0.2-0.1,0.3-0.2,0.5-0.3c-0.1,0-0.1,0.1-0.2,0.1c-0.8,0.6-1.5,1.3-2.2,1.9
		c-0.6,0.5,0.2,1.5,0.8,1c0.5-0.4,1-0.9,1.5-1.3c-0.8,0.8-1.7,1.5-2.6,2.3c-0.6,0.5,0.1,1.5,0.8,1c1.3-0.9,2.5-1.9,3.6-3
		c0.2,0.1,0.4,0,0.6-0.1s0.4-0.3,0.6-0.4l0,0c-0.4,0.6,0.3,1.3,0.9,0.9c0.2-0.1,0.3-0.2,0.4-0.3c0,0.3,0.3,0.5,0.6,0.5
		c-0.1,0.2-0.2,0.3-0.2,0.5c-0.2,0.5,0.4,0.8,0.8,0.7c0.3-0.1,0.6-0.2,0.9-0.3c-0.1,0.3,0.2,0.6,0.5,0.4c0.4-0.3,0.6-0.6,0.8-1
		c0.2-0.3-0.1-0.8-0.5-0.7c-0.2,0-0.5,0-0.8,0.1c0.1-0.2,0.2-0.3,0.3-0.5c0.3-0.4,0-1-0.5-1c0.1-0.1,0.2-0.2,0.3-0.3
		c0.4-0.5-0.1-1.1-0.6-1c0-0.1,0.1-0.2,0.2-0.3c0.2-0.3,0.1-0.7-0.1-0.9c0.9-0.8,1.8-1.5,2.8-2.2c0.7-0.6-0.1-1.5-0.8-1.1
		c-0.4,0.2-0.8,0.4-1.2,0.7c-0.1,0-0.2-0.1-0.3-0.1c-0.2-0.1-0.5-0.1-0.8,0c0.1-0.5-0.5-0.9-1-0.6c-0.4,0.3-0.9,0.6-1.3,0.9
		c0.2-0.2,0.3-0.3,0.5-0.5c0.5-0.6-0.3-1.4-0.9-1.1l0,0c0.3-0.4,0.1-0.8-0.2-1c0.3-0.3,0.5-0.6,0.7-0.9c0.4-0.6-0.1-1.4-0.8-1.1l0,0
		c0-0.2-0.2-0.5-0.4-0.6c0.1-0.6-0.6-1.1-1.1-0.7c-0.4,0.4-0.6,0.7-0.8,1.2c-0.1,0.3,0.1,0.7,0.3,0.9c-0.2,0.4-0.4,0.8-0.5,1.3
		c-0.1,0.2,0,0.5,0.2,0.6c-0.7,0.6-1.3,1.2-2,1.8h-0.1c-0.1,0.1-0.3,0.2-0.5,0.3c-0.2-0.3-0.6-0.5-0.9-0.3c0,0.1-0.1,0.1-0.1,0.1
		c-0.3-0.4-0.8-0.4-1.2-0.2C220.7,217.1,220.5,217.1,220.3,217.1"/>
	<path id="XMLID_233_" class="st5" d="M222,226.1c0,0.1,0,0.1-0.1,0.4c-0.1,0.3-0.1,0.6-0.2,0.9c0.1,0.3,0.6,0.4,0.8,0.2
		c1.7-1.3,3.4-2.6,5-4l0,0c0.8,0.7,1.8,1.1,2.7,1.5c1.1,0.5,2.2,1,3.3,1.5c0.4,0.1,0.9-0.3,0.7-0.7c-0.9-1.9-1.7-3.9-2.9-5.7
		c0.9-0.6,1.8-1.3,2.7-1.9c0.8-0.5,1.6-1,2-1.9c0.1-0.3-0.1-0.7-0.4-0.7c-2,0-4.1-0.3-6.1,0c-0.6-2-1.4-3.9-2.3-5.8
		c0.1-0.2,0.1-0.4-0.1-0.5c-0.4,0.1-0.6,0.4-0.9,0.7c-1,1.9-1.7,3.8-2.1,5.9l0,0l0,0c-0.2,0.2-0.5,0.2-0.8,0.2c-0.1,0-0.2,0-0.3,0
		c-0.3,0-0.5,0.1-0.7,0.1l0,0c-0.2,0-0.4,0.1-0.6,0.1c-1.1,0.1-2.2,0.2-3.3,0.4c-0.3,0.2-0.5,0.4-0.8,0.6c0,0.1,0,0.2,0,0.3
		c0-0.1,0,0,0,0c0.1,0,0.1,0,0.1,0c1.8,1.1,3.6,2.2,5.4,3.1h0.1c0,0.1,0,0.1,0,0.2l0,0c0.1,0.1,0.1,0.3,0,0.4c0,0.1-0.1,0.2-0.1,0.3
		l0,0C222.8,223.1,222.4,224.6,222,226.1 M227.2,222.9c-1.4,0.8-2.7,1.8-4.4,2.9c0.5-1.6,0.9-3.2,1.2-4.9c0.1-0.4-0.2-0.6-0.5-0.6
		c-0.1-0.2-0.1-0.3-0.3-0.4c-1.4-0.7-2.8-1.4-4.1-2.2c0.8-0.1,1.6-0.2,2.4-0.3c1-0.1,2.1-0.1,2.8-0.7c0.3,0,0.5-0.1,0.6-0.4
		c0.4-1.8,1-3.5,1.7-5.2c0.8,1.6,1.5,3.3,2.2,5c0.1,0.3,0.3,0.3,0.5,0.2c1.7,0.3,3.5,0.3,5.2,0.3c-0.5,0.5-1.2,0.9-1.7,1.3
		c-0.8,0.6-1.6,1.1-2.3,1.7c-0.2,0.2-0.1,0.6,0.1,0.7c0.5,1.6,1.2,3.2,2,4.7c-0.6-0.4-1.3-0.7-2-1c-0.9-0.5-1.9-1.1-2.9-1.4
		c-0.2-0.1-0.4,0.1-0.4,0.3H227.2"/>
	<path id="XMLID_527_" class="st0" d="M43.6,83.2c-0.4-0.1-0.9-0.1-0.7,0c-1.8-0.5-3.1-1.8-3.4-3.5c-0.4-1.9-0.2-3.7,0.5-5
		c-0.4-0.2-0.8-0.4-1.1-0.6c-1.6,0.7-3.6,0.4-5-0.9c-0.1-0.1-0.2-0.2-0.3-0.3c-0.7,0.1-1.4,0-2.1-0.3c-0.2-0.1-0.4-0.2-0.6-0.3
		c-1.5,0.6-3.2,0.4-4.6-0.7c-1.5-1.2-2.1-3-1.7-4.6c-0.2-0.1-0.5-0.3-0.7-0.5c-0.1-0.1-0.1-0.1-0.2-0.2c-1.5,0.6-3.1,0.4-4.5-0.7
		c-1-0.9-1.7-2.1-1.8-3.4c-1-0.3-1.9-1-2.5-1.8c-0.9-0.2-1.7-0.7-2.4-1.4c-1.4-1.6-1.8-3.8-0.9-5.6c0-0.1,0-0.2,0.1-0.3
		c-0.2-0.1-0.3-0.2-0.4-0.3c-1.5-1.2-2.1-2.9-1.8-4.5C9.2,48,9,47.6,8.8,47.2c-0.1-0.2-0.2-0.5-0.3-0.7c-0.7-0.4-1.3-0.9-1.8-1.5
		c-1.3-1.7-1.4-3.8-0.2-5.5l1.9-2.7c-0.2-0.2-0.4-0.3-0.5-0.5c-1.5-1.7-1.6-4-0.3-5.8c0.9-1.2,1.8-2.5,2.7-3.7
		c-0.1-0.3-0.2-0.6-0.3-0.9c-0.3-1.4,0-2.7,0.8-3.9c3-4.2,6.7-7.2,11.1-9.2c1.3-0.6,2.6-0.7,3.8-0.3l0.4-0.4
		c1.4-1.4,3.5-1.7,5.4-0.9c0.1,0,0.3,0.1,0.4,0.2c0.1-0.1,0.3-0.3,0.4-0.4c1.1-1.2,2.6-1.7,4.1-1.4c0.4,0,0.7,0.1,1.1,0.3
		c0.2-0.2,0.4-0.4,0.6-0.5c1.5-1.2,3.6-1.2,5.3-0.1l0.4-0.4c1.7-1.9,4.5-2.1,6.6-0.5c1.2,0.9,1.8,2.2,1.9,3.5
		c0.2,0.1,0.5,0.2,0.7,0.4c1.7-1.4,4.1-1.5,5.9,0c1,0.9,1.6,2.1,1.8,3.3c0.3,0.1,0.5,0.2,0.7,0.4c1.5,1.2,2.1,2.9,1.8,4.6
		c0.2,0.1,0.4,0.3,0.6,0.4c1.7,1.4,2.2,3.6,1.2,5.5c1.4,1.5,1.7,3.6,0.6,5.4l0.1,0.1c1.9,1.6,2.2,4,0.8,5.9l-0.4,0.6
		c1.3,1.5,1.5,3.6,0.3,5.2L63.9,47c1.5,1.5,1.6,3.9,0.3,5.7l-2.9,3.8l0,0c0.4,1.2,0.3,2.5-0.4,3.6c-2.9,4.7-6.1,9-9.8,13.3
		c0.1,0.1,0.1,0.1,0.1,0.2c0.2,0.7,0.3,1.4,0.2,2c0.1,0.3,0.2,0.7,0.3,1c0.1,1.2-0.2,2.4-1.1,3.3c-0.4,0.4-0.7,0.7-1.1,1
		c-0.2,0.1-0.4,0.3-0.5,0.4c-0.8,0.7-1.8,1.2-2.8,1.2C45.4,83,44.5,83.2,43.6,83.2 M46.3,63.7c0.7,0,1.3,0.3,2.1,0.4
		c0.8,0.7,1.2,1.7,1,2.7c2.3-2.8,4.4-5.7,6.3-8.7c-0.2-0.2-0.4-0.5-0.5-0.8c-0.3-0.9-0.2-1.9,0.4-2.6l0.7-1
		c-0.3-0.1-0.6-0.3-0.9-0.5c-1.1-0.9-1.2-2.6-0.4-3.7l2.6-3.6c-0.2,0-0.4-0.2-0.6-0.3c-1.2-0.9-1.4-2.6-0.5-3.8l0.8-1.1
		c-0.4-0.1-0.8-0.3-1.2-0.6c-1.1-1-1.3-2.6-0.5-3.8c1.3-1.8,2.6-3.6,3.8-5.4c-0.4-0.1-0.8-0.2-1.1-0.5c-0.4-0.3-0.7-0.8-0.9-1.3
		c-1,0.6-2.3,0.5-3.2-0.2c-1.2-0.9-1.4-2.5-0.6-3.7c0.7-1,1.3-2,2-3c-0.6,0-1.1-0.2-1.6-0.6c-0.6-0.5-1-1.2-1-2
		c-0.9,0.3-1.8,0.2-2.6-0.4c-0.5-0.3-0.8-0.8-1-1.3l-3.2,3.6c-1,1.1-2.6,1.2-3.8,0.3c-1.1-0.9-1.3-2.6-0.4-3.8
		c0.4-0.6,0.8-1.1,1.2-1.6c-0.5,0.1-1.2,0-1.7-0.3c-0.6-0.3-1.1-0.9-1.3-1.6c-0.4,0.2-0.7,0.5-1,0.8c-0.7,0.6-1.6,0.9-2.4,0.7
		c-0.5-0.1-1-0.4-1.4-0.8c-0.7,0.6-1.3,1.3-2,2c-0.8,0.8-2.1,1.1-3.1,0.6c-0.6-0.2-1.1-0.7-1.4-1.3l-1.1,1.1
		c-0.6,0.6-1.4,0.9-2.2,0.8c-0.7-0.1-1.3-0.4-1.8-0.9c-3.2,1.5-5.9,3.7-8.2,6.7c0.4,0.4,0.7,0.9,0.8,1.4c0.2,0.8,0,1.7-0.5,2.3
		c-1,1.4-2,2.8-3,4.2c0.8,0.1,1.5,0.4,2,1c0.8,1,0.8,2.4,0.1,3.4l-3.2,4.6c0.6,0.1,1.1,0.4,1.5,0.9c0.6,0.7,0.8,1.6,0.6,2.5
		c0.7,0.3,1.2,0.8,1.5,1.5c0.2,0.5,0.3,0.9,0.2,1.4c0.7-0.1,1.4,0.1,2,0.5c1.1,0.8,1.5,2.4,0.8,3.6c-0.7,1.1-1.2,2.2-1.7,3.1
		c0.4,0.1,0.7,0.2,1,0.4c0.4,0.2,0.7,0.5,0.9,0.9l7.2-7.9c1-1.1,2.7-1.2,3.8-0.3c1,0.9,1.3,2.3,0.7,3.4c0.8-0.3,1.8-0.1,2.5,0.5
		c0.5,0.5,0.8,1,0.9,1.6l0.2-0.2c1-1.1,2.6-1.2,3.8-0.3c1.2,0.9,1.4,2.6,0.5,3.8l-6.5,8.9h0.1c0.4,0.2,0.8,0.5,1.1,0.8l5.3-5.8
		c1-1.1,2.7-1.2,3.8-0.3c1.2,0.9,1.4,2.6,0.5,3.8l-2,2.7c0.4,0.1,0.8,0.3,1.1,0.6c0.1,0.1,0.1,0.1,0.2,0.2c0.8-1,1.6-1.9,2.4-2.8
		C44.7,64,45.5,63.7,46.3,63.7"/>
	<path id="XMLID_524_" class="st0" d="M42.7,83.7c-0.7,0-1.4-0.1-2-0.5c-1.2-0.6-2-1.5-2.4-2.7c-0.5-1.4-0.2-2.9,0.4-4.4
		c-12.6-3.6-22.6-10.7-28.4-20.3C3.9,45.3,3.7,32,9.7,21.8C16.9,9.5,33.4,5.5,46,7.9c14.7,2.8,22.1,17.6,21.7,30.8
		C67.3,51.1,62,66.3,52.4,73.9c0.2,0.2,0.4,0.4,0.6,0.6c0.9,0.9,1.3,2.1,1.1,3.4s-0.9,2.3-2,2.8c-0.6,0.3-1.3,0.6-1.9,0.9
		c-0.5,0.8-1.4,1.3-2.5,1.3c-0.1,0-0.3,0-0.5,0c-0.1,0-0.3,0.1-0.4,0.1c-0.3,0.1-0.5,0.1-0.8,0.1C45.1,83.4,43.9,83.7,42.7,83.7
		 M39.3,15.4c-8.3-0.1-17.6,3.1-21.8,9.7c-4.8,7.2-5,17.5-0.7,25.4l0,0c6.7,12.4,20.4,17.1,27.9,18.8c0.2,0,0.4,0,0.5,0.1
		c7.2-6,11.9-14.4,13.8-24.9c2-11-1.1-24.4-12.4-28C44.4,15.8,41.9,15.4,39.3,15.4"/>
	<path id="XMLID_164_" class="st6" d="M8.5,40.9c-1.2,1.7,1,3.6,2.6,2.6c0,0.1,0,0.1,0,0.1c-0.8,1.4,0.4,3,1.7,3.2
		c-0.2,0.2-0.3,0.5-0.5,0.7c-1.5,2,1.8,4.4,3.4,2.6c0.1-0.1,0.1-0.1,0.2-0.2c-0.8,1.4-1.5,2.8-2.2,4.2c-0.9,1.8,0.9,3.7,2.5,3.1
		c0.2,1.6,2.1,2.8,3.5,1.3c2.7-2.9,5.4-5.9,8.1-8.8c-2.6,3.5-5.1,6.9-7.7,10.3c-1.5,2,1.1,4.8,2.9,2.8c2.7-3.1,5.4-6.1,8.1-9.2
		c-2,2.5-4.1,5-6.1,7.5c-1.7,2,1.1,4.7,2.8,2.8c2.7-3.1,5.5-6.1,8.2-9.2c-3,4-5.9,8.1-8.9,12.1c-1.2,1.7,1.6,3.8,2.9,2.2
		c0.3-0.3,0.6-0.7,0.9-1.1c-0.1,1.5,1.6,2.8,2.9,1.4c2.2-2.3,4.3-4.7,6.5-7.1c-1.8,2.3-3.5,4.6-5.2,6.9c-1.2,1.6,1.3,3.2,2.6,2
		c0.6-0.6,1.3-1.3,2-1.9c-0.1,0.1-0.2,0.3-0.3,0.4c-1,1.5,1.4,3.2,2.5,1.9c1.4-1.7,2.8-3.4,4.3-5c-0.9,1.1-1.8,2.3-2.7,3.5
		c-0.9,1.3,0.3,2.9,1.5,2.4c-0.1,0.1-0.1,0.1-0.2,0.2c-0.4,0.5-0.3,1.1,0.1,1.5c-0.2,0.2-0.3,0.3-0.4,0.4c-0.3-0.1-0.7-0.2-1.1-0.1
		c-2,0.4-2.2,2.9-1.9,4.5c0.3,1.4,2.4,1.9,3.3,0.8c0.1-0.2,0.2-0.3,0.3-0.4c0.5,0.3,1.2,0.3,1.7-0.2s1.1-0.8,1.5-1.3
		c0.7-0.7,0.3-1.6-0.3-1.9c0.1,0,0.1-0.1,0.1-0.1c0.7-1.1,0-2.2-1-2.5c4.1-4.6,7.8-9.4,11.1-14.7c0.6-0.9-0.1-1.8-0.9-2
		c1.5-1.9,2.9-3.7,4.3-5.6c1.2-1.5-0.6-3.4-2.1-2.1c-0.9,0.8-1.8,1.6-2.7,2.4c2.4-3.1,4.7-6.3,7-9.4c1.1-1.5-1.4-3.3-2.5-1.9
		c-1,1.2-1.9,2.4-2.9,3.6c1.9-2.5,3.7-5,5.6-7.5c1.2-1.6-1.4-3.5-2.7-2.1c-1.2,1.3-2.5,2.7-3.7,4c1.8-2.6,3.6-5.1,5.3-7.7
		c1.2-1.8-1.5-3.7-2.9-2.2c-0.1,0.1-0.1,0.1-0.2,0.2c0.8-1,1.5-2.1,2.3-3.1c1.2-1.7-1.6-3.8-3-2.2c-1.1,1.3-2.3,2.5-3.4,3.8
		c1.4-2.1,2.8-4.2,4.2-6.3c1.2-1.8-1.6-4-3.1-2.3c-0.4,0.4-0.8,0.9-1.2,1.3c0.5-0.7,1.1-1.4,1.6-2.1c1.5-2.1-1.1-4.9-3-2.9
		c-0.8,0.8-1.5,1.7-2.3,2.5c1.1-1.9-1.9-4-3.4-2.3c-1.4,1.7-2.9,3.3-4.4,5c1.7-2.1,3.3-4.3,4.8-6.6c1.3-2-1.8-4.3-3.4-2.5
		c-1,1.1-1.9,2.1-2.9,3.2c0.4-1.6-1.7-3.4-3.2-2.3c-0.7,0.6-1.5,1.3-2.2,1.9c-0.5-1.1-2.1-1.8-3.3-0.6c-0.9,0.8-1.7,1.7-2.6,2.6
		c0-1.6-2.3-2.8-3.7-1.5c-0.6,0.6-1.3,1.3-1.9,1.9c-0.6-0.8-1.8-1.2-3-0.7c-4.1,1.8-7.3,4.6-9.9,8.3c-0.9,1.2-0.3,2.4,0.8,3
		c-1.3,1.8-2.6,3.7-3.9,5.5c-1.3,1.9,1.2,4,3,3.1C11.3,37,9.9,38.9,8.5,40.9"/>
	<path id="XMLID_160_" class="st5" d="M12.1,23.4C6.5,32.8,7,45.2,12.6,54.5c6.5,10.8,18.1,17.2,30.1,19.9c-1.1,1.8-3.2,5.4-1,6.4
		c1.1,0.5,2.9-0.2,4-0.5c0.1,0,0.1,0,0.2,0l0.1,0.1c0.4,0,0.7-0.1,1-0.1s0.5,0,0.8,0c-0.1-0.1-0.3-0.3-0.4-0.4
		c1.2-0.4,2.4-0.9,3.5-1.5c0.6-0.3,0.7-1.2,0.2-1.7c-1-1.1-2.2-2-3.5-2.7c11.5-6.2,17-23.3,17.3-35.2c0.4-12.4-6.3-25.5-19.4-28
		C33.6,8.5,18.5,12.5,12.1,23.4 M43.6,78.6c-0.1,0-0.3,0-0.4,0.1c0.2-0.5,0.4-1,0.6-1.5c0.3-0.7,0.6-1.3,1-2
		c0.3-0.1,0.6-0.2,0.9-0.3c1,0.6,1.9,1.4,2.8,2.2C46.9,77.7,45.3,78.3,43.6,78.6 M14.3,51.9c-4.7-8.7-4.7-20,0.7-28.2
		c6.3-9.6,21.7-13.1,32.3-9.7c13,4.1,16.4,19.2,14.2,31.1c-2,11.2-7.2,20.9-16.3,27.7c-0.1,0-0.1-0.1-0.2-0.1s-0.1,0-0.2,0
		c-0.1-0.3-0.4-0.6-0.8-0.7C32.1,69.3,20.3,62.9,14.3,51.9"/>
</g>
</svg>
