<?xml version="1.0" encoding="utf-8"?>
<!-- Generator: Adobe Illustrator 19.0.0, SVG Export Plug-In . SVG Version: 6.00 Build 0)  -->
<svg version="1.1" id="Capa_1" xmlns="http://www.w3.org/2000/svg" xmlns:xlink="http://www.w3.org/1999/xlink" x="0px" y="0px"
	 viewBox="0 0 1165.1 784.5" style="enable-background:new 0 0 1165.1 784.5;" xml:space="preserve">
<style type="text/css">
	.st0{fill:#F6F6F6;}
	.st1{fill:#F9EF6B;}
	.st2{fill:#FFCC67;}
	.st3{fill:#95C13D;}
	.st4{fill:#1D1D1B;}
	.st5{fill:#ED2387;}
	.st6{fill:#653614;}
	.st7{fill:#F37262;}
	.st8{fill:none;stroke:#1D1D1B;stroke-width:4.6662;stroke-miterlimit:10;}
	.st9{fill:none;stroke:#1D1D1B;stroke-width:5.6973;stroke-miterlimit:10;}
	.st10{fill:#E93943;}
	.st11{fill:#F077AA;}
	.st12{fill:#FFDE00;}
	.st13{fill:#60BAE8;}
	.st14{fill:#403C3D;}
</style>
<g id="XMLID_14_">
	<g id="XMLID_40_">
		<g id="XMLID_77_">
			<path id="XMLID_100_" class="st0" d="M765.7,621.1c-0.8-1.1-1.6-1.5-3-1.5c-1,0-1.9-0.1-2.9-0.2c-1.9-0.3-3.2,1-3.2,2.5
				c-0.4,0.5-0.6,1-0.6,1.6c-1.6,0.3-2.4,2.5-1.2,3.8c0.7,0.8,1.5,1.1,2.4,1.1c1.2,0.4,2.5,0.9,3.6,1.4c1.1,0.5,2.3,0.5,3.1-0.4
				c0.8-0.8,1.1-2.2,0.4-3.1c-0.3-0.5-0.7-0.9-1-1.4c0,0,0-0.1,0-0.1c0.9-0.1,1.6-0.5,2.2-1.4C766.1,622.8,766.1,621.7,765.7,621.1z
				"/>
			<path id="XMLID_99_" class="st0" d="M642.5,772.8c-0.3-1-1.3-1.3-2.1-0.9c-1.1-0.4-2.1-0.9-3.2-1.3c-0.8-0.3-1.5,0-1.9,0.5
				c-0.4-0.1-0.8-0.2-1.2-0.3c-1.4-0.3-2.6,1.9-1.1,2.5c0.7,0.3,1.4,0.7,2.1,1c0.2,0.2,0.5,0.3,0.7,0.5c0.5,0.6,1.2,1.1,1.9,1.5
				c0.9,0.4,1.8,0.1,2.3-0.4c0,0,0.1,0,0.1,0c1.2,0.4,2.4-0.7,2.4-1.8C642.7,773.7,642.6,773.3,642.5,772.8z"/>
			<path id="XMLID_98_" class="st0" d="M713.7,770.1c-1.4-0.8-3-0.7-4.6-0.8c-1.3-0.1-2,1.2-1.9,2.3c0,0,0,0,0,0
				c-1,0-1.8,0.9-1.8,1.8c-0.3,0-0.7-0.1-1-0.1c-0.9,0-1.5,1.3-0.8,1.9c1.5,1.2,3.3,1.7,5.2,2c1.3,0.2,2.3-0.8,2.1-1.9
				c0.9-0.2,1.4-0.9,1.4-1.7c0.3,0,0.7-0.1,1-0.2C714.7,772.9,715.2,770.8,713.7,770.1z"/>
			<polygon id="XMLID_97_" class="st1" points="625.3,700 634.1,644.3 707.8,642.2 720.7,703.6 			"/>
			<path id="XMLID_96_" class="st2" d="M588.3,589.1c0,0-3.8-60.8,56.7-69.6c49.5-7.2,98.5,24.2,94.9,62.9
				c-3.6,38.7-0.9,49.8-67.8,68.5c0,0-28-0.9-38.7-4.8C622.9,642.2,594,627.3,588.3,589.1z"/>
			<polygon id="XMLID_95_" class="st3" points="684.1,729.4 683.1,702.1 717.6,703.6 713,732.5 			"/>
			<polygon id="XMLID_94_" class="st3" points="664.5,729.9 665,704.4 635.6,700.5 636.1,728.1 			"/>
			<g id="XMLID_78_">
				<path id="XMLID_82_" class="st4" d="M627.5,666c-1.6,11.3-3,22.5-4.4,33.8c-0.1,1.1,1.1,2,2.1,2.1c3.2,0.1,6.3,0.2,9.5,0.3
					c-1.2,8.8-1.3,17.8-1.7,26.6c0,1.1,0.9,2,2,2c4.3-0.1,8.6-0.2,12.9-0.3c-2.4,13.4-3,27.4-3.1,41c-1.8-1.9-3.7-3.7-6.4-4.1
					c-2.6-0.5-5.6,0.4-6.7,3.1c-1.1,2.6,0.4,5.4,2.6,7c3.3,2.2,7.6,1.1,10.9-0.4c0.2-0.1,0.4-0.3,0.5-0.5c0.5,0.1,0.9-0.1,1.2-0.4
					c1-0.1,1.9-0.7,1.9-1.9c0-14.6,2.2-29.2,1.9-43.8c0.3,0,0.5,0,0.8,0l8.7-0.2c1.6,0,4.2,0.4,5.7-0.5c2.6-1.7,1.8-6.4,2-9.1
					c0.4-5.9,0.8-11.8,1.1-17.8c3.9,0,7.8,0.1,11.6,0.1c-0.6,4.3-0.1,8.8,0.1,13.1c0.1,3.4-1.1,10.4,1.5,12.9
					c2.5,2.5,9.1,1.6,12.2,1.8c0.7,0,1.4,0.1,2.1,0.1c0.3,13.8,1.8,27.5,2.4,41.3c0,1.1,0.8,1.7,1.7,1.8c-0.1,0.4,0,0.9,0.4,1.1
					c3.2,1.7,6.7,3.3,10.4,2.4c2.9-0.7,5.4-3,5.4-6.1c0-2.8-1.9-5.3-4.8-5.4c-4.2-0.2-6.1,3.5-9.2,5.4c-0.5-13.4-1-27.1-3.5-40.3
					c4.5,0.3,9.1,0.6,13.6,0.8c1.2,0.1,2-1,2.1-2.1c0.5-8.9,1.6-18.1,1.3-27c1.4,0,2.9,0,4.3-0.1c1.4,0,2.4-1.3,2-2.6
					c-3.4-13.1-6.8-26.1-10.3-39.2c9.4,0.1,20.5-4.6,27.8-9.5c7.7-5.1,14.3-12.6,16.9-21.5c2.6,0.9,5.5,0.6,7.7-1.2
					c2.9-2.3,3.5-6.6,1.6-9.7c-2.1-3.5-6.7-3.8-9.9-1.6c-3.5,2.5-4,6.9-2.7,10.7c0,0.1-0.1,0.1-0.1,0.2c-3.4,9-9.3,16-17.5,21
					c-4.6,2.8-9.6,4.7-14.8,6.1c-3.3,0.9-6.7,1.4-10,2.3c-1.3-4.8-2.5-9.6-3.8-14.3c-0.1-0.2-0.1-0.4-0.2-0.6
					c17.7-7.7,31.8-21.7,34.2-42.8c1.7-15.2-0.6-32.6-7.4-46.3c-6.5-13.3-18.3-22.7-31.9-28.1c-16.2-6.4-34.7-7.3-52-5.8
					c-14.6,1.3-28.5,5.6-39.8,15.3c-21.8,18.8-27.7,49.9-15.8,75.8c7,15.3,20.4,27.9,36.1,35c-1.1,5.8-2,11.6-2.9,17.5 M629.1,658.8
					c-8.7,16.5-23.7,24.9-42.2,23.5c-0.5-2.2-2.2-4.1-4.3-4.9c-3.4-1.3-6.9,0.6-8.1,3.9c-1.3,3.4,0.1,7.5,3.6,8.7
					c3.6,1.3,8.2-0.8,9.2-4.6c0,0,0,0,0,0c18.1,2.9,37.1-8,43.7-25 M584.4,682.9c-0.3,0.5-0.3,1.1,0,1.6c0,0,0,0.1-0.1,0.1
					c-0.8,2.1-3.2,3.3-5.4,2.5c-2.1-0.8-2.4-3.3-1.6-5.1C579,678.3,583.1,680,584.4,682.9z M637,775.6c-1.6-0.7-3.7-3.5-1.3-4.6
					c3-1.5,5.8,2,7.9,4.2C641.5,775.6,639.1,776.4,637,775.6z M707.1,771.9c1.4-1.3,5.5-4.7,6.3-0.9c0.5,2.7-2.4,4.1-4.6,4.2
					c-1.6,0.1-3.1-0.4-4.7-0.9C705.2,773.7,706.1,772.9,707.1,771.9z M603.7,619.5c-15.5-22.6-15.5-52.9,2.2-74.3
					c19-23.1,52.8-25.5,80.4-20.2c13.8,2.7,27.4,8.7,37,19.2c10.2,11.2,13.8,26.5,14.7,41.3c1.1,16.9-3.2,32.4-16.1,44.1
					c-12.8,11.5-29.9,16.1-46.8,17c-0.7,0-1.2,0.4-1.5,0.9c-12.6,1.2-24.9,1.1-37.1-3.1C623.4,639.9,611.7,631.2,603.7,619.5z
					 M664,715.6c-0.1,2.3,0.1,5-0.4,7.2c-0.7,2.7-0.4,3-3.5,3.5c-3.7,0.6-7.9,0.2-11.6,0.3l-11.5,0.3c0.4-8.1,0.9-16.3,0.6-24.5
					c9.1,0.3,18.2,0.4,27.3,0.5C664.5,707.1,664.3,711.3,664,715.6z M710.8,727.7c-3.9-0.2-7.8-0.4-11.7-0.7
					c-3.8-0.2-10.3,0.7-13-1.9c-2.6-2.5-1.6-9.4-1.7-13.1c-0.1-3-0.1-6.1-0.7-9.1c9.5,0,19,0,28.5-0.1
					C711.1,711,711.1,719.5,710.8,727.7z M717.7,698.7c-30.1,0.4-60.2,0.2-90.3-0.8c2.1-16.9,4.4-33.8,5.6-50.8
					c13.2,5.4,27.8,7,41.5,3.1c0.2,0.1,0.5,0.1,0.7,0.1c9.6-0.5,19.4-2.5,28.4-5.9c0,0,0,0.1,0,0.1
					C708.3,662.6,713,680.6,717.7,698.7z M762.2,626.4c-1.6,1.1-3.5,1.1-5.3,0.6c-0.9-2.4-0.7-5.4,1.6-6.9c1.8-1.2,4.2-0.8,5,1.3
					C764.3,623.2,763.7,625.3,762.2,626.4z"/>
				<path id="XMLID_81_" class="st4" d="M702.9,613.4c-5.9,4.3-11.1,8.7-17.8,11.7c-6.9,3-14.4,4.8-21.9,4.9
					c-7.1,0.2-14.1-1-20.8-3.3c-6.5-2.3-11.9-5.9-17.6-9.5c0-0.1,0-0.1-0.1-0.1c-0.7-0.5-1.4-0.9-2.2-1.3c-1.2-0.6-2.3,0.8-1.4,1.9
					c9.6,11.4,27.8,16.3,42.2,16c14.4-0.3,32.3-6.2,41.7-17.7C706,614.7,704.5,612.3,702.9,613.4z"/>
				<path id="XMLID_80_" class="st4" d="M655.5,592.3c-1.6-3.1-6.5-3.7-8.3-0.5c-0.1,0.2-0.2,0.4-0.3,0.6c-0.4,0.4-0.7,0.9-0.8,1.5
					c-0.5,2,0.8,4.1,2.6,4.9C652.6,600.8,657.5,596.4,655.5,592.3z"/>
				<path id="XMLID_79_" class="st4" d="M682.3,590.5c-1.2-3.1-5.5-3.8-7.6-1.3c-0.2,0.3-0.4,0.6-0.5,0.9c-1,1.1-1.3,2.6-0.8,4.1
					c0.7,1.7,2.4,2.4,4.1,2.5C680.8,596.9,683.5,593.8,682.3,590.5z"/>
			</g>
		</g>
		<path id="XMLID_76_" class="st5" d="M459.6,641.3c0,0,23.9,14.5,70.5-3.6l19.7,92.2c0,0-20.5,14.3-58.6,15.3
			c-38.1,1-53.2-15-53.2-15L459.6,641.3z"/>
		<path id="XMLID_75_" class="st6" d="M419.4,573.6l3.6-9.9c0,0-16.9-24.1-33-15.2c-0.1,0-27.9,3.3-22.2,32.5
			c2.9,15.1,14.6,10.8,16.6,12c2,1.2,9-2.5,9-2.5l3.1-5.5l1.9-5.2l1.1-4.2l2.4,1L419.4,573.6z"/>
		<path id="XMLID_74_" class="st2" d="M422.7,566.8c0,0,67,31.5,145.8,9.9c0.5,0.9,3.1,68.7-78.4,72.6
			C408.6,653.3,418.8,568.7,422.7,566.8z"/>
		<path id="XMLID_73_" class="st7" d="M418.9,581.7l10.9-27.6c0,0-8.7-12.5-12.3-4.7c-3.6,7.8,4.5,11.2,4.5,11.2s-13.7-0.6-7.1,7.2
			c1.4,1.6-12.1-2.7-12.6,1.7c-0.5,4.3-2.1,9,3.9,9.5C412.2,579.6,418.9,581.7,418.9,581.7z"/>
		<path id="XMLID_72_" class="st6" d="M420.9,569.7c0,0,23.5-52.6,80-43.1c52.5,8.8,54.8,24,59.4,32.6c4.6,8.6,5.4,19.8,5.4,19.8
			S510.7,598.2,420.9,569.7z"/>
		<path id="XMLID_71_" class="st6" d="M569.4,569.2l7.6,19.9c0,0-2.9,22.3-2.7,28c0.1,5.7,16.4,17.2,24.2,7
			c7.7-10.2,19.3-25.5,13.7-49.3C606.6,550.9,579.4,553.6,569.4,569.2z"/>
		<polygon id="XMLID_70_" class="st7" points="562.2,558.7 575.1,557.1 576.9,562 573.4,567.1 573.1,568.4 575.2,572.4 573.6,575.8 
			577,578 579.4,581.6 579.9,585.9 575.6,587.4 570.6,588.2 566.9,588.2 565.8,571 		"/>
		<g id="XMLID_43_">
			<path id="XMLID_69_" class="st0" d="M513.2,768.8c0.3-2.9,3.9-3.6,6.2-3.1c0.6,0.1,1.1,0.4,1.4,0.8c1.1-0.3,2.2-0.6,3.3-0.8
				c1.6-0.3,2.5,1.4,1.7,2.4c0.4,0.2,0.7,0.5,0.8,0.9c0.2,0.6,0,1.3-0.5,1.7c-0.1,0.8-0.5,1.6-1.2,2c-2,1.3-6.1,1.5-6.7-1.5
				c-0.4,0.2-0.8,0.4-1.2,0.5c0,0,0,0,0,0c-0.8,0.2-1.5,0-2-0.4C513.7,771.4,513.1,769.9,513.2,768.8z"/>
			<path id="XMLID_68_" class="st0" d="M456.2,768.8c0.2,0.2,0.4,0.5,0.6,0.8c0,0,0,0,0,0c1.1,0,2,0.7,2.4,1.6c1.1-0.1,2.2,0.2,3,1
				c0.7,0.7,0.5,1.6-0.2,2.1c-1.2,0.9-2.9,0.9-4.2,1.7c-1.3,0.8-2.9,0-3.3-1.3c-0.3,0-0.6,0-0.9,0.1c-1.1,0.1-2-0.6-2.4-1.5
				c0,0-0.1,0-0.1,0c-1.3,0.4-3.2-0.6-3.1-2.2C448.4,767,453.5,766.4,456.2,768.8z"/>
			<path id="XMLID_67_" class="st0" d="M393.2,648.3c0.1-0.1,0.2-0.2,0.3-0.3c0-0.1,0-0.2,0-0.2c-0.2-2.9,2.6-4.5,5-5.5
				c0.8-0.3,1.5-0.2,2.1,0.1c0.4-0.3,0.8-0.7,1.2-1c1.4-1.1,3.2-0.1,3.8,1.4c1.5,0,2.8,1.6,2.3,3.2c1.5,0,2.9,1.4,2,2.9
				c-0.4,0.7-0.9,1.4-1.2,2.1c-0.1,0.2-0.5,1.2-0.6,1.4c0,0.3-0.1,0.5-0.3,0.6c0,0-0.1,0.1-0.1,0.1c-0.6,0.5-1.4,0.6-2,0.1
				c-0.2-0.2-0.4-0.4-0.5-0.6c-0.7,0.4-1.3,0.9-2,1.3c-1.5,1-3.3-0.2-3.4-1.8c-0.6,0-1.2-0.3-1.6-0.7c-0.2,0.2-0.5,0.4-0.7,0.6
				C394.5,654.3,391.1,651.1,393.2,648.3z"/>
			<g id="XMLID_44_">
				<path id="XMLID_48_" class="st4" d="M537.6,664.5c-0.2-0.1-0.5-0.1-0.7-0.2c-1.9-7.5-4.1-15-6.7-22.2c-0.1-0.2-0.2-0.4-0.3-0.5
					c15.8-8.1,28.7-21.4,34.5-38.6c1.3-4,2.3-8.1,2.8-12.2c2.4,0.8,5.5,0.7,7.5,0.2c1.1-0.3,2.2-0.8,3.1-1.4
					c-3.7,12.2-12.3,33.3,5,38.5c14.5,4.3,25.7-9.9,30.3-21.8c5.1-13.4,5.6-33.8-6.1-44.1c-5-4.4-11.8-6.5-18.3-5.6
					c-3.3,0.5-6.5,1.7-9.4,3.5c-0.2,0.1-0.9,0.7-1.7,1.4c0-0.1,0-0.3-0.1-0.5c-0.5-2.5-2.5-4.4-5.1-4.5c-2.1-0.1-4.3,0.7-6.2,1.2
					c-1.2,0.3-2.5,0.7-3.7,1.1c-5.1-11.3-14-20.8-26.3-26.5c-27.2-12.6-65.6-13.3-91.1,3.7c-5.8,3.9-10.7,8.7-14.8,14.2
					c-3.3-4.6-10.1-8.9-14.1-3.8c-1,1.2-1.5,2.5-1.7,3.7c-15.8-14.2-45.9-2.2-49.3,19.3c-1.8,11.5,4.8,23.7,16.9,25.8
					c5.1,0.9,10.3-0.6,14.3-3.9c1.9-1.6,3.5-3.7,4.6-6c1.1-2.3,0.8-5.5,1.8-7.9c3.9,3.4,10.9,5.1,15.1,4.3
					c-1.1,9.6-0.1,19.4,3.3,28.6c6.1,16.4,19.4,29.1,35.3,35.7c0,0.1,0,0.1,0,0.1c-0.7,3.2-1.5,6.3-2.2,9.5
					c-0.3,0.1-0.5,0.3-0.5,0.7c0.1,2.3-10.7,4.8-12.6,5.2c-4.2,0.9-8.6,1.2-12.9,0.5c-3.8-0.6-7.6-1.8-10.9-3.9
					c-3-1.9-4.7-4.9-7.2-7.2c0.1-0.1,0.2-0.2,0.2-0.4c2.2-4.6-0.6-9.8-5.4-11.1c-4.6-1.2-10.2,0.8-12.5,5.1
					c-2.4,4.4,0.1,9.6,4.6,11.3c3.9,1.5,7.8,0,10.6-2.7c2.4,8.4,14.4,12.5,22.1,13.1c5.6,0.5,11.4-0.4,16.6-2.4
					c1.8-0.7,4.6-1.6,6.7-3c-4.6,19.7-9.2,39.5-13.8,59.2c-0.8,3.5-2.9,8.4-1.7,12c0.9,2.7,3.8,4.5,6.1,5.9c7,4.4,15.3,6.6,23.4,8
					c-2,7.7-3.3,15.7-4.3,23.7c-3.1-2.2-7.5-4.4-11.2-4c-3.2,0.4-6,3.3-5.5,6.7c0.6,3.6,4.8,4.8,7.8,5c4,0.3,7.4-0.9,10.3-3.4
					c0.9,0.2,1.8-0.2,2-1.4c1.1-8.7,2.5-17.4,3.5-26.1c13,2.1,26.4,2.2,39.4,0.3c0.8,7.7,1.5,15.4,2.6,23.1c0.1,0.9,0.7,1.5,1.4,1.7
					c-0.1,0.6,0.2,1.4,0.9,1.6c3.3,1.1,17.6,2.8,15-4.5c-1.7-4.8-9.3-3.2-13.5-0.7c-1-7.2-2.2-14.4-3.3-21.6
					c5.2-0.9,10.3-2,15.4-3.5c4.7-1.4,9.3-3,13.7-4.8c2.8-1.2,6.6-2.3,8.1-5.2c1.7-3.3-0.1-8.3-0.7-11.6c-0.9-5.2-1.9-10.4-2.9-15.6
					c-2.5-12.7-4.8-25.8-7.9-38.6c0,0,0,0,0,0 M575.2,575.9c0.3-0.6,0.5-1.2,0.5-1.9c0.1-1.9-1.1-3.6-2.6-4.6
					c0.7-0.2,1.1-0.7,1.8-1.3c0.3-0.2,0.5-0.4,0.7-0.7c2.1-2,4-3.9,6.6-5.2c5.9-2.9,12.9-2.9,18.6,0.4c12,6.9,13.1,24.1,10.3,36.2
					c-2.5,11-10.7,26.7-24,26.1c-18.9-0.8-8.4-25.5-5.4-35.7c0.4-1.4-0.7-2.3-1.9-2.3c0.3-0.7,0.6-1.4,0.7-2.2
					C581.2,580.3,578.7,577.3,575.2,575.9z M567.4,587.2c0.2-3.1,0.2-6.1-0.1-9.1c1.6,0.6,3.3,0.9,4.9,0.4c0.3-0.1,0.5-0.2,0.8-0.3
					c0.3,0.1,0.6,0.3,0.9,0.4c2,1.2,3.7,3.7,3.2,6.1c-0.6,2.4-3,3.2-5.2,3.3C570.3,587.9,568.8,587.4,567.4,587.2z M566.4,571.4
					c2.2,0.2,5.8-0.7,6.3,2.2c0.1,0.7,0,1.2-0.3,1.5c-1.8-0.3-3.6-0.2-5.3,0.2C566.8,574,566.6,572.7,566.4,571.4z M563.5,561.6
					c4.1-1.4,10.1-3.7,10.9,0.2c0.2,1.1,0.1,2-0.2,2.7c-0.7,0.7-1.4,1.5-1.7,2c-1,0.7-2.3,1.3-3.5,1.8c-1.1,0-2.2,0.1-3.1,0.5
					C565.2,566.4,564.4,564,563.5,561.6z M517.2,770.9c0.6-0.3,1.3-0.6,2-0.9c0.8-0.3,1.7-0.5,2.5-0.7c0.3-0.1,3.6-0.5,3.6,0.4
					C525.3,771,520.6,771,517.2,770.9z M461.9,773.1c-1.7,0.7-3.7,1.1-5.4,1.2c-1.2,0.1-2.4,0-3.6-0.3c-1.1-0.2-3.7-1.1-3.6-2.7
					C449.7,766.6,458.7,772.2,461.9,773.1z M406.7,648.9c-0.2,0.4-0.2,0.7-0.1,1c-1.9,1.8-4.4,3.4-7.2,3c-2.8-0.4-5.2-3-4.1-5.9
					C397.5,641.3,409.6,642.2,406.7,648.9z M428.1,553.1c-1.5,2.3-2.8,4.6-4,7c-3.1-2.6-8.3-6-6.2-10.7
					C420.3,544,425.3,549.9,428.1,553.1z M562.8,577.7c-0.8,0-1.6,0.4-2.4,0.8c-0.6,0.3-1.2,0.6-1.8,0.9
					c-10.6,0.6-21.2,3.1-31.8,3.7c-11.2,0.7-22.5,0.6-33.7-0.2c-23.3-1.7-45.6-7.3-67.8-14.3c5.7-15.4,17.6-28.3,33.5-34.7
					c13.5-5.4,28.4-6.6,42.8-5.4c14.5,1.3,29.8,4.8,41.8,13.4C555.3,550.4,561.6,563.7,562.8,577.7z M460.3,647.7
					c8.2,2.8,17,3.9,25.7,3.1c14.1,1,28.7-1.8,41.6-8c3.1,20.3,8.7,40.3,12.7,60.4c0.9,4.5,1.8,9.1,2.6,13.6
					c0.7,3.6,3.7,12.4,0.8,15.1c-2.8,2.6-9.1,3.9-12.7,5.1c-4,1.4-8.1,2.5-12.3,3.5c-17.4,4-35.6,4.3-53.1,0.8
					c-3.9-0.8-7.9-1.7-11.6-3.1c-3.1-1.1-10.1-3.6-11.8-6.5c-2.1-3.7,1.3-11.5,2.2-15.4c1.1-4.6,2.1-9.2,3.2-13.8
					C451.9,684.3,456.1,666,460.3,647.7z M424.1,572c21.2,8.6,44.5,12.8,67.2,14.6c12.1,0.9,24.4,1,36.5,0.2
					c10.9-0.7,23.5-1.2,33.7-5.1c0.4-0.2,0.7-0.5,0.8-0.8c0.2-0.1,0.4-0.1,0.6-0.2c0.4,10.8-2.2,21.9-7.5,31.3
					c-13.2,23.4-39.9,33.6-65.5,35.8c-0.2-0.9-0.9-1.7-2.1-1.5c-30,3.7-60.8-17.2-65.6-47.7C420.9,589.5,421.6,580.4,424.1,572z
					 M419.5,568.5c-0.6-0.2-1.2-0.8-1.7-1.2c-1.1-0.9-2.3-2.1-2.2-3.6c0.3-3.1,3.6-2.7,6.2-1.9c0.3,0.2,0.7,0.4,1,0.6
					c0,0,0.1,0,0.1,0c-0.9,2-1.7,4.1-2.4,6.2c-0.1,0-0.2,0.1-0.3,0.1c0,0,0,0-0.1,0C419.9,568.7,419.7,568.7,419.5,568.5z
					 M404.4,571.9c-0.4-1.5,0.2-2.4,1.7-2.6c1.5-0.5,3.2-0.5,4.8-0.3c2,0.3,3.9,1,5.8,1.8c0.2,0.2,0.4,0.3,0.6,0.4
					c0.6,0.4,1.4,0.7,2.2,0.8c-0.6,2-1,4.1-1.4,6.1c-1.9-0.4-3.9-0.2-5.8-0.6c-2.4-0.5-4.8-1.4-6.8-2.8
					C404,574.3,403.7,573.4,404.4,571.9z M369.3,568c5.2-20,32.7-27.1,46.3-12.2c0.6,0.9,1.3,1.8,2.1,2.7c-0.5,0.1-1,0.2-1.5,0.3
					c-2.5,0.9-4.2,3.2-3.9,5.9c0.1,0.6,0.2,1.2,0.5,1.8c-2-0.6-4-0.9-6.1-0.6c-3.2,0.4-6.7,2.1-7.1,5.6c-0.1,0.9,0.1,1.8,0.4,2.7
					l0,0c-2.2,2.8-1.5,6-2.9,9.2c-2,4.6-6.8,7.8-11.8,7.9C373.1,591.8,366.6,578.6,369.3,568z M535.8,666.2
					c3.8,8.1,9.4,15.6,17.5,19.9c6,3.2,14.7,4.9,20.9,1.3c1.2,3.5,5.2,5.9,9,4.9c4.7-1.2,7.3-6.4,5.7-10.9
					c-1.6-4.4-6.5-7.2-11.1-5.8c-3.6,1.1-5.9,5.2-4.5,8.7c-6.8,1.4-12.6,1.5-19.1-2.2c-7.2-4.1-11.9-11.3-16.6-17.9 M585.6,682.4
					c1,2.6-0.3,5.7-3,6.6c-2.7,0.9-5.1-1.2-5.4-3.8c-0.1-1-0.9-1.5-1.7-1.5C574.1,678,583.4,677,585.6,682.4z"/>
				<path id="XMLID_47_" class="st4" d="M456,616.2c9.9,8.8,21.4,14.7,35,14.6c14-0.1,26.2-6.6,36.3-15.8c1.6-1.5,3.7,0.6,2.4,2.3
					c-18,23.4-57.2,24-76.8,2.2C451.1,617.3,453.8,614.2,456,616.2z"/>
				<path id="XMLID_46_" class="st4" d="M504.3,598.2c0.4-0.3,0.9-0.4,1.4-0.1c2.5,1.1,3.7,4.7,1.7,6.8c-2.1,2.2-6.2,1.9-7.2-1.2
					C499.4,601,501.4,597.9,504.3,598.2z"/>
				<path id="XMLID_45_" class="st4" d="M476.1,602.8c1-2.2,4.1-3.3,5.8-1.5c1.7,0.5,2.5,2.5,2.2,4.2c-0.4,2.3-2.9,3.6-5.1,3
					C476.5,607.9,475,605.3,476.1,602.8z"/>
			</g>
		</g>
		<path id="XMLID_42_" class="st8" d="M1077.9,157.7c-2.9,131.4-66,113.5-177.8,195.5c-99,74.2-139.8,137.4-137.5,264.7"/>
		<path id="XMLID_41_" class="st9" d="M82.8,206c21.3,90.1,75.2,103.5,136.9,160.6c42.9,38.6,39.3,97.1,51.4,150.3
			c16.2,75.6,62,94.3,125.1,130.6"/>
	</g>
	<g id="XMLID_34_">
		<path id="XMLID_39_" class="st10" d="M1161.4,75.1c-2.9-4.3-5.9-8.6-8.8-12.8c3.9,1.9,9.4-2.4,6.6-6.7c-2.7-4-5.5-8-8.4-12
			c2.3-1.2,3.7-3.8,1.8-6.5c-5.5-8-12.4-14.2-21.3-18.3c-2.6-1.2-5.2-0.3-6.6,1.5c-1.4-1.4-2.7-2.8-4.1-4.1c-2.9-2.9-8.1-0.3-8,3.1
			c-1.9-1.9-3.7-3.9-5.6-5.8c-2.6-2.6-5.9-1.3-7.2,1.2c-1.5-1.4-3.1-2.8-4.8-4.1c-3.1-2.5-7.9,1.4-7,4.9c-2-2.3-4.1-4.6-6.1-7
			c-3.4-3.9-10.2,1-7.4,5.4c3.2,5,6.7,9.8,10.2,14.5c-3.1-3.7-6.3-7.3-9.4-11c-3.2-3.8-9.8,0.7-7.5,5c-1.6-1.8-3.3-3.7-4.9-5.5
			c-4-4.5-9.9,1.7-6.5,6.2c1.1,1.5,2.2,3,3.3,4.6c-0.8-1-1.7-1.9-2.5-2.9c-3.1-3.6-9.4,0.9-6.8,5c2.9,4.6,5.9,9.2,8.9,13.7
			c-2.4-2.8-4.9-5.6-7.3-8.4c-3-3.4-9.2,1-6.5,4.7c1.6,2.3,3.2,4.5,4.9,6.8c-0.1-0.1-0.2-0.3-0.4-0.4c-2.9-3.4-8.9,0.8-6.4,4.7
			c3.7,5.7,7.4,11.2,11.2,16.8c-2.6-3-5.2-5.9-7.8-8.9c-2.7-3.1-8.5,0.9-6,4.4c3.9,5.5,7.9,10.9,11.8,16.3c-2-2.6-4.1-5.2-6.1-7.8
			c-2.4-3.1-7.8,0.9-5.5,4c4.9,6.8,9.8,13.7,14.8,20.5c-1.9-1.8-3.8-3.6-5.7-5.4c-3.1-2.9-7.1,1.2-4.7,4.4c3,4.1,6,8.2,9.1,12.2
			c-1.8,0.5-3.2,2.4-2,4.4c6.9,11.5,14.8,22.2,23.6,32.3c-2.1,0.7-3.7,3-2.3,5.5c0.1,0.1,0.1,0.2,0.1,0.3c-1.4,0.7-2.1,2.5-0.7,4.1
			c1,1.1,2.1,1.8,3.1,2.8c1.1,1.1,2.6,1.2,3.7,0.6c0.2,0.3,0.4,0.5,0.7,0.8c2,2.4,6.5,1.4,7.2-1.7c0.7-3.6,0.5-8.8-3.9-9.8
			c-0.9-0.2-1.7-0.1-2.4,0.2c-0.3-0.3-0.5-0.5-0.8-0.8c0.8-0.8,1.1-2.2,0.2-3.3c-0.1-0.1-0.2-0.3-0.4-0.5c2.6,1.1,5.3-2.4,3.4-5.1
			c-1.9-2.6-3.8-5.2-5.7-7.8c3.1,3.6,6.2,7.2,9.2,10.9c2.4,3,7.7-0.8,5.4-4c-0.2-0.3-0.4-0.5-0.6-0.8c1.4,1.4,2.9,2.8,4.3,4.1
			c2.8,2.5,8.2-0.7,5.7-4.2c-3.7-5-7.3-10.1-11-15.2c4.6,5.2,9.2,10.5,13.8,15.7c2.7,3,6.5,0.3,6.4-2.9c0.7,0.8,1.3,1.7,2,2.5
			c2.7,3.5,8.9-0.9,6.3-4.6c-6.3-8.9-12.6-17.7-18.8-26.6c5.8,6.7,11.7,13.5,17.5,20.2c3.7,4.3,9.7-1.7,6.3-5.9
			c-4.4-5.4-8.6-10.9-12.9-16.4c5.7,6.7,11.4,13.5,17.2,20.2c3.8,4.4,9.6-1.6,6.4-6.1c-5.5-7.5-10.9-15-16.4-22.5
			c5.7,6.5,11.5,12.9,17.2,19.4c3,3.3,7.2,0.7,7.7-2.7c3.4,1.4,7.3-2.7,5.6-6.5c-1.4-3.1-3-6.2-4.7-9.2c0.1,0.2,0.3,0.3,0.4,0.5
			c3.4,4,10.7-1.1,7.5-5.5c-0.4-0.5-0.7-1-1.1-1.5c2.9-0.4,5.5-3.8,3.7-6.9c0,0-0.1-0.1-0.1-0.1C1159.1,82.9,1164,78.7,1161.4,75.1z
			"/>
		<path id="XMLID_35_" class="st4" d="M1154.1,37c-13.6-23.9-46.1-32.9-72-28.4c-28.4,4.9-43.3,33.1-43,60
			c0.3,25.9,11.6,63.1,36.4,76.8c-2.8,1.5-5.4,3.5-7.7,5.7c-1,1-1,3,0.4,3.8c2.4,1.3,5,2.4,7.5,3.3c-0.3,0.3-0.6,0.6-0.9,1
			c0.6,0,1.1,0,1.8,0c0.7,0,1.4,0.2,2.1,0.3c0.1-0.1,0.2-0.2,0.2-0.3c0.1,0,0.2,0.1,0.4,0.1c2.5,0.7,6.2,2.3,8.7,1.1
			c4.8-2.1,0.4-9.9-1.9-13.9c26-5.4,51.5-19,65.9-42.1C1164.4,84.5,1165.9,57.7,1154.1,37z M1083.9,155.6c-3.6-0.8-7.1-2-10.5-3.5
			c1.9-1.8,3.9-3.3,6.1-4.8c0.6,0.3,1.3,0.5,1.9,0.8c0.8,1.5,1.5,2.9,2.2,4.5c0.5,1.1,0.9,2.1,1.3,3.2
			C1084.6,155.7,1084.3,155.6,1083.9,155.6z M1148.5,98.7c-13.4,23.7-39.2,37.2-65.1,42.6c-1,0.2-1.6,0.8-1.9,1.4
			c-0.1,0-0.3,0-0.4,0.1c-0.2,0.1-0.3,0.1-0.5,0.2c-19.5-15-30.4-36.3-34.5-60.6c-4.3-25.9,3.5-58.5,31.9-67
			c23.1-6.9,56.3,1.1,69.7,22.1C1159.1,55.6,1158.9,80.2,1148.5,98.7z"/>
	</g>
	<g id="XMLID_15_">
		<path id="XMLID_33_" class="st11" d="M80.2,189.9c-1.5-0.8-3.1-1.6-4.7-2.3c1.2-1,1.4-3-0.5-3.5c-1.2-0.3-2.3-0.7-3.4-1
			c1.6,0.2,3.1,0.4,4.7,0.6c2.8,0.4,3.6-3.7,1.1-4.7c-3-1.2-5.9-2.4-8.9-3.6c2,0,4.1,0.1,6.1,0.1c3,0.1,3.6-4.5,0.5-4.7
			c-4.9-0.4-9.6-1.2-14.1-2.6c3.7,0.2,7.5,0.3,11.2,0.5c3.2,0.1,3.5-4.1,0.5-4.8c-5.5-1.2-11.7-2-17.6-3.3
			c5.5,0.6,11.1,1.5,16.7,0.8c2.8-0.3,2.4-4.3-0.2-4.8c-3.2-0.6-6.3-1.2-9.5-1.9c2-0.8,2.6-3.7,0.1-4.8c-2.2-0.9-4.4-1.8-6.6-2.8
			c1.4-0.9,1.9-3.4,0.2-4.4l-4.4-2.8c-2.1-1.4-4.3,0.7-4.2,2.5c-1,0.2-2,0.5-3,0.9c-1.5,0.5-1.7,2.1-1.2,3.3
			c-3.4-0.3-6.8-0.5-10.2-0.6c-2.9-0.1-4.1,3.9-1.2,5c4.2,1.6,8.5,3,12.8,4.3c-1.3,0-2.7,0.1-4.1,0.3c-1.9,0.3-2.8,3.2-1,4.2
			c2.2,1.3,4.6,2.3,7.1,3.2c-1.4,0.9-2,3-0.2,4c2.7,1.5,5.5,2.8,8.3,3.9c-1.4,0.9-1.6,3.3,0.3,4.1c1.7,0.7,3.4,1.4,5.1,2.1
			c-1.7-0.2-3.4-0.4-5.1-0.6c-2.6-0.3-3.1,3.2-1,4.3c2.2,1.1,4.4,2,6.7,2.9c-0.9,1.1-0.7,3,0.8,3.4c2,0.5,3.9,1.1,5.7,1.8
			c-1.4,0.8-1.5,3.5,0.3,4.3c3.8,1.7,7.7,3.2,11.8,4.5c1.4,0.4,2.6-1.5,1.3-2.4c-0.5-0.4-1.1-0.7-1.6-1c0.3,0,0.6,0,1,0
			C82.4,194.3,81.9,190.8,80.2,189.9z"/>
		<path id="XMLID_32_" class="st11" d="M123.3,126.5c-8.8-4.8-17.7-9.6-26.6-14.3c6.1,2.5,12.1,5.2,18.1,7.9
			c2.8,1.2,5.3-3.3,2.5-4.8c-7.6-4.1-15.1-8.3-22.7-12.5c1.9,0.8,3.8,1.5,5.6,2.3c2.8,1.2,5.3-3.2,2.6-4.8
			C96.4,96.5,90,92.8,83.6,89c1.7,0.4,3.3,0.9,5,1.3c3.3,0.8,5.2-3.7,1.9-5c-4.2-1.8-8.2-3.7-12.1-5.9c0.6,0.1,1.2,0.3,1.9,0.4
			c3.4,0.8,5.3-3.7,1.9-5.1c-4.1-1.8-8-3.8-11.9-6c0.5,0.1,1,0.2,1.5,0.3c2.5,0.6,4.9-2.7,2.3-4.4c-2.1-1.3-4.2-2.7-6.4-4
			c1.6-0.7,2.5-3,0.6-4.1c-2.7-1.6-5.4-3.3-8.1-4.9c-2.6-1.6-5.3,2.3-2.7,3.9c0.4,0.3,0.9,0.5,1.3,0.8c-1.6,0.8-2.3,3-0.5,4.1
			c1.6,1,3.2,2.1,4.8,3.1c-0.6,0.1-1.2,0.1-1.8,0.2c-2.1,0.3-2.7,3.2-1,4.4c1.6,1.1,3.1,2.2,4.7,3.2c0,0-0.1,0-0.1,0
			c-2.8-0.4-4.1,3.4-1.9,5c1.7,1.2,3.4,2.3,5.2,3.5c-0.5-0.1-1-0.2-1.4-0.4c-2.7-0.7-5.3,3-2.5,4.7c3.3,2,6.6,3.9,9.9,5.9
			c-2.1-0.6-4.2-1.3-6.4-1.8c-2.8-0.7-5.5,3.2-2.6,4.8c4.2,2.3,8.5,4.6,12.7,7c-3.1-0.9-6.1-1.7-9.2-2.4c0,0,0,0,0,0l0,0
			c-0.2,0-0.4-0.1-0.7-0.2c-2.6-0.6-3.9,3.4-1.8,4.7c1.2,0.8,2.5,1.5,3.8,2.3c-0.3-0.1-0.5-0.2-0.8-0.3c-1-0.4-1.9,0.9-1.2,1.7
			c2.4,2.9,4.8,5.9,7.3,8.7c-1.4-0.3-2.9-0.6-4.4-0.9c-1.4-0.3-2.4,1.7-1.4,2.7c0.5,1.7,1.1,3.3,1.6,5c-0.2,0.4,0.1,0.9,0.5,0.9
			c3.5,0.2,3.6-2.2,2.7-4.5c1.7,0.4,3.4,0.8,5.2,1.4c1.5,0.5,3.1-1.4,1.9-2.7c-2.5-2.7-5.1-5.4-7.7-8c0.2,0.1,0.4,0.2,0.7,0.3
			c4.2,4.5,9.3,7.8,16,8.5c0.8,0.1,1.4-0.2,1.8-0.7c0.8,0.4,1.5,0.8,2.3,1.1c3.5,2.1,7,4.2,10.5,6.4c-2.1-0.7-4.1-1.6-6.1-2.6
			c-2.4-1.2-4,2.4-2.1,3.9c3,2.4,6,4.6,9.3,6.6c1.8,1,3.6-0.7,3.2-2.2c2.1,0.4,4.2,0.6,6.4,0.7c1.4,0.1,2.5-1.3,2.4-2.5
			c1.3,0.5,2.5,1,3.8,1.5C123.4,129.7,124.8,127.3,123.3,126.5z"/>
		<path id="XMLID_31_" class="st3" d="M69,111.8c-1.8-1.4-3.5-2.8-5.3-4.1c2.7,0.5,4.1-3.2,2-5.1c-1.6-1.4-3.3-2.8-4.9-4.2
			c2.4,0.4,4.4-2.8,2.6-4.8c-0.5-0.5-1-1.1-1.5-1.6c2.2,1,4.7-1.8,3.6-3.9c-1.9-3.3-4.1-6.3-6.5-8.9c2.1,0,3.8-2.7,2.2-4.5
			c-1.4-1.6-2.7-3.1-4-4.8c0.3,0.1,0.7,0.1,1,0.2c2.1,0.3,4.1-2.3,2.9-4.2c-0.7-1.2-1.4-2.3-2.1-3.5c-1.8-2.9-6.3-1.1-5.7,1.6
			c-0.8,0-1.5,0.1-2.3,0.2c-2.3,0.3-2.9,3-1.7,4.7c0.9,1.2,1.8,2.4,2.8,3.5c-0.7,0-1.4,0-2.2,0c-2.5,0.1-2.9,3.7-1.1,5
			c2.3,1.7,4.4,3.6,6.2,5.7c-1.9-0.7-3.8-1.3-5.7-1.8c-2.9-0.8-5.2,2.9-2.5,4.8c0.3,0.2,0.6,0.4,0.8,0.6c-0.5-0.2-1-0.4-1.5-0.6
			c-3.2-1.4-5.1,3.1-2.7,5.1c1,0.8,1.9,1.6,2.9,2.4c-0.2-0.1-0.5-0.2-0.7-0.4c-3-1.7-5.7,2-3.2,4.3c-1.3,0.7-2.1,2.6-0.8,3.9
			c0.9,0.9,1.7,1.9,2.6,2.8c-0.8-0.4-1.7-0.9-2.5-1.3c-2.5-1.3-4.7,2.4-3,4.3c0.8,0.9,1.5,1.7,2.3,2.5c-0.7-0.2-1.3-0.3-2-0.4
			c-2.7-0.5-3.4,3.1-1.7,4.5c1.2,1,2.3,2.1,3.5,3.1c-1.5-0.5-2.9-1-4.4-1.5c-2.2-0.8-4.5,2-2.8,3.9c1.2,1.2,2.3,2.4,3.6,3.6
			c-0.4-0.1-0.7-0.3-1.1-0.4c-2.7-1-4.4,2.6-2.3,4.3c1.1,0.9,2.1,1.7,3.2,2.6c-1.4-0.5-2.8-0.9-4.2-1.3c-2.1-0.7-4.6,2-2.7,3.8
			c1.2,1.2,2.5,2.3,3.8,3.4c-1.1-0.2-2.3-0.4-3.4-0.6c-1.9-0.3-3.4,2.3-2,3.8c0.5,0.5,0.9,0.9,1.4,1.3c-0.5,0-1,0-1.5,0.1
			c-1.4,0.1-2.2,2.3-1.2,3.3c1.7,1.6,2,1.8,4.3,2.2c1,0.2,1.6-0.6,1.7-1.4c1.2,0,2.3,0,3.5,0c1.7,0,2.6-1.4,2.3-2.7
			c1.1,0.3,2.3,0.7,3.4,1.1c2.6,0.9,4.2-2.4,2.2-4.1c-0.9-0.8-1.8-1.5-2.7-2.3c1.9,0.6,3.8,1.2,5.7,1.8c2.6,0.8,4.3-2.5,2.2-4.2
			c-0.7-0.6-1.5-1.2-2.2-1.8c1,0.4,2,0.7,3,1.1c2.5,0.9,4.7-2.7,2.3-4.3c-2.4-1.5-4.6-3.1-6.8-4.8c1.5,0.5,2.9,1,4.4,1.5
			c2.8,0.9,4.3-2.5,2.3-4.3c-1.1-1-2.1-1.9-3.2-2.9c0.8,0.4,1.5,0.9,2.3,1.3c2.5,1.6,5-1.3,3.7-3.4c1.2,0.6,2.3,1.2,3.5,1.8
			c2.2,1.1,3.8-1.2,3.4-3.2c1.5,0.7,2.9,1.5,4.4,2.1C69.4,117.9,71.4,113.6,69,111.8z"/>
		<path id="XMLID_30_" class="st3" d="M117,130.6c-0.3,0.5-0.6,0.9-0.8,1.4c-0.9-0.1-1.8-0.2-2.6-0.2c-1.3-0.1-2.5,0.6-3.3,1.7
			c-2.5-0.5-5-0.9-7.5-1.2c-2.3-0.2-3.9,2-3.6,4c-0.7-0.1-1.4-0.3-2.2-0.4c-2.8-0.4-4.7,3.9-2,5.4c0.3,0.1,0.5,0.3,0.8,0.4
			c-1.8,0.8-2.7,3.5-0.6,4.8c0.5,0.3,1,0.6,1.5,0.9c-2.1-0.4-4.3-0.9-6.4-1.3c-2.8-0.5-4.5,3.9-2,5.3c0.9,0.5,1.7,1,2.6,1.5
			c-1.3-0.3-2.5-0.6-3.8-0.8c-3.3-0.7-3.9,3.9-1.5,5.4c-2.2-0.6-4.3-1.2-6.5-1.8c-2.4-0.7-4.7,2.6-2.2,4.2c2,1.3,4.1,2.5,6.1,3.7
			c-0.3-0.1-0.6-0.1-0.9-0.2c-2.3-0.5-3.7-0.8-5.9,0.1c-1.5,0.5-1.8,3-0.3,3.8c3.9,2.2,7.7,4.5,11.4,6.9c-2.5-0.6-5.1-1-7.7-1.3
			c-2-0.2-2.7,2.3-1.3,3.4c2.7,2.2,5.4,4.4,8.2,6.5c-1.6-0.1-3.1-0.3-4.7-0.4c-2-0.2-2.9,2.4-1.3,3.6c1.3,0.9,2.3,1.8,3.2,2.9
			c-0.8-0.1-1.5-0.2-2.3-0.2c-1.8-0.1-3.1,2-1.8,3.5c1.3,1.5,2.5,3,3.8,4.5c1.5,1.8,3.9-0.4,2.7-2.2l-0.7-1c0.8,0.1,1.5,0.1,2.3,0.2
			c1.5,0.1,2.9-1.5,2.1-3c-0.8-1.5-1.7-2.9-2.7-4.1c1.6,0.1,3.2,0.1,4.8,0.2c1.8,0.1,2.5-2,1.2-3.1c-2.3-2-4.6-3.9-7-5.8
			c3.8,0.8,7.4,1.9,11,3.5c1.7,0.8,3.6-1.7,2.2-3.1c-3.4-3.2-7-6.1-10.9-8.7c0,0,0.1,0,0.1,0c3,0.8,6,1.5,9,2.3
			c2.4,0.6,4.6-2.6,2.2-4.1c-1.1-0.7-2.2-1.4-3.3-2c2.4,0.7,4.8,1.4,7.2,2.1c2.8,0.9,5-2.8,2.5-4.7c-0.6-0.5-1.3-0.9-2-1.4
			c0.9,0.2,1.8,0.4,2.7,0.6c3,0.7,5.9-3.2,2.8-5.2c-0.9-0.6-1.8-1.2-2.7-1.7c1.6,0.4,3.3,0.7,4.9,1.1c2.8,0.6,4.3-3.7,1.9-5.2
			c-0.7-0.4-1.4-0.8-2-1.3c2.1,0.3,3.8-1.9,3.4-3.7c2.6,0.5,4.7-2.6,3.4-4.6c1-0.4,1.8-1.3,2.2-2.3c2.5-0.2,3.7-3,2.7-5.2
			C124.7,130.5,119.4,127,117,130.6z"/>
		<path id="XMLID_29_" class="st12" d="M94.9,287.7c2.1,0.4,4.1-2.5,2.4-4.1c-2.7-2.5-5.5-4.9-8.3-7.2c2.6,0.4,4.2-3,2-4.8
			c-1.7-1.4-3.5-2.7-5.3-4c0.2,0,0.3,0.1,0.5,0.1c2.6,0.7,4.3-2.1,3.3-3.9c-0.3-0.3-0.6-0.6-0.9-0.8c-0.2-0.1-0.3-0.2-0.5-0.2
			c-2.3-0.7-4.5-1.4-6.7-2.3c2.9,0.4,4.5-3.8,1.4-4.9c-2.6-1-5.1-2-7.5-3.1c1.3-1.1,1.5-3.6-0.6-4.5c-0.8-0.4-1.7-0.7-2.5-1
			c-2.9-1.1-5.7-2.3-8.5-3.7c2.1-0.7,2.9-4,0.2-5c-3.6-1.3-7.1-2.8-10.4-4.6c0.4-1.2,0.1-2.5-1.5-3.1c-2.8-1-5.4-2.1-8-3.4
			c0.9-1.1,0.6-3.3-1-4c-1.9-1-5.2-2.1-6.9-3.5c-1.5-1.3-1.7-2.7-2.8-4.1c-0.5-0.6-1-1.2-1.6-1.7c1.9-0.5,2.8-3.2,0.9-4.5
			c-1.6-1.2-3.2-2.2-4.9-3.1c0.5-0.7,0.8-1.6,0.2-2.5c-1.6-2.7-3.1-5.5-4.7-8.2c0.6-0.2,1.2-0.4,1.8-0.6c2-0.6,2.1-3.7,0.4-4.8
			c-0.7-0.4-1.4-0.9-2.1-1.3c0.1-0.2,0.2-0.4,0.4-0.7c0.5-0.7,0.7-1.8,0.2-2.6c-0.5-1-1.1-1.8-1.7-2.6c0.2-0.2,0.3-0.4,0.5-0.6
			c0.7-0.6,1.1-1.5,0.9-2.4c-1.2-5.9-1.4-11.6-0.5-17.6c0.5-3.3-4.7-3.8-5.1-0.5c-0.5,3.7-0.7,7.3-0.5,11c0.2,3.6,1.2,5.6-0.8,8.6
			c-0.8,1.2-0.4,2.6,0.6,3.6c1.8,1.6,1,1.7,0.3,3.7c-0.3,0.9-0.1,1.8,0.5,2.5c0,0,0,0,0,0c-1.3,0.4-2,2.5-1.3,3.7
			c1.8,2.9,3.5,5.8,5.3,8.7c-0.4,0.4-0.7,0.8-1.2,1.5c-0.9,1.4-0.4,3.2,1.2,3.9c0.8,0.3,1.5,0.7,2.2,1c-0.1,0-0.1,0-0.2,0.1
			c-2,0.9-1.8,3.9,0.2,4.7c4.1,1.6,4.6,5.3,7.3,7.9c0.5,0.5,1.2,1,2,1.5c-0.4,1-0.2,2.2,0.8,2.9c2.7,1.8,5.4,3.4,8.1,4.9
			c0.1,0.5,0.4,1.1,1.1,1.5c2.2,1.5,4.4,3,6.7,4.3c-1.2,1.1-1.4,3.3,0.1,4.3c2.9,1.8,6,3.5,9,5.1c-0.4,1-0.1,2.3,0.8,2.9
			c2.2,1.3,4.4,2.6,6.6,3.8c0,0,0,0,0,0c-2.3,0.1-4.3,3.2-1.8,4.7c1.1,0.7,2.2,1.3,3.3,1.9c-0.4,1.1-0.2,2.4,0.9,3
			c1.6,0.9,3.2,1.8,4.8,2.8c-2.5-0.2-4.4,3.2-1.9,4.7c3.7,2.2,7.2,4.5,10.6,7.1c-1.7-0.5-3.5-1.1-5.2-1.6c-2.6-0.8-5,2.9-2.4,4.5
			c1,0.6,1.9,1.2,2.9,1.8c-0.1,0-0.1,0.1-0.2,0.1c-0.3-0.1-0.7-0.2-1-0.3c-1.9-0.5-3.6,1.5-2.3,3.2c0.7,0.9,1.4,1.8,2.2,2.6
			c0.1,0.4,0.3,0.7,0.6,1c-0.3,0.1-0.7,0.3-1,0.4c-0.9,0.5-1.5,1.7-1,2.7c1,2,2.2,3.9,3.3,5.8c0.9,1.5,3,0.5,2.5-1.2
			c-0.4-1.1-0.7-2.2-1.1-3.3c0.1-0.1,0.1-0.2,0.1-0.3c0.3,0.1,0.6,0.2,0.9,0.2c1.3,0.3,2.6,0.3,3.7-0.6c0.8-0.8,0.9-1.9,0.2-2.7
			c0-0.1-0.1-0.3-0.1-0.4c0-0.1,0-0.1,0.1-0.2c3.7,1.7,7.4,3.5,11.1,5.2c2.8,1.3,4.5-2.8,2.4-4.5C97.2,289.5,96.1,288.6,94.9,287.7z
			"/>
		<path id="XMLID_28_" class="st12" d="M214,239.3c-0.5-0.5-0.9-0.7-1.1-0.7c1.1-1.4,0.6-3.9-1.2-4.7c-1.2-0.5-2.3-0.9-3.5-1.4
			c0.1-0.7-0.2-1.3-1-1.5c-2.7-0.7-5.4-1.3-8.1-2c1.1-1.1,0.7-3.5-1.3-3.9c-3.5-0.7-7.1-1.3-10.6-2c0.7,0,1.5,0.1,2.2,0.1
			c3,0.1,3.5-4.5,0.5-4.7c-1.9-0.2-3.8-0.3-5.8-0.4c-3.2-0.3-6.3-0.7-9.4-1.3c0.9-0.1,1.8-0.1,2.7-0.2c2.8-0.1,2.5-4.6-0.2-4.9
			c-5.1-0.4-9.8-1.3-14.5-2.9c2-0.7,2.4-3.7,0.2-4.4c-3.1-1-6.2-2-9.2-3.1c0.1,0,0.1-0.1,0.2-0.1c1.3-0.9,1-3-0.2-3.8
			c-2-1.4-4-2.6-6.2-3.6c0.1-0.1,0.1-0.1,0.2-0.2c0.9-1,0.4-2.8-0.6-3.5c-0.9-0.7-1.9-1.4-2.8-2.1c1-1,1.3-2.6,0.3-3.8
			c-1.2-1.4-2.4-2.4-3.9-3.3c0.4-1.7,0.1-3.4-0.9-4.8c0.2-0.2,0.5-0.4,0.7-0.6c1.1-0.9,1.3-2.7,0.3-3.7c-1.5-1.6-3-2.9-4.7-4.1
			c2.1-4.3-1.9-9.5-0.8-14.9c0.7-3.6-4.9-4.1-5.6-0.6c-0.6,3-0.9,4.2-0.2,7.1c0.5,1.8,2.7,5.2,0.6,6.8c-1.9,1.4-0.9,3.8,0.8,4.7
			c1.4,0.7,2.7,1.5,3.9,2.5c-0.4,0.3-0.8,0.6-1.2,1c-1.9,1.5-0.7,4.3,1.4,4.6c0,0.3,0.1,0.6,0.1,0.9c-1.7,1.4-1,3.8,0.8,4.6
			c0.9,0.3,1.7,0.8,2.5,1.4c-0.2,0.2-0.3,0.5-0.6,0.8c-0.7,1.2-0.6,2.9,0.6,3.7c1.1,0.8,2.3,1.5,3.4,2.3c-0.2,0.2-0.3,0.4-0.5,0.6
			c-1,1.3-0.3,3.2,1.1,3.7c1.9,0.7,3.7,1.6,5.4,2.5c-0.3,0.2-0.6,0.5-1,0.7c-1.4,1.1-0.9,3.4,0.7,4c1.9,0.6,3.8,1.3,5.7,1.9
			c-1.5,1-1.3,3.3,0.4,4.2c1.8,0.9,3.6,1.8,5.4,2.5c-0.2,0-0.4,0-0.6,0c-2.5,0.2-2.7,4-0.5,4.7c1.6,0.5,3.2,1,4.8,1.4
			c-0.9,1.2-0.7,3.3,1,3.7c1.5,0.4,3,0.7,4.5,1.1c-1.5,1.3-1.7,3.9,0.6,4.5c1.9,0.5,3.7,0.9,5.7,1.4c-0.6,1.4-0.2,3.4,1.5,3.9
			c3.5,1.1,6.9,2.3,10.3,3.6c-1,1-1.1,2.7,0.3,3.7c1.7,1.1,3.3,2.3,5,3.4c-1,0.9-0.9,2.9,0.2,3.8c2.8,2.3,5.5,4.4,9,5.7
			c1.2,0.4,2.4-1.1,1.5-2.1c-1.2-1.3-2.4-2.5-3.7-3.7c1.8-0.4,2.2-3.1,0.7-4.1c-1.6-1.1-3.1-2.2-4.7-3.3c0.3,0,0.6,0,0.9,0
			c2.8,0.2,3.5-3.5,1.1-4.7c-0.5-0.3-1-0.5-1.6-0.7c3.7,0.7,7.4,1.7,11.1,2.8c0,0.2,0,0.3,0,0.5c0.2,1.2,0.9,2.3,1.8,3.1
			c0.5,0.4,1,0.6,1.6,0.8c0.2,0,0.3,0.1,0.4,0.1c0.2,0.4,0.6,0.8,1.1,1c0.2,0.1,0.3,0.1,0.5,0.2c0.9,0.4,2.1,0,2.6-0.8
			c0.1-0.2,0.2-0.4,0.3-0.5C215.3,241.5,215,240.3,214,239.3z"/>
		<path id="XMLID_27_" class="st13" d="M93.3,268.6c-0.1-0.1-0.2-0.2-0.2-0.3c-0.5-0.7-1-1.4-1.6-2c0,0.1-0.6-0.7-0.9-1.1
			c-0.6-0.7-1.4-1.4-2.1-2.1c-0.6,1.6,0.1,3.7,1.8,4.4c1.2,0.5,2.2,1.2,3,2.1C93.3,269.2,93.3,268.9,93.3,268.6z"/>
		<path id="XMLID_26_" class="st13" d="M94.4,125.3c2.3-1.7,3.2-5.4,0.1-7.4c-2.8-1.8-5-2.2-8.3-2c-1.3,0.1-2.4,0.9-3,2
			c-0.6-0.1-1.2-0.2-1.9-0.3c-2.2-0.3-3.9,1.1-4.6,2.9c-0.9,0.1-1.8,0.5-2.4,1.1c-0.7-0.5-1.3-0.9-2-1.4c-3-2.2-6.2,0.2-6.6,3
			c-2.9-1.9-5.7-3.7-8.5-5.7c-4.4-3.2-8.5,3.2-4.7,6.7c0.1,0.1,0.3,0.3,0.4,0.4c-3.3-0.2-5.4,4.8-2.3,7c1.8,1.2,3.5,2.5,5.2,3.7
			c-1.7,1-2.7,3.3-1,5c7.1,6.9,14.6,13.5,23.9,17.2c1.4,0.6,3.1-1.4,1.8-2.6c-0.9-0.9-1.9-1.7-2.9-2.6c1.4-0.2,2.7-1.4,3.2-2.7
			c3.3,1.1,7.2-3.2,4.2-6.2l0,0c1.8-0.3,3.2-1.7,3.5-3.5c2.1,0.8,4.2-0.6,5-2.6c2.4-1,3.7-4,1.8-6.8c-0.6-0.9-1.3-1.8-1.9-2.6
			C94.1,127.2,94.4,126.3,94.4,125.3z"/>
		<g id="XMLID_16_">
			<path id="XMLID_17_" class="st4" d="M160.6,203.5c-20.2-16-18.8-46.3-30.4-68.1c-0.2-1.2-0.3-2.4-0.5-3.6
				c-0.1-0.4-0.3-0.6-0.6-0.7c0.1-0.6,0-1.3-0.5-1.9c-23.2-28.4-46.4-56.7-69.5-85.1c-1-1.2-3.4-1-3.8,0.7
				c-5,17.6-10.2,35.1-15.9,52.5c-2.7,8.5-5.6,17-8.5,25.4c-2.6,7.6-7.5,16.7-7.5,24.7c0,0.1,0,0.3,0.1,0.4
				c-0.1,0.1-0.1,0.3-0.1,0.4c-4,2.9-5.2,9.9-6.3,14.2c-1.5,6.2-2.1,12.6-1.9,19c0.4,13.4,4.3,26.6,11.5,37.9
				c8.6,13.5,22.1,22.2,32.5,34c12.7,14.4,16.9,31.1,16.6,49.9c0,1.1,0.8,1.7,1.6,1.7c-0.4,1.3,1.6,2.3,2.4,1.1
				c3.2-4.8,5.8-10,8.1-15.3c4.4,3.2,8.7,6.4,13.1,9.6c1.3,0.9,3.3-0.2,2.9-1.9c-2.2-9.6-5.6-18.4-9.9-26.4c0.3,0.3,0.7,0.5,1,0.8
				c-1.2-1.2-1.8-2.8-1.7-4.3c-0.1-0.1-0.2-0.2-0.2-0.3c-0.5-0.7-1-1.4-1.6-2c0,0.1-0.6-0.7-0.9-1.1c-1.3-1.5-2.8-2.7-4-4.3
				c-0.4-0.5-0.6-1-0.9-1.6c-7.5-10-16.7-18.8-27.4-26.6C45.2,223,33.6,213,29,196.7c-4.1-14.6-2.9-29.5-2.2-44.5
				c7.3,9.5,16.8,17.7,25,26.1c9.6,9.8,19.3,19.5,29,29.3c0,0,0,0.1,0,0.1c0.6,0.4,1.3,0.8,1.9,1.3c0.3-0.1,0.5-0.1,0.8-0.1
				c0.1,0,0.2,0,0.2,0c0-0.2-0.1-0.4-0.1-0.6c0.4-0.2,0.7-0.4,1-0.8c14.8-23.5,28.7-47.6,41.4-72.3c0.6,1.1,1.2,2.1,1.8,3.2
				c-0.1,24,4.2,50.1,18.2,69.7c7,9.8,16.8,16.9,26.4,24c11.2,8.3,20,16.5,26.2,29.1c0.6,1.2,2.3,1,2.8,0.1c0.1,0.2,0.1,0.3,0.2,0.5
				c0.2,0.4,0.8,0.4,1.1,0.1l0,0c2.5-3.4,1.2-9.2,0.4-13.1c-0.8-4.1-2-8.3-4.1-11.9c5.3,4.1,10.3,8.3,14.5,13.7c1,1.2,3.4,0.6,3.4-1
				C217.4,219.1,178.7,217.8,160.6,203.5z M43.8,226.3c11.5,9.9,24.5,17.4,34.5,29C88.1,266.7,95,280,99,294.3
				c-3.6-2.6-7.2-5.2-10.8-7.7c-0.9-0.7-2.3-0.2-2.7,0.8c-1.8,4.7-3.8,9.1-6.1,13.6c1.4-13.2-2.4-27.6-8.9-38.9
				c-7.6-13.3-20-22.1-30.6-32.8c-10.9-11-17.9-24.7-20.1-40.1c-1-7.2-1-14.6,0.2-21.8c0.5-3.4,1.4-6.8,2.4-10.1
				C20.5,182.5,23.6,208.8,43.8,226.3z M35.1,124.3c2.9-8.4,5.8-16.9,8.5-25.4c4.4-13.7,8.6-27.5,12.6-41.3
				c1.8,9.3,3.9,18.6,5.9,27.8c2.5,11.4,4.3,23.1,7.4,34.3c-6.1-5-14.9-6.2-19,2.7c-1.8,3.9-1.1,8.5,0.4,12.8
				c-0.3-0.1-0.7-0.1-1.2,0.2c-7.2,4.1-14.7,7.5-22.6,10.2C31,139.4,32.8,130.9,35.1,124.3z M88.7,118.9c6.5,2.6,7.3,10.4,5.1,16.1
				c-2.9,7.6-11,16-18.8,18.2c-0.2,0.1-0.4,0.2-0.6,0.3c-0.2-0.2-0.6-0.3-1-0.3c0,0,0,0,0-0.1c-2.5,0.7-9.3-5.5-11.1-7.3
				c-3-3-5.4-6.5-7-10.4c-2.5-6.1-3-15.9,6.2-15.6c6.2,0.2,8.9,6,10.9,10.9c0.5,1.4,2.2,1.2,3,0.2c0.5-0.2,0.9-0.6,0.8-1.4
				C75.5,123,81.5,116.1,88.7,118.9z M54.7,174.2c-8.5-8.6-16.9-18.6-26.7-25.9c8.2-2.1,16-5.4,23.2-9.8c0.4-0.2,0.6-0.5,0.7-0.8
				c0.7,1.5,1.5,3,2.3,4.3c4.1,6.7,10.4,12,17.9,14.6c0.6,0.2,1.2,0.1,1.7-0.3c-0.5,9.4,0.3,18.5,2.1,27.7c1,5.1,2.2,10.1,3.6,15.1
				c0,0.1,0.1,0.2,0.1,0.3C71.3,191.1,63,182.6,54.7,174.2z M83.6,200.2c-0.5-0.1-1,0-1.4,0.4c0.3-0.7,0.5-1.3,0.8-2
				c-0.2-0.8-0.5-1.7-0.7-2.5c-0.3-2.1-1.1-4.2-1.6-6.3c-0.9-3.8-1.7-7.6-2.3-11.4c-1.1-7.2-1.9-14.5-2.5-21.7
				c7.3-0.1,13.2-7.3,17.3-12.7c2.6-3.4,4.6-7.4,5.4-11.6c4.1,0.5,8.2,0.8,12.3,1c3.7,0.2,7.6,0.7,11.2,0.2
				C110.1,156.3,97.3,178.5,83.6,200.2z M98.8,129.5c0.1-2.5-0.4-5.1-1.6-7.5c-5.6-11.3-21.5-8.1-23.7,2.2c-0.3-0.4-0.6-0.8-0.9-1.2
				c0.5-0.3,0.9-0.9,0.8-1.7c-1.6-12.2-4.9-24.4-7.6-36.4C63.5,73.7,61,62.6,58,51.7c0.1-0.5,0.3-0.9,0.4-1.3
				c21.7,26.6,43.3,53.2,64.9,79.7C116,128.1,106.6,128.9,98.8,129.5z M198.1,234.3c-0.3-0.1-0.5,0-0.7,0.1
				c-1.1-0.9-2.7,0.5-2.2,1.9c1.7,4.7,3.9,9.1,4.8,14.1c0.3,1.8,0.3,3.8,0.4,5.7c-7.4-19.6-32.4-29.4-45.8-43.9
				c-16.6-17.9-19.8-41.5-22.7-64.6c6.5,18,7.8,38.3,20.5,53.2c7.7,9.1,18.7,13.3,29.6,17.5c12.1,4.7,27.5,11.8,30.7,25.4
				C208.5,239.6,203.7,236.2,198.1,234.3z"/>
		</g>
	</g>
</g>
<g id="XMLID_7_">
	<path id="XMLID_13_" class="st10" d="M708.3,525.3c0,0,8.6-12,10-14.7c1.4-2.8,4-8.7,4-8.7l-16-4.1L701,482c0,0-9.3-26.7-12.4-30.9
		c-3.1-4.2-8-4.6-11-0.6c-3,4-24.6,40.9-24.6,40.9l-22.3,1.2l13.1,29.4c0,0,8.1-2.5,25-2c17,0.5,32.8,4,32.8,4L708.3,525.3z"/>
	<g id="XMLID_8_">
		<path id="XMLID_9_" class="st14" d="M722.7,501.5c-0.1-0.1-0.2-0.2-0.3-0.2c-5.1-1.7-10.2-3-15.4-4c0,0,0-0.1,0-0.1
			c-3.7-10.2-6.9-20.7-10.7-30.8c-2.5-6.7-5.5-16.8-11.4-19.5c-2.2-1-4.3-0.5-6,1.6c-3.2,4-5.8,9.3-8.6,13.7
			c-5.8,9.3-11.5,18.5-17.3,27.8c-0.1,0.2-0.1,0.3-0.2,0.5c-7.6-0.4-15.2-0.4-22.8,0.7c-0.7,0.1-0.8,1.2-0.3,1.6
			c0,0.1,0,0.1,0.1,0.2c4.4,9.4,7.8,20,13.1,28.6c0.1,0.1,0.3,0.2,0.4,0.3c0.1,0,0.2,0,0.3,0c0.2,0,0.4,0,0.7,0
			c0.4,0,0.8-0.1,1.2-0.1c0.4-0.2,0.9-0.3,1.5-0.2c0.3,0,0.5,0,0.8,0c11.6-0.9,23.3-0.8,34.9,0.3c0.3,0,0.7,0,1.1,0.1
			c0.1,0,0.2,0.1,0.3,0.1l0,0c0.3,0,0.7,0,1.1,0.1c0.1,0,0.2,0,0.2,0.1c3.5,0.4,7,0.9,10.5,1.5c1.3,0.2,2.6,0.3,3.8,0.5
			c0.8,0.1,1.6,0.4,2.4,0.6c0.6,0.1,1.2,0.2,1.8,0.4c0,0,0.1,0,0.1,0c0.2,0,0.5,0,0.8,0.1c0.4,0.1,0.7,0.2,1,0.4
			c0.4,0.1,0.9,0.2,1.3,0.3c0.3,0,0.5,0,0.8,0c0.3-0.1,0.5-0.2,0.8-0.3c5.7-6.8,10.2-14.5,13.9-23.4
			C723,502.2,722.9,501.7,722.7,501.5z M668.3,468.4c2.4-3.8,4.8-7.7,7.1-11.5c2.5-4,5.3-10.7,9.8-7.7c2.9,1.9,4.7,5.8,6.3,9.3
			c1.9,4.3,3.6,8.7,5.2,13.2c3,8.4,5.8,16.9,8.8,25.3c-9.7-1.9-19.6-2.9-29.4-4c-7.2-0.8-14.4-1.7-21.7-2.2
			C659,483.3,663.6,475.8,668.3,468.4z M708.1,524.6c-20.9-5.1-43-6.2-64.3-4.2c-5.1-8.2-8.4-18.3-12.5-27.4c15.2-2,30.4,0,45.6,1.8
			c14.9,1.7,29.8,3.3,44.3,8C717.6,511,713.4,518.2,708.1,524.6z"/>
	</g>
</g>
<g id="XMLID_2_">
	<path id="XMLID_6_" class="st12" d="M699.8,436.5c-0.5,0-1,0-1.4-0.3c-0.8-0.5-2-0.4-2.5,0.4c-0.1,0-0.2-0.1-0.3-0.1
		c-0.7-0.4-1.5,0-2,0.6c-0.4-0.2-0.8-0.4-1.1-0.6c-0.1,0-0.2-0.1-0.3-0.1c-1.5-1.3-2.9-2.6-4.2-4c0.4-0.3,0.7-0.8,0.5-1.3
		c-0.3-1-0.6-2-1.1-2.9c0.5-0.4,0.8-1.3,0.6-2c-0.3-1.1-0.9-1.8-1.7-2.6c-1-0.9-2.6,0.3-2.4,1.4c-0.5,0.3-0.9,0.8-0.9,1.4
		c0,0,0,0,0,0c-1.4-0.6-2.5,1.1-1.8,2.3c0.4,0.7,0.9,1.3,1.4,2c-0.7,0.4-1.1,1.3-0.4,2.1c0,0,0,0,0,0c-1.3-0.7-2.9,1.1-1.9,2.3
		c0.3,0.4,0.6,0.7,1,1.1c-1-0.7-1.9-1.3-2.8-2c-1-0.7-2.3,0.2-2.3,1.2c-0.6-0.1-1.2-0.2-1.8,0c-0.2,0-0.4,0.2-0.6,0.3
		c-0.8-0.6-1.7-1.1-2.5-1.7c-1.6-0.9-3.3,1.1-1.8,2.3c2.1,1.6,4.1,3.2,6.1,4.8c-0.5,0.4-0.7,1.2-0.3,2c0.2,0.2,0.3,0.5,0.5,0.7
		c-1.1-0.2-2.3,1-1.4,2.1c0.2,0.2,0.4,0.5,0.6,0.7c-1,0.1-1.8,1.3-1,2.2c0.3,0.3,0.5,0.7,0.7,1c-0.6-0.1-1.2-0.2-1.8-0.3
		c-0.8-0.1-1.5,0.8-1.1,1.5c0.4,0.9,0.9,1.5,1.6,2.2c0.6,0.5,1.3-0.2,1.2-0.8c0.6,0.2,1.2,0.4,1.9,0.6c0.9,0.3,2.1-0.3,1.8-1.4
		c-0.1-0.4-0.2-0.8-0.3-1.1c0.7,0,1.3-0.5,1.4-1.1c0.3,0.2,0.5,0.4,0.8,0.6c1.3,1,2.8-0.7,1.9-1.9c0,0,0,0,0,0
		c0.4,0.3,0.9,0.6,1.3,0.9c0.5,0.3,1,0.3,1.4,0.2c2.4,2.4,4.9,4.7,7.6,6.7c1.5,1.1,3.1-1,1.7-2.2c-1.9-1.7-3.8-3.4-5.6-5.1
		c1.1,0.9,2.1,1.9,3.2,2.8c1.3,1.2,3-1,1.7-2.2c-1.5-1.4-3.1-2.8-4.7-4.2c-0.1-0.1-0.2-0.2-0.3-0.3c0.4,0.3,0.7,0.5,1.1,0.8
		c1.3,0.9,3.2-0.7,2-2c-0.1-0.1-0.2-0.3-0.4-0.4c0.2,0.1,0.5,0.3,0.7,0.4c1.3,0.8,3.3-0.7,2.1-2.1c-0.1-0.1-0.2-0.2-0.3-0.3
		c0.3,0,0.5-0.1,0.7-0.3c0.6,0.4,1.2,0.8,1.8,1.2c1.2,0.9,2.7-0.3,2.5-1.5c0.1-0.1,0.1-0.2,0.2-0.2c0.3,0,0.7,0,1,0
		C701.8,439.7,701.8,436.6,699.8,436.5z"/>
	<path id="XMLID_3_" class="st4" d="M695.8,455.9c-0.8-3.2-1.5-6.4-2.2-9.7l0,0c-0.1-0.2-0.2-0.4-0.3-0.6c-0.1-0.3-0.1-0.6,0-0.9
		c0,0,0,0-0.1,0c0-0.1,0-0.2-0.1-0.3c0.1,0,0.2,0,0.3-0.1c4-2,7.9-4.2,11.7-6.5c0,0,0.1,0,0.1,0c0-0.1,0.1-0.2,0,0
		c0-0.2,0.1-0.5,0.1-0.7c-0.5-0.4-1.1-0.9-1.6-1.3c-2.4-0.4-4.7-0.7-7.1-1.1c-0.4-0.1-0.8-0.1-1.3-0.2c0,0,0,0-0.1,0
		c-0.5,0-0.9-0.3-1.4-0.3c-0.2,0-0.5,0-0.7,0c-0.6,0-1.4,0-1.8-0.5c0,0,0-0.1-0.1-0.1c0,0-0.1,0-0.1,0c-0.9-4.5-2.4-8.8-4.3-12.9
		c-0.6-0.7-1.1-1.4-2-1.6c-0.4,0.2-0.5,0.7-0.2,1.1c-2,4-3.8,8.2-5.1,12.5c-4.3-0.6-8.9-0.2-13.2-0.1c-0.7,0-1.1,0.9-0.8,1.5
		c0.9,1.9,2.5,3,4.2,4.2c1.9,1.4,3.8,2.9,5.9,4.2c-2.6,3.8-4.4,8.2-6.4,12.3c-0.4,0.9,0.6,1.8,1.4,1.4c2.4-1,4.8-2,7.2-3.1
		c1.9-0.9,4.1-1.8,5.8-3.2l0,0c3.4,3.2,7.1,6,10.8,8.8c0.5,0.4,1.4,0.2,1.7-0.4c-0.1-0.7-0.2-1.3-0.4-2
		C695.8,456.2,695.8,456.1,695.8,455.9z M684.6,448.8c-0.1-0.1-0.2-0.1-0.3-0.1c-0.1-0.4-0.4-0.8-0.9-0.6c-2.2,0.6-4.3,2-6.4,3
		c-1.5,0.7-3,1.4-4.4,2c1.7-3.3,3.4-6.7,4.5-10.2c0.5-0.3,0.6-1.1,0.1-1.6c-1.5-1.4-3.3-2.5-4.9-3.7c-1.2-0.9-2.6-1.7-3.7-2.8
		c3.7,0,7.6,0.2,11.2-0.5c0.3,0.2,0.8,0.2,1.1-0.3c1.6-3.6,3.1-7.2,4.9-10.8c1.6,3.6,2.7,7.4,3.5,11.2c0.1,0.7,0.7,0.9,1.3,0.9
		c1.6,1.4,3.9,1.3,6,1.6c1.7,0.3,3.4,0.5,5.1,0.8c-2.9,1.7-5.9,3.3-8.9,4.7c-0.4,0.2-0.5,0.5-0.6,0.8c-0.6,0-1.2,0.4-1.1,1.2
		c0.6,3.6,1.5,7.2,2.4,10.7C690.5,452.8,687.6,450.7,684.6,448.8z"/>
</g>
</svg>
