<?xml version="1.0" encoding="utf-8"?>
<!-- Generator: Adobe Illustrator 19.0.0, SVG Export Plug-In . SVG Version: 6.00 Build 0)  -->
<svg version="1.1" id="Capa_1" xmlns="http://www.w3.org/2000/svg" xmlns:xlink="http://www.w3.org/1999/xlink" x="0px" y="0px"
	 viewBox="0 0 384.3 255.7" style="enable-background:new 0 0 384.3 255.7;" xml:space="preserve">
<style type="text/css">
	.st0{fill:#F6F6F6;}
	.st1{fill:#F9EF6B;}
	.st2{fill:#FFCC67;}
	.st3{fill:#95C13D;}
	.st4{fill:#1D1D1B;}
	.st5{fill:#ED2387;}
	.st6{fill:#653614;}
	.st7{fill:#F37262;}
	.st8{fill:#E93943;}
	.st9{fill:#F077AA;}
	.st10{fill:#FFDE00;}
	.st11{fill:#60BAE8;}
	.st12{fill:#403C3D;}
</style>
<g id="XMLID_14_">
	<g id="XMLID_40_">
		<g id="XMLID_77_">
			<path id="XMLID_100_" class="st0" d="M250.3,198.4c-0.3-0.3-0.5-0.5-0.9-0.5c-0.3,0-0.6,0-0.9-0.1c-0.6-0.1-1,0.3-1,0.8
				c-0.1,0.1-0.2,0.3-0.2,0.5c-0.5,0.1-0.7,0.8-0.4,1.2c0.2,0.2,0.5,0.3,0.7,0.3c0.4,0.1,0.8,0.3,1.1,0.4c0.3,0.2,0.7,0.1,1-0.1
				c0.2-0.2,0.3-0.7,0.1-1c-0.1-0.1-0.2-0.3-0.3-0.4c0,0,0,0,0,0c0.3,0,0.5-0.2,0.7-0.5C250.4,199,250.4,198.6,250.3,198.4z"/>
			<path id="XMLID_99_" class="st0" d="M211.7,246c-0.1-0.3-0.4-0.4-0.7-0.3c-0.3-0.1-0.7-0.3-1-0.4c-0.3-0.1-0.5,0-0.6,0.2
				c-0.1,0-0.2-0.1-0.4-0.1c-0.4-0.1-0.8,0.6-0.3,0.8c0.2,0.1,0.4,0.2,0.7,0.3c0.1,0,0.2,0.1,0.2,0.1c0.2,0.2,0.4,0.3,0.6,0.5
				c0.3,0.1,0.6,0,0.7-0.1c0,0,0,0,0,0c0.4,0.1,0.8-0.2,0.8-0.6C211.8,246.2,211.8,246.1,211.7,246z"/>
			<path id="XMLID_98_" class="st0" d="M234,245.1c-0.4-0.2-1-0.2-1.5-0.3c-0.4,0-0.6,0.4-0.6,0.7c0,0,0,0,0,0
				c-0.3,0-0.6,0.3-0.6,0.6c-0.1,0-0.2,0-0.3,0c-0.3,0-0.5,0.4-0.2,0.6c0.5,0.4,1,0.5,1.6,0.6c0.4,0.1,0.7-0.2,0.7-0.6
				c0.3-0.1,0.4-0.3,0.4-0.5c0.1,0,0.2,0,0.3-0.1C234.4,246,234.5,245.4,234,245.1z"/>
			<polygon id="XMLID_97_" class="st1" points="206.3,223.2 209.1,205.7 232.2,205.1 236.2,224.3 			"/>
			<path id="XMLID_96_" class="st2" d="M194.7,188.4c0,0-1.2-19.1,17.8-21.8c15.5-2.3,30.9,7.6,29.7,19.7
				c-1.1,12.1-0.3,15.6-21.2,21.5c0,0-8.8-0.3-12.1-1.5C205.6,205.1,196.5,200.4,194.7,188.4z"/>
			<polygon id="XMLID_95_" class="st3" points="224.8,232.4 224.4,223.8 235.3,224.3 233.8,233.3 			"/>
			<polygon id="XMLID_94_" class="st3" points="218.6,232.5 218.8,224.5 209.6,223.3 209.7,232 			"/>
			<g id="XMLID_78_">
				<path id="XMLID_82_" class="st4" d="M207,212.5c-0.5,3.5-0.9,7.1-1.4,10.6c0,0.4,0.3,0.6,0.6,0.6c1,0,2,0.1,3,0.1
					c-0.4,2.8-0.4,5.6-0.5,8.3c0,0.3,0.3,0.6,0.6,0.6c1.3,0,2.7-0.1,4.1-0.1c-0.7,4.2-1,8.6-1,12.9c-0.6-0.6-1.2-1.1-2-1.3
					c-0.8-0.2-1.8,0.1-2.1,1c-0.3,0.8,0.1,1.7,0.8,2.2c1,0.7,2.4,0.3,3.4-0.1c0.1,0,0.1-0.1,0.1-0.1c0.1,0,0.3,0,0.4-0.1
					c0.3,0,0.6-0.2,0.6-0.6c0-4.6,0.7-9.2,0.6-13.7c0.1,0,0.2,0,0.2,0l2.7-0.1c0.5,0,1.3,0.1,1.8-0.2c0.8-0.5,0.6-2,0.6-2.8
					c0.1-1.9,0.2-3.7,0.4-5.6c1.2,0,2.4,0,3.6,0c-0.2,1.3,0,2.8,0,4.1c0,1.1-0.3,3.2,0.5,4.1c0.8,0.8,2.8,0.5,3.8,0.6
					c0.2,0,0.4,0,0.7,0c0.1,4.3,0.6,8.6,0.8,12.9c0,0.3,0.3,0.5,0.5,0.6c0,0.1,0,0.3,0.1,0.3c1,0.5,2.1,1,3.3,0.8
					c0.9-0.2,1.7-0.9,1.7-1.9c0-0.9-0.6-1.7-1.5-1.7c-1.3-0.1-1.9,1.1-2.9,1.7c-0.2-4.2-0.3-8.5-1.1-12.6c1.4,0.1,2.8,0.2,4.3,0.3
					c0.4,0,0.6-0.3,0.6-0.6c0.1-2.8,0.5-5.7,0.4-8.5c0.5,0,0.9,0,1.4,0c0.4,0,0.7-0.4,0.6-0.8c-1.1-4.1-2.1-8.2-3.2-12.3
					c3,0,6.4-1.4,8.7-3c2.4-1.6,4.5-3.9,5.3-6.7c0.8,0.3,1.7,0.2,2.4-0.4c0.9-0.7,1.1-2.1,0.5-3c-0.7-1.1-2.1-1.2-3.1-0.5
					c-1.1,0.8-1.2,2.2-0.8,3.4c0,0,0,0,0,0c-1.1,2.8-2.9,5-5.5,6.6c-1.4,0.9-3,1.5-4.6,1.9c-1,0.3-2.1,0.4-3.1,0.7
					c-0.4-1.5-0.8-3-1.2-4.5c0-0.1,0-0.1-0.1-0.2c5.5-2.4,10-6.8,10.7-13.4c0.5-4.8-0.2-10.2-2.3-14.5c-2-4.2-5.7-7.1-10-8.8
					c-5.1-2-10.9-2.3-16.3-1.8c-4.6,0.4-8.9,1.8-12.5,4.8c-6.8,5.9-8.7,15.6-5,23.8c2.2,4.8,6.4,8.8,11.3,11
					c-0.3,1.8-0.6,3.6-0.9,5.5 M207.5,210.2c-2.7,5.2-7.4,7.8-13.2,7.4c-0.2-0.7-0.7-1.3-1.4-1.5c-1.1-0.4-2.2,0.2-2.5,1.2
					c-0.4,1.1,0,2.4,1.1,2.7c1.1,0.4,2.6-0.2,2.9-1.4c0,0,0,0,0,0c5.7,0.9,11.6-2.5,13.7-7.8 M193.5,217.8c-0.1,0.2-0.1,0.3,0,0.5
					c0,0,0,0,0,0c-0.2,0.6-1,1-1.7,0.8c-0.6-0.2-0.8-1-0.5-1.6C191.8,216.4,193.1,216.9,193.5,217.8z M210,246.8
					c-0.5-0.2-1.2-1.1-0.4-1.5c0.9-0.5,1.8,0.6,2.5,1.3C211.4,246.9,210.7,247.1,210,246.8z M232,245.7c0.4-0.4,1.7-1.5,2-0.3
					c0.2,0.8-0.8,1.3-1.5,1.3c-0.5,0-1-0.1-1.5-0.3C231.4,246.2,231.7,246,232,245.7z M199.6,197.9c-4.8-7.1-4.9-16.6,0.7-23.3
					c6-7.2,16.6-8,25.2-6.3c4.3,0.8,8.6,2.7,11.6,6c3.2,3.5,4.3,8.3,4.6,12.9c0.3,5.3-1,10.2-5,13.8c-4,3.6-9.4,5-14.7,5.3
					c-0.2,0-0.4,0.1-0.5,0.3c-3.9,0.4-7.8,0.3-11.6-1C205.7,204.3,202.1,201.6,199.6,197.9z M218.5,228c0,0.7,0,1.6-0.1,2.2
					c-0.2,0.8-0.1,0.9-1.1,1.1c-1.2,0.2-2.5,0.1-3.6,0.1l-3.6,0.1c0.1-2.5,0.3-5.1,0.2-7.7c2.8,0.1,5.7,0.1,8.5,0.2
					C218.6,225.4,218.5,226.7,218.5,228z M233.1,231.8c-1.2-0.1-2.4-0.1-3.7-0.2c-1.2-0.1-3.2,0.2-4.1-0.6c-0.8-0.8-0.5-2.9-0.5-4.1
					c0-0.9,0-1.9-0.2-2.8c3,0,6,0,8.9,0C233.2,226.6,233.2,229.3,233.1,231.8z M235.3,222.7c-9.4,0.1-18.9,0-28.3-0.3
					c0.7-5.3,1.4-10.6,1.7-15.9c4.1,1.7,8.7,2.2,13,1c0.1,0,0.1,0,0.2,0c3-0.2,6.1-0.8,8.9-1.9c0,0,0,0,0,0
					C232.3,211.4,233.8,217.1,235.3,222.7z M249.2,200.1c-0.5,0.3-1.1,0.4-1.7,0.2c-0.3-0.7-0.2-1.7,0.5-2.2
					c0.6-0.4,1.3-0.3,1.6,0.4C249.9,199.1,249.7,199.8,249.2,200.1z"/>
				<path id="XMLID_81_" class="st4" d="M230.7,196c-1.8,1.3-3.5,2.7-5.6,3.7c-2.2,0.9-4.5,1.5-6.9,1.5c-2.2,0.1-4.4-0.3-6.5-1
					c-2-0.7-3.7-1.9-5.5-3c0,0,0,0,0,0c-0.2-0.2-0.5-0.3-0.7-0.4c-0.4-0.2-0.7,0.3-0.4,0.6c3,3.6,8.7,5.1,13.2,5
					c4.5-0.1,10.1-1.9,13.1-5.5C231.6,196.4,231.2,195.7,230.7,196z"/>
				<path id="XMLID_80_" class="st4" d="M215.8,189.4c-0.5-1-2-1.2-2.6-0.2c0,0.1-0.1,0.1-0.1,0.2c-0.1,0.1-0.2,0.3-0.3,0.5
					c-0.2,0.6,0.3,1.3,0.8,1.5C214.9,192.1,216.4,190.7,215.8,189.4z"/>
				<path id="XMLID_79_" class="st4" d="M224.2,188.8c-0.4-1-1.7-1.2-2.4-0.4c-0.1,0.1-0.1,0.2-0.2,0.3c-0.3,0.4-0.4,0.8-0.2,1.3
					c0.2,0.5,0.7,0.8,1.3,0.8C223.7,190.8,224.6,189.9,224.2,188.8z"/>
			</g>
		</g>
		<path id="XMLID_76_" class="st5" d="M154.4,204.8c0,0,7.5,4.5,22.1-1.1l6.2,28.9c0,0-6.4,4.5-18.4,4.8c-12,0.3-16.7-4.7-16.7-4.7
			L154.4,204.8z"/>
		<path id="XMLID_75_" class="st6" d="M141.8,183.6l1.1-3.1c0,0-5.3-7.5-10.4-4.8c0,0-8.8,1-7,10.2c0.9,4.7,4.6,3.4,5.2,3.8
			c0.6,0.4,2.8-0.8,2.8-0.8l1-1.7l0.6-1.6l0.3-1.3l0.8,0.3L141.8,183.6z"/>
		<path id="XMLID_74_" class="st2" d="M142.8,181.4c0,0,21,9.9,45.7,3.1c0.1,0.3,1,21.5-24.6,22.8
			C138.4,208.5,141.6,182,142.8,181.4z"/>
		<path id="XMLID_73_" class="st7" d="M141.6,186.1l3.4-8.6c0,0-2.7-3.9-3.9-1.5c-1.1,2.4,1.4,3.5,1.4,3.5s-4.3-0.2-2.2,2.2
			c0.4,0.5-3.8-0.8-4,0.5c-0.2,1.4-0.7,2.8,1.2,3C139.5,185.4,141.6,186.1,141.6,186.1z"/>
		<path id="XMLID_72_" class="st6" d="M142.3,182.3c0,0,7.4-16.5,25.1-13.5c16.4,2.8,17.2,7.5,18.6,10.2c1.4,2.7,1.7,6.2,1.7,6.2
			S170.4,191.3,142.3,182.3z"/>
		<path id="XMLID_71_" class="st6" d="M188.8,182.2l2.4,6.2c0,0-0.9,7-0.8,8.8c0,1.8,5.1,5.4,7.6,2.2c2.4-3.2,6-8,4.3-15.4
			C200.5,176.4,191.9,177.3,188.8,182.2z"/>
		<polygon id="XMLID_70_" class="st7" points="186.5,178.9 190.6,178.4 191.2,179.9 190.1,181.5 190,181.9 190.6,183.2 190.1,184.2 
			191.2,184.9 192,186.1 192.1,187.4 190.7,187.9 189.2,188.1 188,188.1 187.7,182.7 		"/>
		<g id="XMLID_43_">
			<path id="XMLID_69_" class="st0" d="M171.2,244.7c0.1-0.9,1.2-1.1,1.9-1c0.2,0,0.3,0.1,0.4,0.3c0.3-0.1,0.7-0.2,1-0.2
				c0.5-0.1,0.8,0.4,0.5,0.8c0.1,0.1,0.2,0.2,0.3,0.3c0.1,0.2,0,0.4-0.2,0.5c0,0.3-0.2,0.5-0.4,0.6c-0.6,0.4-1.9,0.5-2.1-0.5
				c-0.1,0.1-0.2,0.1-0.4,0.2c0,0,0,0,0,0c-0.2,0.1-0.5,0-0.6-0.1C171.4,245.5,171.2,245.1,171.2,244.7z"/>
			<path id="XMLID_68_" class="st0" d="M153.3,244.7c0.1,0.1,0.1,0.2,0.2,0.3c0,0,0,0,0,0c0.3,0,0.6,0.2,0.7,0.5
				c0.3,0,0.7,0.1,0.9,0.3c0.2,0.2,0.1,0.5-0.1,0.7c-0.4,0.3-0.9,0.3-1.3,0.5c-0.4,0.3-0.9,0-1-0.4c-0.1,0-0.2,0-0.3,0
				c-0.3,0-0.6-0.2-0.7-0.5c0,0,0,0,0,0c-0.4,0.1-1-0.2-1-0.7C150.9,244.2,152.5,244,153.3,244.7z"/>
			<path id="XMLID_67_" class="st0" d="M133.6,207c0,0,0.1-0.1,0.1-0.1c0,0,0,0,0-0.1c-0.1-0.9,0.8-1.4,1.6-1.7
				c0.3-0.1,0.5-0.1,0.7,0c0.1-0.1,0.3-0.2,0.4-0.3c0.4-0.4,1,0,1.2,0.4c0.5,0,0.9,0.5,0.7,1c0.5,0,0.9,0.4,0.6,0.9
				c-0.1,0.2-0.3,0.4-0.4,0.7c0,0.1-0.1,0.4-0.2,0.4c0,0.1,0,0.2-0.1,0.2c0,0,0,0,0,0c-0.2,0.2-0.4,0.2-0.6,0
				c-0.1-0.1-0.1-0.1-0.2-0.2c-0.2,0.1-0.4,0.3-0.6,0.4c-0.5,0.3-1-0.1-1.1-0.6c-0.2,0-0.4-0.1-0.5-0.2c-0.1,0.1-0.1,0.1-0.2,0.2
				C134,208.8,132.9,207.8,133.6,207z"/>
			<g id="XMLID_44_">
				<path id="XMLID_48_" class="st4" d="M178.8,212c-0.1,0-0.2,0-0.2-0.1c-0.6-2.4-1.3-4.7-2.1-6.9c0-0.1-0.1-0.1-0.1-0.2
					c4.9-2.6,9-6.7,10.8-12.1c0.4-1.3,0.7-2.6,0.9-3.8c0.7,0.3,1.7,0.2,2.4,0.1c0.4-0.1,0.7-0.2,1-0.5c-1.2,3.8-3.8,10.4,1.6,12.1
					c4.6,1.4,8.1-3.1,9.5-6.8c1.6-4.2,1.8-10.6-1.9-13.8c-1.6-1.4-3.7-2-5.7-1.8c-1,0.1-2,0.5-2.9,1.1c-0.1,0-0.3,0.2-0.5,0.4
					c0,0,0-0.1,0-0.1c-0.2-0.8-0.8-1.4-1.6-1.4c-0.6,0-1.3,0.2-1.9,0.4c-0.4,0.1-0.8,0.2-1.2,0.3c-1.6-3.5-4.4-6.5-8.3-8.3
					c-8.5-4-20.6-4.2-28.5,1.2c-1.8,1.2-3.4,2.7-4.6,4.4c-1-1.4-3.2-2.8-4.4-1.2c-0.3,0.4-0.5,0.8-0.5,1.2c-5-4.4-14.4-0.7-15.5,6.1
					c-0.6,3.6,1.5,7.4,5.3,8.1c1.6,0.3,3.2-0.2,4.5-1.2c0.6-0.5,1.1-1.2,1.4-1.9c0.3-0.7,0.3-1.7,0.6-2.5c1.2,1.1,3.4,1.6,4.7,1.4
					c-0.4,3,0,6.1,1,9c1.9,5.1,6.1,9.1,11.1,11.2c0,0,0,0,0,0c-0.2,1-0.5,2-0.7,3c-0.1,0-0.2,0.1-0.2,0.2c0,0.7-3.4,1.5-4,1.6
					c-1.3,0.3-2.7,0.4-4,0.2c-1.2-0.2-2.4-0.6-3.4-1.2c-0.9-0.6-1.5-1.5-2.3-2.3c0,0,0-0.1,0.1-0.1c0.7-1.4-0.2-3.1-1.7-3.5
					c-1.4-0.4-3.2,0.2-3.9,1.6c-0.8,1.4,0,3,1.4,3.5c1.2,0.5,2.5,0,3.3-0.8c0.7,2.6,4.5,3.9,6.9,4.1c1.7,0.2,3.6-0.1,5.2-0.7
					c0.6-0.2,1.4-0.5,2.1-0.9c-1.4,6.2-2.9,12.4-4.3,18.6c-0.3,1.1-0.9,2.6-0.5,3.8c0.3,0.9,1.2,1.4,1.9,1.9
					c2.2,1.4,4.8,2.1,7.3,2.5c-0.6,2.4-1,4.9-1.4,7.4c-1-0.7-2.3-1.4-3.5-1.2c-1,0.1-1.9,1-1.7,2.1c0.2,1.1,1.5,1.5,2.5,1.6
					c1.3,0.1,2.3-0.3,3.2-1.1c0.3,0.1,0.6-0.1,0.6-0.4c0.4-2.7,0.8-5.4,1.1-8.2c4.1,0.7,8.3,0.7,12.4,0.1c0.2,2.4,0.5,4.8,0.8,7.2
					c0,0.3,0.2,0.5,0.4,0.5c0,0.2,0.1,0.4,0.3,0.5c1,0.3,5.5,0.9,4.7-1.4c-0.5-1.5-2.9-1-4.2-0.2c-0.3-2.3-0.7-4.5-1-6.8
					c1.6-0.3,3.2-0.6,4.8-1.1c1.5-0.4,2.9-0.9,4.3-1.5c0.9-0.4,2.1-0.7,2.5-1.6c0.5-1,0-2.6-0.2-3.6c-0.3-1.6-0.6-3.3-0.9-4.9
					c-0.8-4-1.5-8.1-2.5-12.1c0,0,0,0,0,0 M190.6,184.3c0.1-0.2,0.2-0.4,0.2-0.6c0-0.6-0.3-1.1-0.8-1.4c0.2-0.1,0.4-0.2,0.6-0.4
					c0.1-0.1,0.2-0.1,0.2-0.2c0.6-0.6,1.2-1.2,2.1-1.6c1.8-0.9,4-0.9,5.8,0.1c3.7,2.2,4.1,7.6,3.2,11.4c-0.8,3.4-3.4,8.4-7.5,8.2
					c-5.9-0.2-2.6-8-1.7-11.2c0.1-0.4-0.2-0.7-0.6-0.7c0.1-0.2,0.2-0.4,0.2-0.7C192.5,185.7,191.7,184.7,190.6,184.3z M188.2,187.8
					c0.1-1,0.1-1.9,0-2.9c0.5,0.2,1,0.3,1.5,0.1c0.1,0,0.2-0.1,0.2-0.1c0.1,0,0.2,0.1,0.3,0.1c0.6,0.4,1.2,1.2,1,1.9
					c-0.2,0.7-1,1-1.6,1C189.1,188,188.6,187.9,188.2,187.8z M187.9,182.9c0.7,0.1,1.8-0.2,2,0.7c0,0.2,0,0.4-0.1,0.5
					c-0.6-0.1-1.1-0.1-1.7,0.1C188,183.7,187.9,183.3,187.9,182.9z M187,179.8c1.3-0.4,3.2-1.2,3.4,0c0.1,0.3,0,0.6-0.1,0.9
					c-0.2,0.2-0.4,0.5-0.5,0.6c-0.3,0.2-0.7,0.4-1.1,0.5c-0.4,0-0.7,0-1,0.2C187.5,181.3,187.2,180.5,187,179.8z M172.5,245.4
					c0.2-0.1,0.4-0.2,0.6-0.3c0.3-0.1,0.5-0.2,0.8-0.2c0.1,0,1.1-0.2,1.1,0.1C175,245.4,173.5,245.4,172.5,245.4z M155.1,246.1
					c-0.5,0.2-1.1,0.3-1.7,0.4c-0.4,0-0.8,0-1.1-0.1c-0.3-0.1-1.2-0.3-1.1-0.8C151.3,244,154.1,245.8,155.1,246.1z M137.8,207.1
					c0,0.1-0.1,0.2,0,0.3c-0.6,0.6-1.4,1.1-2.2,0.9c-0.9-0.1-1.6-1-1.3-1.9C135,204.8,138.7,205.1,137.8,207.1z M144.5,177.1
					c-0.5,0.7-0.9,1.4-1.3,2.2c-1-0.8-2.6-1.9-1.9-3.4C142.1,174.3,143.6,176.1,144.5,177.1z M186.7,184.8c-0.3,0-0.5,0.1-0.8,0.2
					c-0.2,0.1-0.4,0.2-0.6,0.3c-3.3,0.2-6.6,1-10,1.2c-3.5,0.2-7,0.2-10.6-0.1c-7.3-0.5-14.3-2.3-21.2-4.5
					c1.8-4.8,5.5-8.9,10.5-10.9c4.2-1.7,8.9-2.1,13.4-1.7c4.5,0.4,9.4,1.5,13.1,4.2C184.4,176.3,186.4,180.5,186.7,184.8z
					 M154.6,206.8c2.6,0.9,5.3,1.2,8.1,1c4.4,0.3,9-0.6,13-2.5c1,6.4,2.7,12.6,4,18.9c0.3,1.4,0.6,2.8,0.8,4.3
					c0.2,1.1,1.2,3.9,0.3,4.7c-0.9,0.8-2.8,1.2-4,1.6c-1.3,0.4-2.5,0.8-3.8,1.1c-5.4,1.2-11.2,1.4-16.6,0.3c-1.2-0.2-2.5-0.5-3.7-1
					c-1-0.3-3.2-1.1-3.7-2c-0.7-1.2,0.4-3.6,0.7-4.8c0.3-1.4,0.7-2.9,1-4.3C152,218.2,153.3,212.5,154.6,206.8z M143.3,183.1
					c6.7,2.7,13.9,4,21.1,4.6c3.8,0.3,7.6,0.3,11.4,0.1c3.4-0.2,7.4-0.4,10.6-1.6c0.1-0.1,0.2-0.1,0.2-0.3c0.1,0,0.1,0,0.2-0.1
					c0.1,3.4-0.7,6.8-2.4,9.8c-4.1,7.3-12.5,10.5-20.5,11.2c-0.1-0.3-0.3-0.5-0.7-0.5c-9.4,1.2-19-5.4-20.6-14.9
					C142.3,188.5,142.5,185.7,143.3,183.1z M141.8,182c-0.2-0.1-0.4-0.2-0.5-0.4c-0.3-0.3-0.7-0.7-0.7-1.1c0.1-1,1.1-0.9,1.9-0.6
					c0.1,0.1,0.2,0.1,0.3,0.2c0,0,0,0,0,0c-0.3,0.6-0.5,1.3-0.8,1.9c0,0-0.1,0-0.1,0c0,0,0,0,0,0C142,182,141.9,182,141.8,182z
					 M137.1,183c-0.1-0.5,0.1-0.8,0.5-0.8c0.5-0.2,1-0.2,1.5-0.1c0.6,0.1,1.2,0.3,1.8,0.6c0.1,0,0.1,0.1,0.2,0.1
					c0.2,0.1,0.4,0.2,0.7,0.3c-0.2,0.6-0.3,1.3-0.4,1.9c-0.6-0.1-1.2-0.1-1.8-0.2c-0.7-0.2-1.5-0.5-2.1-0.9
					C137,183.8,136.9,183.5,137.1,183z M126.1,181.8c1.6-6.3,10.2-8.5,14.5-3.8c0.2,0.3,0.4,0.6,0.7,0.8c-0.2,0-0.3,0-0.5,0.1
					c-0.8,0.3-1.3,1-1.2,1.9c0,0.2,0.1,0.4,0.2,0.6c-0.6-0.2-1.3-0.3-1.9-0.2c-1,0.1-2.1,0.6-2.2,1.8c0,0.3,0,0.6,0.1,0.8l0,0
					c-0.7,0.9-0.5,1.9-0.9,2.9c-0.6,1.4-2.1,2.4-3.7,2.5C127.3,189.2,125.3,185.1,126.1,181.8z M178.3,212.6c1.2,2.5,3,4.9,5.5,6.2
					c1.9,1,4.6,1.5,6.5,0.4c0.4,1.1,1.6,1.9,2.8,1.5c1.5-0.4,2.3-2,1.8-3.4c-0.5-1.4-2-2.3-3.5-1.8c-1.1,0.4-1.9,1.6-1.4,2.7
					c-2.1,0.4-4,0.5-6-0.7c-2.3-1.3-3.7-3.5-5.2-5.6 M193.9,217.7c0.3,0.8-0.1,1.8-0.9,2.1c-0.8,0.3-1.6-0.4-1.7-1.2
					c0-0.3-0.3-0.5-0.5-0.5C190.3,216.3,193.2,215.9,193.9,217.7z"/>
				<path id="XMLID_47_" class="st4" d="M153.3,196.9c3.1,2.8,6.7,4.6,11,4.6c4.4,0,8.2-2.1,11.4-5c0.5-0.5,1.2,0.2,0.8,0.7
					c-5.6,7.3-17.9,7.5-24.1,0.7C151.7,197.2,152.6,196.3,153.3,196.9z"/>
				<path id="XMLID_46_" class="st4" d="M168.4,191.3c0.1-0.1,0.3-0.1,0.4,0c0.8,0.4,1.1,1.5,0.5,2.1c-0.6,0.7-1.9,0.6-2.2-0.4
					C166.9,192.1,167.5,191.2,168.4,191.3z"/>
				<path id="XMLID_45_" class="st4" d="M159.6,192.7c0.3-0.7,1.3-1,1.8-0.5c0.5,0.2,0.8,0.8,0.7,1.3c-0.1,0.7-0.9,1.1-1.6,0.9
					C159.7,194.3,159.2,193.5,159.6,192.7z"/>
			</g>
		</g>
		<path id="XMLID_139_" class="st4" d="M248.6,197.4c-0.4-20.2,2.6-35,9.7-48.1c6.6-12.1,16.7-22.7,33.7-35.5
			c10.1-7.4,18.8-12.1,26.4-16.3c18.3-10,28.4-15.5,29-44.4l1.5,0c-0.3,14.1-2.8,23.4-8.2,30.2c-5,6.4-12.4,10.4-21.6,15.5
			c-7.6,4.1-16.2,8.8-26.2,16.2c-33.1,24.8-43.5,44.8-42.8,82.3L248.6,197.4z"/>
		<path id="XMLID_140_" class="st4" d="M134.1,207.5c-1.9-1.1-3.7-2.1-5.5-3.1c-17.1-9.6-29.5-16.6-34.1-38.4
			c-1-4.2-1.6-8.5-2.2-12.8c-1.9-12.9-3.8-25-13.6-33.9c-5.2-4.8-10.2-8.6-15-12.2c-13-9.9-23.3-17.7-28.2-38.6l1.7-0.4
			C42,88.4,52,96,64.7,105.7c4.8,3.7,9.8,7.5,15.1,12.3c10.3,9.3,12.3,22.3,14.2,34.9c0.6,4.2,1.3,8.5,2.2,12.6
			c4.5,21,16.6,27.8,33.3,37.2c1.8,1,3.6,2,5.5,3.1L134.1,207.5z"/>
	</g>
	<g id="XMLID_34_">
		<path id="XMLID_39_" class="st8" d="M374.3,27.3c-0.9-1.3-1.8-2.7-2.8-4c1.2,0.6,3-0.7,2.1-2.1c-0.9-1.3-1.7-2.5-2.6-3.8
			c0.7-0.4,1.2-1.2,0.6-2.1c-1.7-2.5-3.9-4.5-6.7-5.7c-0.8-0.4-1.6-0.1-2.1,0.5c-0.4-0.4-0.8-0.9-1.3-1.3c-0.9-0.9-2.5-0.1-2.5,1
			c-0.6-0.6-1.2-1.2-1.8-1.8c-0.8-0.8-1.9-0.4-2.3,0.4c-0.5-0.4-1-0.9-1.5-1.3c-1-0.8-2.5,0.4-2.2,1.5c-0.6-0.7-1.3-1.5-1.9-2.2
			c-1.1-1.2-3.2,0.3-2.3,1.7c1,1.6,2.1,3.1,3.2,4.6c-1-1.1-2-2.3-3-3.4c-1-1.2-3.1,0.2-2.3,1.6c-0.5-0.6-1-1.2-1.5-1.7
			c-1.2-1.4-3.1,0.5-2,1.9c0.3,0.5,0.7,1,1,1.4c-0.3-0.3-0.5-0.6-0.8-0.9c-1-1.1-3,0.3-2.1,1.6c0.9,1.4,1.8,2.9,2.8,4.3
			c-0.8-0.9-1.5-1.7-2.3-2.6c-0.9-1.1-2.9,0.3-2,1.5c0.5,0.7,1,1.4,1.5,2.1c0,0-0.1-0.1-0.1-0.1c-0.9-1.1-2.8,0.3-2,1.5
			c1.1,1.8,2.3,3.5,3.5,5.3c-0.8-0.9-1.6-1.8-2.5-2.8c-0.9-1-2.7,0.3-1.9,1.4c1.2,1.7,2.5,3.4,3.7,5.1c-0.6-0.8-1.3-1.6-1.9-2.4
			c-0.8-1-2.5,0.3-1.7,1.3c1.5,2.1,3.1,4.3,4.6,6.4c-0.6-0.6-1.2-1.1-1.8-1.7c-1-0.9-2.2,0.4-1.5,1.4c0.9,1.3,1.9,2.6,2.8,3.8
			c-0.6,0.1-1,0.8-0.6,1.4c2.2,3.6,4.6,7,7.4,10.1c-0.7,0.2-1.2,0.9-0.7,1.7c0,0,0,0.1,0,0.1c-0.4,0.2-0.7,0.8-0.2,1.3
			c0.3,0.3,0.7,0.6,1,0.9c0.3,0.4,0.8,0.4,1.2,0.2c0.1,0.1,0.1,0.2,0.2,0.2c0.6,0.7,2,0.4,2.2-0.5c0.2-1.1,0.1-2.8-1.2-3.1
			c-0.3-0.1-0.5,0-0.8,0.1c-0.1-0.1-0.2-0.2-0.2-0.2c0.2-0.3,0.3-0.7,0.1-1c0,0-0.1-0.1-0.1-0.1c0.8,0.3,1.7-0.8,1.1-1.6
			c-0.6-0.8-1.2-1.6-1.8-2.4c1,1.1,1.9,2.3,2.9,3.4c0.8,0.9,2.4-0.3,1.7-1.2c-0.1-0.1-0.1-0.2-0.2-0.3c0.4,0.4,0.9,0.9,1.4,1.3
			c0.9,0.8,2.6-0.2,1.8-1.3c-1.1-1.6-2.3-3.2-3.4-4.7c1.4,1.6,2.9,3.3,4.3,4.9c0.8,0.9,2,0.1,2-0.9c0.2,0.3,0.4,0.5,0.6,0.8
			c0.9,1.1,2.8-0.3,2-1.4c-2-2.8-3.9-5.5-5.9-8.3c1.8,2.1,3.7,4.2,5.5,6.3c1.1,1.3,3-0.5,2-1.9c-1.4-1.7-2.7-3.4-4-5.1
			c1.8,2.1,3.6,4.2,5.4,6.3c1.2,1.4,3-0.5,2-1.9c-1.7-2.3-3.4-4.7-5.1-7c1.8,2,3.6,4.1,5.4,6.1c0.9,1,2.3,0.2,2.4-0.8
			c1.1,0.4,2.3-0.9,1.7-2c-0.5-1-0.9-1.9-1.5-2.9c0,0,0.1,0.1,0.1,0.1c1.1,1.2,3.4-0.4,2.4-1.7c-0.1-0.2-0.2-0.3-0.3-0.5
			c0.9-0.1,1.7-1.2,1.2-2.1c0,0,0,0,0,0C373.6,29.8,375.1,28.5,374.3,27.3z"/>
		<path id="XMLID_35_" class="st4" d="M372,15.4c-4.3-7.5-14.4-10.3-22.6-8.9C340.6,8,335.9,16.8,336,25.3
			c0.1,8.1,3.7,19.8,11.4,24.1c-0.9,0.5-1.7,1.1-2.4,1.8c-0.3,0.3-0.3,1,0.1,1.2c0.8,0.4,1.6,0.7,2.4,1c-0.1,0.1-0.2,0.2-0.3,0.3
			c0.2,0,0.4,0,0.6,0c0.2,0,0.4,0.1,0.7,0.1c0,0,0-0.1,0.1-0.1c0,0,0.1,0,0.1,0c0.8,0.2,1.9,0.7,2.7,0.4c1.5-0.7,0.1-3.1-0.6-4.3
			c8.2-1.7,16.1-6,20.6-13.2C375.3,30.3,375.7,21.9,372,15.4z M350,52.5c-1.1-0.3-2.2-0.6-3.3-1.1c0.6-0.6,1.2-1,1.9-1.5
			c0.2,0.1,0.4,0.2,0.6,0.2c0.2,0.5,0.5,0.9,0.7,1.4c0.1,0.3,0.3,0.7,0.4,1C350.3,52.6,350.2,52.6,350,52.5z M370.3,34.7
			c-4.2,7.4-12.3,11.7-20.4,13.4c-0.3,0.1-0.5,0.2-0.6,0.4c0,0-0.1,0-0.1,0c-0.1,0-0.1,0-0.2,0.1c-6.1-4.7-9.5-11.4-10.8-19
			c-1.4-8.1,1.1-18.3,10-21c7.2-2.2,17.6,0.3,21.8,6.9C373.6,21.2,373.5,28.9,370.3,34.7z"/>
	</g>
	<g id="XMLID_15_">
		<path id="XMLID_33_" class="st9" d="M35.5,63.3c-0.5-0.3-1-0.5-1.5-0.7c0.4-0.3,0.4-0.9-0.1-1.1c-0.4-0.1-0.7-0.2-1.1-0.3
			c0.5,0.1,1,0.1,1.5,0.2c0.9,0.1,1.1-1.1,0.3-1.5c-0.9-0.4-1.9-0.8-2.8-1.1c0.6,0,1.3,0,1.9,0c0.9,0,1.1-1.4,0.1-1.5
			c-1.5-0.1-3-0.4-4.4-0.8c1.2,0.1,2.3,0.1,3.5,0.1c1,0,1.1-1.3,0.2-1.5c-1.7-0.4-3.7-0.6-5.5-1c1.7,0.2,3.5,0.5,5.2,0.3
			c0.9-0.1,0.7-1.4-0.1-1.5c-1-0.2-2-0.4-3-0.6c0.6-0.2,0.8-1.2,0-1.5c-0.7-0.3-1.4-0.6-2.1-0.9c0.5-0.3,0.6-1.1,0.1-1.4l-1.4-0.9
			c-0.7-0.4-1.4,0.2-1.3,0.8c-0.3,0.1-0.6,0.2-1,0.3c-0.5,0.2-0.5,0.7-0.4,1c-1.1-0.1-2.1-0.2-3.2-0.2c-0.9,0-1.3,1.2-0.4,1.6
			c1.3,0.5,2.7,1,4,1.4c-0.4,0-0.8,0-1.3,0.1c-0.6,0.1-0.9,1-0.3,1.3c0.7,0.4,1.5,0.7,2.2,1c-0.4,0.3-0.6,0.9-0.1,1.2
			c0.8,0.5,1.7,0.9,2.6,1.2c-0.5,0.3-0.5,1,0.1,1.3c0.5,0.2,1.1,0.4,1.6,0.7c-0.5-0.1-1.1-0.1-1.6-0.2c-0.8-0.1-1,1-0.3,1.3
			c0.7,0.3,1.4,0.6,2.1,0.9c-0.3,0.3-0.2,0.9,0.3,1.1c0.6,0.2,1.2,0.3,1.8,0.6c-0.5,0.3-0.5,1.1,0.1,1.4c1.2,0.5,2.4,1,3.7,1.4
			c0.4,0.1,0.8-0.5,0.4-0.7c-0.2-0.1-0.3-0.2-0.5-0.3c0.1,0,0.2,0,0.3,0C36.2,64.7,36,63.6,35.5,63.3z"/>
		<path id="XMLID_32_" class="st9" d="M49,43.4c-2.8-1.5-5.5-3-8.3-4.5c1.9,0.8,3.8,1.6,5.7,2.5c0.9,0.4,1.7-1,0.8-1.5
			c-2.4-1.3-4.7-2.6-7.1-3.9c0.6,0.2,1.2,0.5,1.8,0.7c0.9,0.4,1.7-1,0.8-1.5c-2-1.2-4-2.4-6-3.5c0.5,0.1,1,0.3,1.6,0.4
			c1,0.3,1.6-1.2,0.6-1.6c-1.3-0.5-2.6-1.2-3.8-1.8c0.2,0,0.4,0.1,0.6,0.1c1.1,0.2,1.6-1.2,0.6-1.6c-1.3-0.6-2.5-1.2-3.7-1.9
			c0.2,0,0.3,0.1,0.5,0.1c0.8,0.2,1.6-0.8,0.7-1.4c-0.7-0.4-1.3-0.8-2-1.3c0.5-0.2,0.8-0.9,0.2-1.3c-0.9-0.5-1.7-1-2.6-1.5
			c-0.8-0.5-1.7,0.7-0.9,1.2c0.1,0.1,0.3,0.2,0.4,0.3c-0.5,0.2-0.7,0.9-0.2,1.3c0.5,0.3,1,0.6,1.5,1c-0.2,0-0.4,0-0.6,0.1
			c-0.7,0.1-0.8,1-0.3,1.4c0.5,0.3,1,0.7,1.5,1c0,0,0,0,0,0c-0.9-0.1-1.3,1.1-0.6,1.6c0.5,0.4,1.1,0.7,1.6,1.1
			c-0.1,0-0.3-0.1-0.4-0.1c-0.8-0.2-1.7,0.9-0.8,1.5c1,0.6,2.1,1.2,3.1,1.8c-0.7-0.2-1.3-0.4-2-0.6c-0.9-0.2-1.7,1-0.8,1.5
			c1.3,0.7,2.7,1.5,4,2.2c-1-0.3-1.9-0.5-2.9-0.8c0,0,0,0,0,0l0,0c-0.1,0-0.1,0-0.2,0c-0.8-0.2-1.2,1.1-0.6,1.5
			c0.4,0.2,0.8,0.5,1.2,0.7c-0.1,0-0.2-0.1-0.2-0.1c-0.3-0.1-0.6,0.3-0.4,0.5c0.8,0.9,1.5,1.8,2.3,2.7c-0.5-0.1-0.9-0.2-1.4-0.3
			c-0.4-0.1-0.8,0.5-0.4,0.8c0.2,0.5,0.3,1,0.5,1.6c-0.1,0.1,0,0.3,0.2,0.3c1.1,0,1.1-0.7,0.8-1.4c0.5,0.1,1.1,0.3,1.6,0.4
			c0.5,0.1,1-0.4,0.6-0.8c-0.8-0.9-1.6-1.7-2.4-2.5c0.1,0,0.1,0.1,0.2,0.1c1.3,1.4,2.9,2.5,5,2.7c0.2,0,0.4-0.1,0.6-0.2
			c0.2,0.1,0.5,0.2,0.7,0.4c1.1,0.7,2.2,1.3,3.3,2c-0.6-0.2-1.3-0.5-1.9-0.8c-0.7-0.4-1.3,0.8-0.7,1.2c0.9,0.8,1.9,1.4,2.9,2.1
			c0.5,0.3,1.1-0.2,1-0.7c0.7,0.1,1.3,0.2,2,0.2c0.4,0,0.8-0.4,0.8-0.8c0.4,0.2,0.8,0.3,1.2,0.5C49.1,44.5,49.5,43.7,49,43.4z"/>
		<path id="XMLID_31_" class="st3" d="M32,38.8c-0.6-0.4-1.1-0.9-1.7-1.3c0.8,0.2,1.3-1,0.6-1.6c-0.5-0.4-1-0.9-1.5-1.3
			c0.8,0.1,1.4-0.9,0.8-1.5c-0.2-0.2-0.3-0.3-0.5-0.5c0.7,0.3,1.5-0.6,1.1-1.2c-0.6-1-1.3-2-2.1-2.8c0.7,0,1.2-0.8,0.7-1.4
			c-0.4-0.5-0.8-1-1.2-1.5c0.1,0,0.2,0,0.3,0.1c0.6,0.1,1.3-0.7,0.9-1.3c-0.2-0.4-0.4-0.7-0.7-1.1c-0.6-0.9-2-0.4-1.8,0.5
			c-0.2,0-0.5,0-0.7,0.1c-0.7,0.1-0.9,0.9-0.5,1.5c0.3,0.4,0.6,0.7,0.9,1.1c-0.2,0-0.4,0-0.7,0c-0.8,0-0.9,1.1-0.4,1.6
			c0.7,0.5,1.4,1.1,2,1.8c-0.6-0.2-1.2-0.4-1.8-0.6c-0.9-0.3-1.6,0.9-0.8,1.5c0.1,0.1,0.2,0.1,0.3,0.2c-0.2-0.1-0.3-0.1-0.5-0.2
			c-1-0.4-1.6,1-0.9,1.6c0.3,0.3,0.6,0.5,0.9,0.7c-0.1,0-0.1-0.1-0.2-0.1c-0.9-0.5-1.8,0.6-1,1.4c-0.4,0.2-0.6,0.8-0.3,1.2
			c0.3,0.3,0.5,0.6,0.8,0.9c-0.3-0.1-0.5-0.3-0.8-0.4c-0.8-0.4-1.5,0.7-1,1.3c0.2,0.3,0.5,0.5,0.7,0.8c-0.2,0-0.4-0.1-0.6-0.1
			c-0.9-0.2-1,1-0.5,1.4c0.4,0.3,0.7,0.6,1.1,1c-0.5-0.2-0.9-0.3-1.4-0.5c-0.7-0.2-1.4,0.6-0.9,1.2c0.4,0.4,0.7,0.8,1.1,1.1
			c-0.1,0-0.2-0.1-0.3-0.1c-0.8-0.3-1.4,0.8-0.7,1.3c0.3,0.3,0.7,0.5,1,0.8c-0.4-0.1-0.9-0.3-1.3-0.4c-0.6-0.2-1.4,0.6-0.8,1.2
			c0.4,0.4,0.8,0.7,1.2,1.1c-0.4-0.1-0.7-0.1-1.1-0.2c-0.6-0.1-1.1,0.7-0.6,1.2c0.1,0.2,0.3,0.3,0.4,0.4c-0.2,0-0.3,0-0.5,0
			c-0.5,0-0.7,0.7-0.4,1c0.5,0.5,0.6,0.6,1.3,0.7c0.3,0.1,0.5-0.2,0.5-0.4c0.4,0,0.7,0,1.1,0c0.5,0,0.8-0.4,0.7-0.9
			c0.4,0.1,0.7,0.2,1.1,0.3c0.8,0.3,1.3-0.8,0.7-1.3c-0.3-0.2-0.6-0.5-0.8-0.7c0.6,0.2,1.2,0.4,1.8,0.6c0.8,0.3,1.4-0.8,0.7-1.3
			c-0.2-0.2-0.5-0.4-0.7-0.6c0.3,0.1,0.6,0.2,0.9,0.3c0.8,0.3,1.5-0.9,0.7-1.3c-0.7-0.5-1.4-1-2.1-1.5c0.5,0.2,0.9,0.3,1.4,0.5
			c0.9,0.3,1.3-0.8,0.7-1.3c-0.3-0.3-0.7-0.6-1-0.9c0.2,0.1,0.5,0.3,0.7,0.4c0.8,0.5,1.6-0.4,1.2-1.1c0.4,0.2,0.7,0.4,1.1,0.6
			c0.7,0.4,1.2-0.4,1.1-1c0.5,0.2,0.9,0.5,1.4,0.7C32.1,40.7,32.8,39.4,32,38.8z"/>
		<path id="XMLID_30_" class="st3" d="M47,44.7c-0.1,0.1-0.2,0.3-0.2,0.4c-0.3,0-0.5,0-0.8-0.1c-0.4,0-0.8,0.2-1,0.5
			c-0.8-0.2-1.6-0.3-2.4-0.4c-0.7-0.1-1.2,0.6-1.1,1.2c-0.2,0-0.4-0.1-0.7-0.1c-0.9-0.1-1.5,1.2-0.6,1.7c0.1,0,0.2,0.1,0.2,0.1
			c-0.6,0.2-0.8,1.1-0.2,1.5c0.2,0.1,0.3,0.2,0.5,0.3c-0.7-0.1-1.3-0.3-2-0.4c-0.9-0.2-1.4,1.2-0.6,1.7c0.3,0.2,0.5,0.3,0.8,0.5
			c-0.4-0.1-0.8-0.2-1.2-0.3c-1-0.2-1.2,1.2-0.5,1.7c-0.7-0.2-1.4-0.4-2-0.6c-0.8-0.2-1.5,0.8-0.7,1.3c0.6,0.4,1.3,0.8,1.9,1.2
			c-0.1,0-0.2,0-0.3-0.1c-0.7-0.2-1.2-0.2-1.9,0c-0.5,0.2-0.5,0.9-0.1,1.2c1.2,0.7,2.4,1.4,3.6,2.2c-0.8-0.2-1.6-0.3-2.4-0.4
			c-0.6-0.1-0.8,0.7-0.4,1.1c0.8,0.7,1.7,1.4,2.6,2c-0.5,0-1-0.1-1.5-0.1c-0.6-0.1-0.9,0.8-0.4,1.1c0.4,0.3,0.7,0.6,1,0.9
			c-0.2,0-0.5-0.1-0.7-0.1c-0.6,0-1,0.6-0.6,1.1c0.4,0.5,0.8,0.9,1.2,1.4c0.5,0.5,1.2-0.1,0.8-0.7l-0.2-0.3c0.2,0,0.5,0,0.7,0.1
			c0.5,0,0.9-0.5,0.7-0.9c-0.3-0.5-0.5-0.9-0.9-1.3c0.5,0,1,0,1.5,0.1c0.5,0,0.8-0.6,0.4-1c-0.7-0.6-1.5-1.2-2.2-1.8
			c1.2,0.3,2.3,0.6,3.5,1.1c0.5,0.2,1.1-0.5,0.7-1c-1.1-1-2.2-1.9-3.4-2.7c0,0,0,0,0,0c0.9,0.2,1.9,0.5,2.8,0.7
			c0.7,0.2,1.4-0.8,0.7-1.3c-0.3-0.2-0.7-0.4-1-0.6c0.7,0.2,1.5,0.4,2.2,0.7c0.9,0.3,1.6-0.9,0.8-1.5c-0.2-0.1-0.4-0.3-0.6-0.4
			c0.3,0.1,0.6,0.1,0.9,0.2c1,0.2,1.8-1,0.9-1.6c-0.3-0.2-0.6-0.4-0.8-0.5c0.5,0.1,1,0.2,1.5,0.3c0.9,0.2,1.3-1.2,0.6-1.6
			c-0.2-0.1-0.4-0.3-0.6-0.4c0.6,0.1,1.2-0.6,1.1-1.2c0.8,0.2,1.5-0.8,1.1-1.5c0.3-0.1,0.6-0.4,0.7-0.7c0.8-0.1,1.2-0.9,0.9-1.6
			C49.5,44.7,47.8,43.6,47,44.7z"/>
		<path id="XMLID_29_" class="st10" d="M40.1,94c0.6,0.1,1.3-0.8,0.7-1.3c-0.8-0.8-1.7-1.5-2.6-2.2c0.8,0.1,1.3-0.9,0.6-1.5
			c-0.5-0.4-1.1-0.8-1.7-1.3c0,0,0.1,0,0.1,0c0.8,0.2,1.3-0.7,1-1.2c-0.1-0.1-0.2-0.2-0.3-0.3c-0.1,0-0.1-0.1-0.2-0.1
			c-0.7-0.2-1.4-0.5-2.1-0.7c0.9,0.1,1.4-1.2,0.5-1.5c-0.8-0.3-1.6-0.6-2.4-1c0.4-0.3,0.5-1.1-0.2-1.4c-0.3-0.1-0.5-0.2-0.8-0.3
			c-0.9-0.4-1.8-0.7-2.7-1.2c0.7-0.2,0.9-1.3,0.1-1.6c-1.1-0.4-2.2-0.9-3.3-1.5c0.1-0.4,0-0.8-0.5-1c-0.9-0.3-1.7-0.7-2.5-1.1
			c0.3-0.4,0.2-1-0.3-1.3c-0.6-0.3-1.6-0.7-2.1-1.1c-0.5-0.4-0.5-0.8-0.9-1.3c-0.2-0.2-0.3-0.4-0.5-0.5c0.6-0.2,0.9-1,0.3-1.4
			c-0.5-0.4-1-0.7-1.5-1c0.2-0.2,0.2-0.5,0.1-0.8c-0.5-0.9-1-1.7-1.5-2.6c0.2-0.1,0.4-0.1,0.6-0.2c0.6-0.2,0.6-1.2,0.1-1.5
			c-0.2-0.1-0.4-0.3-0.6-0.4c0-0.1,0.1-0.1,0.1-0.2c0.2-0.2,0.2-0.6,0.1-0.8c-0.2-0.3-0.3-0.6-0.5-0.8c0.1-0.1,0.1-0.1,0.2-0.2
			c0.2-0.2,0.3-0.5,0.3-0.7c-0.4-1.9-0.4-3.6-0.2-5.5c0.1-1-1.5-1.2-1.6-0.2c-0.2,1.1-0.2,2.3-0.2,3.4c0.1,1.1,0.4,1.8-0.2,2.7
			c-0.3,0.4-0.1,0.8,0.2,1.1c0.5,0.5,0.3,0.5,0.1,1.1c-0.1,0.3,0,0.6,0.1,0.8c0,0,0,0,0,0c-0.4,0.1-0.6,0.8-0.4,1.2
			c0.5,0.9,1.1,1.8,1.7,2.7c-0.1,0.1-0.2,0.3-0.4,0.5c-0.3,0.4-0.1,1,0.4,1.2c0.2,0.1,0.5,0.2,0.7,0.3c0,0,0,0-0.1,0
			c-0.6,0.3-0.6,1.2,0.1,1.5c1.3,0.5,1.4,1.6,2.3,2.5c0.2,0.2,0.4,0.3,0.6,0.5c-0.1,0.3-0.1,0.7,0.2,0.9c0.8,0.6,1.7,1.1,2.6,1.5
			c0,0.2,0.1,0.3,0.3,0.5c0.7,0.5,1.4,0.9,2.1,1.3c-0.4,0.3-0.4,1,0,1.3c0.9,0.6,1.9,1.1,2.8,1.6c-0.1,0.3,0,0.7,0.3,0.9
			c0.7,0.4,1.4,0.8,2.1,1.2c0,0,0,0,0,0c-0.7,0-1.3,1-0.6,1.5c0.3,0.2,0.7,0.4,1,0.6c-0.1,0.3-0.1,0.7,0.3,1c0.5,0.3,1,0.6,1.5,0.9
			c-0.8-0.1-1.4,1-0.6,1.5c1.1,0.7,2.2,1.4,3.3,2.2c-0.5-0.2-1.1-0.3-1.6-0.5c-0.8-0.2-1.6,0.9-0.7,1.4c0.3,0.2,0.6,0.4,0.9,0.6
			c0,0,0,0-0.1,0c-0.1,0-0.2-0.1-0.3-0.1c-0.6-0.1-1.1,0.5-0.7,1c0.2,0.3,0.5,0.6,0.7,0.8c0,0.1,0.1,0.2,0.2,0.3
			c-0.1,0-0.2,0.1-0.3,0.1c-0.3,0.1-0.5,0.5-0.3,0.8c0.3,0.6,0.7,1.2,1,1.8c0.3,0.5,0.9,0.2,0.8-0.4c-0.1-0.4-0.2-0.7-0.3-1
			c0,0,0-0.1,0-0.1c0.1,0,0.2,0.1,0.3,0.1c0.4,0.1,0.8,0.1,1.2-0.2c0.3-0.2,0.3-0.6,0.1-0.9c0,0,0-0.1,0-0.1c0,0,0,0,0-0.1
			c1.2,0.5,2.3,1.1,3.5,1.6c0.9,0.4,1.4-0.9,0.8-1.4C40.8,94.5,40.5,94.2,40.1,94z"/>
		<path id="XMLID_28_" class="st10" d="M77.4,78.8c-0.2-0.1-0.3-0.2-0.3-0.2c0.3-0.4,0.2-1.2-0.4-1.5c-0.4-0.2-0.7-0.3-1.1-0.4
			c0-0.2-0.1-0.4-0.3-0.5c-0.8-0.2-1.7-0.4-2.6-0.6c0.3-0.3,0.2-1.1-0.4-1.2c-1.1-0.2-2.2-0.4-3.3-0.6c0.2,0,0.5,0,0.7,0
			c0.9,0,1.1-1.4,0.1-1.5c-0.6-0.1-1.2-0.1-1.8-0.1c-1-0.1-2-0.2-3-0.4c0.3,0,0.6,0,0.9,0c0.9,0,0.8-1.5-0.1-1.5
			c-1.6-0.1-3.1-0.4-4.5-0.9c0.6-0.2,0.8-1.2,0.1-1.4c-1-0.3-1.9-0.6-2.9-1c0,0,0,0,0,0c0.4-0.3,0.3-0.9,0-1.2
			c-0.6-0.4-1.3-0.8-1.9-1.1c0,0,0,0,0.1-0.1c0.3-0.3,0.1-0.9-0.2-1.1c-0.3-0.2-0.6-0.4-0.9-0.6c0.3-0.3,0.4-0.8,0.1-1.2
			c-0.4-0.4-0.8-0.8-1.2-1c0.1-0.5,0-1.1-0.3-1.5c0.1-0.1,0.1-0.1,0.2-0.2c0.3-0.3,0.4-0.8,0.1-1.2c-0.5-0.5-0.9-0.9-1.5-1.3
			c0.7-1.3-0.6-3-0.2-4.7c0.2-1.1-1.5-1.3-1.8-0.2c-0.2,0.9-0.3,1.3-0.1,2.2c0.1,0.6,0.9,1.6,0.2,2.1c-0.6,0.4-0.3,1.2,0.3,1.5
			c0.4,0.2,0.8,0.5,1.2,0.8c-0.1,0.1-0.2,0.2-0.4,0.3C51.6,59,52,59.9,52.7,60c0,0.1,0,0.2,0,0.3c-0.5,0.4-0.3,1.2,0.2,1.5
			c0.3,0.1,0.5,0.3,0.8,0.4c-0.1,0.1-0.1,0.2-0.2,0.3c-0.2,0.4-0.2,0.9,0.2,1.2c0.4,0.2,0.7,0.5,1.1,0.7c0,0.1-0.1,0.1-0.1,0.2
			c-0.3,0.4-0.1,1,0.4,1.2c0.6,0.2,1.2,0.5,1.7,0.8c-0.1,0.1-0.2,0.2-0.3,0.2c-0.4,0.3-0.3,1.1,0.2,1.3c0.6,0.2,1.2,0.4,1.8,0.6
			c-0.5,0.3-0.4,1,0.1,1.3c0.6,0.3,1.1,0.6,1.7,0.8c-0.1,0-0.1,0-0.2,0c-0.8,0-0.8,1.3-0.1,1.5c0.5,0.2,1,0.3,1.5,0.5
			c-0.3,0.4-0.2,1,0.3,1.2c0.5,0.1,0.9,0.2,1.4,0.3c-0.5,0.4-0.5,1.2,0.2,1.4c0.6,0.2,1.2,0.3,1.8,0.4c-0.2,0.4-0.1,1.1,0.5,1.2
			c1.1,0.3,2.2,0.7,3.2,1.1c-0.3,0.3-0.4,0.9,0.1,1.1c0.5,0.4,1,0.7,1.6,1.1c-0.3,0.3-0.3,0.9,0.1,1.2c0.9,0.7,1.7,1.4,2.8,1.8
			c0.4,0.1,0.8-0.3,0.5-0.7c-0.4-0.4-0.8-0.8-1.2-1.1c0.6-0.1,0.7-1,0.2-1.3c-0.5-0.3-1-0.7-1.5-1c0.1,0,0.2,0,0.3,0
			c0.9,0.1,1.1-1.1,0.3-1.5c-0.2-0.1-0.3-0.1-0.5-0.2c1.2,0.2,2.3,0.5,3.5,0.9c0,0.1,0,0.1,0,0.2c0.1,0.4,0.3,0.7,0.6,1
			c0.2,0.1,0.3,0.2,0.5,0.3c0,0,0.1,0,0.1,0c0.1,0.1,0.2,0.2,0.3,0.3c0,0,0.1,0,0.1,0.1c0.3,0.1,0.7,0,0.8-0.3
			c0-0.1,0.1-0.1,0.1-0.2C77.8,79.5,77.8,79.1,77.4,78.8z"/>
		<path id="XMLID_27_" class="st11" d="M39.6,88c0,0,0-0.1-0.1-0.1c-0.2-0.2-0.3-0.4-0.5-0.6c0,0-0.2-0.2-0.3-0.3
			c-0.2-0.2-0.4-0.4-0.6-0.7c-0.2,0.5,0,1.1,0.6,1.4c0.4,0.2,0.7,0.4,0.9,0.7C39.6,88.2,39.6,88.1,39.6,88z"/>
		<path id="XMLID_26_" class="st11" d="M40,43.1c0.7-0.5,1-1.7,0-2.3c-0.9-0.6-1.6-0.7-2.6-0.6c-0.4,0-0.7,0.3-1,0.6
			c-0.2,0-0.4-0.1-0.6-0.1c-0.7-0.1-1.2,0.3-1.4,0.9c-0.3,0-0.6,0.1-0.8,0.3c-0.2-0.1-0.4-0.3-0.6-0.4c-0.9-0.7-1.9,0.1-2.1,0.9
			c-0.9-0.6-1.8-1.2-2.6-1.8c-1.4-1-2.7,1-1.5,2.1c0,0,0.1,0.1,0.1,0.1c-1-0.1-1.7,1.5-0.7,2.2c0.6,0.4,1.1,0.8,1.6,1.2
			c-0.5,0.3-0.8,1-0.3,1.6c2.2,2.2,4.6,4.2,7.5,5.4c0.4,0.2,1-0.4,0.6-0.8c-0.3-0.3-0.6-0.5-0.9-0.8c0.4-0.1,0.8-0.4,1-0.8
			c1,0.3,2.2-1,1.3-1.9l0,0c0.6-0.1,1-0.5,1.1-1.1c0.7,0.2,1.3-0.2,1.6-0.8c0.7-0.3,1.2-1.3,0.6-2.1c-0.2-0.3-0.4-0.6-0.6-0.8
			C39.9,43.7,40,43.4,40,43.1z"/>
		<g id="XMLID_16_">
			<path id="XMLID_17_" class="st4" d="M60.7,67.6c-6.3-5-5.9-14.5-9.5-21.3c-0.1-0.4-0.1-0.8-0.2-1.1c0-0.1-0.1-0.2-0.2-0.2
				c0-0.2,0-0.4-0.1-0.6c-7.3-8.9-14.5-17.8-21.8-26.7c-0.3-0.4-1.1-0.3-1.2,0.2c-1.6,5.5-3.2,11-5,16.5c-0.9,2.7-1.7,5.3-2.7,8
				c-0.8,2.4-2.4,5.2-2.3,7.7c0,0,0,0.1,0,0.1c0,0,0,0.1,0,0.1c-1.2,0.9-1.6,3.1-2,4.5c-0.5,1.9-0.7,3.9-0.6,5.9
				c0.1,4.2,1.4,8.3,3.6,11.9c2.7,4.2,6.9,7,10.2,10.7c4,4.5,5.3,9.8,5.2,15.6c0,0.3,0.2,0.5,0.5,0.5c-0.1,0.4,0.5,0.7,0.8,0.3
				c1-1.5,1.8-3.1,2.5-4.8c1.4,1,2.7,2,4.1,3c0.4,0.3,1-0.1,0.9-0.6c-0.7-3-1.7-5.8-3.1-8.3c0.1,0.1,0.2,0.2,0.3,0.2
				c-0.4-0.4-0.6-0.9-0.5-1.3c0,0,0-0.1-0.1-0.1c-0.2-0.2-0.3-0.4-0.5-0.6c0,0-0.2-0.2-0.3-0.3c-0.4-0.5-0.9-0.8-1.3-1.3
				c-0.1-0.2-0.2-0.3-0.3-0.5c-2.4-3.1-5.2-5.9-8.6-8.3c-4.1-3-7.8-6.2-9.2-11.3c-1.3-4.6-0.9-9.3-0.7-13.9c2.3,3,5.2,5.5,7.8,8.2
				c3,3.1,6.1,6.1,9.1,9.2c0,0,0,0,0,0c0.2,0.1,0.4,0.3,0.6,0.4c0.1,0,0.2,0,0.2,0c0,0,0.1,0,0.1,0c0-0.1,0-0.1,0-0.2
				c0.1,0,0.2-0.1,0.3-0.3c4.7-7.4,9-14.9,13-22.7c0.2,0.3,0.4,0.7,0.6,1c0,7.5,1.3,15.7,5.7,21.8c2.2,3.1,5.3,5.3,8.3,7.5
				c3.5,2.6,6.3,5.2,8.2,9.1c0.2,0.4,0.7,0.3,0.9,0c0,0.1,0,0.1,0.1,0.2c0.1,0.1,0.3,0.1,0.3,0l0,0c0.8-1.1,0.4-2.9,0.1-4.1
				c-0.3-1.3-0.6-2.6-1.3-3.7c1.7,1.3,3.2,2.6,4.5,4.3c0.3,0.4,1.1,0.2,1.1-0.3C78.5,72.5,66.4,72.1,60.7,67.6z M24.1,74.7
				c3.6,3.1,7.7,5.4,10.8,9.1c3,3.5,5.2,7.7,6.5,12.2c-1.1-0.8-2.3-1.6-3.4-2.4c-0.3-0.2-0.7-0.1-0.8,0.3c-0.6,1.5-1.2,2.9-1.9,4.3
				c0.4-4.1-0.8-8.6-2.8-12.2c-2.4-4.2-6.3-6.9-9.6-10.3c-3.4-3.5-5.6-7.7-6.3-12.6c-0.3-2.3-0.3-4.6,0.1-6.8
				c0.2-1.1,0.4-2.1,0.7-3.2C16.8,61,17.8,69.2,24.1,74.7z M21.4,42.8c0.9-2.6,1.8-5.3,2.7-8c1.4-4.3,2.7-8.6,4-12.9
				c0.6,2.9,1.2,5.8,1.8,8.7c0.8,3.6,1.3,7.2,2.3,10.7c-1.9-1.6-4.7-1.9-6,0.9c-0.6,1.2-0.3,2.7,0.1,4c-0.1,0-0.2,0-0.4,0.1
				c-2.3,1.3-4.6,2.3-7.1,3.2C20.1,47.5,20.7,44.8,21.4,42.8z M38.2,41.1c2,0.8,2.3,3.3,1.6,5.1c-0.9,2.4-3.5,5-5.9,5.7
				c-0.1,0-0.1,0.1-0.2,0.1c-0.1-0.1-0.2-0.1-0.3-0.1c0,0,0,0,0,0c-0.8,0.2-2.9-1.7-3.5-2.3c-0.9-0.9-1.7-2-2.2-3.3
				c-0.8-1.9-0.9-5,1.9-4.9c1.9,0.1,2.8,1.9,3.4,3.4c0.2,0.4,0.7,0.4,0.9,0.1c0.2-0.1,0.3-0.2,0.3-0.4
				C34.1,42.3,35.9,40.2,38.2,41.1z M27.5,58.4c-2.7-2.7-5.3-5.8-8.4-8.1c2.6-0.7,5-1.7,7.3-3.1c0.1-0.1,0.2-0.2,0.2-0.3
				c0.2,0.5,0.5,0.9,0.7,1.3c1.3,2.1,3.3,3.8,5.6,4.6c0.2,0.1,0.4,0,0.5-0.1c-0.2,2.9,0.1,5.8,0.6,8.7c0.3,1.6,0.7,3.2,1.1,4.7
				c0,0,0,0.1,0,0.1C32.7,63.7,30.1,61,27.5,58.4z M36.6,66.5c-0.1,0-0.3,0-0.4,0.1c0.1-0.2,0.2-0.4,0.2-0.6
				c-0.1-0.3-0.1-0.5-0.2-0.8c-0.1-0.6-0.3-1.3-0.5-2c-0.3-1.2-0.5-2.4-0.7-3.6c-0.4-2.2-0.6-4.5-0.8-6.8c2.3,0,4.1-2.3,5.4-4
				c0.8-1.1,1.5-2.3,1.7-3.6c1.3,0.2,2.6,0.2,3.8,0.3c1.2,0.1,2.4,0.2,3.5,0.1C44.9,52.8,40.9,59.7,36.6,66.5z M41.4,44.4
				c0-0.8-0.1-1.6-0.5-2.4c-1.7-3.5-6.7-2.5-7.4,0.7c-0.1-0.1-0.2-0.3-0.3-0.4c0.2-0.1,0.3-0.3,0.3-0.5c-0.5-3.8-1.5-7.7-2.4-11.4
				c-0.8-3.5-1.5-7-2.5-10.4c0-0.1,0.1-0.3,0.1-0.4c6.8,8.3,13.6,16.7,20.4,25C46.7,44,43.8,44.2,41.4,44.4z M72.5,77.2
				c-0.1,0-0.2,0-0.2,0c-0.3-0.3-0.9,0.2-0.7,0.6c0.5,1.5,1.2,2.8,1.5,4.4c0.1,0.6,0.1,1.2,0.1,1.8c-2.3-6.1-10.1-9.2-14.4-13.8
				c-5.2-5.6-6.2-13-7.1-20.3c2,5.6,2.5,12,6.4,16.7c2.4,2.8,5.9,4.2,9.3,5.5c3.8,1.5,8.6,3.7,9.6,7.9
				C75.7,78.9,74.2,77.8,72.5,77.2z"/>
		</g>
	</g>
</g>
<g id="XMLID_7_">
	<path id="XMLID_13_" class="st8" d="M232.3,168.7c0,0,2.7-3.7,3.1-4.6c0.4-0.9,1.3-2.7,1.3-2.7l-5-1.3l-1.6-5c0,0-2.9-8.4-3.9-9.7
		c-1-1.3-2.5-1.5-3.4-0.2c-0.9,1.3-7.7,12.8-7.7,12.8l-7,0.4l4.1,9.2c0,0,2.5-0.8,7.8-0.6c5.3,0.2,10.3,1.2,10.3,1.2L232.3,168.7z"
		/>
	<g id="XMLID_8_">
		<path id="XMLID_9_" class="st12" d="M236.8,161.3C236.8,161.3,236.8,161.2,236.8,161.3c-1.7-0.6-3.3-1-4.9-1.3c0,0,0,0,0,0
			c-1.2-3.2-2.2-6.5-3.4-9.6c-0.8-2.1-1.7-5.2-3.6-6.1c-0.7-0.3-1.3-0.2-1.9,0.5c-1,1.2-1.8,2.9-2.7,4.3c-1.8,2.9-3.6,5.8-5.4,8.7
			c0,0.1,0,0.1,0,0.2c-2.4-0.1-4.8-0.1-7.1,0.2c-0.2,0-0.2,0.4-0.1,0.5c0,0,0,0,0,0.1c1.4,2.9,2.4,6.3,4.1,9c0,0,0.1,0.1,0.1,0.1
			c0,0,0.1,0,0.1,0c0.1,0,0.1,0,0.2,0c0.1,0,0.3,0,0.4,0c0.1-0.1,0.3-0.1,0.5-0.1c0.1,0,0.2,0,0.3,0c3.6-0.3,7.3-0.3,10.9,0.1
			c0.1,0,0.2,0,0.3,0c0,0,0.1,0,0.1,0l0,0c0.1,0,0.2,0,0.3,0c0,0,0,0,0.1,0c1.1,0.1,2.2,0.3,3.3,0.5c0.4,0.1,0.8,0.1,1.2,0.2
			c0.3,0,0.5,0.1,0.8,0.2c0.2,0,0.4,0.1,0.6,0.1c0,0,0,0,0,0c0.1,0,0.2,0,0.2,0c0.1,0,0.2,0.1,0.3,0.1c0.1,0,0.3,0.1,0.4,0.1
			c0.1,0,0.2,0,0.3,0c0.1,0,0.2-0.1,0.3-0.1c1.8-2.1,3.2-4.5,4.4-7.3C237,161.5,236.9,161.3,236.8,161.3z M219.8,150.9
			c0.7-1.2,1.5-2.4,2.2-3.6c0.8-1.3,1.6-3.3,3.1-2.4c0.9,0.6,1.5,1.8,2,2.9c0.6,1.3,1.1,2.7,1.6,4.1c0.9,2.6,1.8,5.3,2.7,7.9
			c-3.1-0.6-6.1-0.9-9.2-1.3c-2.3-0.3-4.5-0.5-6.8-0.7C216.9,155.6,218.3,153.2,219.8,150.9z M232.3,168.5c-6.6-1.6-13.5-2-20.1-1.3
			c-1.6-2.6-2.6-5.7-3.9-8.6c4.8-0.6,9.5,0,14.3,0.6c4.7,0.5,9.3,1,13.9,2.5C235.3,164.3,233.9,166.5,232.3,168.5z"/>
	</g>
</g>
<g id="XMLID_2_">
	<path id="XMLID_6_" class="st10" d="M229.7,140.9c-0.2,0-0.3,0-0.4-0.1c-0.2-0.2-0.6-0.1-0.8,0.1c0,0-0.1,0-0.1,0
		c-0.2-0.1-0.5,0-0.6,0.2c-0.1-0.1-0.2-0.1-0.4-0.2c0,0-0.1,0-0.1,0c-0.5-0.4-0.9-0.8-1.3-1.3c0.1-0.1,0.2-0.2,0.2-0.4
		c-0.1-0.3-0.2-0.6-0.3-0.9c0.2-0.1,0.3-0.4,0.2-0.6c-0.1-0.3-0.3-0.6-0.5-0.8c-0.3-0.3-0.8,0.1-0.8,0.4c-0.2,0.1-0.3,0.2-0.3,0.4
		c0,0,0,0,0,0c-0.5-0.2-0.8,0.3-0.6,0.7c0.1,0.2,0.3,0.4,0.4,0.6c-0.2,0.1-0.3,0.4-0.1,0.7c0,0,0,0,0,0c-0.4-0.2-0.9,0.3-0.6,0.7
		c0.1,0.1,0.2,0.2,0.3,0.3c-0.3-0.2-0.6-0.4-0.9-0.6c-0.3-0.2-0.7,0-0.7,0.4c-0.2,0-0.4-0.1-0.6,0c-0.1,0-0.1,0-0.2,0.1
		c-0.3-0.2-0.5-0.4-0.8-0.5c-0.5-0.3-1,0.4-0.6,0.7c0.6,0.5,1.3,1,1.9,1.5c-0.2,0.1-0.2,0.4-0.1,0.6c0.1,0.1,0.1,0.2,0.2,0.2
		c-0.4-0.1-0.7,0.3-0.4,0.7c0.1,0.1,0.1,0.2,0.2,0.2c-0.3,0-0.6,0.4-0.3,0.7c0.1,0.1,0.1,0.2,0.2,0.3c-0.2,0-0.4-0.1-0.6-0.1
		c-0.2,0-0.5,0.2-0.4,0.5c0.1,0.3,0.3,0.5,0.5,0.7c0.2,0.2,0.4,0,0.4-0.3c0.2,0.1,0.4,0.1,0.6,0.2c0.3,0.1,0.7-0.1,0.6-0.4
		c0-0.1-0.1-0.2-0.1-0.4c0.2,0,0.4-0.1,0.4-0.3c0.1,0.1,0.2,0.1,0.2,0.2c0.4,0.3,0.9-0.2,0.6-0.6c0,0,0,0,0,0
		c0.1,0.1,0.3,0.2,0.4,0.3c0.1,0.1,0.3,0.1,0.4,0.1c0.8,0.7,1.5,1.5,2.4,2.1c0.5,0.3,1-0.3,0.5-0.7c-0.6-0.5-1.2-1.1-1.8-1.6
		c0.3,0.3,0.7,0.6,1,0.9c0.4,0.4,0.9-0.3,0.5-0.7c-0.5-0.4-1-0.9-1.5-1.3c0,0-0.1-0.1-0.1-0.1c0.1,0.1,0.2,0.2,0.3,0.2
		c0.4,0.3,1-0.2,0.6-0.6c0,0-0.1-0.1-0.1-0.1c0.1,0,0.1,0.1,0.2,0.1c0.4,0.2,1-0.2,0.7-0.7c0,0-0.1-0.1-0.1-0.1c0.1,0,0.2,0,0.2-0.1
		c0.2,0.1,0.4,0.2,0.5,0.4c0.4,0.3,0.8-0.1,0.8-0.5c0,0,0,0,0.1-0.1c0.1,0,0.2,0,0.3,0C230.3,141.9,230.3,140.9,229.7,140.9z"/>
	<path id="XMLID_3_" class="st4" d="M228.4,147c-0.3-1-0.5-2-0.7-3l0,0c0-0.1-0.1-0.1-0.1-0.2c0-0.1,0-0.2,0-0.3c0,0,0,0,0,0
		c0,0,0-0.1,0-0.1c0,0,0.1,0,0.1,0c1.3-0.6,2.5-1.3,3.7-2c0,0,0,0,0,0c0,0,0-0.1,0,0c0-0.1,0-0.1,0-0.2c-0.2-0.1-0.3-0.3-0.5-0.4
		c-0.7-0.1-1.5-0.2-2.2-0.3c-0.1,0-0.3,0-0.4-0.1c0,0,0,0,0,0c-0.2,0-0.3-0.1-0.4-0.1c-0.1,0-0.1,0-0.2,0c-0.2,0-0.4,0-0.6-0.1
		c0,0,0,0,0,0c0,0,0,0,0,0c-0.3-1.4-0.7-2.8-1.4-4.1c-0.2-0.2-0.4-0.4-0.6-0.5c-0.1,0.1-0.2,0.2-0.1,0.3c-0.6,1.3-1.2,2.6-1.6,3.9
		c-1.4-0.2-2.8-0.1-4.1,0c-0.2,0-0.3,0.3-0.3,0.5c0.3,0.6,0.8,0.9,1.3,1.3c0.6,0.4,1.2,0.9,1.8,1.3c-0.8,1.2-1.4,2.6-2,3.8
		c-0.1,0.3,0.2,0.6,0.5,0.5c0.8-0.3,1.5-0.6,2.2-1c0.6-0.3,1.3-0.6,1.8-1l0,0c1.1,1,2.2,1.9,3.4,2.8c0.2,0.1,0.4,0,0.5-0.1
		c0-0.2-0.1-0.4-0.1-0.6C228.4,147.1,228.4,147,228.4,147z M224.9,144.7C224.9,144.7,224.9,144.7,224.9,144.7
		c-0.1-0.2-0.2-0.3-0.4-0.2c-0.7,0.2-1.3,0.6-2,0.9c-0.5,0.2-0.9,0.4-1.4,0.6c0.5-1,1.1-2.1,1.4-3.2c0.1-0.1,0.2-0.3,0-0.5
		c-0.5-0.4-1-0.8-1.5-1.2c-0.4-0.3-0.8-0.5-1.2-0.9c1.2,0,2.4,0.1,3.5-0.1c0.1,0.1,0.3,0.1,0.3-0.1c0.5-1.1,1-2.3,1.5-3.4
		c0.5,1.1,0.9,2.3,1.1,3.5c0,0.2,0.2,0.3,0.4,0.3c0.5,0.4,1.2,0.4,1.9,0.5c0.5,0.1,1.1,0.2,1.6,0.2c-0.9,0.5-1.8,1-2.8,1.5
		c-0.1,0.1-0.2,0.1-0.2,0.2c-0.2,0-0.4,0.1-0.3,0.4c0.2,1.1,0.5,2.2,0.7,3.4C226.8,146,225.9,145.3,224.9,144.7z"/>
</g>
</svg>
