<?xml version="1.0" encoding="utf-8"?>
<!-- Generator: Adobe Illustrator 19.0.0, SVG Export Plug-In . SVG Version: 6.00 Build 0)  -->
<svg version="1.1" id="Capa_1" xmlns="http://www.w3.org/2000/svg" xmlns:xlink="http://www.w3.org/1999/xlink" x="0px" y="0px"
	 viewBox="0 0 118.6 63.2" style="enable-background:new 0 0 118.6 63.2;" xml:space="preserve">
<style type="text/css">
	.st0{fill:#4166AE;}
</style>
<path id="XMLID_267_" class="st0" d="M44.4,63.2c-6.6,0.1-13.2-2.1-18.2-5.5c-1.5-1-2.8-2.2-3.9-3.4C12,54,0.2,49.5,0,37.3
	c-0.1-6.1,3-12.7,7.4-15.9c5.1-3.6,12-2.7,17-1.4c1-3.1,2.8-5.8,5.4-8.2c4.5-4.1,10.8-5.6,17.5-4.3c3.6,0.8,6.6,1.9,8.9,3.4
	c0.3-0.5,0.7-0.9,1-1.3c3-3.7,7.7-6.1,13.2-6.7c8.5-1,19.5,1.8,24.5,9.1c3.7-0.4,8,0.3,11.8,2.1c7.1,3.3,11.7,10.1,11.9,17.2
	c0.2,7.4-4.3,13.7-11.2,15.7c-2.6,0.8-5.1,1.2-7.6,1.4c-2.2,8.2-14.6,12-22.2,12.4c-6.3,0.4-12.7-1-17.1-3.9
	C55.9,61.2,50.2,63.1,44.4,63.2 M8.4,22.9c-4.7,3.3-6.7,9.8-6.6,14.3c0.2,11,11.4,15,20.9,15.2h0.4l0.3,0.3c1,1.3,2.3,2.4,3.8,3.4
	c9.1,6.3,23.6,8,32.5-1l0.5-0.5l0.6,0.4c4.2,2.9,10.4,4.3,16.6,3.9c7.8-0.5,19.3-4.4,20.6-11.7l0.1-0.7h0.7c2.5-0.1,5.1-0.5,7.8-1.3
	c6-1.8,10-7.4,9.9-13.9c-0.1-6.4-4.4-12.6-10.8-15.6c-3.7-1.7-7.8-2.4-11.3-1.9l-0.6,0.1l-0.3-0.5c-4.4-7-14.9-9.7-23-8.7
	c-5,0.6-9.3,2.8-12,6.1c-0.4,0.5-0.9,1.2-1.4,2l-0.5,0.8L55.8,13c-2.2-1.6-5.2-2.8-9-3.6C40.6,8.1,35,9.5,30.9,13.2
	c-2.5,2.3-4.3,5.1-5.1,8.2l-0.2,0.9l-0.9-0.2C17.2,20,12,20.3,8.4,22.9"/>
</svg>
