<?xml version="1.0" encoding="utf-8"?>
<!-- Generator: Adobe Illustrator 19.0.0, SVG Export Plug-In . SVG Version: 6.00 Build 0)  -->
<svg version="1.1" id="paisaje" xmlns="http://www.w3.org/2000/svg" xmlns:xlink="http://www.w3.org/1999/xlink" x="0px" y="0px"
	 viewBox="676 -405.7 1920 1080" style="enable-background:new 676 -405.7 1920 1080;" xml:space="preserve">
<style type="text/css">
	.st0{fill:#ADCE45;}
	.st1{fill:#A1C53C;}
	.st2{fill:#F58045;}
	.st3{fill:#FDF385;}
	.st4{fill:#F6C8DE;}
	.st5{fill:#FFFFFF;}
	.st6{fill:#FAF28A;}
	.st7{display:none;}
	.st8{display:inline;fill:#FAF28A;}
	.st9{display:inline;fill:#FDF385;}
</style>
<path id="colina3_1_" class="st0" d="M677.2,171.6c214.1-6.1,428.2-12.2,642.4-18.2c425.1-12.1,850.2-47.5,1275.3-59.6
	c0,0-0.7,0-2.1-0.1c-6.8-0.4-29.6-1.7-64.2-4c-2.7-0.2-5.5-0.4-8.4-0.6c-157.6-10.9-530.5-41.3-784.6-99.9
	c-283.3-65.3-516.1-103.5-690.7-125.8c-225.7-28.8-354-31-367.7-31.2L677.2,171.6L677.2,171.6z"/>
<path id="colina2_1_" class="st1" d="M681,9.9c0,0,404.7,66,784.7-34s419.9-81.5,619.9-66.8s396.9-34.3,518.5-175.8v830.5H676.3
	L681,9.9z"/>
<path id="colina1_1_" class="st0" d="M677.2,234.3c0,0,430.2-159.4,958.8-159.7s967,181.5,967,181.5l-8.2,298l-1917.6,0.1V234.3z"/>
<g id="florcitas">
	<g id="florcita19">
		<path id="XMLID_146_" class="st2" d="M1198.2,291.9c-0.6,0.4-1.2,0.7-1.8,1.1c0-0.6-0.1-1.1-0.2-1.7c-0.8-3.9-4.2-6.4-7.6-5.6
			c-3.4,0.9-5.4,4.7-4.6,8.7c0.1,0.6,0.3,1.1,0.5,1.6c-0.7-0.1-1.3-0.2-2.1-0.2c-4.9,0-9.2,2.2-9.7,5.1c-0.5,2.9,3.1,5.2,8,5.2
			c0.7,0,1.4,0,2.1-0.1c-0.4,0.5-0.8,1-1.1,1.6c-2.2,3.9-1.5,7.8,1.6,8.7c3.1,0.9,7.3-1.5,9.5-5.4c0.3-0.6,0.6-1.1,0.8-1.7
			c0.4,0.4,0.9,0.8,1.4,1.2c3.5,2.5,8.3,2.6,10.7,0.3s1.4-6.1-2.1-8.6c-0.5-0.4-1.1-0.7-1.6-0.9c0.7-0.2,1.3-0.5,1.9-0.9
			c4.4-2.4,6.6-6.2,5-8.5C1207.4,289.5,1202.5,289.5,1198.2,291.9"/>
		<path id="XMLID_145_" class="st2" d="M1192.8,305.5c-2.9,0.7-5.7-0.6-6.2-2.9c-0.5-2.4,1.5-4.9,4.4-5.7c2.9-0.7,5.7,0.6,6.2,2.9
			C1197.7,302.2,1195.7,304.7,1192.8,305.5"/>
		<path id="XMLID_144_" class="st3" d="M1191,296.9c-2.9,0.8-4.9,3.3-4.4,5.7s3.3,3.7,6.2,2.9c2.9-0.7,4.9-3.3,4.4-5.7
			S1193.9,296.1,1191,296.9"/>
	</g>
	<g id="florcita18">
		<path id="XMLID_143_" class="st4" d="M1699.7,348.6c-0.3,0.2-0.6,0.4-0.9,0.6c0-0.3,0-0.6-0.1-0.9c-0.4-2-2.1-3.2-3.8-2.8
			s-2.7,2.4-2.3,4.4c0.1,0.3,0.2,0.6,0.3,0.8c-0.3,0-0.7-0.1-1-0.1c-2.5,0-4.7,1.1-4.9,2.6c-0.2,1.4,1.5,2.6,4,2.6
			c0.4,0,0.7,0,1.1-0.1c-0.2,0.3-0.4,0.5-0.5,0.8c-1.1,2-0.7,3.9,0.8,4.4s3.7-0.8,4.8-2.7c0.2-0.3,0.3-0.6,0.4-0.9
			c0.2,0.2,0.4,0.4,0.7,0.6c1.8,1.2,4.2,1.3,5.4,0.1c1.2-1.2,0.7-3.1-1.1-4.3c-0.3-0.2-0.5-0.3-0.8-0.5c0.3-0.1,0.7-0.3,1-0.5
			c2.2-1.2,3.3-3.1,2.5-4.3C1704.3,347.4,1701.9,347.4,1699.7,348.6"/>
		<path id="XMLID_142_" class="st4" d="M1697,355.5c-1.5,0.4-2.9-0.3-3.1-1.5c-0.3-1.2,0.7-2.5,2.2-2.9s2.9,0.3,3.1,1.5
			S1698.4,355.1,1697,355.5"/>
		<path id="XMLID_141_" class="st3" d="M1696,351.1c-1.5,0.4-2.5,1.7-2.2,2.9s1.7,1.9,3.1,1.5c1.5-0.4,2.5-1.7,2.2-2.9
			C1698.9,351.4,1697.5,350.8,1696,351.1"/>
	</g>
	<g id="florcita17">
		<path id="XMLID_140_" class="st5" d="M942.4,167.9c-0.3,0.2-0.6,0.4-0.9,0.6c0-0.3,0-0.6-0.1-0.9c-0.4-2-2.1-3.2-3.8-2.8
			s-2.7,2.4-2.3,4.4c0.1,0.3,0.2,0.6,0.3,0.8c-0.3,0-0.7-0.1-1-0.1c-2.5,0-4.7,1.1-4.9,2.6c-0.2,1.4,1.5,2.6,4,2.6
			c0.4,0,0.7,0,1.1-0.1c-0.2,0.3-0.4,0.5-0.5,0.8c-1.1,2-0.7,3.9,0.8,4.4s3.7-0.8,4.8-2.7c0.2-0.3,0.3-0.6,0.4-0.9
			c0.2,0.2,0.4,0.4,0.7,0.6c1.8,1.2,4.2,1.3,5.4,0.1s0.7-3.1-1.1-4.3c-0.3-0.2-0.5-0.3-0.8-0.5c0.3-0.1,0.7-0.3,1-0.5
			c2.2-1.2,3.3-3.1,2.5-4.3C947,166.7,944.6,166.7,942.4,167.9"/>
		<path id="XMLID_139_" class="st5" d="M939.7,174.8c-1.5,0.4-2.9-0.3-3.1-1.5c-0.3-1.2,0.7-2.5,2.2-2.9s2.9,0.3,3.1,1.5
			C942.2,173.1,941.2,174.4,939.7,174.8"/>
		<path id="XMLID_138_" class="st3" d="M938.8,170.4c-1.5,0.4-2.5,1.7-2.2,2.9s1.7,1.9,3.1,1.5c1.5-0.4,2.5-1.7,2.2-2.9
			C941.7,170.7,940.2,170,938.8,170.4"/>
	</g>
	<g id="florcita16">
		<path id="XMLID_137_" class="st2" d="M767.4,261.7c-0.3,0.2-0.6,0.4-0.9,0.6c0-0.3,0-0.6-0.1-0.9c-0.4-2-2.1-3.2-3.8-2.8
			s-2.7,2.4-2.3,4.4c0.1,0.3,0.2,0.6,0.3,0.8c-0.3,0-0.7-0.1-1-0.1c-2.5,0-4.7,1.1-4.9,2.6c-0.2,1.4,1.5,2.6,4,2.6
			c0.4,0,0.7,0,1.1-0.1c-0.2,0.3-0.4,0.5-0.5,0.8c-1.1,2-0.7,3.9,0.8,4.4s3.7-0.8,4.8-2.7c0.2-0.3,0.3-0.6,0.4-0.9
			c0.2,0.2,0.4,0.4,0.7,0.6c1.8,1.2,4.2,1.3,5.4,0.1s0.7-3.1-1.1-4.3c-0.3-0.2-0.5-0.3-0.8-0.5c0.3-0.1,0.7-0.3,1-0.5
			c2.2-1.2,3.3-3.1,2.5-4.3C772,260.5,769.6,260.5,767.4,261.7"/>
		<path id="XMLID_136_" class="st2" d="M764.7,268.6c-1.5,0.4-2.9-0.3-3.1-1.5c-0.3-1.2,0.7-2.5,2.2-2.9s2.9,0.3,3.1,1.5
			S766.2,268.2,764.7,268.6"/>
		<path id="XMLID_135_" class="st3" d="M763.7,264.2c-1.5,0.4-2.5,1.7-2.2,2.9s1.7,1.9,3.1,1.5c1.5-0.4,2.5-1.7,2.2-2.9
			C766.6,264.5,765.2,263.8,763.7,264.2"/>
	</g>
	<g id="florcita15">
		<path id="XMLID_134_" class="st2" d="M1136.4,231.3c-0.3,0.2-0.6,0.4-0.9,0.6c0-0.3,0-0.6-0.1-0.9c-0.4-2-2.1-3.2-3.8-2.8
			s-2.7,2.4-2.3,4.4c0.1,0.3,0.2,0.6,0.3,0.8c-0.3,0-0.7-0.1-1-0.1c-2.5,0-4.7,1.1-4.9,2.6c-0.2,1.4,1.5,2.6,4,2.6
			c0.4,0,0.7,0,1.1-0.1c-0.2,0.3-0.4,0.5-0.5,0.8c-1.1,2-0.7,3.9,0.8,4.4s3.7-0.8,4.8-2.7c0.2-0.3,0.3-0.6,0.4-0.9
			c0.2,0.2,0.4,0.4,0.7,0.6c1.8,1.2,4.2,1.3,5.4,0.1c1.2-1.2,0.7-3.1-1.1-4.3c-0.3-0.2-0.5-0.3-0.8-0.5c0.3-0.1,0.7-0.3,1-0.5
			c2.2-1.2,3.3-3.1,2.5-4.3C1141.1,230.1,1138.6,230.1,1136.4,231.3"/>
		<path id="XMLID_133_" class="st2" d="M1133.7,238.1c-1.5,0.4-2.9-0.3-3.1-1.5c-0.3-1.2,0.7-2.5,2.2-2.9s2.9,0.3,3.1,1.5
			C1136.2,236.5,1135.2,237.8,1133.7,238.1"/>
		<path id="XMLID_132_" class="st3" d="M1132.8,233.8c-1.5,0.4-2.5,1.7-2.2,2.9s1.7,1.9,3.1,1.5c1.5-0.4,2.5-1.7,2.2-2.9
			C1135.7,234.1,1134.3,233.4,1132.8,233.8"/>
	</g>
	<g id="florcita14">
		<path id="XMLID_131_" class="st5" d="M1735,454.9c-0.3,0.2-0.6,0.4-0.9,0.6c0-0.3,0-0.6-0.1-0.9c-0.4-2-2.1-3.2-3.8-2.8
			c-1.7,0.4-2.7,2.4-2.3,4.4c0.1,0.3,0.2,0.6,0.3,0.8c-0.3,0-0.7-0.1-1-0.1c-2.5,0-4.7,1.1-4.9,2.6c-0.2,1.4,1.5,2.6,4,2.6
			c0.4,0,0.7,0,1.1-0.1c-0.2,0.3-0.4,0.5-0.5,0.8c-1.1,2-0.7,3.9,0.8,4.4s3.7-0.8,4.8-2.7c0.2-0.3,0.3-0.6,0.4-0.9
			c0.2,0.2,0.4,0.4,0.7,0.6c1.8,1.2,4.2,1.3,5.4,0.1s0.7-3.1-1.1-4.3c-0.3-0.2-0.5-0.3-0.8-0.5c0.3-0.1,0.7-0.3,1-0.5
			c2.2-1.2,3.3-3.1,2.5-4.3C1739.6,453.6,1737.2,453.7,1735,454.9"/>
		<path id="XMLID_130_" class="st5" d="M1732.3,461.7c-1.5,0.4-2.9-0.3-3.1-1.5c-0.3-1.2,0.7-2.5,2.2-2.9s2.9,0.3,3.1,1.5
			C1734.8,460.1,1733.8,461.3,1732.3,461.7"/>
		<path id="XMLID_129_" class="st3" d="M1731.4,457.4c-1.5,0.4-2.5,1.7-2.2,2.9s1.7,1.9,3.1,1.5c1.5-0.4,2.5-1.7,2.2-2.9
			C1734.3,457.7,1732.8,457,1731.4,457.4"/>
	</g>
	<g id="florcita13">
		<path id="XMLID_128_" class="st5" d="M1885.8,165.3c-0.4,0-0.7,0-1.1,0c0.2-0.2,0.3-0.5,0.4-0.8c0.7-1.9-0.1-3.9-1.7-4.4
			c-1.7-0.5-3.6,0.5-4.3,2.4c-0.1,0.3-0.2,0.6-0.2,0.8c-0.3-0.2-0.5-0.4-0.8-0.6c-2.1-1.3-4.5-1.5-5.5-0.5c-1,1.1-0.1,3,2,4.4
			c0.3,0.2,0.6,0.4,0.9,0.5c-0.3,0.1-0.6,0.2-0.9,0.4c-2,1.1-2.7,2.9-1.7,4.1c1.1,1.2,3.5,1.3,5.5,0.3c0.3-0.2,0.6-0.3,0.8-0.5
			c0.1,0.3,0.2,0.6,0.3,0.9c0.8,2,2.8,3.4,4.5,3c1.6-0.3,2.3-2.2,1.4-4.2c-0.1-0.3-0.3-0.6-0.4-0.8c0.3,0.1,0.7,0.1,1.1,0.1
			c2.5,0.2,4.5-0.9,4.4-2.3C1890.4,166.7,1888.3,165.5,1885.8,165.3"/>
		<path id="XMLID_127_" class="st5" d="M1879.9,169.6c-1.5-0.5-2.3-1.8-1.9-2.9c0.4-1.1,2-1.7,3.4-1.2c1.5,0.5,2.3,1.8,1.9,2.9
			C1882.9,169.5,1881.3,170.1,1879.9,169.6"/>
		<path id="XMLID_126_" class="st3" d="M1881.4,165.4c-1.5-0.5-3,0.1-3.4,1.2c-0.4,1.1,0.4,2.5,1.9,2.9c1.5,0.5,3-0.1,3.4-1.2
			C1883.7,167.2,1882.9,165.9,1881.4,165.4"/>
	</g>
	<g id="florcita12">
		<path id="XMLID_125_" class="st2" d="M2271.2,298.7c-0.4,0-0.7,0-1.1,0c0.2-0.2,0.3-0.5,0.4-0.8c0.7-1.9-0.1-3.9-1.7-4.4
			c-1.7-0.5-3.6,0.5-4.3,2.4c-0.1,0.3-0.2,0.6-0.2,0.8c-0.3-0.2-0.5-0.4-0.8-0.6c-2.1-1.3-4.5-1.5-5.5-0.5c-1,1.1-0.1,3,2,4.4
			c0.3,0.2,0.6,0.4,0.9,0.5c-0.3,0.1-0.6,0.2-0.9,0.4c-2,1.1-2.7,2.9-1.7,4.1c1.1,1.2,3.5,1.3,5.5,0.3c0.3-0.2,0.6-0.3,0.8-0.5
			c0.1,0.3,0.2,0.6,0.3,0.9c0.8,2,2.8,3.4,4.5,3c1.6-0.3,2.3-2.2,1.4-4.2c-0.1-0.3-0.3-0.6-0.4-0.8c0.3,0.1,0.7,0.1,1.1,0.1
			c2.5,0.2,4.5-0.9,4.4-2.3C2275.7,300.2,2273.7,298.9,2271.2,298.7"/>
		<path id="XMLID_124_" class="st2" d="M2265.2,303c-1.5-0.5-2.3-1.8-1.9-2.9c0.4-1.1,2-1.7,3.4-1.2c1.5,0.5,2.3,1.8,1.9,2.9
			C2268.2,303,2266.7,303.5,2265.2,303"/>
		<path id="XMLID_123_" class="st3" d="M2266.8,298.9c-1.5-0.5-3,0.1-3.4,1.2c-0.4,1.1,0.4,2.5,1.9,2.9c1.5,0.5,3-0.1,3.4-1.2
			C2269,300.7,2268.2,299.4,2266.8,298.9"/>
	</g>
	<g id="florcita11">
		<path id="XMLID_119_" class="st2" d="M1784.5,401c-0.4,0-0.7,0-1.1,0c0.2-0.2,0.3-0.5,0.4-0.8c0.7-1.9-0.1-3.9-1.7-4.4
			c-1.7-0.5-3.6,0.5-4.3,2.4c-0.1,0.3-0.2,0.6-0.2,0.8c-0.3-0.2-0.5-0.4-0.8-0.6c-2.1-1.3-4.5-1.5-5.5-0.5c-1,1.1-0.1,3,2,4.4
			c0.3,0.2,0.6,0.4,0.9,0.5c-0.3,0.1-0.6,0.2-0.9,0.4c-2,1.1-2.7,2.9-1.7,4.1c1.1,1.2,3.5,1.3,5.5,0.3c0.3-0.2,0.6-0.3,0.8-0.5
			c0.1,0.3,0.2,0.6,0.3,0.9c0.8,2,2.8,3.4,4.5,3c1.6-0.3,2.3-2.2,1.4-4.2c-0.1-0.3-0.3-0.6-0.4-0.8c0.3,0.1,0.7,0.1,1.1,0.1
			c2.5,0.2,4.5-0.9,4.4-2.3C1789.1,402.5,1787.1,401.2,1784.5,401"/>
		<path id="XMLID_118_" class="st2" d="M1778.6,405.3c-1.5-0.5-2.3-1.8-1.9-2.9c0.4-1.1,2-1.7,3.4-1.2c1.5,0.5,2.3,1.8,1.9,2.9
			C1781.6,405.2,1780,405.8,1778.6,405.3"/>
		<path id="XMLID_117_" class="st3" d="M1780.1,401.2c-1.5-0.5-3,0.1-3.4,1.2c-0.4,1.1,0.4,2.5,1.9,2.9c1.5,0.5,3-0.1,3.4-1.2
			C1782.4,402.9,1781.6,401.6,1780.1,401.2"/>
	</g>
	<g id="florcita10">
		<path id="XMLID_116_" class="st5" d="M2326.5,286.3c-0.4,0-0.7,0-1.1,0c0.2-0.2,0.3-0.5,0.4-0.8c0.7-1.9-0.1-3.9-1.7-4.4
			c-1.7-0.5-3.6,0.5-4.3,2.4c-0.1,0.3-0.2,0.6-0.2,0.8c-0.3-0.2-0.5-0.4-0.8-0.6c-2.1-1.3-4.5-1.5-5.5-0.5c-1,1.1-0.1,3,2,4.4
			c0.3,0.2,0.6,0.4,0.9,0.5c-0.3,0.1-0.6,0.2-0.9,0.4c-2,1.1-2.7,2.9-1.7,4.1c1.1,1.2,3.5,1.3,5.5,0.3c0.3-0.2,0.6-0.3,0.8-0.5
			c0.1,0.3,0.2,0.6,0.3,0.9c0.8,2,2.8,3.4,4.5,3c1.6-0.3,2.3-2.2,1.4-4.2c-0.1-0.3-0.3-0.6-0.4-0.8c0.3,0.1,0.7,0.1,1.1,0.1
			c2.5,0.2,4.5-0.9,4.4-2.3C2331.1,287.8,2329,286.5,2326.5,286.3"/>
		<path id="XMLID_115_" class="st5" d="M2320.6,290.6c-1.5-0.5-2.3-1.8-1.9-2.9c0.4-1.1,2-1.7,3.4-1.2c1.5,0.5,2.3,1.8,1.9,2.9
			C2323.5,290.5,2322,291.1,2320.6,290.6"/>
		<path id="XMLID_114_" class="st3" d="M2322.1,286.5c-1.5-0.5-3,0.1-3.4,1.2c-0.4,1.1,0.4,2.5,1.9,2.9c1.5,0.5,3-0.1,3.4-1.2
			C2324.4,288.2,2323.6,286.9,2322.1,286.5"/>
	</g>
	<g id="florcita9">
		<path id="XMLID_113_" class="st4" d="M1726.2,414.1c-0.4,0-0.7,0-1.1,0c0.2-0.2,0.3-0.5,0.4-0.8c0.7-1.9-0.1-3.9-1.7-4.4
			c-1.7-0.5-3.6,0.5-4.3,2.4c-0.1,0.3-0.2,0.6-0.2,0.8c-0.3-0.2-0.5-0.4-0.8-0.6c-2.1-1.3-4.5-1.5-5.5-0.5c-1,1.1-0.1,3,2,4.4
			c0.3,0.2,0.6,0.4,0.9,0.5c-0.3,0.1-0.6,0.2-0.9,0.4c-2,1.1-2.7,2.9-1.7,4.1c1.1,1.2,3.5,1.3,5.5,0.3c0.3-0.2,0.6-0.3,0.8-0.5
			c0.1,0.3,0.2,0.6,0.3,0.9c0.8,2,2.8,3.4,4.5,3c1.6-0.3,2.3-2.2,1.4-4.2c-0.1-0.3-0.3-0.6-0.4-0.8c0.3,0.1,0.7,0.1,1.1,0.1
			c2.5,0.2,4.5-0.9,4.4-2.3C1730.8,415.6,1728.7,414.3,1726.2,414.1"/>
		<path id="XMLID_112_" class="st4" d="M1720.2,418.4c-1.5-0.5-2.3-1.8-1.9-2.9c0.4-1.1,2-1.7,3.4-1.2c1.5,0.5,2.3,1.8,1.9,2.9
			C1723.2,418.4,1721.7,418.9,1720.2,418.4"/>
		<path id="XMLID_111_" class="st3" d="M1721.8,414.3c-1.5-0.5-3,0.1-3.4,1.2c-0.4,1.1,0.4,2.5,1.9,2.9c1.5,0.5,3-0.1,3.4-1.2
			C1724.1,416.1,1723.2,414.8,1721.8,414.3"/>
	</g>
	<g id="florcita8">
		<path id="XMLID_110_" class="st2" d="M1855.2,271.8c-0.4,0-0.7,0-1.1,0c0.2-0.2,0.3-0.5,0.4-0.8c0.7-1.9-0.1-3.9-1.7-4.4
			c-1.7-0.5-3.6,0.5-4.3,2.4c-0.1,0.3-0.2,0.6-0.2,0.8c-0.3-0.2-0.5-0.4-0.8-0.6c-2.1-1.3-4.5-1.5-5.5-0.5c-1,1.1-0.1,3,2,4.4
			c0.3,0.2,0.6,0.4,0.9,0.5c-0.3,0.1-0.6,0.2-0.9,0.4c-2,1.1-2.7,2.9-1.7,4.1c1.1,1.2,3.5,1.3,5.5,0.3c0.3-0.2,0.6-0.3,0.8-0.5
			c0.1,0.3,0.2,0.6,0.3,0.9c0.8,2,2.8,3.4,4.5,3c1.6-0.3,2.3-2.2,1.4-4.2c-0.1-0.3-0.3-0.6-0.4-0.8c0.3,0.1,0.7,0.1,1.1,0.1
			c2.5,0.2,4.5-0.9,4.4-2.3C1859.8,273.3,1857.7,272,1855.2,271.8"/>
		<path id="XMLID_109_" class="st2" d="M1849.2,276.1c-1.5-0.5-2.3-1.8-1.9-2.9c0.4-1.1,2-1.7,3.4-1.2c1.5,0.5,2.3,1.8,1.9,2.9
			C1852.2,276.1,1850.7,276.6,1849.2,276.1"/>
		<path id="XMLID_108_" class="st3" d="M1850.8,272c-1.5-0.5-3,0.1-3.4,1.2c-0.4,1.1,0.4,2.5,1.9,2.9c1.5,0.5,3-0.1,3.4-1.2
			C1853.1,273.8,1852.2,272.5,1850.8,272"/>
	</g>
	<g id="florcita7">
		<path id="XMLID_107_" class="st2" d="M1809.8,277.7c-0.4,0-0.7,0-1.1,0c0.2-0.2,0.3-0.5,0.4-0.8c0.7-1.9-0.1-3.9-1.7-4.4
			c-1.7-0.5-3.6,0.5-4.3,2.4c-0.1,0.3-0.2,0.6-0.2,0.8c-0.3-0.2-0.5-0.4-0.8-0.6c-2.1-1.3-4.5-1.5-5.5-0.5c-1,1.1-0.1,3,2,4.4
			c0.3,0.2,0.6,0.4,0.9,0.5c-0.3,0.1-0.6,0.2-0.9,0.4c-2,1.1-2.7,2.9-1.7,4.1c1.1,1.2,3.5,1.3,5.5,0.3c0.3-0.2,0.6-0.3,0.8-0.5
			c0.1,0.3,0.2,0.6,0.3,0.9c0.8,2,2.8,3.4,4.5,3c1.6-0.3,2.3-2.2,1.4-4.2c-0.1-0.3-0.3-0.6-0.4-0.8c0.3,0.1,0.7,0.1,1.1,0.1
			c2.5,0.2,4.5-0.9,4.4-2.3C1814.4,279.2,1812.3,277.9,1809.8,277.7"/>
		<path id="XMLID_106_" class="st2" d="M1803.8,282c-1.5-0.5-2.3-1.8-1.9-2.9c0.4-1.1,2-1.7,3.4-1.2c1.5,0.5,2.3,1.8,1.9,2.9
			C1806.8,282,1805.3,282.5,1803.8,282"/>
		<path id="XMLID_105_" class="st3" d="M1805.4,277.9c-1.5-0.5-3,0.1-3.4,1.2c-0.4,1.1,0.4,2.5,1.9,2.9c1.5,0.5,3-0.1,3.4-1.2
			C1807.7,279.7,1806.8,278.3,1805.4,277.9"/>
	</g>
	<g id="florcita6">
		<path id="XMLID_104_" class="st4" d="M2368.9,288.4c-0.7,0.2-1.3,0.4-1.9,0.7c0.1-0.5,0.2-1.1,0.2-1.6c0.1-3.8-2.5-6.9-5.8-6.9
			s-6.1,3.2-6.2,7c0,0.6,0,1.1,0.1,1.6c-0.6-0.2-1.2-0.4-1.9-0.6c-4.5-1.1-9.1,0-10.2,2.5s1.7,5.5,6.2,6.7c0.7,0.2,1.3,0.3,2,0.4
			c-0.5,0.4-0.9,0.8-1.4,1.3c-2.9,3.1-3.1,6.9-0.5,8.5c2.6,1.5,7.1,0.2,10-2.9c0.4-0.5,0.8-0.9,1.1-1.4c0.3,0.5,0.6,0.9,1,1.4
			c2.7,3.1,7.1,4.3,9.9,2.7c2.7-1.6,2.7-5.4,0-8.4c-0.4-0.5-0.8-0.9-1.3-1.2c0.7-0.1,1.3-0.2,2-0.4c4.6-1.2,7.5-4.3,6.6-6.8
			C2378,288.2,2373.5,287.2,2368.9,288.4"/>
		<path id="XMLID_103_" class="st4" d="M2360.9,299.8c-2.9,0-5.2-1.8-5.1-4.1s2.5-4.2,5.4-4.3c2.9,0,5.2,1.8,5.1,4.1
			C2366.1,297.8,2363.7,299.7,2360.9,299.8"/>
		<path id="XMLID_102_" class="st3" d="M2361.1,291.4c-2.9,0-5.3,1.9-5.4,4.3c-0.1,2.3,2.2,4.2,5.1,4.1c2.9,0,5.3-1.9,5.4-4.3
			C2366.3,293.2,2364,291.3,2361.1,291.4"/>
	</g>
	<g id="florcita5">
		<path id="XMLID_101_" class="st2" d="M856.3,273.5c-0.5,0.4-1,0.8-1.4,1.2c-0.1-0.5-0.2-1-0.4-1.5c-1.2-3.4-4.6-5.1-7.4-4
			c-2.9,1.2-4.2,4.9-3,8.2c0.2,0.5,0.4,1,0.7,1.4c-0.6,0-1.2,0-1.8,0.1c-4.3,0.6-7.9,3.1-8,5.7c-0.1,2.6,3.4,4.2,7.7,3.6
			c0.6-0.1,1.3-0.2,1.8-0.4c-0.3,0.5-0.5,1-0.8,1.6c-1.4,3.7-0.3,7.1,2.5,7.5s6.3-2.3,7.7-6c0.2-0.5,0.4-1.1,0.5-1.6
			c0.4,0.3,0.9,0.6,1.4,0.9c3.4,1.7,7.7,1.2,9.5-1.1s0.5-5.6-2.9-7.3c-0.5-0.3-1-0.5-1.6-0.6c0.5-0.3,1.1-0.6,1.6-1
			c3.6-2.7,5.1-6.3,3.4-8.2C864.2,270.2,859.9,270.9,856.3,273.5"/>
		<path id="XMLID_100_" class="st2" d="M853.3,286.2c-2.5,1-5.1,0.2-5.9-1.8c-0.7-2,0.7-4.5,3.2-5.5s5.1-0.2,5.9,1.8
			C857.2,282.7,855.8,285.1,853.3,286.2"/>
		<path id="XMLID_99_" class="st3" d="M850.6,278.8c-2.5,1-3.9,3.5-3.2,5.5s3.4,2.9,5.9,1.8c2.5-1,3.9-3.5,3.2-5.6
			C855.7,278.6,853.1,277.8,850.6,278.8"/>
	</g>
	<g id="florcita4">
		<path id="XMLID_98_" class="st6" d="M965.1,358.2c-0.8,0.2-1.5,0.6-2.2,0.9c0.1-0.6,0.2-1.3,0.2-2c-0.1-4.6-3.3-8.1-7.3-7.9
			c-4,0.2-7.1,4.1-7,8.7c0,0.7,0.1,1.3,0.2,1.9c-0.7-0.3-1.5-0.5-2.3-0.6c-5.4-1.1-10.8,0.5-12,3.5c-1.2,3.1,2.3,6.5,7.7,7.6
			c0.8,0.2,1.6,0.3,2.4,0.3c-0.6,0.5-1.1,1-1.6,1.6c-3.3,3.9-3.4,8.4-0.1,10.1c3.2,1.7,8.5-0.1,11.8-4c0.5-0.6,0.9-1.2,1.2-1.7
			c0.4,0.6,0.8,1.1,1.3,1.6c3.4,3.5,8.7,4.7,11.9,2.7s3-6.5-0.4-10.1c-0.5-0.5-1-1-1.6-1.4c0.8-0.1,1.6-0.3,2.4-0.6
			c5.4-1.7,8.8-5.5,7.5-8.4C975.9,357.5,970.5,356.5,965.1,358.2"/>
		<path id="XMLID_97_" class="st6" d="M956.1,372.2c-3.5,0.2-6.3-1.9-6.3-4.7s2.7-5.2,6.2-5.3c3.5-0.2,6.3,1.9,6.3,4.7
			C962.3,369.6,959.5,372,956.1,372.2"/>
		<path id="XMLID_96_" class="st3" d="M955.9,362.1c-3.5,0.2-6.2,2.6-6.2,5.3c0,2.8,2.9,4.9,6.3,4.7c3.5-0.2,6.2-2.6,6.2-5.3
			C962.2,364,959.4,362,955.9,362.1"/>
	</g>
	<g id="florcita3">
		<path id="XMLID_95_" class="st2" d="M1486.4,350.6c-0.8,0.1-1.6,0.2-2.4,0.4c0.3-0.6,0.5-1.2,0.6-1.9c0.9-4.5-1.5-8.6-5.4-9.3
			c-3.9-0.6-7.8,2.5-8.7,7c-0.1,0.7-0.2,1.3-0.2,1.9c-0.6-0.4-1.3-0.8-2.1-1.1c-5.1-2.3-10.7-1.9-12.5,0.9c-1.8,2.8,0.8,6.8,5.9,9.1
			c0.7,0.3,1.5,0.6,2.3,0.8c-0.6,0.3-1.3,0.7-1.9,1.2c-4.1,3.1-5.1,7.5-2.3,9.8c2.8,2.3,8.3,1.7,12.4-1.3c0.6-0.5,1.1-0.9,1.6-1.4
			c0.2,0.6,0.5,1.2,0.9,1.9c2.6,4.2,7.5,6.5,11.1,5.2c3.5-1.3,4.3-5.8,1.7-9.9c-0.4-0.6-0.8-1.2-1.3-1.7c0.8,0,1.6,0,2.4-0.1
			c5.6-0.5,9.7-3.5,9.1-6.6C1497.1,352.2,1492,350.1,1486.4,350.6"/>
		<path id="XMLID_94_" class="st2" d="M1474.6,362.3c-3.4-0.6-5.7-3.2-5.2-5.9c0.6-2.7,3.8-4.5,7.2-3.9c3.4,0.6,5.7,3.2,5.2,5.9
			C1481.2,361.1,1478,362.8,1474.6,362.3"/>
		<path id="XMLID_93_" class="st3" d="M1476.6,352.4c-3.4-0.6-6.6,1.2-7.2,3.9c-0.6,2.7,1.8,5.4,5.2,5.9c3.4,0.6,6.6-1.2,7.2-3.9
			C1482.3,355.6,1480,353,1476.6,352.4"/>
	</g>
	<g id="florcita2">
		<path id="XMLID_92_" class="st4" d="M1916,265c-0.6,0.1-1.2,0.2-1.8,0.3c0.2-0.4,0.3-0.9,0.4-1.4c0.7-3.3-1.1-6.4-4-6.9
			c-2.9-0.5-5.8,1.8-6.5,5.1c-0.1,0.5-0.1,1-0.1,1.4c-0.5-0.3-1-0.6-1.5-0.8c-3.8-1.7-7.9-1.4-9.2,0.7c-1.3,2,0.6,5.1,4.4,6.7
			c0.6,0.2,1.1,0.4,1.7,0.6c-0.5,0.3-0.9,0.6-1.4,0.9c-3,2.3-3.8,5.5-1.7,7.3c2.1,1.7,6.2,1.3,9.2-1c0.4-0.3,0.8-0.7,1.2-1.1
			c0.2,0.5,0.4,0.9,0.7,1.4c1.9,3.1,5.6,4.8,8.2,3.8c2.6-1,3.2-4.3,1.3-7.3c-0.3-0.5-0.6-0.9-0.9-1.3c0.6,0,1.2,0,1.8,0
			c4.2-0.4,7.2-2.6,6.7-4.9C1923.9,266.2,1920.2,264.6,1916,265"/>
		<path id="XMLID_91_" class="st4" d="M1907.3,273.6c-2.5-0.4-4.2-2.4-3.8-4.4c0.4-2,2.8-3.3,5.3-2.9c2.5,0.4,4.2,2.4,3.8,4.4
			C1912.2,272.7,1909.8,274,1907.3,273.6"/>
		<path id="XMLID_90_" class="st3" d="M1908.8,266.3c-2.5-0.4-4.9,0.9-5.3,2.9c-0.4,2,1.3,4,3.8,4.4s4.9-0.9,5.3-2.9
			S1911.3,266.7,1908.8,266.3"/>
	</g>
	<g id="florcita1" class="st7">
		<path id="XMLID_89_" class="st8" d="M1892.1,354.3c-0.7,0.1-1.4,0.2-2,0.4c0.2-0.5,0.3-1.1,0.4-1.6c0.6-3.9-1.7-7.3-5-7.7
			s-6.5,2.4-7.1,6.3c-0.1,0.6-0.1,1.1-0.1,1.7c-0.6-0.3-1.2-0.6-1.8-0.8c-4.4-1.7-9.1-1.1-10.6,1.3c-1.4,2.4,1,5.8,5.4,7.5
			c0.6,0.3,1.3,0.5,2,0.6c-0.5,0.3-1.1,0.7-1.5,1.1c-3.3,2.8-4,6.6-1.5,8.5s7.2,1.1,10.5-1.7c0.5-0.4,0.9-0.8,1.3-1.3
			c0.2,0.5,0.5,1,0.9,1.5c2.4,3.4,6.7,5.2,9.6,3.9c2.9-1.3,3.4-5.1,1.1-8.5c-0.3-0.5-0.7-1-1.2-1.4c0.7,0,1.4-0.1,2.1-0.2
			c4.8-0.7,8.1-3.4,7.5-6C1901.3,355.3,1896.9,353.7,1892.1,354.3"/>
		<path id="XMLID_88_" class="st8" d="M1882.6,364.8c-2.9-0.3-5-2.5-4.6-4.8c0.4-2.3,3-3.9,5.9-3.6c2.9,0.3,5,2.5,4.6,4.8
			C1888.2,363.5,1885.5,365.1,1882.6,364.8"/>
		<path id="XMLID_87_" class="st9" d="M1883.9,356.3c-2.9-0.3-5.6,1.3-5.9,3.6c-0.4,2.3,1.7,4.5,4.6,4.8c2.9,0.3,5.6-1.3,5.9-3.6
			C1888.9,358.8,1886.8,356.7,1883.9,356.3"/>
	</g>
</g>
<path id="arbol2_1_" class="st0" d="M2242.3-127.2C2242.2-127.1,2242.2-127.1,2242.3-127.2 M2288.9-189.3c-1-3.1-11.9,7.8-11,7.8
	c-5.9,0.6-23-3.9-9.3,10.7c-4.9,1.2-6.1,2.1-7.8-2.6c-4.5-0.7-22.2,7.5-21.6,13c1,1.1,1.2-0.1,0.6,1.4c3-0.1,14.4,11.2,15.1,11.7
	c-0.6,0.2,0.3,1,0.4,1.2c-4.2,2.9-10.2-3.6-13.8-1.5c-3.1,1.9-4.5,10.4-4.4,10.4c-0.5,0.5-0.4,0.7,0.5,0.6
	c-2.8,5.1-9.9,7.9,5.5,11.2c4,0.9,5.6-0.1,9,0.5c3.4,6.2,4.4-3.4,11.2-1.9c0.2,2-0.1,0.5,0.1,1.2c-1.8,0.2-0.7,4.3-0.8,5.5
	c0.2,0,7.3-1,6.7,1.3c-0.8-1.3,2.3-3.3,3.8-3.4c1.2,5.5-6.3,44.5,7,36.7c10.9-6.3-5.5-30,6.3-39.4c4.3,2.6,3.5,7,8.3,9.1
	c2.4,0.1,0.6-2.8,4.9-0.9c-1.4-6,8.2-2,8.5-3.9c-1.2,0.1,3.2-14.5,9.1-16.8c0.2-3.7-11.1-7.3-13.8-10.5c1-0.1,1-0.6,0.1-1.5
	c1.6,1.1,5.5,1.9,7.2,2.3c-0.5-2.3,0.5-0.1,1.1-0.4c0.2-0.7,6.7-17.9,3.6-18.1c0.5,6.7-20.5-17.9-19.9-17.2
	C2291.8-187.2,2294-186.5,2288.9-189.3"/>
<path id="arbol_1_" class="st0" d="M1328.7-432.8c-6.9,5.6,1.6,4.8-5.3,1.2c1.2,4.7-19.2,11.5-19.6,11.8c-5.1,5.2-3.9-8.7-8.7-2
	c2.9-3.1-9.7-6.8-12-7.6c-0.4,1.2-1,2.2-1.8,3.2c0.9,1.3,2.1,1.8,3.1,4c-0.8-0.4-3.6-3.1-4.6-1.8c3.3-0.9-8.5,13.6-10.9,15.2
	c-0.5-0.1,5.6,2.6,5.2,3.5c-1.5,2.9-5.4-1.1-2.4,5.5c-0.6-1.2-12.4,0.2-12.4,0.3c-0.4,0.4,1,2.7,1.9,2.8c-0.9,2.5-6.9,10.9-8.1,13.6
	c-1.7,0-2.2,0.3-1.4,0.9c-3.2-0.4-18.6,3.4-12.3,9.5c-2.5-1.1-6.1,0.7-7.6-1.1c1.2,5.4,3.5,7.6,3.3,12c2.9,0.3,9.8,4.3,10.8,2.7
	c-0.5,0.2-0.8,0-1-0.5c6.9,1.5-15.3,52,17.6,49.6c0.1,1.8-0.2,2-1,0.6c-6.5,0.9,18,7.6,13.1,1.6c8.2,10.1,13.3-4,16.5-3.7
	c12.7,0.9,39.9,12.7,30.8,44.8c16.3-3.2,9.6-29.1,22-41.3c4.4-4.3,8.3-6.2,12.1-1.5c2.7-0.9-6.2-1.5-4.4,0
	c1.1-0.6,23.4-2.5,15.3-6.3c6,2.8,8.1,0.8,10.8,8.4c4.8,5.2,31-2,36.3-22c3.4-12.7-7.6-14.1-4.9-28c1-4.9,16.2-5.4,14.4-15.3
	c-0.1,0-6.4-1.7-6.7-2.2c-0.6,0,7.1-1.3,5.4-3.3c-7.6,5-30.1-18.3-39.2-21.8c2.9-2.6-1.7-5.1,2.4-8.8c0.3-0.5-27.8-32.9-29.7-15.2
	c0-0.5-0.1-2.7,0.5-3.1c-2.3,1.5-3.7,6-6,7.5c-1.1-6.7-10-3.9-9.8-3.3c0,0.2-2.2-7.7-2.2-6.5
	C1334.3-426.3,1322.6-427.6,1328.7-432.8"/>
</svg>
