<?xml version="1.0" encoding="utf-8"?>
<!-- Generator: Adobe Illustrator 19.0.0, SVG Export Plug-In . SVG Version: 6.00 Build 0)  -->
<svg version="1.1" id="Capa_1" xmlns="http://www.w3.org/2000/svg" xmlns:xlink="http://www.w3.org/1999/xlink" x="0px" y="0px"
	 viewBox="0 0 239.6 260.6" style="enable-background:new 0 0 239.6 260.6;" xml:space="preserve">
<style type="text/css">
	.st0{fill:#60BAE8;}
	.st1{fill:#F6F6F6;}
	.st2{fill:#1D1D1B;}
	.st3{fill:#FDCC9A;}
	.st4{fill:#8BD4E2;}
</style>
<g id="XMLID_2_">
	<path id="XMLID_31_" class="st0" d="M35.5,96.5c-1.3-1.4-3.8,0-3.2,1.8c0,0,0,0,0,0c-0.7,0-1.3,0-2,0.1c-1.5,0.1-2.4,1.5-1.8,2.8
		c-0.9,0.1-1.4,1.4-0.4,2.1c0.9,0.6,1.9,1.1,2.8,1.7c1.2,0.8,3.1-0.5,2.6-2c-0.1-0.2-0.1-0.4-0.2-0.5c1.5,0,3-0.3,3.8-1.4
		C38.5,99.1,36.7,97.8,35.5,96.5z"/>
	<path id="XMLID_30_" class="st0" d="M57.3,115.8c0.6-0.9,0.3-2.6-0.8-3.1c-1.2-0.5-2.6-0.5-3.6,0.3c-1.2-1.1-2.3-2.3-3.3-3.6
		c-1.3-1.6-4.1,0.1-3.5,2c1.1,3.4,3.1,7,6.5,8.7c0.6,0.3,1.3-0.1,1.5-0.6c1.9,1.1,3.9-1.5,2.8-3.2C57,116.2,57.2,116,57.3,115.8z"/>
	<path id="XMLID_29_" class="st0" d="M64.4,96.1c-1-1.5-3.2-2-4.6-0.6c-0.1,0.1-0.3,0.3-0.4,0.4c-0.9-0.6-1.9-1.1-2.9-1.6
		c-1.8-0.8-4,0.9-2.8,2.8c1.4,2.4,3.3,5,5.6,6.6c0.9,0.6,1.8-0.2,1.8-1.1c0.6,0,1.2-0.3,1.6-0.7c0.6-0.6,1-1.3,1-2.1
		c0-0.3,0-0.6,0-0.8c0,0,0.1,0,0.1-0.1c0,0,0.1-0.1,0.1-0.1C64.7,98.3,64.9,97,64.4,96.1z"/>
	<path id="XMLID_28_" class="st0" d="M82,92.8c-0.3-0.9-1.1-1.7-2.1-1.7c-1.4,0-2.2,0.9-2.5,2c-0.6,0.2-1.1,0.4-1.7,0.6
		c-1,0.5-1.4,2.1-0.8,3c0.1,0.1,0.2,0.3,0.3,0.4c-0.1,0-0.1,0.1-0.2,0.1c-0.6,0.4-0.9,1.3-0.2,1.9c0.9,0.8,2.1,0.9,3.2,1.1
		c1.3,0.3,2.9-0.9,2.3-2.3c-0.1-0.2-0.2-0.4-0.2-0.6c1-0.2,1.9-1.2,1.9-2.3C81.8,94.3,82.2,93.6,82,92.8z"/>
	<path id="XMLID_27_" class="st0" d="M94.6,107.5c-0.1-0.4-0.3-1.1-0.7-1.4c0,0,0,0,0,0c1.3-2.3-2.2-4.6-4.1-2.8
		c-0.7,0.7-1,1.5-1.1,2.4c-1.6-0.3-3.1,1.1-2.7,2.9c0.1,0.6,0.3,1.1,0.5,1.5c0,0-0.1,0.1-0.1,0.1c-0.4,0.4-0.7,1-0.7,1.6
		c0,1.1,0.7,1.9,1.7,1.9c0.7,0,1.1-0.4,1.2-1c0.1,0,0.2,0,0.3-0.1c0.2,0,0.4-0.1,0.6-0.2c0.5-0.2,0.9-0.5,1.2-1
		c0.2,0.1,0.5,0.1,0.7,0.2c1,0.2,2.3-0.1,2.8-1.1C94.9,109.7,95,108.7,94.6,107.5z"/>
	<path id="XMLID_26_" class="st0" d="M104.2,89.1c-1.8-0.6-3.9,0.1-4.9,1.7c-1.2-0.3-2.5,0.4-2.9,1.5c-0.3-0.2-0.5-0.3-0.8-0.5
		c-1.4-1-3,1.2-1.8,2.4c1.6,1.7,3.4,3,5.4,4.2c1.4,0.9,3-0.1,3.3-1.5c1.3-0.2,2.2-1.6,2.1-2.9c0.1-0.1,0.3-0.1,0.4-0.2
		c0.8-0.5,1-1.3,1.1-2.2C106.2,90.4,105.2,89.4,104.2,89.1z"/>
	<path id="XMLID_25_" class="st1" d="M107.5,63.1c-0.2-0.1-0.3-0.2-0.5-0.3c2.3-0.3,3.4-3.6,1.1-5.4c-3.3-2.5-6.7-5-10.1-7.3
		c0.2-0.2,0.4-0.4,0.5-0.7c2.2,0.9,4.1-1.4,3.5-3.4c1.5-0.6,2.3-2.9,1.2-4.5c2.7,0.5,5.3-2.7,2.9-5.2c-0.2-0.2-0.4-0.4-0.6-0.6
		c1.2-0.9,1.8-2.6,0.9-4.1c-1-1.6-2.2-3.1-3.6-4.3c-0.4-0.4-0.8-0.8-1.4-1.1c-1.3-0.9-2.8-0.4-3.7,0.5c-0.7-0.2-1.5-0.4-2.3-0.6
		c-0.9-0.2-1.8,0.1-2.5,0.5c-0.8-0.5-1.6-1-2.4-1.4c-1.2-0.7-2.4-0.4-3.4,0.3c-2.3-1.8-4.7-3.6-7-5.4c1.3-0.9,1.9-2.8,0.5-4.4
		c-0.5-0.6-1-1.1-1.6-1.7c0.3-1.1,0-2.4-1.4-3.1C75.7,10,73.9,9.3,72,9c-1.4-0.3-2.6,0.4-3.3,1.4c-1-0.5-2.1-0.9-3.1-1.4
		c-2.2-1-4,0.4-4.3,2.1c-0.1-0.1-0.3-0.2-0.4-0.2c-2.8-1.6-5.5,2-3.5,4.3c-0.3-0.1-0.6-0.3-0.9-0.4c-2.2-1.1-4.1,0.8-3.9,2.6
		c-2.5-0.7-5-1.1-7.7-1c-0.6,0-1.1,0.2-1.5,0.5c-0.7-0.3-1.3-0.7-2-1c-3.2-1.6-6.1,3.1-2.9,4.9c1,0.5,2,1.1,2.9,1.6
		c-0.5,0.1-0.9,0.3-1.2,0.6c-3.4-2.3-6.9-4.2-10.6-4c-1.8,0.1-3,2.1-2.6,3.6c-2.4-0.7-4.6,2.6-2.6,4.6c1,1,2.1,2,3.1,2.9
		c-0.5-0.1-1-0.2-1.5-0.2c-0.8-0.1-1.5,0.2-1.9,0.7c-1.5-0.9-2.9-1.8-4.4-2.7c-2.6-1.6-4.7,1.6-3.4,3.7c-0.9-0.3-1.9-0.6-2.8-0.8
		c-1.8-0.4-2.9,0.8-3,2.2c-2.2-0.8-4.1,2.3-2.4,4.1c0,0,0,0,0.1,0.1c-1.6,0-3.2,1.9-2.1,3.5c1.5,2.2,3.3,4.2,5.3,6.1
		c-0.9,0.8-1.3,2-0.5,3.1c0,0,0,0,0,0c-0.8,0.2-1.7,0.6-2.5,1.3c-0.9,0.7-0.9,1.9-0.5,2.9c-0.7,0.4-1.1,1.1-1.2,2.1
		c-0.1,2,0.9,3.2,2.3,4.4c1.2,1.1,2.5,2.1,3.7,3.1c-0.5,0.7-0.7,1.7-0.1,2.5c-0.1,0-0.1-0.1-0.2-0.1c-2.3-1.4-4.8,1.9-2.8,3.7
		c0.4,0.4,0.8,0.8,1.2,1.1C9,70.9,7.6,73.3,9,74.9c0.2,0.2,0.4,0.4,0.5,0.6c-1.4,0-2.7,1.7-1.8,3.1c4.1,5.9,9.4,10.7,15.9,13.7
		c1.4,0.7,2.6-0.2,3-1.3c0.2,0.2,0.5,0.3,0.7,0.5c1.3,0.9,2.5,0.1,2.9-1c0,0,0,0,0,0c2.2,1.9,5.2-1.1,3.2-3.2
		c-0.4-0.4-0.8-0.8-1.1-1.2c2,0.1,3.6-2.2,1.9-4.1c-0.4-0.5-0.9-1-1.4-1.5c0,0,0,0,0.1,0c0.4,0.1,0.7,0.2,1,0.1
		c1.1,0.9,2.3,1.8,3.4,2.8c0.1,0.3,0.2,0.5,0.4,0.8c0.8,1,1.6,2,2.4,3c-2,0.4-3,3.7-0.8,4.6c1.4,0.6,2.6,1.2,3.9,2.3
		c1,0.8,2.2,0.7,3.1,0.2c0.4,0.1,0.8,0.3,1.3,0.4c1.1,0.4,2.1-0.1,2.6-0.9c0.1,0,0.1,0.1,0.2,0.1c2.3,1.8,5.4-0.9,3.9-3
		c2.3,1.3,4.9-1.6,3.6-3.6c2.5,1.1,5,2.2,7.6,3.2c1.6,0.6,2.7-0.5,3-1.8c0.4,0.3,0.8,0.5,1.1,0.8c1.9,1.2,3.9-0.7,3.7-2.5
		c1-0.4,1.8-1.6,1.7-2.7c2.7,1.8,5-2.5,2.5-4.5c-1.6-1.2-3.1-2.4-4.7-3.6c4.4,2.7,8.9,5.1,13.7,7c1.8,0.7,3-0.6,3.2-2.1
		c1.9,0.8,3.9,1.6,5.9,2.2c2.5,0.7,4-2,3-3.9c0.3,0.2,0.7,0.4,1,0.6c3,1.9,5.4-2.6,2.7-4.6c-2.1-1.6-4.2-3.1-6.3-4.6
		c2.2,0.9,4.5,1.7,6.8,2.4c2.8,0.9,4.6-2.8,2.9-4.7C108.5,68.6,110.3,64.9,107.5,63.1z"/>
	<g id="XMLID_3_">
		<path id="XMLID_21_" class="st2" d="M100.5,48.6c5.9-3.3,8.7-11.4,5.7-17.6c-3.6-7.4-13.1-9.4-20.2-6.4
			c-0.7-8.2-6.5-15.9-14.7-17.8C63,4.8,54.3,8.8,50,15.9c-4-4.3-11-2.1-12.2,3.5c-5.5-5.8-15.1-1-14.3,6.8
			c-6.8-0.8-14.6,1.7-17.2,8.6C4.2,39.9,6,46,10.3,49c-2.7,1.5-4.8,3.9-4.7,7.1c0.1,2.9,2,5,4.4,5.8c-5.2,8-5.3,19.6,2.1,26.4
			c6.7,6.2,17.8,6.2,24.5,0.3c2.7,7.5,11.1,10,17.4,7.1c-0.5,1.5-0.5,3.1,0.2,4.7c1.2,2.6,4.3,4.5,7.1,3.2c2.2-1,3.6-3.9,2.5-6.2
			c-1.3-2.7-4.5-2.4-6.8-3.6c1.3-1.1,2.4-2.4,3.2-4.1c6.1,5.4,15.7,1.5,16.3-6.6c11,4.6,24.5,2.2,30.8-9
			C112.5,65.1,109.3,53.6,100.5,48.6z M61.8,100.4c-1.2,2.5-4.3,1.4-5.4-0.6c-0.8-1.3-0.8-2.8-0.4-4.2c0.7,0.4,1.5,0.7,2.4,1
			C60.1,97.1,63,97.9,61.8,100.4z M104.2,73.7c-6.2,9.7-18.8,11-28.4,5.9c-1.2-0.6-2.3,0.4-2.1,1.6c1.2,7.5-8.3,11.3-12.7,5.1
			c-0.7-1-2.2-0.9-2.6,0.3c-3.1,10.6-17.7,9.5-19.5-1.2c-0.2-1-1.7-1.4-2.4-0.6c-5.4,6.5-16,7.2-22.2,1.4C7.3,80,7.9,68.6,13.7,61.8
			c0,0,0,0,0,0c0.8,1.1,2.4,2.3,3.8,1.9c0.7-0.2,1.2-1.3,0.5-1.9c-0.8-0.7-1.9-0.7-2.6-1.6c-0.7-0.8-0.9-1.9-0.8-2.9
			c0-0.7-1.1-1-1.4-0.4c-0.4,0.8-0.5,1.7-0.4,2.5c-0.1,0-0.3,0-0.4,0C8.6,60,8,55.5,9.7,53.2c1.1-1.5,2.9-2.2,4.6-2.7
			c1.4-0.4,1.4-2.4,0-2.8c-5.3-1.5-7.5-8.2-5-12.9c2.9-5.5,10-6.8,15.5-5.5c1,0.2,2.1-0.7,1.8-1.8c-2.3-7,6.2-10.8,10.6-5.4
			c0.1,0.2,0.3,0.3,0.5,0.3c0,0,0,0,0,0c-1,0.6-1.8,1.5-2.3,2.3c-0.4,0.8,0.6,1.5,1.2,0.9c0.8-0.8,1.8-1.5,2.9-1.8
			c1.1-0.3,2.1-0.1,3.2-0.3c0.9-0.2,1-1.5,0.2-1.9c-0.8-0.4-1.8-0.5-2.8-0.3c-0.1-5.1,6.2-7.1,8.7-2.1c0.5,0.9,2,0.9,2.5,0
			c3.2-7.1,11.3-11.8,19.1-9.9c7.8,1.9,13,9.5,12.7,17.4c0,1.1,1.3,1.8,2.2,1.2c5.7-3.4,14.3-2.6,17.9,3.5
			c3.4,5.9-0.3,14.1-6.9,15.4c-0.1,0-0.2,0.1-0.3,0.1c-0.6-1.2-1.6-2-2.8-2.5c-0.8-0.3-1.2,0.9-0.6,1.3c0.7,0.5,1.1,1.4,1.3,2.2
			c0.1,0.9-0.2,1.6-0.1,2.5c0.1,1,1.1,1.4,1.9,0.8c0.5-0.4,0.7-1,0.8-1.6C106.4,53.3,109.6,65.2,104.2,73.7z"/>
		<path id="XMLID_20_" class="st2" d="M41.5,66.6c-0.8-3.6-4.9-6.7-8.6-4.9c-2.8,1.3-4.3,5.7-1.6,7.9c0.9,0.7,2.4-0.2,1.7-1.3
			c-0.9-1.4-0.4-3.3,1.1-4c2.1-1,4.1,1.3,4.6,3.1C39.4,69,41.9,68.3,41.5,66.6z"/>
		<path id="XMLID_19_" class="st2" d="M82.7,54c-1.2-1.4-3.2-2.3-5.1-1.9c-3.6,0.7-5.3,5-3.5,8.1c0.8,1.3,2.7,0.2,2.1-1.2
			c-0.8-1.6,0.2-3.9,2-4.3c1-0.2,2.1,0.4,2.7,1.2c0.6,0.8,0.4,1.7,0.9,2.5c0.3,0.5,1.2,0.8,1.7,0.2C84.6,57.2,83.8,55.2,82.7,54z"/>
		<path id="XMLID_16_" class="st2" d="M80.5,89.2c-0.5-1.1-2.2-0.7-1.9,0.5c0,0,0,0.1,0,0.1c-0.1-0.1-0.1-0.1-0.2-0.2
			c-0.7-0.5-1.6,0.5-1.2,1.2c1.2,1.9-2.6,2.7-3.6,3.4c-0.9,0.6-1.6,1.4-1.7,2.5c-0.4,2.2,1.4,4.3,3.4,4.8c2.4,0.6,4.5-1,5.6-3
			C82.6,95.6,81.6,92.2,80.5,89.2z M78.8,97.6c-0.8,1.2-2.6,2.4-3.8,1c-1.3-1.3,0-2.5,1.2-3.1c1.1-0.5,2.6-1.7,3.2-2.9
			C79.7,94.4,79.7,96.1,78.8,97.6z"/>
		<path id="XMLID_13_" class="st2" d="M34.5,95.2c0-0.2,0-0.4-0.1-0.6c-0.2-1-1.9-0.8-1.8,0.2c0.2,2.3-3.6,3.5-4.9,5.2
			c-1.5,2-0.9,4.7,1.3,5.9c2.4,1.3,5.1,0.1,6.4-2.2C37.1,100.9,36,97.8,34.5,95.2z M33.1,103.3c-0.9,0.9-2.5,1.2-3.4,0.2
			c-0.9-1-0.3-2,0.4-2.8c1.2-1.2,2.8-2.1,3.7-3.4C34.5,99.4,34.8,101.7,33.1,103.3z"/>
		<path id="XMLID_10_" class="st2" d="M104.4,88.9c-0.9-0.8-2.1-1.2-3.3-0.9c-1.2,0.2-4,3-5,1.5c0-0.1-0.1-0.1-0.2-0.2
			c0-0.1,0-0.2,0-0.3c0-1-1.4-1-1.5,0c0,0.2,0,0.4,0,0.6c-0.1,0.2-0.1,0.4,0,0.7c0,0,0,0,0,0c0.1,2.6,1.2,5.2,3.6,6.4
			c2.3,1.2,5.5,0.9,7.3-1.2C106.8,93.6,106.4,90.6,104.4,88.9z M99.8,95.1c-1.7-0.4-2.8-1.6-3.4-3.2c0.3,0,0.7,0,1.1,0
			c2-0.4,4.2-3.4,5.9-0.9C105.1,93.5,102.3,95.7,99.8,95.1z"/>
		<path id="XMLID_7_" class="st2" d="M90.4,99.8c-0.6-0.4-1.1,0.4-0.7,0.9c0.1,0.1,0.1,0.2,0.2,0.2c-0.5,0-1.1,0.4-0.9,1
			c0.4,1.6-1.6,2.9-2.5,4c-0.8,0.9-1.5,2-1.6,3.2c-0.2,2.7,2.6,4.5,5.1,4.4c2.8-0.1,4.6-2.8,4.9-5.5C95,104.8,93.2,101.4,90.4,99.8z
			 M92.5,107.8c-0.2,1.3-0.8,2.9-2.2,3.3c-1,0.3-2.6-0.1-3-1.1c-0.8-1.7,1.7-3.5,2.5-4.6c0.7-1,1.1-2.1,0.9-3.3
			C91.9,103.8,92.8,105.7,92.5,107.8z"/>
		<path id="XMLID_4_" class="st2" d="M58.6,114.9c-0.2-1.4-1.2-2.2-2.4-2.8c-1.6-0.7-5.7-0.5-5.6-2.9c0-0.2-0.1-0.4-0.2-0.6
			c0-0.1,0-0.1-0.1-0.2c-0.6-1-1.8-0.8-2.6-0.1c-1.2,1-1.6,3-1.6,4.5c-0.1,3.5,2.2,6.9,5.7,7.3C54.9,120.5,59.1,118.5,58.6,114.9z
			 M55.7,116.8c-1.7,1.8-4.9,1.4-6.4-0.4c-0.8-1-1.2-2.3-1.2-3.6c0-0.3,0.2-2,0.6-3.1c0.1,1.4,1.1,2.5,2.5,3.1
			C52.7,113.4,58.7,113.7,55.7,116.8z"/>
	</g>
</g>
<g id="XMLID_44_">
	<path id="XMLID_42_" class="st3" d="M145.4,154.9c1.5-4.3,3.4-8.4,5.6-12.4c-1.8,0.4-3.6-2-2.6-4c-1.8,0.3-3.7-1.2-3-3.4
		c0.8-2.2,1.6-4.4,2.6-6.5c-1.8,0.9-4.1-0.6-3.9-2.7c0.1-1.7,0.6-3.1,1.2-4.5c-1.9-0.1-3.5-2.5-2.3-4.5c0.5-0.9,1-1.8,1.5-2.7
		c-1.8-0.1-3.5-1.7-2.6-3.8c0.4-0.9,0.8-1.8,1.1-2.7c-1.1-0.4-2-1.4-1.8-2.9c0-0.4,0.1-0.7,0.2-1c-0.9-1.5-0.5-4,1.7-4.7
		c1.4-0.5,2.1-0.3,3.5,0.1c1.2,0.3,1.9,1.4,1.9,2.5c0.9,0.5,1.5,1.3,1.3,2.5c0.3-0.1,0.5-0.2,0.8-0.3c2.1-0.7,4.1,1.9,3.3,3.8
		c0,0,0,0,0,0.1c2.2-1,4.7,0.9,3.9,3.4c-0.2,0.6-0.4,1.2-0.7,1.7c2.3-2.1,5.7,1,4,3.6c-0.2,0.3-0.4,0.7-0.7,1c0.3-0.3,0.6-0.6,0.9-1
		c2.1-2.1,5.1,1,3.7,3.3c-0.7,1.3-1.5,2.6-2.2,3.8c0.7-0.7,1.4-1.5,2.2-2.2c2-2,5.4,1,3.7,3.3c-0.6,0.9-1.3,1.7-1.9,2.6
		c0.2-0.3,0.4-0.5,0.6-0.8c1.9-2.4,5.7,0.1,4,2.7c-0.1,0.2-0.3,0.4-0.4,0.7c1.7-1.1,4.2,0.7,2.9,2.7c-0.3,0.5-0.6,1-0.9,1.5
		c0.5-0.7,1.1-1.3,1.6-2c1.4-1.7,4.6-0.4,3.7,1.9c-0.5,1.1-0.9,2.1-1.4,3.2c0.3-0.3,0.5-0.5,0.8-0.8c1.3-1.2,3.7,0.3,3,2
		c-0.6,1.4-1.3,2.8-1.9,4.2c1.4-0.9,2.9,0.4,2.6,2c-0.2,0.7-0.3,1.3-0.5,1.9c0.3-0.2,0.5-0.4,0.8-0.5c1.1-0.8,3.1,0.1,2.4,1.6
		c-0.4,0.9-0.7,1.8-1.1,2.7c-0.5,1.2-1.8,1.1-2.4,0.3c-0.4,0.3-0.9,0.6-1.3,1c-1.4,1-3-0.2-2.6-1.8c0.1-0.4,0.2-0.9,0.3-1.3
		c-0.5,0.5-1.1,0.9-1.6,1.4c-1.3,1.1-3.5-0.2-2.8-1.9c0.3-0.6,0.5-1.2,0.8-1.9c-1.1,1.2-2.2,2.3-3.2,3.5c-1.6,1.8-4.6,0-3.2-2.2
		c0.4-0.6,0.7-1.2,1-1.8c-1.6,1.5-3.2,3-4.9,4.5c-1.3,1.1-3,0.1-3.2-1.2c-1.4,1.6-2.7,3.2-4.1,4.9c-1.1,1.4-2.8,1.1-3.6,0.1
		c-0.8,1-1.5,1.9-2.3,2.9C148.2,159.3,144.4,157.7,145.4,154.9z"/>
	<path id="XMLID_41_" class="st3" d="M72.9,166c2.3-2.4,4.7-4.7,7-7.1l-1.1,0.8c-2.1,1.7-4.7-1.3-2.8-3.2c3.6-3.5,7.2-7.1,10.8-10.7
		c-2.8,2.1-5.6,4.3-8.4,6.4c-2.3,1.8-5-1.3-2.9-3.3c3.4-3.4,6.8-6.8,10.3-10.1c-0.5,0.4-1,0.8-1.5,1.2c-2.3,1.9-5.2-1.4-3.1-3.5
		c3.6-3.5,7.2-7.1,10.8-10.6c-2.6,1.2-5.3-2.2-3-4.4c1.5-1.4,3-2.7,4.5-4.1c0-0.6,0.2-1.3,0.8-1.7c1.7-1.2,3.3-2.5,5-3.7
		c1.2-0.8,2.4-0.6,3.3,0c3.1-2,6.3-3.9,9.5-5.7c1.5-0.9,2.9,0.1,3.3,1.5c3.7-3.1,7.4-6.2,11.1-9.4c2.3-1.9,5.1,1.4,3,3.4
		c-8.5,8.4-17.1,16.8-25.6,25.3c2.4-1.9,4.8-3.7,7.2-5.6c2.3-1.8,5,1.3,2.9,3.4c-2.2,2.2-4.4,4.3-6.6,6.5c2-0.6,3.9,2.1,2.1,3.9
		c-0.5,0.5-1,1.1-1.6,1.6c1.4,0.4,2.4,2,1.3,3.4c-2.5,3.1-5.1,6.2-7.6,9.3c0.8-0.6,1.6-1.1,2.4-1.7c1.8-1.3,4.7,0.7,3.2,2.8
		c-0.9,1.1-1.7,2.3-2.6,3.4c1.7-0.5,3.2,1.6,2.2,3.1c-0.4,0.7-0.9,1.3-1.3,2c1.6-0.4,2.7,1.7,1.1,2.6c-1.7,0.9-3.3,1.9-5,2.8
		c-1.8,1-3.4-1.2-2.4-2.8c0,0,0,0,0,0c-0.4,0.2-0.8,0.5-1.3,0.7c-1.8,1-3.9-1.4-2.7-3.1c0.1-0.1,0.2-0.2,0.3-0.4
		c-1.5,1.1-3,2.1-4.5,3.2c-1.8,1.3-4.9-0.8-3.2-2.9c0.1-0.1,0.2-0.2,0.2-0.3c-4.1,3.5-8.2,7-12.4,10.4
		C73.6,171.4,70.8,168.1,72.9,166z"/>
	<path id="XMLID_40_" class="st4" d="M151.1,93.5c2,0.4,3.3,1.9,4.9,2.8c1.3-0.6,2.9,0,3.9,1c0.3-0.2,0.6-0.4,0.9-0.6
		c1.7-1.1,4.7,0.4,4.8,2.4c0.1,0.7,0.1,1.4,0.1,2.1c0.1,0,0.1-0.1,0.2-0.1c2.1-1.2,4.1,0.3,4.6,2.3c2.6-1.6,5.5,0.7,4.8,3.7
		c0.8-0.9,1.5-1.8,2.3-2.8c2.3-2.8,6.4-0.7,5.5,2.8c-0.3,1.1-0.5,2.2-0.8,3.3c1-1.2,2.1-2.5,3.1-3.7c2.1-2.5,6.9-0.7,5.4,2.8
		c-0.6,1.4-1.2,2.9-1.8,4.3c0.1-0.1,0.1-0.2,0.2-0.2c1.5-1.9,4.7-1.2,5.3,0.8c2-0.4,4.3,0.8,3.9,2.9c2.4-2,5.9,0.7,4.2,3.7
		c-0.2,0.4-0.5,0.9-0.7,1.3c1,0.3,1.9,1.2,2,2.3c1.6,0.1,3.2,1.5,2.4,3.3c-0.2,0.4-0.4,0.9-0.6,1.3c0.6-0.6,1.1-1.1,1.7-1.7
		c1.7-1.7,4.9,0.4,3.9,2.7c-0.6,1.5-1.3,3-1.9,4.4c0.3-0.2,0.6-0.5,0.9-0.7c1.6-1.2,3.9-0.2,3.8,1.9c0,0.1,0,0.1,0,0.2
		c1.8-0.9,3.9,0.6,3.3,2.8c-0.2,0.8-0.4,1.5-0.6,2.3c0.2,0,0.4-0.1,0.6-0.1c1.2-0.1,2.2,0.7,2.1,1.9c-0.1,1.6-0.2,1.8-1.1,3.2
		c-1,1.4-2.6,0.6-2.8-0.7c-0.3,0.1-0.6,0.3-0.9,0.5c-1.3,0.6-3.3-0.4-3-2.1c0-0.1,0.1-0.2,0.1-0.4c-1.4,0.9-3.6,0.1-3.7-1.5
		c-1.2,1.1-2.3,2.1-3.4,3.3c-1.6,1.7-4.6-0.4-3.8-2.6c0.2-0.6,0.5-1.1,0.7-1.7c-0.8,1-1.6,1.9-2.4,2.9c-1.2,1.5-3.5,1.1-4.3-0.2
		c-0.6,0.8-1.2,1.6-1.8,2.4c-1.1,1.5-3.1,1.3-4.1,0.2c-0.1,0.1-0.2,0.3-0.3,0.4c-2.1,2.9-6.2,0-4.5-3.1c0.2-0.3,0.4-0.7,0.5-1
		c-2,0.2-4.2-1.4-3.2-3.7c0.3-0.7,0.6-1.3,0.9-2c-1.1-0.1-2.1-0.6-2.6-1.5c-2,2.2-6.3,0.3-5-2.9c0.9-2.2,1.8-4.5,2.7-6.7
		c-0.1,0.2-0.3,0.3-0.4,0.5c-2.1,2.5-6.8,0.7-5.5-2.8c0.5-1.3,1-2.7,1.4-4c-0.6,0.7-1.1,1.4-1.7,2c-2.3,2.8-6.5,0.7-5.6-2.8
		c0.2-0.8,0.4-1.6,0.6-2.4c-2.3,1.2-5.3-0.9-4.6-3.9c0.1-0.6,0.3-1.2,0.4-1.7c-1.7,0.1-3.4-1.3-3.5-3c-2.5,1.9-7-0.1-5.5-3.7
		c0.2-0.3,0.3-0.6,0.4-1c-1.2-0.8-2.3-2.3-3.2-2.4C146.1,99.6,146.7,92.6,151.1,93.5z"/>
	<path id="XMLID_39_" class="st4" d="M104.8,158.8c1.4-2,2.8-4.1,4.3-6.1c-1.8-0.7-3-2.9-1.7-4.9c1.1-1.8,2.3-3.6,3.4-5.3
		c-1.2-1.1-1.8-3-0.8-4.7c1.2-2.2,2.5-4.4,3.8-6.5c-1.2-1.2-1.8-3-0.6-4.6c1.7-2.3,3.4-4.6,5.1-6.9c-0.9-1.2-1.2-2.9-0.3-4.4
		c1.6-2.6,3.3-5.1,5.1-7.6c-0.5-1.2-0.4-2.7,1.1-3.9c2.1-1.7,4.1-3.3,6.2-5c2.3-1.8,4.6-0.8,5.6,1.1c0.8,0.3,1.5,0.9,2,1.6
		c2.6-0.2,5.4,3.1,3.4,5.6c-0.2,0.2-0.4,0.5-0.6,0.7c0.6,1,0.8,2.3-0.1,3.6c-0.2,0.3-0.5,0.7-0.7,1c1.8,0.6,3.1,2.7,1.7,4.7
		c-0.1,0.1-0.2,0.2-0.3,0.4c1.6,0.7,2.7,2.6,1.3,4.5c-0.3,0.5-0.7,1-1,1.4c2.3-0.5,4.8,2.6,3.2,4.9c-1.1,1.6-2.1,3.2-3.2,4.8
		c2.1-0.2,3.9,2.5,2.7,4.7c-0.3,0.5-0.5,1-0.8,1.4c2.1-0.8,4.9,1.2,3.8,3.5c-0.7,1.6-1.5,3.2-2.2,4.9c1.2,0.5,2,1.7,1.4,3.2
		c-0.3,0.7-1.6,2.7-2.2,4c0.5,0.6,0.7,1.5,0.1,2.4c-0.1,0.1-0.2,0.3-0.2,0.4c-0.5,0.9-1.6,1-2.5,0.8c-0.2,0-0.4-0.1-0.5-0.1
		c-0.6-0.1-1-0.7-1.3-1.3c-2,0.8-4.6-1.2-3.6-3.5c0.1-0.3,0.2-0.6,0.4-0.8c-0.3,0.3-0.6,0.6-1,0.8c-2.3,2.1-5-0.4-4.6-2.9
		c-1.1,1.1-2.2,2.1-3.3,3.2c-1.8,1.8-4.3,0.4-4.8-1.6c-1.9,2.1-3.8,4.2-5.7,6.3c-1.4,1.5-3.2,0.9-4.3-0.4c-1.1,1.4-2.1,2.7-3.2,4.1
		C107.6,165.6,102.5,162.2,104.8,158.8z"/>
	<g id="XMLID_52_">
		<path id="XMLID_54_" class="st0" d="M135.9,96.4c1.2,0.6,2.6,0.3,3.6-0.6c0.5-0.5,1.1-1.3,1.3-2.1c0.2-0.5,0-1.1-0.2-1.5
			c-0.3-0.6-0.8-0.9-1.4-1c-0.5-0.4-1-0.7-1.7-0.8c-1.7-0.1-3.1,1.2-3.3,2.8C134,94.6,134.8,95.9,135.9,96.4z"/>
		<path id="XMLID_37_" class="st0" d="M140.5,92.4c0,0-0.1-0.1-0.1-0.1c0,0,0-0.1-0.1-0.1L140.5,92.4z"/>
	</g>
	<path id="XMLID_45_" class="st2" d="M72,179.8c0.6,0.2,1.4,0,1.8-0.5c4.1-5.7,6.3-11.8,13.3-14.8c3.7-1.6,7.7-1.7,11.5-0.2
		c2.9,1.1,8.5,3.9,9.7,7c0.2,0.6,0.8,0.7,1.3,0.5c0.6,0.1,1.1-0.1,1.4-0.7c3.6-7.2,7.7-13.5,16.4-14.7c7.6-1,14.9,2.9,19.6,8.7
		c0.1,0.6,0.5,1,1,1.2c-0.3,4.4,0.7,8.6,1.3,13c0.8,5.2,1.6,10.4,2.3,15.7c1.3,9.8,2.4,19.6,3.4,29.5c0.8,8.9,3.1,21.6-7.5,25.6
		c-10.2,3.8-18-5.6-16.3-15.3c0.3-1.8-2.7-2.4-3.2-0.7c-2.3,7.9,2.3,16.8,10.1,19.4c7.6,2.5,16.5-1.7,19.6-9
		c2.2-5.3,1.5-11.2,1.1-16.8c-0.6-7.2-1.4-14.4-2.2-21.6c-0.8-7.2-1.8-14.4-2.8-21.6c-0.9-6.1-1.3-12.7-3.7-18.4
		c0.2-0.2,0.4-0.4,0.5-0.8c5.1-15.7,23-19.1,33.8-6.6c0.5,0.6,1.4,0.5,1.8,0c0.7-0.2,1.2-0.6,1.4-1.5c1.5-7.5,8.5-12.6,16.1-12.4
		c3.6,0.1,7.2,1.2,10.3,3c1.3,0.7,2.5,1.6,3.7,2.5c0.2,0.2,1.3,1.2,2.2,1.7c0,0,0,0.1,0,0.1c0,0.2,0.1,0.5,0.3,0.6
		c0.3,0.2,0.4,0.3,0.8,0.3c0.4,0.1,0.9,0,1.1-0.4c0.1-0.1,0.2-0.3,0.3-0.4c0.2-0.3,0.3-0.8,0.2-1.1c-3.2-16.5-12.4-30.5-25.8-40.8
		c-15.4-11.8-35.1-17-54.3-15.7c0.1-1.9-1.2-3.9-3.1-4.3c-1.7-0.4-3.4,0.5-4.3,2c-0.6,0.9-0.9,2.2-0.7,3.3c-7.7,1.3-15.1,3.6-22.1,7
		c-13.2,6.4-24.7,16.6-31.5,29.7c-7.3,14-9.6,30-11.1,45.6C69.2,179.7,70.9,180.3,72,179.8z M140.5,95c-1.3,0.1-2.6,0.3-3.9,0.4
		c-0.1-0.6-0.1-1.2,0.3-1.8c0.4-0.6,1.1-1,1.9-0.8C139.8,93,140.4,94,140.5,95z M180.6,136.6c-3.1-5.7-6.5-11.2-10.3-16.5
		c-6.5-8.7-14.2-16.3-23.4-21.8c4.2-0.1,8.4,0.1,12.5,0.7c27.2,3.7,49.9,22.2,59.3,47.7c-9.4-8.1-26-6.4-32.3,4.1
		C185.6,145.8,183,141,180.6,136.6z M149.2,158.4c-0.6-7.5-2.5-25.4-2.8-27.3c-1.6-10.9-3.5-21.7-6-32.4c0.6-0.1,1.2-0.1,1.8-0.2
		c10.3,5.3,18.8,13.4,25.7,22.7c7.1,9.5,14.6,21.2,17,32.9c-0.1,0.2-0.1,0.4-0.2,0.6C175.1,143.5,156.1,145.8,149.2,158.4z
		 M108.9,166.5c-1.7-12.9-1.4-25.6,3.9-37.9c5.2-12.2,14.2-21.9,25.3-28.9c2.3,11.9,4.7,23.7,6.4,35.7c0.9,6.1,1.6,12.1,2.3,18.2
		c0.2,1.7,0,5.5,1.1,7.5c-0.1,0.3-0.2,0.6-0.3,0.9c-4.4-6.6-12-10.2-20.1-9.4C120,153.4,111.6,159,108.9,166.5z M74.1,171.1
		c2-14.1,4.6-28.4,12.2-40.7c10.3-16.8,28.1-27.1,47.1-30.7c-20.3,14-32.8,40.9-26.5,65.2c-1.3-1-2.7-1.8-3.9-2.5
		c-3.8-2.2-8-3.3-12.5-2.7C84.1,160.7,77.8,165.3,74.1,171.1z"/>
</g>
</svg>
