<?xml version="1.0" encoding="utf-8"?>
<!-- Generator: Adobe Illustrator 19.0.0, SVG Export Plug-In . SVG Version: 6.00 Build 0)  -->
<svg version="1.1" id="Capa_1" xmlns="http://www.w3.org/2000/svg" xmlns:xlink="http://www.w3.org/1999/xlink" x="0px" y="0px"
	 viewBox="0 51.4 595.3 739.5" style="enable-background:new 0 51.4 595.3 739.5;" xml:space="preserve">
<style type="text/css">
	.st0{opacity:0.3;fill:#1A1714;enable-background:new    ;}
	.st1{fill:#D8B898;}
	.st2{fill:#A42834;}
	.st3{fill:#610E10;}
	.st4{fill:#BB2F43;}
	.st5{opacity:0.4;fill:#610E10;enable-background:new    ;}
	.st6{fill:#F7DBBB;}
	.st7{fill:#C5A17F;}
</style>
<g id="XMLID_2_">
	<path id="XMLID_32_" class="st0" d="M545.5,612.7L545.5,612.7h-1.3V250.1h1.3l0,0c16.7-0.7,30.1-23.4,30.1-51.4
		s-13.4-50.7-30.1-51.4l0,0H329V136V80.7l-40.4,23.4l-41.2-23.4V136v11.3H33.5v0.1c-0.4,0-0.7-0.1-1.1-0.1l0,0l0,0
		c-0.3,0-0.6,0-0.8,0c-17,0-30.8,23-30.8,51.4s13.8,51.4,30.8,51.4c0.2,0,0.4,0,0.6,0v362.7c-0.2,0-0.4,0-0.6,0
		c-17,0-30.8,23-30.8,51.4s13.8,51.4,30.8,51.4c0.3,0,0.6,0,0.8,0l0,0l0,0c0.4,0,0.7,0,1.1-0.1v0.1h213.9v14.1V785l40.4-23.4
		L329,785v-55.3v-14.1h216.6l0,0c16.7-0.7,30.1-23.4,30.1-51.4S562.2,613.4,545.5,612.7z"/>
	<rect id="XMLID_31_" x="51.1" y="163.2" class="st1" width="512" height="511.1"/>
	<g id="XMLID_28_">
		<polygon id="XMLID_30_" class="st2" points="266.3,677.2 266.3,767.1 306.7,743.7 347.8,767.1 347.8,677.2 		"/>
		<rect id="XMLID_29_" x="266.3" y="677.2" class="st3" width="81.5" height="34.6"/>
	</g>
	<g id="XMLID_25_">
		<polygon id="XMLID_27_" class="st4" points="347.8,156.1 347.8,66.2 307.5,89.6 266.3,66.2 266.3,156.1 		"/>
		<rect id="XMLID_26_" x="266.3" y="121.6" class="st5" width="81.5" height="34.6"/>
	</g>
	<g id="XMLID_9_">
		<rect id="XMLID_13_" x="52.4" y="594.9" class="st6" width="512" height="102.8"/>
		<ellipse id="XMLID_12_" class="st6" cx="563.7" cy="646.3" rx="30.8" ry="51.4"/>
		<ellipse id="XMLID_11_" class="st1" cx="50.5" cy="646.3" rx="30.8" ry="51.4"/>
		<path id="XMLID_10_" class="st7" d="M51.3,595v102.7c16.6-0.7,30-23.4,30-51.4C81.3,618.4,68,595.7,51.3,595z"/>
	</g>
	<g id="XMLID_4_">
		<rect id="XMLID_8_" x="52.4" y="132.8" class="st6" width="512" height="102.8"/>
		<ellipse id="XMLID_7_" class="st6" cx="563.7" cy="184.2" rx="30.8" ry="51.4"/>
		<ellipse id="XMLID_6_" class="st1" cx="50.5" cy="184.2" rx="30.8" ry="51.4"/>
		<path id="XMLID_5_" class="st7" d="M51.3,132.9v102.7c16.6-0.7,30-23.4,30-51.4C81.3,156.3,68,133.6,51.3,132.9z"/>
	</g>
</g>
</svg>
