<?xml version="1.0" encoding="utf-8"?>
<!-- Generator: Adobe Illustrator 19.0.0, SVG Export Plug-In . SVG Version: 6.00 Build 0)  -->
<svg version="1.1" id="Capa_1" xmlns="http://www.w3.org/2000/svg" xmlns:xlink="http://www.w3.org/1999/xlink" x="0px" y="0px"
	 viewBox="0 0 595.3 253.3" style="enable-background:new 0 0 595.3 253.3;" xml:space="preserve">
<style type="text/css">
	.st0{clip-path:url(#XMLID_35_);fill:#F37362;}
	.st1{clip-path:url(#XMLID_35_);fill:#F8A9A1;}
	.st2{clip-path:url(#XMLID_35_);fill:#847CBA;}
</style>
<g id="planeta">
	<defs>
		<rect id="XMLID_1_" x="14.3" y="15.1" width="565.3" height="229.3"/>
	</defs>
	<clipPath id="XMLID_35_">
		<use xlink:href="#XMLID_1_"  style="overflow:visible;"/>
	</clipPath>
	<path id="XMLID_7_" class="st0" d="M404.8,108.3c11.9,62.2-29,122.2-91.2,134.1c-62.2,11.9-122.2-29-134.1-91.2
		c-11.9-62.2,29-122.2,91.2-134.1C332.9,5.3,392.9,46.1,404.8,108.3"/>
	<path id="XMLID_6_" class="st1" d="M308.9,16.4c0,0-48-0.1-86,42.6c-38,42.7,58.5,20,74.1,15.7c15.5-4.3,53.1-8.2,27.7,12.1
		c-25.4,20.4,51.3,9.9,69.7-8.9C394.4,77.8,373,26.6,308.9,16.4"/>
	<path id="XMLID_5_" class="st1" d="M378.7,102.1c0.7,3.4-5.6,7.7-14.1,9.5c-8.5,1.8-16,0.5-16.7-3c-0.7-3.4,5.6-7.7,14.1-9.5
		C370.5,97.4,378,98.7,378.7,102.1"/>
	<path id="XMLID_4_" class="st1" d="M180.8,156.8c0,0,95.4-25.3,142.4,6c47,31.2-81.3,70.1-81.3,70.1S196,214.6,180.8,156.8"/>
	<path id="XMLID_3_" class="st2" d="M177.8,138.7c-55.1,14.2-89.4,26.9-99,34.1c18.1,4.9,97,0.1,217.2-22.8
		c120.2-22.9,195.4-47.5,210.4-58.7c-11.6-3.2-48.2-2.3-104.7,4.7c-0.6-3.2-4.2-11.8-4.2-11.8c17.6-2.2,34.1-4.3,49-5.2
		c66.7-4,73.5,2.4,74.9,10c1.5,7.7-2.3,16.8-66.3,36.4c-41.4,12.7-97,25.9-156.6,37.3c-59.6,11.4-116.2,19.5-159.3,22.9
		c-66.8,5.3-74.1-1.1-75.5-8.8c-1.5-7.7,3.7-15.5,66.5-35.8c14.2-4.6,30.2-8.8,47.4-13.2C177.5,128,177.3,131.7,177.8,138.7"/>
	<path id="XMLID_2_" class="st2" d="M383.3,60.3c36.4-4.4,70.5-7,99.5-7.3c81.6-0.8,94.2,15.5,96.5,27.8
		c2.4,12.3-3.3,32.1-79.5,61.3c-50.2,19.3-118.2,37.6-191.5,51.5c-73.3,14-143.3,22-197,22.5c-81.6,0.8-94.2-15.5-96.5-27.8
		c-2.4-12.3,3.3-32.1,79.5-61.3c25.2-9.7,54.7-19,87.4-27.8c0,0-2.7,8.9-3.9,22.2c-26.3,7.3-50.4,15.1-71.5,23
		c-63.5,23.8-70.6,38.2-71.3,40.1c1.3,1.6,13.3,12.3,81,11.1c51.9-1,118.8-8.8,188.4-22.1c69.6-13.3,134.7-30.6,183.3-48.8
		c63.5-23.8,70.6-38.2,71.3-40.1c-1.3-1.6-13.3-12.3-81-11.1c-24.7,0.5-52.7,2.5-82.8,5.9C390.7,69.7,383.3,60.3,383.3,60.3"/>
</g>
</svg>
