<?xml version="1.0" encoding="utf-8"?>
<!-- Generator: Adobe Illustrator 19.0.0, SVG Export Plug-In . SVG Version: 6.00 Build 0)  -->
<svg version="1.1" id="Capa_1" xmlns="http://www.w3.org/2000/svg" xmlns:xlink="http://www.w3.org/1999/xlink" x="0px" y="0px"
	 viewBox="0 0 137.7 115.5" style="enable-background:new 0 0 137.7 115.5;" xml:space="preserve">
<style type="text/css">
	.st0{fill:#E93A44;}
	.st1{fill:#1D1D1B;}
</style>
<g id="XMLID_123_">
	<path id="XMLID_133_" class="st0" d="M137.2,18.7c-0.1-2-1.1-3.6-3.2-3.4c-0.4,0-0.7,0.1-1.1,0.4c-0.2-0.1-0.5-0.1-0.7-0.2
		c-1.8-0.5-3.9,1.7-2.7,3.6c-0.5,0.2-0.9,0.5-1.1,1c-1.8-1.4-3.7-3-5.2-4.8c-1.7-2-5,0.6-3.7,2.8c0.4,0.5,0.6,1,1,1.4
		c-0.4,0.2-0.6,0.6-0.9,1c-0.4,0.7-0.4,1.6,0.1,2.3c-0.4-0.1-0.9-0.1-1.2-0.2c-1.8-0.2-3.3,1.8-2.2,3.2c-0.5,0.9-0.6,2,0.2,2.7
		c0.6,0.5,1.2,1,2,1.5c1.2,0.9,2.6,0,3.1-1.2c0.2,0,0.4-0.1,0.6-0.1c0.5-0.1,0.9-0.5,1.1-0.9c0.5,0.1,1,0.2,1.5,0.5
		c0,0.2,0.1,0.5,0.2,0.7c0.6,1.5,1.7,1.5,1,3c-0.4,0.6-0.4,1.5,0,2c0.2,0.4,0.6,0.7,1,1.1c-0.5,0.4-0.7,0.9-0.9,1.5H126
		c-1.2,0.2-2.1,2.1-1.2,3.2c0.1,0.1,0.2,0.2,0.4,0.5c-0.1,0-0.1,0-0.2,0c-1.7,0.1-2.7,1.8-2,3.3c0,0.1,0.1,0.2,0.1,0.4
		c-1,0-2,0.1-3.1,0.2c-0.9,0.1-1.4,0.7-1.5,1.4c-0.9-0.2-1.7-0.5-2.6-0.6c-0.1,0-0.2,0-0.5,0c-1.8-1.5-3.8-3-5.7-4.3
		c2-0.7,3.1-3.6,0.6-4.7c-4.9-2.2-9.8-4.1-15-5.4c-2.5-0.7-3.9,2.1-2.8,3.9c-1.8-0.6-3.7-1.2-5.5-1.7c-2.6-0.7-4.1,2.7-2.2,4.3
		c-1.2-0.5-2.5-1-3.7-1.5c-2.5-1-3.7,2.7-1.7,4.1c2.7,1.7,5.3,3.4,8,5.2c-3.4-1.6-6.9-3.3-10.2-4.9c-2.2-1.1-4.7,1.7-2.7,3.6
		c1.2,1.2,2.6,2.3,3.8,3.3c-1.4-0.7-2.7-1.5-4.1-2.2c-2.2-1.2-4.9,2-2.8,3.6c0.5,0.4,1,0.7,1.5,1.1c-2.1-1.1-4.2-2.3-6.3-3.4
		c0.4-0.9,0.4-2.1-0.5-3c-3-3.1-6.2-5.7-9.8-7.8c-1.5-0.9-2.8-0.1-3.6,1c-2.2-0.9-4.6-1.7-6.9-2.5c-2.7-0.9-4.3,2.5-2.7,4.3
		c-2.1-1-4.2-2-6.3-3c-2.8-1.4-5.3,2.6-2.5,4.3c3,1.8,6,3.6,9,5.4c-3.8-2-7.8-3.9-11.6-5.9c-2.2-1.1-5,2-2.8,3.7
		c0.1,0.1,0.4,0.2,0.5,0.4l0,0l0,0c0.9,0.6,1.7,1.4,2.6,2c-1.2-0.2-2.5-0.4-3.7-0.2c-0.9,0.1-1.6,0.7-2,1.5
		c-0.4-0.2-0.7-0.5-1.1-0.7c-0.9-0.6-1.8-0.4-2.5,0.2c-0.7-0.6-1.5-1.2-2.1-1.8c0.9-0.4,1.4-1.6,0.6-2.5c-1.4-1.5-3.1-3.8-4.8-4.9
		c-0.4-0.2-0.6-0.4-1-0.4h0.1c1.1,0,2.2-1.5,1.5-2.5c-0.4-0.5-0.7-1.1-1.1-1.6c0.6-0.6,0.9-1.5,0.4-2.2c-0.2-0.2-0.4-0.5-0.6-0.7
		c0.4-0.2,0.7-0.6,0.6-1.1c-0.1-0.4-0.1-0.6-0.2-0.9c0.1,0,0.1,0,0.2,0.1c0.7,0.2,1.2,0,1.7-0.4c1,0.4,2.1,0.5,3.2,0.4
		c0.6,0,1.1-0.4,1.5-0.7c1.5,0.2,3.2-1,2.6-2.5c0.2-0.4,0.5-0.7,0.4-1.1c-0.4-2.5-2.3-3.3-4.8-3.3c-0.7,0-1.2,0.2-1.6,0.7
		c-0.5-0.1-1-0.4-1.6-0.5c-1-0.2-1.7,0.1-2.1,0.7c-1-1.4-2-2.7-3.2-3.1c1.5-1.4-0.5-4.1-2.2-2.8c-1,0-1.6,0.5-2.2,1
		c-0.7,0.6-0.6,2,0,2.6c0.1,0.1,0.2,0.4,0.2,0.5c-0.7,0.5-1.1,1.6-0.5,2.5c0.4,0.5,0.7,1,1.1,1.4c-0.7,0.5-1.4,1.5-0.7,2.3
		c0.1,0.1,0.1,0.2,0.2,0.2c-1.8-0.5-3.6-1.1-5.2-2.1c-1.6-1.1-3.6,1-2.7,2.7c2.2,3.7,6.2,4.2,10.1,4.2c-0.2,0.6-0.1,1.4,0.4,1.8
		c0.4,0.4,0.6,0.6,1,1c-0.1,0.1-0.1,0.2-0.2,0.4c-0.6,1.2-0.5,2,0.2,3.2c0.4,0.5,0.7,1,1.1,1.5c-0.7,0.4-1,1.5-0.4,2.1
		c1.1,1.2,2.2,2.3,3.3,3.6c-0.4,0.4-0.5,1,0.1,1.5c1.7,1.4,3.4,2.5,5.4,3.4c0.2,0.1,0.5,0.2,0.7,0.1c0,0.1,0.1,0.1,0.1,0.2
		c2.6,2.7,5.4,5.3,8.4,7.6c-2.5-1.4-4.9-2.8-7.4-4.2c-2-1.1-4.4,1.7-2.6,3.3c3.8,3.3,7.9,6.5,11.9,9.6c-4.1-2.2-8.1-4.3-12.2-6.5
		c-1.8-1-4.3,1.7-2.5,3.1c0.1,0.1,0.2,0.2,0.4,0.4l0,0l0,0c6,4.7,12.2,9.1,18.5,13.3c-4.6-2.7-9.1-5.4-13.8-8
		c-2.1-1.2-3.9,2-1.8,3.2c5.5,3.7,11.1,7.3,16.6,11c-3.7-2-7.5-3.9-11.2-5.9c-2.2-1.2-4.2,2.1-2,3.4c3.3,2.1,6.6,4.2,10,6.3
		c-1,0.6-1.5,2.3-0.5,3.1c9.7,8,20.4,14.3,32.4,18.6c1,0.4,1.8-0.6,1.7-1.5c1.5,0.5,2.8-1.1,2.5-2.5c0,0,0.1,0,0.1,0.1
		c2.3,1.2,4.3-2.1,2.1-3.6c-1.7-1.1-3.3-2.2-5-3.3c3,1.4,6,2.7,9.1,3.9c2.2,0.9,3.4-2.6,1.6-3.7c-9.1-5.4-18.2-11-27.3-16.6
		c10.1,5.5,20.3,11.1,30.4,16.6c2.5,1.4,4.7-2.3,2.2-3.8c-11.4-6.8-22.8-13.4-33.8-20.7c12.6,7,25,14.2,37.4,21.2
		c1.7,1,3.7-0.7,3.6-2.3l0.1,0.1c2.2,1.2,4.8-1.8,2.8-3.7c-4.7-4.1-9.6-7.8-14.6-11.1c6,3.4,12.1,6.8,18.1,10.2
		c2.3,1.4,4.9-1.8,3-3.8c-3.7-3.4-7.8-6.5-11.8-9.5c5,2.6,10.1,5.2,15.1,7.8c2.7,1.4,5-2.6,2.5-4.1c-1.2-0.7-2.5-1.5-3.7-2.2
		c1.8,0.6,3.7,1.4,5.7,1.8c2.1,0.6,4.1-2.3,2.2-3.8c0,0-0.1,0-0.1-0.1c1-1,1.2-2.7,0-3.7c0.6,0.2,1.2,0.6,1.8,1
		c2.2,1.1,4.9-1.8,2.8-3.7c-4.2-3.6-8.7-6.5-13.4-9.4c4.2,2.1,8.4,4.1,12.6,6.2c2.6,1.2,4.7-2,2.7-3.8c2.1,0.4,4.2-2.6,2.2-4.2
		c-0.1-0.1-0.4-0.2-0.5-0.4l0,0l0,0c-2.8-2.2-5.7-4.3-8.6-6.5c1,0.5,2.1,1.1,3.1,1.7c1.2,0.6,2.6,0.1,3.4-0.9
		c2.2,0.9,4.6,1.6,6.8,2.5c1.7,0.7,2.7-1.1,2.5-2.5c0.1,0,0.4,0,0.5,0.1c2,0.4,3.4-1.5,2.6-3.3c-0.1-0.2-0.2-0.4-0.2-0.6
		c0.2,0,0.5,0,0.7,0.1c2.2,0.2,3.7-2,2.2-3.8c-0.4-0.4-0.7-0.9-1.1-1.2c0.5-0.4,0.9-1,0.9-1.6c0.1,0,0.1,0,0.2,0
		c2.1-0.1,2.6-2.5,1-3.7c-0.6-0.5-1.7-1.1-2.5-1.8c0.5-1.5,0.2-2.2-0.5-3.3c0.4-0.2,0.6-0.5,0.7-0.9c0.5-0.1,0.9-0.7,0.9-1.2
		c1.7,0.9,3.4-0.9,3.1-2.6c-0.1-0.5-0.1-0.9-0.2-1.2c0.9-0.2,1.4-1,1.5-2C136.5,20.8,137.3,20,137.2,18.7z M60.9,100.8
		c-1.8-0.9-3.7-1.8-5.4-2.8C57.2,98.9,59.1,99.8,60.9,100.8z M80.1,60.6H80c-0.9-0.5-1.7-1-2.6-1.5c4.3,2,8.7,4.1,13,6
		C87,63.7,83.5,62.2,80.1,60.6z"/>
	<g id="XMLID_124_">
		<path id="XMLID_128_" class="st1" d="M135,16c-1.5-1.2-3.6-1.4-5-0.1c-1.1,0.9-1.7,2.2-1.8,3.6c-1.1-2.8-3.3-5.7-6.2-4.6
			c-1.7,0.7-2.7,2.6-2.6,4.4c0.1,1,0.6,2,1.2,2.7c-2.8-0.4-6,1-6,4.1c0,2,1.5,3.7,3.3,4.3c2.5,0.7,4.8-0.4,6.8-1.7
			c2.8,6.6-0.1,13.4-6.8,15.9c-4.8-9.7-15.3-16.5-26.7-14.5c-9.1,1.6-17.4,7.9-20.2,16.7C66.9,37.2,56.2,31,45.8,31.4
			c-8.6,0.4-16.6,5-21.8,11.9c0,0,0-0.1-0.1-0.1C19.6,39,17,34,17.6,27.8c4.6,0.7,9.5-3,7.3-7.9c-1-2.1-3.1-3.2-5.3-2.6
			c-1.5,0.4-2.8,1.6-3.8,3c0-2-0.5-3.8-2-5c-1.7-1.4-4.4-1.7-5.9,0.1c-1.5,1.8-1.1,4.9-0.2,7.1c-1-0.5-2-0.9-3-0.9
			c-1.8,0-3.8,1.1-4.4,3c-1.7,5,6.5,6.5,10.1,6.3c0.5,6.9,2.5,16.4,10.7,17.4c-0.2,0.5-0.5,1.1-0.7,1.6c-4.4,11-1.7,24,5.8,33
			c4.6,5.3,10.8,9.1,16.7,12.8c7.1,4.3,14.4,8.4,21.9,11.9c0.2,0.1,0.5,0.1,0.7,0.1c0.5,0.4,1.1,0.6,1.7,0.1
			c11.1-7.3,22.6-14,33.4-21.8c7.9-5.7,15.8-12.6,18.8-22c1.2-3.7,1.5-7.5,1-11.2c0.1,0,0.4,0.1,0.6,0c10.8-1.5,15.8-16.1,10.7-24.9
			c0,0,0,0,0.1,0C135.4,25.3,139.5,19.9,135,16z M12.2,30.3c-0.1-0.6-0.7-0.7-1.2-0.6c0,0,0,0-0.1,0c-1.6-0.2-3.2-0.6-4.7-1.1
			c-1.1-0.4-3.8-1.2-3.8-2.8C2.2,23.9,4.9,23.7,6,24c1.5,0.5,2.6,1.7,3.8,2.6c0.9,0.6,1.7-0.7,1.1-1.5c0,0,0,0-0.1-0.1
			c0.1-0.1,0.1-0.4,0-0.6l-0.1-0.1c-0.5-1.1-1-2.1-1.2-3.2c-0.4-1.2-0.9-4.3,0.7-4.9c1.5-0.6,2.8,1.1,3.2,2.2c0.5,1.5,0.1,3.1,0,4.7
			c0,1,1.2,1.2,1.7,0.6c0.1,0,0.4-0.1,0.5-0.2c1-1.4,1.7-3,3.2-3.8c1.6-1,3.4-0.7,4.2,1.1c1.6,3.7-2.8,5.4-5.7,4.4
			c-1.1-0.4-1.7,0.7-1.4,1.6c-0.2,0.1-0.4,0.4-0.4,0.6c-1,6.4,1.6,13.5,7.6,16.6c0.1,0,0.1,0,0.2,0.1c-0.5,0.7-1.1,1.6-1.5,2.3
			c0,0-0.1-0.1-0.2-0.1C14.5,44.1,13.2,37,12.2,30.3z M99.3,82.6c-10.7,7.9-22.2,14.8-33.2,22.2c-19-9.6-49.5-22.4-44.3-48.7
			c2-10.3,10.5-19.1,20.9-21c11.3-2.2,21.7,4.6,26.7,14.3c0.2,0.5,0.7,0.6,1.2,0.6c0.4,0.5,1.4,0.5,1.6-0.4
			c3.9-10,13.8-17.7,24.9-16.7c11.3,1,20.4,11.8,20.4,23C117.3,67.5,108,76.2,99.3,82.6z M129.6,42.5c-2.2,4.2-5.7,5.8-9.6,8
			c0,0,0,0-0.1,0c-0.4-1.6-0.9-3.1-1.5-4.6c8.2-1.8,12.6-11.4,7.8-19c-0.5-0.9-1.5-0.6-1.8,0.1c-1.2,0.5-2.6,1-3.9,1.1
			c-1.2,0.1-3.3-0.4-3.7-1.8c-0.4-1.6,1.7-2.3,3.1-2.3c1.5,0,2.7,1,4.2,0.9c0.5,0,0.9-0.5,0.6-1c-0.4-0.5-0.9-1-1.5-1.2
			c-0.7-0.9-1.4-1.7-1.5-2.8c-0.2-1.1,0-3,1.5-3.2c1.2-0.1,2.3,1.6,2.8,2.6c0.6,1.2,1,2.5,1.1,3.7c0.2,1.1,2.1,0.9,2-0.2
			c0-0.1,0-0.2,0-0.4c0.4,0,0.6-0.2,0.6-0.7c0.1-1.2,0.4-2.7,1.4-3.7c1.2-1.2,2.7-0.7,3.4,0.7c1.5,3.1-1.8,5.5-3.9,7.3
			c-0.1,0.1-0.2,0.2-0.2,0.4c-0.2,0.1-0.5,0.4-0.4,0.7C131.5,32.3,132.3,37.4,129.6,42.5z"/>
		<path id="XMLID_127_" class="st1" d="M47.6,60.8c-3.6,0-6.4,3.2-5.9,6.6c0.1,1.5,2.2,1.5,2.3,0c0.1-1.7,1.7-3.7,3.6-3.7
			c2,0,3.3,1.8,3.3,3.7c0,1.8,2.8,1.8,3,0C54,64,51.2,60.8,47.6,60.8z"/>
		<path id="XMLID_126_" class="st1" d="M96.2,60.2c-1.1-1.5-3-2.5-4.8-2.6c-3.8,0-7,4.1-5.5,7.8c0.4,1,2.1,1,2.1-0.2
			c-0.1-2.1,1.1-4.8,3.6-4.7c1.1,0,2.2,0.9,2.8,1.8c0.6,1,0.4,2,0.9,3c0.4,0.6,1.2,0.7,1.7,0.2C98.2,63.9,97.3,61.7,96.2,60.2z"/>
		<path id="XMLID_125_" class="st1" d="M69.4,68.6c-1.1,1.6-3.6,1.5-4.7,0.1c-0.6-0.7-1.6,0.2-1.2,1c1.5,3,6.3,3,7.8,0
			C71.9,68.3,70.3,67.5,69.4,68.6z"/>
	</g>
</g>
</svg>
