<?xml version="1.0" encoding="utf-8"?>
<!-- Generator: Adobe Illustrator 19.0.0, SVG Export Plug-In . SVG Version: 6.00 Build 0)  -->
<svg version="1.1" id="Capa_1" xmlns="http://www.w3.org/2000/svg" xmlns:xlink="http://www.w3.org/1999/xlink" x="0px" y="0px"
	 viewBox="0 0 137.7 115.5" style="enable-background:new 0 0 137.7 115.5;" xml:space="preserve">
<style type="text/css">
	.st0{fill:#FFDE00;}
	.st1{fill:#ED7C3C;}
	.st2{fill:#1D1D1B;}
</style>
<g id="XMLID_148_">
	<path id="XMLID_157_" class="st0" d="M110,64.3c-1.9-1.7-3.7-3.5-5.6-5.2c2.2-2.4-0.7-6.8-3.7-4.7c-0.4,0.1-0.8,0.1-1.2,0.2
		c-1.5-0.8-3-0.2-3.9,0.9c-1.9-1.2-3.9-2.4-5.8-3.5c-2.3-1.4-4.4,0.5-4.5,2.6c-2.4,0-4.3,3.1-2.2,5.1c0.3,0.3,0.6,0.6,0.9,0.8
		c-0.8,0.1-1.6,0.5-2.1,1.2c-1.7-1.4-3.4-2.9-5-4.3c2.1-0.4,3.1-3.5,1.5-5.3c-1.4-1.5-2.8-2.9-4.2-4.4c0.5-0.9,0.7-2,0.1-3
		c-0.4-0.7-0.8-1.5-1.3-2.2c2.3,1,4.8-1,4.3-3.7c-0.7-4-3.8-6.6-6.6-9.3c-2.7-2.6-5.4-5.2-8.2-7.7c-0.2-0.5-0.6-1-1.1-1.4
		c-0.8-0.6-1.7-1.2-2.6-1.8c-1.8-1.2-3.7-0.1-4.4,1.6c-0.9-0.5-1.7-1-2.6-1.5c-2.1-1.1-4.3,0.5-4.5,2.4c-2.6-1.7-5.3-3.2-8.4-4.3
		c-1.3-0.5-2.4,0.3-3,1.3c-0.7-0.6-1.5-1.1-2.2-1.7c-1.5-1.1-2.9,1.1-1.8,2.4c0.2,0.3,0.5,0.5,0.7,0.8c-0.4-0.4-0.9-0.8-1.3-1.1
		c-1.8-1.6-5.7-0.1-4.6,2.7c0.4,1.1,0.9,2.1,1.5,3c-0.1-0.1-0.1-0.1-0.2-0.2c-2.6-2.5-6.1,1.2-3.9,3.9c0.8,0.9,1.6,1.9,2.4,2.8
		c-1.6-1.4-3.2-2.8-4.8-4.2c-2.3-2-6.3,0.6-4.4,3.4c0.4,0.7,0.9,1.3,1.3,2c-2.1-0.1-3.9,2.5-2,4.3c0.9,0.8,1.7,1.7,2.6,2.5
		c-0.1,0.7,0.1,1.4,0.7,2.1c1.6,2,3.2,4,4.8,5.9c-2.6-2.4-5.1-4.7-7.7-7.1c-2.2-2.1-5.5,1.2-3.3,3.3c4.3,4.3,8.5,8.6,12.8,12.8
		c-3-2.6-6.1-5.1-9.1-7.7c-2.4-2-5.8,1.3-3.5,3.5c0.9,0.8,1.7,1.6,2.6,2.4c-1.4,0.5-2.3,2.3-0.9,3.6c5,4.8,10,9.6,15,14.4
		c-1.6-1.3-3.3-2.6-4.9-3.9c-1.6-1.3-4.5-5.1-6.7-4.8c-0.7,0.1-1.4,0.4-1.6,1.2l-0.1,0.4c-0.2,0.5,0,1.2,0.4,1.6
		c0.1,0.1,0.2,0.1,0.2,0.2c0.5,0.4,1.1,0.5,1.6,0.3c0.3,0.3,0.8,0.7,1.3,1.2c-1.6-0.9-3.8,0.9-2.7,2.7c2.6,4.4,6.8,8,10.9,11.3
		c2.7,3.1,5.4,6.1,8.2,9c0.7,0.8,2.2-0.3,1.5-1.2c-0.2-0.3-0.4-0.6-0.7-0.9c1.4,1.1,2.8,2.2,4.2,3.3c2.2,1.8,4.4,3.7,6.6,5.5
		c1.9,1.5,4.5-0.9,2.7-2.7C46.8,90,41.3,86,36,81.8c-0.2-0.1-0.3-0.3-0.5-0.4c-2.6-2.3-5.1-4.6-7.6-7c0.1,0.1,0.2,0.2,0.3,0.2
		c3,2.6,6,5.2,9,7.7c6.3,5.2,12.9,10,19.5,14.8c1.9,1.4,4-0.8,3.7-2.7c1.3,1,2.6,1.9,4,2.9c1.2,0.9,2.6,0.2,3.2-0.9
		c0.1,0.1,0.3,0.2,0.4,0.3c2.4,2,5.8-1.2,3.5-3.5c-1.5-1.5-2.9-2.9-4.4-4.4c3.8,3,7.6,6,11.5,8.9c2,1.5,4.1-0.8,3.8-2.8
		c0.3,0.2,0.5,0.3,0.8,0.5c2.9,1.7,5.4-2.1,3.4-4.4c-0.8-1-1.7-1.9-2.6-2.9c1.7,1.5,3.4,2.9,5.1,4.4c2.7,2.3,6.2-1.2,3.9-3.9
		c-0.8-0.9-1.5-1.7-2.3-2.5c0.8,0.7,1.7,1.4,2.5,2c2.8,2.2,6.3-1.2,3.9-3.9c-3-3.4-6.1-6.8-9.3-10.2c4,3.3,8.2,6.3,13.1,8.4
		c2.9,1.2,5.9-2,3.5-4.5c0.5,0.3,0.9,0.5,1.4,0.8c3.4,1.9,5.9-2.9,3-5.1c-0.3-0.2-0.5-0.4-0.8-0.6c2.2-0.2,4-2.9,2.4-4.8
		C111.1,67.1,111.3,65.5,110,64.3z"/>
	<path id="XMLID_156_" class="st1" d="M12.8,44.1c-0.7-0.5-1.4-1-2.1-1.5c-1.1-0.8-2.4-0.4-3.2,0.6C6.2,42.4,4.6,42.7,4,44
		c-0.8-0.3-1.6,0.7-1.4,1.5c0.3,1.5,1.3,2.5,2.6,3.3c0.5,0.3,1,0.4,1.5,0.2c0.3,0.2,0.5,0.5,0.8,0.7c1.4,1.3,3.3,0.7,4-0.8
		c0.9,0,1.8-0.5,2.3-1.3C14.5,46.3,13.9,45,12.8,44.1z"/>
	<g id="XMLID_149_">
		<path id="XMLID_152_" class="st2" d="M111.6,62.5c-1.3-1.8-3.4-2.6-5.6-2.7c0.2-2.7-1.4-5.5-4-6.5c-2.5-1-5.3-0.1-7,1.9
			c-0.9-1.8-2.3-3.1-4.4-3.3c-4.1-0.4-7.6,2.5-9.8,6.1c-1.1-15.6-7.8-31.6-22-39.3c-15.3-8.3-35.8-5.1-44,11.3
			c-1.7,3.4-2.9,6.8-3.6,10.2c-0.1,0-0.2,0-0.3,0.1c-3.5,1.3-6.9,2.8-10.3,4.3c-0.8,0.4-0.9,1.7-0.3,2.2c2.6,2.4,6.1,4.3,9.8,4.4
			c0.1,0,0.2,0,0.2,0C11.6,76,33.7,99,58.6,101.9c0,2,0,4,0.2,6c0,0.6,0.1,1.3,0.1,2c-1.3,0.9-2.4,2.1-3.2,3.4
			c-0.6,1,0.8,2.1,1.6,1.2c0.6-0.6,1.2-1.3,1.9-1.9c0.1,0.7,0.3,1.4,0.5,2c0.4,1,2.1,1.3,2.3,0c0.2-1.1,0.2-2.2,0.1-3.4
			c0.9-0.1,1.8,0.1,2.5,0.7c0.7,0.6,0.7,1.3,1,2.1c0.3,0.8,1.6,1.2,2,0.3c1.2-2.7-1.7-5.2-4.2-5.6c-0.5-0.1-1.1-0.1-1.6,0
			c-0.3-2.3-0.9-4.5-1.4-6.6c2.4,0.2,4.9,0.2,7.4-0.1c3.9-0.4,7.8-1.2,11.5-2.4c1,1.6,1.8,3.3,2.6,5c0.2,0.5,0.4,0.9,0.5,1.4
			c-1.9,1.7-2.8,4.6-2.6,7.1c0.1,1.2,1.8,1.2,1.8,0c0.1-1.5,0.6-3.3,1.7-4.5c0.4,1.1,0.8,2.2,1.5,3.2c0.6,0.9,1.9,0.6,2-0.5
			c0.1-1.3-0.3-2.7-0.9-4.1c1.9-0.2,3.1,1.2,3.9,2.8c0.6,1.2,2.2,0.5,2.3-0.6c0.3-3.4-4.2-5.4-7-4.7c-0.1,0-0.2,0.1-0.3,0.1
			c-0.2-0.3-0.3-0.7-0.5-1c-0.9-1.7-1.9-3.3-3-4.9c13.8-5,25.4-15.5,30.3-29.6C113.7,67.7,113.1,64.5,111.6,62.5z M4.1,46.3
			c2.2-0.9,4.4-1.8,6.6-2.7c-0.2,1.9-0.4,3.8-0.4,5.7C8,48.6,6,47.7,4.1,46.3z M109.8,68.4C95.4,97.8,56.2,108.9,31,85.9
			C19,75,11.7,58.2,14.3,41.9c1.4-9,6.1-17.6,14.5-21.8c7.1-3.6,15.7-3.5,23.1-1c19.9,6.5,26.9,28.7,26,47.8c-0.1,2,3,2,3.1,0
			c0.1-1.4,0.1-2.8,0.1-4.2c1.3-3.3,3.7-6.1,7.1-7.5c3.7-1.5,5,1.7,5.2,5c0.1,2.6-1.1,4.5-1.7,6.9c-0.3,1.1,1,1.7,1.8,1.1
			c2.4-1.9,3.3-6.8,2.3-10.6c0,0,0,0,0.1-0.1c2.6-3.5,7.9-1.4,7.4,2.9c-3,1-5.8,3.7-6.8,6.7c-0.6,1.7-0.3,4.6,2.1,4.4
			c1-0.1,1-1.4,0-1.5c-0.7-0.1,1.6-3.6,1.9-3.9c1.1-1.4,2.4-2.5,4.2-3c1.7-0.4,3.7-0.1,4.8,1.5C110.3,65.8,109.8,66.9,109.8,68.4z"
			/>
		<path id="XMLID_151_" class="st2" d="M33,39.6c-0.7-1.9-2.2-3.5-4-4.3c-2-0.9-4.2-0.4-5.4,1.4c-1.4,2-0.9,4.4-0.3,6.6
			c0.3,1.2,2.3,1,2.2-0.3c-0.2-1.4-0.5-3.3,0.5-4.5c0.9-1,2.1-0.3,3,0.5c0.7,0.7,1.2,1.7,1.4,2.7c0.2,1.1-0.1,2.1,0.7,3
			c0.4,0.4,1,0.4,1.4,0.2C34.3,43.9,33.6,41.1,33,39.6z"/>
		<path id="XMLID_150_" class="st2" d="M58.5,64.2c-1.6,0.5-1.2,2.7,0.4,2.8c3.5,0.3,7.8,0.2,8.9,4.5c0.4,1.6,0.1,3.4-1.4,4.2
			c-0.7,0.4-1.6,0.6-2.4,0.5c-0.9-1.2-2.2-2-3.6-1.6c-1,0.2-0.9,1.4-0.3,2c0.9,0.7,1.8,1,2.1,2.2c0.3,1.4-0.6,2.6-1.9,3.1
			c-2.1,0.9-4-0.2-5.3-1.9c0.2-1.3,0-2.6-0.9-3.8c-0.5-0.7-1.6-0.2-1.8,0.5c-0.4,1.3,0,2.8-0.8,4c-0.9,1.7-3.2,2.2-4.4,0.6
			c-2-2.7,0.2-6.3,1.5-8.7c0.4-0.7-0.6-1.6-1.2-0.9c-1.9,2.2-3.8,4.7-3.7,7.7c0,2.3,1.2,4.6,3.4,5.5c2.7,1.2,5.6-0.3,7.1-2.6
			c2.3,2.5,5.9,3.6,9,1.1c1.5-1.2,2.2-2.9,2-4.7c2.8-0.1,5.7-2.4,6-5.6C71.6,67,64.2,62.5,58.5,64.2z"/>
	</g>
</g>
<g id="XMLID_137_">
	<path id="XMLID_147_" class="st0" d="M132.1,24.6c-0.2-1.1-0.4-1.4-1.2-2.1c-1-0.9-2.3-0.3-2.7,0.6c-0.2,0-0.4,0-0.6,0
		c-0.8,0.1-1.5,0.8-1.6,1.6c-0.8-0.3-1.7-0.6-2.5-0.8c-0.7-0.2-1.3,0.1-1.7,0.6c-2.7-2-5.4-4.1-8.1-6.1c-0.3-0.2-0.5-0.4-0.8-0.6
		c1.7,1.2,3.4,2.4,5.1,3.7c1.4,1,2.7-1.1,1.7-2.2c-0.6-0.7-1.2-1.3-1.8-1.9c0.6,0.2,1.3,0.2,2,0.1c1-0.2,1.6-1.7,1-2.5
		c-0.4-0.6-0.9-1.1-1.3-1.7c1.7,0.8,3.6-1.5,2.1-2.9c-1.2-1.2-2.5-2.4-3.8-3.5c0.6-0.7,0.8-1.8,0.1-2.6c-0.3-0.3-0.5-0.6-0.8-0.9
		c0-0.1-0.1-0.2-0.1-0.3c-0.6-0.9-0.9-1.3-1.8-1.8c-1-0.6-2-0.2-2.5,0.6c-0.4-0.1-0.9-0.3-1.3-0.4c-0.8-0.2-1.7,0.2-2.1,0.9
		c-0.6-0.3-1.3-0.6-2-0.8c-1.5-0.5-2.9,1.3-2,2.6c0.5,0.7,1,1.3,1.6,1.9c-1.5-1-3-2.1-4.5-3.1c-1.5-1-3.1,1.2-1.9,2.4
		c1.5,1.5,3,3,4.5,4.5c-2.1-1.3-4.1-2.6-6.2-3.8c-0.7-0.4-1.3,0.6-0.6,1.1c0.7,0.5,1.4,1,2.1,1.5c-0.3-0.2-0.6-0.4-0.9-0.5
		c-1.6-0.9-2.9,1.1-1.8,2.4c0.2,0.2,0.4,0.5,0.6,0.7c-1.1-0.1-1.8,1.5-1,2.4c0.8,1,1.5,1.9,2.3,2.8c-1-0.8-2.1-1.5-3.1-2.3
		c-1.3-1-2.6,1-1.6,2.1c0.6,0.7,1.2,1.3,1.8,2c-1.2-0.5-2.4,0.9-1.4,2c1.7,1.9,3.5,3.8,5.3,5.6c-1.2-0.9-2.4-1.8-3.6-2.7
		c-1.1-0.8-2.3,0.9-1.4,1.8c1,1,2.1,2,3.1,3c-0.7-0.5-1.4-1-2.1-1.4c-1.1-0.7-2,0.8-1.3,1.7c2.8,3.4,5.7,6.5,8.9,9.4
		c0.7,0.7,1.8-0.4,1.1-1.1c-1-1.1-2.1-2.2-3.1-3.3c2.1,1.5,4.3,3.1,6.4,4.6c0.9,0.6,1.9-0.4,1.6-1.3c0.6,0.5,1.2,1,1.9,1.5
		c1.3,1,3.1-0.6,1.9-1.9c-1.3-1.4-2.6-2.7-3.9-4.1c2.7,2,5.5,3.9,8.3,5.8c1.3,0.9,3-1.2,1.7-2.2c-2.7-2.2-5.5-4.5-8.2-6.8
		c3,2.2,5.9,4.4,8.9,6.5c1.2,0.8,2.9-0.8,2-2c-3.1-4.1-7.6-6.4-11.5-9.6c-0.4-0.3-0.8-0.7-1.2-1c4.9,3.5,9.7,7.2,14.4,10.9
		c1.3,1,3-0.2,2.7-1.4c0.1,0.1,0.2,0.1,0.2,0.2c1.4,1,2.9-0.9,2.2-2.2c-0.2-0.4-0.5-0.8-0.7-1.2c0.1,0,0.2,0.1,0.4,0.1
		c1.2,0.4,2.3-0.9,2-2c0-0.2-0.1-0.3-0.2-0.5C131.6,26.6,132.2,25.6,132.1,24.6z"/>
	<path id="XMLID_146_" class="st1" d="M95,14.4c-1-0.9-2.1-0.4-3.3-0.2c-0.4,0.1-0.7,0.4-0.9,0.8c-0.4,0-0.7,0-1.1-0.1
		c-0.5,0-0.8,0.2-1,0.6c-0.3-0.1-0.7-0.3-1-0.4c-0.8-0.3-1.3,1-0.6,1.4c0.9,0.5,1.9,0.9,2.7,1.6c0.7,0.5,1.6,0.2,1.9-0.4
		c0.2,0,0.4,0,0.6,0.1c0.7,0.1,1.2-0.5,1.3-1.1c0.6-0.1,1.2-0.3,1.5-1C95.4,15.3,95.4,14.8,95,14.4z"/>
	<path id="XMLID_145_" class="st1" d="M96.2,9.8c-0.8-0.7-1.8-0.9-2.8-1.2c-0.7-0.2-1.4,0.1-1.7,0.7c-0.3-0.1-0.7-0.3-1-0.4
		c-1.3-0.4-2,1.2-1.2,2.1c0.9,1,1.9,1.9,3,2.7c0.5,0.3,1,0.1,1.1-0.4c0.6-0.1,1.1-0.5,1.1-1.2c0.2,0,0.5,0,0.7,0
		C96.6,12,96.9,10.5,96.2,9.8z"/>
	<g id="XMLID_138_">
		<path id="XMLID_141_" class="st2" d="M133.9,22.6c0-0.6-0.9-0.8-1.1-0.3c0,0,0,0,0,0c0-0.6-0.5-1.3-1.2-1
			c-2.4,0.9-5.4,2.9-7.9,2.1c-1.8-0.6-1.8-1.1-1.8-3c0-1,0.3-2,0.4-3c0.1-1,0.3-2.1,0.3-3.1c0.1-4.1-0.9-8.4-4.1-11.2
			c-6.8-5.9-16.9-2.6-21.9,3.9c-1.4,1.8-2.4,3.9-3.1,6.1c0,0-0.1-0.1-0.1-0.1c-1.3-0.7-2.4-1.6-3.3-2.8c1.3,0,2.6,0,3.9-0.1
			c1.1,0,1.1-1.6,0-1.6c-1.8,0-3.6,0.1-5.4,0.1c-0.6,0-1,0.7-0.7,1.2c0.9,1.6,2.1,2.8,3.5,3.8c-1.4,0.7-2.7,1.5-4.1,2.3
			c-0.4,0.2-0.6,1-0.2,1.3c1.6,1.3,3.4,2,5.4,2c0,3.4,0.7,6.8,2.4,9.8c3.6,6.5,11,10.7,18.5,10.7c-0.2,1.6,0.3,3.2,1.3,4.4
			c0.9,1.3,2.8,2.7,4.5,2.2c0.5-0.2,0.6-0.9,0.2-1.2c-1.2-0.7-2.5-0.8-3.5-2c-0.9-1-1.3-2.2-1.3-3.5c0.3,0,0.6,0,0.9-0.1
			c1.3-0.1,2.7-0.4,4.1-0.9c0.2,0.9,0.7,1.8,1.3,2.4c0.9,0.9,2.9,2.2,4.2,1.3c0.4-0.3,0.4-0.9,0-1.2c-0.4-0.3-0.9-0.3-1.4-0.4
			c-0.6-0.2-1.1-0.4-1.5-0.8c-0.6-0.5-1-1.1-1.3-1.8C127.4,35.7,133.3,29.7,133.9,22.6z M89.1,16.7c1.3-0.7,2.6-1.4,3.9-2.2
			c-0.3,1.2-0.5,2.3-0.5,3.5C91.3,17.9,90.2,17.4,89.1,16.7z M124,34c-4.3,2.9-9.5,4.1-14.6,2.9c-10.5-2.3-17.1-12.7-13.9-23.1
			c1.6-5.3,5.7-9.9,11.2-11.3c6.8-1.8,13.1,2.4,13.7,9.4c0.3,3.9-2.4,9.6,0.7,12.9c3,3.1,8-0.3,11-1.6c0.1,0,0.2-0.1,0.3-0.2
			C130.3,27.4,128,31.2,124,34z"/>
		<path id="XMLID_140_" class="st2" d="M118,24.6c-0.1-1.3-0.9-2.4-2.1-2.9c-1.1-0.5-3-0.7-3.8,0.3c-0.2,0.3,0,0.7,0.3,0.7
			c0.7,0.2,1.3-0.2,2-0.1c0.8,0.1,1.6,0.4,2,1.2c0.3,0.6,0.3,1.3-0.1,1.9c-0.1,0.1-0.6,0.7-1,0.9c-0.2-0.1-0.4-0.2-0.6-0.2
			c-0.2-0.3-0.6-0.3-0.8,0c-0.1,0-0.3,0.1-0.4,0.2c-0.3,0.2-0.3,0.6,0.1,0.8c0.6,0.2,1.2,0.3,1.6,0.9c0.5,0.7,0.1,1.6-0.6,2.1
			c-1.3,0.8-2.8,0.1-3.6-1c-0.2-0.2-0.4-0.2-0.6-0.1c-0.5-0.1-0.8,0.5-0.5,0.9c1.5,1.5-0.4,3.3-2.1,2.3c-1.9-1.2-1.6-3.6-1.8-5.5
			c0-0.3-0.4-0.3-0.5-0.1c-1.2,2.8,0,7.6,3.8,7.3c1.3-0.1,2.3-1.4,2.5-2.7c1.4,0.9,3.2,0.8,4.4-0.7c0.7-0.9,0.8-2.1,0.2-3.1
			c0,0,0,0,0,0c0,0,0,0,0,0C117.5,27,118,25.7,118,24.6z"/>
		<path id="XMLID_139_" class="st2" d="M102.7,10.3c-1.1,0.2-1.9,1-2.2,2c-0.1,0.5-0.2,1,0,1.5c0.2,0.6,0.4,0.8,0.9,1.1
			c0.4,0.3,0.8-0.2,0.6-0.6c-0.3-0.8,0-2.4,1.1-2.3c0.5,0.1,0.8,0.5,0.9,0.9c0.2,0.6-0.4,1.1-0.2,1.6c0.1,0.3,0.4,0.5,0.7,0.5
			c0,0,0.1,0,0.1,0c0.3,0,0.6-0.2,0.7-0.4C106.6,12.8,105,9.9,102.7,10.3z"/>
	</g>
</g>
</svg>
