<?xml version="1.0" encoding="utf-8"?>
<!-- Generator: Adobe Illustrator 19.0.0, SVG Export Plug-In . SVG Version: 6.00 Build 0)  -->
<svg version="1.1" id="Capa_1" xmlns="http://www.w3.org/2000/svg" xmlns:xlink="http://www.w3.org/1999/xlink" x="0px" y="0px"
	 viewBox="-58 194.9 479 453" style="enable-background:new -58 194.9 479 453;" xml:space="preserve">
<style type="text/css">
	.st0{fill:#F6F6F6;}
	.st1{fill:#C76ED6;}
	.st2{fill:#FDE5C9;}
	.st3{fill:#C08B79;}
	.st4{fill:#1D1D1B;}
	.st5{fill:#C16F29;}
	.st6{fill:#FFFFFF;}
</style>
<g>
	<path d="M413.9,439.7c1.2,41.2-0.8,86.5-24.4,125.1c-42.4,69.2-185.8,94.6-285.4,70.1c-56.5-13.9-87-46.4-110-82.1
		c-26.3-40.6-40.2-84.5-41-128.8c0-0.8,0.4-1.4,0.9-2c-9.2-48.2-6.9-99.2,28-142.9c31.7-39.5,87.5-64.7,152.7-72.6
		c54-6.5,120.5-4.7,167.6,16.2c42.6,18.9,67.3,50.7,82.4,82.5C405.1,348.1,412.7,394.8,413.9,439.7z M393.3,526.8
		c11.2-39.8,11-81.8,6.1-122.1c-4.5-37.3-13.1-75.9-33.4-111c-18.9-32.6-51.1-63.2-102.5-74.7c-51.3-11.5-112.8-10.1-163.5,1.9
		C-27.8,251.2-47.3,345.1-34.3,424.3c0.2,0.9-0.3,1.6-0.8,2.2c2.4,46.1,17.2,91.4,46.8,133.2c29.6,41.6,72.7,70,143.3,74.8
		c50.3,3.4,106.4-3.1,151.3-18.9C358,597.3,382.9,564,393.3,526.8z"/>
	<path d="M388.8,432.4c1,6.5-1.6,13.7-2.7,20.2c-0.4,2.1-5.3,2.2-5.1,0c0.9-6.6,0.5-14.2,3.6-20.6
		C385.4,430.4,388.6,430.9,388.8,432.4z"/>
	<path d="M388.6,476.2c1.1,5.9-1.7,12.6-2.8,18.5c-0.4,2.1-5.2,2.2-5,0c0.7-6.1,0.1-13.1,3.1-18.9
		C384.9,474,388.3,474.5,388.6,476.2z"/>
	<path d="M383.5,384.8c2.1,6.7,1.1,13.9,0.8,20.6c-0.2,2.6-5.8,2.5-5.9,0c-0.3-6.8-1.3-14,0.8-20.6
		C379.6,383.4,383.1,383.4,383.5,384.8z"/>
	<path d="M378.7,521.7c0.9,6.6-3.6,13.5-8.2,19.2c-1,1.3-4.4,0.4-3.6-1c3.7-6.1,4.7-12.4,7.3-18.6
		C375,519.6,378.5,520.1,378.7,521.7z"/>
	<path d="M374.3,359.9c0.2,1.9-4.6,2.3-4.9,0.4c-1.2-5.8-2.2-11.5-2.4-17.3c-0.1-1.8,4.3-2.3,4.8-0.4
		C373.3,348.3,373.9,354.1,374.3,359.9z"/>
	<path d="M362.3,561.2c2.1-1.1,5,0.2,3.7,1.9c-2.6,3.3-6.8,6.2-10.2,9.2c-3.5,3-6.7,6.2-9.9,9.3c-1.6,1.6-5.4,0.2-3.9-1.5
		c3.2-3.4,6.4-6.8,9.8-10.1C355,566.9,358.1,563.4,362.3,561.2z"/>
	<path d="M360.4,313.4c6.2,3.2,6.6,10.2,5.6,15c-0.4,1.7-4.3,1.2-4.4-0.4c-0.1-2.4-0.7-4.7-1.7-6.9c-0.9-2.1-2.8-4-3.5-6.1
		C356,313.3,358.6,312.4,360.4,313.4z"/>
	<path d="M353.1,295.1c1,1.3-1.5,2.8-3.2,1.7c-6.3-4.5-10.8-10.1-15.5-15.4c-1-1,1.4-2.3,2.6-1.3
		C342.8,284.8,349.1,289.7,353.1,295.1z"/>
	<path d="M323.1,596.1c2.8-0.6,3.9,2,1.9,2.9c-8.7,4.3-20.4,6.9-30.2,10c-2.5,0.8-4.7-1.6-2.2-2.5
		C302.3,603.1,312.6,598.4,323.1,596.1z"/>
	<path d="M317.9,259.3c1.8,1.5-0.9,3.2-3.1,2.1c-6.5-3.5-12-7.6-17.8-11.7c-2.2-1.6,1.2-3.8,3.5-2.3
		C306.5,251.2,312.7,254.9,317.9,259.3z"/>
	<path d="M261.5,235.5c2.5,0.6,1.5,2.9-1.1,2.7c-7.6-0.7-15-2.7-22.3-4.1c-2.1-0.4-1.3-2.5,0.9-2.2
		C246.5,232.9,254.3,233.7,261.5,235.5z"/>
	<path d="M258,616.8c2.2-0.2,4,1.8,1.7,2.6c-9.1,3.1-21.4,3.8-31.4,3.1c-2.7-0.2-2.7-2.7,0-2.8c5.3-0.3,10.5-0.4,15.8-1
		C248.7,618.2,253.3,617.3,258,616.8z"/>
	<path d="M190.7,623.2c1.9-0.1,2.6,1.8,1,2.4c-11,3.6-25.2,2.3-36.4-0.2c-2-0.4-1.2-2.5,0.9-2.1C168.3,625.4,178.4,624,190.7,623.2z
		"/>
	<path d="M183.2,225.4c2.6,0.1,3.2,2.6,0.6,3.1c-7.4,1.4-15.5,1.7-23.2,2c-2.9,0.1-3.6-3.1-0.7-3.4
		C167.5,226.2,175.4,225.2,183.2,225.4z"/>
	<path d="M122.9,618.4c1.8,0.1,2.6,2,0.5,2.3c-4.3,0.6-8.5,0.2-12.5-1c-3.1-0.9-8.5-3-7.4-5.7c0.3-0.6,1.1-1,2-1
		c3-0.2,5.1,2.1,7.4,3.1C115.9,617.3,119.3,618,122.9,618.4z"/>
	<path d="M119.7,230.3c2.5-0.5,3.5,1.7,1.6,2.6c-5.9,2.9-13.3,4.7-20,6.8c-2.4,0.7-4.5-1.6-2.1-2.4
		C105.8,234.9,112.5,231.9,119.7,230.3z"/>
	<path d="M81.3,602c1.7,1-0.5,2.7-2.4,2.1c-7.9-2.8-15.3-7.2-18.6-12.9c-1-1.7,2.8-3.1,4.5-1.8C70.2,593.8,74.9,598.3,81.3,602z"/>
	<path d="M64.5,244.5c2.5-0.8,5.4,1.3,3.1,2.7c-8,4.9-15.7,9.1-21.6,15.3c-1.4,1.5-4.5,0.2-3.4-1.3
		C47.3,254.7,54.7,247.9,64.5,244.5z"/>
	<path d="M45.6,570.2c2,0.8,0.6,3.1-1.6,2.5c-7-1.9-14.9-7.1-13.2-12.7c0.4-1.3,3.5-1.7,4.3-0.4c1.3,2,1.7,4,3.3,5.9
		C40.2,567.5,42.6,569.1,45.6,570.2z"/>
	<path d="M18.8,279.4c2.2-1.1,4.3,1.2,2.7,2.4c-7.6,6-13.7,11.9-16.5,19.7c-0.7,2-5,1.1-4.4-0.8C3,292.4,8.7,284.4,18.8,279.4z"/>
	<path d="M20.5,538.6c1.2,1-1.4,2.2-2.7,1.3c-7.7-5-14.6-12.9-13-20.4c0.4-1.6,3.9-1.3,4.5,0c1.4,3.2,1.8,6.5,3.5,9.6
		C14.7,532.6,17.3,535.7,20.5,538.6z"/>
	<path d="M-0.9,497.8c0.7,1.7-3,2.3-3.9,0.7c-3.5-5.8-8.1-12.4-9.6-18.6c-0.4-1.6,2.8-2.7,4.1-1.1C-5.9,484.4-3.5,491.6-0.9,497.8z"
		/>
	<path d="M-12.1,330c1.5-1.1,4.5,0.1,3.8,1.4c-4.2,8.1-8.3,14.5-7.1,23.4c0.2,1.5-3.4,1.8-3.8,0.4C-21.6,347-20.6,336.7-12.1,330z"
		/>
	<path d="M-16.2,435.1c4.1,6,3.4,13.3,1.7,19.7c-0.4,1.5-4.2,1.1-4-0.4c1-6.4-1.1-12.2-2.1-18.5C-20.9,434.4-17.2,433.7-16.2,435.1z
		"/>
	<path d="M-17.8,405.4c0.1,1.6-3.7,1.9-4,0.4c-1.5-7.7-4.5-16.2-3.6-23.9c0.2-1.8,4.1-2.3,4.9-0.4C-17.6,389-18.3,397.6-17.8,405.4z
		"/>
</g>
<g id="ninomusica">
	<path id="XMLID_28_" class="st0" d="M204.6,604.5c0.5-1.3,1.9-1.5,2.9-0.9c1.5-0.4,2.9-0.8,4.4-1.2c1.1-0.3,2,0.2,2.5,1
		c0.5-0.1,1.1-0.2,1.6-0.2c1.9-0.2,3.1,2.9,1,3.5c-1,0.3-2,0.7-2.9,1.1c-0.3,0.2-0.7,0.3-1,0.5c-0.8,0.7-1.7,1.3-2.8,1.6
		c-1.3,0.4-2.4-0.1-3-0.9h-0.1c-1.6,0.4-3.1-1.3-2.9-2.8C204.3,605.6,204.4,605.1,204.6,604.5"/>
	<path id="XMLID_27_" class="st0" d="M110.9,589.9c2-0.8,4.1-0.4,6.2-0.3c1.8,0.1,2.5,1.9,2.2,3.3l0,0c1.4,0.2,2.2,1.5,2.1,2.7
		c0.4,0,0.9,0,1.3,0c1.2,0.1,1.8,1.9,0.7,2.6c-2.2,1.4-4.6,1.7-7.2,1.8c-1.7,0-2.9-1.4-2.5-2.8c-1.2-0.4-1.7-1.4-1.6-2.5
		c-0.4-0.1-0.9-0.2-1.3-0.4C109.2,593.5,109,590.6,110.9,589.9"/>
	<polygon id="XMLID_26_" class="st1" points="238.5,510.9 235.5,436 138.4,421.9 111.9,501 	"/>
	<path id="XMLID_25_" class="st2" d="M304.4,370.1c0,0,14.4-79.7-64.2-100.7c-64.3-17.1-133.8,16.9-135,68.5
		c-1.2,51.7-6.4,65.9,79,100.9c0,0,37.2,3.1,51.8-0.4C250.6,435,291.1,419.7,304.4,370.1"/>
	<polygon id="XMLID_24_" class="st3" points="156.3,540.7 161.9,504.8 116,501.5 117.7,540.4 	"/>
	<polygon id="XMLID_23_" class="st3" points="182.1,544.4 185.4,510.6 224.8,510 219.9,546.4 	"/>
	<path id="XMLID_15_" class="st4" d="M240.5,468.2c-0.6-1.7,0.4-3.5,1.8-4.6c-0.2-0.1-0.3-0.2-0.5-0.3c-1.9-1.4-2.5-3.8-1.3-6
		c0,0,0,0,0-0.1c-0.2-6.1-0.5-12.3-1-18.4c21.9-6.9,41.5-21.5,53.1-40.7c19.6-32.4,16.6-74.4-9.2-102.6
		c-13.4-14.6-31.1-22.4-50.2-26.4c-22.5-4.7-47.1-6.4-69.5-0.4c-18.8,5-35.8,15.7-46.5,32.2c-11,17.2-16.8,39.8-16.8,60.1
		c-0.1,28.3,16.5,48.9,38.6,61.8c-0.2,0.2-0.3,0.4-0.4,0.7c-2.4,6.1-4.8,12.2-7.2,18.3c-0.4-0.2-0.7-0.3-1.1-0.5
		c0.3,1.7-0.3,3.5-1.9,4.4c0.5,0.1,0.9,0.1,1.4,0.2c-6.6,16.7-13.1,33.5-19.6,50.2c-0.7,1.7,0.5,3.5,2.2,3.8
		c1.9,0.3,3.8,0.5,5.7,0.7c-1.9,11.7-1.7,24.1-2.5,35.9c-0.1,1.4,0.9,3,2.4,3c6,0.3,12.1,0.7,18.1,1c-5.3,17.1-8,35.1-10.7,52.7
		c-3.8-3-5.9-8.2-11.4-8.5c-3.8-0.2-6.7,2.8-7.1,6.5c-0.4,4.1,2.4,7.5,6.2,8.9c4.7,1.7,9.6,0.1,14.1-1.6c0.6-0.2,0.8-0.8,0.7-1.4
		c1.1-0.1,2.2-0.7,2.5-2.2c2.9-18.1,7.1-36,9.6-54.2c0.9,0,1.9,0.1,2.8,0.2c4.2,0.2,12.7,2.5,16.4-0.5c3.8-3,3.2-12.5,3.9-16.9
		c0.8-5.6,2.2-11.5,2.1-17.2c5.1,0.6,10.2,1.1,15.4,1.7c-0.5,7.9-0.9,15.8-1.3,23.7c-0.2,3.6-1.9,9.6,1.2,12.3
		c1.7,1.5,5.4,1.3,7.4,1.6l11.5,1.6c0.3,0.1,0.7,0.1,1,0.1c-2.7,19.2-2,38.9-4.2,58.2c-0.2,1.6,0.9,2.6,2.2,2.8
		c0.4,0.4,1,0.7,1.6,0.7c0.1,0.3,0.2,0.5,0.6,0.7c4.1,2.4,9.7,4.6,14.3,2.2c3.2-1.7,5.5-5.2,4.5-8.8s-4.8-5.3-8.4-5.1
		s-6.3,2.3-9,4.5c2-18,3.3-36.6,2.2-54.7c5.7,0.8,11.4,1.6,17,2.3c1.4,0.2,2.8-0.9,2.9-2.3c0.8-11.7,2-23.6,1.8-35.4
		c4.2,0.4,8.4,0.7,12.6,1.1c1.3,0.1,3.1-0.9,3.1-2.4l-0.6-41.7C240.8,469,240.6,468.6,240.5,468.2 M116.7,597.4
		c-2.9-0.5-6.6-2.8-5.5-6.3c1.6-4.9,6.5,0.2,8.2,2.2c1.1,1.3,2.3,2.5,3.6,3.6C120.9,597.4,118.8,597.8,116.7,597.4 M213.9,603
		c2.9,1.9-0.2,5.3-2.5,5.9c-2.9,0.8-5.9-0.6-8.6-1.6C205.9,604.7,210.2,600.6,213.9,603 M121.6,403.2
		c-15.3-17.4-18.5-38.5-14.5-60.7c3.5-19.4,10.6-39.1,25.8-52.3c14.4-12.5,33.2-18.3,51.9-19.7c37.3-2.8,81.5,5.7,103.2,39
		c20.1,31,15.3,71-8.6,98.4c-12.3,14.2-29.1,23.8-47.4,27.9c-16.8,3.7-33,2-49.5-1.5c-0.3-0.7-0.9-1.2-1.8-1.4
		C158.7,429,136.7,420.3,121.6,403.2 M158.6,517.8c-0.8,4.9-0.5,14.1-4.3,17c-3.9,3-12.4,0.7-17.5,0.4c-5.2-0.3-10.4-0.6-15.5-0.9
		c0.8-10.9,2.2-22.1,2-32.9c12.5,1.6,25.1,3.1,37.7,4.5C159.8,509.8,159.3,513.9,158.6,517.8 M219,544.5l-15.1-2.1
		c-4.9-0.7-10.5-0.8-15.3-2.1c-4-1.1-3.6-1.5-4.1-5.2c-0.4-3,0.3-6.5,0.5-9.5c0.3-5.6,0.6-11.3,0.9-16.9c12,1.2,24.1,2.4,36.1,3.5
		C220.3,522.8,219.7,533.7,219,544.5 M116.6,495c9-23.1,18-46.2,26.9-69.4c0-0.1,0-0.1,0-0.2c11.4,6,24.1,10,36.6,12.2
		c0.4,0.1,0.7,0,1,0c17.6,7.2,37.1,7.4,55.3,2.3c-1.1,22.7-0.7,45.3-0.5,68C196.1,504.4,156.3,500.1,116.6,495"/>
	<path id="XMLID_14_" class="st4" d="M215.2,364c2.5-3.8,9.2-3.9,11,0.6c0.1,0.3,0.2,0.6,0.3,0.9c0.4,0.6,0.7,1.3,0.9,2.1
		c0.4,2.7-1.7,5.2-4.1,6.1C217.7,375.7,211.9,369.1,215.2,364"/>
	<path id="XMLID_13_" class="st4" d="M180.1,357.5c2-3.9,7.8-4.2,10.3-0.5c0.2,0.4,0.4,0.8,0.6,1.3c1.2,1.6,1.4,3.7,0.4,5.5
		c-1.2,2.2-3.5,2.8-5.8,2.7C181,366.2,177.9,361.6,180.1,357.5"/>
	<path id="XMLID_4_" class="st5" d="M150.8,283.6c3.7,0.8,8.4,0.2,12.5-0.6c5.8-1.2,11.9-1.8,17.7-3.2c6-1.5,11.5-3.8,17.6-5.2
		c7.4-1.7,13.1-1.2,20-0.7c13.6,1.1,24,6.5,27.2,13.8c0.5,1.1,3.7,0.3,3.3-0.8c-0.1-0.3-0.3-0.6-0.4-0.8c2,0.5,5.4,0,7.8-0.2
		c6-0.5,12.5-1.9,18.1-3.7c6.3-2,11.8-5.1,17.9-7.4s10-5.4,13.4-8.9c3.1-3.2,4.3-6.2,5.3-9.5c1-3.4-1.4-4.9-6.4-6.1
		c-3.6-0.9-7.8-0.3-11.8,1.3c-2.8,1.1-5,2.4-7.4,3.7c-0.4,0.2-0.7,0.4-1.1,0.7c1.1-1.2,2.2-2.3,3-3.3c1.5-1.8,2.8-3.7,3-5.5
		c0.3-2.8-3.4-5.1-8.2-5.5c-6.2-0.5-12.9,3.6-16.4,6.3c-2.8,2.2-5.6,4.4-8.3,6.6c-1.8,1.4-3.9,3.6-6.4,5c0-2.5,3.3-5.9,3.5-8.4
		c0.2-2.2-0.6-4.1-3.7-5.1c-8.7-2.9-18.4,3.8-22.3,8.1c-1,1.1-1.8,2.2-2.2,3.3c-0.3,0.8-1.1,1.9-1.8,2.6c-1.5,1.5-0.9,0.2-1.5-0.6
		c-1.5-2.2-2.4-5.9-5.3-7.5c-2-1.2-5.2-1.8-8.5-0.6c-3.7,1.4-3.7,3.9-4.9,5.9c-1.4,2.2-4.3-1.3-5-1.7c-2.4-1.2-4.2-2.7-6.3-4.1
		c-3.2-2-5.8-3.2-11.2-3.3c-9.7-0.2-15,4.9-12.4,9.4c0.1,0.2-4.6-0.4-4.9-0.4c-2.1-0.2-5.3,0.7-7.4,1.1c-5.1,1-9.1,2.8-11.7,5.6
		c-5.1,5.3-0.3,9.4,5.1,12.4c-2.2,1.3-5.2,1.3-5.3,3.6C145.4,281.9,147.9,283,150.8,283.6"/>
	<path id="XMLID_3_" d="M156.2,457.3c-1.4,0-2.7-0.1-3.9-0.1l-28.3-1.5c-6.9-0.4-14-0.7-20.9-2.8c-0.9-0.3-1.7-0.6-2.5-0.8
		c-1.7-0.6-3.4-1.2-5.1-1.5l-1.1-0.2l-0.5-1.1c-2.2-4.6,0.5-9.7,4-12.2s7.8-3.1,11.2-3.6l0.7-0.1c9.2-1.3,18.7-2.7,26.9-6.9l2.1,4.1
		c-8.8,4.5-18.7,5.9-28.3,7.3l-0.7,0.1c-3.8,0.5-6.8,1.1-9.2,2.8c-1.7,1.2-3.1,3.5-2.8,5.6c1.5,0.4,3,0.9,4.4,1.4
		c0.8,0.3,1.6,0.5,2.4,0.8c6.3,2,13.2,2.3,19.8,2.6l28.3,1.5c4.9,0.3,9.1,0.3,12.3-1.9c4.9-3.4,5.3-11,5-17.9l4.6-0.2
		c0.3,8.2-0.3,17.2-7,21.9C164,456.8,159.9,457.3,156.2,457.3z"/>
	<path id="XMLID_32_" d="M258.4,474.7c-5.6,0-11.1-1.9-16.3-3.7c-1.3-0.4-2.6-0.9-3.9-1.3c-7.2-2.3-14.8-3.7-22.2-5.1
		c-8.2-1.5-16.6-3.1-24.7-5.9c-2.9-1-6-2.4-7.7-5.4c-1.5-2.6-1.4-5.5-1.3-8.1V445c0.1-4,0.1-8-0.2-11.9l4.5-0.3
		c0.3,4.1,0.4,8.3,0.2,12.4v0.2c-0.1,2.1-0.2,4.2,0.7,5.6c0.9,1.6,3.1,2.6,5.3,3.3c7.7,2.7,16,4.2,24,5.7c7.5,1.4,15.3,2.8,22.7,5.3
		c1.3,0.4,2.7,0.9,3.9,1.3c6.1,2.1,11.9,4.1,17.7,3.2c1.2-0.2,4.2-0.8,5.2-2.9c0.9-1.9,0-4.3-1.3-5.8c-1.6-1.8-3.9-3-6.8-4.3
		c-6.7-3.1-13.6-6.2-20.4-9.1l1.8-4.2c6.9,2.9,13.8,6,20.6,9.2c2.6,1.2,5.9,2.7,8.2,5.4c2.4,2.7,3.9,7,2,10.8
		c-1.4,2.8-4.5,4.7-8.6,5.4C260.8,474.7,259.6,474.7,258.4,474.7z"/>
	<g id="XMLID_31_">
		<path id="XMLID_5_" class="st6" d="M173,435.6c-1.2-6.7-8.7-10-13.7-14.7c-0.9-0.9-1.8-2.4-1-3.4c6.1-0.2,12.3-0.2,18.4,0
			c1.7,5.5,0.9,11.6-2,16.6c-1.1,1.9-2.6,3.9-2.3,6.1"/>
		<path id="XMLID_12_" d="M170.6,440.6c-0.3-1.8,0.2-3.4,0.9-4.8l-0.4,0.1c-0.7-4-4.3-6.8-8.2-9.6c-1.7-1.3-3.4-2.6-4.9-4
			c-2-1.9-2.5-4.3-1.2-5.9l0.5-0.7h0.9c6.2-0.2,12.4-0.2,18.6,0l1.3,0.1l0.4,1.3c1.8,6,1,12.7-2.2,18.1c-0.2,0.3-0.3,0.5-0.5,0.8
			c-0.9,1.5-1.7,2.8-1.5,4L170.6,440.6z M160.5,419.3c0.1,0.1,0.1,0.1,0.2,0.2c1.4,1.3,2.9,2.5,4.6,3.7c3.3,2.5,6.7,5.1,8.5,8.7
			c1.9-3.8,2.4-8.4,1.5-12.5C170.3,419.2,165.4,419.2,160.5,419.3z"/>
	</g>
	<g id="XMLID_11_">
		<path id="XMLID_6_" class="st6" d="M184.6,438.5c-1.7-6.8-2.7-13.8-2.9-20.8c2.8-2.1,7-1.8,9.9,0.3c2.9,2,4.6,5.5,5.1,9
			c0.3,2.1,0.2,4.4-1.2,6c-1.6,1.7-4.2,1.9-6.5,2.5s-4.8,2.4-4.4,4.7"/>
		<path id="XMLID_7_" d="M182.8,440.5c-0.1-0.5-0.1-1,0-1.5l0,0c-1.8-6.9-2.7-14-3-21.2v-1l0.8-0.6c3.3-2.5,8.5-2.4,12.2,0.2
			c3.1,2.2,5.2,5.9,5.9,10.3c0.5,3.2-0.1,5.8-1.7,7.6c-1.7,1.8-4,2.3-6,2.7c-0.5,0.1-1,0.2-1.4,0.3c-1.6,0.4-3.2,1.5-3,2.5
			L182.8,440.5z M183.6,418.8c0.2,5.4,0.9,10.8,2.1,16.2c0.9-0.6,1.9-1,2.9-1.3c0.5-0.1,1.1-0.3,1.6-0.4c1.6-0.3,3.1-0.7,4-1.6
			c1.1-1.2,0.9-3.3,0.7-4.4c-0.5-3.3-2.1-6.2-4.3-7.7C188.4,418.1,185.6,417.8,183.6,418.8z"/>
	</g>
	<path id="XMLID_10_" class="st4" d="M124.7,391c12.9,12.7,30.7,17.8,48.2,19.8c9.1,1,18.2,1.2,27.4,1.2c9.4,0,18.8-0.2,28-1.7
		c10.2-1.7,20.1-5.2,28-12.1c1.5-1.3-0.7-3.4-2.1-2.1c-13.8,12-33.5,12.7-50.9,12.8s-35.4-0.2-52.1-5.7c-9-3-17.5-7.6-24.3-14.4
		C125.4,387.5,123.3,389.6,124.7,391L124.7,391z"/>
</g>
</svg>
