<?xml version="1.0" encoding="utf-8"?>
<!-- Generator: Adobe Illustrator 19.0.0, SVG Export Plug-In . SVG Version: 6.00 Build 0)  -->
<svg version="1.1" id="Capa_1" xmlns="http://www.w3.org/2000/svg" xmlns:xlink="http://www.w3.org/1999/xlink" x="0px" y="0px"
	 viewBox="-44 -92.7 479 453" style="enable-background:new -44 -92.7 479 453;" xml:space="preserve">
<style type="text/css">
	.st0{fill:#D24A1D;}
	.st1{opacity:0.3;fill:#FFFFFF;}
	.st2{fill:#F6F6F6;}
	.st3{fill:#F9EF6B;}
	.st4{fill:#FFE5C9;}
	.st5{fill:#95C13D;}
	.st6{fill:#1D1D1B;}
	.st7{fill:#A4D8ED;}
	.st8{fill:#432328;}
	.st9{fill:#2E191C;}
	.st10{fill:#CF5E29;}
	.st11{fill:#F1912F;}
	.st12{fill:#FFFFFF;}
</style>
<g>
	<g>
		<g>
			<g>
				<path class="st0" d="M404.9,345.4c-5.2-0.2-14.2-0.5-22.8-0.8C388.7,344.8,395.7,345.1,404.9,345.4z"/>
				<path class="st0" d="M381.9,344.6c0,0-0.1,0-0.1,0c0.1,0,0.2,0,0.3,0C382,344.6,382,344.6,381.9,344.6z"/>
				<path class="st0" d="M411.3,339.3c0.1-2.1,0.2-4.6,0.3-7C411.5,334.6,411.4,337,411.3,339.3z"/>
				<path class="st0" d="M-12.5,335.3c0,0.1-0.2-0.3-0.3-0.6c-0.2-0.3-0.3-0.7-0.3-0.7c0.5-20.2,0.9-5.9,1.3-24.6
					c-0.7-7.3,0.9-31.1,0.6-37.6c0,0,0-0.5,0.1-1.3c0-0.8,0.1-1.9,0.1-3c0.1-2.2,0.3-4.3,0.4-4.1c-0.5-2.8,0.1-9.4,0.1-15.2
					c-0.1-2.1-0.2,1.5-0.4,3.1l0.1-13.2c0.3-5.2,0.7-6.4,0.6-0.8c0.5-17.3,2-67.5,3.2-118C-5.6,68.8-4.6,18-4.4-0.7
					C-5,4.1-4.9,15.6-5.7,20C-5.9,10.1-5.3,5.5-5.6,1.1C-4.4-2.7-4.9-20.5-3.7-28l-0.6-2.8l0.5-4.9c0-10.8,0-16.9,0-20.4
					c0-0.1,0-0.2,0-0.3c0,0,0,0,0,0l0,0l0-0.1c0,0,0-0.1,0-0.1c0,0,0-0.1,0-0.1c0,0,0-0.1,0.1-0.2c0-0.1,0.1,0,0.2,0
					c0.1,0,0.1,0,0.2,0.1l0.1,0l0,0c0.2,0,0.5,0,0.7,0c1.1,0,2.2,0,3.4,0c22.2-0.1,32.8-1,45.2-0.7c-1.8,0-6.7-0.4-1-0.5
					c1,0.5,15.3-0.4,18.1,0.1c5.6-0.1,23.9,0,17.7-0.8c3.1,0.4,19.4,0.5,9.7,0.8c5.5,0,10.8,0.1,14.8-0.1l-7.1-0.2
					c18.6-0.2,28.7,0.4,40.8-0.3l-6.9-0.3c11.1-0.1,20.4-0.2,24.8,0.5l-11.4,0.3c18.4-0.1,29.5-0.2,44.9-0.6l-5.5,0
					c19.6-0.8,121.9-1.9,139.9-2.9l-8.3-0.4l15.5-0.5c-1.8,0-7.5,1.6-9,1.5c8.3-0.1,25.3-0.2,46.7-0.4c10.7-0.1,22.4-0.2,34.7-0.4
					c1,0,1.9,0,2.9,0c0.4,0,0.9,0,1.4,0l0.3,0l0.2,0c0.1,0,0.1,0,0.1,0.1l0,0.7l0,0.7l-0.1,0.7l0,0.4l0,0.2c0,0.1,0,0,0,0.3l0,2.4
					c0,1.6,0,3.2,0,4.8c0,3.2,0,6.4,0,9.6c-0.1,51.2-0.1,102.1-0.1,117.4c-0.2,12.4-0.5,2.2-0.6,2.1c0.2,15.1,0.4,6.5,0.4,19.3
					c0,3.5-0.2-0.7-0.3-2.7c0.1,5.6,0,10.8,0.1,11.2c0.1-7,0.5-4,0.7-7l0,16.5l-0.2-0.7c0,3.7,0.6,9.3,0.5,25.5
					c0,27.3,0.1,57,0.2,84.4c-0.1-0.4-0.2-6.2-0.2-12c0,3.7,0.1,9.3,0,12.7c0.1-6.6,0.2,11.5,0.2,6.3c0.2,10.1,0.3,21.6,0.3,32.8
					c0.1,11.2,0.2,22.2,0.2,31.1c0.1,0.8,0.8,10.3,1,19.6c0.1,4.7,0.1,9.3,0.1,12.7c0,3.3-0.1,5.5-0.1,5.7c-0.3,5.5-0.5,11-0.6,12.7
					c0.1-1.4,0.6-12.2,0.8-18l0-1c0.6-13.2,0.1-3.1,0.7-16c0.1-0.7-0.4,11.2-0.9,21.7c0.4-9.4,0.9-18.8,1-22.7c0.4-8.9,0,1,0.5-9.7
					c0.3-7.6,0.6-17.6,1.1-26.3l0,0.2c1-21.2,1.1-32.5,2-51.9l0,2.1c0.4-6.9,0.7-20.4,1.3-32.7c-0.2,3.5-0.4,6.6-0.2-0.8
					c0.6-14.2,0.8-23.9,1.4-34.3l0.1-10c0.8-24.8,2.7-86.1,4.2-147.4c0.4-15.3,0.7-30.7,1.1-45.4c0.1-3.7,0.2-7.3,0.2-11
					c0.1-3.1,0.1-6.3,0.2-9.4c0-1.7,0-3.3-0.1-5l0-2.5l0-1.2l0-0.6c0-0.1,0-0.2,0-0.3l-0.3,0c-9.8-0.1-19.3-0.2-28.4-0.2
					c-26.1-0.2-47.7-0.4-60.1-0.5l2-0.1c-37.9-0.3-95.8-0.6-154-0.8c-58.2-0.2-116.7-0.1-155.9,0.2c-6.1-0.2-13.3-0.3-20.5-0.4
					c-3.9,0-7.7,0-11.5-0.1c-3.3,0-6.5,0-9.6,0c-3.2,0-6.2-0.1-9.2-0.1c6.7,0.1,8.9,0.3,8.2,0.4c-0.7,0.1-4.3,0.1-9.2,0.2
					c-0.2,15-0.3,22.7-0.4,26.9c0,2.7,0,3,0.1,3.4c0.1,0.7,0.2,1.5,0,21c-0.1,22.4-1,76.6-1.8,130.1c-0.9,53.5-1.7,106.4-2,126.3
					c0.4,21.4-0.3,48.1-0.1,69.1l-0.1-2.1c0,5.6-0.1,17.8-0.2,33.3c-0.1,5.6-0.1,11.4-0.2,17.5c0,0.9,0,1.9,0,2.8l0,1.4l0,0.1
					c0,0,0,0.1,0,0l0.2,0l0.3,0l0.7,0c1.9,0,3.8,0.1,5.7,0.2c1.9,0.1,3.9,0,5.9,0c1.7,0,3.5,0,5.2,0c9-0.1,18.5-0.1,28-0.2
					c37.9-0.2,76.4-0.6,89.4-0.8l-3.5,0c22.8-0.5,19.7,0,37.7-0.1c-2.4-0.5,17.2-0.9,24.7-1.1l-0.3,0.1c11.2-0.2,36.7-0.9,55.3-1.1
					l-0.7,0.2c15.5-0.4,44.6-0.7,55.7-0.9c12.7-0.2,28.9-0.4,46.2-0.6c17.3-0.3,35.6-0.6,52.6-1c0,0,5.5-0.1,11-0.2
					c5.5-0.1,11-0.2,11-0.2l3.2-0.1c0,0,2.1-0.1,4.8-0.2c2.6-0.1,5.6-0.1,7.3-0.1c1.6,0,1.8,0-1.2,0c-3-0.1-9.2-0.3-20.5-0.6l0.7,0
					l-8.9-0.3c-10.7-0.3-15.6-0.4-14.9-0.4l14.6,0.4c-10.7-0.3-3.2-0.1,0.9,0c-4.5-0.1-8.8-0.3-12.4-0.4c-2.1,0,1.6,0.1,3.2,0.1
					c-5.8-0.2-13.8-0.4-20.8-0.5c-11-0.3-0.7-0.1-13.5-0.5c-67.5-2-132.9-3.8-201.2-5.1c-1.6-0.1,0.3-0.1,2.3-0.1
					c-20.6-0.3-38.8-0.7-57.6-0.9c-5.2-0.2-6.6-0.4-8.2-0.6c1.5,0.2-24.3-0.2-50.7-0.6c-6.6-0.1-13.3-0.2-19.5-0.3
					c-3.1,0-6.2-0.1-9.1-0.1c-1.4,0-2.9,0-4.2-0.1c-0.7,0-1.4,0-2,0l-0.2,0l-0.1,0l0,0l0,0l0,0c0,0-0.1,0.1-0.1,0.1l-0.1,0
					c-0.1,0,0-0.1,0-0.2C-12.5,335.3-12.5,335.3-12.5,335.3z"/>
			</g>
		</g>
	</g>
</g>
<g>
	<g>
		<g>
			<g>
				<g>
					<path class="st0" d="M389.2,320.9c-0.1,2.2,0.4,1.4,0.4,1.8C389.6,318.9,389.1,320.9,389.2,320.9z"/>
					<polygon class="st0" points="388.7,284.3 388.8,284.9 388.5,279.5 					"/>
					<path class="st0" d="M389.1,250c-0.8,3.2,0,12.4-0.4,18.5l-0.2,1l0.5,2.8C389.1,264.9,388.8,255.3,389.1,250z"/>
					<path class="st0" d="M390.8,231.8c-0.3,1.1-0.2-3.9-0.1,4.3c0-0.4,0.1-0.5,0.1-0.8C390.8,234.6,390.8,233.6,390.8,231.8z"/>
					<path class="st0" d="M390.8,235.3C390.7,238.9,391,233,390.8,235.3L390.8,235.3z"/>
					<path class="st0" d="M390.8,218.7l0.2,4.7c0.2-1,0.3-5.2,0.4-3.6C391.3,214.9,391.1,215.9,390.8,218.7z"/>
					<path class="st0" d="M390.3,214.2l0.1,2.5C390.5,216.2,390.5,215.5,390.3,214.2z"/>
					<path class="st0" d="M390.6,221.8l-0.2-5.2c-0.1,0.7-0.4,0.8,0.1,2.4C390.3,218.6,390.4,219.6,390.6,221.8z"/>
					<path class="st0" d="M390.4,224.8c-0.2,2.7-0.3,6.1-0.5,1.3C389.9,235.2,390.4,233.9,390.4,224.8z"/>
					<path class="st0" d="M388.3,248.3l-0.3,3.6l0.2,3.1C388.2,253.4,388.6,248.1,388.3,248.3z"/>
					<path class="st0" d="M391.5,189.1c-0.1-0.3-0.4,1.6-0.6,1.9l0.1,3.5C391.2,192.8,391.3,189.3,391.5,189.1z"/>
					<path class="st0" d="M390.9,191l-0.2-5.2C390.6,190.5,390.7,191.3,390.9,191z"/>
					<polygon class="st0" points="389.6,213.3 390,221.9 389.6,211.6 					"/>
					<polygon class="st0" points="391.8,169.1 392.1,172.1 391.6,166.8 					"/>
					<path class="st0" d="M391.9,155.8c0.3,2.2,0.5-3,0.7-0.7c0-3.6-0.2-6.7-0.4-9.5C392.2,148.6,392.2,151.7,391.9,155.8z"/>
					<path class="st0" d="M391.9,141c0.1,1.5,0.2,3,0.3,4.7C392.1,144.1,392,142.5,391.9,141z"/>
					<path class="st0" d="M390.9,176.9c0.1-0.4,0.3-1.2,0.5-4.1l-0.5,2.1C390.9,175.4,390.9,176.1,390.9,176.9z"/>
					<path class="st0" d="M390.9,174.9L390.9,174.9c0.1-2.3,0.1-3.9,0.1-4.5C391,170.9,390.9,172.3,390.9,174.9z"/>
					<path class="st0" d="M390.9,177.4c0-0.2,0-0.3,0-0.5C390.8,177.1,390.8,177.2,390.9,177.4z"/>
					<path class="st0" d="M390.1,199.6c-0.2-3.1-0.4-9.5-0.8-3.3C389.5,198.5,389.8,194.9,390.1,199.6z"/>
					<path class="st0" d="M390.3,179.9l-0.2,5.6c0.1-0.1,0.3-1.1,0.4,0.4L390.3,179.9z"/>
					<polygon class="st0" points="390.2,177.2 390.3,179.9 390.4,177.9 					"/>
					<path class="st0" d="M391.4,150.5c-0.2-2.4-0.1-5-0.1-8c-0.1,3.2-0.2,6.5-0.2,9.6C391.1,152.5,391.3,153.9,391.4,150.5z"/>
					<path class="st0" d="M391.1,162.3c0-0.2,0-0.4,0-0.5C391,162.1,391,162.4,391.1,162.3z"/>
					<path class="st0" d="M391.6,113.2c0,0.2-0.1,0.3-0.1,0.5c0,0,0,0.1,0.1,0.1L391.6,113.2z"/>
					<path class="st0" d="M390.9,152.6c-0.1,2.4,0,3.8,0.1,5.2c0-1.8,0-3.7,0-5.7C390.9,151.9,390.9,151.9,390.9,152.6z"/>
					<path class="st0" d="M391.8,132.8c-0.1,1.2-0.2,2.7-0.3,4.1C391.6,135.7,391.9,133.2,391.8,132.8z"/>
					<path class="st0" d="M391.2,161c0,0.1,0,0.2,0,0.4C391.3,160.6,391.3,160.7,391.2,161z"/>
					<path class="st0" d="M391.2,161c0-1.2-0.1-2.2-0.2-3.2c0,1.5,0,2.8,0.1,4C391.1,161.5,391.2,161.2,391.2,161z"/>
					<path class="st0" d="M388.9,104.3c0.4,0.4,0.7,6.7,0.2,12.2c0.2,5.4,1.6,1.9,2.4-2.8c-0.2-0.2-0.3-0.2-0.5-5.7
						c-0.2,1.9-0.6,12.2-1,7.6c-0.1-7.3,0.2-6,0.5-9.5c-0.5,3-0.6-9.3-1.4-7.7l0.2,6.4C389.2,104.9,389,102.5,388.9,104.3z"/>
					<path class="st0" d="M391.3,124.2l0,2.3c0.1-2.6,0.3-4.4,0.6-7.8c-0.1-3.8-0.3-4.6-0.4-4.8l-0.2,11.2L391.3,124.2z"/>
					<path class="st0" d="M391.2,136.6c-0.4-1.8-0.5-7.2-1-3.9c0,6.6,0.3,4.7,0.4,8.6C390.6,130.6,390.8,144.4,391.2,136.6
						c0,2.2,0,4.1,0,5.9c0.1-1.9,0.2-3.8,0.3-5.5c0,0.1,0,0.2,0,0.2l0,0.1l0,0c-0.1,0.5-0.1,0.6-0.1,0.1c0,0,0-0.2,0-0.2
						C391.3,137,391.3,136.8,391.2,136.6c0.1-3.1,0.1-0.5,0.2,0.5c0,0,0,0.1,0.1,0.1c0,0,0,0,0,0l-0.1-10.7
						C391.3,128.7,391.2,131.6,391.2,136.6z"/>
					<path class="st0" d="M388.4,190.5c0-0.3,0.1-0.3,0.1-0.3C388.5,189.5,388.4,189.2,388.4,190.5z"/>
					<path class="st0" d="M388.7,186.1c0.1,0.8,0.2,1.4,0.1,4c-0.2,2.2-0.2,0-0.3,0.1c0.1,1.5,0.2,5.4,0.5,0.6L389,190
						c0.2-4.3,0.8-9.9,0.9-9.1C389.4,182.1,389.1,183.2,388.7,186.1z"/>
					<path class="st0" d="M389.9,161l-0.1-9l-0.4,4.6l0.2-0.2C389.4,161.5,389.7,160.4,389.9,161z"/>
					<polygon class="st0" points="391.8,112.2 392.2,113.4 391.6,108.2 					"/>
					<polygon class="st0" points="391.9,100.6 392.3,101 392.1,97.9 					"/>
					<path class="st0" d="M11.5,80.4l0.1,2.6C11.5,81.8,11.5,81,11.5,80.4z"/>
					<path class="st0" d="M11.8,61.4l-0.2-0.5C11.7,61.8,11.8,62.2,11.8,61.4z"/>
					<path class="st0" d="M253.7-50.2c-3.8-0.4-8.1-0.9-7.6-0.5l1.2,0.4C249.9-50.4,252-50.3,253.7-50.2z"/>
					<path class="st0" d="M58.1-47.7c0.4,0,0.7,0.1,1.1,0.1c0.9-0.1,1.8-0.3,2.6-0.4C60.7-47.9,59.4-47.8,58.1-47.7z"/>
					<path class="st0" d="M55.4-45.9l-5-0.3C51.5-46,53.1-46,55.4-45.9z"/>
					<path class="st0" d="M10.2,184.4l0.4,3.1C10.7,182.7,10.4,184.8,10.2,184.4z"/>
					<path class="st0" d="M393.1-18.5c0.2-3.3,0.3-5.9,0.4-8.2C393.2-22.8,392.8-19.6,393.1-18.5z"/>
					<path class="st0" d="M7,72.9c0.1,1.6,0.1,2.3,0.2,2.3C7.2,73.5,7.1,72.5,7,72.9z"/>
					<path class="st0" d="M393.6-36.3c0,0.6-0.1,1.2-0.1,1.7c0,2.4,0.1,4.8,0,7.8C393.7-29.7,393.9-33.1,393.6-36.3z"/>
					<path class="st0" d="M244.9,319.8c0.3,0,0.6,0,0.9,0.1C245.9,319.8,245.5,319.7,244.9,319.8z"/>
					<path class="st0" d="M354.8,324.4c-1.1,0-2.8,0-4.5,0C351.1,324.5,352.4,324.5,354.8,324.4z"/>
					<path class="st0" d="M392.6,53.8C392.6,56.2,392.7,54.2,392.6,53.8L392.6,53.8z"/>
					<path class="st0" d="M390.8,65.8c0-0.5-0.1-0.9-0.2-1C390.7,65,390.7,65.3,390.8,65.8z"/>
					<path class="st0" d="M377.9-47.7c-0.1,0-0.1,0-0.2,0C378.4-47.6,378.3-47.6,377.9-47.7z"/>
					<path class="st0" d="M392.4,57.5c0.1-0.9,0.1-2,0.2-3.2C392.5,54.8,392.4,55.8,392.4,57.5z"/>
					<path class="st0" d="M392.6,57c0,0.9,0,1.5-0.1,2.2C392.6,59.5,392.6,59.2,392.6,57z"/>
					<path class="st0" d="M392.6,50.3c0,1.4,0,2.7-0.1,4c0-0.5,0.1-0.7,0.1-0.6C392.6,53.1,392.6,52,392.6,50.3z"/>
					<path class="st0" d="M42.9,320.4c0.2,0,0.4,0,0.5,0C45.9,320.3,44.8,320.3,42.9,320.4z"/>
					<path class="st0" d="M189.5-45.7c0.1,0,0.2,0,0.3,0C189.7-45.8,189.5-45.8,189.5-45.7L189.5-45.7z"/>
					<path class="st0" d="M180.7-45.4c3.8-0.5,5.9-0.5,8.8-0.4l-2.9-1.3L180.7-45.4z"/>
					<path class="st0" d="M10.9,126l0.5-6.2c0.5,7.5,0.2,12.9,0.8,7.1c-1.3-0.9,0.3-24.2-1.1-25.1l0.4-4.1c0,1.2,0,1.4,0,2.5
						c0.8-8-0.9-5.9-0.5-16.2c0.2-3.6,0.4-6.1,0.5-3.6l-0.2-8c0.1-2.3,0.3-1.7,0.2,0.6l0.1-12.2l0,0.1c-0.2-1.7-0.4-5.7-0.6-7.6
						c0.2-3.1,0.1,1.6,0.3,0.8l-0.2-6.7c0.4-2.7,0.6,2.9,0.5,7.5c1.5-6.3-0.2-5.6,0.8-19.2l0.1,6.4c0.8-4.1,0.6-9.1,1.2-16.2
						c-0.3,1.7-1.4,14.4-1.7,7.1c0.1-2.1,0.2-4.8,0-8.7c0.5,0,0.4-3.9,0.5-8.7l0.6,0.3c-0.1-5.2-0.4-4.8-0.7-7.9
						c0.2-5.8,0.7-7,1.1-8.4c0.3-9.3-0.9,6.4-0.8-4.6c0.4-7.7,0.2-13.2,0-22.4c0.3-5.4,0.4,1,0.6-1L13-33.3c0-1.2,0.2-0.8,0.3-0.6
						c-0.1-4-0.6-0.3-0.7-6.7c-0.2-0.4-0.2-1.3-0.1-2.5c0-0.3,0-0.6,0.1-0.9c0-0.2,0-0.5,0.1-0.7c0.1-0.5,0.1-1,0.2-1.5
						c0.7,0.1,1.3,0.1,2.1,0.2l0.2,0l0.4,0l0.9,0c0.6,0,1.2,0,1.8,0.1c2.4,0.1,4.8,0,6.9-0.2c1.9,0.2-0.9,0.4-0.3,0.6
						c10.8-0.5,9.3-0.4,18.1-1.1l7.6,0.4c-5.6-0.5,1.5-1,7.8-1.5c-2-0.2-3.7-0.4-4.8-0.5l9.9-0.3c1.2,0.1,0.2,0.3-1.4,0.6
						c0.7-0.1,1.3-0.1,1.8-0.2c3.5,0.2,1.7,0.6-0.8,1c-1.2-0.1-2.4-0.3-3.6-0.4c-2.4,0.4-4.7,0.8-4.2,1.2c0.6-0.1,1.9-0.1,3.2-0.2
						c-0.6,0.1-1,0.2-0.8,0.3c0.3,0.1,1.4-0.1,3-0.2l2.3,0.7l0.5-0.3l13,0.4c9.3-0.7,17.3-1.8,32.1-2.1c-3.7,0.5-0.8,0.9-1,1.5
						c-4-0.7-11.4,0.3-19,0.1c4,0.1,3.1,0.4,2.1,0.5l13.6-0.6c-0.3,0.5,2.9,0.4,6.4,0.6c-2.7-1,10.1-0.7,15.7-1
						c0.3,0.3-1,0.7-7.7,0.6c7.5,0.8,9.6-1.2,17-0.5c-1.7,0-2.5,0-3.2,0.1c3.9-0.3,13.3-0.1,11.1,0.2l-1.6,0c11,0.1,33.3,0,35-0.8
						c0.1,0.1-1.4,1-2.1,1.2l19.5-2.9c-1.7,0.7,4.9,2.5-4.2,2.9c2.6,0.1,5.8,0.2,11.3,0c-1.8-0.1-4.4-1.1-2-1.1
						c6.7,0.8,4.6,0.4,12.9,1.1c-2.7-0.2,0.3-1.3,4.5-1.3c-0.7,0.2,0.4,1.1-1.2,1.2l10.5-1.1c-2.6,0.2-0.5,1,1.9,1.3
						c-1.1-0.2,9.1,0,11.9-0.1l-4.4-0.3c11.8,0.2,11.7-1.6,23.4-1.5c-1.4,0.2-3.5,1.4,2.5,1.6c2.7-0.6,12.1-2.8,22.5-3.2l2,0.3
						l8-0.4c-5,0.9-18.9,2.7-26.5,3.4c4.4,0.3,1.2,0.4,7.9,0.4c2.3,0.3-3.6,0.5-5.6,0.5l15.5,0.2c-0.7-0.7,11.8-0.7,11.2-1.2
						l-16.8,0.7c-0.7-0.7,9.7-1.9,20.7-1.8c2.8,0.3-2.1,1.2-1.9,1.4c1.4-0.2,10.4-0.4,11.4-0.3l-4.6,0.4c6.1,0.3,9.9-0.9,17.3-0.2
						c2.5,0,7.5,0.9,8,0.5c-4.1-0.8-4.9-3.1-2.2-3.7c0.9,0.1,13.3,0.7,16.2,1.1c4.2,0.6-6.3,1.4-2.7,1.9c0.2-0.2,2.5-0.4,3.4-0.5
						c2.7,0.2-1.1,0.6,4.7,0.5c1-0.7,11.7,0.1,2.7-0.6c5.6-0.2,6,0.1,12.6,0.1c-2.1-0.4,6-1.5,11.6-1.7c-0.3,0.2,0.9,0.4,1.6,0.5
						c2.6,0,4.9,0.1,7.1,0.1c2.1,0,4,0.1,5.9,0.1c-0.1,2.3-0.1,4.6-0.2,7c-0.1,2.5-0.1,5.1-0.2,8.1c-0.2,1-0.4,6.2-0.7,4
						c0.1,1.6,0.3,3,0.3,6.3c-0.7,6.4,0-7.4-0.8-2.5c0.4,0.4,0.4,8.6,0.6,13.4c0.6-1.5,0.2-10.9,0.1-15.7c0.8,0,1.6,8.3,1.9,19.5
						c0.1,9-0.6,3.9-0.5,5.4c-0.3,16.8,1.3,14.4,0.5,28.3c-0.6,5.5-1.1,0.2-1.5,1.5c-0.1-7.3,0.5-11.2,0.5-16.2l-0.3,6.1
						c-0.2-2.3-0.2-7.2,0-9.9c-0.5,4.6-0.4,28.4-1,41.4c0.2,2.3,0.3,6.3,0.5,4.4l0-4.1c0.5-3.8,0.5,7.7,0.8,2.5
						c0.2,5.5,0.6,11.7,0.3,19.5l-0.6,1.5c0.2-0.2,0.4-5.1,0.3-7.3c0.2,3.2-1,11.9-0.2,15.4l0.5-5.4c0.2,5.5,0.8,12.4,0.5,19.3
						c0.6-3.1-0.1-1.6,0.7-6.5c-0.9,4.2,0.2-17.6-0.8-10.8c0.9-5,0.5-8.7,1.2-15.2c-0.2,0.2-0.4,2.3-0.2-3.5
						c-0.1-0.3-0.1-0.9-0.2-1.3c0-0.2,0-0.2,0-0.4c0,0.1,0,0.2,0,0.3c0-0.3,0-0.3,0,0.1c-0.1,1.4-0.2,2.5-0.3,2.9
						c-0.4-2.9-0.3-12.1-0.5-15.2c0.1-3.4,0.2,1.4,0.5-0.4l-0.3-4.6c0.5-0.5,0.9-9.1,1-1l0.1-7.3c0.3-4.3,0.5-10.2,0.3-13.8
						c0.1-3.4-0.4-8.7-0.1-5.7l-0.1-11.4l0.1-0.1c0.2-11.2-0.5-23.1,0.5-36c0-1.8-0.1-3.6-0.1-5.7c0-1.1,0-2.2,0-3.4
						c0-2,0.1-4.1,0.1-6.4c-0.4,0-0.9,0-1.5,0l-1.8-0.4c-1,0-2.1,0-3.3,0c-0.7,0-1.5,0-2.3,0c-1.6,0-3.4-0.1-5-0.1
						c-3.3-0.1-6.3-0.1-7.3,0.1c-5.2-1-23.6-0.2-32.1-0.4l-0.3,0.5c-5.9,0-11.5,0.1-18.8,0.3l0.4,0.4c-6.3,0.4-16.2-0.3-26.1-0.3
						c0.7-0.2,3.2-0.1,5,0c-11.9-1-25.1,0.7-35.9,0c-2.7,0.2-4.6,0.1-6.5,0c0.3,0,0.5,0,0.7,0c-0.3,0-0.7,0-1.1,0
						c-1.2-0.1-2.4-0.2-3.7-0.2c1.1,0.1,2.2,0.2,3.1,0.2c-2.1,0-5.2,0.1-8.3,0.2l-1.3-0.5c-0.3,0-0.5,0-0.7,0
						c-3-0.2-2.4,0.2-0.8,0.6c-1.6,0.1-3,0.2-4.1,0.3c-2.5-0.8-8.1,0.3-11.4-0.6c-2.1,0.4-15.5,0.3-17.1,1.2c-0.1-0.1-1-0.2,0.7-0.2
						c-3.4-0.1-6.9-0.2-10,0l-1.5-0.6l-7.5,0.8c-4.6-0.4-6.4-0.6-1.9-1.1c-10.9,0.7-8.9,0.3-18.2,1l0.5-0.4c-3.3,0-8.6,0.5-10.6,0.2
						c-7.4-0.8-36.8-0.1-55.8-0.8c3.7,1.2-8.9-0.5-9.6,0.4c-1.1-0.3-3.8-0.4-0.7-0.7c-9.7,0.3-14.6-0.4-21.3,0.3
						c-1.1-0.3,2.1-0.4,1.1-0.6c-0.8,0.1-3.1,0.2-4.1,0.1c-1-0.2,1.4-0.2,3-0.4c-9.9,0-10.9,0.9-11.7,1.7c-5-0.4-7.6-0.3-11.2,0.2
						c-1.8-0.3-4.7-0.5,1.5-0.6c-3.5,0-21.2-0.4-21.6,0.3c-1.1-0.2-4.9,0-5.8,0c-3.9,0-6,0-8.1-0.1c-2.4,0-4.7,0-9,0L14-49
						c-1.2,0.2-2.3,0.3-3.6,0.4c0,0.7,0,1.5,0,2.3c0,0.8-0.1,1.7-0.1,2.6c-0.1,1.6-0.2,3.3-0.2,5.5L10-38.4
						c-0.8,14.1,0.2,6.1-0.7,20.1l0.5-0.8c1,1.3-0.8,12.4-0.6,20.5l0.3-2.9C9.9,2.9,8,10.8,7.8,15.2c-0.1,1-0.1-1.5-0.2-2.9
						C6.8,24,8.2,13.9,8.2,22.5c-0.4,1.6-0.8-2.1-1,3.8c-0.3,2.9,0.8,17,0,24.9c0.3-1.8,0.6-3.5,0.7,0.5C8,57.9,6.7,68.4,7.5,74
						c-0.1,0.8-0.2,1.1-0.2,1.1c0.1,4.7,0.1,15.3,0.5,18.2c-1.7,4.3,0.3,29.4-1.2,29.2l-0.2,14.5l-0.1-0.4
						C6,146,6.3,149.3,6.6,152.5c-0.1,2.1-0.3,0.6-0.3,0.4c-0.5,13.6-0.5,14.9,0.1,26.3l-0.5,1.2c0.2,3.1-1.1,19.6-0.7,32.9
						c-0.1-0.1-0.1-0.4-0.2-1.5c0.3,15-2,35.8-0.3,41.3l0.3,9.9c0.4-12.8,0.8,1.9,1.1-3.3c0,5-0.8,13-0.8,6.8l0.1-1
						c-0.9-2.3-0.6,15.9-1.2,15.5c-0.1,6.9-0.2,13.7-0.4,20.5c-0.2,7.4-0.4,14.8-0.6,22c6.2,0.1,12.3,0.1,18.4,0.2
						c5.4,0,10.8,0.1,16.2,0.1l-2.7-0.7l8.2,0.1c2.2,0.2,2.9,0.6-3,0.5c3.1,0.4,9.8-0.3,10-0.5c11.5,0.3-4.5,0.8-1,0.9l4.8,0L53,324
						c3.9-0.3,4.2-0.6,11.3-0.6c4.5,0.2,2.3,0.5,4,0.5c0,0.1,0.6,0.1,2.7,0l10.3,0.1l-4.1-0.6c4.6-0.3,9.7,0.1,5-0.6
						c7,1,38.6,0.5,42.9,0.8c6.4-0.4,12.8-0.4,20.6-0.3c-2-0.1-3.1-0.8,3.7-0.7c-2.5,1.3,12.4,0.6,17.9,1.6
						c-4.9-0.7,19.3-0.1,11.6-1c5.7,0.1,0.3,0.5,4.6,0.8c13.5-0.5,29.7,0.4,46.3,0.3c0.3-0.2-2.5-0.5,1-0.7l8.8,0.9
						c3.3-0.1,3-1,9-0.4c-0.8-0.2-2.1-0.4,0.1-0.4c32.6,0.9,66.6-0.5,99.7,1.2c-4.5-0.4-1.5-0.4,1.9-0.4c-2.2-0.1,0.1-0.4-0.4-0.7
						l13.9,0.7c2.5-0.7,14.9,0,16.3-0.6l-4.4,0.1c5.8-0.7-8.2-1.7-7.3-2.6c-6.5,0.8-17.2-1.3-27.9-0.1c-2.4-0.2,2-0.3,0.8-0.5
						c-2.7,0.4-6,0.5-12.1,0.3l0.7-0.1c-17.1,0.1-24.4-0.4-43.6-0.7l1.4,0.5c-4.1-0.1-5-0.2-6.9-0.3c-4.7,0.7,11.6,0.1,7.3,0.9
						c-5.5-1-29.1-0.1-32.8-1.2c-6.3,0,1.9,0.6-4.5,0.5l-1.7-0.3l-1.6,0.4c-4.2-0.1-6.3-0.4-6.4-0.7c1,0,2.9-0.1,4-0.1
						c-5.4-0.4-15.2,0.1-17.1,0l6.1,0.2c-17.3,0.2-38.5-0.2-55.2,0.4l1.3,0.2c-12.8,0.4-10.2-0.3-24.3-0.1l0.5-0.1
						c-2.8,0.2-6.6,0.3-10.4,0.3c3.5-0.3-6.7-0.5-2-0.8c-13.9,0.4-6.9,0.3-16,1.1l-2.1-0.4c-3.1,0.3-3.4,0.5-10.4,0.6
						c5.7-0.3-4.5-0.6,2-1c-14.7-0.8-21.8,0.8-28.6-0.4c-6.8,1,12.7,0.6,8.9,0.8c3.2,0.3-5.6,0.8-10.2,0.6c-4.7,0-8-1.3-19.8-1.3
						c1.2,0,1.3-0.1,2.4-0.1c-4.4-0.3-8.7,0.3-14.1-0.1c-3,0.6-7-0.1-7.9,0.7l10.8-0.2c-6.1,0.2-11.9,1.1-22,0.6
						c0.8-0.2,3.8-0.4,5.9-0.5c-3-0.2-5.7,0.1-8.8-0.1c0.9-0.8,13.2-0.1,19.7-0.7c-3.2-0.3-12.4,0.5-9.1-0.3
						c-4.8,1.1-11.6-0.2-19.6,0.6l0.5-0.5c-1.3,0.1-3.9,0.3-6.2,0.3l4.2-0.6c-3.2,0.3-6.3,0.1-9.3,0c-1.5-0.1-3-0.1-4.6-0.2l-1.1,0
						c-0.2,0-0.4,0-0.7,0l0-0.1c0,0,0,0.1,0,0.1c0.5,0,0.8,0,1.1,0c0.4,0,0.8,0,1.1,0c0.3,0,0.6,0,0.9,0c0.9,0.1,1.1,0.1,0.9,0.2
						c-0.2,0.2-1.3,0.4,1.4,0.6c-1,0-1.8,0.1-2.6,0.1c-0.7,0-1.4,0-2,0c-0.8,0-1.4,0-1.8,0c0.1-0.9,0.2-1.5,0.3-2
						c0-0.1,0-0.1,0.1-0.2l0.1-0.4c0-0.2,0.1-0.5,0.1-0.7c0.1-0.5,0.1-1,0.2-1.6c0.3-2.3,0.6-5.5,0.6-12.4c0,2.4-0.4,9.1-0.6,5.3
						c0.2-3.4,0.4-7.9,0.7-10c0.1-11.9-0.5,1.8-0.7-3.3c0.6-4-0.1-5.8-0.2-11.1l0.5,0c0.5-13.6-0.9-3.6-0.4-15.8l0.6,5.2L8,266.7
						l0.5,1.3c-0.3-6.9-0.2-9.1,0.1-15.9c-0.4,1.6-0.9-0.9-0.8-6.9c0.4-4.1,0.4,2.3,0.5-6.2c0.3,1.9,0.6,4,0.1,7.7
						c0.2,0.4,0.3,1.9,0.4,2.3c0.4-4.4,0.3-11.1,0.3-14.2c0,1.2-0.1,2.6-0.2,3.3l-0.5-12.3c0.2-1.9,0.3-0.4,0.5,1.1
						c0-2.5-0.2-4.2-0.2-7.9c0.4,1,0.8,0.7,0.9,5.9l-0.2-11.8c0.2-0.8,0.6-6,0.7-4.5c0.3-6.5-0.5-16,0-24.6
						c-0.1-0.5-0.1-1.4-0.2-3.2c0.2-8.1,0.8-15.3,0.4-24.9l0.8-5.4c0-7.5-1,7.4-1.1-5.2c-0.1-8.9,0.7-3.3,0.9-6.4
						c-0.3-4.4-0.9-12.1-0.2-20.3C11,121.4,10.9,123.5,10.9,126z M12.1,33c0.1,1.8,0.3,5.4,0,6.7C11.6,37.7,11.9,36.1,12.1,33z
						 M71.8-46.7c-1.3,0.2-3.4,0.1-5.7-0.1C67.7-46.9,69.7-46.9,71.8-46.7z M392.5,26.7c0-0.1,0-0.1,0-0.2
						C392.8,22.5,392.7,24,392.5,26.7z M392.2,35.1c0.1,0.8,0.1,0.8,0.2,0.4c-0.1-0.6-0.1-2.5,0-4.6
						C392.3,31.5,392.2,32.6,392.2,35.1z M69.2,323.7l-1.6-0.1C71.2,323.5,70.2,323.6,69.2,323.7z"/>
					<path class="st0" d="M55.8-46.1c-0.5-0.1-0.7-0.2-0.8-0.3C54.3-46.3,54.3-46.2,55.8-46.1z"/>
					<path class="st0" d="M10.2,183.8l0,0.3c0,0.2,0.1,0.2,0.1,0.3L10.2,183.8z"/>
					<path class="st0" d="M344.6-45.8c-1.7-0.1-2.7-0.2-3.3-0.2C341.2-45.9,342-45.8,344.6-45.8z"/>
					<path class="st0" d="M392.5,79.3l-0.1-5.3c0,2.6-0.1,3.5-0.2,4.8C392.4,78.7,392.5,77.6,392.5,79.3z"/>
					<path class="st0" d="M389,125.7c0.1,0.8,0,1.7,0,2.4l0.2-0.2C389.3,124.6,389.1,122.2,389,125.7z"/>
					<path class="st0" d="M390.9,84.2c-0.4,0.4-0.3,3.8-0.3,7.5c0-0.2,0-0.4,0-0.7C391.1,92.2,391,88.2,390.9,84.2z"/>
					<path class="st0" d="M390.6,92.6c0,1.2,0,2.3,0,3.5C390.8,96.5,390.6,94.7,390.6,92.6z"/>
					<path class="st0" d="M392.4,45.7c-0.1,1.8,0.5,1.1,0.3,2.1C393.2,49.8,392.2,35.9,392.4,45.7z"/>
					<polygon class="st0" points="389.5,87.3 390,85.9 389.6,83.8 					"/>
					<path class="st0" d="M390.2,57.7l-0.2,6c0.1-0.1,0.1,0.7,0.2,1.6C390.2,61.6,390.4,57.6,390.2,57.7z"/>
					<path class="st0" d="M390.2,65.3c0,1.9,0,3.7,0,4.8C390.2,69.1,390.2,66.8,390.2,65.3z"/>
					<polygon class="st0" points="389.4,79.1 389.6,77.3 389.7,73.1 					"/>
					<path class="st0" d="M391.1-6.6l-0.1-6.5c-0.2-0.7-0.3,1.1-0.3,3.5C390.9-8,390.9-5.6,391.1-6.6z"/>
					<path class="st0" d="M389.5,13.1c0.1-1.8,0.2-1.9,0.4-2.9l-0.6-0.2L389.5,13.1z"/>
					<path class="st0" d="M389.5-5.9c-0.2-0.7-0.4-9.5-0.4-1.2C389.3-6.5,389.3,0.1,389.5-5.9z"/>
					<polygon class="st0" points="334.5,-47.5 336.2,-47.5 335.9,-48.5 					"/>
					<path class="st0" d="M247.8-45c7.7,0.2,1.8-0.6,8.8-0.3c1.8-0.2-5.7-0.2-3.9-0.5C248.1-45.6,245.6-45.7,247.8-45z"/>
					<path class="st0" d="M252.8-45.8c0.7,0,1.5-0.1,2.4-0.2C253.8-45.9,253.2-45.9,252.8-45.8z"/>
					<polygon class="st0" points="373,325 378,325.2 374.8,324.9 					"/>
					<path class="st0" d="M382.6,324.3l1.2,0.7l3-0.6C385.6,324.4,383.4,324.4,382.6,324.3z"/>
					<path class="st0" d="M13.6,19.3l-0.1-0.4c-0.2,0.8-0.2,1.9-0.3,4.3L13.6,19.3z"/>
					<polygon class="st0" points="12,86.7 12.1,85.6 11.4,87.7 					"/>
					<path class="st0" d="M11.8,143.4c0.1-2.3,0-5,0-7.4C11.9,141,11.1,144,11.8,143.4z"/>
				</g>
			</g>
		</g>
	</g>
</g>
<rect x="-15.1" y="-62.4" class="st1" width="426.1" height="408"/>
<g id="nino3">
	<path id="XMLID_56_" class="st2" d="M294.2,154.9c-0.7-0.9-1.5-1.3-2.8-1.5c-0.9,0-1.9,0-2.6-0.2c-1.7-0.4-3,0.9-3,2.4
		c-0.4,0.4-0.6,0.9-0.6,1.5c-1.5,0.2-2.2,2.2-1.1,3.5c0.6,0.7,1.5,1.1,2.2,0.9c1.1,0.4,2.2,0.7,3.3,1.3c0.9,0.4,2,0.4,3-0.4
		c0.7-0.7,0.9-2,0.4-3c-0.4-0.4-0.6-0.9-0.9-1.3l0,0c0.7-0.2,1.5-0.6,2-1.3C294.7,156.5,294.7,155.4,294.2,154.9"/>
	<path id="XMLID_55_" class="st2" d="M179.8,296c-0.2-0.9-1.1-1.1-2-0.7c-0.9-0.4-2-0.7-3-1.3c-0.7-0.4-1.5,0-1.9,0.6
		c-0.4-0.2-0.7-0.2-1.1-0.4c-1.3-0.4-2.4,1.7-0.9,2.4c0.7,0.4,1.3,0.6,1.9,0.9c0.2,0.2,0.4,0.4,0.7,0.4c0.6,0.6,1.1,1.1,1.9,1.3
		c0.9,0.4,1.7,0.2,2.2-0.4c0,0,0,0,0.2,0c1.1,0.4,2.2-0.6,2.2-1.7C179.8,296.7,179.8,296.5,179.8,296"/>
	<path id="XMLID_54_" class="st2" d="M245.9,293.4c-1.3-0.7-2.8-0.6-4.3-0.7c-1.3,0-1.9,1.1-1.9,2.2l0,0c-0.9,0-1.7,0.9-1.7,1.7
		c-0.4,0-0.6,0-0.9,0c-0.7,0-1.5,1.1-0.7,1.7c1.5,1.1,3,1.7,4.8,1.9c1.1,0.2,2-0.7,2-1.7c0.7-0.2,1.3-0.9,1.3-1.7
		c0.4,0,0.6,0,0.9-0.2C246.8,296.2,247.4,294.1,245.9,293.4"/>
	<polygon id="XMLID_53_" class="st3" points="163.8,228.4 172,176.6 240.5,174.5 252.4,231.7 	"/>
	<path id="XMLID_52_" class="st4" d="M129.3,125.2c0,0-3.5-56.5,52.7-64.8c46.1-6.7,91.5,22.5,88.2,58.5c-3.3,36-0.9,46.2-62.9,63.7
		c0,0-26-0.9-36-4.5C161.4,174.5,134.6,160.6,129.3,125.2"/>
	<polygon id="XMLID_51_" class="st5" points="218.4,255.7 217.5,230.3 249.6,231.7 245.3,258.5 	"/>
	<polygon id="XMLID_50_" class="st5" points="200.2,256.1 200.8,232.5 173.3,228.8 173.8,254.4 	"/>
	<path id="XMLID_99_" class="st6" d="M165.7,196.6c-1.5,10.4-2.8,21-4.1,31.4c-0.2,1.1,0.9,1.9,1.9,1.9c3,0.2,5.9,0.2,8.9,0.2
		c-1.1,8.2-1.1,16.5-1.7,24.7c0,0.9,0.9,1.9,1.9,1.9c4.1,0,8-0.2,12.1-0.2c-2.2,12.4-2.8,25.4-3,38.3c-1.7-1.7-3.5-3.3-5.9-3.9
		c-2.4-0.4-5.2,0.4-6.3,2.8c-0.9,2.4,0.4,5,2.4,6.5c3,2,7.1,0.9,10-0.4c0.2-0.2,0.4-0.2,0.4-0.4c0.4,0,0.7-0.2,1.1-0.4
		c0.9,0,1.7-0.6,1.7-1.9c0-13.6,2-27.1,1.9-40.7c0.2,0,0.6,0,0.7,0l8.2-0.2c1.5,0,3.9,0.4,5.2-0.6c2.4-1.7,1.7-5.9,1.9-8.4
		c0.4-5.6,0.7-11,1.1-16.5c3.5,0,7.2,0,10.8,0c-0.6,3.9,0,8.2,0,12.1c0.2,3.2-0.9,9.7,1.3,12.1c2.2,2.4,8.4,1.5,11.3,1.7
		c0.7,0,1.3,0,2,0.2c0.2,12.8,1.7,25.6,2.2,38.4c0,0.9,0.7,1.7,1.5,1.7c0,0.4,0,0.7,0.4,0.9c3,1.5,6.3,3.2,9.7,2.2
		c2.8-0.7,5-2.8,5-5.8c0-2.6-1.7-4.8-4.5-5c-3.9-0.2-5.8,3.2-8.5,5c-0.6-12.4-0.9-25.3-3.2-37.5c4.3,0.2,8.4,0.6,12.6,0.7
		c1.1,0,1.9-0.9,1.9-1.9c0.4-8.2,1.5-16.9,1.1-25.1c1.3,0,2.6,0,4.1,0c1.3,0,2.2-1.3,1.9-2.4c-3.2-12.1-6.3-24.3-9.5-36.4
		c8.7,0,19.1-4.3,25.8-8.9c7.2-4.8,13.2-11.7,15.8-20.1c2.4,0.7,5.2,0.6,7.2-1.1c2.6-2,3.2-6.1,1.5-9.1c-2-3.2-6.3-3.5-9.3-1.5
		c-3.3,2.2-3.7,6.5-2.4,10c0,0,0,0,0,0.2c-3.2,8.4-8.5,14.9-16.3,19.5c-4.3,2.6-8.9,4.3-13.7,5.8c-3,0.9-6.3,1.3-9.3,2.2
		c-1.1-4.5-2.4-8.9-3.5-13.4c0-0.2-0.2-0.4-0.2-0.6c16.5-7.2,29.5-20.2,31.8-39.9c1.7-14.1-0.6-30.3-6.9-43.1
		c-6.1-12.3-17.1-21.2-29.7-26.2c-15-5.9-32.3-6.9-48.3-5.4c-13.2,1.7-26.2,5.8-36.6,14.7c-20.2,17.5-25.6,46.4-14.7,70.6
		c6.5,14.3,18.9,26,33.6,32.5c-0.9,5.4-1.9,10.8-2.6,16.3 M167.1,190c-8,15.4-22.1,23.2-39.2,21.9c-0.6-2-2-3.7-4.1-4.5
		c-3.2-1.1-6.3,0.6-7.6,3.7c-1.1,3.2,0,7.1,3.3,8.2s7.6-0.7,8.5-4.3l0,0c16.9,2.6,34.5-7.4,40.7-23.2 M125.7,212.4
		c-0.2,0.4-0.2,1.1,0,1.5c0,0,0,0,0,0.2c-0.7,1.9-3,3.2-5,2.4c-1.9-0.7-2.2-3.2-1.5-4.8C120.7,208.2,124.6,209.6,125.7,212.4
		 M174.6,298.6c-1.5-0.6-3.3-3.2-1.3-4.3c2.8-1.3,5.4,1.9,7.4,3.9C178.8,298.6,176.6,299.3,174.6,298.6 M239.7,295.2
		c1.3-1.3,5.2-4.5,5.9-0.9c0.6,2.6-2.2,3.9-4.3,3.9c-1.5,0-3-0.4-4.3-0.9C238.1,296.7,238.8,296,239.7,295.2 M143.6,153.6
		c-14.3-21-14.5-49.2,2-69.1c17.6-21.4,49.2-23.8,74.8-18.8c12.8,2.4,25.4,8,34.4,17.8c9.5,10.4,12.8,24.7,13.7,38.4
		c0.9,15.8-3,30.1-14.9,41c-11.9,10.8-27.9,14.9-43.5,15.8c-0.7,0-1.1,0.4-1.3,0.7c-11.7,1.1-23.2,0.9-34.5-3
		C161.9,172.3,151,164.3,143.6,153.6 M199.6,242.7c-0.2,2,0,4.6-0.4,6.7c-0.6,2.4-0.4,2.8-3.2,3.3c-3.5,0.6-7.2,0.2-10.8,0.2
		l-10.6,0.2c0.4-7.6,0.9-15.2,0.6-22.8c8.4,0.2,16.9,0.4,25.4,0.6C200.2,234.9,200,238.8,199.6,242.7 M243.3,254
		c-3.7-0.2-7.2-0.4-11-0.6c-3.5-0.2-9.7,0.7-12.1-1.7c-2.4-2.4-1.5-8.7-1.7-12.1c-0.2-2.8-0.2-5.8-0.6-8.4c8.9,0,17.6,0,26.6-0.2
		C243.5,238.6,243.5,246.4,243.3,254 M249.6,227.1c-28,0.4-55.9,0.2-83.9-0.7c2-15.8,4.1-31.4,5.2-47.4c12.3,5,25.8,6.5,38.6,3
		c0.2,0,0.4,0.2,0.7,0.2c8.9-0.6,18-2.2,26.4-5.6c0,0,0,0,0,0.2C240.9,193.5,245.3,210.2,249.6,227.1 M291,159.9
		c-1.5,1.1-3.3,1.1-4.8,0.6c-0.7-2.2-0.6-5,1.5-6.5c1.7-1.1,3.9-0.7,4.6,1.1C292.9,156.9,292.5,158.8,291,159.9"/>
	<path id="XMLID_39_" class="st6" d="M249.4,150.8c-5.9,3.3-11.1,6.7-17.8,8.9c-6.9,2.2-14.5,3.7-21.9,3.7
		c-7.1,0.2-14.1-0.7-20.8-2.6c-6.5-1.7-11.9-4.6-17.6-7.2c0,0,0,0-0.2-0.2c-0.7-0.4-1.5-0.7-2.2-0.9c-1.3-0.6-2.2,0.6-1.5,1.5
		c9.7,8.7,27.9,12.6,42.3,12.3c14.5-0.2,32.3-4.6,41.8-13.6C252.4,151.7,250.9,149.9,249.4,150.8"/>
	<path id="XMLID_38_" class="st6" d="M188.5,128.1c-1.5-2.8-6.1-3.5-7.6-0.4c-0.2,0.2-0.2,0.4-0.2,0.6c-0.4,0.4-0.6,0.9-0.7,1.5
		c-0.6,1.9,0.7,3.7,2.4,4.6C185.7,136.1,190.4,132,188.5,128.1"/>
	<path id="XMLID_37_" class="st6" d="M216.7,126.5c-1.1-3-5-3.5-7.1-1.1c-0.2,0.2-0.4,0.6-0.6,0.7c-0.9,1.1-1.3,2.4-0.7,3.7
		c0.6,1.7,2.2,2.2,3.9,2.4C215.4,132.4,217.8,129.4,216.7,126.5"/>
	<path id="XMLID_36_" d="M126.7,208.3c0.6-5.6,0.4-14.5-6.1-16.7c-3.5-1.1-7.1,0.7-9.1,3.5c-2.2,3-3.3,6.9-3.9,10.6
		c-0.6,4.1-0.6,8.2-0.6,12.4c0,3.9,0,8,1.3,11.5c2,5.8,8.4,10.4,14.5,7.6c6.7-3,8.5-12.3,6.7-18.8c-0.9-3.2-5.8-1.9-4.8,1.3
		c1.1,3.9,0.6,9.5-2.8,12.1c-3.2,2.6-7.1-0.4-8.4-3.5c-1.1-2.6-1.1-5.6-1.1-8.4c0-3.2-0.2-6.3,0-9.5c0.2-3,0.6-6.1,1.5-8.9
		c0.7-2,1.9-5,4.3-5.6c2.2-0.6,3.2,2.2,3.5,3.9c0.6,2.6,0.6,5.4,0.2,8c-0.2,1.3,1.3,2.6,2.6,2.6
		C125.5,210.9,126.5,209.8,126.7,208.3"/>
	<path id="XMLID_35_" class="st7" d="M107.9,109.9c-4.8-21.4-7.2-43.3-7.4-65.2c0-10.2-0.7-20.2-2-30.3c-0.7-5-1.5-10-2.6-15
		c-1.1-4.8-2.2-9.7-3.9-14.3c-0.4-1.1-0.7-2.2-1.1-3.3c-0.2-0.6-0.4-1.1-0.6-1.7c0,0,0-0.2-0.2-0.4c-0.2-0.4-0.2-0.6-0.4-0.7
		c-0.2-0.6-0.4-0.9-0.7-1.5c-0.4-0.9-0.9-1.7-1.3-2.6c-0.7-1.5-1.7-3-2.6-4.3c-3.3,10-6.7,20.1-8.4,30.5C76,7.2,76,13.5,75.8,19.9
		c-0.4,12.8-1.9,25.4-2,38.3c-0.2,11.7,0.9,23,2.6,34.5c1.1,7.6,2.2,15,3.5,22.7c4.1,24.5,9.3,49,14.3,73.3c4.1-0.9,8-2.6,11.1-5.4
		l5-5.4c2.8-4.1,4.5-8.5,4.8-13.4c-0.2-10.4-0.4-20.8-0.4-31.4C112,125.5,109.8,117.7,107.9,109.9"/>
	<path id="XMLID_34_" d="M117.6,185.5c-4.8-27.9-7.1-56.1-9.5-84.3c-2.2-28-4.6-56.3-9.5-84.1c-2.8-15.6-6.3-31-11.3-46.1
		c-0.7-2.2-4.3-2.6-4.8,0c-7.8,30.6-10.8,62.6-8.7,94.1c1.1,16.3,3.5,32.3,6.3,48.5c1.5,7.8,2.8,15.6,4.5,23.4
		c1.5,7.4,3,14.9,5.6,22.1c5,14.7,13.9,27.9,26.6,37.1c1.9,1.3,4.3-0.9,3.7-2.8c-0.9-4.1-3-7.6-5.6-10.8c-2-2.4-5.8,1.1-3.5,3.5
		c2,2.4,3.5,5.4,4.3,8.5c1.3-0.9,2.4-1.9,3.7-2.8c-10.6-7.8-18.4-18.9-23-31.2c-5.4-13.9-7.4-29.2-10.2-43.8
		c-2.8-15.6-5.4-31.4-6.7-47.2c-1.3-15.4-1.3-30.8-0.2-46.1c1.3-17.3,4.1-34.4,8.4-51.3h-4.8c8.4,26.7,13,54.6,16.2,82.4
		c3.2,28.2,4.8,56.5,7.6,84.5c1.5,15.8,3.5,31.8,6.3,47.4C113.1,190.1,118.1,188.7,117.6,185.5"/>
	<path id="XMLID_33_" class="st8" d="M235.5,77.4c-8.9,11-43.3,51.3-89.9,79.5c-0.6-0.9-1.1-1.7-1.5-2.6
		c46.1-27.9,80.2-67.8,88.9-78.5C234,76.3,234.7,76.9,235.5,77.4"/>
	<path id="XMLID_32_" class="st9" d="M186.6,138.9c-2.6,1.5-5.4,2.2-8.2,2c-4.1-0.2-8-2-10-5.8c-3.5-5.9-0.9-13.7,5.8-17.6
		c2.2-1.3,4.6-2,7.1-2c4.6-0.2,8.9,1.9,11.1,5.8C195.9,127,193.3,135,186.6,138.9"/>
	<path id="XMLID_31_" class="st8" d="M185.5,138.9c-2.2,1.3-4.6,2-7.1,2c-4.1-0.2-8-2-10-5.8c-3.5-5.9-0.9-13.7,5.8-17.6
		c2.2-1.3,4.6-2,7.1-2c4.1,0.2,8,2,10,5.8C194.8,127,192.2,135,185.5,138.9"/>
	<path id="XMLID_30_" class="st10" d="M281.3,88l-3.3,1.7c-4.6,2.2-10,0.4-12.3-4.1l-1.6-3.3l0.2-0.2l3.2-1.5
		c4.6-2.2,10-0.4,12.3,4.1l0.4,0.7L281.3,88z"/>
	<path id="XMLID_29_" class="st11" d="M280,85.6l-3.2,1.5c-4.6,2.2-10,0.4-12.3-4.1l-0.4-0.7l3.2-1.5c4.6-2.2,10-0.4,12.3,4.1
		L280,85.6z"/>
	<path id="XMLID_28_" class="st11" d="M286.7,57.2l-0.7,7.4c-1.1,10-10,17.5-20.2,16.5l-7.4-0.7v-0.6l0.7-6.9
		c1.1-10.2,10-17.5,20.2-16.5l1.9,0.2L286.7,57.2z"/>
	<path id="XMLID_27_" class="st11" d="M281.2,56.6l-0.7,6.9c-0.9,10.2-10,17.5-20.2,16.5l-1.9-0.2l0.7-6.9
		c0.9-10.2,10-17.5,20.2-16.5L281.2,56.6z"/>
	<path id="XMLID_26_" class="st10" d="M258.3,80.4c0,0,0.4-0.9,0.9-2.2c0.4-0.7,0.7-1.5,1.1-2.2s0.9-1.7,1.5-2.4
		c0.6-0.7,1.1-1.5,1.7-2.2s1.1-1.3,1.5-1.9c0.9-1.1,1.7-1.7,1.7-1.7s-0.4,0.9-0.9,2.2c-0.4,0.7-0.7,1.5-1.1,2.2
		c-0.4,0.7-0.9,1.7-1.5,2.4c-0.6,0.7-1.1,1.5-1.7,2.2c-0.6,0.7-1.1,1.3-1.5,1.9C259.1,79.7,258.3,80.4,258.3,80.4"/>
	<path id="XMLID_25_" class="st10" d="M261.7,78.4c0,0,0.2-0.6,0.6-1.1c0.4-0.6,0.9-1.3,1.7-1.9c0.7-0.6,1.5-0.9,2-1.3
		c0.6-0.2,1.1-0.4,1.1-0.4s-0.2,0.6-0.6,1.1c-0.4,0.6-0.9,1.3-1.7,1.9c-0.7,0.6-1.5,0.9-2,1.3C262.2,78.4,261.7,78.4,261.7,78.4"/>
	<path id="XMLID_24_" class="st11" d="M266.5,91H132.4c0-33.1,24.1-60.5,55.9-65.7c3.7-0.6,7.4-0.9,11.1-0.9
		c14.5,0,27.9,4.6,38.8,12.3c0.9,0.6,1.7,1.3,2.6,1.9C256.5,50.7,266.5,69.6,266.5,91"/>
	<path id="XMLID_23_" class="st11" d="M244.2,91H132.4c0-33.1,24.1-60.5,55.9-65.7c10.2,1.7,19.5,5.8,27.7,11.3
		c0.9,0.6,1.7,1.3,2.6,1.9C234.2,50.7,244.2,69.6,244.2,91"/>
	<rect id="XMLID_22_" x="134.5" y="84.9" class="st10" width="2.6" height="1.5"/>
	<path id="XMLID_69_" class="st10" d="M255.2,86.3h-5.4v-1.5h5.4V86.3z M244.4,86.3H239v-1.5h5.4V86.3z M233.6,86.3h-5.4v-1.5h5.4
		V86.3z M223,86.3h-5.4v-1.5h5.4V86.3z M212.3,86.3h-5.4v-1.5h5.4V86.3z M201.5,86.3h-5.4v-1.5h5.4V86.3z M190.7,86.3h-5.4v-1.5h5.4
		V86.3z M180.1,86.3h-5.4v-1.5h5.4V86.3z M169.4,86.3H164v-1.5h5.4V86.3z M158.6,86.3h-5.4v-1.5h5.4V86.3z M147.8,86.3h-5.4v-1.5
		h5.4V86.3z"/>
	<rect id="XMLID_10_" x="260.5" y="84.9" class="st10" width="2.6" height="1.5"/>
	<path id="XMLID_62_" class="st12" d="M207.8,66.7c0.7-0.9,1.1-2.2,1.1-3.7c0-5.2-4.1-7.6-9.3-7.6s-9.3,2.4-9.3,7.6
		c0,1.5,0.4,2.8,1.1,3.7c-0.6,0.4-1.1,1.1-1.1,1.9c0,1.3,1.1,2.4,2.4,2.4h0.7v0.9c0,0.7,0.6,1.5,1.5,1.5s1.5-0.6,1.5-1.5V71h2v0.9
		c0,0.7,0.6,1.5,1.5,1.5s1.5-0.6,1.5-1.5V71h2v0.9c0,0.7,0.6,1.5,1.5,1.5s1.5-0.6,1.5-1.5V71h0.7c1.3,0,2.4-1.1,2.4-2.4
		C208.7,67.8,208.4,67,207.8,66.7 M197.8,66.3c-0.9,0.7-2.4,0.2-3.3-1.1c-0.9-1.3-1.1-2.8-0.2-3.5s2.4-0.2,3.3,1.1
		C198.5,64.1,198.7,65.5,197.8,66.3 M199.3,68.5c0,0.2-0.2,0.4-0.4,0.4s-0.4-0.2-0.4-0.4v-0.9c0-0.2,0.2-0.4,0.4-0.4
		s0.4,0.2,0.4,0.4V68.5z M200.4,68.5c0,0.2-0.2,0.4-0.4,0.4s-0.4-0.2-0.4-0.4v-0.9c0-0.2,0.2-0.4,0.4-0.4s0.4,0.2,0.4,0.4V68.5z
		 M204.5,65.4c-0.9,1.3-2.4,1.7-3.3,1.1c-0.9-0.7-0.7-2.2,0.2-3.5c0.9-1.3,2.4-1.7,3.3-1.1C205.6,62.4,205.4,64.1,204.5,65.4"/>
	<path id="XMLID_4_" class="st12" d="M189.6,49.8c-0.9-0.9-2.6-0.9-3.5,0c-0.4,0.4-0.7,1.1-0.7,1.7c-0.6,0-1.1,0.2-1.7,0.7
		c-0.9,0.9-0.9,2.6,0,3.5s2.4,0.9,3.5,0.2l2.2,2.2l2.6-2.6l-2.2-2.2C190.5,52.2,190.5,50.7,189.6,49.8"/>
	<path id="XMLID_3_" class="st12" d="M209.3,49.8c0.9-0.9,2.6-0.9,3.5,0c0.4,0.4,0.7,1.1,0.7,1.7c0.6,0,1.1,0.2,1.7,0.7
		c0.9,0.9,0.9,2.6,0,3.5s-2.4,0.9-3.5,0.2l-2.2,2.2l-2.6-2.6l2.2-2.2C208.4,52.2,208.4,50.7,209.3,49.8"/>
	<path id="XMLID_2_" class="st12" d="M209.3,79.7c0.9,0.9,2.6,0.9,3.5,0c0.4-0.4,0.7-1.1,0.7-1.7c0.6,0,1.1-0.2,1.7-0.7
		c0.9-0.9,0.9-2.6,0-3.5s-2.4-0.9-3.5-0.2l-2.2-2.2l-2.6,2.6l2.2,2.2C208.4,77.2,208.4,78.7,209.3,79.7"/>
	<path id="XMLID_1_" class="st12" d="M189.6,79.7c-0.9,0.9-2.6,0.9-3.5,0c-0.4-0.4-0.7-1.1-0.7-1.7c-0.6,0-1.1-0.2-1.7-0.7
		c-0.9-0.9-0.9-2.6,0-3.5s2.4-0.9,3.5-0.2l2.2-2.2L192,74l-2.2,2.2C190.5,77.2,190.5,78.7,189.6,79.7"/>
</g>
</svg>
