<?xml version="1.0" encoding="utf-8"?>
<!-- Generator: Adobe Illustrator 19.0.0, SVG Export Plug-In . SVG Version: 6.00 Build 0)  -->
<svg version="1.1" id="Capa_1" xmlns="http://www.w3.org/2000/svg" xmlns:xlink="http://www.w3.org/1999/xlink" x="0px" y="0px"
	 viewBox="-58 194.9 479 453" style="enable-background:new -58 194.9 479 453;" xml:space="preserve">
<style type="text/css">
	.st0{fill:#BB986C;}
	.st1{fill:#8C7051;}
	.st2{opacity:0.35;}
	.st3{clip-path:url(#SVGID_2_);fill:#BA6E6E;}
	.st4{fill:#383838;}
	.st5{fill:#79C143;}
	.st6{fill:#D14398;}
	.st7{fill:#F06422;}
	.st8{fill:#4694D0;}
</style>
<g id="nina2">
	<path id="XMLID_34_" d="M192.2,453.7c0.3-1.2,1.6-1.4,2.7-1.2c0.6,0.1,1.1,0.3,1.8,0.3c0.8,0,1.6,0,2.4,0c1.6,0,3.1,0.3,4.6,0.3
		c3.3,0.1,6.6,0.5,9.8,0.2c1.2-0.1,2.4-0.2,3.6-0.3c1-0.1,2.3-0.1,3.2,0.3c0.1,0.1,0.2,0.1,0.3,0.2c0.5-0.3,1.1-0.2,1.2,0.5
		c0.2,1.3,0.7,3.1,0.3,4.4c-0.1,0.5-0.5,0.8-1,0.8c-1.6,0-3.2,0-4.8,0c-1.7,0-3.4,0.3-5.1,0c-1.4-0.2-2.7-0.9-4.2-0.9
		c-1.7-0.1-3.3-0.3-5.1-0.5c-1.4-0.3-2.8-0.6-4.1-1.2c-1.2-0.5-2.5-0.7-3.8-1C192.9,455.4,192,454.7,192.2,453.7"/>
	<path id="XMLID_33_" d="M217.3,464.8c2.9-0.8,6.3-1,9.3-0.3c0.4,0.1,0.9,0.6,0.8,1.1c-0.1,1.1-0.7,1.8-1.4,2.5
		c-1,0.9-2.2,1-3.5,1.2c-2.5,0.2-5.3,0.2-7.4-1.4c-0.2-0.2-0.3-0.4-0.4-0.6c-0.2,0.1-0.3,0.1-0.4,0.3c-0.4,0.5-1.3,0.1-1.2-0.5
		C213.3,465,215.9,465.1,217.3,464.8"/>
	<path id="XMLID_32_" d="M188,467.5c0.7-0.7,1.8-0.8,2.7-0.9c2.2-0.2,4.3,0.3,6.5,0.5c0.6,0.1,0.9,0.5,0.9,0.9
		c0.1,0.1,0.1,0.2,0.1,0.4c0.5,2.3-2.5,2-3.9,2c-2-0.1-4.3,0.7-6.1-0.5C187.2,469.3,187.2,468.2,188,467.5"/>
	<path id="XMLID_31_" d="M177.3,395.7c1.1-2,3.6-2.5,5.7-2.5c0.9,0,2,0.1,2.9,0.5c0.2-0.2,0.4-0.5,0.6-0.7c0.2-0.9,0.6-1.8,1.4-2.2
		c1.2-0.5,2.5,0,3.7,0.3s2.8-1,3.8-1.5c0.7-0.4,1.4-0.4,2.2-0.8c0.6-0.3,1-0.8,1.4-1.2c0.6-0.7,1.7-0.3,2,0.5
		c0.1,0.4,0.3,2.5,0.8,2.5c0.4,0,1-0.4,1.2-0.7c0.5-0.4,1-0.8,1.6-1.2c1-0.5,2.5-1.1,3.1-2c0.5-0.8,0.9-2,1.8-2.5c2-1,3.1,2,3.5,3.4
		c0.3,0.9,1.5,1.3,2.3,1.6c1.2,0.5,2.6,0.9,3.4-0.3c0.3-0.5,0.5-1,0.8-1.4c0.2-0.5,0.1-0.7,0.3-1.4c0.1-1,0.6-2.5,1.8-2.7
		c2.9-0.4,2.7,3.4,5.1,4.2c2.6,0.8,4.5,2.5,6.2,4.6c1.2,1.4,2.3,3.1,2.7,4.9c0.1-0.6,0.3-1.3,0.5-1.7c0.5-1,1.4-1.3,2.4-1.1
		c1.3,0.3,2,1.8,2.3,2.9c0.4,1.2,0.4,2.5,0.3,3.7c-0.1,1.3-0.9,2-1.9,2.8c-0.4,0.3-0.9,0.5-1.3,0.8c-0.3,0.3-0.7,0.3-1.1,0.3
		c0,0.1,0,0.2,0,0.3c0,0.5,0,1-0.2,1.4c0,0.1,0,0.1-0.1,0.1c0,0.1,0,0.1,0,0.3c-0.1,0.3-0.1,0.6-0.2,0.9c-0.1,0.5-0.5,1-0.6,1.6
		c-0.4,1.2-1,2.4-1.7,3.4c-1.7,2.3-4.2,2.9-6.7,4.3c-2.8,1.5-5.7,2.7-8.9,3.1c-1,0.1-2.1,0.2-3.1,0.3c0,0.4,0.1,0.8,0.1,1.2
		c0.3,0.5,0.3,1.2,0.3,1.8c-0.1,1-0.6,1.7-1.1,2.5c-0.9,1.6-3.4,2.3-5.1,1.7c-1.6-0.5-2.3-2.4-2.9-3.8c-0.3-0.8-0.7-1.6-1-2.4
		c-0.1-0.3-0.3-0.8-0.3-1.1c-2.7-0.3-5.4-1.1-8.1-2c-0.9-0.3-1.9-0.6-2.7-1.1s-1.5-1.2-2.2-1.8s-1.4-1.3-2.3-1.6
		c-0.8-0.3-1.5-0.7-2.2-1.2c-2.9-2.2-4.2-6.1-4.2-9.7c0,0,0,0,0-0.1c-0.5-0.1-1.2-0.1-1.7-0.3c-1.1-0.2-2.2-0.9-3-1.6
		C177.1,399.8,176.4,397.4,177.3,395.7"/>
	<path id="XMLID_30_" d="M234.1,414.2c0.5-0.7,0.7-1.4,1-2.2c0.8-1.6,1.6-3,1.6-4.8c0-0.5,0.3-1,0.8-1c-0.1-0.4,0.1-1,0.6-0.9
		c1,0.1,1.1,1.1,1.5,1.8c0.6,1.2,2,2,3.2,2.7c2.8,1.4,6.1,1.3,9.1,1.6c1,0.1,1.6,1.5,0.5,2c-1.6,0.8-3.5,1.3-5.4,1.4
		c-0.3,0-0.7,0.2-1,0.3c-0.5,0.1-1,0.1-1.6,0.1c-0.9-0.1-1.7-0.3-2.5-0.7c-0.1,0-0.1-0.1-0.2-0.1c1.1,1,2.3,1.8,2.8,3.3
		c0.2,0.5-0.1,1-0.5,1.2c-1.4,0.8-2.9,0.5-4.4,0.5c-0.3,0-0.7,0.1-1-0.1c-0.1,0-0.2-0.1-0.3-0.1c0.1,0.1,0.1,0.2,0.2,0.3
		c0.5,0.9,0.8,1.9,0.3,2.8c-0.5,1.1-1.9,0.6-2.7,0.2c-2-1.1-4.6-3.6-3.4-6.1C233.3,415.5,233.7,414.9,234.1,414.2"/>
	<path id="XMLID_29_" d="M164.8,408c0.8-0.6,2.3-0.8,3.3-0.9c1.5-0.2,2.9-0.5,4.3-0.9c0.4-0.7,1.1-0.8,1.8-1.1
		c0.8-0.4,1.6-1,2.4-1.6c1-0.8,2.3-1.1,2.9-2.1c0,0,0-0.1,0.1-0.1c0.1-0.5,0.7-0.9,1.2-0.8c0.7-0.5,2,0.1,1.8,1.2
		c-0.1,0.5-0.3,1-0.5,1.4c0.1,0.3,0.1,0.7,0.1,1c0.3,1.4,0.8,2.7,1.4,4c0.6,1.2,1.5,2.3,2.5,3.2c0.8,0.8,1.8,1.8,1.6,3.1
		c-0.2,1-1.4,1.8-2.2,2.3c-0.4,0.3-0.8,0.5-1.2,0.9c-0.5,0.4-1.2,0.7-1.8,1c-1.1,0.7-2.3,0.9-3.5,1s-2.5,0.2-3.6,0.1
		c-1.1,0-2.1-0.7-2.5-1.8c-0.1-0.3-0.2-0.6-0.2-0.9c-1.4,0.1-3.9-0.1-3.5-2.1c0.2-0.9,1.1-1.2,1.8-1.4c0.5-0.2,1.2-0.4,1.8-0.5
		c-1.1-0.3-2.2-0.5-3.3-0.9c-0.9-0.4-1.7-0.7-2.6-1c-1-0.3-1.8-0.8-2.4-1.6C164,409.1,164.3,408.4,164.8,408"/>
	<path id="XMLID_28_" d="M183.3,391.7c-1.3,0.1-2.3-0.8-2.9-1.8c-0.5-1-1-2.3-0.9-3.4c0.1-1.2,0.7-2.4,1.2-3.5
		c0.2-0.5,0.5-1,0.7-1.4c0.3-0.8,0.7-1.6,1-2.3c0.3-0.5,0.6-1.1,1-1.6c0.3-0.6,0.8-1.3,1.1-1.9c0.6-1,1.4-1.9,2.3-2.6
		c1.2-0.9,2.7-1.2,4.2-1.6c2.9-1,5.9-2.2,9-2.8c0.7-0.1,1.3-0.1,2-0.1c0.9-0.1,1.8-0.2,2.7-0.3c2.3-0.3,4.6-0.3,6.9-0.3
		c1.8-0.1,5.8,0.5,7,2.6c0.1,0,0.1,0,0.1,0c1.2-0.1,2,0.8,2.8,1.6c1,1,2.3,2,3.2,3.1c1,1.2,2,2.2,3,3.3s1.7,2.4,2.5,3.5
		c1,1.6,2.5,3.2,2.8,5.1c0.3,2-2.5,1.7-3.5,0.5c-3.6-2.5-7.3-4.8-10.6-7.6c-0.5-0.5-1.2-1.1-1.8-1.5c0.1,0.3,0.1,0.5,0.2,0.8
		c0.6,2,1.8,3.8,2.4,5.9c0.4,1.5,0.6,3.5-0.6,4.7c-1.3,1.3-3.2,0.7-4.3-0.5c-0.5-0.6-1-1.4-1.3-2c-0.5-0.9-1.1-1.7-1.6-2.6
		c-0.5-0.8-1-1.6-1.5-2.4c-0.1-0.2-0.5-0.9-0.8-1.3c-0.1,0.4-0.2,0.8-0.2,1.2c-0.1,1-0.3,2-0.6,2.9c-0.6,1.6-1.4,3.3-2.9,4.2
		c-0.7,0.4-1.6,0.6-2.4,0.5c-1-0.3-1.4-0.7-1.8-1.6c-0.4-0.8-0.8-1.6-1.1-2.5c-0.2-0.6-0.5-1.4-0.8-1.9c-0.2,0.1-0.3,0.3-0.5,0.4
		c-0.5,0.4-0.8,0.9-1.2,1.3c-0.5,0.6-1.4,1-2,1.4c-0.8,0.6-1.4,1.4-2.3,2c-1.5,1-3.5,0.8-4.4-0.8c-0.2-0.3-0.4-0.8-0.5-1.2
		c-0.1,0.3-0.3,0.7-0.5,1c-0.4,0.7-1,1.2-1.5,1.8C185.6,390.7,184.6,391.6,183.3,391.7"/>
	<path id="XMLID_27_" d="M185.7,403.6c0-0.3,0-0.7,0.1-1c0.6-2.3,2-4.2,4.6-3.5c1.6,0.4,2.9,1.8,3.3,3.5c0.5,0.8,0.8,1.7,0.7,2.8
		c-0.1,2.5-2.3,3.9-4.6,3.2c-0.5-0.1-1-0.3-1.4-0.6c-0.8-0.3-1.4-0.7-1.9-1.3C185.5,405.7,185.4,404.6,185.7,403.6"/>
	<path id="XMLID_26_" d="M233.8,402.8c2.7,3.8-3.3,8.7-6.7,5.9l0,0c-1.9-0.5-2.7-2.7-2.5-4.6C225.3,399.6,231.5,399.6,233.8,402.8"
		/>
	<path id="XMLID_25_" d="M192.8,448.6c0.8-1.1,1.2-2.7,1.6-4c0.6-1.9,0.9-4,1.4-5.9c0.5-2,0.8-4,0.9-6.1c0.1-3.7,1.6-6.8,3.2-10.1
		c0.5-1.2,2.3-1.4,3.3-0.8c1.3,0.9,1.6,2.5,2.6,3.6c0.8,0.8,1.6,0.8,2.5,0.8s1.7,0.2,2.6,0.3c0.8,0.1,1.8,0.1,2.5,0
		c0.8-0.1,1.4-1,1.9-1.6c0.1-0.8,0.4-1.6,1-2.3c0.5-0.7,1.6-0.3,1.9,0.5c0.1,0.1,0.1,0.1,0.2,0.2c0.5,1.3,0.5,2.8,0.8,4.2
		c0.2,1.6,0.5,3.1,0.7,4.8c0.1,0.8,0,1.8,0.3,2.5c0.2,0.5,0.3,1,0.3,1.6c0.1,1.4,0.3,2.8,0.4,4.2c0.3,2.9,0.5,5.9,0.5,8.9
		c0,1,0.3,2.2-0.2,3.1c-0.7,1.2-3,0.7-4,0.6c-1.6-0.1-3.1-0.2-4.6-0.2c-1.4,0-2.9,0.3-4.4,0.3c-0.8,0-1.6,0-2.3,0
		c-0.5,0-1.1-0.2-1.6-0.3c-1.6-0.2-3.2-0.3-4.8-0.6c-1.5-0.3-3-0.1-4.5-0.1c-0.8,0-2,0.1-2.5-0.8
		C191.9,450.4,192.2,449.5,192.8,448.6"/>
	<path id="XMLID_24_" d="M222.3,399.4C222.3,399.3,222.4,399.3,222.3,399.4c0-0.4,0.1-0.7,0.4-0.9l0,0l0.1-0.1
		c0.2-0.4,0.6-0.8,1.1-0.8c0.7,0,1.2,0.5,1.2,1.2c0,0.3,0,0.6-0.1,0.9c-0.1,0.4-0.3,0.8-0.5,1c-0.3,0.3-0.8,0.5-1.2,0.3
		c-0.3-0.1-0.6-0.3-0.8-0.6C222.3,400.2,222.3,399.8,222.3,399.4"/>
	<path id="XMLID_23_" d="M198.1,398.7c0-0.1,0.1-0.2,0.1-0.3c0.1-0.1,0.1-0.1,0.1-0.2c0.1-0.1,0.1-0.1,0.1-0.2
		c0.1-0.1,0.2-0.1,0.3-0.2c0.2-0.3,0.7-0.5,1.1-0.5c0.5,0,1.2,0.4,1.3,1c0.1,0.4,0.1,0.8-0.1,1.2c-0.1,0.3-0.2,0.5-0.4,0.8
		c-0.2,0.2-0.5,0.3-0.7,0.4c-0.6,0.2-1.3-0.1-1.6-0.7c-0.1-0.3-0.2-0.5-0.2-0.8C198.1,399.1,198.1,398.9,198.1,398.7"/>
	<path id="XMLID_22_" d="M195.9,411.9c0.4,0.3,0.6,0.5,0.8,0.9s0.5,0.7,0.8,1.1c0.5,1,1.5,1.6,2.5,2.2c1.9,1.2,4.5,1.8,7,2
		c2.6,0.3,5,0.4,7.5-0.3c2.3-0.7,4-2.3,4.9-4c0.3-0.7,1.8-0.4,1.4,0.3c-1,1.8-2.5,3.5-4.6,4.6c-2.6,1.3-5.7,1.5-8.7,1.2
		c-5.2-0.5-12.6-2.6-12.6-7.6C194.7,411.7,195.4,411.5,195.9,411.9"/>
	<path id="XMLID_21_" d="M238.6,404.3c-0.1-0.2-0.3-0.1-0.3,0.1c0.4,3.1,3.2,5.3,6.1,6.3c1.9,0.7,4,0.8,5.9,0.9c1,0,2.1,0,3.1,0
		c-0.2,0.1-0.3,0.2-0.5,0.3c-1.2,0.5-2.4,1.3-3.7,1.8c-2.4,0.9-5.6,1.2-7.7-0.5c-1-0.8-2.5,0.5-1.5,1.5c0.9,0.8,1.8,1.6,2.7,2.4
		c0.3,0.3,0.8,0.8,1.2,1.2c-0.7-0.1-1.4-0.3-2-0.3c-0.9,0.1-1.8,0.5-2.2,1.3c-0.4,0.7-0.6,1.5-0.8,2.3c-0.1,0.3-0.1,0.8-0.3,1l0,0
		c-1-0.1-2.1-1.3-2.9-2c-0.9-0.8-1.7-1.8-2.7-2.3c-0.8-0.5-1.6,0.4-1.2,1.2c0.7,1.2,1.8,2.3,2.8,3.2s2.5,2.2,4,2.1
		c1.9-0.1,2.2-1.8,2.6-3.3c0.2-0.9,0.4-1.5,1.4-1.3c1.2,0.2,2.3,0.4,3.3-0.2c0.3-0.2,0.6-0.5,0.5-1c-0.1-1-0.6-1.8-1.3-2.6
		c1.4,0.1,2.9-0.1,4.1-0.6c1.6-0.6,3.2-1.4,4.8-2.2c0.3-0.1,0.7-0.3,1-0.5c0.1-0.2,0.3-0.4,0.3-0.6c0.3-0.5,0.6-1,0.9-1.5
		c0.1-0.1,0.1-0.1,0.1-0.2c0-0.1,0.1-0.1,0.1-0.2c0-0.1,0-0.2,0-0.3v-0.1l0,0c0-0.1-0.1-0.1-0.1-0.1c-0.1-0.1-0.2-0.3-0.3-0.4
		c-0.4-0.1-0.8-0.1-1.2-0.1c-0.3,0.1-0.5,0.1-0.8,0.3c0,0-1-0.1-1.2-0.1c-2.1,0-4.4,0.1-6.5-0.3
		C243.5,408.8,239.9,407.3,238.6,404.3"/>
	<path id="XMLID_62_" d="M242.1,397.3c-0.4-1.8-1.4-3.2-3.3-3.2c-1.1,0-2.2,0.9-2.8,1.8c-0.7-1.5-1.5-2.9-2.6-4.2
		c0.5-0.1,1-0.5,1.4-1c0.7-1,0.2-2.7-0.2-3.8c-0.5-1.6-1.4-3.1-2.5-4.4c-1.1-1.4-2.1-2.9-3.3-4.2c-1.3-1.4-2.7-2.6-4.2-3.8
		c-0.3-0.2-0.6,0.1-0.4,0.4c2.2,2.5,4.5,4.9,6.2,7.8c0.8,1.3,1.8,2.6,2.3,4.1c0.1,0.2,0.8,2.9,0.4,2.9c-1.4,0.3-3.1-1.1-4.2-1.9
		c-1.3-1-2.6-2-3.8-3.1c-1.2-1-2.5-2-3.6-3.1c-0.8-0.8-1.2-1.8-2.3-2c-0.7-0.1-1.6,0.5-1.3,1.3c0.8,2,1.6,3.7,1.6,5.9
		c0,1.5-0.3,4.2-2.5,2.7c-1.8-1.2-2.9-3.2-4-5c-0.5-0.8-1-1.5-1.6-2.2c-0.4-0.5-1-1.2-1.7-0.9c-1.2,0.4-1.5,1.8-1.6,3
		c0,0.3-0.5,1-0.6,1.4c-0.2,0.4-0.4,0.8-0.6,1.2c-0.5,0.8-1,1.4-1.6,2c-0.5,0.5-1.2,1-2,1c-0.7-0.1-1-1-1.1-1.5
		c-0.3-0.8-0.3-1.4-0.3-2.3c0-0.6-0.1-1.3-0.6-1.7c-0.4-0.3-0.9-0.4-1.4-0.2c-0.8,0.4-1.2,1.1-1.6,1.8c-0.5,0.8-1.4,1.4-2,2
		c-0.8,0.7-1.6,1.2-2.5,1.6c-0.7,0.3-1.8,0.8-2.6,0.4c-1-0.4-1.1-1.8-1.1-2.7c0.1-1.2,0.2-2.3,0-3.5c-0.1-0.8-1.1-0.7-1.4-0.2
		c-0.5,0.8-0.8,1.8-1,2.8c-0.1,0.1-0.1,0.1-0.2,0.2c-1.1,1.8-2,3.6-2.9,5.5c-0.3-0.3-0.7-0.5-1.1-0.7c-0.6-0.2-1.2-0.3-1.8-0.4
		c0.1-0.1,0.3-0.4,0.2-0.7c-0.2-1.4-0.7-2.7-1-4.1c-0.3-1.4-0.3-2.9-0.1-4.2c0.4-2.5,1.4-4.7,3.1-6.6c2.9-3.3,7-5.2,11.3-6.1
		c5.3-1.2,11-1.5,16.4-0.7c2,0.3,4.2,0.8,6.1,1.8c0.4,0.2,3.3,1.8,2.8,2.3c-0.3,0.3,0.1,0.9,0.5,0.6c0.1-0.1,0.2-0.1,0.3-0.2
		c0.9-1-1.1-2.4-1.7-2.9c-1.6-1.2-3.3-2-5.3-2.6c-6-1.7-12.8-1.5-18.9-0.3c-4.9,1-10,3.1-13.2,7.2c-3.5,4.5-4.8,11.3-1.5,16.3
		c0.1,0.1,0.1,0.1,0.1,0.1c-1.2,0.1-2.3,0.5-3.3,1.3c-1.6,1.3-3.1,3.7-2,5.8c0.5,1,1.8,2.3,3.1,2.8c-2,2-4.6,3.3-7.2,4.3
		c-3,1.1-6.3,1.1-9.4,1.8c-1.2,0.3-1.3,1.5-0.8,2.4c0.6,1,2,1.7,3.1,2.2c1.4,0.7,2.9,1.1,4.4,1.6c0.1,0.1,0.2,0.1,0.3,0.1
		c-0.9,0.4-2,0.8-2.3,1.8c-0.5,1.2,0.7,2.3,1.7,2.5c0.7,0.2,1.4,0.3,2,0.3c0.3,0,0.5,0,0.9,0c0.1,0,0.1,0,0.1,0
		c-0.1,0.3-0.2,0.5-0.2,0.9c0.1,0.8,0.3,1.3,1,1.8c1.4,1,3.5,1.3,5.2,1.2s3.5-0.5,5-1.4c0.8-0.5,1.6-1,2.1-1.7
		c0.5-0.6,0.7-1.2,1-1.9c0.3-0.6-0.5-1.3-1-0.8c-0.4,0.5-1,0.8-1.4,1.2c-0.5,0.5-1.1,1-1.8,1.4c-1.2,0.7-2.6,1.1-4,1.1
		c-0.8,0-1.6,0-2.3-0.1c-0.3-0.1-1.8-0.3-1.8-0.8c0.1-0.8,1.6-1.8,0.2-2.6c-1-0.5-2.2-0.3-3.2-0.4c-0.3,0-0.8-0.1-1.2-0.2
		c1.3-0.8,2.9-0.9,4-1.8c0.5-0.5,0.3-1.3-0.2-1.6c-0.8-0.5-1.9-0.7-2.9-0.8c-0.8-0.1-1.6-0.5-2.3-0.7c-0.6-0.2-1.2-0.3-1.8-0.5
		c-0.7-0.3-1.3-0.5-1.9-0.9c-0.3-0.1-0.5-0.3-0.8-0.4c1.1-0.1,2.2-0.3,3.2-0.5c4.8-0.9,9.8-2.8,13.1-6.5c0.1-0.1,0.2-0.3,0.2-0.5
		c0.3,0,0.7-0.1,1-0.2c0.5-0.2,0.8-0.8,0.3-1.2c-0.9-0.9-2.4-1.1-3.3-2c-1.1-1.2-0.5-2.6,0.5-3.5s2.2-1.3,3.5-1.2
		c0.5,0.1,1.3,0.3,1.8,0.8c-0.8,2.1-1.3,4.3-1.6,6.5c-0.5,4.1-0.7,8.8,1.8,12.4c2.2,3.1,5.5,5,8.9,6.6c1.5,0.7,3,1.2,4.5,1.8
		c-0.3,0.3-0.7,0.5-1,0.8c-0.5,0.5-1,1-1.5,1.4c-0.9,0.9-1.8,1.8-2.7,2.5c-1.6,1.4-4,2.8-4.9,4.8c-1,2-1.2,4.2,0.3,5.9
		c0.8,0.9,1.7,1.6,2.7,2.4c0.7,0.5,1.4,1.1,2.1,1.6c0,0,0,0,0,0.1c0.2,0.5-0.2,1.2-0.1,1.8c0.1,0.3,0.1,0.8,0.1,1.2
		c0.1,0.2,0.1,0.4,0.2,0.6c-0.6,2.1-1.2,4.2-1.6,6.4c-0.4,0.1-0.8,0.4-0.8,0.9c0.1,0.8,0.6,1.2,1.4,1.4c-0.3,0.7-0.6,1.3-0.8,2
		c-0.1,0.3-0.3,0.5-0.3,0.9c0.1,0.3,0.1,0.5,0.3,0.8c1,1,2.3,1,3.6,1.1c0.7,0.5,1.6,0.7,2.4,0.9c0.9,0.2,1.7,0.3,2.6,0.5
		c-0.2,1-0.3,1.9-0.5,2.9c-0.3,1.1-0.5,2.1-0.8,3.2c-0.1,0.3-0.1,0.7-0.1,1.1c-0.1,0-0.1,0-0.1-0.1c-0.7-0.1-1.4-0.5-2-0.5
		c-1.9-0.3-3.8-0.3-5.7-0.4c-1.4-0.1-3.1-0.1-4,1.2c-2.5,3.4,3.1,5.1,5.5,5.4c1.9,0.3,3.5,0.3,5.3-0.5c1.3-0.6,2.9-1.4,3.3-2.9
		c0.1-0.5-0.2-0.8-0.6-0.8c0.2-0.5,0.3-1,0.3-1.5c0-0.8,0.1-1.5,0.2-2.3c0.1-1,0.5-1.9,0.3-2.9c-0.1-0.5-0.1-1.2-0.2-1.7
		c0.1,0,0.1,0,0.2,0.1c2.3,0.5,4.7,0.6,7.1,0.9c1.8,0.2,3.7,0.3,5.5,0.2c-0.3,1.8-0.5,3.8-0.9,5.6c-0.2,1,1.1,1.6,1.7,0.8
		c0.3-0.5,1-0.4,1.5-0.4s1-0.1,1.6-0.2c1.4-0.2,2.9-0.2,4.4-0.2c0.3,0,6-0.3,5.6,0.8c-0.3,1-1.5,1.5-2.3,1.8c-1.2,0.5-2.5,1-3.9,1.1
		c-1.3,0.1-2.9,0.1-4.2-0.4c-0.9-0.4-1.6-1-2.5-1.4c-0.7-0.3-1.3,0.3-1,1c1.4,2.9,6.3,3.1,9,2.5c1.6-0.3,3.5-1,4.9-2
		c1-0.7,2-1.8,1.7-3.1c-0.7-2.9-5.3-2.2-7.4-2.2c-1.9,0-3.7,0.1-5.6,0.4c-0.5,0.1-1,0.1-1.5,0.2c0.1-1.4,0.2-2.9,0.1-4.3
		c0.3,0,0.6,0,0.9,0c2.4-0.1,4.6-0.4,6.8-1.2c0.2,0.2,0.5,0.1,0.7-0.1c0.5-1-0.1-2.6-0.3-3.7c-0.1-0.5-0.1-1-0.3-1.5
		c0-0.1,0.1-0.1,0.1-0.1c0.1,0,0.2,0,0.3-0.1c0.1,0,0.1,0.1,0.3,0.1c1,0,1.1-1.3,0.3-1.6c0.3-2.5,0.2-5.1,0.1-7.6
		c-0.2-2.7-0.5-5.4-1-8.1s-1.1-5.5-2-8.1c-0.3-0.8-0.5-1.5-0.8-2.3c0.1,0.1,0.1,0.1,0.1,0.1c-0.3-0.5-0.5-1.2-0.5-1.8
		c0-0.5,0.1-1.1,0.3-1.6c0.5-1.5,2-2.7,3.7-2.7c1.1,0,2,0.5,2.7,1.2c2.2-1,4.2-2.2,6-3.8c3.3-3,5.3-7,5.5-11.5c0-0.7,0-1.3,0-2
		c1.2,0,2.5-0.3,3.3-1.3C242.5,401.1,242.6,399.2,242.1,397.3 M197.7,468.6c-0.6,0.3-1.4,0.8-2.2,1c-1.6,0.3-3.3,0.1-4.8-0.3
		c-0.8-0.2-1.6-0.3-2.2-0.8c-0.3-0.3-1-1.1-0.1-1.3c1.3-0.3,2.8-0.1,4.1-0.1c1.6,0.1,3.3,0.1,4.8,0.7c0.4,0.1,0.8,0.3,1.2,0.4
		C198.3,468.3,198,468.4,197.7,468.6 M191.8,437.5c-0.9-0.7-1.9-1.4-2.7-2.3c-1.6-2,0.1-4.5,1.7-5.9c1.6-1.5,3.3-2.9,4.8-4.4
		c0.8-0.8,1.6-1.7,2.4-2.5c0.2-0.2,0.4-0.4,0.5-0.6c-0.2,0.9-0.6,1.8-1,2.6c-0.5,1.3-0.8,2.6-1.2,4c-0.7,2.6-1.3,5.2-2,7.8
		c-0.2,0.7-0.3,1.4-0.4,2c-0.3,0-0.7,0.2-0.8,0.5C192.9,438.2,192.3,437.9,191.8,437.5 M219.5,458.4c-1.2,0.2-2.5,0.1-3.8,0.1
		c-2.4,0-4.8,0.1-7.2-0.3c-2.5-0.3-5-0.5-7.4-1c-1.1-0.2-2.3-0.4-3.3-0.7c-0.6-0.1-1.2-0.4-1.8-0.5c-0.5-0.3-1.2-0.4-1.8-0.5
		c-0.3-0.1-1,0-1.3-0.2c0.1-0.4,0.2-0.9,0.3-1.3c0.1-0.3,0.1-0.7,0.1-1c0.3,0.1,0.5,0.3,0.8,0.4c0.7,0.2,1.3,0.3,2,0.5
		c3.1,0.3,6.2,0.5,9.3,0.6c3.3,0.1,6.8,0,10.1-0.1c1.5-0.1,3-0.2,4.4-0.5c0.5-0.1,1-0.2,1.5-0.3c0.1,0.1,0.2,0.2,0.4,0.2
		c0,0.2-0.1,0.5-0.1,0.6c0.1,0.5,0.1,1.1,0.1,1.6c0.1,0.7,0.1,1.4,0.3,2.1C221.2,458.1,220.3,458.3,219.5,458.4 M219.8,430.4
		c0.5,2.4,1,4.7,1.3,7.1c0.7,4.8,1,9.9,0.6,14.7c-0.2,0.1-0.3,0.1-0.4,0.3c-0.3,0-0.6,0.1-0.9,0.1c-1.4,0.2-2.8,0.3-4.2,0.3
		c-2.9-0.1-5.9,0-8.9-0.1c-1.5-0.1-2.9-0.1-4.4-0.3c-1.4-0.1-2.9,0-4.4-0.3c-1.3-0.3-2.7-0.3-4-0.8c-0.5-0.2-1-0.5-1.6-0.6l0,0
		c0.5-0.8,0.7-1.5,0.9-2.4l0.8-2.9c0.8,0.1,1.3-1.2,0.5-1.8c0.1-0.3,0.1-0.5,0.1-0.8c0.3,0.2,0.7,0.3,1.1,0.1
		c0.1-0.1,0.2-0.3,0.1-0.5c-0.3-0.2-0.5-0.5-0.7-0.8c-0.1-0.1-0.1-0.2-0.2-0.3c0-0.1,0-0.2,0.1-0.3c0.1,0.1,0.1,0.1,0.2,0.2
		c0.7,1,2.3,0.1,1.6-1c-0.3-0.4-0.5-0.7-1-1c-0.2-0.1-0.4-0.3-0.6-0.4c0.1-1,0.3-2,0.5-3.1c0.6-2.7,1.2-5.5,1.8-8.3
		c0.3-1.4,0.6-2.7,1-4c0.1-0.7,0.3-1.4,0.5-2.2c1.2,0.4,2.5,0.7,3.8,1c0.2,1.2,1.4,2.3,2.3,3.3c1.2,1.2,3,2.9,4.9,2.8
		c1.8-0.1,3.9-0.7,4.7-2.4c0.3-0.7,0.7-1.9,0.5-2.8c0.8-0.1,1.6-0.1,2.3-0.2c0.1,0.1,0.1,0.2,0.2,0.3c0,0.1,0,0.1,0.1,0.1v0.1
		c0.1,0.3,0.1,0.7,0.2,1c0.1,0.7,0.3,1.4,0.4,2C219.3,428,219.5,429.2,219.8,430.4 M205.9,423.1c0.2,0.1,0.5,0.1,0.7,0.1
		c2.5,0.3,5.1,0.5,7.7,0.4l0.1,0.1c0.3,0.3-0.1,1.2-0.3,1.4c-0.3,0.5-0.5,1-1.1,1.2c-1.2,0.5-2.6,0.7-3.7-0.1
		c-1-0.6-1.8-1.4-2.5-2.3C206.6,423.7,206.2,423.5,205.9,423.1 M234.9,409.7c-1.7,4.6-5.8,7.8-10.2,9.5c-9.9,3.8-21.2,2.3-30.6-2.1
		c-2.3-1-4.6-2.2-6.4-4c-2-2-3-4.4-3.1-7.2c-0.2-3.1,0.1-6.3,1-9.2c0.7-2.4,1.6-4.7,2.5-7.1c0.3,1.2,1,2.1,2.1,2.6
		c2,0.9,4.6-0.1,6.3-1.3c1.1-0.7,2-1.6,2.9-2.6c0.1-0.1,0.3-0.3,0.4-0.4c0,0.1,0,0.1,0.1,0.2c0.2,1,0.5,1.9,1,2.7
		c1,1.6,3.1,1.6,4.6,1c1.8-0.9,3.1-2.9,4-4.6c0.3-0.8,0.8-1.6,1-2.4c0.3,0.4,0.5,0.8,0.8,1.2c0.7,1.1,1.4,2.2,2.2,3.1
		c1.4,1.8,3.6,3.7,6.1,2.8c1.9-0.7,2.3-3.2,2.3-5c0-1-0.1-1.8-0.3-2.7c0.2,0.1,0.3,0.3,0.5,0.5c1.5,1.3,3,2.6,4.5,3.8
		c1.1,0.9,3.3,2.7,5.3,3.2c0.8,1,1.6,2,2,3.1c0.8,1.6,1.3,3.4,1.6,5.2C236,403.1,236,406.7,234.9,409.7 M240.9,398.9
		c0,1.3-0.3,2.5-1.6,3.1c-0.5,0.2-1,0.4-1.6,0.5c-0.2-1.7-0.5-3.4-1.1-5.1c0.1-0.3,0.1-0.7-0.1-1c0.7-0.9,2.2-1.5,3.1-1
		C240.7,396.1,240.9,397.7,240.9,398.9"/>
	<path id="XMLID_12_" d="M183.4,377.7c-2.3,1.8-0.7,10.9,1.8,14l11.5-9.1C194.2,379.5,185.6,375.9,183.4,377.7"/>
	<path id="XMLID_11_" d="M186.2,381.4c-1.2,1-0.3,5.9,1,7.5l6.1-4.9C192,382.4,187.4,380.5,186.2,381.4"/>
	<path id="XMLID_10_" d="M233.9,377.8c2.3,1.8,0.7,10.9-1.8,14l-11.5-9.1C223.1,379.6,231.6,376,233.9,377.8"/>
	<path id="XMLID_9_" d="M231.1,381.5c1.2,1,0.3,5.9-1,7.5l-6.1-4.9C225.3,382.4,229.8,380.5,231.1,381.5"/>
	<path id="XMLID_8_" d="M204.2,380.7c0.1-1-0.3-2-0.3-2c1.4-0.1,2.5,0.3,3.8,1.2c-0.8-0.9,0.1-3.1,0.4-3.1c0.6,1.4,2.3,1.9,2.3,1.9
		c-0.3-1.8,0.9-3.3,0.9-3.3c0.1,4.1,5.5,5.8,5.5,5.8l0,0c9.8,1.8,16.8,7.4,16.8,17c0,4.1-1.2,6.9-3.5,9.1c0,0,0,0-0.1,0
		c-4.2,3.3-15.2,2.3-17.2-2c-1.2-2.4-2.8-5.1-4.2-5.1s-3.1,2.7-4.2,5.1c-2.1,4.4-12.4,6.1-17.5,1.4l0,0c-1.7-1.9-3.1-5.2-3.1-8.5
		C183.7,387.4,192.6,381.8,204.2,380.7"/>
	<path id="XMLID_7_" d="M217.2,401.1c0,0,1.8,1,4,0.9s4.7-1.7,5.3-4c-2-1.4-4-1-5.6-0.3C218.9,398.5,217.2,401.1,217.2,401.1"/>
	<path id="XMLID_6_" d="M200.5,401.2c0,0-2,1.1-4.4,1s-5.1-1.8-5.7-4.3c2.2-1.6,4.4-1,6.1-0.4C198.6,398.3,200.5,401.2,200.5,401.2"
		/>
	<path id="XMLID_5_" d="M218.2,427c6.6,5.3,14.7,8.4,23.2,8.7c2.4,0.1,4.8-0.1,7.2-0.5c0.5-0.1,0.8-0.8,0.7-1.2
		c-0.1-0.5-0.7-0.8-1.2-0.7c-7.8,1.2-16-0.3-22.9-4c-2-1.1-3.8-2.3-5.6-3.8c-0.4-0.3-1-0.4-1.4,0C217.9,425.9,217.8,426.7,218.2,427
		"/>
	<path id="XMLID_4_" d="M248.4,434.6c1.3,1.8,3.3,2.9,5.5,2.8c1.2,0,1.2-2,0-1.9c-1.5,0-2.9-0.6-3.8-1.8c-0.3-0.4-0.8-0.6-1.3-0.3
		C248.3,433.5,248.1,434.2,248.4,434.6"/>
	<path id="XMLID_3_" d="M250.8,435.8h3.1c1.2,0,1.2-1.9,0-1.9h-3.1C249.5,433.9,249.5,435.8,250.8,435.8"/>
	<path id="XMLID_1_" d="M250.4,432.5c1-0.6,2-0.8,3.1-0.6c1.2,0.3,1.8-1.6,0.5-1.8c-1.6-0.3-3.3-0.1-4.6,0.8
		C248.5,431.6,249.4,433.2,250.4,432.5"/>
</g>
<g id="escenario">
	<polygon id="XMLID_49_" class="st0" points="97.6,464.8 -7.2,486.7 202.9,521.8 338.5,469.2 	"/>
	<polygon id="XMLID_48_" class="st1" points="336.6,509.5 338.5,469.2 202.9,521.8 -7.2,486.7 -2.9,520.3 204.3,565 	"/>
	<g id="XMLID_64_" class="st2">
		<g id="XMLID_65_">
			<g>
				<g>
					<g>
						<defs>
							<rect id="SVGID_1_" x="81.5" y="282.4" width="262.4" height="186.8"/>
						</defs>
						<clipPath id="SVGID_2_">
							<use xlink:href="#SVGID_1_"  style="overflow:visible;"/>
						</clipPath>
						<polygon id="XMLID_47_" class="st3" points="81.5,333.2 97.6,464.8 338.5,469.2 343.8,282.4 						"/>
					</g>
				</g>
			</g>
		</g>
	</g>
	<path id="XMLID_2_" class="st4" d="M131.8,341.6c-15.2,0-26.7-1.3-34.3-2.5c-11-1.7-16.5-3.8-16.7-3.9l1.5-4l-0.7,2l0.7-2
		c0.1,0,5.5,2,16.2,3.7c9.8,1.6,26.4,3.2,48.8,1.9c39.6-2.2,105.7-13.6,195.8-56.4l1.9,3.9c-40.4,19.1-79.2,33.6-115.6,43.3
		c-29.2,7.7-56.9,12.3-82.4,13.6C141.6,341.5,136.5,341.6,131.8,341.6z"/>
	<polygon id="XMLID_45_" class="st5" points="86.8,368.1 80.1,335.9 104.2,340.1 	"/>
	<polygon id="XMLID_44_" class="st6" points="113.1,371.1 101.6,340.3 126.1,340.9 	"/>
	<polygon id="XMLID_43_" class="st7" points="138.1,371.6 125.4,341.3 149.8,340.9 	"/>
	<polygon id="XMLID_42_" class="st8" points="165.5,370.7 150.6,341.4 174.9,339.1 	"/>
	<polygon id="XMLID_41_" class="st5" points="190.5,367.5 174.2,339 198.4,335.6 	"/>
	<polygon id="XMLID_40_" class="st6" points="215.5,362.5 197.2,335.2 221.1,330.2 	"/>
	<polygon id="XMLID_39_" class="st7" points="240.6,356 220,330.3 243.5,323.3 	"/>
	<polygon id="XMLID_38_" class="st8" points="265.6,348.8 244.4,323.7 267.5,316 	"/>
	<polygon id="XMLID_37_" class="st5" points="287.7,341.2 266.9,315.8 290.2,308.5 	"/>
	<polygon id="XMLID_36_" class="st6" points="311.5,332.3 289,308.3 311.7,299.4 	"/>
	<polygon id="XMLID_35_" class="st7" points="335.2,321.8 310.8,299.8 332.7,289 	"/>
</g>
<g>
	<path d="M411.5,438.5c1.2,41.2-0.8,86.5-24.4,125.1c-42.4,69.2-185.8,94.6-285.4,70.1c-56.5-13.9-87-46.4-110-82.1
		c-26.3-40.6-40.2-84.5-41-128.8c0-0.8,0.4-1.4,0.9-2c-9.2-48.2-6.9-99.2,28-142.9c31.7-39.5,87.5-64.7,152.7-72.6
		c54-6.5,120.5-4.7,167.6,16.2c42.6,18.9,67.3,50.7,82.4,82.5C402.7,346.9,410.3,393.6,411.5,438.5z M390.9,525.6
		c11.2-39.8,11-81.8,6.1-122.1c-4.5-37.3-13.1-75.9-33.4-111c-18.9-32.6-51.1-63.2-102.5-74.7c-51.3-11.5-112.8-10.1-163.5,1.9
		C-30.2,250-49.7,343.9-36.7,423.1c0.2,0.9-0.3,1.6-0.8,2.2c2.4,46.1,17.2,91.4,46.8,133.2c29.6,41.6,72.7,70,143.3,74.8
		c50.3,3.4,106.4-3.1,151.3-18.9C355.6,596.1,380.5,562.8,390.9,525.6z"/>
	<path d="M386.4,431.2c1,6.5-1.6,13.7-2.7,20.2c-0.4,2.1-5.3,2.2-5.1,0c0.9-6.6,0.5-14.2,3.6-20.6
		C383,429.2,386.2,429.7,386.4,431.2z"/>
	<path d="M386.2,475c1.1,5.9-1.7,12.6-2.8,18.5c-0.4,2.1-5.2,2.2-5,0c0.7-6.1,0.1-13.1,3.1-18.9C382.5,472.8,385.9,473.3,386.2,475z
		"/>
	<path d="M381.1,383.6c2.1,6.7,1.1,13.9,0.8,20.6c-0.2,2.6-5.8,2.5-5.9,0c-0.3-6.8-1.3-14,0.8-20.6
		C377.2,382.2,380.7,382.2,381.1,383.6z"/>
	<path d="M376.3,520.5c0.9,6.6-3.6,13.5-8.2,19.2c-1,1.3-4.4,0.4-3.6-1c3.7-6.1,4.7-12.4,7.3-18.6
		C372.6,518.4,376.1,518.9,376.3,520.5z"/>
	<path d="M371.9,358.7c0.2,1.9-4.6,2.3-4.9,0.4c-1.2-5.8-2.2-11.5-2.4-17.3c-0.1-1.8,4.3-2.3,4.8-0.4
		C370.9,347.1,371.5,352.9,371.9,358.7z"/>
	<path d="M359.9,560c2.1-1.1,5,0.2,3.7,1.9c-2.6,3.3-6.8,6.2-10.2,9.2c-3.5,3-6.7,6.2-9.9,9.3c-1.6,1.6-5.4,0.2-3.9-1.5
		c3.2-3.4,6.4-6.8,9.8-10.1C352.6,565.7,355.7,562.2,359.9,560z"/>
	<path d="M358,312.2c6.2,3.2,6.6,10.2,5.6,15c-0.4,1.7-4.3,1.2-4.4-0.4c-0.1-2.4-0.7-4.7-1.7-6.9c-0.9-2.1-2.8-4-3.5-6.1
		C353.6,312.1,356.2,311.2,358,312.2z"/>
	<path d="M350.7,293.9c1,1.3-1.5,2.8-3.2,1.7c-6.3-4.5-10.8-10.1-15.5-15.4c-1-1,1.4-2.3,2.6-1.3
		C340.4,283.6,346.7,288.5,350.7,293.9z"/>
	<path d="M320.7,594.9c2.8-0.6,3.9,2,1.9,2.9c-8.7,4.3-20.4,6.9-30.2,10c-2.5,0.8-4.7-1.6-2.2-2.5
		C299.9,601.9,310.2,597.2,320.7,594.9z"/>
	<path d="M315.5,258.1c1.8,1.5-0.9,3.2-3.1,2.1c-6.5-3.5-12-7.6-17.8-11.7c-2.2-1.6,1.2-3.8,3.5-2.3
		C304.1,250,310.3,253.7,315.5,258.1z"/>
	<path d="M259.1,234.3c2.5,0.6,1.5,2.9-1.1,2.7c-7.6-0.7-15-2.7-22.3-4.1c-2.1-0.4-1.3-2.5,0.9-2.2
		C244.1,231.7,251.9,232.5,259.1,234.3z"/>
	<path d="M255.6,615.6c2.2-0.2,4,1.8,1.7,2.6c-9.1,3.1-21.4,3.8-31.4,3.1c-2.7-0.2-2.7-2.7,0-2.8c5.3-0.3,10.5-0.4,15.8-1
		C246.3,617,250.9,616.1,255.6,615.6z"/>
	<path d="M188.3,622c1.9-0.1,2.6,1.8,1,2.4c-11,3.6-25.2,2.3-36.4-0.2c-2-0.4-1.2-2.5,0.9-2.1C165.9,624.2,176,622.8,188.3,622z"/>
	<path d="M180.8,224.2c2.6,0.1,3.2,2.6,0.6,3.1c-7.4,1.4-15.5,1.7-23.2,2c-2.9,0.1-3.6-3.1-0.7-3.4C165.1,225,173,224,180.8,224.2z"
		/>
	<path d="M120.5,617.2c1.8,0.1,2.6,2,0.5,2.3c-4.3,0.6-8.5,0.2-12.5-1c-3.1-0.9-8.5-3-7.4-5.7c0.3-0.6,1.1-1,2-1
		c3-0.2,5.1,2.1,7.4,3.1C113.5,616.1,116.9,616.8,120.5,617.2z"/>
	<path d="M117.3,229.1c2.5-0.5,3.5,1.7,1.6,2.6c-5.9,2.9-13.3,4.7-20,6.8c-2.4,0.7-4.5-1.6-2.1-2.4
		C103.4,233.7,110.1,230.7,117.3,229.1z"/>
	<path d="M78.9,600.8c1.7,1-0.5,2.7-2.4,2.1c-7.9-2.8-15.3-7.2-18.6-12.9c-1-1.7,2.8-3.1,4.5-1.8C67.8,592.6,72.5,597.1,78.9,600.8z
		"/>
	<path d="M62.1,243.3c2.5-0.8,5.4,1.3,3.1,2.7c-8,4.9-15.7,9.1-21.6,15.3c-1.4,1.5-4.5,0.2-3.4-1.3
		C44.9,253.5,52.3,246.7,62.1,243.3z"/>
	<path d="M43.2,569c2,0.8,0.6,3.1-1.6,2.5c-7-1.9-14.9-7.1-13.2-12.7c0.4-1.3,3.5-1.7,4.3-0.4c1.3,2,1.7,4,3.3,5.9
		C37.8,566.3,40.2,567.9,43.2,569z"/>
	<path d="M16.4,278.2c2.2-1.1,4.3,1.2,2.7,2.4c-7.6,6-13.7,11.9-16.5,19.7c-0.7,2-5,1.1-4.4-0.8C0.6,291.2,6.3,283.2,16.4,278.2z"/>
	<path d="M18.1,537.4c1.2,1-1.4,2.2-2.7,1.3c-7.7-5-14.6-12.9-13-20.4c0.4-1.6,3.9-1.3,4.5,0c1.4,3.2,1.8,6.5,3.5,9.6
		C12.3,531.4,14.9,534.5,18.1,537.4z"/>
	<path d="M-3.3,496.6c0.7,1.7-3,2.3-3.9,0.7c-3.5-5.8-8.1-12.4-9.6-18.6c-0.4-1.6,2.8-2.7,4.1-1.1C-8.3,483.2-5.9,490.4-3.3,496.6z"
		/>
	<path d="M-14.5,328.8c1.5-1.1,4.5,0.1,3.8,1.4c-4.2,8.1-8.3,14.5-7.1,23.4c0.2,1.5-3.4,1.8-3.8,0.4C-24,345.8-23,335.5-14.5,328.8z
		"/>
	<path d="M-18.6,433.9c4.1,6,3.4,13.3,1.7,19.7c-0.4,1.5-4.2,1.1-4-0.4c1-6.4-1.1-12.2-2.1-18.5C-23.3,433.2-19.6,432.5-18.6,433.9z
		"/>
	<path d="M-20.2,404.2c0.1,1.6-3.7,1.9-4,0.4c-1.5-7.7-4.5-16.2-3.6-23.9c0.2-1.8,4.1-2.3,4.9-0.4C-20,387.8-20.7,396.4-20.2,404.2z
		"/>
</g>
</svg>
