<?xml version="1.0" encoding="utf-8"?>
<!-- Generator: Adobe Illustrator 19.0.0, SVG Export Plug-In . SVG Version: 6.00 Build 0)  -->
<svg version="1.1" id="Capa_1" xmlns="http://www.w3.org/2000/svg" xmlns:xlink="http://www.w3.org/1999/xlink" x="0px" y="0px"
	 viewBox="-58 194.9 479 453" style="enable-background:new -58 194.9 479 453;" xml:space="preserve">
<style type="text/css">
	.st0{fill:#A5C3E6;}
	.st1{fill:#CEEBEC;}
	.st2{opacity:0.47;}
	.st3{clip-path:url(#SVGID_2_);}
	.st4{clip-path:url(#SVGID_4_);}
	.st5{clip-path:url(#SVGID_6_);fill:#020202;}
	.st6{clip-path:url(#SVGID_8_);fill:#020202;}
	.st7{clip-path:url(#SVGID_10_);fill:#F4774F;}
	.st8{clip-path:url(#SVGID_12_);fill:#D84827;}
	.st9{clip-path:url(#SVGID_14_);fill:#F4774F;}
	.st10{clip-path:url(#SVGID_16_);fill:#F4774F;}
	.st11{clip-path:url(#SVGID_18_);fill:#F4774F;}
	.st12{clip-path:url(#SVGID_20_);fill:#FFFFFF;}
	.st13{clip-path:url(#SVGID_22_);fill:#FFFFFF;}
	.st14{clip-path:url(#SVGID_24_);fill:#252628;}
	.st15{clip-path:url(#SVGID_26_);fill:#252628;}
	.st16{clip-path:url(#SVGID_28_);fill:#252628;}
	.st17{clip-path:url(#SVGID_30_);fill:#F4774F;}
	.st18{clip-path:url(#SVGID_32_);fill:#F4774F;}
	.st19{clip-path:url(#SVGID_34_);fill:#F9B2A0;}
	.st20{clip-path:url(#SVGID_36_);fill:#914F22;}
	.st21{clip-path:url(#SVGID_38_);fill:#D39665;}
	.st22{clip-path:url(#SVGID_40_);fill:#914F22;}
	.st23{clip-path:url(#SVGID_42_);fill:#D39665;}
	.st24{clip-path:url(#SVGID_44_);fill:#914F22;}
	.st25{clip-path:url(#SVGID_46_);fill:#733D19;}
	.st26{clip-path:url(#SVGID_48_);fill:#B56A36;}
	.st27{clip-path:url(#SVGID_50_);fill:#D39665;}
	.st28{clip-path:url(#SVGID_52_);fill:#D39665;}
	.st29{clip-path:url(#SVGID_54_);fill:#252628;}
	.st30{clip-path:url(#SVGID_56_);fill:#252628;}
	.st31{clip-path:url(#SVGID_58_);fill:#252628;}
	.st32{clip-path:url(#SVGID_60_);fill:#914F22;}
	.st33{clip-path:url(#SVGID_62_);fill:#914F22;}
	.st34{clip-path:url(#SVGID_64_);fill:#B56A36;}
	.st35{fill:#9AA8B5;}
</style>
<g id="teatrito">
	<polygon id="XMLID_38_" class="st0" points="33.4,289.4 265.2,292.9 283.9,278.9 108.7,276.8 	"/>
	<polyline id="XMLID_37_" class="st0" points="33.4,289.4 57.3,518.1 271.5,585.6 265.2,292.9 	"/>
	<polygon id="XMLID_36_" class="st1" points="43.8,303.4 61.7,489.8 244.2,529.9 239.1,307.8 	"/>
	<g class="st2">
		<g>
			<g>
				<g>
					<g>
						<defs>
							<rect id="SVGID_1_" x="43.8" y="303.4" width="47.9" height="192.4"/>
						</defs>
						<clipPath id="SVGID_2_">
							<use xlink:href="#SVGID_1_"  style="overflow:visible;"/>
						</clipPath>
						<polygon id="XMLID_35_" class="st3" points="43.8,303.4 61.7,489.8 91.8,495.8 61.7,393.5 64.8,303.8 						"/>
					</g>
				</g>
			</g>
		</g>
	</g>
	<g class="st2">
		<g>
			<g>
				<g>
					<g>
						<defs>
							<rect id="SVGID_3_" x="209.9" y="306.5" width="34.3" height="223.5"/>
						</defs>
						<clipPath id="SVGID_4_">
							<use xlink:href="#SVGID_3_"  style="overflow:visible;"/>
						</clipPath>
						<polygon id="XMLID_33_" class="st4" points="239.1,307.8 244.2,529.9 211.2,522.6 230.8,422.1 209.9,306.5 						"/>
					</g>
				</g>
			</g>
		</g>
	</g>
	<g id="titeres">
		<g>
			<g>
				<g>
					<defs>
						<rect id="SVGID_5_" x="73.6" y="347.2" width="140.4" height="168.9"/>
					</defs>
					<clipPath id="SVGID_6_">
						<use xlink:href="#SVGID_5_"  style="overflow:visible;"/>
					</clipPath>
					<path id="XMLID_31_" class="st5" d="M120.5,474.7c1.5,2.9,3.1,5.7,4.7,8.7c0.6,1.3,1.4,2.6,2.1,3.9c0,0,0,0.1,0.1,0.1
						c0.1,0.2-0.2-0.5-0.1-0.3v0.1c0,0.1,0.1,0.2,0.1,0.3c0.1,0.2,0.1,0.3,0.2,0.5c0.1,0.4,0.2,0.8,0.3,1.2c0.3,1.3,0.5,2.7,0.9,4
						c0.6,2.9,1.5,6,2.3,8.9c0.1,0.5,0.3,1.1,0.4,1.6c0.2,1,1.3,1.6,2.3,1.3c1-0.3,1.5-1.3,1.3-2.3c-1-3.2-1.8-6.5-2.6-9.7
						c-0.3-1.5-0.6-2.9-1-4.4c-0.2-0.9-0.3-1.6-0.6-2.4c-0.5-1.4-1.3-2.7-1.9-4c-1.4-2.6-2.8-5.2-4.2-7.9c-0.2-0.4-0.5-1-0.8-1.4
						c-0.4-0.9-1.7-1.2-2.5-0.6C120.3,472.7,120,473.7,120.5,474.7"/>
				</g>
			</g>
		</g>
		<g>
			<g>
				<g>
					<defs>
						<rect id="SVGID_7_" x="73.6" y="347.2" width="140.4" height="168.9"/>
					</defs>
					<clipPath id="SVGID_8_">
						<use xlink:href="#SVGID_7_"  style="overflow:visible;"/>
					</clipPath>
					<path id="XMLID_30_" class="st6" d="M176.8,432.6c0.6,4.9,1.1,9.8,1.4,14.7c0.3,5.4,0.5,10.9,0.6,16.3c0.1,5.6,0.1,11.4,0.1,17
						c-0.1,5.5-0.2,11.1-0.4,16.7c-0.2,5.1-0.5,10.2-0.9,15.3c0,0.5-0.1,1.2-0.1,1.7c-0.1,1,0.9,1.8,1.8,1.8c1.1,0,1.7-0.8,1.8-1.8
						c0.4-5,0.8-10,1-15c0.2-5.5,0.4-11,0.5-16.6s0.1-11.4,0-17c-0.1-5.5-0.3-11-0.5-16.6c-0.3-5-0.6-10-1.3-14.9
						c-0.1-0.5-0.1-1.1-0.2-1.7c-0.1-0.5-0.1-1-0.5-1.3c-0.3-0.3-0.9-0.5-1.3-0.5C177.8,430.7,176.7,431.5,176.8,432.6"/>
				</g>
			</g>
		</g>
		<g>
			<g>
				<g>
					<defs>
						<rect id="SVGID_9_" x="73.6" y="347.2" width="140.4" height="168.9"/>
					</defs>
					<clipPath id="SVGID_10_">
						<use xlink:href="#SVGID_9_"  style="overflow:visible;"/>
					</clipPath>
					<path id="XMLID_29_" class="st7" d="M157.3,444.8l44,2.1c0,0,8.7-65-18.2-66.3C153.5,379.1,157.3,444.8,157.3,444.8"/>
				</g>
			</g>
		</g>
		<g>
			<g>
				<g>
					<defs>
						<rect id="SVGID_11_" x="73.6" y="347.2" width="140.4" height="168.9"/>
					</defs>
					<clipPath id="SVGID_12_">
						<use xlink:href="#SVGID_11_"  style="overflow:visible;"/>
					</clipPath>
					<path id="XMLID_28_" class="st8" d="M171,391.4c4.8,1.8,10,3,15,2.4c3.8-0.5,7.6-1.7,10.6-4.2c-2.9-5.3-7.3-8.8-13.2-9.1
						c-7.3-0.3-12.4,3.2-16.2,9C168.4,390.3,169.6,390.9,171,391.4"/>
				</g>
			</g>
		</g>
		<g>
			<g>
				<g>
					<defs>
						<rect id="SVGID_13_" x="73.6" y="347.2" width="140.4" height="168.9"/>
					</defs>
					<clipPath id="SVGID_14_">
						<use xlink:href="#SVGID_13_"  style="overflow:visible;"/>
					</clipPath>
					<path id="XMLID_27_" class="st9" d="M206.4,372.9c-0.5,11.4-11.6,20-24.7,19.4c-13.1-0.6-23.2-10.3-22.6-21.6
						c0.5-11.4,11.6-20,24.7-19.4C196.7,351.8,206.9,361.6,206.4,372.9"/>
				</g>
			</g>
		</g>
		<g>
			<g>
				<g>
					<defs>
						<rect id="SVGID_15_" x="73.6" y="347.2" width="140.4" height="168.9"/>
					</defs>
					<clipPath id="SVGID_16_">
						<use xlink:href="#SVGID_15_"  style="overflow:visible;"/>
					</clipPath>
					<path id="XMLID_26_" class="st10" d="M213.6,389.4c-1.5-2.8-7.7-0.9-10-0.1c-3,1-5.6,2.9-8.3,4.2l3.5,9.2
						C202.2,401.5,216.4,394.5,213.6,389.4"/>
				</g>
			</g>
		</g>
		<g>
			<g>
				<g>
					<defs>
						<rect id="SVGID_17_" x="73.6" y="347.2" width="140.4" height="168.9"/>
					</defs>
					<clipPath id="SVGID_18_">
						<use xlink:href="#SVGID_17_"  style="overflow:visible;"/>
					</clipPath>
					<path id="XMLID_25_" class="st11" d="M150.4,386.4c1.8-2.6,7.8-0.1,10,0.9c2.9,1.3,5.3,3.4,7.9,5l-4.3,8.8
						C160.5,399.5,147.1,391.2,150.4,386.4"/>
				</g>
			</g>
		</g>
		<g>
			<g>
				<g>
					<defs>
						<rect id="SVGID_19_" x="73.6" y="347.2" width="140.4" height="168.9"/>
					</defs>
					<clipPath id="SVGID_20_">
						<use xlink:href="#SVGID_19_"  style="overflow:visible;"/>
					</clipPath>
					<path id="XMLID_24_" class="st12" d="M178.7,392c-6.8-23.3-19-24.3-19-24.3l-0.3,0.2c-0.2,0.9-0.3,1.8-0.3,2.7
						C158.5,381.1,167.1,390.1,178.7,392"/>
				</g>
			</g>
		</g>
		<g>
			<g>
				<g>
					<defs>
						<rect id="SVGID_21_" x="73.6" y="347.2" width="140.4" height="168.9"/>
					</defs>
					<clipPath id="SVGID_22_">
						<use xlink:href="#SVGID_21_"  style="overflow:visible;"/>
					</clipPath>
					<path id="XMLID_23_" class="st13" d="M184.8,392.4c9-22.5,21.2-22.4,21.2-22.4l0.2,0.3c0.1,0.9,0.1,1.8,0.1,2.7
						C205.9,383.4,196.5,391.7,184.8,392.4"/>
				</g>
			</g>
		</g>
		<g>
			<g>
				<g>
					<defs>
						<rect id="SVGID_23_" x="73.6" y="347.2" width="140.4" height="168.9"/>
					</defs>
					<clipPath id="SVGID_24_">
						<use xlink:href="#SVGID_23_"  style="overflow:visible;"/>
					</clipPath>
					<path id="XMLID_22_" class="st14" d="M172.3,380.1c-0.1,1.7-1.5,3-3.2,2.9s-3-1.5-2.9-3.2s1.5-3,3.2-2.9
						C171.1,376.9,172.4,378.3,172.3,380.1"/>
				</g>
			</g>
		</g>
		<g>
			<g>
				<g>
					<defs>
						<rect id="SVGID_25_" x="73.6" y="347.2" width="140.4" height="168.9"/>
					</defs>
					<clipPath id="SVGID_26_">
						<use xlink:href="#SVGID_25_"  style="overflow:visible;"/>
					</clipPath>
					<path id="XMLID_21_" class="st15" d="M198.6,381.4c-0.1,1.7-1.5,3-3.2,2.9s-3-1.5-2.9-3.2s1.5-3,3.2-2.9
						C197.3,378.2,198.7,379.6,198.6,381.4"/>
				</g>
			</g>
		</g>
		<g>
			<g>
				<g>
					<defs>
						<rect id="SVGID_27_" x="73.6" y="347.2" width="140.4" height="168.9"/>
					</defs>
					<clipPath id="SVGID_28_">
						<use xlink:href="#SVGID_27_"  style="overflow:visible;"/>
					</clipPath>
					<path id="XMLID_20_" class="st16" d="M186.7,391.3c-0.4-0.5-1.3-1-2.6-1.3c-1.8-0.5-5.1-0.5-6.7,0.6c-2.9,2.2,1.6,3.9,5,4
						C185.5,394.9,188.2,393.1,186.7,391.3"/>
				</g>
			</g>
		</g>
		<g>
			<g>
				<g>
					<defs>
						<rect id="SVGID_29_" x="73.6" y="347.2" width="140.4" height="168.9"/>
					</defs>
					<clipPath id="SVGID_30_">
						<use xlink:href="#SVGID_29_"  style="overflow:visible;"/>
					</clipPath>
					<path id="XMLID_19_" class="st17" d="M157.9,347.2c-0.8,6.9,0,14.4,1.4,21.1l10.7-14C167.6,351.4,161.6,348.2,157.9,347.2"/>
				</g>
			</g>
		</g>
		<g>
			<g>
				<g>
					<defs>
						<rect id="SVGID_31_" x="73.6" y="347.2" width="140.4" height="168.9"/>
					</defs>
					<clipPath id="SVGID_32_">
						<use xlink:href="#SVGID_31_"  style="overflow:visible;"/>
					</clipPath>
					<path id="XMLID_18_" class="st18" d="M209.8,349.7c0.1,6.9-1.3,14.3-3.4,20.9l-9.4-14.9C199.8,353,206,350.3,209.8,349.7"/>
				</g>
			</g>
		</g>
		<g>
			<g>
				<g>
					<defs>
						<rect id="SVGID_33_" x="73.6" y="347.2" width="140.4" height="168.9"/>
					</defs>
					<clipPath id="SVGID_34_">
						<use xlink:href="#SVGID_33_"  style="overflow:visible;"/>
					</clipPath>
					<path id="XMLID_17_" class="st19" d="M165,445.1l28.5,1.4c0,0,5.6-42.1-11.8-42.9C162.6,402.7,165,445.1,165,445.1"/>
				</g>
			</g>
		</g>
		<g>
			<g>
				<g>
					<defs>
						<rect id="SVGID_35_" x="73.6" y="347.2" width="140.4" height="168.9"/>
					</defs>
					<clipPath id="SVGID_36_">
						<use xlink:href="#SVGID_35_"  style="overflow:visible;"/>
					</clipPath>
					<path id="XMLID_16_" class="st20" d="M129.3,397.7c1.6,5-1.1,10.3-6.1,11.9s-10.3-1.1-11.9-6.1s1.1-10.3,6.1-11.9
						C122.4,389.9,127.8,392.7,129.3,397.7"/>
				</g>
			</g>
		</g>
		<g>
			<g>
				<g>
					<defs>
						<rect id="SVGID_37_" x="73.6" y="347.2" width="140.4" height="168.9"/>
					</defs>
					<clipPath id="SVGID_38_">
						<use xlink:href="#SVGID_37_"  style="overflow:visible;"/>
					</clipPath>
					<path id="XMLID_15_" class="st21" d="M127.4,398.3c1.3,3.9-0.9,8-4.8,9.3s-8-0.9-9.3-4.8s0.9-8,4.8-9.3
						C121.9,392.3,126.2,394.5,127.4,398.3"/>
				</g>
			</g>
		</g>
		<g>
			<g>
				<g>
					<defs>
						<rect id="SVGID_39_" x="73.6" y="347.2" width="140.4" height="168.9"/>
					</defs>
					<clipPath id="SVGID_40_">
						<use xlink:href="#SVGID_39_"  style="overflow:visible;"/>
					</clipPath>
					<path id="XMLID_14_" class="st22" d="M92,409.7c1.6,5-1.1,10.3-6.1,11.9s-10.3-1.1-11.9-6.1s1.1-10.3,6.1-11.9
						C85,401.9,90.3,404.8,92,409.7"/>
				</g>
			</g>
		</g>
		<g>
			<g>
				<g>
					<defs>
						<rect id="SVGID_41_" x="73.6" y="347.2" width="140.4" height="168.9"/>
					</defs>
					<clipPath id="SVGID_42_">
						<use xlink:href="#SVGID_41_"  style="overflow:visible;"/>
					</clipPath>
					<path id="XMLID_13_" class="st23" d="M90,410.3c1.3,3.9-0.9,8-4.8,9.3s-8-0.9-9.3-4.8s0.9-8,4.8-9.3
						C84.6,404.3,88.7,406.5,90,410.3"/>
				</g>
			</g>
		</g>
		<g>
			<g>
				<g>
					<defs>
						<rect id="SVGID_43_" x="73.6" y="347.2" width="140.4" height="168.9"/>
					</defs>
					<clipPath id="SVGID_44_">
						<use xlink:href="#SVGID_43_"  style="overflow:visible;"/>
					</clipPath>
					<path id="XMLID_12_" class="st24" d="M106.8,489.8l39.5-12.7c0,0-13.9-60.3-38-52.5C81.7,433.1,106.8,489.8,106.8,489.8"/>
				</g>
			</g>
		</g>
		<g>
			<g>
				<g>
					<defs>
						<rect id="SVGID_45_" x="73.6" y="347.2" width="140.4" height="168.9"/>
					</defs>
					<clipPath id="SVGID_46_">
						<use xlink:href="#SVGID_45_"  style="overflow:visible;"/>
					</clipPath>
					<path id="XMLID_11_" class="st25" d="M100.8,438.4c4.8,0.1,9.8-0.6,14.1-2.9c3.2-1.7,6.1-4,7.9-7.3c-4.3-3.7-9.2-5.3-14.7-3.6
						c-6.5,2.1-9.8,7-11.4,13.3C98.1,438.2,99.4,438.4,100.8,438.4"/>
				</g>
			</g>
		</g>
		<g>
			<g>
				<g>
					<defs>
						<rect id="SVGID_47_" x="73.6" y="347.2" width="140.4" height="168.9"/>
					</defs>
					<clipPath id="SVGID_48_">
						<use xlink:href="#SVGID_47_"  style="overflow:visible;"/>
					</clipPath>
					<path id="XMLID_10_" class="st26" d="M126.3,410.2c3.2,10.2-3.6,21.4-15.3,25.2s-23.9-1.4-27.2-11.6
						c-3.2-10.2,3.6-21.4,15.3-25.2S123,400,126.3,410.2"/>
				</g>
			</g>
		</g>
		<g>
			<g>
				<g>
					<defs>
						<rect id="SVGID_49_" x="73.6" y="347.2" width="140.4" height="168.9"/>
					</defs>
					<clipPath id="SVGID_50_">
						<use xlink:href="#SVGID_49_"  style="overflow:visible;"/>
					</clipPath>
					<path id="XMLID_9_" class="st27" d="M119.1,408.2c1.1,3.2-1.1,6.8-4.8,8s-7.5-0.5-8.5-3.8s1.1-6.8,4.8-8
						C114.3,403.3,118,405,119.1,408.2"/>
				</g>
			</g>
		</g>
		<g>
			<g>
				<g>
					<defs>
						<rect id="SVGID_51_" x="73.6" y="347.2" width="140.4" height="168.9"/>
					</defs>
					<clipPath id="SVGID_52_">
						<use xlink:href="#SVGID_51_"  style="overflow:visible;"/>
					</clipPath>
					<path id="XMLID_8_" class="st28" d="M101.7,413.8c1.1,3.2-1.1,6.8-4.8,8s-7.5-0.5-8.5-3.8c-1.1-3.2,1.1-6.8,4.8-8
						C96.8,409,100.7,410.6,101.7,413.8"/>
				</g>
			</g>
		</g>
		<g>
			<g>
				<g>
					<defs>
						<rect id="SVGID_53_" x="73.6" y="347.2" width="140.4" height="168.9"/>
					</defs>
					<clipPath id="SVGID_54_">
						<use xlink:href="#SVGID_53_"  style="overflow:visible;"/>
					</clipPath>
					<path id="XMLID_7_" class="st29" d="M99.3,413.8c0.5,1.5-0.3,3.2-1.9,3.7c-1.5,0.5-3.2-0.3-3.7-1.9c-0.5-1.5,0.3-3.2,1.9-3.7
						C97.2,411.5,98.9,412.2,99.3,413.8"/>
				</g>
			</g>
		</g>
		<g>
			<g>
				<g>
					<defs>
						<rect id="SVGID_55_" x="73.6" y="347.2" width="140.4" height="168.9"/>
					</defs>
					<clipPath id="SVGID_56_">
						<use xlink:href="#SVGID_55_"  style="overflow:visible;"/>
					</clipPath>
					<path id="XMLID_6_" class="st30" d="M113.1,409.4c0.5,1.5-0.3,3.2-1.9,3.7c-1.5,0.5-3.2-0.3-3.7-1.9c-0.5-1.5,0.3-3.2,1.9-3.7
						C110.9,407,112.5,407.9,113.1,409.4"/>
				</g>
			</g>
		</g>
		<g>
			<g>
				<g>
					<defs>
						<rect id="SVGID_57_" x="73.6" y="347.2" width="140.4" height="168.9"/>
					</defs>
					<clipPath id="SVGID_58_">
						<use xlink:href="#SVGID_57_"  style="overflow:visible;"/>
					</clipPath>
					<path id="XMLID_5_" class="st31" d="M111.6,422.3c0.3,1.3-2.2,1.4-2.9,1c-0.5-0.3-0.9-0.9-1.2-1.4c0.4-1.1,2.7-1.8,2.1-3.2
						c-0.6-1.4-2.9-0.9-3.9-0.5c-1,0.3-3.9,1.7-3.6,3s2.5,0.8,3.7,0.9c0.2,0.8,0.3,1.5,0,2.2c-0.3,0.8-2.4,2.2-2.9,0.9
						c-0.3-0.9-1.8-0.4-1.5,0.4c0.9,2.2,3.5,1.6,5,0.4c0.5-0.5,0.9-1.1,1.1-1.7c0.5,0.4,1.1,0.8,1.8,0.8c1.9,0.1,4.3-0.9,3.8-3.2
						C112.7,420.8,111.3,421.3,111.6,422.3"/>
				</g>
			</g>
		</g>
		<g>
			<g>
				<g>
					<defs>
						<rect id="SVGID_59_" x="73.6" y="347.2" width="140.4" height="168.9"/>
					</defs>
					<clipPath id="SVGID_60_">
						<use xlink:href="#SVGID_59_"  style="overflow:visible;"/>
					</clipPath>
					<path id="XMLID_4_" class="st32" d="M138.1,422.3c-2.3-1.9-7,1.8-8.9,3.2c-2.3,1.8-4,4.4-6,6.5l6.2,6.9
						C132.1,436.7,142.3,425.9,138.1,422.3"/>
				</g>
			</g>
		</g>
		<g>
			<g>
				<g>
					<defs>
						<rect id="SVGID_61_" x="73.6" y="347.2" width="140.4" height="168.9"/>
					</defs>
					<clipPath id="SVGID_62_">
						<use xlink:href="#SVGID_61_"  style="overflow:visible;"/>
					</clipPath>
					<path id="XMLID_3_" class="st33" d="M81.4,440.6c0.8-2.9,6.8-2.7,9.1-2.5c2.9,0.1,5.8,1.3,8.7,1.8l-1,9.2
						C94.6,448.8,80,446,81.4,440.6"/>
				</g>
			</g>
		</g>
		<g>
			<g>
				<g>
					<defs>
						<rect id="SVGID_63_" x="73.6" y="347.2" width="140.4" height="168.9"/>
					</defs>
					<clipPath id="SVGID_64_">
						<use xlink:href="#SVGID_63_"  style="overflow:visible;"/>
					</clipPath>
					<path id="XMLID_2_" class="st34" d="M114.3,487.4l25.5-8.2c0,0-9-39-24.6-33.9C98,450.7,114.3,487.4,114.3,487.4"/>
				</g>
			</g>
		</g>
	</g>
	<polygon id="XMLID_39_" class="st35" points="283.9,278.9 318.9,554.7 271.5,585.6 259.5,292.9 	"/>
</g>
<g>
	<path d="M413.6,441.6c1.2,41.2-0.8,86.5-24.4,125.1c-42.4,69.2-185.8,94.6-285.4,70.1c-56.5-13.9-87-46.4-110-82.1
		c-26.3-40.6-40.2-84.5-41-128.8c0-0.8,0.4-1.4,0.9-2c-9.2-48.2-6.9-99.2,28-142.9c31.7-39.5,87.5-64.7,152.7-72.6
		c54-6.5,120.5-4.7,167.6,16.2c42.6,18.9,67.3,50.7,82.4,82.5C404.8,350,412.4,396.7,413.6,441.6z M393,528.7
		c11.2-39.8,11-81.8,6.1-122.1c-4.5-37.3-13.1-75.9-33.4-111c-18.9-32.6-51.1-63.2-102.5-74.7c-51.3-11.5-112.8-10.1-163.5,1.9
		C-28.1,253.1-47.6,347-34.6,426.2c0.2,0.9-0.3,1.6-0.8,2.2c2.4,46.1,17.2,91.4,46.8,133.2c29.6,41.6,72.7,70,143.3,74.8
		c50.3,3.4,106.4-3.1,151.3-18.9C357.7,599.2,382.6,565.9,393,528.7z"/>
	<path d="M388.5,434.3c1,6.5-1.6,13.7-2.7,20.2c-0.4,2.1-5.3,2.2-5.1,0c0.9-6.6,0.5-14.2,3.6-20.6
		C385.1,432.3,388.3,432.8,388.5,434.3z"/>
	<path d="M388.3,478.1c1.1,5.9-1.7,12.6-2.8,18.5c-0.4,2.1-5.2,2.2-5,0c0.7-6.1,0.1-13.1,3.1-18.9
		C384.6,475.9,388,476.4,388.3,478.1z"/>
	<path d="M383.2,386.7c2.1,6.7,1.1,13.9,0.8,20.6c-0.2,2.6-5.8,2.5-5.9,0c-0.3-6.8-1.3-14,0.8-20.6
		C379.3,385.3,382.8,385.3,383.2,386.7z"/>
	<path d="M378.4,523.6c0.9,6.6-3.6,13.5-8.2,19.2c-1,1.3-4.4,0.4-3.6-1c3.7-6.1,4.7-12.4,7.3-18.6
		C374.7,521.5,378.2,522,378.4,523.6z"/>
	<path d="M374,361.8c0.2,1.9-4.6,2.3-4.9,0.4c-1.2-5.8-2.2-11.5-2.4-17.3c-0.1-1.8,4.3-2.3,4.8-0.4C373,350.2,373.6,356,374,361.8z"
		/>
	<path d="M362,563.1c2.1-1.1,5,0.2,3.7,1.9c-2.6,3.3-6.8,6.2-10.2,9.2c-3.5,3-6.7,6.2-9.9,9.3c-1.6,1.6-5.4,0.2-3.9-1.5
		c3.2-3.4,6.4-6.8,9.8-10.1C354.7,568.8,357.8,565.3,362,563.1z"/>
	<path d="M360.1,315.3c6.2,3.2,6.6,10.2,5.6,15c-0.4,1.7-4.3,1.2-4.4-0.4c-0.1-2.4-0.7-4.7-1.7-6.9c-0.9-2.1-2.8-4-3.5-6.1
		C355.7,315.2,358.3,314.3,360.1,315.3z"/>
	<path d="M352.8,297c1,1.3-1.5,2.8-3.2,1.7c-6.3-4.5-10.8-10.1-15.5-15.4c-1-1,1.4-2.3,2.6-1.3C342.5,286.7,348.8,291.6,352.8,297z"
		/>
	<path d="M322.8,598c2.8-0.6,3.9,2,1.9,2.9c-8.7,4.3-20.4,6.9-30.2,10c-2.5,0.8-4.7-1.6-2.2-2.5C302,605,312.3,600.3,322.8,598z"/>
	<path d="M317.6,261.2c1.8,1.5-0.9,3.2-3.1,2.1c-6.5-3.5-12-7.6-17.8-11.7c-2.2-1.6,1.2-3.8,3.5-2.3
		C306.2,253.1,312.4,256.8,317.6,261.2z"/>
	<path d="M261.2,237.4c2.5,0.6,1.5,2.9-1.1,2.7c-7.6-0.7-15-2.7-22.3-4.1c-2.1-0.4-1.3-2.5,0.9-2.2
		C246.2,234.8,254,235.6,261.2,237.4z"/>
	<path d="M257.7,618.7c2.2-0.2,4,1.8,1.7,2.6c-9.1,3.1-21.4,3.8-31.4,3.1c-2.7-0.2-2.7-2.7,0-2.8c5.3-0.3,10.5-0.4,15.8-1
		C248.4,620.1,253,619.2,257.7,618.7z"/>
	<path d="M190.4,625.1c1.9-0.1,2.6,1.8,1,2.4c-11,3.6-25.2,2.3-36.4-0.2c-2-0.4-1.2-2.5,0.9-2.1C168,627.3,178.1,625.9,190.4,625.1z
		"/>
	<path d="M182.9,227.3c2.6,0.1,3.2,2.6,0.6,3.1c-7.4,1.4-15.5,1.7-23.2,2c-2.9,0.1-3.6-3.1-0.7-3.4
		C167.2,228.1,175.1,227.1,182.9,227.3z"/>
	<path d="M122.6,620.3c1.8,0.1,2.6,2,0.5,2.3c-4.3,0.6-8.5,0.2-12.5-1c-3.1-0.9-8.5-3-7.4-5.7c0.3-0.6,1.1-1,2-1
		c3-0.2,5.1,2.1,7.4,3.1C115.6,619.2,119,619.9,122.6,620.3z"/>
	<path d="M119.4,232.2c2.5-0.5,3.5,1.7,1.6,2.6c-5.9,2.9-13.3,4.7-20,6.8c-2.4,0.7-4.5-1.6-2.1-2.4
		C105.5,236.8,112.2,233.8,119.4,232.2z"/>
	<path d="M81,603.9c1.7,1-0.5,2.7-2.4,2.1c-7.9-2.8-15.3-7.2-18.6-12.9c-1-1.7,2.8-3.1,4.5-1.8C69.9,595.7,74.6,600.2,81,603.9z"/>
	<path d="M64.2,246.4c2.5-0.8,5.4,1.3,3.1,2.7c-8,4.9-15.7,9.1-21.6,15.3c-1.4,1.5-4.5,0.2-3.4-1.3C47,256.6,54.4,249.8,64.2,246.4z
		"/>
	<path d="M45.3,572.1c2,0.8,0.6,3.1-1.6,2.5c-7-1.9-14.9-7.1-13.2-12.7c0.4-1.3,3.5-1.7,4.3-0.4c1.3,2,1.7,4,3.3,5.9
		C39.9,569.4,42.3,571,45.3,572.1z"/>
	<path d="M18.5,281.3c2.2-1.1,4.3,1.2,2.7,2.4c-7.6,6-13.7,11.9-16.5,19.7c-0.7,2-5,1.1-4.4-0.8C2.7,294.3,8.4,286.3,18.5,281.3z"/>
	<path d="M20.2,540.5c1.2,1-1.4,2.2-2.7,1.3c-7.7-5-14.6-12.9-13-20.4c0.4-1.6,3.9-1.3,4.5,0c1.4,3.2,1.8,6.5,3.5,9.6
		C14.4,534.5,17,537.6,20.2,540.5z"/>
	<path d="M-1.2,499.7c0.7,1.7-3,2.3-3.9,0.7c-3.5-5.8-8.1-12.4-9.6-18.6c-0.4-1.6,2.8-2.7,4.1-1.1C-6.2,486.3-3.8,493.5-1.2,499.7z"
		/>
	<path d="M-12.4,331.9c1.5-1.1,4.5,0.1,3.8,1.4c-4.2,8.1-8.3,14.5-7.1,23.4c0.2,1.5-3.4,1.8-3.8,0.4
		C-21.9,348.9-20.9,338.6-12.4,331.9z"/>
	<path d="M-16.5,437c4.1,6,3.4,13.3,1.7,19.7c-0.4,1.5-4.2,1.1-4-0.4c1-6.4-1.1-12.2-2.1-18.5C-21.2,436.3-17.5,435.6-16.5,437z"/>
	<path d="M-18.1,407.3c0.1,1.6-3.7,1.9-4,0.4c-1.5-7.7-4.5-16.2-3.6-23.9c0.2-1.8,4.1-2.3,4.9-0.4
		C-17.9,390.9-18.6,399.5-18.1,407.3z"/>
</g>
</svg>
