<?xml version="1.0" encoding="utf-8"?>
<!-- Generator: Adobe Illustrator 19.0.0, SVG Export Plug-In . SVG Version: 6.00 Build 0)  -->
<svg version="1.1" id="Capa_1" xmlns="http://www.w3.org/2000/svg" xmlns:xlink="http://www.w3.org/1999/xlink" x="0px" y="0px"
	 viewBox="0 0 98.5 211.2" style="enable-background:new 0 0 98.5 211.2;" xml:space="preserve">
<style type="text/css">
	.st0{fill:#F077AA;}
	.st1{fill:#95C13D;}
	.st2{fill:#FFDE00;}
	.st3{fill:#60BAE8;}
	.st4{fill:#1D1D1B;}
</style>
<g id="XMLID_2_">
	<path id="XMLID_40_" class="st0" d="M54.6,82.4c0.5-0.9,1-1.8,1.5-2.6c-0.9-0.1-1.7-1-0.9-1.9c0.5-0.5,0.9-1.1,1.4-1.6
		c-0.7,0.6-1.4,1.2-2.1,1.8c-1.3,1.1-3-0.6-2.1-1.9c1.1-1.6,2.1-3.1,3.2-4.7c-1,0.7-2,1.4-3,2.1c-1.5,1-3.2-1-1.8-2.2
		c2.3-1.8,4.3-3.7,6.1-5.9c-1.8,1.3-3.5,2.6-5.3,3.9c-1.5,1.1-3-0.9-1.8-2.2c2.3-2.4,5.1-4.8,7.6-7.4c-2.5,2.1-4.9,4.3-7.9,5.8
		c-1.5,0.8-2.6-1.3-1.5-2.4c1.4-1.3,2.7-2.6,4-4c-1.2,0.3-2.5-1-1.6-2.3c0.8-1.2,1.6-2.3,2.3-3.5c-1,0-2-1-1.5-2.1l1.2-2.8
		c0.6-1.4,2.3-1.1,2.9-0.1c0.6-0.2,1.1-0.4,1.8-0.6c0.9-0.2,1.5,0.5,1.7,1.3c1.5-1.3,3.1-2.5,4.8-3.6c1.4-1,3.3,0.6,2.2,2.1
		c-1.5,2.2-3.2,4.3-4.9,6.3c0.7-0.4,1.4-0.8,2.1-1.2c1-0.5,2.4,0.7,1.9,1.8c-0.7,1.4-1.5,2.6-2.5,3.9c1,0,1.9,0.8,1.4,1.9
		c-0.8,1.6-1.8,3.1-2.8,4.6c1,0,1.9,1.1,1.2,2.1c-0.6,0.9-1.2,1.8-1.8,2.7c0.8-0.6,1.5-1.3,2.3-2c1.2-1,2.6,0.6,1.9,1.8
		c-0.7,1.2-1.5,2.4-2.3,3.6c0.8,0.2,1.3,1.2,0.7,1.9c-0.8,0.9-1.5,1.8-2.2,2.7c1-0.1,1.9,1.2,1.2,2.2c-1.3,2.1-2.7,4.1-4.3,6
		c-0.5,0.7-1.8,0.1-1.4-0.7c0.1-0.3,0.3-0.7,0.5-1c-0.2,0.1-0.3,0.2-0.5,0.3C55,85.3,54.1,83.4,54.6,82.4z"/>
	<path id="XMLID_39_" class="st0" d="M12.9,65.4c2.8-5.2,5.6-10.5,8.4-15.7c-2.2,3.2-4.2,6.5-6.3,9.8c-1,1.5-3.7,0.1-2.8-1.5
		c2.4-4.5,4.7-9,7.1-13.5c-0.7,1-1.4,2-2,3c-1,1.5-3.6,0.1-2.8-1.5c1.9-3.9,3.8-7.9,5.8-11.8c-0.7,0.8-1.4,1.5-2,2.3
		c-1.3,1.5-3.7-0.1-2.6-1.9c1.5-2.2,2.8-4.5,4-6.8c-0.3,0.3-0.5,0.5-0.8,0.8c-1.4,1.5-3.8-0.1-2.6-1.9c1.4-2.2,2.7-4.5,3.9-6.8
		c-0.2,0.2-0.4,0.4-0.6,0.6c-1,1.1-3.3,0.3-2.6-1.4c0.6-1.3,1.2-2.7,1.8-4c-1,0.2-2.2-0.6-1.6-1.8c0.8-1.7,1.6-3.4,2.4-5
		c0.8-1.6,3.4-0.6,2.6,1c-0.1,0.3-0.3,0.5-0.4,0.8c1-0.1,2.1,0.7,1.6,1.9c-0.4,1-0.9,2.1-1.3,3.1c0.3-0.2,0.6-0.3,0.9-0.5
		c1.1-0.5,2.4,0.7,1.9,1.8c-0.4,1-0.8,2.1-1.3,3.1c0,0,0,0,0.1-0.1c1.2-1.1,3.1,0.4,2.5,1.8c-0.4,1.1-0.9,2.3-1.4,3.4
		c0.2-0.2,0.4-0.4,0.6-0.6c1.1-1.2,3.6-0.3,2.8,1.5c-1,2-2,4.1-3,6.1c0.8-1,1.7-2,2.5-3c1.1-1.3,3.8-0.2,2.8,1.5
		c-1.3,2.5-2.6,5-4,7.5c1.2-1.4,2.4-2.8,3.7-4.2c0,0,0,0,0,0c0,0,0,0,0,0c0.1-0.1,0.2-0.2,0.3-0.3c1.1-1.1,3,0.4,2.4,1.7
		c-0.4,0.8-0.7,1.6-1.1,2.3c0.1-0.1,0.2-0.3,0.3-0.4c0.4-0.5,1.2-0.2,1.2,0.4c-0.2,2.2-0.5,4.4-0.7,6.7c0.6-0.6,1.2-1.3,1.8-1.9
		c0.6-0.6,1.7,0,1.6,0.9c0.3,1,0.5,2,0.8,3c0.2,0.1,0.2,0.5,0,0.6c-1.7,1.2-2.5,0.1-2.8-1.3c-0.7,0.8-1.4,1.5-2.1,2.4
		c-0.6,0.7-2,0.4-1.8-0.7c0.3-2.2,0.8-4.3,1.2-6.4c-0.1,0.1-0.1,0.2-0.2,0.4c-0.6,3.6-2,6.9-5,9.4c-0.4,0.3-0.8,0.3-1.1,0.2
		c-0.3,0.4-0.5,0.9-0.8,1.3c-1,2.2-2,4.4-3.1,6.5c0.8-1,1.5-2.1,2.1-3.3c0.8-1.4,2.8-0.1,2.3,1.3c-0.7,2.2-1.4,4.2-2.4,6.3
		c-0.5,1.1-2,0.8-2.3,0c-0.9,0.9-1.9,1.7-2.9,2.4c-0.7,0.5-1.7,0.2-2-0.5c-0.5,0.7-0.9,1.3-1.4,2C13.9,67,12.4,66.3,12.9,65.4z"/>
	<path id="XMLID_38_" class="st1" d="M34.7,40.6c0.4-1.2,0.8-2.5,1.3-3.7c-1.2,1.1-3.1-0.3-2.6-1.8c0.3-1.2,0.7-2.4,1-3.7
		c-1.1,1-3.1,0-2.9-1.5c0.1-0.4,0.2-0.8,0.2-1.3c-0.8,1.2-2.9,0.7-3-0.8c-0.2-2.2-0.1-4.4,0.3-6.5c-1,0.7-2.7-0.1-2.5-1.5
		c0.2-1.2,0.3-2.4,0.4-3.6c-0.1,0.1-0.3,0.3-0.4,0.4c-0.9,0.8-2.8,0.2-2.8-1.1c0-0.8-0.1-1.6-0.1-2.4c-0.1-2,2.7-2.6,3.3-1.1
		c0.4-0.2,0.8-0.5,1.2-0.7c1.2-0.6,2.4,0.5,2.4,1.7c0,0.9-0.1,1.8-0.2,2.6c0.3-0.2,0.7-0.5,1.1-0.7c1.3-0.8,2.6,0.9,2.2,2.1
		c-0.6,1.6-1,3.2-1.2,4.8c0.7-0.9,1.4-1.8,2.2-2.7c1.1-1.3,3.5-0.3,2.8,1.5c-0.1,0.2-0.1,0.4-0.2,0.6c0.2-0.3,0.3-0.5,0.5-0.8
		c1.1-1.7,3.5-0.2,3,1.6c-0.2,0.7-0.4,1.4-0.6,2.1c0.1-0.1,0.2-0.3,0.2-0.4c0.9-1.8,3.5-0.9,3,1.1c0.9-0.1,1.8,0.6,1.7,1.7
		c-0.1,0.7-0.2,1.5-0.4,2.2c0.3-0.5,0.5-1,0.8-1.4c0.8-1.4,3.1-0.4,2.9,1.1c-0.1,0.7-0.2,1.3-0.3,2c0.3-0.3,0.6-0.6,0.9-0.9
		c1.2-1.1,2.6,0.4,2.3,1.7c-0.2,0.9-0.5,1.8-0.7,2.6c0.6-0.7,1.1-1.4,1.7-2.1c0.8-1.1,2.9-0.5,2.6,1c-0.2,1-0.4,1.9-0.6,2.9
		c0.1-0.2,0.3-0.4,0.4-0.5c1-1.4,3-0.2,2.5,1.4c-0.2,0.8-0.5,1.5-0.7,2.3c0.5-0.7,1.1-1.3,1.6-2c0.8-1,2.9-0.5,2.6,1
		c-0.2,1-0.5,1.9-0.7,2.9c0.5-0.5,1-0.9,1.5-1.4c0.9-0.8,2.4,0,2.2,1.2c-0.1,0.4-0.2,0.7-0.2,1.1c0.2-0.1,0.5-0.3,0.7-0.5
		c0.7-0.4,1.8,0.4,1.6,1.2c-0.3,1.3-0.4,1.5-1.4,2.5c-0.4,0.4-1,0.3-1.3-0.1c-0.6,0.4-1.1,0.8-1.7,1.2c-0.8,0.6-1.7,0.2-2-0.6
		c-0.5,0.5-0.9,1.1-1.3,1.6c-1,1.3-2.8,0.2-2.4-1.3c0.2-0.7,0.4-1.3,0.6-2c-0.7,0.9-1.5,1.8-2.2,2.7c-1,1.3-2.9,0.2-2.4-1.3
		c0.2-0.5,0.3-1.1,0.5-1.6c-0.4,0.5-0.7,1-1.1,1.5c-0.9,1.3-3.2,0.2-2.5-1.4c0.7-1.5,1.3-3,1.8-4.6c-0.6,0.7-1.1,1.4-1.7,2.1
		c-1.1,1.4-2.9,0.2-2.5-1.4c0.2-0.8,0.4-1.6,0.6-2.5c-0.2,0.5-0.5,0.9-0.7,1.4c-0.7,1.6-2.8,1-2.9-0.5c-0.4,0.7-0.7,1.3-1.1,2
		c-0.7,1.3-2.3,0.6-2.7-0.5c-0.5,0.8-1,1.7-1.5,2.5C36.5,43.6,34.1,42.2,34.7,40.6z"/>
	<path id="XMLID_37_" class="st1" d="M17.3,65.3c0.3,0.1,0.6,0.3,0.8,0.4c0.4-0.3,0.8-0.6,1.2-1c0.6-0.5,1.4-0.5,2.1-0.2
		c1.1-1.1,2.1-2.1,3.3-3c1-0.9,2.6-0.3,3.1,0.8c0.3-0.3,0.6-0.6,0.9-0.9c1.2-1.1,3.6,0.4,2.7,2c-0.1,0.1-0.2,0.3-0.2,0.4
		c1.2-0.2,2.5,0.9,1.9,2.2c-0.1,0.3-0.3,0.6-0.4,0.9c0.9-0.9,1.8-1.8,2.7-2.7c1.2-1.2,3.5,0.4,2.7,2c-0.3,0.5-0.5,1.1-0.8,1.6
		c0.5-0.5,1.1-1.1,1.6-1.6c1.4-1.4,3.2,0.6,2.5,2.2c0.9-1,1.7-2,2.6-3c1-1.1,3.1-0.2,2.4,1.3c-0.6,1.3-1.2,2.5-1.8,3.8
		c0.1-0.1,0.2-0.3,0.4-0.4c1-1,1.6-1.6,2.9-1.9c0.9-0.2,1.8,0.9,1.4,1.8c-1.2,2.3-2.3,4.7-3.3,7.1c1-1.1,2.2-2.2,3.3-3.2
		c0.9-0.7,2,0.2,1.7,1.3c-0.6,2-1.3,3.9-1.9,5.8c0.7-0.6,1.4-1.1,2.1-1.7c0.9-0.8,2.2,0.2,1.8,1.3c-0.3,0.8-0.5,1.6-0.6,2.4
		c0.4-0.3,0.7-0.6,1.1-0.9c0.8-0.7,2.2,0,2,1.1c-0.1,1.1-0.3,2.3-0.4,3.4c-0.2,1.3-2,1.1-2-0.2l0-0.7c-0.3,0.3-0.7,0.6-1,0.8
		c-0.7,0.6-1.9,0.2-2-0.8c-0.1-1-0.1-2,0-2.9c-0.8,0.6-1.5,1.1-2.3,1.7c-0.8,0.6-1.8-0.2-1.6-1.1c0.5-1.7,1-3.4,1.5-5.1
		c-1.6,1.6-3,3.4-4.3,5.3c-0.6,0.9-2.4,0.3-2.1-0.8c0.6-2.7,1.5-5.3,2.5-7.8c0,0,0,0,0,0c-1.2,1.3-2.4,2.7-3.7,4
		c-1,1.1-3.1,0.2-2.4-1.3c0.3-0.7,0.6-1.4,1-2.1c-0.9,1.1-1.9,2.2-2.8,3.4c-1.1,1.3-3.4,0.3-2.7-1.5c0.2-0.4,0.3-0.9,0.5-1.3
		c-0.4,0.4-0.8,0.8-1.1,1.2c-1.3,1.3-3.9,0.3-3.1-1.7c0.2-0.6,0.5-1.1,0.8-1.7c-0.7,0.7-1.4,1.4-2.1,2.1c-1.2,1.2-3.3-0.4-2.6-1.9
		c0.2-0.4,0.4-0.8,0.6-1.3c-0.9,0.8-2.5,0.3-2.9-0.7c-1.1,1.1-3.1,0.2-3.2-1.2c-0.6,0.1-1.3,0-1.8-0.4c-1.3,0.7-2.8-0.3-3-1.7
		C13.5,67.8,14.9,64.4,17.3,65.3z"/>
	<path id="XMLID_36_" class="st2" d="M78.4,137.7c0.2-0.8,0.5-1.7,0.8-2.5c-0.9,0.9-2.8,0.1-2.5-1.3c0.5-2.1,1.1-4.2,1.7-6.2
		c-1.2,1-3-0.1-2.5-1.7c0.4-1.2,0.8-2.5,1.3-3.7c-0.1,0.1-0.1,0.1-0.2,0.2c-1.3,1.5-3.8-0.2-2.5-1.8c0.9-1.1,1.7-2.2,2.6-3.3
		c-1.3,1.1-3.4-0.4-2.3-1.9c0.9-1.3,1.8-2.6,2.7-4c-1-0.1-1.9-1.3-1.2-2.4c0.3-0.5,0.6-0.9,0.9-1.3c1-1.5,2-3,3-4.6
		c-1.3,0.3-2.7-1-1.7-2.4c1.3-1.8,2.5-3.7,3.6-5.7c-0.6-0.4-0.9-1.2-0.3-2c1-1.4,2-2.8,2.8-4.3c-0.8-0.3-1.3-1.4-0.8-2.3
		c0.6-1.1,1.9-2.8,2.2-4c0.3-1.1,0-1.9,0.1-2.9c0-0.5,0.1-0.9,0.2-1.3c-1.1,0.4-2.4-0.7-1.9-1.9c0.4-1.1,0.9-2.1,1.4-3.1
		c-0.5-0.2-0.9-0.6-0.9-1.2c-0.1-1.9-0.2-3.7-0.4-5.6c-0.4,0.1-0.7,0.2-1.1,0.3c-1.2,0.3-2.2-1.2-1.8-2.2c0.2-0.4,0.4-0.9,0.6-1.3
		c-0.1-0.1-0.3-0.1-0.4-0.2c-0.5-0.2-0.9-0.7-0.9-1.2c-0.1-0.7,0-1.2,0-1.8c-0.1,0-0.3-0.1-0.4-0.1c-0.5-0.1-1-0.4-1.2-0.9
		c-1.3-3.3-3.1-6.1-5.4-8.8c-1.3-1.5,1.1-3.4,2.3-1.9c1.4,1.6,2.7,3.3,3.8,5.2c1.1,1.8,1.2,3.2,3.2,4c0.8,0.3,1.1,1.1,0.9,1.9
		c-0.4,1.3,0.1,1.2,1,1.9c0.4,0.3,0.7,0.9,0.6,1.4c0,0,0,0,0,0c0.8-0.2,1.8,0.6,1.8,1.4c0.1,2,0.2,4,0.2,6c0.3,0.1,0.6,0.2,1,0.3
		c0.9,0.4,1.2,1.5,0.7,2.3c-0.3,0.4-0.5,0.8-0.8,1.2c0,0,0.1,0,0.1,0c1.3-0.2,2.2,1.3,1.4,2.4c-1.5,2.1-0.6,4.1-1,6.2
		c-0.1,0.4-0.3,0.9-0.5,1.4c0.5,0.4,0.8,1,0.5,1.7c-0.7,1.7-1.5,3.4-2.4,5c0.1,0.3,0.1,0.7,0,1.1c-0.6,1.5-1.2,2.9-1.9,4.3
		c0.9,0.1,1.8,1.2,1.3,2.1c-0.8,1.9-1.8,3.7-2.8,5.4c0.5,0.4,0.8,1.1,0.5,1.7c-0.6,1.3-1.3,2.7-2,4c0,0,0,0,0,0
		c1.1-0.7,3.1,0.2,2.4,1.7c-0.3,0.7-0.7,1.4-1,2c0.6,0.4,0.9,1.1,0.5,1.8c-0.5,1-1,1.9-1.4,2.9c1.1-0.9,3.2,0.1,2.5,1.7
		c-1.1,2.3-2,4.6-2.9,6.9c0.7-0.8,1.4-1.6,2-2.5c1-1.2,3.4-0.2,2.6,1.4c-0.3,0.6-0.6,1.2-0.8,1.8c0,0,0.1,0,0.1,0
		c0.1-0.2,0.3-0.3,0.4-0.5c0.8-0.9,2.2-0.4,2.2,0.8c0,0.7-0.1,1.4-0.2,2c0.1,0.2,0.1,0.4,0,0.7c0.2,0,0.4-0.1,0.6-0.1
		c0.6-0.1,1.3,0.4,1.3,1c0.1,1.3,0.2,2.6,0.3,3.9c0.1,1.1-1.3,1.2-1.6,0.2c-0.2-0.7-0.4-1.3-0.6-2c-0.1,0-0.1-0.1-0.2-0.1
		c-0.1,0.1-0.2,0.3-0.3,0.4c-0.5,0.6-1.2,1-2,0.9c-0.6-0.1-1.1-0.7-1-1.3c0-0.1-0.1-0.2-0.1-0.2c0,0-0.1,0-0.1-0.1
		c-1.2,2-2.5,4.1-3.7,6.1C80.1,140.7,78,139.2,78.4,137.7z"/>
	<path id="XMLID_35_" class="st2" d="M5.1,150.2c0.1-0.4,0.2-0.6,0.3-0.7c-1-0.3-1.5-1.7-0.9-2.7c0.4-0.6,0.8-1.2,1.3-1.8
		c-0.2-0.3-0.3-0.7,0-1.1c1.1-1.2,2.2-2.4,3.3-3.6c-0.9-0.2-1.5-1.5-0.6-2.3c1.5-1.5,3-3,4.5-4.4c-0.3,0.3-0.7,0.5-1.1,0.8
		c-1.4,1-3.2-1-1.8-2.2c0.9-0.7,1.8-1.4,2.7-2.1c1.5-1.2,2.9-2.4,4.2-3.7c-0.5,0.3-0.9,0.5-1.4,0.8c-1.4,0.8-2.8-1.4-1.5-2.4
		c2.3-1.8,4.4-3.9,6.2-6.1c-1.2,0.3-2.4-1-1.5-2.1c1.2-1.5,2.3-3,3.5-4.5c0,0-0.1,0-0.1,0c-0.9,0-1.5-1.1-1.2-1.9
		c0.5-1.3,1.1-2.6,1.9-3.8c0,0-0.1,0-0.1,0c-0.8-0.2-1.1-1.2-0.8-1.9c0.2-0.6,0.5-1.3,0.7-1.9c-0.8-0.1-1.5-0.8-1.4-1.7
		c0.1-1.1,0.4-2,0.8-2.9c-0.7-0.7-1.1-1.7-1.1-2.7c-0.2,0-0.4,0-0.5-0.1c-0.8-0.1-1.5-0.9-1.4-1.7c0.2-1.3,0.5-2.4,1-3.5
		c-2.4-1.4-2.2-5.3-4.4-7.5c-1.5-1.5,1.1-3.6,2.6-2.1c1.3,1.2,1.8,1.8,2.4,3.4c0.3,1,0.4,3.4,1.9,3.5c1.4,0.1,1.7,1.6,1.1,2.6
		c-0.5,0.8-0.8,1.6-1.1,2.5c0.3,0,0.6,0.1,0.9,0.1c1.4,0.1,1.8,1.9,0.8,2.7c0.1,0.2,0.2,0.3,0.2,0.5c1.3,0.1,1.7,1.5,1.1,2.5
		c-0.3,0.5-0.6,1-0.8,1.5c0.2,0.1,0.3,0.1,0.5,0.2c0.7,0.3,1.2,1.2,0.9,2c-0.3,0.7-0.6,1.5-0.9,2.2c0.1,0,0.3,0.1,0.4,0.1
		c0.9,0.3,1.2,1.5,0.7,2.2c-0.7,1-1.3,2-1.8,3c0.2,0,0.5,0,0.7,0c1,0.1,1.6,1.4,1,2.2c-0.7,0.9-1.5,1.9-2.2,2.8
		c1.1,0,1.7,1.2,1.2,2.2c-0.6,1-1.2,2-1.9,3c0.1-0.1,0.2-0.1,0.3-0.2c1.3-0.7,2.6,1.1,1.8,2.2c-0.6,0.8-1.2,1.5-1.9,2.3
		c0.8,0.3,1.4,1.4,0.7,2.1c-0.6,0.7-1.2,1.3-1.8,2c1.1,0.1,2.1,1.4,1.2,2.4c-0.7,0.8-1.5,1.7-2.3,2.5c0.8,0.5,1.2,1.6,0.6,2.4
		c-1.3,1.7-2.6,3.4-3.9,5.1c0.8,0.2,1.4,1,1.1,1.9c-0.4,1.1-0.9,2.2-1.4,3.3c0.8,0.1,1.4,1.1,1.1,1.9c-0.6,2.1-1.3,4-2.6,5.7
		c-0.5,0.6-1.6,0.3-1.4-0.6c0.2-1,0.4-2,0.6-3c-1,0.4-2.1-0.8-1.7-1.8c0.4-1,0.8-2.1,1.2-3.1c-0.1,0.1-0.3,0.2-0.4,0.3
		c-1.3,1-2.8-0.6-2.1-1.9c0.2-0.3,0.4-0.6,0.5-0.9c-1.6,1.6-3.1,3.2-4.5,5c0.1,0.1,0.1,0.2,0.2,0.3c0.3,0.6,0.3,1.4,0.1,2.1
		c-0.1,0.4-0.3,0.6-0.5,0.9c-0.1,0.1-0.1,0.1-0.2,0.2c0,0.3,0,0.6-0.2,0.8c-0.1,0.1-0.1,0.2-0.2,0.2c-0.3,0.5-1,0.7-1.6,0.5
		c-0.1-0.1-0.2-0.1-0.3-0.2C5.2,151.7,4.9,151,5.1,150.2z"/>
	<path id="XMLID_34_" class="st3" d="M68.8,122.6c-0.2-0.3-0.4-0.6-0.5-1.1c-0.1-0.5,0.1-1.1,0.5-1.3c1.1-0.8,2-0.5,3.2-0.1
		c0.4,0.1,0.7,0.4,0.9,0.7c0,0,0.1,0,0.1,0c1.7-0.3,2.7,1.7,1.8,3c-0.6,0.8-0.8,1.7-0.9,2.7c-0.1,1.9-3,1.9-3.2,0.1
		c-0.1-0.4-0.1-0.7-0.1-1c-0.6,0.1-1.3-0.2-1.7-0.7C68.4,124.1,68.4,123.3,68.8,122.6z"/>
	<path id="XMLID_33_" class="st3" d="M65.7,98c-0.3-0.1-0.6-0.2-0.9-0.4c-0.8-0.5-1-1.8-0.4-2.5c0.8-1,1.8-0.9,2.7-1.6
		c1.3-0.9,3.9-0.1,3.5,1.9c0,0.2-0.1,0.4-0.1,0.6c1.3-0.1,2.5,0.7,2.4,2.2c0,0.1,0,0.3,0,0.4c0.5,0.2,1,0.5,1.3,1
		c0.6,0.8,0,2.3-1.1,2.1c-0.6-0.1-1.2-0.2-1.6,0.3c-1,1-2.8,0.2-3.1-1.1c-1.3,0.3-3.2-0.5-2.8-2.2C65.6,98.4,65.7,98.2,65.7,98z"/>
	<path id="XMLID_32_" class="st3" d="M52.6,106.7c0.2-0.7,0.4-1.4,0.6-2.1c-0.6-0.2-1.2-0.6-1.4-1.2c-0.2-0.5-0.3-1-0.3-1.6
		c0-0.1,0-0.3,0-0.5c-1-0.6-1.5-2.1-0.8-3.1c0.9-1.3,2.7-1.5,4-0.6c0.5,0.4,0.9,0.9,1.1,1.5c0.2,0,0.4-0.1,0.7-0.1
		c1.4-0.2,2.6,1,2.4,2.4c0.2,0,0.4,0,0.6,0c0.6,0.1,1,0.5,1.1,1.1c0.1,0.5,0,0.9-0.3,1.3c-0.3,0.3-0.6,0.4-0.9,0.4
		c-0.5,0.5-1,1.2-1.4,1.6c-0.7,0.7-1.4,1.4-2,2.2C54.9,109.2,52.1,108.7,52.6,106.7z"/>
	<path id="XMLID_31_" class="st3" d="M57.6,126.3c0.2-0.6,0.5-1.1,0.8-1.6c-0.2-0.4-0.3-0.8-0.3-1.2c0.1-1.1,0.3-2.1,1.2-2.9
		c0.7-0.6,1.9-0.5,2.5,0.3c0.2,0.2,0.3,0.5,0.4,0.7c0.1,0,0.2,0,0.3,0.1c0.3,0.1,0.5,0.3,0.7,0.4c1.5-0.5,2.8,1.5,1.5,2.7
		c-1.2,1.1-2.4,2.2-3.5,3.4c-0.7,0.7-1.7,1.1-2.6,0.6C57.7,128.3,57.2,127.2,57.6,126.3z"/>
	<path id="XMLID_30_" class="st3" d="M65.1,148.8c0.1-0.2,0.2-0.4,0.3-0.6c-0.1-0.1-0.2-0.1-0.3-0.2c-0.8-0.5-0.8-1.6-0.4-2.3
		c0.7-1.1,2.1-1.2,3.1-2c1.3-1,3.4,0,3.4,1.5c0.9,0.4,1.5,1.2,0.9,2.3c-0.6,1.2-2.4,5.1-4.3,4.9c-0.6,0.4-1.3-0.3-1.1-0.9l0,0
		C65.5,151.2,64.5,150.1,65.1,148.8z"/>
	<path id="XMLID_29_" class="st3" d="M53.8,144.7c0.1-0.9,0.4-1.6,0.9-2.4c0.2-0.3,0.4-0.6,0.6-0.8c0.2-0.2,0.3-0.3,0.5-0.5
		c0,0,0,0,0-0.1c0.3-0.6,1-1,2-0.9c0,0,0.1,0,0.1,0c1,0.1,1.9,1.1,1.9,2.2c0.6,0.2,1,0.7,1.2,1.2c0.2,0,0.3-0.1,0.5-0.1
		c1.3-0.3,1.9,1.5,1,2.3c-1.4,1.2-3.2,1.8-4.5,3c-1.4,1.3-3.3-0.2-3.1-1.8C54.2,146.3,53.7,145.5,53.8,144.7z"/>
	<path id="XMLID_28_" class="st3" d="M55.6,169.8c-1-0.4-1.7-1.2-1.9-2.3c-0.2-1.1,0.8-1.8,1.7-1.8c-0.2,0-0.1,0,0.1,0
		c0.2,0,0.5,0,0.7,0c0.3,0,0.6,0.1,0.9,0.2c0,0,0.2,0,0.2,0c0.1,0,0.2,0,0.2,0c0,0,0,0,0.1,0c0,0,0,0,0,0c0.2-0.1,0.3-0.1,0.5-0.2
		c0.7-0.4,1.7-0.1,2.2,0.4c0.6,0.6,0.7,1.4,0.5,2.2c-0.2,0.8-0.5,1.5-1,2.1c-0.2,0.3-0.4,0.6-0.7,0.8c-0.3,0.3-0.7,0.5-0.9,0.7
		C56.5,173.1,54.7,171.3,55.6,169.8z"/>
	<path id="XMLID_27_" class="st3" d="M46.6,162.2c0.2-1.2,0.8-2.4,1.6-3.3c0.7-0.7,1.6-1.1,2.6-0.8c0.6,0.2,1,0.7,1.3,1.3
		c0,0,0.1,0,0.1,0c1,0,1.8,0.4,2.2,1.1c0.2,0.2,0.3,0.4,0.4,0.6c0.4,0.9,0,2-0.9,2.4c-0.5,0.6-1,1.2-1.6,1.6c-1.4,1.1-3.4,0-3.5-1.5
		C47.7,164.1,46.4,163.4,46.6,162.2z"/>
	<path id="XMLID_26_" class="st3" d="M39.1,183.7c1.1-0.5,2.2-0.2,3.4,0c0.3,0.1,0.6,0.2,0.8,0.3c0.4-0.3,0.8-0.6,1.3-0.8
		c1.3-0.7,2.9,0.9,2.3,2.2c-0.7,1.5-1.7,3.3-3.1,4.2c-0.2,0.1-0.3,0.1-0.5,0.1c-1.2,1.6-3.7,0.2-3.6-1.6c0-0.2,0-0.4,0.1-0.6
		c-0.5-0.2-1-0.5-1.4-1C37.6,185.7,38,184.2,39.1,183.7z"/>
	<path id="XMLID_25_" class="st3" d="M31.8,183.7c-0.8-0.6-1.2-1.6-0.7-2.6c0.6-1.1,1.2-2,2.1-2.9c0.7-0.7,2-0.4,2.6,0.4
		c0.1,0,0.3,0,0.4,0c0.2,0,0.4,0,0.5,0.1c0.8-0.2,1.8,0.1,2.2,0.8c0.5,0.7,0.3,1.5-0.1,2.1c0,0,0,0,0,0c-0.6,0.8-1.3,1.7-2,2.5
		c-0.3,0.5-0.6,1-1,1.4c-0.6,1.1-2.2,1.2-3.2,0.5C31.9,185.5,31.6,184.5,31.8,183.7z"/>
	<path id="XMLID_24_" class="st3" d="M26.6,55.4c-1.7-0.1-3.3-1.6-2.4-3.6c0.8-1.8,1.7-2.7,3.4-3.7c0.7-0.4,1.5-0.3,2.1,0
		c0.3-0.3,0.5-0.5,0.8-0.8c1-0.9,2.3-0.7,3.2-0.1c0.5-0.3,1-0.3,1.5-0.3c0.2-0.4,0.4-0.9,0.5-1.3c0.8-2,3.1-1.9,4.2-0.7
		c0.8-1.8,1.6-3.7,2.3-5.6c1.1-3,5.2-1.2,4.5,1.7c0,0.1-0.1,0.2-0.1,0.3c1.5-1.2,4.2,0.6,3.4,2.7c-0.5,1.2-0.9,2.3-1.4,3.5
		c1.2-0.1,2.4,0.8,2.1,2.1c-1.2,5.7-2.8,11.4-6.1,16.2c-0.5,0.7-2,0.3-1.7-0.7c0.2-0.7,0.4-1.5,0.6-2.2c-0.8,0.3-1.8,0.2-2.4-0.3
		c-1.3,1.6-4.6,0.7-4.1-1.6l0,0c-1,0.5-2.1,0.2-2.9-0.6c-0.8,1.1-2.3,1-3.3,0.4c-1.5,0.3-3.1-0.8-3.1-2.7c0-0.6,0-1.3,0.1-1.9
		C27.4,56.3,27,55.9,26.6,55.4z"/>
	<g id="XMLID_3_">
		<path id="XMLID_4_" class="st4" d="M7,156.2c0.6,0.8,1.9,0.3,2-0.6c0.3-4,1.4-7.7,2.6-11.4c0.2,2.5,0.9,4.9,1.9,7.2
			c0.9,2.2,2.1,5.4,4.5,6.3l0,0c0.2,0.1,0.5-0.1,0.5-0.4c0-0.1,0-0.2,0-0.3c0.6,0.3,1.4-0.2,1.3-1c-1-8.2,0.6-15.1,3.4-22.8
			c2.4-6.6,4.9-13.3,5.1-20.4c0.5-14.1-5.9-28.4-13.7-40.1c-0.1-0.7-0.1-1.4-0.2-2.2c14.3,8,28.9,15.3,43.8,22
			c0.3,0.1,0.5,0.1,0.8,0.1c1.1,2.3,2.1,4.7,2.9,7.1c0,0,0,0,0,0c-3.6-0.4-6.9-1.6-10-3.5c-0.7-0.4-1.7,0.1-1.6,1
			c0.4,2.7,1.2,5.2,2.1,7.7c0.5,1.4,1.1,3.9,2.7,4.4c1.6,0.5,2.6-1.3,3.4-2.4c1.3-1.7,2.5-3.4,3.7-5.1c0.1,0,0.3,0,0.4-0.1
			c2.1,6.6,3.3,13.4,3.5,20.3c-1.8-1.2-3.6-2.4-5.5-3.5c-0.5-0.3-1.5-0.1-1.4,0.6c0.1,3.6-0.2,7.1-0.6,10.7
			c-0.1,0.9,0.9,1.3,1.6,0.9c2.1-1.4,4.1-3,5.9-4.6c-0.1,6.2-1.1,12.3-2.9,18.3c-0.8-2.1-1.7-4.2-2.6-6.2c-0.3-0.7-1.4-0.8-1.8-0.2
			c-2.3,3.3-3.8,7-4.5,11c-0.1,0.6,0.5,1.2,1.2,1.1c1.5-0.3,3-0.6,4.5-0.9c0.6-0.1,1.2-0.2,1.8-0.3c-0.4,1.1-0.9,2.2-1.3,3.2
			c-1.4,3.2-3.3,6.2-5.4,9.2c-0.3-1.5-0.9-2.9-1.7-4.2c-0.4-0.6-1-0.8-1.6-0.4c-2.7,1.9-5.2,4.2-7.4,6.7c-0.5,0.6,0,1.5,0.7,1.6
			c2.1,0.3,4.3,0.8,6.5,0.9c-4.1,5.2-8.5,10.4-12.2,15.8c-0.5-2.3-1.3-4.5-2.3-6.6c-0.3-0.7-1.3-0.8-1.7-0.2
			c-2.3,3.4-4.4,6.9-6.2,10.6c-0.3,0.5,0.2,1.3,0.8,1.3c2.5,0.1,4.8-0.3,7-1.3c-3.7,6.5-6,13.5-4.8,21.4c0.2,1.5,2.5,1.1,2.3-0.3
			c-0.9-7.8,1.6-14.8,5.5-21.1c0,0,0,0,0,0c0.2,2.7,0.9,5.4,1.9,8c0.3,0.7,1.3,0.8,1.7,0.2c2.2-3.2,3.7-6.8,4.5-10.6
			c0.1-0.6-0.5-1.3-1.1-1.1c-1.9,0.5-3.8,1-5.7,1.6c0,0-0.1,0-0.1,0c2.2-3.3,4.6-6.4,7.1-9.4c1.9-2.3,3.8-4.7,5.6-7.1
			c0.3,2.2,0.7,4.4,1,6.5c0.1,0.8,1.1,1.2,1.8,0.7c2.6-2,4.8-4.2,6.8-6.7c0.5-0.6,0-1.7-0.8-1.7c-2.4-0.2-4.7-0.3-7-0.3
			c0-0.1,0-0.1,0-0.2c0-0.2-0.1-0.3-0.2-0.5c3.5-5,6.6-10.2,8.8-16c1.3,2,2.5,3.9,3.8,5.9c0.5,0.7,1.5,0.4,1.8-0.3
			c1.7-3.6,3-7.3,4-11.2c0.2-0.8-0.5-1.9-1.4-1.4c-2.4,1.4-4.9,2.8-7.3,4.2c2.1-6.4,3.3-13.2,3.5-19.9c1,1.1,2.1,2.3,3.2,3.4
			c0.5,0.6,1.4,0.4,1.7-0.3c0.4-0.7,0.7-1.5,0.9-2.3c0.5,5.4,1.7,10.8,3.7,16.2c0.3,0.9,1.7,0.8,2,0c1.1-3,2.2-6,3.3-9
			c2.8,1.9,5.8,3.6,8.9,4.9c0.8,0.3,1.5-0.8,0.8-1.3c0.4-0.3,0.6-0.8,0.2-1.4c-6.2-9.1-9.6-18.7-8.1-29.8c1.3-9.2,5-17.9,4.9-27.3
			c-0.1-7.9-2.5-15.6-6.7-22.3c-2-3.2-4.4-6.1-7.1-8.7c-1.9-1.8-4.8-4.8-7.7-4.9c-0.1-0.1-0.1-0.1-0.2-0.2c0-0.1,0-0.1-0.1-0.2
			c-2.6-3.9-8-6.8-11.7-9.7c-4.2-3.2-8.3-6.4-12.4-9.7c-8.4-6.7-16.7-13.6-24.8-20.6c-0.8-0.7-2,0-2.1,0.9
			c-2.1,21.4-4.3,42.9-6.4,64.3c0,0.5,0.1,0.8,0.4,1.1c-0.1,0.1-0.2,0.3-0.1,0.5c0.3,0.6,0.6,1.3,0.9,1.9
			c1.4,14.4,11.9,28.8,7.2,43.2C15.4,128.2-3.2,141.4,7,156.2z M66.1,147.8c1.8-0.9,3.5-1.7,5.2-2.7c-0.7,2.4-1.5,4.7-2.5,6.9
			C67.9,150.6,67,149.2,66.1,147.8z M43.1,190.7c-0.5-1.8-0.9-3.7-1.2-5.5c1.3-0.3,2.6-0.5,3.9-0.9
			C45.2,186.6,44.3,188.7,43.1,190.7z M31.7,184.9c1.3-2.5,2.8-5,4.3-7.4c0.8,1.7,1.4,3.4,2,5.2c0,0,0,0-0.1,0
			C36,183.9,34,184.7,31.7,184.9z M52.1,159c0.7,1.4,1.1,2.9,1.4,4.5c-0.1,0.2-0.3,0.4-0.4,0.6c-1.8-0.6-3.7-0.7-5.6-0.9
			C48.8,161.6,50.4,160.3,52.1,159z M56.1,167.3c1.4,0.3,2.9,0.5,4.4,0.6c-1.1,1.3-2.4,2.5-3.7,3.6
			C56.6,170.1,56.3,168.7,56.1,167.3z M62.3,146.5c-1.9,0.1-3.9,0.7-5.7,1.2c0.6-2.4,1.6-4.8,2.9-6.9
			C60.4,142.7,61.4,144.6,62.3,146.5z M65.8,124.4c-1.6,1.2-3.3,2.4-5,3.6c0.2-2.3,0.3-4.6,0.3-6.8
			C62.6,122.2,64.2,123.3,65.8,124.4z M60.3,101.7c-1.8,2.4-4.4,5.6-4.8,5.5c-0.5-0.2-1.5-3.7-1.7-4.3c-0.4-1.2-0.8-2.5-1.1-3.7
			C55.2,100.4,57.7,101.2,60.3,101.7z M66.2,43.5c-4.7,1.2-9.5,2-14.4,2.4c-0.3,0-0.5,0.1-0.6,0.3c-0.6-2.6-1.8-5.1-3.9-6.4
			c-4.9-3-8.8,0.4-10.2,4.8c-2.1-6.5-5.1-12.8-7.5-19.2c-2-5.2-4-10.4-6.2-15.5c6.5,5.5,13,10.9,19.6,16.1c4.1,3.3,8.3,6.5,12.4,9.7
			C58.6,38.1,62.3,41.7,66.2,43.5z M46,62.4C46,62.4,46,62.4,46,62.4c-0.2,0.1-0.3,0.3-0.4,0.5c-0.1,0-0.3,0-0.4,0
			C40.7,64.3,34,62.8,30.1,60c-2.9-2.1-5.1-6.2-2.7-9.6c2.6-3.8,7.8-2.3,9.6,1.3c0.2,0.4,0.5,0.5,0.8,0.4c0.7,0.2,1.6-0.2,1.4-1.1
			C38.5,48,38,44.3,41,42.2c4.4-3.1,7.3,1.9,8.1,5.7c0.5,2.4,0.5,5,0,7.4C48.8,56.6,47.4,61.9,46,62.4z M46.9,63.9
			c0.3,0,0.7-0.1,0.9-0.4c2.8-3.7,4.2-8.3,4-13c0-0.9-0.1-1.8-0.3-2.8c0.2,0.1,0.4,0.2,0.6,0.2c5-0.2,9.8-1.1,14.5-2.8
			c-2.4,6.8-3.3,14.4-4.6,21.4c-1.3,6.8-2.6,13.6-3.9,20.5c0-0.1,0-0.1-0.1-0.2c-0.9-2.9-1.9-5.8-3.1-8.6
			C52.7,73.1,50.2,68.4,46.9,63.9z M76.8,113.9c1.1-9,5.1-16.9,7.5-25.5c4.2-15.2-2.8-29.1-12-40.8c1.6,1.3,3.1,2.7,4.5,4.2
			c2.9,3.2,5.3,6.8,7.2,10.6c3.9,8.3,5,17.2,3.2,26.2c-1.7,8.7-4.9,17-4.3,26c0.5,7.7,3.3,16,8.3,22c-2.5-1.5-5-3-7.4-4.7
			c-0.5-0.4-1.4-0.2-1.6,0.5c-0.9,2.4-1.9,4.9-2.8,7.3C76.7,131.4,75.7,122.7,76.8,113.9z M69,123.8c1.3-1.1,2.7-2,4.2-2.8
			c0.3,2.2,0,4.3-0.8,6.3c-1-1.1-2-2.2-3-3.2C69.3,124,69.1,123.9,69,123.8z M65.2,102.3c2.9,0.7,5.8,1.4,8.6,2.4
			c0.7,0.2,1.6-0.3,1.4-1.1c-1-4.5-2.6-8.8-4.7-12.9c-0.4-0.7-1.2-0.7-1.7-0.2c-2.1,2.3-3.8,4.7-5.2,7.5c-1-2.3-2.1-4.5-3.4-6.6
			c1.6-7.9,3.1-15.8,4.7-23.8c1.3-6.8,3.3-13.9,3.8-20.9c5.2,7.1,10.7,14,13.4,22.5c3,9.5,0.6,18.2-2.7,27.2
			c-2.7,7.4-4.4,14.9-4.8,22.3c-0.3-0.2-0.6-0.2-0.9-0.1c-1.8,0.9-3.3,2.1-4.7,3.4C68.6,115.3,67.4,108.6,65.2,102.3z M64.3,99.8
			c1.4-2.5,3.1-4.8,5-7c1.4,3,2.6,6.1,3.4,9.4c-2.7-0.9-5.5-1.7-8.4-2.2C64.3,100,64.3,99.9,64.3,99.8z M15.8,68.5
			c2-0.9,3.7-2.4,5.4-3.7c1.9-1.4,3.9-2.9,5.7-4.5c1.7,1.8,4,3.1,6.4,3.9c3.8,1.3,9,2.9,12.6,0.6c2,3.8,4,7.6,5.8,11.5
			c0.9,2.1,1.8,4.2,2.6,6.3c0.4,1.2,0.7,2.5,1.3,3.6c0.2,0.5,0.3,1,0.5,1.5c0.3,0.2,0.7,0.5,1,0.7c-0.3,0-0.6,0.1-0.8,0.3
			C42.5,82.4,29,75.7,15.8,68.5z M14,67.2C16,47.1,18,27,19.9,7c0.2,0.2,0.4,0.4,0.6,0.5c2.1,6.3,4.5,12.6,6.9,18.8
			c2.6,6.8,4.9,13.8,8.1,20.3c0.2,0.5,0.6,0.6,1,0.6c0,0.3,0,0.6,0,0.9c-4.4-4.3-13.3-0.7-12.3,6.6c0.2,1.6,0.8,3,1.7,4.2
			C21.8,61.1,17,63.8,14,67.2z M7.2,151.9c-2.9-7.7,2.4-16.2,6.8-22.4c3.9-5.6,7.9-11.2,8.8-18.2c1.4-11.4-4.6-21.8-7.2-32.7
			c6.1,12.3,12.2,24.9,9.9,39.1c-1.9,11.5-10.9,24.4-8.2,36.4c-0.6-1-1.2-1.9-1.7-2.9c-1.2-2.8-1.5-5.6-2.2-8.5
			c-0.2-0.8-1.5-1-1.7-0.2c-0.1,0-0.3,0-0.4,0.2C9.1,145.3,7.9,148.5,7.2,151.9z"/>
	</g>
</g>
</svg>
