<?xml version="1.0" encoding="utf-8"?>
<!-- Generator: Adobe Illustrator 19.0.0, SVG Export Plug-In . SVG Version: 6.00 Build 0)  -->
<svg version="1.1" id="Capa_1" xmlns="http://www.w3.org/2000/svg" xmlns:xlink="http://www.w3.org/1999/xlink" x="0px" y="0px"
	 viewBox="348 75.3 2349 674" style="enable-background:new 348 75.3 2349 674;" xml:space="preserve">
<style type="text/css">
	.st0{display:none;opacity:0.7;}
	.st1{display:inline;}
	.st2{fill:#875650;}
	.st3{display:inline;fill:#FFCCCC;}
	.st4{display:inline;fill:#90D4D8;}
	.st5{display:inline;fill:#FFB804;}
	.st6{display:inline;fill:#FF7F8B;}
	.st7{display:inline;fill:#CC99CC;}
	.st8{fill:#FB8A1C;}
	.st9{fill:#FF9999;}
	.st10{fill:#07AFBC;}
	.st11{fill:none;}
	.st12{clip-path:url(#SVGID_48_);}
	.st13{fill:#FCB072;}
	.st14{clip-path:url(#SVGID_50_);}
	.st15{clip-path:url(#SVGID_52_);}
	.st16{clip-path:url(#SVGID_54_);}
	.st17{clip-path:url(#SVGID_56_);}
	.st18{clip-path:url(#SVGID_58_);}
	.st19{fill:#F96767;}
	.st20{clip-path:url(#SVGID_60_);}
	.st21{clip-path:url(#SVGID_62_);}
	.st22{clip-path:url(#SVGID_64_);}
	.st23{clip-path:url(#SVGID_66_);}
	.st24{clip-path:url(#SVGID_68_);}
	.st25{fill:#43D3D6;}
	.st26{clip-path:url(#SVGID_70_);}
	.st27{clip-path:url(#SVGID_72_);}
	.st28{clip-path:url(#SVGID_74_);}
	.st29{clip-path:url(#SVGID_76_);}
</style>
<g class="st0">
	<g class="st1">
		<path class="st2" d="M884.9,131.2c-89.3,0-166-2.9-228.8-6.8c-197.5-12.2-305-36.8-306.1-37.1l1-4.3c1.1,0.2,108.3,24.8,305.5,37
			c182,11.2,480.1,14,866.4-37l0.6,4.4C1270.1,120.8,1054.6,131.2,884.9,131.2z"/>
	</g>
	<polygon class="st3" points="443,161.2 439.9,158.5 436.5,160.2 433.2,157.4 429.4,159.1 426.3,156.3 422.5,158 420,155.3 
		416.3,157 413.2,154.2 409.7,155.9 407.3,153.3 404.1,155.1 401.1,152.4 397.3,154 406.9,93 452.7,100.3 	"/>
	<polygon class="st4" points="529.6,171.6 526.4,169 523.2,170.8 519.7,168.2 516,170 512.7,167.4 509.1,169.2 506.4,166.7 
		502.7,168.5 499.5,165.9 496.2,167.8 493.6,165.2 490.5,167.1 487.4,164.6 483.7,166.4 490.6,105.1 536.6,110.2 	"/>
	<polygon class="st5" points="610,178.7 606.7,176.3 603.5,178.2 600,175.7 596.3,177.6 592.9,175.1 589.4,177 586.6,174.6 
		583,176.5 579.7,173.9 576.4,175.9 573.8,173.5 570.7,175.5 567.5,173 563.9,174.9 569,113.4 615.1,117.2 	"/>
	<polygon class="st6" points="702.6,184.2 699.3,181.9 696.1,183.9 692.5,181.5 688.9,183.5 685.5,181.1 681.9,183.2 679.1,180.8 
		675.6,182.8 672.2,180.4 669,182.5 666.3,180.1 663.3,182.2 660,179.8 656.4,181.8 659.6,120.2 705.8,122.6 	"/>
	<polygon class="st4" points="788.3,187.3 784.9,185 781.7,187.1 778.1,184.8 774.5,186.9 771.1,184.6 767.6,186.7 764.7,184.4 
		761.2,186.5 757.8,184.1 754.6,186.3 751.9,184 748.9,186.1 745.6,183.8 742,185.9 743.9,124.2 790.1,125.6 	"/>
	<polygon class="st5" points="875.7,188.3 872.3,186.1 869.2,188.3 865.5,186 862,188.2 858.5,186 855,188.1 852.1,185.9 
		848.7,188.1 845.2,185.8 842.1,188 839.3,185.8 836.4,188 833,185.7 829.5,187.9 830,126.2 876.3,126.6 	"/>
	<polygon class="st3" points="975,187.5 971.5,185.4 968.4,187.6 964.7,185.5 961.2,187.7 957.6,185.6 954.3,187.8 951.3,185.7 
		947.9,187.9 944.4,185.7 941.3,188 938.4,185.8 935.6,188.1 932.2,186 928.7,188.3 927.7,126.6 973.9,125.8 	"/>
	<polygon class="st4" points="1074.5,184.2 1071,182.2 1068,184.4 1064.2,182.4 1060.8,184.7 1057.2,182.6 1053.8,184.9 
		1050.8,182.8 1047.5,185.2 1043.9,183 1040.9,185.4 1038,183.3 1035.2,185.6 1031.7,183.5 1028.3,185.9 1026.1,124.2 1072.3,122.5 
			"/>
	<polygon class="st5" points="1169.7,179.5 1166.1,177.5 1163.2,179.8 1159.3,177.8 1155.9,180.2 1152.3,178.2 1149,180.6 
		1146,178.5 1142.6,180.9 1139,178.8 1136,181.2 1133.1,179.1 1130.3,181.5 1126.8,179.5 1123.5,181.9 1120.3,120.2 1166.5,117.9 	
		"/>
	<polygon class="st3" points="1267.1,172.5 1263.5,170.5 1260.6,172.9 1256.7,171 1253.4,173.5 1249.7,171.5 1246.5,174 1243.4,172 
		1240.1,174.5 1236.4,172.5 1233.5,175 1230.6,172.9 1227.8,175.4 1224.3,173.4 1221,175.9 1216.4,114.4 1262.5,110.9 	"/>
	<polygon class="st4" points="1358.6,164 1354.9,162.1 1352.1,164.6 1348.1,162.7 1344.8,165.3 1341.1,163.4 1337.9,165.9 
		1334.8,164 1331.6,166.5 1327.9,164.6 1325,167.1 1322,165.1 1319.3,167.6 1315.8,165.8 1312.5,168.3 1306.8,106.8 1352.8,102.5 	
		"/>
	<polygon class="st5" points="1457.1,153.4 1453.4,151.6 1450.6,154.1 1446.7,152.3 1443.4,154.9 1439.7,153.1 1436.5,155.7 
		1433.4,153.8 1430.2,156.3 1426.5,154.5 1423.6,157.1 1420.6,155.1 1418,157.7 1414.4,155.9 1411.1,158.4 1404.4,97.1 1450.4,92.1 
			"/>
	<g class="st1">
		<defs>
			<polygon id="SVGID_1_" points="443,161.2 439.9,158.5 436.5,160.2 433.2,157.4 429.4,159.1 426.3,156.3 422.5,158 420,155.3 
				416.3,157 413.2,154.2 409.7,155.9 407.3,153.3 404.1,155.1 401.1,152.4 397.3,154 406.9,93 452.7,100.3 			"/>
		</defs>
		<clipPath id="SVGID_2_">
			<use xlink:href="#SVGID_1_"  style="overflow:visible;"/>
		</clipPath>
	</g>
	<g class="st1">
		<defs>
			<polygon id="SVGID_3_" points="702.6,184.2 699.3,181.9 696.1,183.9 692.5,181.5 688.9,183.5 685.5,181.1 681.9,183.2 
				679.1,180.8 675.6,182.8 672.2,180.4 669,182.5 666.3,180.1 663.3,182.2 660,179.8 656.4,181.8 659.6,120.2 705.8,122.6 			"/>
		</defs>
		<clipPath id="SVGID_4_">
			<use xlink:href="#SVGID_3_"  style="overflow:visible;"/>
		</clipPath>
	</g>
	<g class="st1">
		<defs>
			<polygon id="SVGID_5_" points="972.4,187.5 968.9,185.4 965.8,187.6 962.1,185.4 958.6,187.7 955,185.6 951.7,187.8 948.7,185.7 
				945.3,187.9 941.8,185.7 938.7,188 935.9,185.8 933,188.1 929.6,186 926.1,188.2 925.1,126.5 971.4,125.8 			"/>
		</defs>
		<clipPath id="SVGID_6_">
			<use xlink:href="#SVGID_5_"  style="overflow:visible;"/>
		</clipPath>
	</g>
	<g class="st1">
		<defs>
			<polygon id="SVGID_7_" points="1267.1,172.5 1263.5,170.5 1260.6,172.9 1256.7,171 1253.4,173.5 1249.7,171.5 1246.5,174 
				1243.4,172 1240.1,174.5 1236.4,172.5 1233.5,175 1230.6,172.9 1227.8,175.4 1224.3,173.4 1221,175.9 1216.4,114.4 1262.5,110.9 
							"/>
		</defs>
		<clipPath id="SVGID_8_">
			<use xlink:href="#SVGID_7_"  style="overflow:visible;"/>
		</clipPath>
	</g>
	<g class="st1">
		<defs>
			<polygon id="SVGID_9_" points="1358.6,164 1354.9,162.1 1352.1,164.6 1348.1,162.7 1344.8,165.3 1341.1,163.4 1337.9,165.9 
				1334.8,164 1331.6,166.5 1327.9,164.6 1325,167.1 1322,165.1 1319.3,167.6 1315.8,165.8 1312.5,168.3 1306.8,106.8 1352.8,102.5 
							"/>
		</defs>
		<clipPath id="SVGID_10_">
			<use xlink:href="#SVGID_9_"  style="overflow:visible;"/>
		</clipPath>
	</g>
	<g class="st1">
		<defs>
			<polygon id="SVGID_11_" points="1074.5,184.2 1071,182.2 1068,184.4 1064.2,182.4 1060.8,184.7 1057.2,182.6 1053.8,184.9 
				1050.8,182.8 1047.5,185.2 1043.9,183 1040.9,185.4 1038,183.3 1035.2,185.6 1031.7,183.5 1028.3,185.9 1026.1,124.2 
				1072.3,122.5 			"/>
		</defs>
		<clipPath id="SVGID_12_">
			<use xlink:href="#SVGID_11_"  style="overflow:visible;"/>
		</clipPath>
	</g>
	<g class="st1">
		<defs>
			<polygon id="SVGID_13_" points="788.3,187.3 784.9,185 781.7,187.1 778.1,184.8 774.5,186.9 771.1,184.6 767.6,186.7 
				764.7,184.4 761.2,186.5 757.8,184.1 754.6,186.3 751.9,184 748.9,186.1 745.6,183.8 742,185.9 743.9,124.2 790.1,125.6 			"/>
		</defs>
		<clipPath id="SVGID_14_">
			<use xlink:href="#SVGID_13_"  style="overflow:visible;"/>
		</clipPath>
	</g>
	<g class="st1">
		<defs>
			<polygon id="SVGID_15_" points="529.6,171.6 526.4,169 523.2,170.8 519.7,168.2 516,170 512.7,167.4 509.1,169.2 506.4,166.7 
				502.7,168.5 499.5,165.9 496.2,167.8 493.6,165.2 490.5,167.1 487.4,164.6 483.7,166.4 490.6,105.1 536.6,110.2 			"/>
		</defs>
		<clipPath id="SVGID_16_">
			<use xlink:href="#SVGID_15_"  style="overflow:visible;"/>
		</clipPath>
	</g>
	<g class="st1">
		<defs>
			<polygon id="SVGID_17_" points="610,178.7 606.7,176.3 603.5,178.2 600,175.7 596.3,177.6 592.9,175.1 589.4,177 586.6,174.6 
				583,176.5 579.7,173.9 576.4,175.9 573.8,173.5 570.7,175.5 567.5,173 563.9,174.9 569,113.4 615.1,117.2 			"/>
		</defs>
		<clipPath id="SVGID_18_">
			<use xlink:href="#SVGID_17_"  style="overflow:visible;"/>
		</clipPath>
	</g>
	<g class="st1">
		<defs>
			<polygon id="SVGID_19_" points="1169.7,179.5 1166.1,177.5 1163.2,179.8 1159.3,177.8 1155.9,180.2 1152.3,178.2 1149,180.6 
				1146,178.5 1142.6,180.9 1139,178.8 1136,181.2 1133.1,179.1 1130.3,181.5 1126.8,179.5 1123.5,181.9 1120.3,120.2 1166.5,117.9 
							"/>
		</defs>
		<clipPath id="SVGID_20_">
			<use xlink:href="#SVGID_19_"  style="overflow:visible;"/>
		</clipPath>
	</g>
	<g class="st1">
		<defs>
			<polygon id="SVGID_21_" points="1457.1,153.4 1453.4,151.6 1450.6,154.1 1446.7,152.3 1443.4,154.9 1439.7,153.1 1436.5,155.7 
				1433.4,153.8 1430.2,156.3 1426.5,154.5 1423.6,157.1 1420.6,155.1 1418,157.7 1414.4,155.9 1411.1,158.4 1404.4,97.1 
				1450.4,92.1 			"/>
		</defs>
		<clipPath id="SVGID_22_">
			<use xlink:href="#SVGID_21_"  style="overflow:visible;"/>
		</clipPath>
	</g>
</g>
<g class="st0">
	<g class="st1">
		<path class="st2" d="M2057.3,131.2c-89.3,0-166-2.9-228.8-6.8c-197.5-12.2-305-36.8-306.1-37.1l1-4.3c1.1,0.2,108.3,24.8,305.5,37
			c182,11.2,480.1,14,866.4-37l0.6,4.4C2442.6,120.8,2227.1,131.2,2057.3,131.2z"/>
	</g>
	<polygon class="st7" points="1615.5,161.2 1612.4,158.5 1609,160.2 1605.7,157.4 1601.9,159.1 1598.8,156.3 1595,158 1592.5,155.3 
		1588.7,157 1585.7,154.2 1582.2,155.9 1579.8,153.3 1576.6,155.1 1573.6,152.4 1569.8,154 1579.4,93 1625.1,100.3 	"/>
	<polygon class="st4" points="1702.1,171.6 1698.9,169 1695.6,170.8 1692.2,168.2 1688.4,170 1685.2,167.4 1681.6,169.2 
		1678.9,166.7 1675.2,168.5 1672,165.9 1668.7,167.8 1666.1,165.2 1663,167.1 1659.9,164.6 1656.2,166.4 1663.1,105.1 1709.1,110.2 
			"/>
	<polygon class="st5" points="1782.5,178.7 1779.2,176.3 1776,178.2 1772.5,175.7 1768.8,177.6 1765.4,175.1 1761.9,177 
		1759.1,174.6 1755.5,176.5 1752.2,173.9 1748.9,175.9 1746.3,173.5 1743.2,175.5 1740,173 1736.4,174.9 1741.5,113.4 1787.6,117.2 
			"/>
	<polygon class="st7" points="1875.1,184.2 1871.8,181.9 1868.6,183.9 1865,181.5 1861.3,183.5 1858,181.1 1854.4,183.2 
		1851.6,180.8 1848.1,182.8 1844.7,180.4 1841.5,182.5 1838.8,180.1 1835.8,182.2 1832.5,179.8 1828.9,181.8 1832.1,120.2 
		1878.3,122.6 	"/>
	<polygon class="st4" points="1960.8,187.3 1957.4,185 1954.2,187.1 1950.6,184.8 1947,186.9 1943.6,184.6 1940.1,186.7 
		1937.2,184.4 1933.7,186.5 1930.3,184.1 1927.1,186.3 1924.4,184 1921.4,186.1 1918.1,183.8 1914.5,185.9 1916.4,124.2 
		1962.6,125.6 	"/>
	<polygon class="st5" points="2048.2,188.3 2044.8,186.1 2041.7,188.3 2038,186 2034.5,188.2 2031,186 2027.5,188.1 2024.6,185.9 
		2021.2,188.1 2017.7,185.8 2014.6,188 2011.8,185.8 2008.8,188 2005.5,185.7 2002,187.9 2002.5,126.2 2048.8,126.6 	"/>
	<polygon class="st7" points="2147.5,187.5 2143.9,185.4 2140.9,187.6 2137.2,185.5 2133.7,187.7 2130.1,185.6 2126.8,187.8 
		2123.8,185.7 2120.4,187.9 2116.8,185.7 2113.8,188 2110.9,185.8 2108.1,188.1 2104.7,186 2101.2,188.3 2100.2,126.6 2146.4,125.8 
			"/>
	<polygon class="st4" points="2247,184.2 2243.5,182.2 2240.5,184.4 2236.7,182.4 2233.2,184.7 2229.7,182.6 2226.3,184.9 
		2223.3,182.8 2220,185.2 2216.4,183 2213.4,185.4 2210.5,183.3 2207.7,185.6 2204.2,183.5 2200.8,185.9 2198.5,124.2 2244.8,122.5 
			"/>
	<polygon class="st5" points="2342.2,179.5 2338.6,177.5 2335.6,179.8 2331.8,177.8 2328.4,180.2 2324.8,178.2 2321.5,180.6 
		2318.5,178.5 2315.1,180.9 2311.5,178.8 2308.5,181.2 2305.6,179.1 2302.8,181.5 2299.3,179.5 2296,181.9 2292.8,120.2 2339,117.9 
			"/>
	<polygon class="st7" points="2439.6,172.5 2436,170.5 2433.1,172.9 2429.2,171 2425.9,173.5 2422.2,171.5 2418.9,174 2415.9,172 
		2412.6,174.5 2408.9,172.5 2406,175 2403.1,172.9 2400.3,175.4 2396.8,173.4 2393.5,175.9 2388.9,114.4 2435,110.9 	"/>
	<polygon class="st4" points="2531.1,164 2527.4,162.1 2524.5,164.6 2520.6,162.7 2517.3,165.3 2513.6,163.4 2510.4,165.9 
		2507.3,164 2504.1,166.5 2500.4,164.6 2497.5,167.1 2494.5,165.1 2491.8,167.6 2488.3,165.8 2485,168.3 2479.2,106.8 2525.3,102.5 
			"/>
	<polygon class="st5" points="2629.6,153.4 2625.9,151.6 2623.1,154.1 2619.2,152.3 2615.9,154.9 2612.2,153.1 2609,155.7 
		2605.9,153.8 2602.7,156.3 2599,154.5 2596.1,157.1 2593.1,155.1 2590.5,157.7 2586.9,155.9 2583.6,158.4 2576.9,97.1 2622.9,92.1 
			"/>
	<g class="st1">
		<defs>
			<polygon id="SVGID_23_" points="1615.5,161.2 1612.4,158.5 1609,160.2 1605.7,157.4 1601.9,159.1 1598.8,156.3 1595,158 
				1592.5,155.3 1588.7,157 1585.7,154.2 1582.2,155.9 1579.8,153.3 1576.6,155.1 1573.6,152.4 1569.8,154 1579.4,93 1625.1,100.3 
							"/>
		</defs>
		<clipPath id="SVGID_24_">
			<use xlink:href="#SVGID_23_"  style="overflow:visible;"/>
		</clipPath>
	</g>
	<g class="st1">
		<defs>
			<polygon id="SVGID_25_" points="1875.1,184.2 1871.8,181.9 1868.6,183.9 1865,181.5 1861.3,183.5 1858,181.1 1854.4,183.2 
				1851.6,180.8 1848.1,182.8 1844.7,180.4 1841.5,182.5 1838.8,180.1 1835.8,182.2 1832.5,179.8 1828.9,181.8 1832.1,120.2 
				1878.3,122.6 			"/>
		</defs>
		<clipPath id="SVGID_26_">
			<use xlink:href="#SVGID_25_"  style="overflow:visible;"/>
		</clipPath>
	</g>
	<g class="st1">
		<defs>
			<polygon id="SVGID_27_" points="2147.5,187.5 2143.9,185.4 2140.9,187.6 2137.2,185.5 2133.7,187.7 2130.1,185.6 2126.8,187.8 
				2123.8,185.7 2120.4,187.9 2116.8,185.7 2113.8,188 2110.9,185.8 2108.1,188.1 2104.7,186 2101.2,188.3 2100.2,126.6 
				2146.4,125.8 			"/>
		</defs>
		<clipPath id="SVGID_28_">
			<use xlink:href="#SVGID_27_"  style="overflow:visible;"/>
		</clipPath>
	</g>
	<g class="st1">
		<defs>
			<polygon id="SVGID_29_" points="2439.6,172.5 2436,170.5 2433.1,172.9 2429.2,171 2425.9,173.5 2422.2,171.5 2418.9,174 
				2415.9,172 2412.6,174.5 2408.9,172.5 2406,175 2403.1,172.9 2400.3,175.4 2396.8,173.4 2393.5,175.9 2388.9,114.4 2435,110.9 
							"/>
		</defs>
		<clipPath id="SVGID_30_">
			<use xlink:href="#SVGID_29_"  style="overflow:visible;"/>
		</clipPath>
	</g>
	<g class="st1">
		<defs>
			<polygon id="SVGID_31_" points="2531.1,164 2527.4,162.1 2524.5,164.6 2520.6,162.7 2517.3,165.3 2513.6,163.4 2510.4,165.9 
				2507.3,164 2504.1,166.5 2500.4,164.6 2497.5,167.1 2494.5,165.1 2491.8,167.6 2488.3,165.8 2485,168.3 2479.2,106.8 
				2525.3,102.5 			"/>
		</defs>
		<clipPath id="SVGID_32_">
			<use xlink:href="#SVGID_31_"  style="overflow:visible;"/>
		</clipPath>
	</g>
	<g class="st1">
		<defs>
			<polygon id="SVGID_33_" points="2247,184.2 2243.5,182.2 2240.5,184.4 2236.7,182.4 2233.2,184.7 2229.7,182.6 2226.3,184.9 
				2223.3,182.8 2220,185.2 2216.4,183 2213.4,185.4 2210.5,183.3 2207.7,185.6 2204.2,183.5 2200.8,185.9 2198.5,124.2 
				2244.8,122.5 			"/>
		</defs>
		<clipPath id="SVGID_34_">
			<use xlink:href="#SVGID_33_"  style="overflow:visible;"/>
		</clipPath>
	</g>
	<g class="st1">
		<defs>
			<polygon id="SVGID_35_" points="1960.8,187.3 1957.4,185 1954.2,187.1 1950.6,184.8 1947,186.9 1943.6,184.6 1940.1,186.7 
				1937.2,184.4 1933.7,186.5 1930.3,184.1 1927.1,186.3 1924.4,184 1921.4,186.1 1918.1,183.8 1914.5,185.9 1916.4,124.2 
				1962.6,125.6 			"/>
		</defs>
		<clipPath id="SVGID_36_">
			<use xlink:href="#SVGID_35_"  style="overflow:visible;"/>
		</clipPath>
	</g>
	<g class="st1">
		<defs>
			<polygon id="SVGID_37_" points="1702.1,171.6 1698.9,169 1695.6,170.8 1692.2,168.2 1688.4,170 1685.2,167.4 1681.6,169.2 
				1678.9,166.7 1675.2,168.5 1672,165.9 1668.7,167.8 1666.1,165.2 1663,167.1 1659.9,164.6 1656.2,166.4 1663.1,105.1 
				1709.1,110.2 			"/>
		</defs>
		<clipPath id="SVGID_38_">
			<use xlink:href="#SVGID_37_"  style="overflow:visible;"/>
		</clipPath>
	</g>
	<g class="st1">
		<defs>
			<polygon id="SVGID_39_" points="1782.5,178.7 1779.2,176.3 1776,178.2 1772.5,175.7 1768.8,177.6 1765.4,175.1 1761.9,177 
				1759.1,174.6 1755.5,176.5 1752.2,173.9 1748.9,175.9 1746.3,173.5 1743.2,175.5 1740,173 1736.4,174.9 1741.5,113.4 
				1787.6,117.2 			"/>
		</defs>
		<clipPath id="SVGID_40_">
			<use xlink:href="#SVGID_39_"  style="overflow:visible;"/>
		</clipPath>
	</g>
	<g class="st1">
		<defs>
			<polygon id="SVGID_41_" points="2048.2,188.3 2044.8,186.1 2041.7,188.3 2038,186 2034.5,188.2 2031,186 2027.5,188.1 
				2024.6,185.9 2021.2,188.1 2017.7,185.8 2014.6,188 2011.8,185.8 2008.8,188 2005.5,185.7 2002,187.9 2002.5,126.2 2048.8,126.6 
							"/>
		</defs>
		<clipPath id="SVGID_42_">
			<use xlink:href="#SVGID_41_"  style="overflow:visible;"/>
		</clipPath>
	</g>
	<g class="st1">
		<defs>
			<polygon id="SVGID_43_" points="2342.2,179.5 2338.6,177.5 2335.6,179.8 2331.8,177.8 2328.4,180.2 2324.8,178.2 2321.5,180.6 
				2318.5,178.5 2315.1,180.9 2311.5,178.8 2308.5,181.2 2305.6,179.1 2302.8,181.5 2299.3,179.5 2296,181.9 2292.8,120.2 
				2339,117.9 			"/>
		</defs>
		<clipPath id="SVGID_44_">
			<use xlink:href="#SVGID_43_"  style="overflow:visible;"/>
		</clipPath>
	</g>
	<g class="st1">
		<defs>
			<polygon id="SVGID_45_" points="2629.6,153.4 2625.9,151.6 2623.1,154.1 2619.2,152.3 2615.9,154.9 2612.2,153.1 2609,155.7 
				2605.9,153.8 2602.7,156.3 2599,154.5 2596.1,157.1 2593.1,155.1 2590.5,157.7 2586.9,155.9 2583.6,158.4 2576.9,97.1 
				2622.9,92.1 			"/>
		</defs>
		<clipPath id="SVGID_46_">
			<use xlink:href="#SVGID_45_"  style="overflow:visible;"/>
		</clipPath>
	</g>
</g>
<g>
	<g>
		<rect x="348" y="75.9" class="st2" width="2343.3" height="3.3"/>
	</g>
	<polygon class="st8" points="483.5,201.1 436.5,161.6 389.6,201.1 389.6,75.9 483.5,75.9 	"/>
	<polygon class="st9" points="638.4,201.1 591.5,161.6 544.5,201.1 544.5,75.9 638.4,75.9 	"/>
	<polygon class="st10" points="793.4,201.1 746.4,161.6 699.4,201.1 699.4,75.9 793.4,75.9 	"/>
	<polygon class="st8" points="948.3,201.1 901.3,161.6 854.4,201.1 854.4,75.9 948.3,75.9 	"/>
	<polygon class="st10" points="1103.2,201.1 1056.3,161.6 1009.3,201.1 1009.3,75.9 1103.2,75.9 	"/>
	<polygon class="st9" points="1258.2,201.1 1211.2,161.6 1164.2,201.1 1164.2,75.9 1258.2,75.9 	"/>
	<polygon class="st8" points="1413.1,201.1 1366.1,161.6 1319.1,201.1 1319.1,75.9 1413.1,75.9 	"/>
	<polygon class="st10" points="1568,201.1 1521,161.6 1474.1,201.1 1474.1,75.9 1568,75.9 	"/>
	<polygon class="st9" points="1722.9,201.1 1676,161.6 1629,201.1 1629,75.9 1722.9,75.9 	"/>
	<polygon class="st8" points="1877.9,201.1 1830.9,161.6 1783.9,201.1 1783.9,75.9 1877.9,75.9 	"/>
	<polygon class="st10" points="2032.8,201.1 1985.8,161.6 1938.9,201.1 1938.9,75.9 2032.8,75.9 	"/>
	<polygon class="st9" points="2187.7,201.1 2140.8,161.6 2093.8,201.1 2093.8,75.9 2187.7,75.9 	"/>
	<polygon class="st8" points="2342.7,201.1 2295.7,161.6 2248.7,201.1 2248.7,75.9 2342.7,75.9 	"/>
	<polygon class="st8" points="2342.7,201.1 2295.7,161.6 2248.7,201.1 2248.7,75.9 2342.7,75.9 	"/>
	<polygon class="st10" points="2497.6,201.1 2450.6,161.6 2403.6,201.1 2403.6,75.9 2497.6,75.9 	"/>
	<polygon class="st9" points="2652.5,201.1 2605.5,161.6 2558.6,201.1 2558.6,75.9 2652.5,75.9 	"/>
	<polygon class="st11" points="483.5,201.1 436.5,161.6 389.6,201.1 389.6,75.9 483.5,75.9 	"/>
	<g>
		<defs>
			<polygon id="SVGID_47_" points="483.5,201.1 436.5,161.6 389.6,201.1 389.6,75.9 483.5,75.9 			"/>
		</defs>
		<clipPath id="SVGID_48_">
			<use xlink:href="#SVGID_47_"  style="overflow:visible;"/>
		</clipPath>
		<g class="st12">
			<polygon class="st13" points="344.1,271.6 336.7,271.6 335.9,5.9 343.2,5.8 			"/>
			
				<rect x="351.1" y="5.8" transform="matrix(1 -3.124872e-003 3.124872e-003 1 -0.4317 1.1093)" class="st13" width="7.3" height="265.8"/>
			
				<rect x="365.9" y="5.8" transform="matrix(1 -3.124872e-003 3.124872e-003 1 -0.4315 1.1556)" class="st13" width="7.3" height="265.8"/>
			
				<rect x="380.7" y="5.7" transform="matrix(1 -3.124234e-003 3.124234e-003 1 -0.4312 1.2016)" class="st13" width="7.3" height="265.8"/>
			<polygon class="st13" points="403.2,271.4 395.9,271.5 395.1,5.7 402.4,5.7 			"/>
			<polygon class="st13" points="418,271.4 410.7,271.4 409.9,5.6 417.2,5.6 			"/>
			
				<rect x="425.1" y="5.6" transform="matrix(1 -3.524066e-003 3.524066e-003 1 -0.4853 1.5118)" class="st13" width="7.3" height="265.8"/>
			
				<rect x="439.9" y="5.5" transform="matrix(1 -3.125486e-003 3.125486e-003 1 -0.4305 1.387)" class="st13" width="7.3" height="265.8"/>
			<polygon class="st13" points="462.4,271.2 455.1,271.3 454.3,5.5 461.6,5.5 			"/>
			<polygon class="st13" points="477.2,271.2 469.9,271.2 469.1,5.5 476.4,5.4 			"/>
			<polygon class="st13" points="492,271.2 484.7,271.2 483.9,5.4 491.2,5.4 			"/>
			
				<rect x="499.1" y="5.4" transform="matrix(1 -3.123733e-003 3.123733e-003 1 -0.4294 1.5711)" class="st13" width="7.3" height="265.8"/>
		</g>
	</g>
	<g>
		<defs>
			<polygon id="SVGID_49_" points="948.3,201.1 901.3,161.6 854.4,201.1 854.4,75.9 948.3,75.9 			"/>
		</defs>
		<clipPath id="SVGID_50_">
			<use xlink:href="#SVGID_49_"  style="overflow:visible;"/>
		</clipPath>
		<g class="st14">
			<polygon class="st13" points="824,260.3 816.7,260.3 815.9,-5.5 823.2,-5.5 			"/>
			
				<rect x="831.1" y="-5.5" transform="matrix(1 -3.124860e-003 3.124860e-003 1 -0.3939 2.6091)" class="st13" width="7.3" height="265.8"/>
			
				<rect x="845.9" y="-5.6" transform="matrix(1 -3.124860e-003 3.124860e-003 1 -0.3936 2.6553)" class="st13" width="7.3" height="265.8"/>
			
				<rect x="860.7" y="-5.6" transform="matrix(1 -3.124234e-003 3.124234e-003 1 -0.3933 2.701)" class="st13" width="7.3" height="265.8"/>
			<polygon class="st13" points="883.2,260.1 875.9,260.1 875.1,-5.7 882.4,-5.7 			"/>
			<polygon class="st13" points="898,260 890.7,260.1 889.9,-5.7 897.2,-5.7 			"/>
			
				<rect x="905.1" y="-5.8" transform="matrix(1 -3.524073e-003 3.524073e-003 1 -0.4423 3.2032)" class="st13" width="7.3" height="265.8"/>
			
				<rect x="919.9" y="-5.8" transform="matrix(1 -3.125486e-003 3.125486e-003 1 -0.3926 2.8871)" class="st13" width="7.3" height="265.8"/>
			<polygon class="st13" points="942.4,259.9 935.1,259.9 934.3,-5.8 941.6,-5.9 			"/>
			<polygon class="st13" points="957.2,259.8 949.9,259.9 949.1,-5.9 956.4,-5.9 			"/>
			<polygon class="st13" points="972,259.8 964.7,259.8 963.8,-5.9 971.2,-6 			"/>
			
				<rect x="979" y="-6" transform="matrix(1 -3.123615e-003 3.123615e-003 1 -0.3916 3.0702)" class="st13" width="7.3" height="265.8"/>
		</g>
	</g>
	<g>
		<defs>
			<polygon id="SVGID_51_" points="1413.1,201.1 1366.1,161.6 1319.1,201.1 1319.1,75.9 1413.1,75.9 			"/>
		</defs>
		<clipPath id="SVGID_52_">
			<use xlink:href="#SVGID_51_"  style="overflow:visible;"/>
		</clipPath>
		<g class="st15">
			<polygon class="st13" points="1273.1,262.4 1265.8,262.4 1265,-3.4 1272.3,-3.4 			"/>
			
				<rect x="1280.2" y="-3.4" transform="matrix(1 -3.124860e-003 3.124860e-003 1 -0.3983 4.0124)" class="st13" width="7.3" height="265.8"/>
			
				<rect x="1295" y="-3.5" transform="matrix(1 -3.124860e-003 3.124860e-003 1 -0.3981 4.0587)" class="st13" width="7.3" height="265.8"/>
			
				<rect x="1309.8" y="-3.5" transform="matrix(1 -3.164288e-003 3.164288e-003 1 -0.4028 4.1567)" class="st13" width="7.3" height="265.8"/>
			<polygon class="st13" points="1332.3,262.2 1325,262.2 1324.2,-3.5 1331.5,-3.6 			"/>
			
				<rect x="1339.4" y="-3.6" transform="matrix(1 -2.723694e-003 2.723694e-003 1 -0.3471 3.6584)" class="st13" width="7.3" height="265.8"/>
			
				<rect x="1354.2" y="-3.7" transform="matrix(1 -3.524207e-003 3.524207e-003 1 -0.447 4.786)" class="st13" width="7.3" height="265.8"/>
			
				<rect x="1368.9" y="-3.7" transform="matrix(1 -3.165556e-003 3.165556e-003 1 -0.4021 4.3457)" class="st13" width="7.3" height="265.8"/>
			<polygon class="st13" points="1391.5,262 1384.2,262 1383.3,-3.7 1390.6,-3.8 			"/>
			<polygon class="st13" points="1406.3,262 1398.9,262 1398.1,-3.8 1405.4,-3.8 			"/>
			<polygon class="st13" points="1421.1,261.9 1413.7,261.9 1412.9,-3.8 1420.2,-3.8 			"/>
			
				<rect x="1428.1" y="-3.9" transform="matrix(1 -3.123733e-003 3.123733e-003 1 -0.396 4.4731)" class="st13" width="7.3" height="265.8"/>
		</g>
	</g>
	<g>
		<defs>
			<polygon id="SVGID_53_" points="1877.9,201.1 1830.9,161.6 1783.9,201.1 1783.9,75.9 1877.9,75.9 			"/>
		</defs>
		<clipPath id="SVGID_54_">
			<use xlink:href="#SVGID_53_"  style="overflow:visible;"/>
		</clipPath>
		<g class="st16">
			<polygon class="st13" points="1754.1,269 1746.8,269.1 1745.9,3.3 1753.3,3.3 			"/>
			
				<rect x="1761.1" y="3.3" transform="matrix(1 -3.124844e-003 3.124844e-003 1 -0.4168 5.5154)" class="st13" width="7.3" height="265.8"/>
			
				<rect x="1775.9" y="3.2" transform="matrix(1 -3.164921e-003 3.164921e-003 1 -0.4218 5.633)" class="st13" width="7.3" height="265.8"/>
			
				<rect x="1790.7" y="3.2" transform="matrix(1 -3.123608e-003 3.123608e-003 1 -0.4162 5.6057)" class="st13" width="7.3" height="265.8"/>
			<polygon class="st13" points="1813.3,268.9 1805.9,268.9 1805.1,3.1 1812.4,3.1 			"/>
			
				<rect x="1820.3" y="3.1" transform="matrix(1 -3.124860e-003 3.124860e-003 1 -0.4159 5.7004)" class="st13" width="7.3" height="265.8"/>
			<polygon class="st13" points="1842.8,268.8 1835.5,268.8 1834.7,3 1842,3 			"/>
			<polygon class="st13" points="1857.6,268.7 1850.3,268.8 1849.5,3 1856.8,3 			"/>
			<polygon class="st13" points="1872.4,268.7 1865.1,268.7 1864.3,2.9 1871.6,2.9 			"/>
			<polygon class="st13" points="1887.2,268.6 1879.9,268.7 1879.1,2.9 1886.4,2.9 			"/>
			
				<rect x="1894.3" y="2.8" transform="matrix(1 -3.163781e-003 3.163781e-003 1 -0.4199 6.0054)" class="st13" width="7.3" height="265.8"/>
			
				<rect x="1909.1" y="2.8" transform="matrix(1 -3.123591e-003 3.123591e-003 1 -0.4145 5.9753)" class="st13" width="7.3" height="265.8"/>
		</g>
	</g>
	<g>
		<defs>
			<polygon id="SVGID_55_" points="2342.7,201.1 2295.7,161.6 2248.7,201.1 2248.7,75.9 2342.7,75.9 			"/>
		</defs>
		<clipPath id="SVGID_56_">
			<use xlink:href="#SVGID_55_"  style="overflow:visible;"/>
		</clipPath>
		<g class="st17">
			<polygon class="st13" points="2205,246.7 2197.6,246.7 2196.8,-19 2204.1,-19.1 			"/>
			
				<rect x="2212" y="-19.1" transform="matrix(1 -3.124860e-003 3.124860e-003 1 -0.3448 6.9243)" class="st13" width="7.3" height="265.8"/>
			
				<rect x="2226.8" y="-19.1" transform="matrix(1 -3.124880e-003 3.124880e-003 1 -0.3445 6.9706)" class="st13" width="7.3" height="265.8"/>
			
				<rect x="2241.6" y="-19.2" transform="matrix(1 -3.123608e-003 3.123608e-003 1 -0.3442 7.0139)" class="st13" width="7.3" height="265.8"/>
			<polygon class="st13" points="2264.1,246.5 2256.8,246.6 2256,-19.2 2263.3,-19.2 			"/>
			
				<rect x="2271.2" y="-19.3" transform="matrix(1 -2.764302e-003 2.764302e-003 1 -0.3054 6.2889)" class="st13" width="7.3" height="265.8"/>
			
				<rect x="2286" y="-19.3" transform="matrix(1 -3.484020e-003 3.484020e-003 1 -0.3817 7.9779)" class="st13" width="7.3" height="265.8"/>
			<polygon class="st13" points="2308.5,246.4 2301.2,246.4 2300.4,-19.4 2307.7,-19.4 			"/>
			<polygon class="st13" points="2323.3,246.3 2316,246.4 2315.2,-19.4 2322.5,-19.4 			"/>
			<polygon class="st13" points="2338.1,246.3 2330.8,246.3 2330,-19.4 2337.3,-19.5 			"/>
			<polygon class="st13" points="2352.9,246.3 2345.6,246.3 2344.8,-19.5 2352.1,-19.5 			"/>
			
				<rect x="2360" y="-19.5" transform="matrix(1 -3.123733e-003 3.123733e-003 1 -0.3425 7.3839)" class="st13" width="7.3" height="265.8"/>
		</g>
	</g>
	<g>
		<defs>
			<polygon id="SVGID_57_" points="638.4,201.1 591.5,161.6 544.5,201.1 544.5,75.9 638.4,75.9 			"/>
		</defs>
		<clipPath id="SVGID_58_">
			<use xlink:href="#SVGID_57_"  style="overflow:visible;"/>
		</clipPath>
		<g class="st18">
			
				<rect x="602" y="-89" transform="matrix(3.524066e-003 1 -1 3.524066e-003 647.3484 -561.9272)" class="st19" width="7.3" height="265.8"/>
			
				<rect x="602" y="-74.2" transform="matrix(3.124860e-003 1 -1 3.124860e-003 662.4258 -547.2072)" class="st19" width="7.3" height="265.8"/>
			
				<rect x="602.1" y="-59.4" transform="matrix(3.124860e-003 1 -1 3.124860e-003 677.2698 -532.5035)" class="st19" width="7.3" height="265.8"/>
			
				<rect x="602.1" y="-44.6" transform="matrix(3.123733e-003 1 -1 3.123733e-003 692.1114 -517.797)" class="st19" width="7.3" height="265.8"/>
			<polygon class="st19" points="472.9,107.1 472.9,99.8 738.7,99 738.7,106.3 			"/>
			
				<rect x="602.2" y="-15.1" transform="matrix(2.764302e-003 1 -1 2.764302e-003 722.0089 -488.351)" class="st19" width="7.3" height="265.8"/>
			
				<rect x="602.2" y="-0.3" transform="matrix(3.484160e-003 1 -1 3.484160e-003 736.4175 -473.7378)" class="st19" width="7.3" height="265.8"/>
			<polygon class="st19" points="473.1,151.5 473.1,144.2 738.8,143.4 738.8,150.7 			"/>
			<polygon class="st19" points="473.1,166.3 473.1,159 738.9,158.2 738.9,165.5 			"/>
			<polygon class="st19" points="473.2,181.1 473.1,173.8 738.9,172.9 738.9,180.3 			"/>
			<polygon class="st19" points="473.2,195.9 473.2,188.6 738.9,187.7 739,195.1 			"/>
			
				<rect x="602.5" y="73.7" transform="matrix(3.122483e-003 1 -1 3.122483e-003 810.8354 -400.171)" class="st19" width="7.3" height="265.8"/>
		</g>
	</g>
	<g>
		<defs>
			<polygon id="SVGID_59_" points="1258.2,201.1 1211.2,161.6 1164.2,201.1 1164.2,75.9 1258.2,75.9 			"/>
		</defs>
		<clipPath id="SVGID_60_">
			<use xlink:href="#SVGID_59_"  style="overflow:visible;"/>
		</clipPath>
		<g class="st20">
			
				<rect x="1198.7" y="-74.9" transform="matrix(3.486513e-003 1 -1 3.486513e-003 1256.1542 -1144.5342)" class="st19" width="7.3" height="265.8"/>
			
				<rect x="1198.7" y="-60.1" transform="matrix(3.124859e-003 1 -1 3.124859e-003 1271.4246 -1129.8109)" class="st19" width="7.3" height="265.8"/>
			
				<rect x="1198.8" y="-45.3" transform="matrix(3.124985e-003 1 -1 3.124985e-003 1286.2682 -1115.1074)" class="st19" width="7.3" height="265.8"/>
			
				<rect x="1198.8" y="-30.5" transform="matrix(3.123733e-003 1 -1 3.123733e-003 1301.1108 -1100.4011)" class="st19" width="7.3" height="265.8"/>
			<polygon class="st19" points="1069.7,121.2 1069.6,113.9 1335.4,113.1 1335.4,120.4 			"/>
			
				<rect x="1198.9" y="-0.9" transform="matrix(2.724240e-003 1 -1 2.724240e-003 1331.2708 -1070.9456)" class="st19" width="7.3" height="265.8"/>
			<polygon class="st19" points="1069.7,150.8 1069.7,143.5 1335.5,142.7 1335.5,150 			"/>
			<polygon class="st19" points="1069.8,165.6 1069.8,158.3 1335.5,157.5 1335.6,164.8 			"/>
			<polygon class="st19" points="1069.8,180.4 1069.8,173.1 1335.6,172.3 1335.6,179.6 			"/>
			<polygon class="st19" points="1069.9,195.2 1069.9,187.9 1335.6,187.1 1335.6,194.4 			"/>
			<polygon class="st19" points="1069.9,210 1069.9,202.7 1335.7,201.9 1335.7,209.2 			"/>
			
				<rect x="1199.2" y="87.9" transform="matrix(3.124851e-003 1 -1 3.124851e-003 1419.8329 -982.7757)" class="st19" width="7.3" height="265.8"/>
		</g>
	</g>
	<g>
		<defs>
			<polygon id="SVGID_61_" points="1722.9,201.1 1676,161.6 1629,201.1 1629,75.9 1722.9,75.9 			"/>
		</defs>
		<clipPath id="SVGID_62_">
			<use xlink:href="#SVGID_61_"  style="overflow:visible;"/>
		</clipPath>
		<g class="st21">
			
				<rect x="1707.6" y="-71.6" transform="matrix(3.524207e-003 1 -1 3.524207e-003 1766.5322 -1650.1128)" class="st19" width="7.3" height="265.8"/>
			
				<rect x="1707.6" y="-56.8" transform="matrix(3.124859e-003 1 -1 3.124859e-003 1782.051 -1635.3871)" class="st19" width="7.3" height="265.8"/>
			
				<rect x="1707.7" y="-42" transform="matrix(3.124859e-003 1 -1 3.124859e-003 1796.895 -1620.6835)" class="st19" width="7.3" height="265.8"/>
			
				<rect x="1707.7" y="-27.2" transform="matrix(3.123608e-003 1 -1 3.123608e-003 1811.7384 -1605.9769)" class="st19" width="7.3" height="265.8"/>
			<polygon class="st19" points="1578.5,124.6 1578.5,117.3 1844.3,116.4 1844.3,123.8 			"/>
			<polygon class="st19" points="1578.6,139.4 1578.6,132.1 1844.3,131.2 1844.4,138.6 			"/>
			<polygon class="st19" points="1578.6,154.2 1578.6,146.9 1844.4,146 1844.4,153.4 			"/>
			<polygon class="st19" points="1578.7,169 1578.7,161.6 1844.4,160.8 1844.4,168.1 			"/>
			<polygon class="st19" points="1578.7,183.8 1578.7,176.4 1844.5,175.6 1844.5,182.9 			"/>
			<polygon class="st19" points="1578.8,198.6 1578.7,191.2 1844.5,190.4 1844.5,197.7 			"/>
			<polygon class="st19" points="1578.8,213.3 1578.8,206 1844.6,205.2 1844.6,212.5 			"/>
			
				<rect x="1708.1" y="91.2" transform="matrix(3.162514e-003 1 -1 3.162514e-003 1930.395 -1488.36)" class="st19" width="7.3" height="265.8"/>
		</g>
	</g>
	<g>
		<defs>
			<polygon id="SVGID_63_" points="2187.7,201.1 2140.8,161.6 2093.8,201.1 2093.8,75.9 2187.7,75.9 			"/>
		</defs>
		<clipPath id="SVGID_64_">
			<use xlink:href="#SVGID_63_"  style="overflow:visible;"/>
		</clipPath>
		<g class="st22">
			
				<rect x="2126.9" y="-71.6" transform="matrix(3.524207e-003 1 -1 3.524207e-003 2184.3567 -2069.4182)" class="st19" width="7.3" height="265.8"/>
			
				<rect x="2126.9" y="-56.8" transform="matrix(3.124859e-003 1 -1 3.124859e-003 2200.0432 -2054.6929)" class="st19" width="7.3" height="265.8"/>
			
				<rect x="2127" y="-42" transform="matrix(3.124859e-003 1 -1 3.124859e-003 2214.887 -2039.9895)" class="st19" width="7.3" height="265.8"/>
			
				<rect x="2127" y="-27.2" transform="matrix(3.123608e-003 1 -1 3.123608e-003 2229.731 -2025.283)" class="st19" width="7.3" height="265.8"/>
			<polygon class="st19" points="1997.9,124.6 1997.8,117.3 2263.6,116.4 2263.6,123.8 			"/>
			<polygon class="st19" points="1997.9,139.4 1997.9,132.1 2263.6,131.2 2263.7,138.6 			"/>
			<polygon class="st19" points="1997.9,154.2 1997.9,146.8 2263.7,146 2263.7,153.3 			"/>
			<polygon class="st19" points="1998,169 1998,161.6 2263.7,160.8 2263.7,168.1 			"/>
			<polygon class="st19" points="1998,183.7 1998,176.4 2263.8,175.6 2263.8,182.9 			"/>
			<polygon class="st19" points="1998.1,198.6 1998.1,191.2 2263.8,190.4 2263.8,197.7 			"/>
			<polygon class="st19" points="1998.1,213.3 1998.1,206 2263.9,205.2 2263.9,212.5 			"/>
			
				<rect x="2127.4" y="91.2" transform="matrix(3.162388e-003 1 -1 3.162388e-003 2348.3716 -1907.6658)" class="st19" width="7.3" height="265.8"/>
		</g>
	</g>
	<g>
		<defs>
			<polygon id="SVGID_65_" points="2652.5,201.1 2605.5,161.6 2558.6,201.1 2558.6,75.9 2652.5,75.9 			"/>
		</defs>
		<clipPath id="SVGID_66_">
			<use xlink:href="#SVGID_65_"  style="overflow:visible;"/>
		</clipPath>
		<g class="st23">
			
				<rect x="2565.6" y="-75.8" transform="matrix(3.524207e-003 1 -1 3.524207e-003 2617.322 -2512.3347)" class="st19" width="7.3" height="265.8"/>
			
				<rect x="2565.6" y="-61" transform="matrix(3.124859e-003 1 -1 3.124859e-003 2633.1836 -2497.6116)" class="st19" width="7.3" height="265.8"/>
			
				<rect x="2565.7" y="-46.2" transform="matrix(3.117644e-003 1 -1 3.117644e-003 2648.0459 -2482.9077)" class="st19" width="7.3" height="265.8"/>
			
				<rect x="2565.7" y="-31.4" transform="matrix(3.163654e-003 1 -1 3.163654e-003 2662.769 -2468.2056)" class="st19" width="7.3" height="265.8"/>
			<polygon class="st19" points="2436.6,120.4 2436.5,113 2702.3,112.2 2702.3,119.5 			"/>
			<polygon class="st19" points="2436.6,135.2 2436.6,127.8 2702.4,127 2702.4,134.3 			"/>
			<polygon class="st19" points="2436.7,149.9 2436.6,142.6 2702.4,141.8 2702.4,149.1 			"/>
			<polygon class="st19" points="2436.7,164.7 2436.7,157.4 2702.4,156.6 2702.5,163.9 			"/>
			<polygon class="st19" points="2436.8,179.5 2436.7,172.2 2702.5,171.4 2702.5,178.7 			"/>
			<polygon class="st19" points="2436.8,194.3 2436.8,187 2702.5,186.2 2702.6,193.5 			"/>
			<polygon class="st19" points="2436.8,209.1 2436.8,201.8 2702.6,201 2702.6,208.3 			"/>
			
				<rect x="2566.1" y="87" transform="matrix(3.122358e-003 1 -1 3.122358e-003 2781.5984 -2350.5757)" class="st19" width="7.3" height="265.8"/>
		</g>
	</g>
	<g>
		<defs>
			<polygon id="SVGID_67_" points="2497.6,201.1 2450.6,161.6 2403.6,201.1 2403.6,75.9 2497.6,75.9 			"/>
		</defs>
		<clipPath id="SVGID_68_">
			<use xlink:href="#SVGID_67_"  style="overflow:visible;"/>
		</clipPath>
		<g class="st24">
			
				<rect x="2391.2" y="-55.7" transform="matrix(0.6571 0.7538 -0.7538 0.6571 879.2311 -1778.6775)" class="st25" width="7.3" height="265.8"/>
			<polygon class="st25" points="2306.8,178.4 2302,172.9 2502.3,-1.8 2507.1,3.7 			"/>
			
				<rect x="2410.6" y="-33.4" transform="matrix(0.6573 0.7536 -0.7536 0.6573 902.263 -1785.3329)" class="st25" width="7.3" height="265.8"/>
			
				<rect x="2420.3" y="-22.3" transform="matrix(0.6574 0.7536 -0.7536 0.6574 913.8768 -1788.7416)" class="st25" width="7.3" height="265.8"/>
			<polygon class="st25" points="2336,211.9 2331.2,206.3 2531.5,31.7 2536.3,37.2 			"/>
			<polygon class="st25" points="2345.7,223 2340.9,217.5 2541.2,42.8 2546,48.3 			"/>
			<polygon class="st25" points="2355.4,234.2 2350.6,228.6 2550.9,54 2555.7,59.5 			"/>
			<polygon class="st25" points="2365.1,245.3 2360.3,239.8 2560.6,65.1 2565.5,70.6 			"/>
			
				<rect x="2469" y="33.5" transform="matrix(0.6567 0.7541 -0.7541 0.6567 974.201 -1807.5297)" class="st25" width="7.3" height="265.8"/>
			<polygon class="st25" points="2384.6,267.6 2379.8,262.1 2580.1,87.4 2584.9,92.9 			"/>
			
				<rect x="2488.4" y="55.8" transform="matrix(0.6573 0.7536 -0.7536 0.6573 996.1494 -1813.387)" class="st25" width="7.3" height="265.8"/>
			<polygon class="st25" points="2404.1,289.9 2399.2,284.4 2599.5,109.7 2604.4,115.2 			"/>
		</g>
	</g>
	<g>
		<defs>
			<polygon id="SVGID_69_" points="2032.8,201.1 1985.8,161.6 1938.9,201.1 1938.9,75.9 2032.8,75.9 			"/>
		</defs>
		<clipPath id="SVGID_70_">
			<use xlink:href="#SVGID_69_"  style="overflow:visible;"/>
		</clipPath>
		<g class="st26">
			
				<rect x="1942.6" y="-67.8" transform="matrix(0.6571 0.7538 -0.7538 0.6571 716.3439 -1444.6704)" class="st25" width="7.3" height="265.8"/>
			<polygon class="st25" points="1858.2,166.4 1853.4,160.8 2053.7,-13.8 2058.5,-8.3 			"/>
			
				<rect x="1962" y="-45.5" transform="matrix(0.6573 0.7536 -0.7536 0.6573 739.4173 -1451.3612)" class="st25" width="7.3" height="265.8"/>
			
				<rect x="1971.7" y="-34.3" transform="matrix(0.6574 0.7536 -0.7536 0.6574 751.1351 -1454.8529)" class="st25" width="7.3" height="265.8"/>
			<polygon class="st25" points="1887.4,199.8 1882.6,194.3 2082.9,19.6 2087.7,25.1 			"/>
			<polygon class="st25" points="1897.1,211 1892.3,205.4 2092.6,30.8 2097.4,36.3 			"/>
			<polygon class="st25" points="1906.8,222.1 1902,216.6 2102.3,41.9 2107.1,47.4 			"/>
			<polygon class="st25" points="1916.5,233.3 1911.7,227.7 2112,53.1 2116.9,58.6 			"/>
			
				<rect x="2020.4" y="21.4" transform="matrix(0.6567 0.7541 -0.7541 0.6567 811.1288 -1473.3698)" class="st25" width="7.3" height="265.8"/>
			<polygon class="st25" points="1936,255.6 1931.2,250 2131.5,75.4 2136.3,80.9 			"/>
			
				<rect x="2039.8" y="43.7" transform="matrix(0.6573 0.7536 -0.7536 0.6573 833.3007 -1479.4156)" class="st25" width="7.3" height="265.8"/>
			<polygon class="st25" points="1955.4,277.9 1950.6,272.3 2150.9,97.7 2155.8,103.2 			"/>
		</g>
	</g>
	<g>
		<defs>
			<polygon id="SVGID_71_" points="1568,201.1 1521,161.6 1474.1,201.1 1474.1,75.9 1568,75.9 			"/>
		</defs>
		<clipPath id="SVGID_72_">
			<use xlink:href="#SVGID_71_"  style="overflow:visible;"/>
		</clipPath>
		<g class="st27">
			
				<rect x="1478" y="-64.7" transform="matrix(0.6571 0.7538 -0.7538 0.6571 559.4203 -1093.4207)" class="st25" width="7.3" height="265.8"/>
			<polygon class="st25" points="1393.6,169.5 1388.8,163.9 1589.1,-10.7 1593.9,-5.2 			"/>
			
				<rect x="1497.4" y="-42.4" transform="matrix(0.6573 0.7536 -0.7536 0.6573 582.5566 -1100.1696)" class="st25" width="7.3" height="265.8"/>
			
				<rect x="1507.1" y="-31.2" transform="matrix(0.6574 0.7536 -0.7536 0.6574 594.2449 -1103.6394)" class="st25" width="7.3" height="265.8"/>
			<polygon class="st25" points="1422.8,202.9 1418,197.4 1618.3,22.7 1623.1,28.2 			"/>
			<polygon class="st25" points="1432.5,214.1 1427.7,208.5 1628,33.9 1632.8,39.4 			"/>
			<polygon class="st25" points="1442.2,225.2 1437.4,219.7 1637.7,45 1642.5,50.5 			"/>
			<polygon class="st25" points="1451.9,236.4 1447.1,230.8 1647.4,56.2 1652.2,61.7 			"/>
			<polygon class="st25" points="1461.7,247.5 1456.9,242 1657.2,67.3 1662,72.8 			"/>
			<polygon class="st25" points="1471.4,258.7 1466.6,253.2 1666.9,78.5 1671.7,84 			"/>
			
				<rect x="1575.2" y="46.8" transform="matrix(0.6573 0.7536 -0.7536 0.6573 676.4363 -1128.2217)" class="st25" width="7.3" height="265.8"/>
			<polygon class="st25" points="1490.8,281 1486,275.5 1686.3,100.8 1691.1,106.3 			"/>
		</g>
	</g>
	<g>
		<defs>
			<polygon id="SVGID_73_" points="1103.2,201.1 1056.3,161.6 1009.3,201.1 1009.3,75.9 1103.2,75.9 			"/>
		</defs>
		<clipPath id="SVGID_74_">
			<use xlink:href="#SVGID_73_"  style="overflow:visible;"/>
		</clipPath>
		<g class="st28">
			
				<rect x="1014.4" y="-68.2" transform="matrix(0.6571 0.7538 -0.7538 0.6571 397.8468 -745.1893)" class="st25" width="7.3" height="265.8"/>
			<polygon class="st25" points="930,166 925.2,160.5 1125.5,-14.2 1130.3,-8.7 			"/>
			
				<rect x="1033.8" y="-45.9" transform="matrix(0.6573 0.7536 -0.7536 0.6573 421.1052 -752.0405)" class="st25" width="7.3" height="265.8"/>
			
				<rect x="1043.6" y="-34.7" transform="matrix(0.6574 0.7536 -0.7536 0.6574 432.787 -755.5072)" class="st25" width="7.3" height="265.8"/>
			<polygon class="st25" points="959.2,199.4 954.4,193.9 1154.7,19.2 1159.5,24.7 			"/>
			<polygon class="st25" points="968.9,210.6 964.1,205.1 1164.4,30.4 1169.2,35.9 			"/>
			<polygon class="st25" points="978.6,221.7 973.8,216.2 1174.1,41.5 1178.9,47.1 			"/>
			<polygon class="st25" points="988.4,232.9 983.6,227.4 1183.9,52.7 1188.7,58.2 			"/>
			
				<rect x="1092.2" y="21.1" transform="matrix(0.6567 0.7541 -0.7541 0.6567 492.2358 -773.5463)" class="st25" width="7.3" height="265.8"/>
			<polygon class="st25" points="1007.8,255.2 1003,249.7 1203.3,75 1208.1,80.5 			"/>
			
				<rect x="1111.6" y="43.4" transform="matrix(0.6573 0.7536 -0.7536 0.6573 514.9918 -780.0945)" class="st25" width="7.3" height="265.8"/>
			<polygon class="st25" points="1027.3,277.5 1022.5,272 1222.8,97.3 1227.6,102.8 			"/>
		</g>
	</g>
	<g>
		<defs>
			<polygon id="SVGID_75_" points="793.4,201.1 746.4,161.6 699.4,201.1 699.4,75.9 793.4,75.9 			"/>
		</defs>
		<clipPath id="SVGID_76_">
			<use xlink:href="#SVGID_75_"  style="overflow:visible;"/>
		</clipPath>
		<g class="st29">
			
				<rect x="708.5" y="-68.2" transform="matrix(0.6571 0.7538 -0.7538 0.6571 292.9334 -514.5786)" class="st25" width="7.3" height="265.8"/>
			<polygon class="st25" points="624.1,166 619.3,160.4 819.6,-14.2 824.4,-8.7 			"/>
			
				<rect x="727.9" y="-45.9" transform="matrix(0.6573 0.7536 -0.7536 0.6573 316.2677 -521.4938)" class="st25" width="7.3" height="265.8"/>
			
				<rect x="737.6" y="-34.7" transform="matrix(0.6574 0.7536 -0.7536 0.6574 327.9648 -524.9739)" class="st25" width="7.3" height="265.8"/>
			<polygon class="st25" points="653.3,199.4 648.5,193.9 848.8,19.2 853.6,24.7 			"/>
			<polygon class="st25" points="663,210.6 658.2,205.1 858.5,30.4 863.3,35.9 			"/>
			<polygon class="st25" points="672.7,221.7 667.9,216.2 868.2,41.5 873,47 			"/>
			<polygon class="st25" points="682.4,232.9 677.6,227.4 877.9,52.7 882.7,58.2 			"/>
			
				<rect x="786.3" y="21" transform="matrix(0.6567 0.7541 -0.7541 0.6567 387.2204 -542.8444)" class="st25" width="7.3" height="265.8"/>
			<polygon class="st25" points="701.9,255.2 697.1,249.7 897.4,75 902.2,80.5 			"/>
			
				<rect x="805.7" y="43.3" transform="matrix(0.6573 0.7536 -0.7536 0.6573 410.1541 -549.5479)" class="st25" width="7.3" height="265.8"/>
			<polygon class="st25" points="721.3,277.5 716.5,272 916.8,97.3 921.6,102.8 			"/>
		</g>
	</g>
</g>
</svg>
