<?xml version="1.0" encoding="utf-8"?>
<!-- Generator: Adobe Illustrator 19.0.0, SVG Export Plug-In . SVG Version: 6.00 Build 0)  -->
<svg version="1.1" id="paisaje" xmlns="http://www.w3.org/2000/svg" xmlns:xlink="http://www.w3.org/1999/xlink" x="0px" y="0px"
	 viewBox="662 -178.8 1920 1197.7" style="enable-background:new 662 -178.8 1920 1197.7;" xml:space="preserve">
<style type="text/css">
	.st0{fill:#006633;}
	.st1{fill:#009933;}
	.st2{fill:#33CC66;}
	.st3{fill:#F58045;}
	.st4{fill:#FDF385;}
	.st5{fill:#F6C8DE;}
	.st6{fill:#FFFFFF;}
	.st7{fill:#FAF28A;}
	.st8{display:none;}
	.st9{display:inline;fill:#FAF28A;}
	.st10{display:inline;fill:#FDF385;}
	.st11{opacity:0.8;fill:#FFD100;enable-background:new    ;}
	.st12{fill:#ED75A8;}
	.st13{fill:#9CBE1C;}
	.st14{fill:#EA7831;}
	.st15{fill:#26231E;}
	.st16{fill:#5486C5;}
	.st17{fill:#DB9CC5;}
	.st18{fill:#E97731;}
	.st19{fill:#31A453;}
	.st20{fill:#E22B37;}
</style>
<path id="colina3_1_" class="st0" d="M662,633.3c214.1-6.1,428.2-12.2,642.4-18.2c425.1-12.1,850.2-47.5,1275.3-59.6
	c0,0-0.7,0-2.1-0.1c-6.8-0.4-29.6-1.7-64.2-4c-2.7-0.2-5.5-0.4-8.4-0.6c-157.6-10.9-530.5-41.3-784.6-99.9
	c-283.3-65.3-516.1-103.5-690.7-125.8c-225.7-28.8-354-31-367.7-31.2L662,633.3L662,633.3z"/>
<path id="colina2_1_" class="st1" d="M662,467c0,0,409.4,64,789.4-36s419.9-81.5,619.9-66.8c200,14.7,389.1-29.7,510.7-171.2v825.9
	H662L662,467L662,467z"/>
<path id="colina1_1_" class="st2" d="M662,696.7c0,0,430.7-160.2,959.3-160.5s960.7,179,960.7,179v303.6H662L662,696.7L662,696.7z"
	/>
<g id="florcitas">
	<g id="florcita19">
		<path id="XMLID_146_" class="st3" d="M1183.5,753.6c-0.6,0.4-1.2,0.7-1.8,1.1c0-0.6-0.1-1.1-0.2-1.7c-0.8-3.9-4.2-6.4-7.6-5.6
			c-3.4,0.9-5.4,4.7-4.6,8.7c0.1,0.6,0.3,1.1,0.5,1.6c-0.7-0.1-1.3-0.2-2.1-0.2c-4.9,0-9.2,2.2-9.7,5.1c-0.5,2.9,3.1,5.2,8,5.2
			c0.7,0,1.4,0,2.1-0.1c-0.4,0.5-0.8,1-1.1,1.6c-2.2,3.9-1.5,7.8,1.6,8.7s7.3-1.5,9.5-5.4c0.3-0.6,0.6-1.1,0.8-1.7
			c0.4,0.4,0.9,0.8,1.4,1.2c3.5,2.5,8.3,2.6,10.7,0.3c2.4-2.3,1.4-6.1-2.1-8.6c-0.5-0.4-1.1-0.7-1.6-0.9c0.7-0.2,1.3-0.5,1.9-0.9
			c4.4-2.4,6.6-6.2,5-8.5C1192.7,751.2,1187.8,751.2,1183.5,753.6"/>
		<path id="XMLID_145_" class="st3" d="M1178.1,767.2c-2.9,0.7-5.7-0.6-6.2-2.9c-0.5-2.4,1.5-4.9,4.4-5.7c2.9-0.7,5.7,0.6,6.2,2.9
			C1183,763.8,1181,766.3,1178.1,767.2"/>
		<path id="XMLID_144_" class="st4" d="M1176.3,758.6c-2.9,0.8-4.9,3.3-4.4,5.7s3.3,3.7,6.2,2.9c2.9-0.7,4.9-3.3,4.4-5.7
			S1179.2,757.8,1176.3,758.6"/>
	</g>
	<g id="florcita18">
		<path id="XMLID_143_" class="st5" d="M1685,810.3c-0.3,0.2-0.6,0.4-0.9,0.6c0-0.3,0-0.6-0.1-0.9c-0.4-2-2.1-3.2-3.8-2.8
			s-2.7,2.4-2.3,4.4c0.1,0.3,0.2,0.6,0.3,0.8c-0.3,0-0.7-0.1-1-0.1c-2.5,0-4.7,1.1-4.9,2.6c-0.2,1.4,1.5,2.6,4,2.6
			c0.4,0,0.7,0,1.1-0.1c-0.2,0.3-0.4,0.5-0.5,0.8c-1.1,2-0.7,3.9,0.8,4.4s3.7-0.8,4.8-2.7c0.2-0.3,0.3-0.6,0.4-0.9
			c0.2,0.2,0.4,0.4,0.7,0.6c1.8,1.2,4.2,1.3,5.4,0.1c1.2-1.2,0.7-3.1-1.1-4.3c-0.3-0.2-0.5-0.3-0.8-0.5c0.3-0.1,0.7-0.3,1-0.5
			c2.2-1.2,3.3-3.1,2.5-4.3C1689.6,809.1,1687.2,809.1,1685,810.3"/>
		<path id="XMLID_142_" class="st5" d="M1682.3,817.2c-1.5,0.4-2.9-0.3-3.1-1.5c-0.3-1.2,0.7-2.5,2.2-2.9s2.9,0.3,3.1,1.5
			S1683.7,816.8,1682.3,817.2"/>
		<path id="XMLID_141_" class="st4" d="M1681.3,812.8c-1.5,0.4-2.5,1.7-2.2,2.9s1.7,1.9,3.1,1.5c1.5-0.4,2.5-1.7,2.2-2.9
			C1684.2,813.1,1682.8,812.5,1681.3,812.8"/>
	</g>
	<g id="florcita17">
		<path id="XMLID_140_" class="st6" d="M927.7,629.6c-0.3,0.2-0.6,0.4-0.9,0.6c0-0.3,0-0.6-0.1-0.9c-0.4-2-2.1-3.2-3.8-2.8
			s-2.7,2.4-2.3,4.4c0.1,0.3,0.2,0.6,0.3,0.8c-0.3,0-0.7-0.1-1-0.1c-2.5,0-4.7,1.1-4.9,2.6c-0.2,1.4,1.5,2.6,4,2.6
			c0.4,0,0.7,0,1.1-0.1c-0.2,0.3-0.4,0.5-0.5,0.8c-1.1,2-0.7,3.9,0.8,4.4s3.7-0.8,4.8-2.7c0.2-0.3,0.3-0.6,0.4-0.9
			c0.2,0.2,0.4,0.4,0.7,0.6c1.8,1.2,4.2,1.3,5.4,0.1s0.7-3.1-1.1-4.3c-0.3-0.2-0.5-0.3-0.8-0.5c0.3-0.1,0.7-0.3,1-0.5
			c2.2-1.2,3.3-3.1,2.5-4.3C932.3,628.3,929.9,628.3,927.7,629.6"/>
		<path id="XMLID_139_" class="st6" d="M925,636.5c-1.5,0.4-2.9-0.3-3.1-1.5c-0.3-1.2,0.7-2.5,2.2-2.9s2.9,0.3,3.1,1.5
			C927.5,634.8,926.5,636.1,925,636.5"/>
		<path id="XMLID_138_" class="st4" d="M924.1,632.1c-1.5,0.4-2.5,1.7-2.2,2.9s1.7,1.9,3.1,1.5c1.5-0.4,2.5-1.7,2.2-2.9
			C927,632.3,925.5,631.7,924.1,632.1"/>
	</g>
	<g id="florcita16">
		<path id="XMLID_137_" class="st3" d="M752.7,723.3c-0.3,0.2-0.6,0.4-0.9,0.6c0-0.3,0-0.6-0.1-0.9c-0.4-2-2.1-3.2-3.8-2.8
			s-2.7,2.4-2.3,4.4c0.1,0.3,0.2,0.6,0.3,0.8c-0.3,0-0.7-0.1-1-0.1c-2.5,0-4.7,1.1-4.9,2.6c-0.2,1.4,1.5,2.6,4,2.6
			c0.4,0,0.7,0,1.1-0.1c-0.2,0.3-0.4,0.5-0.5,0.8c-1.1,2-0.7,3.9,0.8,4.4s3.7-0.8,4.8-2.7c0.2-0.3,0.3-0.6,0.4-0.9
			c0.2,0.2,0.4,0.4,0.7,0.6c1.8,1.2,4.2,1.3,5.4,0.1s0.7-3.1-1.1-4.3c-0.3-0.2-0.5-0.3-0.8-0.5c0.3-0.1,0.7-0.3,1-0.5
			c2.2-1.2,3.3-3.1,2.5-4.3C757.3,722.2,754.9,722.2,752.7,723.3"/>
		<path id="XMLID_136_" class="st3" d="M750,730.3c-1.5,0.4-2.9-0.3-3.1-1.5c-0.3-1.2,0.7-2.5,2.2-2.9s2.9,0.3,3.1,1.5
			S751.5,729.8,750,730.3"/>
		<path id="XMLID_135_" class="st4" d="M749,725.8c-1.5,0.4-2.5,1.7-2.2,2.9s1.7,1.9,3.1,1.5c1.5-0.4,2.5-1.7,2.2-2.9
			C751.9,726.2,750.5,725.5,749,725.8"/>
	</g>
	<g id="florcita15">
		<path id="XMLID_134_" class="st3" d="M1121.7,693c-0.3,0.2-0.6,0.4-0.9,0.6c0-0.3,0-0.6-0.1-0.9c-0.4-2-2.1-3.2-3.8-2.8
			s-2.7,2.4-2.3,4.4c0.1,0.3,0.2,0.6,0.3,0.8c-0.3,0-0.7-0.1-1-0.1c-2.5,0-4.7,1.1-4.9,2.6c-0.2,1.4,1.5,2.6,4,2.6
			c0.4,0,0.7,0,1.1-0.1c-0.2,0.3-0.4,0.5-0.5,0.8c-1.1,2-0.7,3.9,0.8,4.4s3.7-0.8,4.8-2.7c0.2-0.3,0.3-0.6,0.4-0.9
			c0.2,0.2,0.4,0.4,0.7,0.6c1.8,1.2,4.2,1.3,5.4,0.1c1.2-1.2,0.7-3.1-1.1-4.3c-0.3-0.2-0.5-0.3-0.8-0.5c0.3-0.1,0.7-0.3,1-0.5
			c2.2-1.2,3.3-3.1,2.5-4.3C1126.4,691.8,1123.9,691.8,1121.7,693"/>
		<path id="XMLID_133_" class="st3" d="M1119,699.8c-1.5,0.4-2.9-0.3-3.1-1.5c-0.3-1.2,0.7-2.5,2.2-2.9s2.9,0.3,3.1,1.5
			C1121.5,698.2,1120.5,699.5,1119,699.8"/>
		<path id="XMLID_132_" class="st4" d="M1118.1,695.5c-1.5,0.4-2.5,1.7-2.2,2.9s1.7,1.9,3.1,1.5c1.5-0.4,2.5-1.7,2.2-2.9
			C1121,695.8,1119.6,695.1,1118.1,695.5"/>
	</g>
	<g id="florcita14">
		<path id="XMLID_131_" class="st6" d="M1720.3,916.6c-0.3,0.2-0.6,0.4-0.9,0.6c0-0.3,0-0.6-0.1-0.9c-0.4-2-2.1-3.2-3.8-2.8
			s-2.7,2.4-2.3,4.4c0.1,0.3,0.2,0.6,0.3,0.8c-0.3,0-0.7-0.1-1-0.1c-2.5,0-4.7,1.1-4.9,2.6c-0.2,1.4,1.5,2.6,4,2.6
			c0.4,0,0.7,0,1.1-0.1c-0.2,0.3-0.4,0.5-0.5,0.8c-1.1,2-0.7,3.9,0.8,4.4s3.7-0.8,4.8-2.7c0.2-0.3,0.3-0.6,0.4-0.9
			c0.2,0.2,0.4,0.4,0.7,0.6c1.8,1.2,4.2,1.3,5.4,0.1c1.2-1.2,0.7-3.1-1.1-4.3c-0.3-0.2-0.5-0.3-0.8-0.5c0.3-0.1,0.7-0.3,1-0.5
			c2.2-1.2,3.3-3.1,2.5-4.3C1724.9,915.3,1722.5,915.4,1720.3,916.6"/>
		<path id="XMLID_130_" class="st6" d="M1717.6,923.4c-1.5,0.4-2.9-0.3-3.1-1.5c-0.3-1.2,0.7-2.5,2.2-2.9s2.9,0.3,3.1,1.5
			C1720.1,921.8,1719.1,923,1717.6,923.4"/>
		<path id="XMLID_129_" class="st4" d="M1716.7,919.1c-1.5,0.4-2.5,1.7-2.2,2.9c0.3,1.2,1.7,1.9,3.1,1.5c1.5-0.4,2.5-1.7,2.2-2.9
			C1719.6,919.4,1718.1,918.6,1716.7,919.1"/>
	</g>
	<g id="florcita13">
		<path id="XMLID_128_" class="st6" d="M1871.1,627c-0.4,0-0.7,0-1.1,0c0.2-0.2,0.3-0.5,0.4-0.8c0.7-1.9-0.1-3.9-1.7-4.4
			c-1.7-0.5-3.6,0.5-4.3,2.4c-0.1,0.3-0.2,0.6-0.2,0.8c-0.3-0.2-0.5-0.4-0.8-0.6c-2.1-1.3-4.5-1.5-5.5-0.5c-1,1.1-0.1,3,2,4.4
			c0.3,0.2,0.6,0.4,0.9,0.5c-0.3,0.1-0.6,0.2-0.9,0.4c-2,1.1-2.7,2.9-1.7,4.1c1.1,1.2,3.5,1.3,5.5,0.3c0.3-0.2,0.6-0.3,0.8-0.5
			c0.1,0.3,0.2,0.6,0.3,0.9c0.8,2,2.8,3.4,4.5,3c1.6-0.3,2.3-2.2,1.4-4.2c-0.1-0.3-0.3-0.6-0.4-0.8c0.3,0.1,0.7,0.1,1.1,0.1
			c2.5,0.2,4.5-0.9,4.4-2.3C1875.7,628.3,1873.6,627.2,1871.1,627"/>
		<path id="XMLID_127_" class="st6" d="M1865.2,631.3c-1.5-0.5-2.3-1.8-1.9-2.9c0.4-1.1,2-1.7,3.4-1.2c1.5,0.5,2.3,1.8,1.9,2.9
			S1866.6,631.8,1865.2,631.3"/>
		<path id="XMLID_126_" class="st4" d="M1866.7,627.1c-1.5-0.5-3,0.1-3.4,1.2c-0.4,1.1,0.4,2.5,1.9,2.9c1.5,0.5,3-0.1,3.4-1.2
			C1869,628.8,1868.2,627.6,1866.7,627.1"/>
	</g>
	<g id="florcita12">
		<path id="XMLID_125_" class="st3" d="M2256.5,760.3c-0.4,0-0.7,0-1.1,0c0.2-0.2,0.3-0.5,0.4-0.8c0.7-1.9-0.1-3.9-1.7-4.4
			c-1.7-0.5-3.6,0.5-4.3,2.4c-0.1,0.3-0.2,0.6-0.2,0.8c-0.3-0.2-0.5-0.4-0.8-0.6c-2.1-1.3-4.5-1.5-5.5-0.5c-1,1.1-0.1,3,2,4.4
			c0.3,0.2,0.6,0.4,0.9,0.5c-0.3,0.1-0.6,0.2-0.9,0.4c-2,1.1-2.7,2.9-1.7,4.1c1.1,1.2,3.5,1.3,5.5,0.3c0.3-0.2,0.6-0.3,0.8-0.5
			c0.1,0.3,0.2,0.6,0.3,0.9c0.8,2,2.8,3.4,4.5,3c1.6-0.3,2.3-2.2,1.4-4.2c-0.1-0.3-0.3-0.6-0.4-0.8c0.3,0.1,0.7,0.1,1.1,0.1
			c2.5,0.2,4.5-0.9,4.4-2.3C2261,761.8,2259,760.6,2256.5,760.3"/>
		<path id="XMLID_124_" class="st3" d="M2250.5,764.7c-1.5-0.5-2.3-1.8-1.9-2.9c0.4-1.1,2-1.7,3.4-1.2c1.5,0.5,2.3,1.8,1.9,2.9
			C2253.5,764.7,2252,765.2,2250.5,764.7"/>
		<path id="XMLID_123_" class="st4" d="M2252.1,760.6c-1.5-0.5-3,0.1-3.4,1.2c-0.4,1.1,0.4,2.5,1.9,2.9c1.5,0.5,3-0.1,3.4-1.2
			C2254.3,762.3,2253.5,761.1,2252.1,760.6"/>
	</g>
	<g id="florcita11">
		<path id="XMLID_119_" class="st3" d="M1769.8,862.6c-0.4,0-0.7,0-1.1,0c0.2-0.2,0.3-0.5,0.4-0.8c0.7-1.9-0.1-3.9-1.7-4.4
			c-1.7-0.5-3.6,0.5-4.3,2.4c-0.1,0.3-0.2,0.6-0.2,0.8c-0.3-0.2-0.5-0.4-0.8-0.6c-2.1-1.3-4.5-1.5-5.5-0.5c-1,1.1-0.1,3,2,4.4
			c0.3,0.2,0.6,0.4,0.9,0.5c-0.3,0.1-0.6,0.2-0.9,0.4c-2,1.1-2.7,2.9-1.7,4.1c1.1,1.2,3.5,1.3,5.5,0.3c0.3-0.2,0.6-0.3,0.8-0.5
			c0.1,0.3,0.2,0.6,0.3,0.9c0.8,2,2.8,3.4,4.5,3c1.6-0.3,2.3-2.2,1.4-4.2c-0.1-0.3-0.3-0.6-0.4-0.8c0.3,0.1,0.7,0.1,1.1,0.1
			c2.5,0.2,4.5-0.9,4.4-2.3C1774.4,864.1,1772.4,862.9,1769.8,862.6"/>
		<path id="XMLID_118_" class="st3" d="M1763.9,867c-1.5-0.5-2.3-1.8-1.9-2.9s2-1.7,3.4-1.2c1.5,0.5,2.3,1.8,1.9,2.9
			S1765.3,867.5,1763.9,867"/>
		<path id="XMLID_117_" class="st4" d="M1765.4,862.9c-1.5-0.5-3,0.1-3.4,1.2s0.4,2.5,1.9,2.9c1.5,0.5,3-0.1,3.4-1.2
			C1767.7,864.6,1766.9,863.3,1765.4,862.9"/>
	</g>
	<g id="florcita10">
		<path id="XMLID_116_" class="st6" d="M2311.8,748c-0.4,0-0.7,0-1.1,0c0.2-0.2,0.3-0.5,0.4-0.8c0.7-1.9-0.1-3.9-1.7-4.4
			c-1.7-0.5-3.6,0.5-4.3,2.4c-0.1,0.3-0.2,0.6-0.2,0.8c-0.3-0.2-0.5-0.4-0.8-0.6c-2.1-1.3-4.5-1.5-5.5-0.5c-1,1.1-0.1,3,2,4.4
			c0.3,0.2,0.6,0.4,0.9,0.5c-0.3,0.1-0.6,0.2-0.9,0.4c-2,1.1-2.7,2.9-1.7,4.1c1.1,1.2,3.5,1.3,5.5,0.3c0.3-0.2,0.6-0.3,0.8-0.5
			c0.1,0.3,0.2,0.6,0.3,0.9c0.8,2,2.8,3.4,4.5,3c1.6-0.3,2.3-2.2,1.4-4.2c-0.1-0.3-0.3-0.6-0.4-0.8c0.3,0.1,0.7,0.1,1.1,0.1
			c2.5,0.2,4.5-0.9,4.4-2.3C2316.4,749.5,2314.3,748.2,2311.8,748"/>
		<path id="XMLID_115_" class="st6" d="M2305.9,752.3c-1.5-0.5-2.3-1.8-1.9-2.9c0.4-1.1,2-1.7,3.4-1.2c1.5,0.5,2.3,1.8,1.9,2.9
			C2308.8,752.2,2307.3,752.8,2305.9,752.3"/>
		<path id="XMLID_114_" class="st4" d="M2307.4,748.2c-1.5-0.5-3,0.1-3.4,1.2c-0.4,1.1,0.4,2.5,1.9,2.9c1.5,0.5,3-0.1,3.4-1.2
			C2309.7,749.8,2308.9,748.6,2307.4,748.2"/>
	</g>
	<g id="florcita9">
		<path id="XMLID_113_" class="st5" d="M1711.5,875.8c-0.4,0-0.7,0-1.1,0c0.2-0.2,0.3-0.5,0.4-0.8c0.7-1.9-0.1-3.9-1.7-4.4
			c-1.7-0.5-3.6,0.5-4.3,2.4c-0.1,0.3-0.2,0.6-0.2,0.8c-0.3-0.2-0.5-0.4-0.8-0.6c-2.1-1.3-4.5-1.5-5.5-0.5c-1,1.1-0.1,3,2,4.4
			c0.3,0.2,0.6,0.4,0.9,0.5c-0.3,0.1-0.6,0.2-0.9,0.4c-2,1.1-2.7,2.9-1.7,4.1c1.1,1.2,3.5,1.3,5.5,0.3c0.3-0.2,0.6-0.3,0.8-0.5
			c0.1,0.3,0.2,0.6,0.3,0.9c0.8,2,2.8,3.4,4.5,3c1.6-0.3,2.3-2.2,1.4-4.2c-0.1-0.3-0.3-0.6-0.4-0.8c0.3,0.1,0.7,0.1,1.1,0.1
			c2.5,0.2,4.5-0.9,4.4-2.3C1716.1,877.3,1714,876,1711.5,875.8"/>
		<path id="XMLID_112_" class="st5" d="M1705.5,880.1c-1.5-0.5-2.3-1.8-1.9-2.9s2-1.7,3.4-1.2c1.5,0.5,2.3,1.8,1.9,2.9
			C1708.5,880.1,1707,880.6,1705.5,880.1"/>
		<path id="XMLID_111_" class="st4" d="M1707.1,876c-1.5-0.5-3,0.1-3.4,1.2s0.4,2.5,1.9,2.9c1.5,0.5,3-0.1,3.4-1.2
			S1708.5,876.5,1707.1,876"/>
	</g>
	<g id="florcita8">
		<path id="XMLID_110_" class="st3" d="M1840.5,733.5c-0.4,0-0.7,0-1.1,0c0.2-0.2,0.3-0.5,0.4-0.8c0.7-1.9-0.1-3.9-1.7-4.4
			c-1.7-0.5-3.6,0.5-4.3,2.4c-0.1,0.3-0.2,0.6-0.2,0.8c-0.3-0.2-0.5-0.4-0.8-0.6c-2.1-1.3-4.5-1.5-5.5-0.5c-1,1.1-0.1,3,2,4.4
			c0.3,0.2,0.6,0.4,0.9,0.5c-0.3,0.1-0.6,0.2-0.9,0.4c-2,1.1-2.7,2.9-1.7,4.1c1.1,1.2,3.5,1.3,5.5,0.3c0.3-0.2,0.6-0.3,0.8-0.5
			c0.1,0.3,0.2,0.6,0.3,0.9c0.8,2,2.8,3.4,4.5,3c1.6-0.3,2.3-2.2,1.4-4.2c-0.1-0.3-0.3-0.6-0.4-0.8c0.3,0.1,0.7,0.1,1.1,0.1
			c2.5,0.2,4.5-0.9,4.4-2.3C1845.1,735,1843,733.7,1840.5,733.5"/>
		<path id="XMLID_109_" class="st3" d="M1834.5,737.8c-1.5-0.5-2.3-1.8-1.9-2.9c0.4-1.1,2-1.7,3.4-1.2c1.5,0.5,2.3,1.8,1.9,2.9
			C1837.5,737.8,1836,738.3,1834.5,737.8"/>
		<path id="XMLID_108_" class="st4" d="M1836.1,733.7c-1.5-0.5-3,0.1-3.4,1.2c-0.4,1.1,0.4,2.5,1.9,2.9c1.5,0.5,3-0.1,3.4-1.2
			S1837.5,734.2,1836.1,733.7"/>
	</g>
	<g id="florcita7">
		<path id="XMLID_107_" class="st3" d="M1795.1,739.3c-0.4,0-0.7,0-1.1,0c0.2-0.2,0.3-0.5,0.4-0.8c0.7-1.9-0.1-3.9-1.7-4.4
			c-1.7-0.5-3.6,0.5-4.3,2.4c-0.1,0.3-0.2,0.6-0.2,0.8c-0.3-0.2-0.5-0.4-0.8-0.6c-2.1-1.3-4.5-1.5-5.5-0.5c-1,1.1-0.1,3,2,4.4
			c0.3,0.2,0.6,0.4,0.9,0.5c-0.3,0.1-0.6,0.2-0.9,0.4c-2,1.1-2.7,2.9-1.7,4.1c1.1,1.2,3.5,1.3,5.5,0.3c0.3-0.2,0.6-0.3,0.8-0.5
			c0.1,0.3,0.2,0.6,0.3,0.9c0.8,2,2.8,3.4,4.5,3c1.6-0.3,2.3-2.2,1.4-4.2c-0.1-0.3-0.3-0.6-0.4-0.8c0.3,0.1,0.7,0.1,1.1,0.1
			c2.5,0.2,4.5-0.9,4.4-2.3C1799.7,740.8,1797.6,739.6,1795.1,739.3"/>
		<path id="XMLID_106_" class="st3" d="M1789.1,743.7c-1.5-0.5-2.3-1.8-1.9-2.9c0.4-1.1,2-1.7,3.4-1.2c1.5,0.5,2.3,1.8,1.9,2.9
			C1792.1,743.7,1790.6,744.2,1789.1,743.7"/>
		<path id="XMLID_105_" class="st4" d="M1790.7,739.6c-1.5-0.5-3,0.1-3.4,1.2c-0.4,1.1,0.4,2.5,1.9,2.9c1.5,0.5,3-0.1,3.4-1.2
			C1793,741.3,1792.1,740,1790.7,739.6"/>
	</g>
	<g id="florcita6">
		<path id="XMLID_104_" class="st5" d="M2354.2,750.1c-0.7,0.2-1.3,0.4-1.9,0.7c0.1-0.5,0.2-1.1,0.2-1.6c0.1-3.8-2.5-6.9-5.8-6.9
			c-3.3,0-6.1,3.2-6.2,7c0,0.6,0,1.1,0.1,1.6c-0.6-0.2-1.2-0.4-1.9-0.6c-4.5-1.1-9.1,0-10.2,2.5c-1.1,2.5,1.7,5.5,6.2,6.7
			c0.7,0.2,1.3,0.3,2,0.4c-0.5,0.4-0.9,0.8-1.4,1.3c-2.9,3.1-3.1,6.9-0.5,8.5c2.6,1.5,7.1,0.2,10-2.9c0.4-0.5,0.8-0.9,1.1-1.4
			c0.3,0.5,0.6,0.9,1,1.4c2.7,3.1,7.1,4.3,9.9,2.7c2.7-1.6,2.7-5.4,0-8.4c-0.4-0.5-0.8-0.9-1.3-1.2c0.7-0.1,1.3-0.2,2-0.4
			c4.6-1.2,7.5-4.3,6.6-6.8C2363.3,749.8,2358.8,748.8,2354.2,750.1"/>
		<path id="XMLID_103_" class="st5" d="M2346.2,761.5c-2.9,0-5.2-1.8-5.1-4.1s2.5-4.2,5.4-4.3c2.9,0,5.2,1.8,5.1,4.1
			C2351.4,759.5,2349,761.3,2346.2,761.5"/>
		<path id="XMLID_102_" class="st4" d="M2346.4,753.1c-2.9,0-5.3,1.9-5.4,4.3c-0.1,2.3,2.2,4.2,5.1,4.1c2.9,0,5.3-1.9,5.4-4.3
			C2351.6,754.8,2349.3,753,2346.4,753.1"/>
	</g>
	<g id="florcita5">
		<path id="XMLID_101_" class="st3" d="M841.6,735.2c-0.5,0.4-1,0.8-1.4,1.2c-0.1-0.5-0.2-1-0.4-1.5c-1.2-3.4-4.6-5.1-7.4-4
			c-2.9,1.2-4.2,4.9-3,8.2c0.2,0.5,0.4,1,0.7,1.4c-0.6,0-1.2,0-1.8,0.1c-4.3,0.6-7.9,3.1-8,5.7c-0.1,2.6,3.4,4.2,7.7,3.6
			c0.6-0.1,1.3-0.2,1.8-0.4c-0.3,0.5-0.5,1-0.8,1.6c-1.4,3.7-0.3,7.1,2.5,7.5s6.3-2.3,7.7-6c0.2-0.5,0.4-1.1,0.5-1.6
			c0.4,0.3,0.9,0.6,1.4,0.9c3.4,1.7,7.7,1.2,9.5-1.1s0.5-5.6-2.9-7.3c-0.5-0.3-1-0.5-1.6-0.6c0.5-0.3,1.1-0.6,1.6-1
			c3.6-2.7,5.1-6.3,3.4-8.2C849.5,731.8,845.2,732.6,841.6,735.2"/>
		<path id="XMLID_100_" class="st3" d="M838.6,747.8c-2.5,1-5.1,0.2-5.9-1.8c-0.7-2,0.7-4.5,3.2-5.5s5.1-0.2,5.9,1.8
			C842.5,744.3,841.1,746.8,838.6,747.8"/>
		<path id="XMLID_99_" class="st4" d="M835.9,740.5c-2.5,1-3.9,3.5-3.2,5.5s3.4,2.9,5.9,1.8c2.5-1,3.9-3.5,3.2-5.6
			C841,740.3,838.4,739.5,835.9,740.5"/>
	</g>
	<g id="florcita4">
		<path id="XMLID_98_" class="st7" d="M950.4,819.8c-0.8,0.2-1.5,0.6-2.2,0.9c0.1-0.6,0.2-1.3,0.2-2c-0.1-4.6-3.3-8.1-7.3-7.9
			s-7.1,4.1-7,8.7c0,0.7,0.1,1.3,0.2,1.9c-0.7-0.3-1.5-0.5-2.3-0.6c-5.4-1.1-10.8,0.5-12,3.5c-1.2,3.1,2.3,6.5,7.7,7.6
			c0.8,0.2,1.6,0.3,2.4,0.3c-0.6,0.5-1.1,1-1.6,1.6c-3.3,3.9-3.4,8.4-0.1,10.1c3.2,1.7,8.5-0.1,11.8-4c0.5-0.6,0.9-1.2,1.2-1.7
			c0.4,0.6,0.8,1.1,1.3,1.6c3.4,3.5,8.7,4.7,11.9,2.7s3-6.5-0.4-10.1c-0.5-0.5-1-1-1.6-1.4c0.8-0.1,1.6-0.3,2.4-0.6
			c5.4-1.7,8.8-5.5,7.5-8.4C961.2,819.2,955.8,818.2,950.4,819.8"/>
		<path id="XMLID_97_" class="st7" d="M941.4,833.8c-3.5,0.2-6.3-1.9-6.3-4.7s2.7-5.2,6.2-5.3c3.5-0.2,6.3,1.9,6.3,4.7
			S944.8,833.7,941.4,833.8"/>
		<path id="XMLID_96_" class="st4" d="M941.2,823.8c-3.5,0.2-6.2,2.6-6.2,5.3c0,2.8,2.9,4.9,6.3,4.7c3.5-0.2,6.2-2.6,6.2-5.3
			C947.5,825.7,944.7,823.7,941.2,823.8"/>
	</g>
	<g id="florcita3">
		<path id="XMLID_95_" class="st3" d="M1471.7,812.3c-0.8,0.1-1.6,0.2-2.4,0.4c0.3-0.6,0.5-1.2,0.6-1.9c0.9-4.5-1.5-8.6-5.4-9.3
			c-3.9-0.6-7.8,2.5-8.7,7c-0.1,0.7-0.2,1.3-0.2,1.9c-0.6-0.4-1.3-0.8-2.1-1.1c-5.1-2.3-10.7-1.9-12.5,0.9s0.8,6.8,5.9,9.1
			c0.7,0.3,1.5,0.6,2.3,0.8c-0.6,0.3-1.3,0.7-1.9,1.2c-4.1,3.1-5.1,7.5-2.3,9.8c2.8,2.3,8.3,1.7,12.4-1.3c0.6-0.5,1.1-0.9,1.6-1.4
			c0.2,0.6,0.5,1.2,0.9,1.9c2.6,4.2,7.5,6.5,11.1,5.2c3.5-1.3,4.3-5.8,1.7-9.9c-0.4-0.6-0.8-1.2-1.3-1.7c0.8,0,1.6,0,2.4-0.1
			c5.6-0.5,9.7-3.5,9.1-6.6C1482.4,813.8,1477.3,811.8,1471.7,812.3"/>
		<path id="XMLID_94_" class="st3" d="M1459.9,824c-3.4-0.6-5.7-3.2-5.2-5.9c0.6-2.7,3.8-4.5,7.2-3.9c3.4,0.6,5.7,3.2,5.2,5.9
			C1466.5,822.8,1463.3,824.5,1459.9,824"/>
		<path id="XMLID_93_" class="st4" d="M1461.9,814.1c-3.4-0.6-6.6,1.2-7.2,3.9s1.8,5.4,5.2,5.9c3.4,0.6,6.6-1.2,7.2-3.9
			C1467.6,817.3,1465.3,814.7,1461.9,814.1"/>
	</g>
	<g id="florcita2">
		<path id="XMLID_92_" class="st5" d="M1901.3,726.7c-0.6,0.1-1.2,0.2-1.8,0.3c0.2-0.4,0.3-0.9,0.4-1.4c0.7-3.3-1.1-6.4-4-6.9
			s-5.8,1.8-6.5,5.1c-0.1,0.5-0.1,1-0.1,1.4c-0.5-0.3-1-0.6-1.5-0.8c-3.8-1.7-7.9-1.4-9.2,0.7c-1.3,2,0.6,5.1,4.4,6.7
			c0.6,0.2,1.1,0.4,1.7,0.6c-0.5,0.3-0.9,0.6-1.4,0.9c-3,2.3-3.8,5.5-1.7,7.3c2.1,1.7,6.2,1.3,9.2-1c0.4-0.3,0.8-0.7,1.2-1.1
			c0.2,0.5,0.4,0.9,0.7,1.4c1.9,3.1,5.6,4.8,8.2,3.8s3.2-4.3,1.3-7.3c-0.3-0.5-0.6-0.9-0.9-1.3c0.6,0,1.2,0,1.8,0
			c4.2-0.4,7.2-2.6,6.7-4.9C1909.2,727.8,1905.5,726.3,1901.3,726.7"/>
		<path id="XMLID_91_" class="st5" d="M1892.6,735.3c-2.5-0.4-4.2-2.4-3.8-4.4c0.4-2,2.8-3.3,5.3-2.9c2.5,0.4,4.2,2.4,3.8,4.4
			C1897.5,734.3,1895.1,735.7,1892.6,735.3"/>
		<path id="XMLID_90_" class="st4" d="M1894.1,728c-2.5-0.4-4.9,0.9-5.3,2.9s1.3,4,3.8,4.4s4.9-0.9,5.3-2.9
			C1898.3,730.3,1896.6,728.3,1894.1,728"/>
	</g>
	<g id="florcita1" class="st8">
		<path id="XMLID_89_" class="st9" d="M1877.4,816c-0.7,0.1-1.4,0.2-2,0.4c0.2-0.5,0.3-1.1,0.4-1.6c0.6-3.9-1.7-7.3-5-7.7
			s-6.5,2.4-7.1,6.3c-0.1,0.6-0.1,1.1-0.1,1.7c-0.6-0.3-1.2-0.6-1.8-0.8c-4.4-1.7-9.1-1.1-10.6,1.3c-1.4,2.4,1,5.8,5.4,7.5
			c0.6,0.3,1.3,0.5,2,0.6c-0.5,0.3-1.1,0.7-1.5,1.1c-3.3,2.8-4,6.6-1.5,8.5s7.2,1.1,10.5-1.7c0.5-0.4,0.9-0.8,1.3-1.3
			c0.2,0.5,0.5,1,0.9,1.5c2.4,3.4,6.7,5.2,9.6,3.9s3.4-5.1,1.1-8.5c-0.3-0.5-0.7-1-1.2-1.4c0.7,0,1.4-0.1,2.1-0.2
			c4.8-0.7,8.1-3.4,7.5-6C1886.6,817,1882.2,815.3,1877.4,816"/>
		<path id="XMLID_88_" class="st9" d="M1867.9,826.5c-2.9-0.3-5-2.5-4.6-4.8s3-3.9,5.9-3.6c2.9,0.3,5,2.5,4.6,4.8
			C1873.5,825.2,1870.8,826.8,1867.9,826.5"/>
		<path id="XMLID_87_" class="st10" d="M1869.2,818c-2.9-0.3-5.6,1.3-5.9,3.6c-0.4,2.3,1.7,4.5,4.6,4.8s5.6-1.3,5.9-3.6
			C1874.2,820.5,1872.1,818.3,1869.2,818"/>
	</g>
</g>
<path id="arbol2_1_" class="st1" d="M2227.6,334.5C2227.5,334.6,2227.5,334.6,2227.6,334.5 M2274.2,272.4c-1-3.1-11.9,7.8-11,7.8
	c-5.9,0.6-23-3.9-9.3,10.7c-4.9,1.2-6.1,2.1-7.8-2.6c-4.5-0.7-22.2,7.5-21.6,13c1,1.1,1.2-0.1,0.6,1.4c3-0.1,14.4,11.2,15.1,11.7
	c-0.6,0.2,0.3,1,0.4,1.2c-4.2,2.9-10.2-3.6-13.8-1.5c-3.1,1.9-4.5,10.4-4.4,10.4c-0.5,0.5-0.4,0.7,0.5,0.6
	c-2.8,5.1-9.9,7.9,5.5,11.2c4,0.9,5.6-0.1,9,0.5c3.4,6.2,4.4-3.4,11.2-1.9c0.2,2-0.1,0.5,0.1,1.2c-1.8,0.2-0.7,4.3-0.8,5.5
	c0.2,0,7.3-1,6.7,1.3c-0.8-1.3,2.3-3.3,3.8-3.4c1.2,5.5-6.3,44.5,7,36.7c10.9-6.3-5.5-30,6.3-39.4c4.3,2.6,3.5,7,8.3,9.1
	c2.4,0.1,0.6-2.8,4.9-0.9c-1.4-6,8.2-2,8.5-3.9c-1.2,0.1,3.2-14.5,9.1-16.8c0.2-3.7-11.1-7.3-13.8-10.5c1-0.1,1-0.6,0.1-1.5
	c1.6,1.1,5.5,1.9,7.2,2.3c-0.5-2.3,0.5-0.1,1.1-0.4c0.2-0.7,6.7-17.9,3.6-18.1c0.5,6.7-20.5-17.9-19.9-17.2
	C2277.1,274.5,2279.3,275.2,2274.2,272.4"/>
<path id="arbol_1_" class="st0" d="M934.5,158.4c-6.9,5.6,1.6,4.8-5.3,1.2c1.2,4.7-19.2,11.5-19.6,11.8c-5.1,5.2-3.9-8.7-8.7-2
	c2.9-3.1-9.7-6.8-12-7.6c-0.4,1.2-1,2.2-1.8,3.2c0.9,1.3,2.1,1.8,3.1,4c-0.8-0.4-3.6-3.1-4.6-1.8c3.3-0.9-8.5,13.6-10.9,15.2
	c-0.5-0.1,5.6,2.6,5.2,3.5c-1.5,2.9-5.4-1.1-2.4,5.5c-0.6-1.2-12.4,0.2-12.4,0.3c-0.4,0.4,1,2.7,1.9,2.8c-0.9,2.5-6.9,10.9-8.1,13.6
	c-1.7,0-2.2,0.3-1.4,0.9c-3.2-0.4-18.6,3.4-12.3,9.5c-2.5-1.1-6.1,0.7-7.6-1.1c1.2,5.4,3.5,7.6,3.3,12c2.9,0.3,9.8,4.3,10.8,2.7
	c-0.5,0.2-0.8,0-1-0.5c6.9,1.5-15.3,52,17.6,49.6c0.1,1.8-0.2,2-1,0.6c-6.5,0.9,18,7.6,13.1,1.6c8.2,10.1,13.3-4,16.5-3.7
	c12.7,0.9,39.9,12.7,30.8,44.8c16.3-3.2,9.6-29.1,22-41.3c4.4-4.3,8.3-6.2,12.1-1.5c2.7-0.9-6.2-1.5-4.4,0
	c1.1-0.6,23.4-2.5,15.3-6.3c6,2.8,8.1,0.8,10.8,8.4c4.8,5.2,31-2,36.3-22c3.4-12.7-7.6-14.1-4.9-28c1-4.9,16.2-5.4,14.4-15.3
	c-0.1,0-6.4-1.7-6.7-2.2c-0.6,0,7.1-1.3,5.4-3.3c-7.6,5-30.1-18.3-39.2-21.8c2.9-2.6-1.7-5.1,2.4-8.8c0.3-0.5-27.8-32.9-29.7-15.2
	c0-0.5-0.1-2.7,0.5-3.1c-2.3,1.5-3.7,6-6,7.5c-1.1-6.7-10-3.9-9.8-3.3c0,0.2-2.2-7.7-2.2-6.5C940.1,164.9,928.4,163.6,934.5,158.4"
	/>
<path id="XMLID_4618_" class="st11" d="M1169.4,84c4.1,3.4,0.5,8.8-4,8.5c-1.1-0.1-2.3-0.2-3.4-0.5c1,0.7,1.9,1.4,2.9,2.1
	c4.6,3.4-15.8,4.2-3.6,14c-2.7,4.5-0.9,9.4-5.4,6.6c-0.4,2.5-2.7,4.6-5.6,3c-12-6.3-12.2,0.8-12.2,0.8l0,0c0.2,0.2-1.8,8.4-5.2,6.2
	c-2.2-1.4-4.3-2.8-6.5-4.2c-0.9,2.1-3.4,3.7-5.9,2.5c-0.5-0.2-0.9-0.5-1.4-0.7c0.3,2.8-2.1,5.6-5.4,4c-0.4-0.2-0.7-0.4-1.1-0.5
	c0.2,2.7-2.8,5.9-5.6,4.2c-2.4-1.5-5-3-7.4-4.5c-0.9,1.4-2.7,2.2-4.3,1.4c-4.6-2-9-4.2-13.4-6.5c-0.5,0.8-1.6,1.2-2.7,0.6
	c-8.9-4.5-16.8-10.1-23.8-17.3c-1.7-1.7-0.8-3.9,0.8-4.6c-1.4-1-2.7-1.9-4-2.9c-2.1-1.4-1.3-4.3,0.4-5.6c-1.7-1.5-3.4-3-5-4.5
	c-2.4-2.2-1.2-5.2,1-6.2c-1.3-1.1-2.7-2.1-4-3.2c-3.2-2.7-0.7-6.9,2.6-6.9c-0.8-0.6-1.6-1.2-2.4-1.8c-4.3-3.4,5.9-19.9,2.4-22.7
	c-4.3-3.4,24-38.8,28.9-36.8c6.6,2.6,31.8-9.2,37.1-5.7c2.7,1.8,11.2-2.2,15.2,0.1c8.5,4.9,16.9,9.7,25.4,14.6
	c4.1,2.4,10.1,19,10.1,19c4.4,4.2,1.1,14.5,4,17.2c4.8,4.5,3.7,2.5,0.3,16.1C1175.1,79.9,1165.4,80.7,1169.4,84z M1191.8,50.8
	c-5.8,1-11.4,2.1-17.1,3.3c0.3,1.4,0.5,3,0.8,4.4c1.4,9.9,1.1,18.5-1.7,26.7c0,0.1,0,0.1,0,0.2c1.1,0.5,2.8,1,3.6,1.2
	c1.6,0.7,3.3,1.3,5,1.9c3.1,1.1,7.2,1.4,9.8,3.7c1.2,1.1,1.1,3.6-0.7,4c-3.4,0.8-6.5-0.6-9.7-1.8c-3.3-1.1-6.6-2.5-9.7-4.2
	c-0.1,0-0.2-0.1-0.2-0.1c-1.7,3.6-3.8,7.1-6.6,10.7c-2.8,3.7-5.7,7.2-8.8,10.4c1.8,2,3.7,3.9,5.6,5.6c2.2,2,6.1,4,6.9,6.9
	c0.3,1.2-0.3,3-1.9,3c-3.7-0.2-6.3-3.7-8.8-6.2c-1.8-1.9-3.6-3.9-5.3-6c-6.6,6.1-14.2,10.9-23.5,13.3c-1.5,0.4-3.1,0.8-4.7,1.1
	c1.1,3.1,2.1,6.2,3.8,9.1c1.6,2.7,4.5,5.1,4.7,8.4c0.1,1.3-1.1,2.7-2.5,2.3c-3.7-1-5.3-5-6.9-8.2c-1.5-3.4-2.7-7.2-3-10.9
	c-10.1,1.6-21.3,1.7-31.2-0.1c-0.3,3.1-0.7,6.2-1.1,9.3c-0.3,2.4-1.1,5.2-1.2,7.8c0.6,0.5,0.9,1.3,0.8,2.3c-0.5,4-6,3.4-6.8-0.2
	c-0.7-3,1.2-7.2,1.9-10.1c0.8-3.4,1.5-6.7,2.4-10c-1.6-0.4-3.1-0.8-4.6-1.4c-7.7-2.6-14.7-7.1-20.6-12.8c-0.5,1.5-0.9,3-1.9,4.5
	c-1.1,1.6-2.2,3.1-3.5,4.6c-2.3,2.6-5.3,6.5-9,6.9c-1.8,0.2-3.1-1.8-2.4-3.4c1.4-3,5.3-4.9,7.7-7.2c1.3-1.3,2.5-2.7,3.8-4
	c1.1-1.1,2.4-2.1,3.4-3.2c-2.9-3-5.5-6.4-7.8-9.8c-2.9-4.6-5.3-9.4-7.1-14.6c-2.7,2.3-5.4,4.2-8.8,5.7c-3.6,1.5-7.8,3.6-11.7,2.9
	c-2-0.3-2.6-3.1-0.9-4.3c3.1-2.1,7.3-2.4,10.8-3.7c3.2-1.1,6.6-2.2,9.8-3.4c-3.1-10.3-4-21.3-2.3-31.9c-0.3,0.2-0.8,0.5-1.2,0.4
	c-4.2-0.4-8.2-1.1-12.3-1.9c-3.4-0.6-7.4-0.5-10-3c-1.1-1-0.9-2.9,0.6-3.4c3.7-1.2,7.5,0.7,11,1.7c3.9,1.1,7.8,2.1,11.7,3.6
	c0.3,0.1,0.5,0.2,0.6,0.4c1.5-7.9,4.6-15.6,9.1-22.5c1.3-2.1,2.8-4,4.5-5.9c-3.8-1.2-7.3-3.1-10.8-5c-2.8-1.5-7.8-3.4-8.6-6.9
	c-0.3-1.4,0.3-2.7,1.8-2.9c3.6-0.5,6.9,3.1,9.8,5c3.3,2.1,6.9,3.8,10.1,6c0.2,0.2,0.5,0.4,0.5,0.7c5.8-6.1,13-11.5,20.9-15.4
	c-4-5.1-7.8-10.8-11.1-16.4c-1.9-3.2,2.7-6.6,4.8-3.4c3.7,5.7,7.2,11.9,10,18.1c9.8-4.3,20.4-6.2,30.5-4.6
	c-0.2-3.8-0.2-7.7-0.2-11.5c0-3.4-0.3-6.9,0.8-10.1c0.5-1.6,3.2-1.4,3.7,0.2c1.1,3.6,0.5,7.5,0.3,11.2c-0.2,3.4-0.3,6.7-0.5,10.1
	c8.2-0.6,15.5,0.8,21.9,3.7c1.4-3.4,2.9-6.6,4.5-9.9c1.4-3.1,2.7-6.7,5-9.4c1.3-1.6,4.3-0.4,3.7,1.8c-1,3.6-3.3,6.9-5.2,10.1
	c-1.8,3-3.4,5.9-5.3,8.8c8,4.2,14.6,10.7,20,18.3c2.4-2.8,5.2-5.3,7.9-7.8c2.2-2.1,4.6-5.4,7.7-5.6c1.1-0.1,2.1,0.9,1.9,2.1
	c-0.6,3.2-4.1,5-6.5,6.9c-3,2.4-6.1,4.9-9.4,6.9c5.3,8.2,9,17.8,11.2,27.3c5.5-2.4,11.6-4.2,17.4-5.1
	C1194.7,44.9,1195.1,50.3,1191.8,50.8z M1168.2,51.9c-5.3-25.3-23.5-50.5-52-48.6c-0.5,0-0.9,0-1.2-0.2c-11.9,0.3-22.9,1.1-34.1,6.4
	c-12,5.6-22.3,15.1-28.6,26.8c-10.9,20.6-8.2,46.9,5.2,65.7c7.8,10.9,19.2,19.2,32.5,21.4c13.6,2.3,30.8,2,43.7-3.1
	c6.5-2.5,12.1-6.7,17-11.5c0.1-0.1,0.2-0.2,0.2-0.2c4.4-4.4,8.4-9.4,12-14.5C1172,81.3,1171.3,66.9,1168.2,51.9z M1079.6,59.9
	c-2.5-2.6-6-4.1-9.7-3.5c-6.8,1.1-11.1,9.7-7.2,15.6c1.1,1.7,3.2,0.2,2.8-1.5c-1-4,1-9.4,5.6-9.8c2.2-0.2,4.3,1.1,5.6,2.8
	c1.4,1.8,1.1,3.7,1.7,5.8c0.5,1.8,2.8,1.5,3.6,0.2C1083.9,66.6,1081.8,62.3,1079.6,59.9z M1148,47.1c-6.4,0.5-10.9,8.1-7.9,13.9
	c1.1,2.1,4.3,1.1,3.6-1.4c-0.9-3.2,1-7.6,4.6-7.8c4-0.2,5.4,3.7,6,6.8c0.3,1.8,2.7,2.5,3.6,0.7C1160.9,53.3,1153.9,46.7,1148,47.1z
	 M1116.2,74c-3.5,4-9.4,5-13.6,1.3c-1.1-1-2.9,0.6-1.9,1.8c4.6,5.9,14.8,5.8,18.7-1C1120.5,74.2,1117.5,72.4,1116.2,74z"/>
<g id="XMLID_1909_">
	<path id="XMLID_2141_" class="st12" d="M2143.5,204.6c-1.4-2.6-3-4.7-5.1-6.7c-1.3-1.3-3.3,0.9-1.9,2.2c0.1,0.1,0.2,0.2,0.4,0.4
		c-0.8-0.5-1.7-0.9-2.5-1.3c-1-0.5-2.3,0.8-1.5,1.8c1,1.3,2.1,2.5,3.1,3.8c-1.7-1-3.4-2-5-3.1c-1.1-0.7-2,0.8-1.5,1.7
		c0.5,0.8,1,1.6,1.6,2.3c-1.4-0.9-2.8-1.7-4.2-2.6c-1.1-0.8-3.1,0.6-2,1.8c0.4,0.4,0.7,0.8,1.1,1.2c-1.6-1.1-3.2-2.2-4.7-3.3
		c-1-0.7-2.5,0.5-1.7,1.5c1.9,2.1,3.7,4.2,5.6,6.3c-1.8-1.3-3.6-2.7-5.2-4c-0.9-0.7-2,0.4-1.4,1.3c1.6,2.9,3.2,5.6,5.3,8.1
		c1.2,1.4,3.2,0,2.3-1.6c-0.5-0.9-1.1-1.7-1.7-2.4c2.6,1.6,5.3,3.1,7.8,4.9c1.3,0.9,2.9-0.8,1.7-2c-0.2-0.1-0.3-0.3-0.5-0.4
		c0.4,0.3,0.8,0.6,1.2,0.9c1.2,0.9,3.1-0.6,2-1.8c-0.1-0.1-0.2-0.2-0.2-0.3l0,0l0,0c-1.1-1.3-2.3-2.5-3.5-3.8
		c1.4,0.8,2.9,1.7,4.3,2.5c1.1,0.6,2.1-1,1.2-1.9c-1-0.9-2-1.9-2.9-2.9c1.6,1,3.1,1.9,4.7,2.9c1,0.6,2.1-0.8,1.4-1.7
		c-1.1-1.3-2.2-2.7-3.3-4c1,0.6,1.9,1.3,2.9,2C2142.9,207.2,2144.2,205.9,2143.5,204.6z"/>
	<path id="XMLID_2142_" class="st12" d="M2227.3,201.7c-0.7-0.8-1.3-1.6-2-2.3c1.6,0.1,2.5-2.4,0.8-3.1c-1.8-0.7-3.6-1.5-5.4-2.3
		c-1.4-0.6-2.9,1-1.9,2.3c0.4,0.5,0.7,0.9,1.1,1.4c-0.7-0.4-1.5-0.8-2.2-1.2c-1.3-0.7-2.8,1-1.9,2.2c0.6,0.7,1.1,1.5,1.7,2.2
		c-4-2.4-7.7-5.3-11.4-8.2c-1.2-1-2.7,0.8-1.6,1.9c2.1,2,4.1,4.1,6.2,6.2c-2.4-1.5-4.9-3.1-7.2-4.7c-1.1-0.7-2.4,0.7-1.4,1.6
		c2.2,2,4.5,4,6.7,5.9c-1.5-0.8-2.9-1.5-4.4-2.3c-1.1-0.6-2,1-1.1,1.8c3.8,3.7,7.8,7.2,12.3,10c0.8,0.5,1.6-0.8,0.9-1.3
		c-1.5-1.2-2.9-2.4-4.3-3.6c1.8,1,3.6,2.1,5.5,3c1.2,0.7,2.4-1.2,1.3-2.1c-0.3-0.2-0.6-0.5-0.8-0.7c0.7,0.5,1.3,0.9,2,1.4
		c1.4,1,2.9-0.8,1.7-2c-1-1.1-2.1-2.1-3.1-3.1c1.1,0.7,2.2,1.4,3.3,2c1.3,0.8,2.6-1,1.8-2.1c-0.4-0.6-0.8-1.1-1.2-1.7
		c0.9,0.5,1.8,0.9,2.7,1.4C2226.6,204.7,2228.4,202.9,2227.3,201.7z"/>
	<path id="XMLID_2143_" class="st13" d="M2179.6,188.2c-0.5-0.3-1.1-0.7-1.6-1c1.1-0.7,1.7-2.2,0.9-3.2c0.7-0.8,0.9-2.2,0.3-3.1
		c-1.1-1.6-2.3-2.5-4.1-3.4c-1.2-0.6-2.3-0.1-2.8,0.8c-1.1-0.3-2.2-0.7-3.2-1c-1.6-0.5-2.8,1.1-2.8,2.6c-0.5-0.1-0.9-0.1-1.4-0.2
		c-2.3-0.3-3.2,2.6-1.2,3.8c0.1,0.1,0.2,0.1,0.4,0.2c-0.5,0-1.1,0.1-1.6,0.2c-1.3,0.3-1.4,2.2-0.5,3c2.9,2.4,5.9,4.7,9.2,6.6
		c-0.2,0.5-0.2,1.1,0.1,1.6c-0.7,0-1.4,0-2.1,0.1c-1.3,0-1.9,1.9-0.9,2.7c0.8,0.6,1.6,1.2,2.3,1.9c-0.1,0-0.3,0-0.4,0
		c-1.3,0-2.1,1.8-1.3,2.7c0.3,0.4,0.7,0.8,1.1,1.2l0,0c-1.5-0.3-3.1,1.7-1.9,3c1.4,1.5,2.8,3,4.3,4.3c-0.7-0.1-1.5-0.1-2.2-0.2
		c-1.7-0.2-2.9,1.9-1.5,3.1c1.3,1.1,2.5,2.3,3.8,3.4c-0.4-0.1-0.9-0.1-1.3-0.2c-1.9-0.3-3.1,2.1-1.6,3.4c0.6,0.5,1.2,1,1.8,1.5
		c-0.4-0.1-0.8-0.3-1.3-0.4c-1.8-0.5-2.8,2-1.5,3.1c1.8,1.5,3.5,3.1,5.3,4.6c-1.1-0.2-2.3-0.4-3.4-0.6c-1.6-0.3-2.8,1.9-1.4,2.9
		c1.2,0.9,2.4,1.8,3.6,2.7c-0.1,0-0.3,0-0.4-0.1c-1.2-0.1-2.3,1.4-1.1,2.3c1.9,1.5,3.7,3,5.6,4.4c-1.3-0.3-2.5-0.5-3.8-0.8
		c-0.8-0.2-1.7,0.9-1,1.6c2,2.2,4,4.4,6,6.7c-0.9-0.1-1.8-0.1-2.9,0.1c-0.7,0.1-1.3,1.2-0.5,1.7c2.2,1.5,4.3,3,6.5,4.4
		c0.7,0.5,1.5-0.5,0.8-1c-1.4-1.1-2.8-2.2-4.2-3.4c0.9,0.1,1.8,0.3,2.6,0.6c0.8,0.3,1.9-0.6,1.2-1.4c-1.9-2.2-3.9-4.4-5.8-6.6
		c1.8,0.4,3.5,0.8,5.3,1.1c1.1,0.2,1.7-1.2,0.9-1.9c-1.7-1.4-3.3-2.8-4.9-4.2c0.6,0.2,1.3,0.5,1.9,0.8c1.4,0.7,2.7-1.3,1.5-2.3
		c-1.3-1.1-2.7-2.2-4.1-3.3c1,0.2,2,0.4,3.1,0.5c1.7,0.3,2.7-1.8,1.4-3c-1.2-1.1-2.5-2.2-3.7-3.3c0.6,0.2,1.2,0.4,1.8,0.6
		c1.9,0.6,3.7-1.6,2-3.1c-1.2-1.1-2.4-2.1-3.6-3.2c0.3,0,0.5,0.1,0.8,0.1c1.8,0.2,2.9-2,1.5-3.2s-2.8-2.4-4.2-3.7
		c0.8,0.1,1.6,0.2,2.3,0.3c1.8,0.2,3.1-2,1.6-3.3c-1.4-1.2-2.8-2.4-4.1-3.6c1.7,0,2.3-2.1,1.1-3.3c-0.6-0.7-1.3-1.4-2-2.1
		c0.4,0,0.7,0,1.1-0.1c1.4-0.1,2.1-2,0.9-2.9c-0.8-0.6-1.6-1.2-2.4-1.8c0.2,0,0.4,0,0.5,0c1.2,0,1.8-1.6,1.2-2.5c0.1,0,0.3,0,0.4,0
		c1.8,0,1.9-2.4,0.6-3.2c-2.2-1.3-4.4-2.6-6.5-4c2.9,1.5,5.9,3.4,8.9,3.6C2181.2,192.1,2181.1,189.1,2179.6,188.2z"/>
	<path id="XMLID_2144_" class="st14" d="M2167.3,205.9c-1-0.9-2.1-1.8-3.1-2.7c1.1-1.1,1.4-2.9-0.2-4.1c-8-6-16-11.7-25.5-14.9l0,0
		l0,0c-0.2-0.1-0.5-0.2-0.7-0.2c-1.1-0.4-2,0-2.5,0.6c-2.1-1-4.3-1.5-6.5-1.1c-0.9,0.1-1.5,0.6-1.9,1.1c-1.1-0.7-2.2-1.3-3.2-1.9
		c-2.1-1.2-4.7,1.8-3.1,3.6c-1.5-0.6-2.8,0.4-3.1,1.7c-0.9,0-1.8,0.7-2.1,1.5c-0.3-0.2-0.6-0.4-0.9-0.6c-1.8-1.2-3.8,1.2-3.1,2.9
		c-2-0.8-3.9,1.6-2.1,3.4c0.1,0.1,0.3,0.3,0.4,0.4c-1.3,0.2-2.1,2.1-1.5,3.4c0.2,0.3,0.3,0.6,0.5,0.9c-1.7-0.4-3.4,1.5-2.3,3.3
		c0.3,0.4,0.5,0.8,0.8,1.3c-0.4,0.4-0.5,1-0.1,1.6c0.1,0.2,0.2,0.3,0.3,0.5c-0.9,0.9-1.2,2.5-0.1,3.6c1,1.1,2.1,2.3,3.1,3.4
		c-1.1-0.9-2.3-1.7-3.4-2.6c-2.1-1.6-4.6,1.3-2.7,3.2c0.2,0.2,0.5,0.5,0.7,0.7c-1,0.4-1.8,1.6-0.9,2.6c4,4.8,8.4,9.1,13.5,12.8
		c0.7,0.5,1.4,0.3,1.9-0.2c2,1.6,3.9,3.2,5.9,4.8c1.5,1.2,3.1-0.1,3.2-1.5c0.1,0.1,0.2,0.1,0.3,0.2c1.2,0.9,2.8,0.4,3.6-0.6
		c1.5,0.9,3.1,1.6,4.8,1.9c1.7,0.3,3-1,3-2.5c0.3,0.2,0.5,0.3,0.8,0.5c1.9,1,4.1-1.3,3.1-3.1l0,0c2.1,1.3,4.1-1.5,3.2-3.4
		c0,0,0,0,0.1,0c2.7,1.7,4.5-2.3,2.8-4.3c-0.2-0.3-0.5-0.6-0.7-0.8c1,0.6,1.9,1.1,2.8,1.7c0.7,0.4,1.4,0.5,2,0.3
		c0.1,0.2,0.3,0.4,0.6,0.6c0.3,0.2,0.5,0.5,0.8,0.7c-2.2-0.4-4,2.6-2,4.2c0.2,0.1,0.3,0.2,0.4,0.3c-1.8,0.3-3,2.7-1.2,4.1
		c-1.9,0.1-3.3,2.5-1.4,4c0.6,0.5,1.2,1,1.8,1.6c-1.3,0.3-2.3,1.6-2,2.8c-1.3,0.6-2.1,2.4-1.1,3.6c0.6,0.7,1.1,1.3,1.7,2
		c-0.6,0.7-0.7,1.7-0.3,2.6c-1.1,0.4-2,1.4-1.8,2.6c-1.6,0.5-2.5,2.7-1,4.1l0.2,0.2c-0.2,1,0.1,2.2,1,2.8c0.8,0.5,1.6,1,2.5,1.5
		c1.4,0.8,2.8-0.5,3-1.8c0.4-0.5,0.5-1.2,0.4-1.8c0.3-0.2,0.6-0.5,0.9-0.8c2.1,0.2,3.5-2.2,2.4-4c-0.3-0.5-0.7-1-1-1.6
		c0.3-0.2,0.5-0.5,0.7-0.8c2.1,0.7,3.8-2,2.6-3.8c0,0,0-0.1-0.1-0.1c1.5-0.4,2.3-2.2,1.4-3.7c-0.4-0.6-0.8-1.2-1.3-1.8
		c1.5-0.3,2.5-1.9,1.7-3.4c1.2-0.6,1.7-2.4,1-3.6c-0.1-0.1-0.1-0.2-0.2-0.3c1.7-0.1,2.7-2.2,1.8-3.8c-0.3-0.6-0.7-1.2-1-1.7
		c2.4-0.1,3.9-3,1.9-4.9c-0.4-0.3-0.8-0.6-1.1-1c0.8-0.8,1-2.1-0.1-3.2c-0.6-0.6-1.2-1.1-1.8-1.6c2,0.7,4.5-1.4,2.9-3.5
		c-1-1.3-2.1-2.4-3.2-3.6c0.2,0,0.4,0,0.6,0C2166.9,211.7,2170,208.2,2167.3,205.9z M2143.4,205.6c-3-2-6,1.6-3.6,4.2
		c0.5,0.5,1,1,1.4,1.5c-1.9,0-3.1,2.3-2.1,4.1c0.1,0.2,0.2,0.4,0.3,0.5c-0.5-0.3-1-0.5-1.6-0.8c-2.1-1-4,1.1-3.4,3
		c-1.7-0.2-3.2,2-2.4,3.5c-2.2-2-4.5-3.7-7-5.3l0,0l0,0c-0.2-0.1-0.3-0.2-0.5-0.3c-1.2-0.7-2.3-0.1-2.9,0.8
		c-0.7-0.6-1.4-1.3-2.1-1.9c0.5-0.7,0.6-1.7-0.3-2.6c-0.7-0.7-1.4-1.4-2-2.1c1.2-0.4,2-1.8,1.1-3.2c-0.7-1-1.3-1.9-2-2.9
		c1.5,0.9,2.9-0.6,2.8-2.1c1.8,1,4-0.7,3.1-2.7c0.8,0.5,1.5,1,2.3,1.5c1.6,1,3.8,0,4-1.5c0.1,0.1,0.2,0.1,0.2,0.1
		c1.8,1.2,3.8-0.2,3.8-1.8c1-0.4,1.8-1.4,1.7-2.4c3.1,2,6.1,4.1,9.1,6.1c0.6,0.4,1.1,0.8,1.7,1.1c0,0.1,0,0.2,0,0.4
		c-0.1,0.1-0.1,0.1-0.2,0.2c-0.5,0.6-0.6,1.3-0.6,2c-0.1,0.3-0.1,0.6,0,1C2144,205.9,2143.7,205.8,2143.4,205.6z"/>
	<path id="XMLID_2151_" class="st14" d="M2237.1,204.7c1.7-0.4,2.9-2.8,1.7-4.5c-4.3-6.3-9.7-11.5-16.2-15.6l0,0l0,0
		c-0.2-0.1-0.4-0.3-0.6-0.4c-1.2-0.7-2.2-0.4-2.9,0.3c-2.3-1.3-4.7-2.4-7.2-3.4c-2.2-0.9-4.2,1.1-3.9,3c-0.9,0-1.6,0.5-2,1.2
		c-1-0.5-2.1-1.1-3.1-1.6c-1.5-0.7-2.8,0.1-3.4,1.3c-0.6-0.2-1.2-0.4-1.8-0.6c-1.9-0.6-3.3,1.6-2.8,3.2c-1.4-0.4-2.8-0.9-4.3-1.2
		c-2.4-0.6-3.7,2.7-2,4.2c0,0,0,0,0.1,0.1c-0.4-0.1-0.7-0.2-1-0.3c-2.4-0.6-3.6,2.6-1.9,4.1c0.8,0.7,1.6,1.4,2.3,2.1
		c-1.5-0.7-3-1.3-4.5-2c-2.2-0.9-4.5,2.2-2.3,3.6c2.8,1.9,5.6,3.9,8.4,5.9c-2.6-1.4-5.3-2.7-7.9-4.1c-2.1-1.1-4.1,2-2.2,3.4
		c1.3,0.9,2.5,1.9,3.7,2.8c-1-0.5-2-1.1-3-1.6c-2.2-1.2-3.8,1.9-2.3,3.5c0.5,0.5,1,1,1.5,1.5c-1.6,0-2.9,1.9-1.8,3.4
		c0.8,1.1,1.6,2.2,2.5,3.2c-0.7,0.5-1.1,1.6-0.8,2.5c-1.7,0-2.9,2-1.4,3.5c1.7,1.6,3.5,3.2,5.2,4.9c-0.7-0.5-1.3-1-2-1.5
		c-1.8-1.4-4,1.1-2.3,2.7c1.9,1.8,3.9,3.6,5.8,5.5c5.8,7.1,12.5,13.2,20,18.6c2,1.5,4.4-0.8,3.3-2.7c1.6,0.1,2.9-2,1.4-3.5
		c-2.1-2-4.3-4-6.4-6c1.5-0.3,2.5-2.2,1-3.6c-4.4-4.1-8.8-8.2-13.1-12.3c1.3-0.6,2-2.3,0.5-3.5c-0.5-0.4-0.9-0.7-1.4-1l0,0
		c1.7,1,3.4,2,5.1,3.1c2.2,1.4,4.6-2.3,2.5-3.8c-0.6-0.4-1.2-0.9-1.9-1.4c2.8,1.5,5.6,3.1,8.5,4.6c0.2,0.1,0.4,0.2,0.6,0.2l0.1,0.1
		c1.7,1.8,3.5,2.7,5.9,3.3c2.2,0.5,3.4-1.7,2.8-3.5c0.2,0,0.3,0.1,0.5,0.1c0.9,0.5,1.8,1,2.7,1.5c1.1,0.6,2.2,0.2,2.9-0.6
		c1.2-0.1,2-1.1,2.2-2.2c0.2,0.1,0.4,0.1,0.6,0.2c1.3,0.4,2.2-0.3,2.7-1.2h0.1c1.3,0.4,2.5-0.5,2.9-1.6c1-0.1,1.9-0.8,2.3-1.6
		c0.5,0.2,0.9,0.4,1.4,0.6c2.7,1.1,5.3-2.4,2.9-4.4c0,0-0.1,0-0.1-0.1c0.2-0.3,0.4-0.7,0.4-1.1c0.9-0.2,1.8-0.8,2.2-1.6
		c1.3-0.6,2.1-2.2,1-3.6C2237.9,205.9,2237.5,205.3,2237.1,204.7z M2202,202.8c-1.6-1.4-3.2-2.8-4.7-4.3c0.2,0.1,0.4,0.2,0.6,0.2
		c2.3,1.1,4.2-1.7,2.9-3.5c0.1,0,0.1,0.1,0.2,0.1c1.7,0.9,3.6-0.7,3.6-2.3c1.1,0.4,2.5,0,3.2-0.9c1.6,1,3.2,2.1,4.8,3.3
		c1.5,1.1,3.6,0.2,4.3-1.2c0.7,0.4,1.4,0.7,2.1,1.1c1.6,0.8,3.6-0.5,3.9-2c0.4,0.3,0.8,0.6,1.2,0.9c-0.3,0.7-0.3,1.6,0.3,2.4
		c0.9,1.2,1.9,2.4,2.8,3.7c-1,0.7-1.5,1.9-0.9,3.1c-0.9,0.6-1.6,1.7-1.4,2.8c-1.1,0.4-2,1.6-1.9,2.9c-0.4,0.2-0.7,0.5-1,0.9
		c-1.4-0.6-2.8,0.2-3.4,1.4c-1.8-0.5-3.5,0.9-3.5,2.5c-1,0-1.7,0.7-2,1.5c-4-2.8-8-5.5-12-8.3C2202.6,206.4,2203.6,204.2,2202,202.8
		z"/>
	<g id="XMLID_2157_">
		<path id="XMLID_2618_" class="st15" d="M2237,192.2c-7-11.2-21.8-14.5-33.9-11.6c-11.1,2.6-20.7,10.1-25.5,20.3
			c-0.3-2-0.6-4.1-0.9-6.1c8.9-3.2,6.6-14.3,0-18.6c1.1-5,2.2-10.3,6.6-13.4c2.5-1.7,6.2-2.2,8.7-0.2c3.1,2.5,1.5,6.1-1.1,8
			c-1,0.7-0.5,2.6,0.9,2.4c3.5-0.5,5.4-4.1,5.2-7.5c-0.3-4-3.6-6.8-7.4-7.4c-9.8-1.5-14.2,8.7-15.1,17c-1.6-0.6-3.5-0.8-5.4-0.3
			c-0.6,0.1-1.3,0.3-1.9,0.6c-0.6-5.7-1.9-11.6-6.1-15.8c-3.6-3.6-9-5.1-13.7-2.8c-4,1.9-6.4,6.6-4.3,10.7c2.1,4.2,7.6,4.4,10.2,0.6
			c0.8-1.2-0.5-3-1.8-2c-1.9,1.3-5.7,1.3-6-1.6c-0.1-2,1.1-3.7,2.7-4.7c2.9-1.8,6.5-1.2,9.2,0.6c5.3,3.6,6.7,10,8,15.9
			c-3,2-4.9,5.4-4.6,9.1c0.3,3.7,3.3,7.9,7,8.5c-1.4,1.9-1.7,4.7-1.9,7.2c-11.8-18.8-40.1-29.8-56.5-10.3
			c-14.2,16.9-3.8,44.7,18.7,47c8,0.8,15.8-1.8,21.8-6.8c-1.4,4.6-2.4,9.4-2.7,14.3c-0.3,5.4-1.3,15.5,4.2,19
			c8.4,5.4,14.3-18.2,16.6-30.5c0.5,2.4,1.1,4.7,1.7,7.1c0.9,3.2,1.9,6.4,3.1,9.5c0.8,2.2,1.5,5.4,3.3,7.1c1.9,1.9,4.6,1.4,6-0.9
			c1.1-1.8,0.7-4.4,0.6-6.4c-0.2-3.9-0.5-7.8-0.8-11.6c-0.1-1.4-0.2-2.8-0.3-4.1c3.8,6.2,8.7,11.6,14.7,15.9
			c3.2,2.3,11.9,9.1,15.6,4.1c1.7-2.3,0.3-5.1-0.6-7.4c-1.5-3.8-3.4-7.5-5.5-11c-3-4.9-6.6-9.5-10.7-13.5
			c10.9,3.8,22.8,5.8,33.4,0.2C2240.1,216.9,2244,203.4,2237,192.2z M2166,222c0.1,1.3,0.3,2.6,0.5,3.9c-0.4,0.2-0.7,0.6-0.8,1.1
			c-0.9,5.8-2,11.5-3.7,17.1c-1,3.2-2.1,6.4-3.4,9.5c-1,2.5-4,11.1-7.3,4.7c-1.2-2.2-0.8-6.1-0.8-8.6c0-3.2,0.2-6.4,0.7-9.6
			c1-6.3,3-12.2,5.9-17.8c1-2-2.1-3.5-3.2-1.5c-5.7,10.5-18.9,16.4-30.5,12.6c-11.4-3.8-19.1-16.2-17.2-28.1
			c1.9-11.7,12.7-21,24.4-21.3c14.5-0.4,26.1,10,34.5,20.7c0.1,0.1,0.2,0.2,0.2,0.2C2165.3,210.4,2165.4,216.3,2166,222z
			 M2175.5,191.9c-0.6,0.3-0.9,0.7-0.9,1.2c-0.7,0.1-1.3,0.7-1.1,1.6c1.6,10.2,3,20.5,4.1,30.8c0.5,5.2,1,10.3,1.4,15.5
			c0.2,2.6,0.4,5.2,0.5,7.7c0,1,0.6,3,0.2,3.9c-1.1,3-2.1,1.2-2.9-0.6c-3.8-9.4-6.3-19.3-7.4-29.4c-1-8.7-2.6-20.8,1.7-28.9
			c0.3-0.2,0.4-0.6,0.3-0.9c0-0.3-0.3-0.5-0.7-0.6c-2.7-1.3-5.6-2.7-6.5-5.9c-1.1-3.8,1.8-7.4,5.4-8.4c1.8-0.5,3.5-0.2,4.9,0.5
			c0.1,0.2,0.4,0.3,0.6,0.4C2179.7,181.7,2181.6,189.3,2175.5,191.9z M2224.9,220.6c-12,5.1-24.9,0.1-36.5-3.8
			c-1.6-0.5-3.3,1.4-1.7,2.7c4.9,3.9,9.3,8.3,13,13.3c3.4,4.6,7.7,10.6,9,16.3c1.2,5.4-3.3,3.5-6.2,1.9c-3-1.8-5.9-3.8-8.5-6.2
			c-4.6-4.1-8.3-8.9-11.3-14.3c-0.4-0.7-1-0.8-1.6-0.6c-0.8-8.5-1.8-16.9-3-25.3c4.9-9.1,12.8-16.5,22.7-19.8
			c10.7-3.6,24.7-1.9,32,7.6C2240.7,202.7,2236.4,215.7,2224.9,220.6z"/>
		<path id="XMLID_2696_" class="st15" d="M2142.8,199.8c-4-5.4-12-3.5-13.7,2.1c-3.2-3.8-10.3-3.2-12.2,2.5
			c-2.8,8.3,8.6,16,15.8,15.2c0.4,0,0.7-0.2,0.9-0.5c0.3,0.1,0.7,0.1,1-0.2c1.7-1.2,3-3.3,4.4-4.8c1.2-1.4,2.5-2.7,3.5-4.3
			C2144.6,206.8,2145.2,202.9,2142.8,199.8z M2139.7,208.7c-2,2.8-5.9,5.1-6.8,8.5c-4.5-1.4-9-2.2-11.8-6.4
			c-1.5-2.2-1.9-5.1,0.2-7.1c2.7-2.6,6.5-0.7,7.9,2.2c0.3,0.7,1.5,0.6,1.5-0.1c0.2-0.1,0.3-0.3,0.3-0.6c0.4-3.5,3.4-7,7.2-5.3
			C2142.1,201.4,2141.8,205.8,2139.7,208.7z"/>
		<path id="XMLID_2699_" class="st15" d="M2226.2,195.8c-1.9-2.7-5.2-3.9-8.3-3.1c-1.8,0.5-4,1.8-4.4,3.7c-1.2-5-8.7-7.1-12.4-2.5
			c-6.8,8.5,4.8,15.7,10.3,20.2c0.6,0.5,1.4,0.4,1.9,0c0.4,0.4,1.1,0.6,1.7,0.1C2220.4,210.3,2232,204.1,2226.2,195.8z
			 M2224.4,201.4c-1.1,5.3-7.8,6.6-10.9,10.4l0,0c-3.3-2.7-9.3-6.1-10.8-10.2c-0.7-2-0.5-4.4,1-6c2.9-3.1,8.1-0.3,7.9,3.7
			c-0.1,1.2,1.5,1.5,1.9,0.3c0.1-0.5,0.2-1,0.2-1.5c0,0.1,0,0.1,0.1,0.2l0,0c1.7-0.6,2.7-1.9,4.3-2.6
			C2221.7,194.4,2225.1,197.7,2224.4,201.4z"/>
	</g>
</g>
<g id="XMLID_2710_">
	<path id="XMLID_2768_" class="st12" d="M2387.7,192.2c0.6-2.2,0.8-4.3,0.6-6.6c-0.1-1.5-2.4-1.2-2.3,0.3c0,0.1,0,0.3,0,0.4
		c-0.2-0.7-0.5-1.4-0.8-2.1c-0.3-0.8-1.8-0.7-1.8,0.2c-0.1,1.3-0.1,2.6-0.2,3.9c-0.4-1.5-0.9-3-1.3-4.5c-0.3-1-1.6-0.6-1.8,0.2
		c-0.1,0.7-0.2,1.5-0.3,2.2c-0.4-1.3-0.7-2.5-1.1-3.8c-0.3-1.1-2.1-1.3-2.1,0c0,0.4,0,0.9,0,1.3c-0.3-1.5-0.7-3-1-4.5
		c-0.2-0.9-1.7-1.1-1.8,0c-0.1,2.2-0.1,4.4-0.1,6.6c-0.4-1.7-0.7-3.4-0.9-5.1c-0.1-0.9-1.3-0.8-1.5,0c-0.6,2.5-1.1,4.9-1.2,7.6
		c-0.1,1.4,1.9,1.7,2.2,0.3c0.1-0.8,0.3-1.5,0.3-2.3c0.7,2.3,1.4,4.6,1.9,7c0.3,1.3,2.1,1.1,2-0.3c0-0.2,0-0.3-0.1-0.5
		c0.1,0.4,0.2,0.8,0.2,1.2c0.2,1.1,2.1,1.3,2.2,0c0-0.1,0-0.2,0-0.3l0,0l0,0c0-1.3,0-2.7,0-4c0.4,1.2,0.8,2.5,1.2,3.7
		c0.3,1,1.8,0.5,1.7-0.4c-0.1-1.1-0.1-2.1-0.1-3.2c0.4,1.4,0.8,2.8,1.2,4.2c0.3,0.8,1.7,0.7,1.7-0.2c0.1-1.4,0.2-2.7,0.2-4.1
		c0.2,0.9,0.4,1.8,0.6,2.7C2385.9,193.3,2387.4,193.3,2387.7,192.2z"/>
	<path id="XMLID_2763_" class="st12" d="M2438,235c0-0.8,0-1.6,0.1-2.4c0.9,0.9,2.8,0,2.1-1.4c-0.7-1.4-1.3-2.8-2-4.2
		c-0.5-1.1-2.2-1-2.4,0.3c0,0.5-0.1,0.9-0.1,1.4c-0.2-0.6-0.4-1.2-0.6-1.8c-0.4-1.1-2.2-0.9-2.2,0.3c-0.1,0.7-0.1,1.4-0.2,2.2
		c-1.1-3.5-1.7-7.2-2.3-10.8c-0.2-1.2-2-1-1.9,0.2c0.1,2.3,0.2,4.6,0.3,6.9c-0.6-2.2-1.2-4.4-1.7-6.6c-0.2-1-1.8-0.9-1.6,0.2
		c0.2,2.3,0.5,4.7,0.8,7c-0.4-1.2-0.9-2.5-1.3-3.7c-0.3-0.9-1.6-0.5-1.6,0.4c0.2,4.2,0.7,8.3,1.9,12.3c0.2,0.7,1.3,0.4,1.2-0.3
		c-0.2-1.5-0.4-2.9-0.6-4.4c0.5,1.6,1,3.1,1.6,4.7c0.4,1.1,2,0.6,1.9-0.5c0-0.3-0.1-0.6-0.1-0.9c0.1,0.6,0.3,1.2,0.4,1.8
		c0.3,1.3,2.1,1.1,2.1-0.3c0-1.2-0.1-2.3-0.2-3.4c0.3,1,0.6,2,0.9,2.9c0.4,1.2,2,0.8,2.2-0.3c0.1-0.5,0.1-1.1,0.2-1.6
		c0.3,0.7,0.5,1.5,0.8,2.2C2436.1,236.4,2438,236.3,2438,235z"/>
	<path id="XMLID_2762_" class="st13" d="M2417.5,201.8c-0.1-0.5-0.3-1-0.4-1.4c1,0.2,2.1-0.4,2.2-1.4c0.9-0.1,1.7-0.8,1.8-1.6
		c0.2-1.5,0-2.7-0.6-4.1c-0.4-1-1.3-1.2-2.1-1.1c-0.5-0.8-0.9-1.5-1.4-2.3c-0.7-1.1-2.3-0.9-3,0c-0.2-0.3-0.5-0.6-0.7-0.9
		c-1.2-1.4-3.2-0.2-2.7,1.5c0,0.1,0.1,0.2,0.1,0.3c-0.3-0.3-0.7-0.5-1.1-0.7c-0.9-0.5-2,0.5-1.9,1.4c0.4,2.9,0.9,5.9,1.8,8.8
		c-0.4,0.2-0.7,0.5-0.8,1c-0.4-0.4-0.8-0.7-1.3-1.1c-0.8-0.7-2.1,0.1-2,1.1c0.1,0.8,0.2,1.5,0.4,2.3c-0.1-0.1-0.1-0.1-0.2-0.2
		c-0.7-0.7-2.2-0.1-2.2,0.9c0,0.4,0,0.8,0,1.3l0,0c-0.7-0.9-2.7-0.7-2.7,0.7c0,1.6,0.1,3.2,0.2,4.8c-0.4-0.4-0.8-0.9-1.2-1.3
		c-0.9-1-2.7-0.4-2.5,1c0.1,1.3,0.3,2.7,0.4,4c-0.2-0.3-0.4-0.5-0.6-0.8c-0.9-1.2-2.9-0.4-2.7,1.1c0.1,0.6,0.2,1.2,0.2,1.8
		c-0.2-0.3-0.4-0.6-0.5-0.9c-0.8-1.3-2.7-0.3-2.5,1c0.2,1.8,0.4,3.7,0.6,5.5c-0.6-0.7-1.1-1.4-1.7-2.2c-0.8-1-2.6-0.4-2.4,1
		c0.2,1.2,0.5,2.3,0.7,3.5c-0.1-0.1-0.1-0.2-0.2-0.3c-0.7-0.7-2.1-0.4-1.9,0.8c0.3,1.9,0.6,3.7,0.9,5.6c-0.6-0.8-1.2-1.6-1.8-2.5
		c-0.4-0.5-1.5-0.4-1.5,0.4c0,2.4,0,4.7,0,7.1c-0.5-0.5-1-1-1.7-1.5c-0.5-0.3-1.4,0-1.2,0.7c0.5,2,0.9,4,1.4,6
		c0.2,0.6,1.1,0.5,1-0.1c-0.2-1.4-0.4-2.8-0.6-4.2c0.5,0.5,0.9,1.1,1.2,1.8c0.3,0.6,1.4,0.7,1.4-0.2c0-2.3,0.1-4.6,0.1-7
		c0.8,1.2,1.6,2.3,2.5,3.5c0.5,0.7,1.7,0.2,1.5-0.6c-0.2-1.7-0.4-3.4-0.6-5.1c0.2,0.5,0.5,1,0.7,1.5c0.5,1.2,2.3,0.7,2.1-0.5
		c-0.2-1.4-0.4-2.7-0.6-4.1c0.5,0.6,1,1.3,1.5,1.9c0.8,1.1,2.5,0.3,2.4-1s-0.3-2.6-0.4-3.9c0.2,0.4,0.5,0.8,0.7,1.3
		c0.8,1.4,3,1.1,2.8-0.7c-0.1-1.3-0.3-2.5-0.4-3.8c0.1,0.2,0.3,0.3,0.4,0.5c0.9,1.1,2.7,0.4,2.6-1.1c-0.2-1.4-0.3-2.9-0.5-4.3
		c0.4,0.5,0.8,0.9,1.2,1.4c0.9,1.1,2.9,0.5,2.6-1.1c-0.2-1.4-0.4-2.9-0.5-4.3c1,0.9,2.4,0,2.4-1.3c0-0.8,0-1.5,0-2.3
		c0.2,0.2,0.4,0.4,0.7,0.5c0.8,0.7,2.3-0.1,2.1-1.2c-0.1-0.8-0.3-1.5-0.4-2.3c0.1,0.1,0.2,0.2,0.3,0.3c0.7,0.7,1.9,0.1,2.1-0.8
		c0.1,0.1,0.2,0.1,0.2,0.2c1.1,0.9,2.4-0.4,2-1.5c-0.6-1.9-1.2-3.8-1.6-5.8c0.9,2.4,1.6,5.1,3.3,6.8
		C2416.3,204.9,2417.8,203.1,2417.5,201.8z"/>
	<path id="XMLID_2759_" class="st16" d="M2400.9,205.6c-0.1-1.1-0.3-2.1-0.4-3.2c1.2-0.1,2.3-0.9,2.1-2.5
		c-1.4-7.7-3.1-15.3-6.9-22.2l0,0l0,0c-0.1-0.2-0.2-0.3-0.3-0.5c-0.5-0.8-1.1-1.1-1.8-1c-0.7-1.7-1.7-3.2-3.2-4.1
		c-0.6-0.4-1.2-0.5-1.7-0.4c-0.3-1-0.6-1.9-0.9-2.9c-0.6-1.8-3.7-1.5-3.8,0.5c-0.6-1.1-1.9-1.2-2.7-0.7c-0.5-0.5-1.4-0.6-2-0.3
		c-0.1-0.3-0.1-0.5-0.2-0.8c-0.4-1.6-2.9-1.3-3.3,0.1c-0.8-1.5-3.1-1.1-3.1,0.9c0,0.2,0,0.3,0,0.5c-0.9-0.6-2.4,0.1-2.7,1.2
		c-0.1,0.2-0.1,0.5-0.2,0.8c-0.8-1.2-2.8-1-3.1,0.7c-0.1,0.4-0.1,0.8-0.2,1.2c-0.4,0-0.8,0.3-0.9,0.9c0,0.2-0.1,0.3-0.1,0.5
		c-1,0-2,0.8-2,2.1c0,1.2,0,2.4,0,3.6c-0.2-1.1-0.4-2.2-0.6-3.3c-0.4-2.1-3.3-1.7-3.2,0.4c0,0.3,0,0.5,0,0.8c-0.8-0.3-1.8,0-1.9,1.1
		c-0.2,4.9,0.1,9.8,1.1,14.6c0.1,0.6,0.7,0.9,1.2,0.9c0.3,2,0.6,3.9,0.9,5.9c0.2,1.5,1.9,1.6,2.7,0.8c0,0.1,0,0.2,0,0.3
		c0.2,1.2,1.4,1.7,2.4,1.6c0.4,1.3,0.9,2.6,1.8,3.7c0.8,1.1,2.3,1,3.1,0.1c0.1,0.2,0.1,0.5,0.2,0.7c0.6,1.6,3.1,1.4,3.5-0.2l0,0
		c0.5,1.9,3.2,1.3,3.6-0.3c0,0,0,0,0,0.1c0.6,2.4,3.9,1.1,3.9-1c0-0.3,0-0.6,0-0.9c0.3,0.8,0.5,1.7,0.8,2.5c0.2,0.6,0.5,1,1,1.2
		c0,0.2,0,0.4,0,0.7c0,0.3,0.1,0.6,0.1,0.8c-1-1.4-3.7-0.7-3.4,1.3c0,0.1,0,0.3,0.1,0.4c-1.2-0.7-3.2-0.1-2.9,1.7
		c-1.2-0.9-3.3-0.3-3,1.6c0.1,0.6,0.2,1.3,0.2,1.9c-0.9-0.5-2.1-0.3-2.7,0.6c-1.1-0.3-2.5,0.2-2.6,1.6c0,0.7,0,1.4-0.1,2.1
		c-0.7,0.1-1.3,0.6-1.5,1.3c-0.9-0.4-1.9-0.3-2.4,0.5c-1.2-0.6-2.9,0.3-2.7,1.9v0.2c-0.7,0.4-1.1,1.3-0.9,2.2
		c0.2,0.7,0.4,1.5,0.6,2.2c0.4,1.2,1.9,1.2,2.7,0.6c0.5-0.1,0.9-0.4,1.2-0.9c0.3,0.1,0.6,0.1,0.9,0c1.1,1.2,3.2,0.6,3.5-1.1
		c0.1-0.5,0.2-1,0.2-1.4c0.3,0,0.6,0,0.9-0.1c0.9,1.5,3.3,0.9,3.6-0.8v-0.1c1.1,0.5,2.5,0,2.7-1.4c0.1-0.6,0.2-1.2,0.2-1.7
		c1,0.6,2.5,0.2,2.8-1.1c1,0.3,2.2-0.5,2.5-1.6c0-0.1,0-0.2,0.1-0.3c1,0.8,2.7,0.2,3.1-1.3c0.1-0.5,0.2-1,0.3-1.6
		c1.5,1.3,3.9,0.3,3.7-1.8c0-0.4-0.1-0.8-0.2-1.2c0.9-0.1,1.7-0.7,1.6-1.9c0-0.6-0.1-1.3-0.2-1.9c0.8,1.5,3.4,1.5,3.5-0.5
		c0.1-1.3,0.1-2.5,0.1-3.8c0.1,0.1,0.2,0.2,0.4,0.4C2397.6,208.8,2401.2,208.3,2400.9,205.6z M2387.1,192.7
		c-0.7-2.8-4.3-2.3-4.3,0.6c0,0.6,0,1.1,0,1.7c-1.1-1-3.1-0.3-3.4,1.3c0,0.2-0.1,0.3-0.1,0.5c-0.2-0.4-0.3-0.9-0.5-1.3
		c-0.7-1.7-2.9-1.5-3.6-0.1c-0.9-1-2.9-0.6-3.3,0.8c-0.2-2.3-0.6-4.6-1.3-6.8l0,0l0,0c0-0.2-0.1-0.3-0.1-0.5c-0.3-1-1.3-1.3-2.1-1.1
		c-0.1-0.7-0.1-1.5-0.2-2.2c0.7-0.1,1.3-0.7,1.2-1.7c0-0.8-0.1-1.5-0.1-2.3c0.9,0.4,2.1,0,2.3-1.3c0.1-0.9,0.3-1.8,0.4-2.7
		c0.4,1.3,2,1.2,2.8,0.3c0.5,1.5,2.7,1.7,3.2,0.1c0.2,0.7,0.4,1.4,0.5,2.1c0.4,1.4,2.2,2,3.1,1.2c0,0.1,0,0.1,0.1,0.2
		c0.4,1.7,2.3,1.9,3.2,1c0.8,0.3,1.8,0.1,2.3-0.5c0.7,2.8,1.4,5.6,2.1,8.4c0.1,0.5,0.3,1,0.4,1.6c-0.1,0.1-0.2,0.1-0.2,0.2
		c-0.1,0-0.2,0-0.2,0c-0.6,0.1-1.1,0.4-1.4,0.8c-0.2,0.1-0.4,0.3-0.5,0.5C2387.2,193.3,2387.2,192.9,2387.1,192.7z"/>
	<path id="XMLID_2755_" class="st16" d="M2442.1,242c1.2,0.7,3.2-0.1,3.4-1.7c0.8-6,0.4-11.8-1.1-17.7l0,0l0,0
		c0-0.2-0.1-0.4-0.1-0.6c-0.3-1-1-1.4-1.8-1.4c-0.7-2-1.5-3.9-2.3-5.8c-0.8-1.7-3-1.6-3.9-0.3c-0.5-0.5-1.2-0.6-1.8-0.4
		c-0.3-0.9-0.6-1.7-1-2.6c-0.5-1.2-1.7-1.4-2.7-1c-0.2-0.4-0.4-0.9-0.7-1.3c-0.8-1.3-2.8-0.8-3.4,0.4c-0.6-1-1.2-2-1.8-3
		c-1.1-1.7-3.6-0.4-3.4,1.4c0,0,0,0,0,0.1c-0.2-0.2-0.3-0.5-0.5-0.7c-1.1-1.6-3.5-0.4-3.3,1.3c0.1,0.8,0.2,1.6,0.2,2.5
		c-0.5-1.2-1-2.4-1.6-3.5c-0.8-1.7-3.7-1.1-3.3,0.9c0.6,2.6,1.2,5.3,1.7,7.9c-0.8-2.2-1.6-4.4-2.4-6.6c-0.6-1.7-3.5-1-3.1,0.8
		c0.2,1.2,0.5,2.4,0.7,3.6c-0.3-0.9-0.6-1.7-0.9-2.5c-0.7-1.9-3.2-0.9-3.2,0.8c0,0.6,0,1.1,0.1,1.7c-0.9-0.8-2.7-0.4-2.8,1
		c-0.1,1.1-0.2,2.1-0.3,3.2c-0.7-0.1-1.5,0.4-1.8,1c-1-0.9-2.8-0.4-2.6,1.3c0.1,1.9,0.3,3.7,0.4,5.6c-0.1-0.6-0.2-1.3-0.4-1.9
		c-0.3-1.8-2.9-1.4-2.8,0.4c0.1,2.1,0.3,4.2,0.5,6.3c-0.3,7.2,0.3,14.4,1.8,21.5c0.4,1.9,3,1.9,3.4,0.2c0.9,0.9,2.8,0.4,2.7-1.3
		c-0.2-2.3-0.4-4.6-0.5-6.9c1,0.6,2.6,0,2.5-1.5c-0.4-4.7-0.7-9.4-1.1-14.2c1.1,0.3,2.4-0.3,2.2-1.7c-0.1-0.5-0.2-0.9-0.3-1.4l0,0
		c0.5,1.5,0.9,3,1.3,4.5c0.5,2,3.9,1.1,3.5-0.9c-0.1-0.6-0.2-1.2-0.4-1.8c0.8,2.4,1.7,4.8,2.5,7.2c0.1,0.2,0.1,0.3,0.2,0.4v0.1
		c0,2,0.6,3.4,1.7,5c1,1.5,2.9,0.8,3.5-0.6c0.1,0.1,0.2,0.2,0.2,0.3c0.3,0.8,0.5,1.6,0.8,2.3c0.3,0.9,1.2,1.3,2,1.2
		c0.8,0.6,1.7,0.5,2.4-0.1c0.1,0.1,0.2,0.3,0.3,0.4c0.5,0.9,1.4,1,2.2,0.7c0,0,0,0.1,0.1,0.1c0.6,0.9,1.7,1,2.6,0.6
		c0.6,0.5,1.5,0.6,2.2,0.3c0.2,0.4,0.3,0.7,0.5,1.1c1,2.1,4.4,1.4,4-1v-0.1c0.3-0.1,0.6-0.2,0.8-0.4c0.7,0.4,1.5,0.5,2.2,0.2
		c1.1,0.3,2.4-0.1,2.5-1.6C2442,243.1,2442,242.5,2442.1,242z M2422.7,222.2c-0.2-1.7-0.3-3.3-0.5-5c0.1,0.1,0.1,0.3,0.2,0.4
		c0.8,1.8,3.4,1.3,3.6-0.5c0,0.1,0,0.1,0.1,0.2c0.6,1.4,2.4,1.5,3.3,0.5c0.5,0.8,1.5,1.3,2.3,1.2c0.4,1.5,0.8,2.9,1,4.4
		c0.3,1.4,2,2,3.1,1.6c0.2,0.6,0.4,1.2,0.7,1.8c0.5,1.3,2.3,1.6,3.4,0.9c0.1,0.4,0.2,0.8,0.2,1.2c-0.6,0.2-1,0.7-1.1,1.5
		c-0.1,1.2-0.2,2.4-0.3,3.6c-0.9-0.1-1.9,0.3-2.1,1.3c-0.9-0.1-1.8,0.2-2.3,0.9c-0.9-0.4-2-0.1-2.6,0.7c-0.4-0.1-0.7-0.1-1.1,0
		c-0.5-1.1-1.7-1.4-2.7-1c-0.8-1.2-2.5-1.3-3.4-0.4c-0.6-0.5-1.3-0.5-2-0.2c-0.8-3.7-1.7-7.5-2.6-11.2
		C2421.1,224.7,2422.9,223.8,2422.7,222.2z"/>
	<g id="XMLID_2711_">
		<path id="XMLID_2718_" class="st15" d="M2448.7,234.6c1.9-10.2-5-20-13.6-24.8c-7.9-4.4-17.4-5.1-25.6-1.8
			c0.9-1.4,1.8-2.7,2.7-4.1c6.9,2.9,11.4-4.9,9.9-10.8c3.3-2.3,6.8-4.9,11-4.3c2.4,0.3,4.8,2,5.2,4.5c0.5,3.1-2.4,4.3-4.9,4.1
			c-1-0.1-1.6,1.2-0.8,1.8c2.3,1.6,5.3,0.5,7-1.6c2-2.5,1.5-5.9-0.4-8.3c-4.9-6.1-12.9-2.5-17.8,1.9c-0.6-1.2-1.6-2.3-3-3.1
			c-0.4-0.3-0.9-0.5-1.4-0.6c2.7-3.6,5.1-7.8,4.8-12.4c-0.2-4-2.5-7.7-6.5-8.9c-3.3-1-7.2,0.4-8.2,4c-1,3.5,2.1,6.6,5.6,5.8
			c1.1-0.3,1.3-2,0-2.1c-1.8-0.2-4-2.3-2.7-4.1c1-1.2,2.6-1.6,4.1-1.3c2.6,0.5,4.4,2.7,5,5.2c1.2,4.9-1.4,9.4-3.8,13.5
			c-2.8-0.4-5.7,0.5-7.5,2.8c-1.8,2.3-2.3,6.4-0.4,8.7c-1.8,0.3-3.5,1.8-4.9,3.1c3.2-17.2-7.5-38.7-27.4-36
			c-17.2,2.3-26,24-14.1,37.3c4.2,4.7,10.2,7.4,16.3,7.7c-3.3,1.9-6.4,4.2-9.2,6.9c-3.1,3-9,8.3-7.7,13.3c2.1,7.6,18-3,25.9-8.9
			c-1,1.6-1.9,3.3-2.8,5c-1.2,2.3-2.3,4.7-3.2,7.2c-0.7,1.7-1.9,3.9-1.9,5.9c0.1,2.1,2,3.3,4,2.7c1.6-0.5,2.8-2.2,3.8-3.4
			c1.9-2.4,3.8-4.8,5.7-7.2c0.7-0.9,1.3-1.7,2-2.6c-1.1,5.6-1.1,11.4,0.1,17c0.6,3.1,2.1,11.6,6.9,10.7c2.2-0.4,2.9-2.8,3.6-4.6
			c1.1-3,2-6.2,2.6-9.3c0.9-4.5,1.2-9,1-13.6c4.4,8,10.2,15.5,19.3,17.9C2437.4,250.6,2446.8,244.9,2448.7,234.6z M2391.6,214.2
			c-0.6,0.8-1.2,1.7-1.8,2.5c-0.3-0.1-0.7,0-1.1,0.3c-3.6,2.9-7.3,5.6-11.2,8c-2.3,1.4-4.6,2.6-7,3.7c-1.9,0.9-8.2,4.3-6.8-1.1
			c0.5-1.9,2.8-4,4.1-5.4c1.7-1.9,3.5-3.6,5.5-5.2c3.9-3.1,8.3-5.5,12.9-7.2c1.7-0.6,0.6-3.1-1-2.6c-9,3.1-19.7-0.5-24.4-8.9
			c-4.6-8.3-2.5-19.6,4.9-25.5c7.3-5.8,18.5-5.5,25.6,0.6c8.7,7.5,9.9,19.7,9.1,30.4c0,0.1,0,0.2,0,0.3
			C2397.2,207.2,2394.3,210.6,2391.6,214.2z M2413.1,201.8c-0.5-0.2-0.9,0-1.2,0.2c-0.5-0.3-1.1-0.3-1.5,0.3
			c-4.5,6.8-9.1,13.5-14,20.1c-2.4,3.3-4.9,6.5-7.4,9.7c-1.3,1.6-2.5,3.2-3.8,4.8c-0.5,0.6-1.3,2-1.9,2.4c-2.3,1.1-1.9-0.4-1.3-1.9
			c2.8-7.5,6.6-14.6,11.3-21.1c4.1-5.6,9.6-13.5,16.4-16c0.3,0.1,0.6-0.1,0.7-0.4c0.1-0.2,0.1-0.5-0.1-0.7c-0.9-2.2-1.8-4.5-0.6-6.9
			c1.4-2.8,5-3.3,7.6-2c1.3,0.7,2.1,1.7,2.6,2.9c0,0.2,0,0.4,0.2,0.5C2421,197.9,2418,203.4,2413.1,201.8z M2426.6,244.7
			c-9.7-3.4-14.6-13.2-19.2-21.6c-0.6-1.2-2.7-0.9-2.4,0.6c0.8,4.9,1,9.8,0.5,14.7c-0.5,4.5-1.1,10.3-3.4,14.3
			c-2.2,3.8-3.8,0.3-4.6-2.2c-0.8-2.6-1.4-5.4-1.6-8.1c-0.5-4.8-0.1-9.6,1-14.3c0.1-0.6-0.1-1-0.6-1.2c4-5.4,7.9-10.8,11.7-16.3
			c7.7-2.7,16.2-2.8,23.7,0.5c8.1,3.6,15.4,12.1,14.6,21.5C2445.3,242.7,2435.9,248,2426.6,244.7z"/>
		<path id="XMLID_2715_" class="st15" d="M2389.8,188.9c0.5-5.3-5.1-8.4-9.1-6.1c0.1-3.9-4.3-7.3-8.4-5c-6,3.4-3.5,13.9,1.1,17.3
			c0.3,0.2,0.5,0.2,0.8,0.2c0.1,0.2,0.4,0.4,0.7,0.4c1.7,0.2,3.5-0.3,5.1-0.5c1.4-0.1,2.9-0.2,4.3-0.6
			C2387.2,193.9,2389.5,192.1,2389.8,188.9z M2383.3,192.4c-2.6,0.6-6.1-0.1-8.5,1.3c-1.8-3.2-4.1-6.1-3.5-10c0.3-2.1,1.6-3.9,3.9-4
			c2.9-0.1,4.1,3,3.4,5.5c-0.2,0.6,0.5,1.1,1,0.7c0.2,0,0.3,0,0.5-0.2c2.1-1.8,5.7-2.2,7.1,0.7
			C2388.6,189.6,2386.1,191.9,2383.3,192.4z"/>
		<path id="XMLID_2712_" class="st15" d="M2440.5,231c0.3-2.5-0.9-5-3.2-6.2c-1.3-0.7-3.3-1.1-4.5-0.2c1.9-3.6-1.3-8.8-5.9-8
			c-8.5,1.3-5.6,11.6-4.7,17.3c0.1,0.7,0.6,1,1.1,1c0,0.5,0.3,0.9,1,1C2429.4,236.3,2439.5,238.9,2440.5,231z M2436.5,233.3
			c-3.4,2.5-8.1-0.3-11.9,0.2l0,0c-0.5-3.3-2.2-8.5-0.8-11.6c0.6-1.5,2.1-2.8,3.8-3c3.3-0.3,4.9,4.1,2.6,6.4
			c-0.7,0.7,0.1,1.7,0.9,1.2c0.4-0.2,0.7-0.5,0.9-0.7c0,0.1,0,0.1-0.1,0.2l0,0c1.3,0.5,2.6,0.3,3.9,0.8
			C2438.6,227.8,2438.9,231.5,2436.5,233.3z"/>
	</g>
</g>
<g id="XMLID_2702_">
	<path id="XMLID_2709_" class="st12" d="M2258.5,95.4c-1.8-1.4-3.7-2.5-5.8-3.3c-1.4-0.5-2.1,1.7-0.7,2.2c0.1,0,0.3,0.1,0.4,0.1
		c-0.7-0.1-1.5-0.1-2.3-0.2c-0.9,0-1.4,1.3-0.5,1.8c1.2,0.6,2.3,1.2,3.5,1.8c-1.5-0.2-3.1-0.4-4.6-0.6c-1-0.2-1.2,1.3-0.5,1.7
		c0.6,0.4,1.3,0.8,1.9,1.2c-1.3-0.2-2.6-0.3-3.9-0.6c-1.1-0.2-2.1,1.4-0.9,2c0.4,0.2,0.8,0.3,1.2,0.5c-1.5-0.3-3-0.6-4.5-0.9
		c-0.9-0.2-1.7,1.2-0.7,1.6c2,1,4,1.9,6,2.8c-1.7-0.3-3.4-0.8-5-1.2c-0.9-0.3-1.3,0.9-0.6,1.4c2.1,1.6,4.1,3.1,6.5,4.2
		c1.3,0.6,2.3-1.1,1.2-1.9c-0.7-0.5-1.3-0.9-2-1.2c2.4,0.3,4.8,0.6,7.3,1.1c1.3,0.3,1.8-1.5,0.6-2c-0.2-0.1-0.3-0.1-0.5-0.2
		c0.4,0.1,0.8,0.2,1.2,0.3c1.1,0.3,2.1-1.4,0.9-2c-0.1,0-0.2-0.1-0.3-0.1l0,0l0,0c-1.2-0.6-2.5-1.1-3.7-1.6c1.3,0.1,2.6,0.3,3.9,0.4
		c1,0.1,1.2-1.4,0.3-1.8c-1-0.3-2-0.8-3-1.2c1.5,0.2,2.9,0.4,4.3,0.6c0.9,0.1,1.3-1.3,0.5-1.7c-1.2-0.6-2.4-1.3-3.7-1.9
		c0.9,0.1,1.8,0.3,2.7,0.5C2258.8,97.5,2259.4,96.1,2258.5,95.4z"/>
	<path id="XMLID_2708_" class="st12" d="M2318.4,66.4c-0.7-0.3-1.5-0.7-2.2-1.1c1.2-0.4,1.1-2.6-0.4-2.5c-1.6,0-3.1,0.1-4.7,0.1
		c-1.2,0-1.8,1.7-0.7,2.3c0.4,0.2,0.8,0.5,1.3,0.7c-0.7,0-1.3-0.1-2-0.2c-1.2-0.1-1.7,1.6-0.6,2.2c0.6,0.3,1.3,0.7,1.9,1.1
		c-3.7-0.5-7.3-1.4-10.9-2.3c-1.2-0.3-1.7,1.4-0.5,1.8c2.2,0.8,4.3,1.7,6.5,2.5c-2.3-0.3-4.5-0.7-6.8-1.1c-1-0.2-1.5,1.3-0.5,1.6
		c2.3,0.7,4.5,1.4,6.8,2.1c-1.3-0.1-2.6-0.2-3.9-0.3c-1-0.1-1.1,1.3-0.3,1.7c3.9,1.5,8,2.7,12.1,3.3c0.7,0.1,0.9-1.1,0.2-1.3
		c-1.4-0.4-2.9-0.8-4.3-1.2c1.6,0.2,3.3,0.3,4.9,0.5c1.1,0.1,1.4-1.6,0.3-1.9c-0.3-0.1-0.6-0.2-0.8-0.2c0.6,0.1,1.2,0.2,1.9,0.4
		c1.3,0.3,1.9-1.5,0.6-2c-1.1-0.4-2.2-0.8-3.2-1.3c1,0.1,2,0.3,3.1,0.4c1.2,0.1,1.6-1.6,0.6-2.1c-0.5-0.3-0.9-0.6-1.4-0.8
		c0.8,0,1.6,0.1,2.4,0.1C2318.9,68.8,2319.6,67,2318.4,66.4z"/>
	<path id="XMLID_2707_" class="st13" d="M2279.4,71.9c-0.5-0.1-1-0.1-1.5-0.2c0.6-0.8,0.5-2.1-0.4-2.6c0.3-0.8,0-1.9-0.8-2.3
		c-1.3-0.8-2.5-1.1-4-1.1c-1.1,0-1.7,0.7-1.8,1.5c-0.9,0.1-1.8,0.2-2.7,0.3c-1.3,0.2-1.7,1.7-1.2,2.8c-0.4,0.1-0.7,0.2-1.1,0.3
		c-1.8,0.5-1.5,2.9,0.3,3.1c0.1,0,0.2,0,0.3,0c-0.4,0.2-0.7,0.4-1.1,0.7c-0.9,0.6-0.3,2.1,0.6,2.3c2.9,0.8,5.8,1.5,8.8,1.9
		c0,0.4,0.2,0.9,0.6,1.1c-0.5,0.2-1,0.5-1.5,0.7c-1,0.5-0.8,2,0.2,2.3c0.8,0.2,1.5,0.4,2.3,0.6c-0.1,0-0.2,0.1-0.3,0.1
		c-0.9,0.4-1,2-0.1,2.4c0.4,0.2,0.8,0.4,1.2,0.5l0,0c-1.2,0.3-1.7,2.2-0.4,2.8c1.5,0.7,3,1.2,4.5,1.8c-0.6,0.2-1.1,0.4-1.7,0.5
		c-1.3,0.4-1.5,2.3-0.1,2.8c1.3,0.4,2.6,0.8,3.8,1.2c-0.3,0.1-0.7,0.2-1,0.3c-1.5,0.4-1.6,2.5-0.1,3c0.6,0.2,1.2,0.3,1.8,0.5
		c-0.3,0-0.7,0.1-1,0.1c-1.5,0.2-1.4,2.4-0.1,2.8c1.8,0.5,3.5,1.1,5.3,1.7c-0.9,0.2-1.8,0.5-2.7,0.7c-1.2,0.3-1.4,2.3-0.1,2.6
		c1.2,0.3,2.3,0.5,3.5,0.8c-0.1,0-0.2,0.1-0.3,0.1c-0.9,0.3-1.2,1.7-0.1,2.1c1.8,0.5,3.7,0.9,5.5,1.4c-1,0.2-2,0.4-3,0.7
		c-0.6,0.1-0.9,1.2-0.2,1.5c2.2,1,4.3,1.9,6.5,2.9c-0.7,0.2-1.4,0.5-2.1,1c-0.5,0.3-0.5,1.3,0.1,1.4c2,0.4,4.1,0.8,6.1,1.1
		c0.6,0.1,1-0.8,0.3-1c-1.4-0.4-2.8-0.7-4.1-1.1c0.7-0.2,1.4-0.4,2.1-0.4c0.7-0.1,1.2-1,0.4-1.4c-2.1-1-4.2-2-6.4-3
		c1.4-0.3,2.8-0.6,4.2-0.9c0.9-0.2,0.9-1.4,0.1-1.7c-1.6-0.5-3.3-1-4.9-1.5c0.5,0,1.1,0,1.6,0c1.2,0.1,1.6-1.8,0.4-2.2
		c-1.3-0.4-2.7-0.8-4-1.1c0.8-0.2,1.6-0.4,2.4-0.6c1.3-0.3,1.3-2.2,0.1-2.6c-1.3-0.4-2.5-0.8-3.7-1.2c0.5,0,1-0.1,1.5-0.2
		c1.6-0.2,2.2-2.3,0.5-2.9c-1.2-0.4-2.4-0.8-3.7-1.1c0.2-0.1,0.4-0.1,0.6-0.2c1.4-0.4,1.5-2.4,0.1-2.8s-2.8-0.9-4.2-1.3
		c0.6-0.2,1.2-0.4,1.8-0.6c1.4-0.4,1.6-2.4,0.1-2.9c-1.4-0.4-2.8-0.8-4.1-1.3c1.2-0.6,1-2.2-0.2-2.7c-0.7-0.3-1.4-0.6-2.1-0.9
		c0.3-0.1,0.5-0.3,0.8-0.4c1-0.5,0.8-2.1-0.3-2.4c-0.8-0.2-1.5-0.4-2.3-0.5c0.1-0.1,0.3-0.1,0.4-0.2c0.9-0.4,0.8-1.7,0.1-2.2
		c0.1,0,0.2-0.1,0.3-0.1c1.3-0.6,0.6-2.3-0.6-2.5c-2-0.2-4-0.5-6-0.8c2.6,0.1,5.4,0.6,7.6-0.3C2281.9,74.3,2280.8,72.1,2279.4,71.9z
		"/>
	<path id="XMLID_2704_" class="st17" d="M2276.2,88.7c-1-0.3-2.1-0.6-3.1-0.9c0.4-1.1,0.1-2.5-1.4-2.9c-7.7-1.8-15.3-3.4-23.3-2.6
		l0,0l0,0c-0.2,0-0.4,0-0.6,0c-0.9,0.1-1.4,0.6-1.6,1.3c-1.8,0-3.6,0.3-5.1,1.3c-0.6,0.4-0.9,0.9-1,1.4c-1-0.1-2-0.3-3-0.4
		c-1.9-0.2-2.8,2.8-1.1,3.6c-1.3,0.1-1.9,1.2-1.7,2.2c-0.7,0.3-1.1,1-1.1,1.8c-0.3,0-0.6-0.1-0.8-0.1c-1.7-0.3-2.4,2.1-1.3,3.1
		c-1.7,0.1-2.3,2.4-0.5,3.2c0.1,0.1,0.3,0.1,0.4,0.2c-0.9,0.5-0.9,2.2,0,2.9c0.2,0.2,0.4,0.3,0.6,0.5c-1.4,0.3-2,2.2-0.6,3.2
		c0.3,0.2,0.7,0.4,1,0.7c-0.1,0.4,0,0.9,0.5,1.2c0.1,0.1,0.3,0.2,0.4,0.3c-0.4,0.9-0.1,2.2,1.1,2.7c1.1,0.5,2.2,1,3.4,1.5
		c-1.1-0.3-2.2-0.5-3.3-0.8c-2.1-0.5-2.9,2.4-0.9,3.2c0.3,0.1,0.5,0.2,0.7,0.3c-0.6,0.6-0.8,1.7,0.2,2.2c4.5,2.2,9,3.9,13.9,4.9
		c0.6,0.1,1.1-0.2,1.3-0.7c1.9,0.5,3.9,1,5.8,1.6c1.5,0.4,2.3-1.1,1.8-2.1c0.1,0,0.2,0,0.3,0.1c1.2,0.3,2.2-0.6,2.4-1.6
		c1.4,0.2,2.7,0.2,4.1-0.1c1.3-0.3,1.8-1.7,1.4-2.8c0.2,0,0.5,0.1,0.7,0.1c1.7,0.1,2.6-2.3,1.3-3.3l0,0c2,0.3,2.5-2.4,1.2-3.5
		c0,0,0,0,0.1,0c2.5,0.4,2.5-3.1,0.6-4c-0.3-0.1-0.5-0.3-0.8-0.4c0.9,0.1,1.7,0.2,2.6,0.3c0.7,0.1,1.2-0.1,1.5-0.4
		c0.2,0.1,0.4,0.2,0.6,0.3c0.3,0.1,0.5,0.2,0.8,0.2c-1.7,0.4-2.1,3.2-0.1,3.7c0.1,0,0.3,0.1,0.4,0.1c-1.2,0.8-1.3,2.9,0.4,3.3
		c-1.3,0.7-1.6,2.9,0.2,3.4c0.6,0.2,1.2,0.4,1.8,0.6c-0.8,0.6-1.1,1.9-0.6,2.7c-0.7,0.9-0.8,2.4,0.4,3c0.6,0.3,1.2,0.6,1.9,0.9
		c-0.2,0.7,0,1.4,0.6,2c-0.7,0.6-1,1.7-0.5,2.4c-1,0.8-0.9,2.8,0.6,3.3l0.2,0.1c0.1,0.8,0.7,1.6,1.6,1.7c0.8,0.1,1.5,0.2,2.3,0.3
		c1.3,0.2,1.9-1.2,1.6-2.3c0.1-0.5,0-1-0.3-1.4c0.2-0.3,0.3-0.5,0.4-0.8c1.6-0.5,1.9-2.7,0.4-3.6c-0.4-0.3-0.8-0.5-1.2-0.8
		c0.1-0.3,0.2-0.5,0.3-0.8c1.7-0.2,2.1-2.6,0.7-3.6c0,0-0.1,0-0.1-0.1c0.9-0.8,1-2.4-0.2-3.1c-0.5-0.3-1-0.6-1.5-0.9
		c1-0.7,1.2-2.2,0.2-3.1c0.7-0.8,0.5-2.3-0.5-2.9c-0.1-0.1-0.2-0.1-0.3-0.2c1.2-0.6,1.2-2.4,0.1-3.3c-0.4-0.3-0.9-0.6-1.3-0.9
		c1.8-0.8,1.9-3.5-0.2-4.1c-0.4-0.1-0.8-0.2-1.1-0.3c0.3-0.8,0-1.9-1.1-2.3c-0.6-0.2-1.2-0.4-1.8-0.6c1.7-0.1,2.8-2.5,1-3.5
		c-1.1-0.6-2.3-1.1-3.5-1.6c0.2-0.1,0.3-0.1,0.5-0.2C2277.8,93,2278.9,89.5,2276.2,88.7z M2258.7,96.2c-2.8-0.5-3.8,3.1-1.2,4.2
		c0.5,0.2,1,0.4,1.5,0.7c-1.4,0.6-1.5,2.7-0.2,3.7c0.1,0.1,0.3,0.2,0.4,0.3c-0.5,0-0.9-0.1-1.4-0.1c-1.8-0.1-2.5,2.1-1.5,3.3
		c-1.3,0.4-1.7,2.5-0.6,3.3c-2.2-0.7-4.5-1.3-6.8-1.6l0,0l0,0c-0.2,0-0.3-0.1-0.5-0.1c-1.1-0.2-1.7,0.6-1.8,1.5
		c-0.7-0.2-1.4-0.5-2.1-0.7c0.1-0.7-0.2-1.5-1.1-1.8c-0.7-0.3-1.4-0.6-2.1-0.9c0.7-0.7,0.9-2-0.3-2.7c-0.8-0.5-1.6-1-2.4-1.5
		c1.4,0.2,1.9-1.4,1.4-2.4c1.6,0.1,2.7-1.8,1.4-2.9c0.7,0.1,1.4,0.2,2.2,0.4c1.5,0.2,2.8-1.2,2.4-2.4c0.1,0,0.1,0,0.2,0
		c1.7,0.3,2.7-1.3,2.2-2.5c0.6-0.6,0.8-1.6,0.5-2.3c2.9,0.5,5.7,1,8.6,1.5c0.5,0.1,1.1,0.2,1.6,0.3c0,0.1,0,0.2,0.1,0.3
		c0,0.1-0.1,0.1-0.1,0.2c-0.2,0.6-0.1,1.1,0.2,1.6c0,0.3,0.1,0.5,0.3,0.7C2259.3,96.3,2259,96.2,2258.7,96.2z"/>
	<path id="XMLID_2703_" class="st17" d="M2326.5,65.5c1.1-0.9,1.2-3-0.2-3.8c-5.2-3.2-10.7-5.2-16.7-6.1l0,0l0,0
		c-0.2,0-0.4-0.1-0.6-0.1c-1.1-0.2-1.7,0.4-2,1.1c-2.1-0.2-4.2-0.2-6.3-0.2c-1.9,0-2.7,2.1-1.9,3.4c-0.7,0.3-1,0.9-1.1,1.5
		c-0.9-0.1-1.8-0.1-2.8-0.1c-1.3,0-2,1-2,2c-0.5,0-1,0.1-1.5,0.1c-1.5,0.2-1.9,2.2-1,3.3c-1.2,0.1-2.3,0.3-3.5,0.5
		c-2,0.3-1.8,3.1-0.1,3.7c0,0,0,0,0.1,0c-0.3,0-0.6,0.1-0.8,0.1c-1.9,0.3-1.8,3-0.1,3.6c0.8,0.3,1.6,0.5,2.4,0.8c-1.3,0-2.6,0-3.9,0
		c-1.9,0-2.5,3-0.5,3.4c2.7,0.5,5.3,1.1,8,1.6c-2.4-0.2-4.7-0.3-7.1-0.4c-1.8-0.1-2.4,2.8-0.5,3.2c1.2,0.3,2.4,0.5,3.6,0.8
		c-0.9-0.1-1.8-0.1-2.7-0.2c-2-0.2-2.2,2.6-0.5,3.3c0.5,0.2,1,0.4,1.6,0.6c-1.1,0.5-1.5,2.3-0.2,3c0.9,0.6,1.9,1.1,2.8,1.5
		c-0.4,0.6-0.3,1.5,0.2,2.1c-1.2,0.5-1.5,2.4,0.1,3c1.8,0.6,3.6,1.2,5.3,1.9c-0.6-0.2-1.3-0.3-1.9-0.5c-1.8-0.4-2.5,2.1-0.8,2.7
		c2,0.7,4,1.4,6,2.1c6.5,3.2,13.4,5.6,20.5,7.1c2,0.4,2.9-2,1.6-3.1c1.2-0.5,1.5-2.4-0.1-3c-2.2-0.8-4.4-1.5-6.6-2.3
		c1-0.7,1.1-2.4-0.4-2.9c-4.5-1.6-9-3.2-13.5-4.8c0.7-0.9,0.7-2.3-0.7-2.7c-0.5-0.1-0.9-0.2-1.4-0.3l0,0c1.6,0.2,3.1,0.4,4.7,0.6
		c2,0.3,2.6-3.1,0.6-3.6c-0.6-0.1-1.2-0.3-1.8-0.4c2.5,0.2,5.1,0.4,7.6,0.6c0.2,0,0.3,0,0.5,0c0,0,0.1,0,0.1,0.1
		c1.8,0.7,3.4,0.8,5.3,0.5c1.8-0.3,1.9-2.3,0.9-3.5c0.1,0,0.3-0.1,0.4-0.1c0.8,0.1,1.6,0.1,2.5,0.2c1,0.1,1.6-0.6,1.9-1.4
		c0.9-0.5,1.1-1.4,0.9-2.3c0.2,0,0.3,0,0.5-0.1c1-0.1,1.5-0.9,1.6-1.7h0.1c1.1-0.1,1.6-1.2,1.6-2.1c0.7-0.4,1.1-1.2,1.2-1.9
		c0.4,0,0.8,0,1.2,0c2.3,0,3.1-3.5,0.7-4.1h-0.1c0.1-0.3,0-0.7,0-1c0.6-0.5,1.1-1.2,1.1-1.9c0.7-0.9,0.8-2.3-0.5-3
		C2327.5,66,2327,65.8,2326.5,65.5z M2300.4,75.3c-1.6-0.5-3.2-1-4.8-1.6c0.2,0,0.3,0,0.5,0c2,0,2.5-2.6,1-3.5c0.1,0,0.1,0,0.2,0
		c1.5,0.1,2.4-1.6,1.8-2.8c0.9-0.1,1.8-0.8,2-1.7c1.5,0.2,3,0.5,4.5,0.8c1.4,0.3,2.7-1,2.7-2.2c0.6,0,1.3,0.1,1.9,0.1
		c1.4,0.1,2.4-1.5,2.2-2.7c0.4,0.1,0.8,0.2,1.2,0.3c0,0.6,0.3,1.3,1,1.6c1.1,0.6,2.2,1.2,3.2,1.7c-0.5,0.8-0.5,1.9,0.4,2.5
		c-0.5,0.7-0.6,1.8-0.1,2.5c-0.7,0.6-0.9,1.8-0.5,2.7c-0.2,0.3-0.4,0.6-0.4,1c-1.2,0-2,1.1-2,2.1c-1.5,0.2-2.3,1.7-1.7,2.9
		c-0.7,0.3-1,1-1,1.7c-3.8-0.7-7.6-1.5-11.4-2.2C2302,77.8,2302,75.8,2300.4,75.3z"/>
	<g id="XMLID_2722_">
		<path id="XMLID_2725_" class="st15" d="M2322.4,56.4c-8.6-5.9-20.5-3.5-28.3,2.5c-7.2,5.5-11.8,13.9-12,22.9
			c-0.9-1.4-1.8-2.8-2.6-4.2c5.5-5.2,0.2-12.5-6-13.5c-0.8-4-1.7-8.2,0.5-11.9c1.3-2.1,3.8-3.6,6.3-2.9c3.1,0.8,3,3.9,1.8,6.2
			c-0.5,0.8,0.5,2,1.4,1.5c2.4-1.5,2.6-4.7,1.4-7.1c-1.5-2.8-4.8-3.8-7.8-3c-7.6,2.1-7.5,10.9-5.5,17.2c-1.4,0.1-2.8,0.6-4,1.5
			c-0.4,0.3-0.8,0.7-1.2,1.1c-2.3-4-5.1-7.8-9.5-9.5c-3.8-1.4-8.2-0.8-10.9,2.4c-2.3,2.7-2.5,6.8,0.3,9.2c2.8,2.4,6.9,0.7,7.6-2.8
			c0.2-1.1-1.3-2-2-0.9c-0.9,1.6-3.7,2.8-4.8,0.8c-0.7-1.4-0.4-3.1,0.5-4.3c1.5-2.2,4.3-3,6.9-2.5c5,0.9,8.1,5.1,10.9,9
			c-1.5,2.4-1.8,5.5-0.4,8.1c1.4,2.6,4.9,4.7,7.9,3.9c-0.5,1.8,0.2,3.9,0.9,5.8c-14.6-9.9-38.7-8.8-44.3,10.6
			c-4.9,16.8,11.6,33.7,28.6,28.2c6.1-2,10.9-6.4,13.7-11.9c0.4,3.8,1.3,7.6,2.7,11.3c1.5,4,4,11.7,9.1,12.5
			c7.8,1.2,4.6-17.8,2.3-27.5c1.1,1.6,2.3,3.1,3.5,4.6c1.7,2,3.4,4,5.3,5.9c1.3,1.4,2.8,3.4,4.7,4.1c2,0.8,3.8-0.5,4.1-2.6
			c0.2-1.7-0.9-3.4-1.6-4.8c-1.4-2.8-2.8-5.5-4.3-8.2c-0.5-1-1-1.9-1.6-2.9c4.8,3.3,10.1,5.6,15.7,6.8c3.1,0.7,11.6,2.8,12.7-2
			c0.5-2.2-1.4-3.8-2.8-5.2c-2.3-2.3-4.9-4.3-7.5-6.2c-3.8-2.6-7.8-4.7-12.1-6.4c9.2-0.8,18.4-3.1,24.3-10.5
			C2332.6,73.4,2331.1,62.3,2322.4,56.4z M2280.4,100.8c0.5,0.9,1.1,1.8,1.6,2.7c-0.2,0.3-0.3,0.6-0.2,1.1c1.2,4.5,2.2,9,2.8,13.6
			c0.3,2.6,0.5,5.3,0.6,8c0,2.1,0.7,9.3-3.8,5.8c-1.6-1.3-2.5-4.2-3.3-6c-1.1-2.3-1.9-4.7-2.5-7.2c-1.3-4.9-1.7-9.8-1.4-14.9
			c0.1-1.8-2.6-1.9-2.8-0.1c-0.8,9.5-8.4,18-18.1,18.9c-9.5,0.9-19.1-5.6-21.5-14.9c-2.3-9.1,2.5-19.3,10.9-23.3
			c10.4-5,22.2-1.1,31.7,3.9c0.1,0,0.2,0.1,0.2,0.1C2276.2,92.7,2278.1,96.8,2280.4,100.8z M2277.7,75.9c-0.3,0.4-0.4,0.8-0.3,1.2
			c-0.5,0.3-0.7,0.9-0.3,1.5c4.5,6.9,8.8,13.9,12.8,21.1c2,3.6,4,7.2,5.9,10.8c1,1.8,1.9,3.6,2.9,5.5c0.3,0.7,1.4,2,1.4,2.8
			c0.1,2.5-1.1,1.6-2.3,0.5c-5.8-5.6-10.8-12-14.8-19c-3.5-6-8.6-14.3-8.1-21.6c0.2-0.2,0.1-0.6-0.1-0.8c-0.1-0.2-0.4-0.3-0.7-0.2
			c-2.4-0.1-4.9-0.2-6.6-2.2c-2-2.4-1.1-5.9,1.2-7.8c1.1-0.9,2.4-1.3,3.8-1.2c0.2,0.1,0.4,0.1,0.6,0.1
			C2277.4,67.1,2281.3,72.1,2277.7,75.9z M2322.7,80.9c-7.1,7.6-18.1,8.1-27.7,8.9c-1.3,0.1-1.9,2.1-0.4,2.5
			c4.8,1.3,9.4,3.1,13.7,5.5c4,2.2,9,5.2,11.8,8.9c2.6,3.5-1.3,3.6-3.9,3.3c-2.8-0.3-5.5-0.9-8.1-1.8c-4.6-1.5-8.9-3.8-12.8-6.7
			c-0.5-0.4-1-0.3-1.3,0c-3.3-5.9-6.7-11.7-10.3-17.4c0.6-8.2,4-16.1,10.1-21.7c6.7-6,17.4-9.3,25.7-4.7
			C2328.5,62.8,2329.5,73.7,2322.7,80.9z"/>
		<path id="XMLID_2730_" class="st15" d="M2256.4,92.1c-4.7-2.6-9.8,1.3-9.3,6c-3.6-1.7-8.5,1-8,5.7c0.6,6.9,11.4,8.9,16.4,6
			c0.3-0.2,0.4-0.4,0.5-0.6c0.3,0,0.5-0.2,0.7-0.5c0.8-1.5,1.1-3.3,1.7-4.9c0.5-1.4,1-2.8,1.2-4.2
			C2260,96.6,2259.2,93.7,2256.4,92.1z M2257,99.6c-0.5,2.7-2.6,5.6-2.2,8.4c-3.7,0.4-7.2,1.3-10.6-0.9c-1.8-1.1-3-3.1-2.1-5.2
			c1.1-2.7,4.5-2.6,6.4-1c0.5,0.4,1.3,0,1.1-0.6c0.1-0.2,0.1-0.3,0-0.5c-0.8-2.7,0.2-6.1,3.5-6.2C2256.5,93.5,2257.6,96.8,2257,99.6
			z"/>
		<path id="XMLID_2736_" class="st15" d="M2315.7,62.5c-2.2-1.3-5-1.2-7,0.4c-1.2,1-2.3,2.6-2,4.1c-2.5-3.2-8.6-2.3-9.8,2.2
			c-2.2,8.3,8.5,9.8,14,11.4c0.6,0.2,1.1-0.1,1.4-0.6c0.5,0.2,1,0.1,1.3-0.5C2316.1,74.9,2322.6,66.6,2315.7,62.5z M2316.2,67.1
			c0.9,4.2-3.6,7.3-4.6,11.1l0,0c-3.2-0.9-8.7-1.5-11.1-4c-1.2-1.2-1.8-3.1-1.2-4.7c1.1-3.1,5.8-2.8,6.9,0.2
			c0.3,0.9,1.6,0.6,1.5-0.3c-0.1-0.4-0.2-0.8-0.3-1.2l0.1,0.1l0,0c1-1,1.3-2.3,2.3-3.2C2312,62.9,2315.5,64.2,2316.2,67.1z"/>
	</g>
</g>
<g id="XMLID_3576_">
	<path id="XMLID_3577_" class="st18" d="M1096.8,577.6c-1.3-1-2.5-2.1-3.8-3.1c0.2-0.5,0.2-1.2-0.1-1.8c2.4,1.4,5.4-1.6,3.2-3.9
		c-5.3-5.5-10.7-11-16-16.5c1.2-0.9,1.7-2.7,0.3-4c-5-4.5-10.5-8.6-16.2-12.3c-1.8-1.1-3.6,0.2-3.9,1.9c-2.3-1.6-4.7-2.9-7.4-3.9
		c-1.8-0.7-3.5,1.2-3.4,2.9c-1.8-1.1-3.6-2.1-5.6-3c-2.5-1.1-5.7,2.1-3.2,4.1c4.4,3.5,8.7,7.1,13.1,10.6c-6-4.4-12.1-8.5-18.6-12.1
		c-1.9-1.1-4.4,0.7-4,2.7c-0.1-0.1-0.3-0.1-0.4-0.2c-2.5-1.3-5.6,2.2-3.1,4.1c1.4,1.1,2.7,2.2,4.1,3.2c-1.7-1-3.4-2-5.1-3
		c-2.9-1.6-5,2.4-2.5,4.3c6.1,4.7,12.2,9.4,18.3,14.1c-7.1-5-14.1-10.1-21.1-15.2c-2.5-1.8-4.8,2.3-2.4,4.1c8,6,16.1,12,24,18.2
		c-8-5.5-16.1-11-24.2-16.5c-2.2-1.5-4.9,1.9-2.9,3.8c7.5,6.9,15.8,12.9,24,18.9c-8.3-5.5-16.5-11.1-24.8-16.6
		c-2.2-1.4-4.9,2-2.8,3.7c1.4,1.1,2.8,2.2,4.1,3.3c-1.7-1.2-3.4-2.4-5.2-3.6c-2.1-1.4-4.6,1.8-2.7,3.5c7.5,6.4,15.1,12.8,22.6,19.3
		c-6.9-5.2-13.9-10.2-21.9-13.6c-1.9-0.8-3.4,2.1-2,3.4c0.8,0.7,1.6,1.4,2.4,2.1c-1.7-1-3.7,1.7-2.1,3c0.9,0.8,1.9,1.5,2.8,2.3
		c-1.3,0.1-2.4,1.7-1.2,3c2.1,2.3,4.3,4.5,6.6,6.7c-1.5-0.6-3,1.2-1.8,2.7c4.4,5.4,9.7,9.7,15.7,13.2c0.9,0.5,1.8-0.1,2-0.9
		c2,1.2,4.1,2.3,6.1,3.4c1.5,0.8,3.3-1,2.5-2.3c2,1.3,4,2.5,6.1,3.7c1.8,1.1,4.1-1.6,2.4-3.1c-1.9-1.6-3.9-3.2-5.8-4.7
		c3.8,2.4,7.7,4.6,11.9,6.4c2.2,1,4.1-2,2-3.3c-0.2-0.1-0.5-0.3-0.7-0.4c0.1,0,0.2,0.1,0.3,0.1c2,0.8,4.5-1.6,2.5-3.3
		c-5.1-4.3-10.1-8.7-15.2-13c6.4,4.4,12.8,8.8,19.2,13.3c2.1,1.5,4.8-1.9,2.8-3.6c-4.8-3.9-9.5-7.7-14.3-11.6
		c5.6,3.7,11.2,7.4,16.8,11.1c2.1,1.4,4.1-1.6,2.6-3.4c-1.8-2.1-3.8-4.1-5.8-6c2,1.4,4.1,2.8,6.1,4.1c2.1,1.4,4.5-1.7,2.7-3.5
		c-2.1-2-4.1-4-6.2-5.9c2.7,1.7,5.5,3.3,8.3,4.9c2.3,1.3,5-1.9,2.9-3.7c-1-0.8-2-1.7-3-2.5c2,1,4,1.9,6.1,2.8c1.8,0.7,3.4-1.3,3.2-3
		c2.2,0.6,4.7-2.1,2.6-4c-0.6-0.5-1.1-1-1.7-1.4c2.5,1.4,5,2.8,7.7,4.1C1096.1,582.6,1099.1,579.5,1096.8,577.6z"/>
	<path id="XMLID_3578_" class="st19" d="M1021.5,602c-0.4-0.9-0.8-1.8-1.3-2.6c0.1-0.6,0-1.1-0.3-1.7c-1.2-2.2-2.6-3.7-4.6-5.2
		c-2.1-1.5-4,0.1-4.4,2c-0.4-0.3-0.7-0.5-1.1-0.8c-1.5-1-2.9-0.4-3.6,0.7c-2.2-1.8-5.5,0.6-4.3,3.3c-1.4-0.8-2.9-1.6-4.3-2.4
		c-1.9-1.1-4.2,0.7-3.8,2.6c-0.8-0.4-1.5-0.7-2.3-1.1c-1.7-0.8-3.5,0.3-3.8,1.8c-0.7-0.3-1.4-0.7-2.2-1c-1-0.5-2.1-0.2-2.8,0.4
		c-1.4-0.6-2.8-1.3-3.6-2.4c-1-1.4-3.4-0.6-2.9,1.2c1.1,4.3,4.9,4.1,7.8,5.9c0.5,0.4,0.9,0.8,1.4,1.1c0.8,0.9,1.8,0.9,2.6,0.5
		c1.2,0.6,2.5,1.2,3.7,1.8c1.7,0.8,3.5-0.2,3.8-1.8c0.7,0.4,1.5,0.7,2.2,1.1c1.6,0.8,3.8-0.3,3.9-2c1.9,1.1,3.9,2.2,5.8,3.4
		c1.7,1,3.4-0.1,3.8-1.6c1.4,0.6,2.7,0,3.3-1.1c0.9,0.7,1.9,1.3,2.8,2C1020.2,608,1022.6,604.3,1021.5,602z"/>
	<path id="XMLID_3579_" class="st19" d="M1138.1,573.3c-0.6-0.4-1.1-0.8-1.7-1.3c2.6,0.4,5.1-3.4,2.7-5.4c-0.9-0.7-1.7-1.5-2.6-2.2
		c2.7-0.4,4.2-4.1,1.3-6c-0.2-0.1-0.3-0.2-0.5-0.3c1.8-1.2,2.4-4.2,0-5.8c-0.1-0.1-0.3-0.2-0.4-0.3c1.7-1.1,2.7-3.8,0.8-5.3
		l-4.3-3.5c1.6-1.2,2.2-3.5,0.3-5c-0.1-0.1-0.2-0.2-0.4-0.3c1.3-1.3,1.7-3.3-0.1-4.7c-0.7-0.6-1.4-1.1-2.1-1.7
		c0.2-0.6,0.2-1.2,0-1.9c-0.8-2.9-2.6-4.6-5.4-5.5c-0.9-0.3-1.7-0.2-2.3,0.1c-1.3-0.7-2.5-1.3-3.8-2c-1.8-1-3.9,0-4.9,1.5
		c-2.2-0.1-4.4,2-4.1,4c-1.2,0.8-2,2.3-1.6,3.6c-1.6,0.4-2.7,2.4-2.3,4.2c-2.8-0.3-5.4,3.1-2.9,5.5c0.6,0.6,1.3,1.2,2,1.8
		c-0.2,0.4-0.4,0.9-0.5,1.3c-2.2,0-4.3,2.7-2.8,4.7c1,1.3,2,2.6,3.1,3.9c-2.3,0.4-4,3-1.8,5.1c0.9,0.9,1.9,1.8,2.8,2.6
		c-1.3,1.1-1.8,3.2-0.4,4.7c0.5,0.5,0.9,0.9,1.4,1.4c-2.4-0.2-4.4,3.2-2.3,5.1c1.1,1,2.2,2.1,3.3,3.1c-1.7-1.1-3.5-2.2-5.2-3.3
		c-2.8-1.7-5.4,1.9-3.6,4.3c-0.2-0.1-0.5-0.3-0.7-0.4c-2.7-1.6-5.2,2-3.2,4.2c0.2,0.3,0.5,0.5,0.7,0.8c-0.6,1-0.7,2.2,0.1,3.2
		c-2.4-1.2-5.2,1.5-3.4,3.9c-0.9-0.6-1.9-1.2-2.8-1.8c-2.7-1.7-5,2-3.2,4.2c0.1,0.1,0.2,0.2,0.2,0.3c-1.1-0.7-2.1-1.4-3.2-2.2
		c-2.3-1.6-4.3,1.3-3.4,3.4c-0.9-0.5-1.7-1-2.6-1.6c-2.2-1.3-4.9,1.3-3.5,3.5c0.5,0.8,1,1.6,1.6,2.4c-1.7,0.1-3.4,1.8-2.2,3.6
		c-0.4-0.2-0.8-0.3-1.2-0.5c-1.5-0.6-3.5,0.1-3.4,1.9c0,0.3,0,0.5,0,0.8c-0.1,0.1-0.2,0.3-0.3,0.4c-0.9,0.2-1.8,0.5-2.7,0.7
		c-1.6,0.4-1.7,3,0,3.3c1.6,0.3,3.2,0.6,4.7,1c1.4,0.3,2.8-0.6,2.8-2.1c0-0.2,0-0.5,0-0.7c1.5,0.6,3,1,4.6,1.4
		c1.6,0.4,2.7-0.6,2.9-1.9c0.7,0.4,1.5,0.7,2.2,1.1c2.4,1.2,4.9-1.6,3.3-3.7c1,0.6,2,1.2,3,1.8c2.1,1.2,3.9-0.7,3.6-2.6
		c1.8,1,3.5,2,5.3,3c2.3,1.2,4.5-1.1,3.7-3.2c1.6,1,3.1,2,4.7,3c2.3,1.5,4.5-1.1,3.8-3.2c0.6,0.4,1.3,0.7,2,1c2.2,1.1,4.4-0.8,4-2.8
		c1.6,1,3.2,0,3.7-1.4c0.3,0.3,0.7,0.5,1,0.8c2.5,1.9,5.7-2.3,3.3-4.3c-1-0.9-1.9-1.7-2.9-2.6c3,1.9,6,3.8,9,5.7
		c2.8,1.7,5.9-2.3,3.5-4.6c-0.8-0.8-1.7-1.6-2.5-2.3c0.1,0.1,0.3,0.2,0.4,0.2c2.9,1.6,6.4-2.5,3.7-4.8l0,0c2.5-0.2,3.8-3.9,1.3-5.8
		l0,0C1139.7,577.8,1140.3,575,1138.1,573.3z"/>
	<g id="XMLID_3580_">
		<path id="XMLID_3581_" class="st15" d="M1141.5,562.6c-0.2-7.5-0.8-15.4-2.8-22.6c-2.2-7.9-9-16.4-17-18.3
			c0.4-5.6,2.5-10.6,5-15.6c2-4.1,3.9-7.2,8.1-9.2c1.3-0.6,0.6-2.5-0.7-2.5c-5.1-0.3-8,5.4-9.9,9.3c-2.7,5.7-5,11.5-3.6,17.8
			c-2.7-0.4-5.6,0-8.4,1.4c-0.2-5.3-2.7-10.4-6.4-14.2c-3.5-3.6-9.6-7.7-14.8-6.6c-1,0.2-1.2,1.8-0.3,2.2c2.1,1,4.4,1.2,6.5,2.2
			c2.3,1.1,4.5,2.6,6.3,4.5c3.7,3.7,5.5,8.3,6.3,13.3c-14.3,10.4-6.2,32.3-11,46.5c-0.2,0.5-0.1,0.8,0,1.1c-0.1,0.1-0.1,0.1-0.2,0.2
			c-0.1,0.1-0.2,0.2-0.4,0.3c0.1-0.2,0.2-0.5,0.3-0.7c0.1-0.4,0.1-0.7,0-0.9c0.5-0.7,0.6-1.8-0.4-2.4c-6.4-4.3-9.3-11.3-13.2-17.6
			c-3.5-5.6-7.9-10.4-13.7-13.6c-12-6.7-26.9-6.6-39.2-0.9c-12.4,5.7-22,16.9-24.6,30.5c-1.6,8.6-0.6,17.7,3.1,25.5
			c-4.5-1-8.5,0.5-12.7,2.3c-3.1,1.4-6.1,2.6-9.5,3c-2.8,0.3-9.6,0.9-10.5-2.9c-0.3-1.4-2.6-1.1-2.5,0.3c0,0.1,0,0.2,0,0.3l0,0l0,0
			c0.9,8.4,8.8,12.3,16.6,13c10.7,0.9,22.5-2.1,33.2,0c9,5.4,20.3,7.2,30.4,3.8c0.9-0.3,1.8-0.7,2.7-1.1c0.2,0.5,0.8,0.9,1.4,0.6
			c15.4-8.7,32.7-4.1,49.4-5.8c14.1-1.5,25.9-8.4,30.4-22.4C1141.3,576.8,1141.7,569.6,1141.5,562.6z M1004,605.3
			c-7.3,0.2-20.3,1.4-24.7-5.8c2.6,1,5.9,0.9,8.4,0.8c7.7-0.4,14.6-7.1,22.4-5.3c0.7,0.2,1.2-0.2,1.5-0.6c2,3.6,4.5,6.8,7.6,9.6
			c0.4,0.4,0.9,0.7,1.3,1.1C1014.9,604.3,1009.1,605.2,1004,605.3z M1065.2,602.3c-17.4,15.6-45.7,6.4-53.2-15
			c-7.9-22.6,7.2-45.8,29.8-50.9c12.3-2.8,26.3,0.3,35.2,9.5c7.3,7.5,9.8,18.6,18.6,24.7c-0.1,0.1-0.1,0.2-0.2,0.4
			c-2.9,7.7-9.2,13.7-17.1,16.2c0.2-0.7,0.3-1.3,0.4-2c2.3-12.8-3.9-27.1-16-32.7c-11.6-5.4-26.1-2.1-32.6,9.4
			c-5.9,10.6-2.6,29.6,12.4,28.9c5.9-0.3,11.8-4.2,13.2-10.1c1.2-5.5-2.9-11.6-8.9-9.3c-1.3,0.5-0.8,2.4,0.6,2.1
			c7.3-1.8,5.7,7.7,2.7,10.7c-2,2-4.8,3.1-7.5,3.2c-6.9,0.3-11.4-5.6-12.1-12c-1.3-11.5,8-21.5,19.3-22.1
			c12.3-0.7,22.4,8.2,25.2,19.9C1077.7,583.8,1073.4,595,1065.2,602.3z M1134.3,586.7c-6.6,13.6-21.4,16.2-35.1,16.2
			c-10.7,0.1-22.3-1-32.4,2.6c4.9-4.2,8.8-9.6,10.8-15.7l0,0c8.5-1.5,15.4-6.8,19.3-14.3l0,0c1.3,0.4,2.8-1,3.5-2
			c0.2-0.3,0.4-0.6,0.5-0.9c0.4-0.2,0.8-0.5,1-1c5.4-12.7-1.3-27.7,5.8-39.9c4-6.9,11.8-8.9,18.7-4.6c6.7,4.2,9.2,12,10.4,19.4
			C1138.8,559.3,1140.1,574.8,1134.3,586.7z"/>
		<path id="XMLID_3586_" class="st15" d="M1115.9,537.7c-1.1-1.1-2.9-1.7-4.4-0.9c-1.2,0.6-1.9,2-1.9,3.4c0.1,1.5,0.8,2.5,2.1,3
			c0.7,0.2,1.1-0.7,0.7-1.1c-0.8-0.7-0.9-2.7,0.2-3.2c0.6-0.3,1.3,0.1,1.7,0.5c0.6,0.7,0.3,1.5,0.8,2.1c0.3,0.3,0.8,0.3,1.1,0.1
			C1117.8,541,1116.7,538.6,1115.9,537.7z"/>
		<path id="XMLID_3587_" class="st15" d="M1124.4,534c-3,0.5-4.6,4.4-2.8,6.8c0.6,0.8,1.9,0.1,1.4-0.8c-0.6-1.2,0.2-3.2,1.6-3.5
			c1.7-0.4,2.5,1.6,2.2,2.9c-0.4,1.4,1.8,2.5,2.5,1C1130.6,537.3,1127.8,533.3,1124.4,534z"/>
	</g>
</g>
<g id="XMLID_7294_">
	<path id="XMLID_7292_" class="st20" d="M2287.3,656.5c-5.3,1.1-10.6,2.3-16,3.4c3.5-1,7-2.1,10.6-3.1c3.2-0.9,1.7-5.7-1.5-4.9
		c-3.9,1-7.8,1.9-11.7,2.7c1.7-0.5,3.4-1.1,5-1.6c2.7-0.9,2.1-5.6-0.9-5.1c-2.2,0.4-4.3,0.7-6.5,1.1c1.9-1.6,0.4-5.2-2.6-4.6
		c-4.4,0.9-8.9,1.9-13.3,2.9c0.1-1.8-2-3.8-4.1-2.6c-0.9,0.5-1.8,1-2.7,1.6c-0.3-1-1.1-1.9-2.2-2.2c-0.2-1.3-1.1-2.4-2.9-2.1
		c-0.1,0-0.1,0-0.2,0c-0.4-1-1.4-1.7-2.8-1.8c-0.3-0.9-1-1.6-2.2-1.7c-2.5-0.4-4.6,0.2-6.2,2.3c-0.7,1-0.9,2.2-0.5,3.1
		c-1.6,1.2-1.7,3.9-0.3,5c-0.3,0.2-0.7,0.3-1,0.4c-1.4,0.6-1.6,1.8-1.2,2.8c-0.2,0.1-0.3,0.2-0.5,0.3c-2,1.1-1.4,4.3,0.7,4.8
		c-0.8,1.7,0.7,3.9,2.8,3.8c-1.4,1.4-0.4,4.6,2,4.4c3.2-0.2,6.4-0.5,9.6-0.8c-4.7,1.4-9.4,2.8-14.1,4.2c-2.5,0.8-2,5.1,0.8,4.7
		c4.5-0.7,8.9-1.5,13.4-2.2c-3.5,1-6.9,2.1-10.4,3.1c-3,0.9-1.5,5.1,1.4,4.5c3.6-0.6,7.2-1.3,10.8-2c-4.7,1.5-9.4,2.9-14.2,4.4
		c-2.9,0.9-1.5,5.1,1.4,4.5c3.2-0.7,6.5-1.3,9.7-2c-2.7,0.9-5.2,2-7.6,3.5c-2.3,1.4-0.7,4.5,1.6,4.3c-0.2,1.3,0.5,2.6,2.2,2.5
		c0.3,0,0.5,0,0.8-0.1c-1.5,0.9-1.2,3.6,0.7,3.9c0.7,0.1,1.5,0.2,2.2,0.3c0.3,0.7,1,1.2,1.9,1.1c0.3,0,0.5-0.1,0.8-0.1
		c-0.6,1.1,0.2,3,1.8,2.9c2.1-0.1,4.1-0.2,6.2-0.3c-1.9,0.5-3.8,1-5.7,1.5s-1.4,3.6,0.6,3.4c1.6-0.2,3.2-0.4,4.9-0.6
		c-0.7,1-0.1,2.8,1.4,2.7c0.8-0.1,1.5-0.1,2.3-0.2c0.1,0.2,0.2,0.4,0.4,0.5c-0.3,0.1-0.5,0.2-0.8,0.3c-1.9,0.6-1,3.3,0.9,2.9
		c6.4-1.3,12.9-2.4,19.3-3.9c1.5-0.3,1.5-2.4,0.3-3.1c2.1-0.7,4.2-1.5,6.3-2.2c1.8-0.6,1-3.4-0.8-3c-0.1-0.9-1-1.9-2.2-1.6
		c-0.2,0-0.3,0.1-0.5,0.1c1.2-1,0.6-3.6-1.2-3.3c-0.7,0.1-1.4,0.2-2.1,0.3c2.1-0.6,4.2-1.2,6.3-1.8c1.8-0.5,1.7-3.1,0.3-3.7
		c0.1,0,0.2,0,0.2-0.1c2.1-0.6,1.8-3.1,0.3-3.9c3-1.2,6.1-2.3,9.1-3.5c1.1-0.4,1.5-1.4,1.5-2.3c0.8-0.4,1.7-0.8,2.5-1.2
		c1.4-0.7,1.3-2.5,0.5-3.5c0.3-0.1,0.5-0.2,0.8-0.2c1.8-0.6,1-3.3-0.9-2.8c-1,0.3-1.9,0.5-2.9,0.7c0.6-0.2,1.2-0.5,1.7-0.7
		c2.7-1.2,1.6-5-1.3-4.4c-4.8,1-9.7,2-14.5,3c4.8-1.5,9.5-2.9,14.3-4.4c3-0.9,1.6-5.3-1.4-4.6c-3.1,0.7-6.2,1.4-9.3,2.2
		c3.5-1.1,7-2.1,10.5-3.2C2291.8,660.2,2290.3,655.8,2287.3,656.5z"/>
	<g id="XMLID_7295_">
		<path id="XMLID_7300_" class="st15" d="M2290.3,647.2c-0.2,1.9,0.3,3.4-0.8,5.2c-1,1.7-2.5,2.7-4.4,3.2c-2.6-2.7-5.7-4.9-9-6.7
			c-0.7-0.4-1.5-0.8-2.2-1.1c1-1.1,1.6-2.4,1.8-3.9c0.3-1.8,0.2-4.9-1.7-5.8c-0.6-0.3-1.4,0.2-1.4,0.9c0,1.5,1,2.7,0.9,4.4
			c-0.1,1.3-0.6,2.6-1.5,3.6c-4.2-1.8-8.8-3.1-13.3-3.6c0.9-1.2,1.4-2.7,1.5-4.2c0.1-2.1-0.7-5.1-3-5.8c-0.7-0.2-1.4,0.6-1.1,1.2
			c0.6,1.5,1.7,2.5,1.8,4.2c0.1,1.6-0.5,3.2-1.7,4.3c-1.4-0.1-2.8-0.1-4.2,0.1c-2.3,0.2-4.4,0.7-6.3,1.4c-3.2-7.2-14.2-7.8-19.6-2.9
			c-6.5,5.8-6.1,15.8,0,21.6c-1.2,2.9-1.8,6.1-2,8.7c-0.1,1.7-0.1,3.5,0.1,5.2c-2.8,1.3-6.2,0.5-7.8-2.2c-0.9-1.6-3.3-0.1-2.4,1.5
			c2.1,3.4,6.9,5,10.5,3.1c0.8,4.9,2.6,9.6,5,13.9c-0.7,0.6-1.4,1-2.3,1.3c-1.2,0.3-2.3,0-3.5,0.1c-0.8,0.1-1.3,1.1-0.6,1.7
			c2.2,1.7,5.4,0.6,7.4-1.3c2.8,4.7,6.7,9,11.2,12.1c-0.2,2.5-1.8,4.2-4,5.4c-1.1,0.6-0.2,2.1,0.8,1.8c2.8-0.6,4.7-3.3,5-6.1
			c5.2,3.2,11.3,4.8,17.7,3.9c13.7-2.1,27.3-15.4,31.8-28.2c3.5-9.8,0.2-19.6-6.2-26.9c2-0.5,3.7-1.8,4.8-3.5
			c1.2-1.9,2.3-5.1,0.9-7.1C2291.7,645.6,2290.4,646.2,2290.3,647.2z M2275.4,702.2c-3.1,2.4-6.4,4.4-9.6,5.6
			c-4.7,1.8-9.4,2-13.8,0.9c2.8-3.2,1-9-3.1-10.1c-3.4-0.9-6.9,1.3-7.9,4.4c-2.1-1.8-4.1-3.8-5.8-6.1c-1.4-1.8-2.6-3.8-3.7-5.9
			c2.7-0.6,4.7-3.2,4.4-6.1c-0.4-3.6-4.6-5.9-8-4.6c-0.1,0-0.2,0.1-0.2,0.1c-0.2-0.9-0.3-1.7-0.4-2.6c-0.5-3.7-0.3-7.5,0.8-11
			c0.9-3.1,2.8-5.4,4.3-8.1c0.2-0.1,0.3-0.2,0.5-0.3c0.6-0.7,1.3-1.4,1.9-2C2250.5,669.6,2266.1,683.5,2275.4,702.2z M2230.8,656.5
			c-0.1,0.2-0.2,0.3-0.3,0.5c-1.4,1-2.6,2.4-3.5,4c-3-5.1-4.1-11.5,0.3-16.3c2.3-2.4,5.5-3.6,8.8-3c3,0.5,4.7,2.2,6.7,4.1
			C2238.1,648.3,2234.3,652.2,2230.8,656.5z M2290.8,679.7c-0.1,0.3-0.1,0.6-0.2,0.8c-0.7-1-1.9-1.6-3.1-1.8c-2-0.4-4,0.5-5.4,1.9
			s-3,3.5-3,5.6c0,0.6,0.1,1.2,0.4,1.8c-2.8-0.8-5.5-2-8.1-3.6c-2-1.2-4.3-3.7-6.8-5.3c-1.8-1.6-3.7-3.1-5.6-4.6
			c1.1-0.4,2.1-2.5,2.4-3.3c0.9-2.5,0.5-5.3-1.2-7.4c-3.1-3.9-9.8-3-11,1.8c-2.4-2.2-4.9-4.4-7.4-6.5c1.7-0.8,2.8-2.6,2.7-4.5
			s-1.3-3.4-2.9-4.2c2.4-1.7,5.1-3,8.2-3.6c0.4-0.1,0.9-0.1,1.3-0.2c-0.7,3.3,1.9,6.9,5.4,7.3c3.5,0.4,6.9-2.8,7.2-6.2
			c1.4,0.4,2.8,0.8,4.1,1.2C2280.8,653.2,2293.4,664.8,2290.8,679.7z"/>
		<path id="XMLID_7287_" class="st15" d="M2273.8,661.1c-2.3,0.5-4.6,3.1-4.6,5.6c-0.9,4,1.8,8.4,6.1,8.8c4.4,0.4,8-3.2,7.2-7.5
			C2281.8,664,2278,660.2,2273.8,661.1z"/>
		<path id="XMLID_7286_" class="st15" d="M2235.9,664.7c-2.3,0.3-4.4,2-4.8,4.4c0,0.3,0,0.7,0,1c-0.1,1.4,0.3,2.8,1.2,3.9
			c1.7,2,4.6,2.2,6.8,1C2244.2,672.1,2241.6,663.8,2235.9,664.7z"/>
		<path id="XMLID_7285_" class="st15" d="M2251,679.3c-2.4-0.1-5.8,2.4-5.6,4.9c-0.6,2.6,0.6,5.7,2.8,7.1c3.5,2.2,7.9,0.5,8.8-3.7
			C2257.7,684,2255,679.5,2251,679.3z"/>
		<path id="XMLID_7284_" class="st15" d="M2261.2,693.8c-2.5,1-4.2,3.7-3.7,6.4c0.3,1.4,1.1,2.7,2.3,3.5c1.8,1.5,4.8,1.4,6.7,0.1
			C2271.7,700.2,2267.1,691.5,2261.2,693.8z"/>
	</g>
</g>
</svg>
